<svg version="1.1" xmlns="http://www.w3.org/2000/svg" viewBox="200.75 129.87 2438.95 2308.58"><rect id="backgroundrect" width="100%" height="100%" x="0" y="0" fill="none" stroke="none" style="" class=""/>





<g class="currentLayer" style=""><title>Layer 1</title><rect fill="#ffffff" style="color: rgb(0, 24, 86);" stroke-dashoffset="" fill-rule="nonzero" id="svg_6" x="200.77781677246094" y="129.88891100883484" width="2438.902099609375" height="2308.555419921875" class="" fill-opacity="1" opacity="1" rx="400" ry="400"/><path d="M789.2221848964691,1060.1111314296722 C882.6121848964691,1060.1111314296722 976.0021848964691,1060.1111314296722 1072.2221848964691,1060.1111314296722 C1071.5806260064692,1065.2436025696722 1070.9468690664692,1069.7058542396721 1069.6987473964691,1074.6306626796722 C1069.3996848964691,1075.8185337696723 1069.1006223964691,1077.0064048696722 1068.7924973964691,1078.2302720496723 C1068.3245677064692,1080.0584849496722 1068.3245677064692,1080.0584849496722 1067.8471848964691,1081.9236314296722 C1067.542966146469,1083.1308384596723 1067.238747396469,1084.3380454896724 1066.9253098964691,1085.5818345496723 C1065.1025498264692,1092.7832947296722 1063.177424026469,1099.9419212796722 1061.2221848964691,1107.1111314296722 C1124.5821848964692,1107.1111314296722 1187.9421848964691,1107.1111314296722 1253.2221848964691,1107.1111314296722 C1254.285569396469,1111.3646694396723 1253.8534987364692,1114.1544486496723 1252.9746263064692,1118.3105943196722 C1252.8300750664691,1119.0281237696722 1252.685523826469,1119.7456532196722 1252.5365922464691,1120.4849259896723 C1252.0573135464692,1122.8529963696724 1251.5656798164691,1125.2183163796722 1251.0737473964691,1127.5837876796722 C1250.7377048464691,1129.2298383196721 1250.4023774264692,1130.876035109672 1250.067735436469,1132.5223710496723 C1249.3650017764692,1135.9707772996721 1248.656696286469,1139.4179724296723 1247.943864586469,1142.8643052596722 C1247.0297845964692,1147.2836647096722 1246.124814696469,1151.7048218896723 1245.223399876469,1156.1267802696723 C1244.3638442264692,1160.3421961696722 1243.5004375464691,1164.5568197796722 1242.6362473964691,1168.7712876796722 C1242.3888323664692,1169.9792937696723 1242.3888323664692,1169.9792937696723 1242.136419056469,1171.2117040196722 C1241.669208526469,1173.4885929596721 1241.199345116469,1175.764916569672 1240.7285325564692,1178.0410630696722 C1240.590295706469,1178.7159477096723 1240.4520588564692,1179.3908323596722 1240.309633016469,1180.0861680496723 C1239.739287056469,1182.8310622996723 1239.1100145564692,1185.4476424496722 1238.2221848964691,1188.1111314296722 C1214.1321848964692,1188.1111314296722 1190.042184896469,1188.1111314296722 1165.2221848964691,1188.1111314296722 C1163.9021848964692,1194.7111314296722 1162.5821848964692,1201.3111314296723 1161.2221848964691,1208.1111314296722 C1159.737184896469,1213.5561314296722 1159.737184896469,1213.5561314296722 1158.2221848964691,1219.1111314296722 C1181.322184896469,1219.1111314296722 1204.4221848964692,1219.1111314296722 1228.2221848964691,1219.1111314296722 C1227.587344816469,1225.4595321996721 1226.891897746469,1231.5397905596724 1225.6987473964691,1237.7673814296722 C1225.551905046469,1238.553991539672 1225.4050627064692,1239.3406016396723 1225.253770586469,1240.1510484196722 C1224.788842126469,1242.6385002996722 1224.3184001764691,1245.1248635896723 1223.8471848964691,1247.6111314296722 C1223.2327819264692,1250.8710965596722 1222.621000896469,1254.1315435296722 1222.0112473964691,1257.3923814296722 C1221.8619779864691,1258.1895860196723 1221.7127085764691,1258.9867906096722 1221.5589158564692,1259.8081529096721 C1219.9951352164692,1268.2228529196723 1218.5958575964692,1276.6636150796721 1217.2221848964691,1285.1111314296722 C1217.763832846469,1283.9512168796723 1218.305480796469,1282.7913023296724 1218.8635423164692,1281.5962388496723 C1221.9864659564691,1274.9128870496722 1225.1231730464692,1268.2476176596722 1228.4721848964691,1261.6736314296722 C1231.8743574164691,1254.9393540096721 1235.0161156964691,1248.0943856196723 1238.1596848964691,1241.2361314296722 C1241.665395196469,1233.5940482596723 1245.2059445764692,1225.9895099296723 1249.014177086469,1218.4936997896723 C1253.996194826469,1208.6613641696722 1258.719741566469,1198.6999097296723 1263.498292686469,1188.767564539672 C1265.512219036469,1184.5822845996722 1267.5331865764692,1180.4004750696722 1269.5581223964691,1176.2205064296722 C1275.718719796469,1163.4893471596722 1281.7489833464692,1150.7066635796723 1287.677018876469,1137.8662583796722 C1291.692593576469,1129.1912589696722 1295.870276136469,1120.6220071796722 1300.2221848964691,1112.1111314296722 C1301.2232851864692,1110.1116819596723 1302.2234383164691,1108.1117576496722 1303.2221848964691,1106.1111314296722 C1319.6332717564692,1106.0878024796723 1336.044353266469,1106.0701522696722 1352.4554526764691,1106.0593192596723 C1360.0748866264692,1106.0541562896724 1367.694310286469,1106.0471135896723 1375.313737626469,1106.0356919796723 C1381.9524731664692,1106.0257451496723 1388.5912012664692,1106.0192780096722 1395.229944046469,1106.0170429396721 C1398.747228256469,1106.0157358196723 1402.2644911564691,1106.0126499596722 1405.7817685564692,1106.0054013696722 C1409.7019342764693,1105.9973875396722 1413.6220788864691,1105.9971402896722 1417.5422532564692,1105.9976060396723 C1418.716851036469,1105.9940107596722 1419.8914488164692,1105.9904154896722 1421.1016404664692,1105.9867112596721 C1422.693977576469,1105.9887732596721 1422.693977576469,1105.9887732596721 1424.318483116469,1105.9908769096724 C1425.2467286464691,1105.9899551196722 1426.1749741864692,1105.989033329672 1427.131348376469,1105.9880835996723 C1429.2221848964691,1106.1111314296722 1429.2221848964691,1106.1111314296722 1430.2221848964691,1107.1111314296722 C1430.504266756469,1110.2392901096723 1430.7246614564692,1113.3515533596724 1430.9057786464691,1116.4861314296722 C1430.9954037364691,1117.9486231896722 1430.9954037364691,1117.9486231896722 1431.086839436469,1119.4406602396723 C1431.282700386469,1122.6638757296723 1431.471374556469,1125.8874666396723 1431.6596848964691,1129.1111314296722 C1431.7935655664692,1131.3458410896724 1431.927600126469,1133.5805415396721 1432.0617845064692,1135.8152329896723 C1432.9453025264693,1150.6769319396722 1433.7136416464691,1165.5423238296721 1434.4030320664692,1180.4141709796722 C1434.954686626469,1192.2998193596723 1435.6719620464692,1204.1568942296722 1436.544938806469,1216.0239732296723 C1437.0865942064693,1223.5734957196723 1437.431879686469,1231.1086482496721 1437.6596848964691,1238.6736314296722 C1438.054460156469,1251.5028646196722 1438.950082056469,1264.2810879396723 1439.8625352364693,1277.0819261096722 C1440.8306872764692,1290.7115346596722 1441.613559266469,1304.3359499196722 1442.2221848964691,1317.9861314296722 C1443.0900046964691,1337.4010383996722 1444.559718726469,1356.7495639996723 1446.2221848964691,1376.1111314296722 C1451.947705066469,1348.6975528896724 1457.6434078364691,1321.2783639996724 1463.2544114564691,1293.8411118996723 C1464.2393439364691,1289.0258171596722 1465.2265565264693,1284.2109916496722 1466.2143723964691,1279.3962876796722 C1466.379820546469,1278.5898733396723 1466.545268696469,1277.7834590096722 1466.7157304264692,1276.9526078696722 C1467.384997466469,1273.6907679596723 1468.054353376469,1270.4289462896722 1468.7237412964691,1267.167131189672 C1470.383539206469,1259.0789898496723 1472.042926856469,1250.9907693296723 1473.6965043564692,1242.9013535996723 C1474.516948596469,1238.8878201096722 1475.338126766469,1234.8744370496722 1476.1596848964691,1230.8611314296722 C1476.322741236469,1230.0645310896723 1476.485797566469,1229.2679307496724 1476.653795006469,1228.4471909996723 C1479.5104751364693,1214.5001082096724 1482.428703736469,1200.566306749672 1485.358018636469,1186.6343247896723 C1487.965796576469,1174.2233291696723 1490.5049886264692,1161.800808299672 1492.9721848964691,1149.3611314296722 C1494.951640226469,1139.3893885296723 1496.9581599364692,1129.4251943996724 1499.0971848964691,1119.4861314296722 C1499.3005345064691,1118.5312583796722 1499.5038841164692,1117.5763853396722 1499.713395836469,1116.5925767396723 C1499.8993430964692,1115.7401841596723 1500.085290366469,1114.8877915896724 1500.2768723964691,1114.0095689296722 C1500.516396326469,1112.9062119996722 1500.516396326469,1112.9062119996722 1500.7607591164692,1111.7805650196722 C1501.2221848964691,1110.1111314296722 1501.2221848964691,1110.1111314296722 1502.2221848964691,1109.1111314296722 C1503.731059036469,1109.0110045596723 1505.244602086469,1108.9803766696723 1506.756791826469,1108.9774186596724 C1507.7375166264692,1108.9731536796721 1508.718241416469,1108.9688886896722 1509.7286851364693,1108.9644944696722 C1510.814186546469,1108.9649476496722 1511.8996879464692,1108.9654008396724 1513.018083336469,1108.9658677596722 C1514.1549256764692,1108.9625091496723 1515.291768026469,1108.9591505296721 1516.4630601364693,1108.9556901496721 C1520.252570976469,1108.9461316996722 1524.0420377164692,1108.9442334196724 1527.8315598964691,1108.9431626796722 C1530.470252306469,1108.9399492596722 1533.1089445264693,1108.9365851196721 1535.7476365564692,1108.9330766196722 C1541.302957656469,1108.9266654896724 1546.8582668464692,1108.9251950896723 1552.4135911464691,1108.9258286996724 C1558.782631606469,1108.9264240896723 1565.151585866469,1108.9159854996724 1571.520604606469,1108.9000850296723 C1577.014754436469,1108.8868690096722 1582.5088766864692,1108.8816508796722 1588.003042216469,1108.8822841096721 C1591.2716988964692,1108.8825358296722 1594.540264016469,1108.8789116296723 1597.8089082264692,1108.8691060496722 C1636.983890546469,1108.7627569496722 1636.983890546469,1108.7627569496722 1653.5346848964691,1113.3611314296722 C1654.3489695664691,1113.5780161996722 1655.1632542364691,1113.7949009596723 1656.0022141964691,1114.0183579896723 C1679.3433055564692,1120.4249122996723 1701.5646601364692,1131.4697698296723 1714.2221848964691,1153.1111314296722 C1714.7416770864693,1153.9876939296723 1715.261169266469,1154.8642564296722 1715.7964036464691,1155.7673814296722 C1719.0355505664693,1161.7071772896722 1721.198762626469,1167.7532410696722 1723.0346848964691,1174.2361314296722 C1723.2417405564693,1174.9638072096723 1723.448796226469,1175.6914829896723 1723.662126306469,1176.4412095496723 C1731.351684436469,1205.3337363196722 1726.6869299364691,1238.3953119296723 1712.2573411464691,1264.3259751796722 C1699.306739816469,1286.6596536996722 1676.9416385464692,1301.7059684796723 1652.380876306469,1308.5212876796722 C1650.3314899664692,1309.0661510696723 1648.2782037764691,1309.5919244896722 1646.2221848964691,1310.1111314296722 C1644.452946616469,1310.5732603396723 1644.452946616469,1310.5732603396723 1642.6479661464691,1311.0447251796722 C1631.1310147864692,1313.893296579672 1619.851077956469,1314.2574064296723 1608.0229661464691,1314.2087876796722 C1606.7067678764693,1314.2073727296722 1605.390569596469,1314.2059577796722 1604.034486536469,1314.2044999596724 C1600.574022256469,1314.2007235696724 1597.1136014864692,1314.1909363796722 1593.653154136469,1314.1797959796722 C1590.106508916469,1314.1694755696722 1586.5598565064693,1314.1649798096723 1583.0132005164692,1314.1599595496723 C1576.082844366469,1314.1493085496722 1569.1525167364691,1314.1322925296722 1562.2221848964691,1314.1111314296722 C1562.1227659464691,1315.1248179496722 1562.023347006469,1316.1385044796723 1561.9209153664692,1317.1829087696722 C1560.5625395664692,1330.451033199672 1558.494347016469,1343.5760412496722 1556.3471848964691,1356.7361314296722 C1556.004348596469,1358.8597666796722 1555.661899336469,1360.9834644596722 1555.3198411464691,1363.1072251796722 C1553.0034624564692,1377.4503126196723 1550.610778176469,1391.7795717796723 1548.2221848964691,1406.1111314296722 C1478.262184896469,1406.1111314296722 1408.302184896469,1406.1111314296722 1336.2221848964691,1406.1111314296722 C1335.5853785964691,1401.0166809996722 1335.070466216469,1396.2866694496722 1334.9057786464691,1391.2048814296722 C1334.867670736469,1390.0879087696721 1334.829562826469,1388.9709361196722 1334.790300126469,1387.8201158096722 C1334.7471971064692,1386.4311509596723 1334.7040940764691,1385.0421861196724 1334.6596848964691,1383.6111314296722 C1334.5153098964693,1379.1561314296723 1334.370934896469,1374.7011314296722 1334.2221848964691,1370.1111314296722 C1309.967184896469,1369.6161314296724 1309.967184896469,1369.6161314296724 1285.2221848964691,1369.1111314296722 C1284.8921848964692,1371.0911314296723 1284.562184896469,1373.0711314296723 1284.2221848964691,1375.1111314296722 C1283.5502571264692,1377.0785626196723 1282.820588626469,1379.0269689696722 1282.0424973964691,1380.9548814296722 C1281.608083336469,1382.0364048696722 1281.173669266469,1383.1179283096722 1280.7260911464691,1384.2322251796722 C1280.2710520864691,1385.3472642396723 1279.8160130164692,1386.4623032996722 1279.3471848964691,1387.6111314296722 C1278.899880206469,1388.7261704896723 1278.452575526469,1389.8412095496722 1277.9917161464691,1390.9900376796722 C1275.901803796469,1396.1624166296722 1273.7228515264692,1401.109798169672 1271.2221848964691,1406.1111314296722 C1234.9221848964692,1406.1111314296722 1198.6221848964692,1406.1111314296722 1161.2221848964691,1406.1111314296722 C1162.0399192464693,1401.2047253096723 1162.8384822164692,1398.3133525696721 1164.8823411464691,1393.9626939296722 C1165.4242307964691,1392.8014903196722 1165.9661204464692,1391.6402866996723 1166.524430986469,1390.4438950996723 C1167.1108557964692,1389.2078189296722 1167.697614356469,1387.9719010396723 1168.2846848964691,1386.7361314296722 C1168.887461656469,1385.4541744696721 1169.4898353864692,1384.1720279296724 1170.0918138064692,1382.8896958796722 C1173.3046753864692,1376.0644028196723 1176.5719938764692,1369.2694962296723 1179.9887864564691,1362.5435044796723 C1186.264800536469,1350.1661661896724 1192.2001739964692,1337.6134719596723 1198.2221848964691,1325.1111314296722 C1198.790661456469,1323.9314781096723 1199.3591380164692,1322.7518247896724 1199.9448411464691,1321.5364243996723 C1201.477147436469,1318.3541196096721 1203.006674966469,1315.1705010196722 1204.5346848964691,1311.9861314296722 C1205.2091465664691,1310.5841551096723 1205.2091465664691,1310.5841551096723 1205.897233726469,1309.1538560396723 C1206.309975426469,1308.2915537896722 1206.722717126469,1307.4292515496722 1207.1479661464691,1306.5408189296722 C1207.502861166469,1305.8007359196722 1207.857756186469,1305.0606529096722 1208.223405596469,1304.2981431496723 C1209.301763616469,1301.9368791196723 1210.2581113664692,1299.5213152596723 1211.2221848964691,1297.1111314296722 C1189.112184896469,1296.7811314296723 1167.002184896469,1296.4511314296724 1144.2221848964691,1296.1111314296722 C1143.562184896469,1300.7311314296721 1142.9021848964692,1305.3511314296723 1142.2221848964691,1310.1111314296722 C1141.726243896469,1312.5878905296722 1141.1960376764691,1315.0586163796722 1140.6010911464691,1317.5134751796722 C1140.157331376469,1319.3745591596721 1140.157331376469,1319.3745591596721 1139.704606776469,1321.2732408096722 C1139.401032556469,1322.5191197096722 1139.0974583364691,1323.7649986196723 1138.7846848964691,1325.0486314296722 C1136.6927329764692,1333.717860149672 1134.7306114164692,1342.3839422796723 1133.0149095064692,1351.1357896296722 C1131.6820302264691,1357.8883593396722 1130.202253836469,1364.6106419096723 1128.7426927064691,1371.3367173696722 C1128.221269206469,1373.7403525496723 1127.7020713964691,1376.1444609196724 1127.1831223964691,1378.5486314296722 C1126.8421081064691,1380.1241807396723 1126.5009665764692,1381.6997025196722 1126.1596848964691,1383.2751939296722 C1125.9345420764691,1384.3179598896722 1125.9345420764691,1384.3179598896722 1125.7048509164692,1385.3817918296722 C1124.2724961864692,1391.9724476096721 1122.747522056469,1398.5414650396722 1121.2221848964691,1405.1111314296722 C985.7670072264691,1407.6248118496724 985.7670072264691,1407.6248118496724 931.3818528664691,1394.7214829896723 C919.0431464564691,1391.8521382496722 906.5092262364691,1389.9028062796722 894.0265672164692,1387.7724320896723 C888.2893307864691,1386.7751510796722 882.5682856864692,1385.6964917796722 876.8471848964691,1384.6111314296722 C865.6831414964691,1382.5204229996723 854.4915832364691,1380.6366633496723 843.2847459364691,1378.7932603396723 C832.4102404164692,1377.0026710496722 821.5599223964691,1375.1119294296723 810.7221848964691,1373.1111314296722 C799.136263936469,1370.9729818996723 787.5342475564692,1368.9655806196722 775.9096848964691,1367.0486314296722 C764.6288872864691,1365.1865888396724 753.3553620364692,1363.2933895196722 742.0971848964691,1361.2986314296722 C740.3273423664691,1360.9881687796724 740.3273423664691,1360.9881687796724 738.5217454464691,1360.6714341596721 C737.4509373364691,1360.4800889496723 736.3801292364691,1360.2887437296722 735.2768723964691,1360.0916001796722 C734.3434300164691,1359.9255528196722 733.409987626469,1359.7595054496724 732.4482591164691,1359.5884263496723 C730.2221848964691,1359.1111314296722 730.2221848964691,1359.1111314296722 728.2221848964691,1358.1111314296722 C728.2221848964691,1355.1411314296722 728.2221848964691,1352.1711314296722 728.2221848964691,1349.1111314296722 C819.302184896469,1349.1111314296722 910.3821848964691,1349.1111314296722 1004.2221848964691,1349.1111314296722 C1004.5521848964692,1345.8111314296723 1004.8821848964691,1342.5111314296723 1005.2221848964691,1339.1111314296722 C1005.5987128164691,1336.8220882896721 1006.0106145664691,1334.5384687196722 1006.4643723964691,1332.2634751796722 C1006.5882533164691,1331.6343723996722 1006.7121342364692,1331.0052696096723 1006.8397691264692,1330.3571031096722 C1007.1111288264691,1328.9816508096724 1007.3845850164691,1327.6066107696722 1007.6599290364691,1326.2319505196722 C1008.277620976469,1323.1476725696723 1008.8848568264691,1320.0613574396723 1009.4928758164691,1316.9751603596724 C1009.8338883164691,1315.2444608596722 1010.1754172264691,1313.5138630596723 1010.5174119464691,1311.7833573796722 C1011.9959305464691,1304.2927027496721 1013.4446144364691,1296.7964642096722 1014.8862473964691,1289.2986314296722 C1015.1169593764691,1288.0988213996723 1015.3476713464692,1286.8990113696723 1015.5853745964691,1285.6628434696722 C1016.0585681764692,1283.2015726596724 1016.5317225364691,1280.7402943096722 1017.0048387064692,1278.2790086296723 C1020.4035530564691,1260.6048553696724 1023.8279417164691,1242.9373876996722 1027.389207606469,1225.2952439796723 C1029.7120235564691,1213.7789272596722 1031.921938836469,1202.2435786196722 1034.0893723964691,1190.6970689296722 C1036.8074529864691,1176.2171123496723 1039.618740106469,1161.7563565796722 1042.469987626469,1147.3020493996723 C1044.5113937464691,1136.9253476896722 1046.425537286469,1126.5330258596723 1048.2221848964691,1116.1111314296722 C1047.3891685364692,1115.9686497396722 1047.3891685364692,1115.9686497396722 1046.5393235664692,1115.8232896296722 C1034.7938325364692,1113.8093329396722 1023.0626858964691,1111.7306796196722 1011.3471848964691,1109.5486314296722 C999.6546247964691,1107.3711757596723 987.9525504264691,1105.2685763696722 976.2312180964691,1103.2517564296722 C963.2236378764692,1101.0090752796723 950.2388524964691,1098.6583618296722 937.2612168764691,1096.2489793296722 C921.4043293764691,1093.3074565696722 905.5461075064691,1090.4382337896723 889.627702476469,1087.8491685396723 C880.3524800864691,1086.3296537496722 871.118566656469,1084.6201220596722 861.8859422164692,1082.8628404096721 C847.5792643264691,1080.1424848296722 833.2384613764691,1077.6286773496722 818.8901536464691,1075.1384751796722 C817.3161053464692,1074.8649520296722 815.7422087164691,1074.5905544396724 814.1684739564691,1074.3152329896723 C810.223125366469,1073.6259402696724 806.2760431764691,1072.9533074596723 802.3232591164691,1072.3079087696724 C801.1461159464691,1072.1114299696724 801.1461159464691,1072.1114299696724 799.9451920964691,1071.9109818896723 C798.4551868364691,1071.6624440996723 796.9641309464691,1071.4200991796722 795.4719560164691,1071.1849381896723 C790.4476127364692,1070.3365592696723 790.4476127364692,1070.3365592696723 788.2221848964691,1068.1111314296722 C787.8888515664692,1062.7777980996723 787.8888515664692,1062.7777980996723 789.2221848964691,1060.1111314296722 zM1588.2221848964691,1187.1111314296722 C1586.053680846469,1196.1465649896722 1584.478795416469,1205.2487503796722 1583.0346848964691,1214.4236314296722 C1582.8558274764691,1215.5320640496723 1582.6769700564691,1216.6404966596722 1582.4926927064691,1217.7825181496723 C1581.539563646469,1223.9741411396722 1581.0307754964692,1229.8474236896723 1581.2221848964691,1236.1111314296722 C1590.7253330764693,1236.5324532696723 1597.3863607664691,1236.2793432596723 1604.8120286464691,1229.6853501796722 C1607.6243484264692,1226.5458352996723 1609.425522676469,1222.8962703396724 1611.2221848964691,1219.1111314296722 C1611.532848956469,1218.4717564296723 1611.8435130164692,1217.8323814296723 1612.1635911464691,1217.1736314296722 C1615.0107349364691,1210.5715588796722 1616.604258656469,1202.0698527196723 1614.2846848964691,1195.1111314296722 C1610.935863336469,1190.2401182596723 1605.952730406469,1188.1901920996722 1600.2221848964691,1187.1111314296722 C1598.139838976469,1187.0436979496722 1596.055499326469,1187.0259867096722 1593.9721848964691,1187.0486314296722 C1592.3557005164691,1187.0621665896722 1592.3557005164691,1187.0621665896722 1590.7065598964691,1187.0759751796722 C1589.4767942664691,1187.0933775196722 1589.4767942664691,1187.0933775196722 1588.2221848964691,1187.1111314296722 zM1340.2221848964691,1210.1111314296722 C1334.874699536469,1225.7729901096723 1329.5397008764692,1241.4390706396723 1324.2221848964691,1257.1111314296722 C1323.754527116469,1258.4893305896721 1323.754527116469,1258.4893305896721 1323.2774217164692,1259.8953721496723 C1321.656042896469,1264.6765826896722 1320.039955736469,1269.4595127196721 1318.433274986469,1274.2456834296722 C1317.9607056364691,1275.6515473296722 1317.4865735464691,1277.0568869296721 1317.0108506664692,1278.4616868496723 C1316.3581984764692,1280.3902444296723 1315.711882116469,1282.320942759672 1315.0659348964691,1284.2517564296722 C1314.7069309864692,1285.3194224496722 1314.347927086469,1286.3870884596722 1313.978044276469,1287.4871079896723 C1313.083785526469,1290.136475669672 1313.083785526469,1290.136475669672 1313.2221848964691,1293.1111314296722 C1323.1221848964692,1293.1111314296722 1333.022184896469,1293.1111314296722 1343.2221848964691,1293.1111314296722 C1342.688734286469,1265.4397999796722 1342.118419546469,1237.7733706996723 1341.2221848964691,1210.1111314296722 C1340.8921848964692,1210.1111314296722 1340.5621848964693,1210.1111314296722 1340.2221848964691,1210.1111314296722 z" fill="#2E3192" id="svg_1" class=""/><path d="M627.2221848964691,976.2916867733002 C627.9939808564691,976.2918982633001 628.7657768164692,976.2921097433002 629.5609605264691,976.2923276433002 C641.8564513864691,976.3259075333002 653.3500581564691,977.2710632133002 665.2221848964691,980.6666867733002 C665.9065159464691,980.8486057233001 666.5908470064692,981.0305246633002 667.2959153664691,981.2179563033002 C678.4311576164691,984.1896558233002 688.8546132164691,988.6781245133002 699.2221848964691,993.6666867733002 C699.9893382164692,994.0339084533002 700.7564915364692,994.4011301333002 701.5468919264691,994.7794797433002 C714.6886212764691,1001.1566392233002 726.4860974764691,1009.0020549733001 738.2221848964691,1017.6666867733002 C738.9282688764691,1018.1842453633002 739.634352866469,1018.7018039633002 740.3618333364691,1019.2350461533001 C748.2452613364692,1025.0374331133003 748.2452613364692,1025.0374331133003 751.2221848964691,1027.6666867733002 C751.2221848964691,1028.3266867733 751.2221848964691,1028.9866867733003 751.2221848964691,1029.6666867733002 C751.7532786464691,1029.8806711533002 752.284372396469,1030.0946555233002 752.8315598964691,1030.3151242733002 C756.1325030864691,1032.1813437833002 758.7329285764691,1034.7043903533001 761.4721848964691,1037.2916867733002 C762.0463011064692,1037.8285813033003 762.6204173164691,1038.3654758333 763.2119309864692,1038.9186398933002 C772.550326866469,1047.6873332433001 772.550326866469,1047.6873332433001 776.2221848964691,1051.6666867733002 C776.7867942664691,1052.2544992733 777.3514036464692,1052.8423117733 777.9331223964691,1053.4479367733002 C780.782791806469,1058.3528223033002 779.0273789664691,1064.3894153433002 777.8237473964691,1069.6432492733002 C777.6735212564691,1070.3093169333001 777.5232951264691,1070.9753845833002 777.3685166864691,1071.6616361133001 C776.8681812664692,1073.8732528933 776.3575305664691,1076.0823604933003 775.8471848964691,1078.2916867733002 C775.4869761464691,1079.8775165033003 775.1276227064691,1081.4635407233002 774.7690598964691,1083.0497434133001 C773.9976436064692,1086.4596938033 773.2228015064691,1089.8688407033 772.4458177064691,1093.2775266133003 C770.5540405464691,1101.5919081033003 768.7066973464691,1109.9162112533002 766.8581712264692,1118.2402951733002 C766.431528116469,1120.1614993833002 766.0046041064691,1122.0826412433003 765.5774095064692,1124.0037229033 C762.4717412464692,1137.9698438233002 759.4131260864691,1151.9453120933001 756.4018723964691,1165.9320676333002 C753.3690105264691,1180.0161887533002 750.2967891564691,1194.0916253833002 747.2221848964691,1208.1666867733002 C743.8101640264691,1223.7882229433003 740.4057618764691,1239.4112621833 737.0346848964691,1255.0416867733002 C733.918189946469,1269.4866006933003 730.7789398364691,1283.9265136133001 727.5901048164692,1298.3556516133 C727.214814426469,1300.0543718733002 726.8395701964691,1301.7531023233003 726.4643723964691,1303.4518430233002 C726.2791149764691,1304.2904386033001 726.0938575664691,1305.1290341833 725.9029862864691,1305.9930417533 C724.7574006364691,1311.1934300633002 723.6368049364692,1316.3985659733003 722.5346238564691,1321.6083219033003 C721.817541486469,1324.9918151433003 721.0906993964691,1328.3731727333002 720.3625657564692,1331.7543027433003 C720.0210544964691,1333.3528415733 719.6842419764691,1334.9523920033002 719.3523118464691,1336.5529477633002 C718.8963121164691,1338.7498396133 718.4244451064692,1340.9427399733001 717.9487473964691,1343.1354367733002 C717.6865843064691,1344.3774484933 717.4244212264691,1345.6194602133 717.1543138064692,1346.8991086533001 C716.6929099964691,1348.2690598233003 716.6929099964691,1348.2690598233003 716.2221848964691,1349.6666867733002 C715.2321848964691,1349.9966867733 714.2421848964691,1350.3266867733003 713.2221848964691,1350.6666867733002 C712.7271848964691,1349.5735617733003 712.2321848964691,1348.4804367733002 711.7221848964691,1347.3541867733002 C708.8747204264691,1341.6592578333002 705.0835571764692,1336.7062336733002 701.2221848964691,1331.6666867733002 C700.7735911464691,1331.0492258333002 700.3249973964691,1330.4317649033 699.8628098964691,1329.7955930233002 C691.5783812364691,1319.1332265033002 678.9787888564691,1311.8768878633002 667.2221848964691,1305.6666867733002 C666.4732395864692,1305.2580539633002 665.7242942664691,1304.8494211433 664.9526536464691,1304.4284055233002 C642.9505388664691,1292.8224020033 616.0403580364691,1289.6805197933002 591.4839036464691,1289.3932492733002 C590.4928008964691,1289.3806758833002 589.5016981364691,1289.3681024833002 588.4805619764691,1289.3551480733001 C566.203226096469,1289.1273034033002 544.9840443064691,1289.4212000233001 523.2221848964691,1294.6666867733002 C522.1475901664692,1294.9183762233001 521.0729954464691,1295.1700656833002 519.965837236469,1295.4293820833002 C478.99232769646915,1305.2719383933002 439.3162004464691,1325.5363792933001 407.3237473964691,1353.0221555233002 C405.2221848964691,1354.6666867733002 405.2221848964691,1354.6666867733002 402.2221848964691,1355.6666867733002 C402.02612678646915,1350.0927036833002 402.7484165064691,1345.0933975133003 403.8745286464691,1339.6432492733002 C404.0497756864691,1338.7656142333003 404.22502272646915,1337.8879791933002 404.4055802864691,1336.9837491533 C404.7855813064691,1335.0824792033002 405.1684192564691,1333.1817745133003 405.5537888964691,1331.2815854533 C406.60030158646913,1326.1173874333 407.6241180264691,1320.9486996833002 408.6479661464691,1315.7799680233002 C408.8613664164691,1314.7043208933 409.0747666864691,1313.6286737733003 409.29463362646914,1312.5204312833002 C411.59717605646915,1300.8615491533 413.7260181264691,1289.1721659233 415.8471848964691,1277.4791867733002 C418.4790020164691,1262.9969332933001 421.1978346164691,1248.5421286133 424.1397263964691,1234.1197202233002 C427.0601258864691,1219.7766566333003 429.6832442264691,1205.3826874533002 432.3011643864691,1190.9817807633003 C434.87030025646914,1176.8614650233003 437.5485291664691,1162.7718496133002 440.4087083364691,1148.7077023933002 C442.5284856564691,1138.2770520833 444.4732856864691,1127.8259213733002 446.3025071664691,1117.3400266133003 C448.0315533264691,1107.5243754433002 449.9494630464691,1097.7507500533002 451.9096848964691,1087.9791867733002 C452.1356736664691,1086.8508139733003 452.1356736664691,1086.8508139733003 452.3662278664691,1085.6996457533 C453.06783194646914,1082.2019995533 453.77706087646914,1078.7063849133 454.5046555964691,1075.2140500533 C454.93013364646913,1073.1105467933003 455.3279044264691,1071.0006128833002 455.6643235664691,1068.8810422433003 C456.64610690646913,1063.0779905633003 458.8391687264691,1060.0931311533002 463.1596848964691,1056.1666867733002 C463.74379134646915,1055.6111814033002 464.3278977864691,1055.0556760333002 464.92970442646913,1054.4833371633001 C470.1338164664691,1049.5939614433 475.61239245646914,1045.0808264033003 481.2221848964691,1040.6666867733002 C482.3412692764691,1039.7484207133002 483.4583540764691,1038.8277140033001 484.5737473964691,1037.9049680233002 C517.2227924964691,1011.0494277233001 556.4837151364691,987.3792976933001 598.2221848964691,978.6666867733002 C599.5189012064691,978.3906662633002 599.5189012064691,978.3906662633002 600.8418138064691,978.1090695833002 C609.6189037964691,976.4328321433002 618.3223047764691,976.2691572433001 627.2221848964691,976.2916867733002 z" fill="#2E3192" id="svg_2" class=""/><path d="M2172.6666293144226,1118.6666870117188 C2186.803289554423,1118.6195011517189 2200.9399372044227,1118.5846080317187 2215.0766606344223,1118.5630626717189 C2221.6438691044227,1118.5527118617188 2228.2110239544227,1118.5387157817188 2234.7782015844223,1118.515808101719 C2241.1389925844223,1118.493764161719 2247.4997326644225,1118.4820533617187 2253.860558984423,1118.4769325217187 C2256.2637056044223,1118.4732924517189 2258.666850054423,1118.4661884917186 2261.0699744244225,1118.4552269017188 C2273.7893216644225,1118.3996203917186 2286.4294282644223,1118.6321112517187 2299.1204867344227,1119.5343627917186 C2300.7459125644227,1119.6470012417187 2300.7459125644227,1119.6470012417187 2302.4041752844223,1119.7619152117188 C2331.404528614423,1122.0475475917187 2360.168611954423,1132.4325139317189 2379.5377230644226,1154.8854370117188 C2386.9179932944226,1164.5271845317188 2391.5386915744225,1174.9793537517187 2394.6666293144226,1186.6666870117188 C2394.8520931844223,1187.3364355517188 2395.0375570444226,1188.0061840817189 2395.2286410344227,1188.6962280317189 C2397.317618954423,1197.3642751417187 2397.063777554423,1206.2428564317188 2397.0416293144226,1215.1041870117188 C2397.0407531544224,1215.9539511117187 2397.0398769944227,1216.8037152117188 2397.0389742844227,1217.6792297317188 C2396.996863724423,1230.0257842017188 2396.7172722044224,1241.8793449217187 2392.6666293144226,1253.6666870117188 C2392.4199349744226,1254.3953295917188 2392.1732406444225,1255.1239721717188 2391.9190707244225,1255.8746948217188 C2386.9213530844227,1270.1284677917188 2379.2754501544223,1281.8798658217188 2368.6666293144226,1292.6666870117188 C2367.9189730644225,1293.4272338817186 2367.1713168144224,1294.1877807617188 2366.4010043144226,1294.9713745117188 C2337.4843612844224,1322.6432613817187 2297.1912074844226,1325.0566840517188 2259.4791293144226,1324.7916870117188 C2256.9641589544226,1324.7816290817186 2254.4491846644223,1324.7725082417187 2251.9342074344227,1324.7643432617188 C2245.8449272644225,1324.7425714117187 2239.7557973544226,1324.7093203217187 2233.6666293144226,1324.6666870117188 C2233.486563394423,1325.8676904317188 2233.486563394423,1325.8676904317188 2233.3028597844227,1327.0929565417186 C2223.4030860844223,1393.0200478117188 2223.4030860844223,1393.0200478117188 2218.6666293144226,1416.6666870117188 C2204.6987901144225,1417.4457791317186 2190.791488514423,1417.8059240217187 2176.8033480644226,1417.7643432617188 C2174.9052212144225,1417.7624706017186 2173.0070938644226,1417.7610507217187 2171.1089663544226,1417.7600555417189 C2166.1920767744223,1417.7562970017188 2161.2752183044227,1417.7465265117187 2156.3583407444225,1417.7353515617187 C2151.3094151644227,1417.7249913217188 2146.2604844044226,1417.7205271217188 2141.2115511944226,1417.7155151317188 C2131.3632304744224,1417.7048958817188 2121.5149325144225,1417.6879032017187 2111.6666293144226,1417.6666870117188 C2112.1686907244225,1412.6813128217186 2112.737721904423,1407.7902090217187 2113.8306918144226,1402.8932495117188 C2114.062159104423,1401.8390380817186 2114.2936263844226,1400.7848266617189 2114.5321078344223,1399.6986694317188 C2114.7827499244227,1398.5743652317187 2115.0333920144226,1397.4500610317186 2115.2916293144226,1396.2916870117188 C2117.7264388044223,1385.1682714117187 2120.0196393944225,1374.0243273717188 2122.2291293144226,1362.8541870117188 C2124.1431286544225,1353.188003541719 2126.0908465144225,1343.5363498517188 2128.2291293144226,1333.9166870117188 C2130.3268787544225,1324.4725193717188 2132.171926094423,1314.9862834917187 2133.9847750644226,1305.4839782717188 C2135.9855493944224,1295.0122184617187 2138.1496665344225,1284.5831075417186 2140.4141879044228,1274.1649780317189 C2142.2700155744224,1265.5982693017188 2144.0227151644226,1257.0143470117187 2145.7291293144226,1248.4166870117188 C2147.4632375344227,1239.6794921517187 2149.2138589744227,1230.9473009217188 2151.0416293144226,1222.2291870117188 C2153.165229024423,1212.0873164317188 2155.2679460644226,1201.9413129717186 2157.3541293144226,1191.7916870117188 C2157.5187164144227,1190.9915618917187 2157.683303504423,1190.1914367717188 2157.8528780944225,1189.3670654317189 C2160.061395574423,1178.6212163017187 2162.2305321544227,1167.8679540317187 2164.3697543144226,1157.1080932617188 C2164.7110713744223,1155.3930258217188 2164.7110713744223,1155.3930258217188 2165.059283734423,1153.6433105517187 C2166.1865650144227,1147.9769204517188 2167.310406224423,1142.3098802717186 2168.4290804844227,1136.6417846717186 C2168.8401974944227,1134.5706390717187 2169.2514070944226,1132.4995118517188 2169.6627230644226,1130.4284057617188 C2169.8509060444226,1129.468824611719 2170.0390890344224,1128.5092434717187 2170.2329745244224,1127.5205841017187 C2170.4948858444227,1126.2059140817187 2170.4948858444227,1126.2059140817187 2170.762088294423,1124.8646850617188 C2170.913386974423,1124.0985136417187 2171.0646856544226,1123.3323422217188 2171.2205691344225,1122.542953491719 C2171.6666293144226,1120.6666870117188 2171.6666293144226,1120.6666870117188 2172.6666293144226,1118.6666870117188 zM2258.6666293144226,1196.6666870117188 C2256.6364787044226,1208.5451618017187 2254.6436014044225,1220.4273192717187 2252.9166293144226,1232.3541870117188 C2252.7892538244223,1233.2193896517188 2252.661878334423,1234.0845922817189 2252.5306429844227,1234.9760131817188 C2251.9725832544227,1238.9043313217187 2251.5045054644224,1242.6865465217188 2251.6666293144226,1246.6666870117188 C2260.753962504423,1247.1887253017187 2268.7726632844224,1246.3751261317188 2276.0416293144226,1240.4791870117188 C2281.9336102244224,1234.8129069817187 2284.7971514444225,1227.7461429517189 2285.6666293144226,1219.6666870117188 C2285.758966124423,1212.9773982217189 2284.6603032544226,1208.0635436817188 2280.6666293144226,1202.6666870117188 C2274.4326032144227,1197.1748068817187 2266.6855238444223,1196.5268225717186 2258.6666293144226,1196.6666870117188 z" fill="#2E3192" id="svg_3" class=""/><path d="M1750.9517855644226,1111.9820573329926 C1751.7153895344227,1111.9849701729927 1752.4789935144227,1111.9878830129926 1753.2657369944227,1111.9908841229926 C1754.0710512344226,1111.9900297029926 1754.8763654744225,1111.9891752729925 1755.7060831744227,1111.9882949629925 C1758.4254476744227,1111.9866376929926 1761.1447515244226,1111.9921655329927 1763.8641104144226,1111.9976132529926 C1765.8051199144227,1111.9978950929926 1767.7461295344226,1111.9977374429925 1769.6871389744226,1111.9971707429927 C1774.9741104844227,1111.9968826629924 1780.2610595244225,1112.0027810829924 1785.5480257844226,1112.0097447029925 C1791.0667111744226,1112.0159765029925 1796.5853970244225,1112.0165819029926 1802.1040853844227,1112.0177701129926 C1812.5623922244226,1112.0208839429924 1823.0206886644226,1112.0290980329926 1833.4789909144226,1112.0391196029925 C1845.3820510544226,1112.0502791329925 1857.2851116744225,1112.0557907829925 1869.1881757344227,1112.0608150329927 C1893.6809898144227,1112.0712806029926 1918.1737946444225,1112.0888810429924 1942.6666006444225,1112.1111386429925 C1942.5237556644227,1114.0039823429925 1942.3765834944227,1115.8964997529924 1942.2276358044226,1117.7888730129926 C1942.1461529544226,1118.8428024629925 1942.0646701044227,1119.8967319029925 1941.9807180744226,1120.9825986029925 C1941.6144037644226,1124.6310080329927 1940.9327456444225,1128.1404362629926 1940.1617178344227,1131.7205136429925 C1939.3465304044225,1135.6565665529924 1938.8316574044227,1139.6296438529926 1938.2916006444225,1143.6111386429925 C1936.9781155744226,1153.0532641529926 1935.5486266744226,1162.4745960429925 1934.0838369744226,1171.8943417629926 C1933.0059657744225,1178.8437607029925 1931.9843830144225,1185.7955483929925 1931.0611318944225,1192.7673886429925 C1930.6666006444225,1195.1111386429925 1930.6666006444225,1195.1111386429925 1929.6666006444225,1197.1111386429925 C1902.2766006444226,1197.1111386429925 1874.8866006444225,1197.1111386429925 1846.6666006444225,1197.1111386429925 C1844.1916006444226,1210.4761386429925 1844.1916006444226,1210.4761386429925 1841.6666006444225,1224.1111386429925 C1865.0966006444226,1224.1111386429925 1888.5266006444226,1224.1111386429925 1912.6666006444225,1224.1111386429925 C1911.5413581244227,1237.6140488629926 1911.5413581244227,1237.6140488629926 1910.6509756444225,1243.5002988029926 C1910.5068624844225,1244.4637118829926 1910.5068624844225,1244.4637118829926 1910.3598379444227,1245.4465878629926 C1910.0493525844226,1247.5150741329926 1909.7332068444225,1249.5826436829925 1909.4166006444225,1251.6502011429925 C1909.1959724244225,1253.1079574229925 1908.9755995944226,1254.5657523729926 1908.7554678344227,1256.0235837129926 C1908.2974146844226,1259.0510480729927 1907.8365780044226,1262.0780710829927 1907.3736318944225,1265.1047909829927 C1906.7800877044226,1268.9866356729926 1906.1932750444225,1272.8694633629925 1905.6084341444225,1276.7526276729925 C1905.1562764644227,1279.7503501029926 1904.7008349944226,1282.7475662829925 1904.2443594344227,1285.7446339729927 C1904.0264965344227,1287.1774502029925 1903.8096123444227,1288.6104155929925 1903.5937246644226,1290.0435307629925 C1903.2932075544227,1292.0348316829925 1902.9878374944226,1294.0253984129927 1902.6822256444225,1296.0159238029926 C1902.5098135344226,1297.1477710229924 1902.3374014244225,1298.2796182529926 1902.1597647044225,1299.4457638829927 C1901.6666006444225,1302.1111386429925 1901.6666006444225,1302.1111386429925 1900.6666006444225,1304.1111386429925 C1876.2466006444226,1304.4411386429924 1851.8266006444226,1304.7711386429926 1826.6666006444225,1305.1111386429925 C1824.1916006444226,1318.4761386429925 1824.1916006444226,1318.4761386429925 1821.6666006444225,1332.1111386429925 C1821.3366006444226,1332.7711386429926 1821.0066006444226,1333.4311386429927 1820.6666006444225,1334.1111386429925 C1845.4166006444225,1334.1111386429925 1870.1666006444225,1334.1111386429925 1895.6666006444225,1334.1111386429925 C1893.3632467944226,1353.6896463229925 1893.3632467944226,1353.6896463229925 1892.2994131444225,1360.3103573929925 C1892.1785534644225,1361.0775761729926 1892.0576937844226,1361.8447949529925 1891.9331716944225,1362.6352627829924 C1891.6810561744226,1364.2305866429924 1891.4273370244225,1365.8256579329925 1891.1719717344226,1367.4204648129926 C1890.7946509044227,1369.7795676729925 1890.4235976444227,1372.1395932029925 1890.0533193944225,1374.4998105129926 C1888.6671228044227,1383.2634225129925 1887.1634826244226,1392.0002467229924 1885.5645498644226,1400.7275937229924 C1885.3811354044226,1401.7323902429926 1885.1977209444226,1402.7371867729926 1885.0087484744226,1403.7724316729925 C1884.5620856244227,1406.2187998229924 1884.1146917544227,1408.6650317729925 1883.6666006444225,1411.1111386429925 C1864.7291091344225,1411.1420473429926 1845.7916131544225,1411.1622097929926 1826.8541006444225,1411.1736386429925 C1825.8054543544226,1411.1742900929926 1825.8054543544226,1411.1742900929926 1824.7356233044227,1411.1749547129925 C1788.3143028344225,1411.1969721229925 1751.8972291744226,1411.1618009829926 1715.4791006444227,1410.6111386429925 C1714.6875545844225,1410.5991808229926 1713.8960085244225,1410.5872230029927 1713.0804762244227,1410.5749028329926 C1703.9422390844227,1410.4355479829926 1694.8042919244226,1410.2829057229926 1685.6666006444225,1410.1111386429925 C1686.1793108444226,1404.3446243229926 1686.8251975744226,1398.7001278629925 1687.9869131444227,1393.0212948929925 C1688.1892833644226,1392.0199879029926 1688.1892833644226,1392.0199879029926 1688.3957418844227,1390.9984524829924 C1688.6955710544225,1389.5179164629926 1688.9976539044226,1388.0378355029925 1689.3017019644226,1386.5581601229926 C1689.8148613444225,1384.0604200629925 1690.3220816344226,1381.5615315129926 1690.8279775944227,1379.0623105129926 C1691.4153856344226,1376.1604291929925 1692.0031581844225,1373.2586262529926 1692.5925192244226,1370.3571408429925 C1694.4399248344225,1361.2568374929924 1696.2606557844226,1352.1513211029926 1698.0767568944227,1343.0447323929925 C1698.3831203444227,1341.5088727229927 1698.6894914744225,1339.9730145829926 1698.9958700544225,1338.4371579329927 C1699.1498453544227,1337.6652807729924 1699.3038206644226,1336.8934036229925 1699.4624618844225,1336.0981362429925 C1699.6178867644226,1335.3189993029926 1699.7733116344225,1334.5398623629926 1699.9334463444227,1333.7371152029925 C1700.0903037944227,1332.9507625329925 1700.2471612344225,1332.1644098629927 1700.4087719344227,1331.3542283129925 C1706.1600646144227,1302.5252371529925 1711.9661804244226,1273.7078257329927 1717.8299173744226,1244.9015076729925 C1720.9020142744225,1229.8091415729925 1723.9637584044226,1214.7149549229925 1726.9791006444227,1199.6111386429925 C1727.1352081244227,1198.8294934429925 1727.2913156144225,1198.0478482329927 1727.4521536244226,1197.2425168129926 C1728.8642134944225,1190.1701873429924 1730.2725561944226,1183.0971227329926 1731.6768545544226,1176.0232480129926 C1738.5090610844227,1141.6093867129925 1738.5090610844227,1141.6093867129925 1742.1041006444227,1124.6736386429925 C1742.3511172444225,1123.5002695029925 1742.5981338444226,1122.3269003629925 1742.8526358044226,1121.1179745829927 C1743.0787051344225,1120.0651327829926 1743.3047744744226,1119.0122909829925 1743.5376943944227,1117.9275448929925 C1743.7329067944227,1117.0143246729926 1743.9281191944226,1116.1011044629927 1744.1292471244226,1115.1602109029925 C1745.1698503444227,1111.1921133029925 1747.2105987144225,1111.9928807429926 1750.9517855644226,1111.9820573329926 z" fill="#2E3192" id="svg_4" class=""/><path d="M2075.6666293144226,1105.1111314296722 C2076.587181074423,1105.1469029096722 2077.5077328344223,1105.1826743996721 2078.4561800944225,1105.2195298696722 C2099.0723911344226,1106.1214685296723 2118.5925130144224,1110.0005459596723 2138.2291293144226,1116.2986314296722 C2138.9793636844224,1116.5361411996723 2139.7295980644226,1116.7736509596723 2140.5025668144226,1117.0183579896723 C2142.5455355644226,1117.7166001796722 2142.5455355644226,1117.7166001796722 2145.6666293144226,1119.1111314296722 C2146.8560344344223,1122.6793467896723 2146.3933519444226,1124.0510036796722 2145.4791293144226,1127.6580064296722 C2145.1961800944227,1128.7967320196722 2144.913230874423,1129.9354575996722 2144.6217074344227,1131.1086900196724 C2144.3065316544225,1132.3469956896722 2143.991355874423,1133.5853013496721 2143.6666293144226,1134.8611314296722 C2143.0059350944225,1137.5136833596723 2142.3518897044223,1140.1678621996723 2141.6978793144226,1142.8220689296722 C2141.5284884444227,1143.5066517496723 2141.359097574423,1144.1912345796723 2141.184573654423,1144.8965623396723 C2139.4153653844223,1152.0716030696722 2137.781629874423,1159.2747948596723 2136.1666293144226,1166.4861314296722 C2135.8814242344224,1167.7558579896722 2135.5962191544227,1169.0255845496722 2135.302371504423,1170.3337876796722 C2134.265832954423,1174.9545857996723 2133.2327901244225,1179.5761604896722 2132.2005648644226,1184.1979234196722 C2131.2589685844223,1188.4132542696723 2130.3153013244228,1192.6281115196723 2129.3690218944225,1196.8423936396723 C2128.931676874423,1198.7939837996723 2128.4973414744227,1200.7462476596722 2128.0631136944226,1202.6985337696722 C2126.4486742744225,1209.8931924696722 2124.684242454423,1217.0185850496723 2122.6666293144226,1224.1111314296722 C2119.121958754423,1222.9295745796721 2118.853517484423,1222.2046775096724 2116.9791293144226,1219.1111314296722 C2106.109509164423,1202.3703295996722 2089.200534574423,1191.1527527196722 2069.8541293144226,1186.4236314296722 C2061.1492057144224,1185.5702075496722 2053.8051360244226,1185.7762443896722 2045.6666293144226,1189.1111314296722 C2044.6766293144226,1189.4411314296722 2043.6866293144226,1189.771131429672 2042.6666293144226,1190.1111314296722 C2041.1200641244227,1194.7508269996722 2040.6684416344226,1198.7494618596722 2042.5845980644226,1203.2830064296722 C2050.0227521144225,1215.5854078596722 2063.8245182744226,1223.1124004096723 2075.5057406444225,1230.8708970496723 C2081.4373719144223,1234.8256256196723 2087.1166769744227,1238.9270333896723 2092.6212191544228,1243.4602525196724 C2094.7697361844225,1245.2455447996722 2094.7697361844225,1245.2455447996722 2097.6666293144226,1247.1111314296722 C2097.6666293144226,1247.771131429672 2097.6666293144226,1248.4311314296722 2097.6666293144226,1249.1111314296722 C2098.5193441544225,1249.4514439296722 2098.5193441544225,1249.4514439296722 2099.3892855644226,1249.7986314296722 C2107.0537131444225,1254.2158658496724 2112.551731224423,1264.0283119396722 2115.6666293144226,1272.1111314296722 C2115.924119544423,1272.7735484196724 2116.1816097844226,1273.4359654096722 2116.446902754423,1274.1184556496723 C2119.0816659644224,1281.7016237296723 2119.222289804423,1289.1495219496724 2119.1666293144226,1297.1111314296722 C2119.1645345844227,1297.7967716896724 2119.1624398644226,1298.4824119496723 2119.1602816544228,1299.1888291796722 C2119.089269264423,1310.471580079672 2117.954358174423,1320.6032483996723 2113.6666293144226,1331.1111314296722 C2113.3931869344224,1331.8130259596724 2113.1197445444227,1332.5149204896722 2112.8380160344227,1333.2380845496723 C2108.2208620944225,1344.8502136496722 2101.620485894423,1354.5325148996722 2093.6666293144226,1364.1111314296722 C2093.2088509944224,1364.6667173696724 2092.7510726744226,1365.2223033096723 2092.2794222844227,1365.7947251796722 C2085.3317883344225,1374.1064832296722 2077.4468896944227,1380.8191746396724 2068.6666293144226,1387.1111314296722 C2068.1113656444227,1387.5092906096722 2067.5561019744227,1387.9074497896722 2066.9840121244224,1388.3176743996723 C2052.5921546144227,1398.4548805896723 2036.6123755844226,1405.5110522396722 2019.6666293144226,1410.1111314296722 C2018.6095980644227,1410.4063267396723 2017.5525668144226,1410.7015220496723 2016.4635043144226,1411.0056626796722 C2002.3765541544226,1414.7486612196722 1988.7163724444226,1415.482042569672 1974.2291293144226,1415.4236314296722 C1973.2966537244226,1415.4218086196722 1972.3641781444226,1415.4199857996723 1971.4034457244227,1415.4181077496723 C1946.9107024244227,1415.3373734196723 1924.5461238144226,1412.1319012896722 1901.6666293144226,1403.1111314296722 C1901.4120331244226,1397.0404731896722 1902.3822324444227,1391.5059563896723 1903.5728793144226,1385.5642564296722 C1903.7733285344225,1384.5353629996723 1903.9737777544226,1383.5064695596723 1904.1803011944226,1382.4463975396723 C1904.8365211144226,1379.0834591596722 1905.5015296444226,1375.7223238296722 1906.1666293144226,1372.3611314296722 C1907.0861855344226,1367.6689861096722 1908.0014817144227,1362.9760133296722 1908.9166293144226,1358.2830064296722 C1909.1480563144225,1357.0994053596723 1909.3794833144225,1355.915804279672 1909.6179232644226,1354.6963365096722 C1911.1400342644226,1346.8898873196722 1912.6122000544226,1339.0756843096724 1914.0416293144226,1331.2517564296722 C1914.2241525044226,1330.2550895596723 1914.4066757044227,1329.2584226896722 1914.5947299044226,1328.2315537896723 C1915.2900095344226,1324.4297306996723 1915.9841833644227,1320.6277622996722 1916.6668734544226,1316.8236558396723 C1917.1304403744225,1314.2414414196724 1917.6010733444227,1311.6606009296722 1918.0728793144226,1309.0798814296722 C1918.2058138844227,1308.3249943496721 1918.3387484544226,1307.570107259672 1918.4757113444225,1306.7923448096722 C1919.1240881644226,1303.2763277996723 1919.8167829344227,1300.1968838496723 1921.6666293144226,1297.1111314296722 C1924.7894726144227,1300.0447114996723 1927.4166750944225,1303.0479761096722 1929.9791293144226,1306.4861314296722 C1939.8383803144227,1319.2989080496723 1954.3189362844225,1327.4891886996722 1970.3541293144226,1329.5955064296722 C1981.1822657044227,1330.0229328696723 1989.4434486344226,1326.6795177396723 1997.4244418144226,1319.4431626796722 C2000.2313231044227,1316.4332679596723 1999.9912256444227,1313.3610766896722 1999.9595980644226,1309.4392564296722 C1999.5169635644227,1305.9217876096723 1997.9249346244226,1303.7679611996723 1995.6666293144226,1301.1111314296722 C1995.0066293144225,1300.7811314296723 1994.3466293144227,1300.4511314296724 1993.6666293144226,1300.1111314296722 C1993.6666293144226,1299.4511314296724 1993.6666293144226,1298.7911314296723 1993.6666293144226,1298.1111314296722 C1993.0879208144227,1297.8417979296723 1992.5092123244226,1297.5724644396723 1991.9129672044226,1297.2949693196722 C1989.6362037444226,1296.0950969196722 1987.7505373544227,1294.7541011596722 1985.7252230644226,1293.1697251796722 C1984.9821591044226,1292.5906138496723 1984.2390951344225,1292.0115025196724 1983.4735140844225,1291.4148423696722 C1982.6916171044227,1290.7989927596723 1981.9097201344225,1290.183143149672 1981.1041293144226,1289.5486314296722 C1980.2970956244226,1288.9160240096721 1979.4900619344226,1288.2834165896722 1978.6585726744227,1287.6316392396723 C1976.3235491844225,1285.7969278096723 1973.9936761844226,1283.9559456396723 1971.6666293144226,1282.1111314296722 C1971.0933187644225,1281.6568980296722 1970.5200082244226,1281.2026646296722 1969.9293246244226,1280.734666589672 C1966.7987107544227,1278.2429742296722 1963.7211439644227,1275.695355329672 1960.6666293144226,1273.1111314296722 C1959.7449496244226,1272.3480064296723 1958.8232699344226,1271.5848814296724 1957.8736605644226,1270.7986314296722 C1943.0379641744225,1258.0297010196723 1935.4818607344225,1242.5240229696724 1933.6666293144226,1223.1111314296722 C1931.8793483744225,1196.4934117796722 1942.0260178144226,1169.9487708796723 1959.2081332244227,1149.7688462696722 C1984.1384870644226,1121.433208079672 2017.0021539644226,1107.9854404096723 2054.1822543144226,1105.4236314296722 C2061.3651158744224,1104.9915796096723 2068.4715380444227,1104.7987628696724 2075.6666293144226,1105.1111314296722 z" fill="#2E3192" id="svg_5" class=""/></g></svg>