<?xml version="1.0" encoding="UTF-8"?>
<svg xmlns="http://www.w3.org/2000/svg" xmlns:xlink="http://www.w3.org/1999/xlink" width="300px" height="300px" viewBox="0 0 300 300" version="1.1">
<g id="surface1">
<path style="fill-rule:nonzero;fill:rgb(100%,100%,100%);fill-opacity:1;stroke-width:1;stroke-linecap:butt;stroke-linejoin:round;stroke:rgb(100%,100%,100%);stroke-opacity:1;stroke-miterlimit:4;" d="M 8.4475 0.38875 L 39.7525 0.38875 C 44.170625 0.38875 47.7525 3.970625 47.7525 8.38875 L 47.7525 39.61125 C 47.7525 44.029375 44.170625 47.61125 39.7525 47.61125 L 8.4475 47.61125 C 4.029375 47.61125 0.4475 44.029375 0.4475 39.61125 L 0.4475 8.38875 C 0.4475 3.970625 4.029375 0.38875 8.4475 0.38875 Z M 8.4475 0.38875 " transform="matrix(6.25,0,0,6.25,0,0)"/>
<path style=" stroke:none;fill-rule:evenodd;fill:rgb(96.470588%,35.686275%,40.000001%);fill-opacity:1;" d="M 150.644531 269.101562 C 125.648438 269.101562 101.695312 262.160156 80.867188 249.273438 C 60.039062 236.386719 44.414062 217.554688 34.519531 195.746094 C 25.148438 173.9375 22.542969 150.148438 27.75 126.851562 C 32.4375 104.050781 44.414062 82.738281 62.121094 65.886719 C 79.824219 49.035156 102.214844 38.132812 126.171875 33.175781 C 150.644531 28.714844 175.640625 30.699219 198.550781 40.113281 C 221.464844 49.035156 241.253906 64.402344 254.792969 83.730469 C 268.332031 103.0625 276.140625 126.355469 276.140625 149.652344 C 276.140625 181.371094 263.125 211.605469 239.167969 233.910156 C 215.738281 256.710938 183.972656 269.101562 150.644531 269.101562 Z M 151.6875 221.519531 C 203.757812 221.519531 245.9375 180.382812 245.9375 130.320312 C 245.9375 79.765625 203.757812 39.125 151.6875 39.125 C 99.613281 38.628906 57.433594 79.765625 57.433594 130.320312 C 57.433594 180.382812 99.613281 221.519531 151.6875 221.519531 Z M 150.644531 200.703125 C 103.257812 200.703125 64.722656 165.015625 64.722656 121.398438 C 64.722656 77.785156 103.257812 42.59375 150.644531 42.59375 C 198.03125 42.59375 236.566406 77.785156 236.566406 121.398438 C 236.566406 165.015625 198.03125 200.703125 150.644531 200.703125 Z M 149.082031 167.988281 C 185.011719 167.988281 214.175781 141.722656 214.175781 109.007812 C 214.175781 76.296875 185.011719 50.027344 149.082031 50.027344 C 113.152344 50.027344 83.992188 76.296875 83.992188 109.007812 C 83.992188 141.722656 113.152344 167.988281 149.082031 167.988281 Z M 149.601562 156.589844 C 121.484375 156.589844 98.570312 133.789062 98.570312 105.042969 C 98.570312 76.792969 121.484375 53.496094 149.601562 53.496094 C 177.722656 53.496094 200.636719 76.296875 200.636719 105.042969 C 200.636719 133.789062 177.722656 156.589844 149.601562 156.589844 Z M 149.082031 111.488281 C 154.8125 111.488281 160.019531 110 164.703125 107.027344 C 169.390625 104.050781 173.035156 100.085938 175.121094 95.132812 C 179.285156 85.21875 177.203125 73.820312 168.871094 66.382812 C 161.058594 58.949219 149.082031 56.472656 138.667969 60.4375 C 133.460938 62.417969 129.292969 65.886719 126.171875 70.347656 C 123.046875 74.808594 121.484375 79.765625 121.484375 84.722656 C 121.484375 91.660156 124.609375 98.601562 129.816406 103.0625 C 134.503906 109.007812 141.273438 111.488281 149.082031 111.488281 Z M 149.082031 111.488281 "/>
<path style=" stroke:none;fill-rule:evenodd;fill:rgb(96.470588%,35.686275%,40.000001%);fill-opacity:1;" d="M 150.644531 269.101562 C 125.648438 269.101562 101.695312 262.160156 80.867188 249.273438 C 60.039062 236.386719 44.414062 217.554688 34.519531 195.746094 C 25.148438 173.9375 22.542969 150.148438 27.75 126.851562 C 32.4375 104.050781 44.414062 82.738281 62.121094 65.886719 C 79.824219 49.035156 102.214844 38.132812 126.171875 33.175781 C 150.644531 28.714844 175.640625 30.699219 198.550781 40.113281 C 221.464844 49.035156 241.253906 64.402344 254.792969 83.730469 C 268.332031 103.0625 276.140625 126.355469 276.140625 149.652344 C 276.140625 181.371094 263.125 211.605469 239.167969 233.910156 C 215.738281 256.710938 183.972656 269.101562 150.644531 269.101562 Z M 151.6875 221.519531 C 203.757812 221.519531 245.9375 180.382812 245.9375 130.320312 C 245.9375 79.765625 203.757812 39.125 151.6875 39.125 C 99.613281 38.628906 57.433594 79.765625 57.433594 130.320312 C 57.433594 180.382812 99.613281 221.519531 151.6875 221.519531 Z M 150.644531 200.703125 C 103.257812 200.703125 64.722656 165.015625 64.722656 121.398438 C 64.722656 77.785156 103.257812 42.59375 150.644531 42.59375 C 198.03125 42.59375 236.566406 77.785156 236.566406 121.398438 C 236.566406 165.015625 198.03125 200.703125 150.644531 200.703125 Z M 149.082031 167.988281 C 185.011719 167.988281 214.175781 141.722656 214.175781 109.007812 C 214.175781 76.296875 185.011719 50.027344 149.082031 50.027344 C 113.152344 50.027344 83.992188 76.296875 83.992188 109.007812 C 83.992188 141.722656 113.152344 167.988281 149.082031 167.988281 Z M 149.082031 167.988281 "/>
<path style=" stroke:none;fill-rule:evenodd;fill:rgb(96.470588%,35.686275%,40.000001%);fill-opacity:1;" d="M 150.644531 269.101562 C 125.648438 269.101562 101.695312 262.160156 80.867188 249.273438 C 60.039062 236.386719 44.414062 217.554688 34.519531 195.746094 C 25.148438 173.9375 22.542969 150.148438 27.75 126.851562 C 32.4375 104.050781 44.414062 82.738281 62.121094 65.886719 C 79.824219 49.035156 102.214844 38.132812 126.171875 33.175781 C 150.644531 28.714844 175.640625 30.699219 198.550781 40.113281 C 221.464844 49.035156 241.253906 64.402344 254.792969 83.730469 C 268.332031 103.0625 276.140625 126.355469 276.140625 149.652344 C 276.140625 181.371094 263.125 211.605469 239.167969 233.910156 C 215.738281 256.710938 183.972656 269.101562 150.644531 269.101562 Z M 151.6875 221.519531 C 203.757812 221.519531 245.9375 180.382812 245.9375 130.320312 C 245.9375 79.765625 203.757812 39.125 151.6875 39.125 C 99.613281 38.628906 57.433594 79.765625 57.433594 130.320312 C 57.433594 180.382812 99.613281 221.519531 151.6875 221.519531 Z M 151.6875 221.519531 "/>
</g>
</svg>
