<svg version="1.0" xmlns="http://www.w3.org/2000/svg" width="1080.000000" height="1080.000000" preserveAspectRatio="xMidYMid meet"><rect id="backgroundrect" width="100%" height="100%" x="0" y="0" fill="none" stroke="none"/>


<g class="currentLayer" style=""><title>Layer 1</title><rect fill="#ffffff" style="color: rgb(34, 34, 34);" stroke-dashoffset="" fill-rule="nonzero" id="svg_5" x="102" y="352" width="884" height="415" class="" fill-opacity="1"/><g transform="translate(0, 1080) scale(0.1, -0.1)" fill="#001856" stroke="none" id="svg_1" class="" fill-opacity="1" opacity="1">
<path d="M1691 10789 c-777 -82 -1436 -648 -1631 -1402 -64 -250 -60 11 -60 -3968 0 -2477 3 -3650 11 -3717 25 -232 89 -456 187 -652 294 -587 844 -968 1504 -1039 67 -8 1233 -11 3695 -11 3926 0 3726 -3 3963 56 444 110 823 370 1096 751 35 48 98 156 139 238 114 228 172 426 195 675 8 81 10 1189 7 3750 -4 3993 2 3669 -61 3918 -92 362 -313 715 -596 954 -306 258 -658 408 -1049 448 -128 13 -7275 12 -7400 -1z m5081 -3931 c9 -7 19 -29 22 -48 3 -19 6 -402 7 -850 2 -891 5 -977 31 -993 20 -13 89 20 274 131 212 127 378 246 419 301 16 20 16 26 4 52 -8 15 -43 50 -78 76 -72 53 -79 64 -57 86 11 11 51 17 153 22 173 10 592 -2 610 -17 20 -16 15 -46 -9 -62 -13 -8 -66 -31 -118 -51 -52 -20 -140 -60 -196 -90 -275 -146 -674 -397 -695 -436 -10 -19 -4 -27 48 -76 105 -100 526 -486 645 -592 116 -103 239 -185 328 -218 44 -16 90 -49 90 -64 0 -28 -55 -32 -445 -34 -220 0 -410 3 -422 7 -26 9 -30 39 -8 58 8 6 47 20 86 30 123 32 125 52 19 164 -77 81 -594 568 -629 593 -44 30 -46 15 -46 -337 0 -317 1 -330 21 -357 22 -30 60 -52 137 -78 54 -19 68 -39 44 -63 -15 -14 -58 -16 -364 -17 -192 0 -362 3 -380 8 -38 9 -50 35 -26 58 10 9 61 31 114 48 61 20 105 41 120 57 l24 26 7 346 c7 386 1 1939 -8 1989 -3 17 -16 40 -27 51 -23 21 -118 72 -135 72 -18 0 -34 29 -27 49 6 21 58 43 290 127 130 47 153 51 177 32z m-4052 -223 c609 -91 1012 -385 1195 -872 110 -292 126 -681 39 -925 -142 -393 -490 -687 -944 -795 -105 -25 -106 -25 -795 -33 -379 -4 -754 -11 -832 -15 -154 -9 -173 -4 -173 41 0 32 33 60 88 74 130 34 155 43 187 71 24 22 41 49 52 88 17 52 18 136 18 1112 0 825 -3 1059 -12 1071 -19 23 -76 36 -211 48 -68 7 -135 15 -149 19 -60 16 -57 83 5 101 21 6 233 15 487 21 247 6 452 13 455 16 10 11 487 -7 590 -22z m6475 -951 c107 -26 251 -123 324 -218 116 -152 175 -380 116 -446 -18 -20 -29 -20 -561 -20 l-543 0 -7 -37 c-9 -48 12 -320 32 -403 46 -197 177 -338 369 -396 46 -14 95 -18 205 -19 183 0 228 13 325 90 94 76 104 81 124 61 14 -15 14 -20 -8 -62 -31 -57 -138 -157 -222 -207 -35 -21 -100 -50 -144 -64 -73 -25 -93 -27 -235 -27 -214 0 -323 33 -459 137 -342 264 -388 953 -88 1340 126 163 293 267 463 286 88 11 232 3 309 -15z m-4535 -60 c3 -3 7 -299 10 -658 l5 -652 27 -41 c31 -47 78 -86 131 -108 59 -24 355 -21 439 5 102 31 174 89 212 170 20 44 21 59 24 590 l3 545 -125 37 c-69 21 -141 44 -161 52 -38 16 -56 43 -36 56 21 12 322 22 467 14 118 -6 140 -10 157 -27 20 -20 20 -28 13 -706 -7 -765 -11 -721 62 -740 20 -5 77 -12 127 -16 113 -9 137 -18 133 -48 -2 -15 -14 -26 -38 -33 -51 -17 -454 -83 -525 -86 l-60 -3 -5 90 c-6 94 -12 115 -35 115 -8 0 -65 -34 -127 -77 -182 -124 -278 -160 -448 -170 -165 -9 -305 35 -393 123 -57 59 -92 122 -120 221 -21 76 -22 89 -22 641 0 651 15 576 -124 618 -87 26 -121 46 -121 70 0 32 33 35 280 29 134 -3 247 -8 250 -11z" id="svg_2" fill="#001856" fill-opacity="1" opacity="1"/>
<path d="M2100 6520 c-84 -10 -134 -31 -157 -66 -17 -27 -18 -76 -18 -1014 l0 -985 33 -64 c67 -128 184 -218 332 -256 102 -27 325 -16 445 20 237 73 420 179 569 330 122 123 197 249 257 430 31 96 33 107 37 288 6 295 -22 432 -131 640 -190 364 -624 640 -1062 677 -135 11 -210 11 -305 0z" id="svg_3" fill="#001856" fill-opacity="1" opacity="1"/>
<path d="M8953 5585 c-90 -20 -158 -60 -234 -137 -72 -74 -134 -179 -145 -246 -6 -38 -4 -42 18 -51 71 -27 550 -20 660 10 49 13 103 69 118 123 15 55 0 139 -34 185 -31 42 -102 95 -146 110 -57 19 -169 22 -237 6z" id="svg_4" fill="#001856" fill-opacity="1" opacity="1"/>
</g><rect fill="#ffffff" style="color: rgb(34, 34, 34);" stroke-dashoffset="" fill-rule="nonzero" id="svg_7" x="464" y="556" width="2" height="0"/></g></svg>