<?xml version="1.0" encoding="UTF-8"?>
<svg xmlns="http://www.w3.org/2000/svg" xmlns:xlink="http://www.w3.org/1999/xlink" width="40px" height="52px" viewBox="0 0 40 52" version="1.1">
<defs>
<radialGradient id="radial0" gradientUnits="userSpaceOnUse" cx="257.02066" cy="146.231201" fx="257.02066" fy="146.231201" r="8.396895" gradientTransform="matrix(0.353995,0,0,0.305203,-70.96393,-18.481714)">
<stop offset="0" style="stop-color:rgb(100%,100%,100%);stop-opacity:1;"/>
<stop offset="0.589286" style="stop-color:rgb(100%,100%,100%);stop-opacity:1;"/>
<stop offset="1" style="stop-color:rgb(51.372549%,52.54902%,51.372549%);stop-opacity:1;"/>
</radialGradient>
<radialGradient id="radial1" gradientUnits="userSpaceOnUse" cx="257.02066" cy="146.231201" fx="257.02066" fy="146.231201" r="8.396895" gradientTransform="matrix(0.143354,0,0,0.14193,-16.761519,5.4208)">
<stop offset="0" style="stop-color:rgb(76.078431%,38.039216%,29.411765%);stop-opacity:1;"/>
<stop offset="0.74" style="stop-color:rgb(54.901961%,35.294118%,20.784314%);stop-opacity:1;"/>
<stop offset="1" style="stop-color:rgb(50.980392%,43.529412%,40%);stop-opacity:1;"/>
</radialGradient>
<radialGradient id="radial2" gradientUnits="userSpaceOnUse" cx="259.201874" cy="144.217773" fx="259.201874" fy="144.217773" r="8.396895" gradientTransform="matrix(0.0762847,0,0,0.0755268,0.444806,15.131064)">
<stop offset="0" style="stop-color:rgb(34.901961%,30.588235%,29.803922%);stop-opacity:1;"/>
<stop offset="1" style="stop-color:rgb(19.215686%,17.647059%,16.862745%);stop-opacity:1;"/>
</radialGradient>
</defs>
<g id="surface1">
<path style="fill-rule:nonzero;fill:rgb(0%,44.313726%,73.725492%);fill-opacity:1;stroke-width:1;stroke-linecap:butt;stroke-linejoin:miter;stroke:rgb(0%,0%,0%);stroke-opacity:1;stroke-miterlimit:4;" d="M 165.008746 431.005033 L 165.008746 643.801264 C 165.105036 643.639171 165.201326 643.477077 165.297616 643.282565 C 166.806157 640.332465 167.480186 635.404825 184.683977 635.826268 L 312.171769 635.826268 C 312.524832 635.664175 312.877894 635.5345 313.263054 635.372407 C 318.591094 632.973424 321.57608 629.37495 322.506882 623.053307 L 322.506882 431.005033 Z M 165.008746 431.005033 " transform="matrix(0.121703,0,0,0.120494,0,-26.472494)"/>
<path style="fill-rule:evenodd;fill:rgb(83.137256%,0%,0%);fill-opacity:1;stroke-width:0.7;stroke-linecap:butt;stroke-linejoin:round;stroke:rgb(0%,0%,0%);stroke-opacity:1;stroke-miterlimit:4;" d="M 242.586287 515.779888 C 241.495002 508.193916 231.641338 511.241272 233.535039 499.213941 C 234.273261 496.004491 237.80389 491.141689 231.737628 488.645451 C 233.791812 487.867402 236.359542 488.191589 237.579214 492.081831 C 242.778867 486.862423 242.971447 484.333766 239.793881 480.216593 C 243.581282 479.859988 248.1711 482.939762 246.469979 488.710288 C 247.464974 487.867402 250.064801 490.428478 249.904317 493.929696 C 253.723816 499.019429 253.242366 501.71018 249.968511 506.281214 C 248.877225 508.193916 243.388703 510.787411 242.586287 515.779888 Z M 242.586287 515.779888 " transform="matrix(0.121703,0,0,0.120494,0,-26.472494)"/>
<path style="fill-rule:evenodd;fill:rgb(83.137256%,0%,0%);fill-opacity:1;stroke-width:0.7;stroke-linecap:butt;stroke-linejoin:round;stroke:rgb(0%,0%,0%);stroke-opacity:1;stroke-miterlimit:4;" d="M 237.61131 491.919737 C 235.13987 495.615467 236.776798 497.333657 236.776798 497.625426 " transform="matrix(0.121703,0,0,0.120494,0,-26.472494)"/>
<path style="fill-rule:evenodd;fill:rgb(83.137256%,0%,0%);fill-opacity:1;stroke-width:0.7;stroke-linecap:butt;stroke-linejoin:round;stroke:rgb(0%,0%,0%);stroke-opacity:1;stroke-miterlimit:4;" d="M 242.169031 490.13671 C 241.783871 492.373599 241.013552 493.378578 239.793881 495.323699 C 236.905185 499.602965 241.655485 503.104183 241.655485 505.503165 L 241.655485 505.276235 " transform="matrix(0.121703,0,0,0.120494,0,-26.472494)"/>
<path style="fill-rule:evenodd;fill:rgb(83.137256%,0%,0%);fill-opacity:1;stroke-width:0.7;stroke-linecap:butt;stroke-linejoin:round;stroke:rgb(0%,0%,0%);stroke-opacity:1;stroke-miterlimit:4;" d="M 243.934345 496.361097 C 243.581282 491.595551 245.763853 491.36862 246.630462 488.191589 " transform="matrix(0.121703,0,0,0.120494,0,-26.472494)"/>
<path style="fill-rule:evenodd;fill:rgb(83.137256%,0%,0%);fill-opacity:1;stroke-width:0.7;stroke-linecap:butt;stroke-linejoin:round;stroke:rgb(0%,0%,0%);stroke-opacity:1;stroke-miterlimit:4;" d="M 249.840124 493.897277 C 250.193187 497.625426 247.047718 498.435893 246.116916 503.525626 " transform="matrix(0.121703,0,0,0.120494,0,-26.472494)"/>
<path style="fill-rule:nonzero;fill:rgb(91.764706%,75.686276%,0.784314%);fill-opacity:1;stroke-width:2.118722;stroke-linecap:butt;stroke-linejoin:miter;stroke:rgb(0%,0%,0%);stroke-opacity:1;stroke-miterlimit:4;" d="M 8.658188 56.629885 L 239.813539 55.541642 L 308.514566 0.436994 L 85.74209 0.1402 Z M 8.658188 56.629885 " transform="matrix(0.0405402,0,0,0.0394845,23.254464,41.658527)"/>
<path style="fill-rule:nonzero;fill:rgb(91.764706%,75.686276%,0.784314%);fill-opacity:1;stroke-width:0.7;stroke-linecap:butt;stroke-linejoin:miter;stroke:rgb(0%,0%,0%);stroke-opacity:1;stroke-miterlimit:4;" d="M 194.473447 584.053633 L 270.253577 583.697027 L 292.624924 565.639821 L 292.977987 576.402824 L 272.115182 594.20068 L 194.569737 594.524867 C 190.557659 594.589704 190.750239 583.567352 194.473447 584.053633 Z M 194.473447 584.053633 " transform="matrix(0.121703,0,0,0.120494,0,-26.472494)"/>
<path style="fill-rule:nonzero;fill:rgb(83.137256%,0%,0%);fill-opacity:1;stroke-width:0.7;stroke-linecap:butt;stroke-linejoin:miter;stroke:rgb(0%,0%,0%);stroke-opacity:1;stroke-miterlimit:4;" d="M 238.413726 583.794283 C 236.712605 586.776802 236.776798 591.315417 238.510016 594.395192 L 234.369551 594.297936 C 232.636334 591.380255 232.57214 586.841639 234.144875 583.826702 Z M 238.413726 583.794283 " transform="matrix(0.121703,0,0,0.120494,0,-26.472494)"/>
<path style="fill-rule:nonzero;fill:rgb(83.137256%,0%,0%);fill-opacity:1;stroke-width:0.7;stroke-linecap:butt;stroke-linejoin:miter;stroke:rgb(0%,0%,0%);stroke-opacity:1;stroke-miterlimit:4;" d="M 258.538309 583.729446 C 256.965575 586.744383 256.869285 591.282999 258.602503 594.20068 L 254.494135 594.265517 C 252.72882 591.347836 252.696724 586.809221 254.397845 583.794283 Z M 258.538309 583.729446 " transform="matrix(0.121703,0,0,0.120494,0,-26.472494)"/>
<path style="fill-rule:nonzero;fill:rgb(89.019608%,89.411765%,89.803922%);fill-opacity:1;stroke-width:0.7;stroke-linecap:butt;stroke-linejoin:miter;stroke:rgb(0%,0%,0%);stroke-opacity:1;stroke-miterlimit:4;" d="M 271.312766 584.799262 L 292.015089 568.103641 L 292.303958 575.559938 L 272.725017 591.73686 C 270.317771 593.746819 269.483258 586.549871 271.312766 584.799262 Z M 271.312766 584.799262 " transform="matrix(0.121703,0,0,0.120494,0,-26.472494)"/>
<path style="fill-rule:nonzero;fill:rgb(91.764706%,75.686276%,0.784314%);fill-opacity:1;stroke-width:0.7;stroke-linecap:butt;stroke-linejoin:miter;stroke:rgb(0%,0%,0%);stroke-opacity:1;stroke-miterlimit:4;" d="M 196.720211 570.988904 L 272.371955 574.911564 L 295.866684 558.151105 L 295.481524 568.914108 L 273.655819 585.480055 L 196.206665 581.460138 C 192.226683 581.298045 193.189582 570.34053 196.720211 570.988904 Z M 196.720211 570.988904 " transform="matrix(0.121703,0,0,0.120494,0,-26.472494)"/>
<path style="fill-rule:nonzero;fill:rgb(91.764706%,75.686276%,0.784314%);fill-opacity:1;stroke-width:2.135952;stroke-linecap:butt;stroke-linejoin:miter;stroke:rgb(0%,0%,0%);stroke-opacity:1;stroke-miterlimit:4;" d="M 8.661954 56.614821 L 239.810286 55.553225 L 308.504404 0.451307 L 85.812977 0.143738 Z M 8.661954 56.614821 " transform="matrix(0.0398214,0.00222589,-0.00224821,0.0394258,23.723757,40.07676)"/>
<path style="fill-rule:nonzero;fill:rgb(83.137256%,0%,0%);fill-opacity:1;stroke-width:0.7;stroke-linecap:butt;stroke-linejoin:miter;stroke:rgb(0%,0%,0%);stroke-opacity:1;stroke-miterlimit:4;" d="M 222.172834 572.220814 C 220.439616 575.138495 220.086553 579.67711 221.659288 582.821723 L 212.575943 582.270605 C 211.003209 579.255668 211.227885 574.717052 213.089489 571.831789 Z M 222.172834 572.220814 " transform="matrix(0.121703,0,0,0.120494,0,-26.472494)"/>
<path style="fill-rule:nonzero;fill:rgb(89.019608%,89.411765%,89.803922%);fill-opacity:1;stroke-width:0.7;stroke-linecap:butt;stroke-linejoin:miter;stroke:rgb(0%,0%,0%);stroke-opacity:1;stroke-miterlimit:4;" d="M 273.399046 576.078637 L 295.000075 560.582507 L 294.871688 567.87671 L 274.394042 583.048653 C 271.890505 584.961356 271.473249 577.602315 273.399046 576.078637 Z M 273.399046 576.078637 " transform="matrix(0.121703,0,0,0.120494,0,-26.472494)"/>
<path style="fill-rule:nonzero;fill:rgb(89.019608%,89.411765%,89.803922%);fill-opacity:1;stroke-width:0.7;stroke-linecap:butt;stroke-linejoin:miter;stroke:rgb(0%,0%,0%);stroke-opacity:1;stroke-miterlimit:4;" d="M 281.519492 554.35812 L 282.257715 566.190939 L 203.075342 566.190939 L 204.648077 554.163607 L 242.714674 532.345834 Z M 281.519492 554.35812 " transform="matrix(0.121703,0,0,0.120494,0,-26.472494)"/>
<path style="fill-rule:nonzero;fill:rgb(91.764706%,75.686276%,0.784314%);fill-opacity:1;stroke-width:0.7;stroke-linecap:butt;stroke-linejoin:miter;stroke:rgb(0%,0%,0%);stroke-opacity:1;stroke-miterlimit:4;" d="M 282.610778 564.894191 L 203.653082 564.894191 L 203.653082 568.330572 L 282.610778 568.330572 Z M 282.610778 564.894191 " transform="matrix(0.121703,0,0,0.120494,0,-26.472494)"/>
<path style="fill-rule:nonzero;fill:rgb(89.019608%,89.411765%,89.803922%);fill-opacity:1;stroke-width:0.7;stroke-linecap:butt;stroke-linejoin:miter;stroke:rgb(0%,0%,0%);stroke-opacity:1;stroke-miterlimit:4;" d="M 204.80856 565.445309 L 209.462571 521.355901 C 214.084485 522.879579 218.481722 521.647669 223.777665 516.363424 C 229.394574 510.754992 237.258247 508.388428 243.13193 515.71505 L 243.164026 560.225901 C 237.258247 552.86686 227.565067 552.834442 221.595095 558.669804 C 216.267055 563.824375 209.815634 566.190939 204.80856 565.445309 Z M 204.80856 565.445309 " transform="matrix(0.121703,0,0,0.120494,0,-26.472494)"/>
<path style="fill-rule:nonzero;fill:rgb(89.019608%,89.411765%,89.803922%);fill-opacity:1;stroke-width:0.7;stroke-linecap:butt;stroke-linejoin:miter;stroke:rgb(0%,0%,0%);stroke-opacity:1;stroke-miterlimit:4;" d="M 205.065333 562.397953 L 209.687247 518.308545 C 214.341258 519.864642 218.738495 518.632732 224.034438 513.348486 C 229.651347 507.707636 237.482924 505.341072 243.388703 512.700113 L 243.388703 557.210964 C 237.482924 549.819504 227.82184 549.819504 221.819771 555.622448 C 216.491731 560.809437 210.04031 563.143582 205.065333 562.397953 Z M 205.065333 562.397953 " transform="matrix(0.121703,0,0,0.120494,0,-26.472494)"/>
<path style="fill-rule:nonzero;fill:rgb(89.019608%,89.411765%,89.803922%);fill-opacity:1;stroke-width:0.7;stroke-linecap:butt;stroke-linejoin:miter;stroke:rgb(0%,0%,0%);stroke-opacity:1;stroke-miterlimit:4;" d="M 204.80856 557.567569 L 209.462571 513.056718 C 214.084485 514.612815 218.513819 513.348486 223.777665 507.999404 C 229.394574 502.358553 237.258247 499.959571 243.13193 507.383449 L 243.164026 552.315743 C 237.258247 544.891864 227.565067 544.859446 221.595095 550.727227 C 216.267055 555.979054 209.815634 558.345618 204.80856 557.567569 Z M 204.80856 557.567569 " transform="matrix(0.121703,0,0,0.120494,0,-26.472494)"/>
<path style="fill-rule:nonzero;fill:rgb(89.019608%,89.411765%,89.803922%);fill-opacity:1;stroke-width:0.7;stroke-linecap:butt;stroke-linejoin:miter;stroke:rgb(0%,0%,0%);stroke-opacity:1;stroke-miterlimit:4;" d="M 204.71227 549.300805 L 209.366281 505.89219 C 213.988195 508.58294 218.385432 508.420847 223.681375 504.368511 C 229.298285 500.056827 237.161958 499.602965 243.03564 508.453265 L 243.067736 553.385559 C 237.161958 544.50284 227.468777 542.136276 221.498805 546.545217 C 216.170765 550.467878 209.719344 551.278345 204.71227 549.300805 Z M 204.71227 549.300805 " transform="matrix(0.121703,0,0,0.120494,0,-26.472494)"/>
<path style="fill-rule:nonzero;fill:rgb(89.019608%,89.411765%,89.803922%);fill-opacity:1;stroke-width:0.7;stroke-linecap:butt;stroke-linejoin:miter;stroke:rgb(0%,0%,0%);stroke-opacity:1;stroke-miterlimit:4;" d="M 281.326913 561.392974 L 276.704999 518.43822 C 272.050988 521.12897 267.653751 520.966877 262.357808 516.94696 C 256.740898 512.700113 248.909322 512.27867 243.003543 521.064133 L 243.003543 565.574984 C 248.909322 556.757102 258.570406 554.35812 264.572475 558.734642 C 269.900514 562.592465 276.351936 563.370513 281.326913 561.392974 Z M 281.326913 561.392974 " transform="matrix(0.121703,0,0,0.120494,0,-26.472494)"/>
<path style="fill-rule:nonzero;fill:rgb(89.019608%,89.411765%,89.803922%);fill-opacity:1;stroke-width:0.7;stroke-linecap:butt;stroke-linejoin:miter;stroke:rgb(0%,0%,0%);stroke-opacity:1;stroke-miterlimit:4;" d="M 281.102236 558.442874 L 276.448226 515.48812 C 271.826312 518.146451 267.429074 517.984358 262.133131 513.99686 C 256.516222 509.750013 248.652549 509.296151 242.778867 518.081614 L 242.74677 562.592465 C 248.652549 553.774583 258.34573 551.408019 264.315702 555.752123 C 269.643741 559.642365 276.095163 560.387994 281.102236 558.442874 Z M 281.102236 558.442874 " transform="matrix(0.121703,0,0,0.120494,0,-26.472494)"/>
<path style="fill-rule:nonzero;fill:rgb(89.019608%,89.411765%,89.803922%);fill-opacity:1;stroke-width:0.7;stroke-linecap:butt;stroke-linejoin:miter;stroke:rgb(0%,0%,0%);stroke-opacity:1;stroke-miterlimit:4;" d="M 281.326913 553.547653 L 276.704999 510.139037 C 272.050988 512.829788 267.653751 512.667694 262.357808 508.615359 C 256.740898 504.303674 248.909322 503.849813 243.003543 512.700113 L 243.003543 557.664825 C 248.909322 548.749688 258.570406 546.383124 264.572475 550.792065 C 269.900514 554.714725 276.351936 555.525192 281.326913 553.547653 Z M 281.326913 553.547653 " transform="matrix(0.121703,0,0,0.120494,0,-26.472494)"/>
<path style="fill-rule:nonzero;fill:rgb(89.019608%,89.411765%,89.803922%);fill-opacity:1;stroke-width:0.7;stroke-linecap:butt;stroke-linejoin:miter;stroke:rgb(0%,0%,0%);stroke-opacity:1;stroke-miterlimit:4;" d="M 281.326913 549.268386 L 276.704999 505.89219 C 272.050988 508.58294 267.653751 508.388428 262.357808 504.336093 C 256.740898 500.024408 248.877225 499.570547 243.003543 508.420847 L 242.971447 553.385559 C 248.877225 544.50284 258.570406 542.103858 264.540378 546.512798 C 269.900514 550.435459 276.319839 551.245926 281.326913 549.268386 Z M 281.326913 549.268386 " transform="matrix(0.121703,0,0,0.120494,0,-26.472494)"/>
<path style="fill-rule:nonzero;fill:rgb(91.764706%,75.686276%,0.784314%);fill-opacity:1;stroke-width:0.7;stroke-linecap:butt;stroke-linejoin:miter;stroke:rgb(0%,0%,0%);stroke-opacity:1;stroke-miterlimit:4;" d="M 165.008746 226.929428 L 165.008746 431.005033 L 322.506882 431.005033 L 322.506882 226.929428 Z M 165.008746 226.929428 " transform="matrix(0.121703,0,0,0.120494,0,-26.472494)"/>
<path style="fill-rule:evenodd;fill:rgb(47.058824%,26.666668%,12.941177%);fill-opacity:1;stroke-width:0.7;stroke-linecap:butt;stroke-linejoin:miter;stroke:rgb(0%,0%,0%);stroke-opacity:1;stroke-miterlimit:4;" d="M 290.538644 379.815934 C 294.935881 385.100179 290.442354 388.860746 286.01302 383.60892 L 196.559728 281.587327 C 191.520558 275.557452 200.539709 268.003899 205.610976 274.001355 L 292.432345 382.085242 Z M 290.538644 379.815934 " transform="matrix(0.121703,0,0,0.120494,0,-26.472494)"/>
<path style="fill-rule:evenodd;fill:rgb(100%,93.333334%,66.666669%);fill-opacity:1;stroke-width:0.7;stroke-linecap:butt;stroke-linejoin:miter;stroke:rgb(0%,0%,0%);stroke-opacity:1;stroke-miterlimit:4;" d="M 278.727086 364.611572 C 286.526566 363.314825 290.346064 374.142665 285.788343 377.903232 C 284.215609 372.845917 282.450295 369.182606 278.727086 364.611572 Z M 253.820106 333.975917 C 267.043915 334.559454 271.280669 347.851113 268.488263 355.242573 C 265.792147 361.272448 269.001809 363.93078 273.976786 370.025492 C 260.91346 368.047952 258.377826 358.452022 261.330716 349.66656 C 262.646677 343.50701 258.185247 339.292581 253.820106 333.975917 Z M 235.685513 311.444933 C 242.55419 319.808953 232.411657 331.44726 237.386634 337.509554 C 239.248238 339.81128 243.773862 343.733941 249.422868 342.891055 C 242.586287 334.527035 248.780936 328.172973 249.615448 319.873791 C 250.54625 310.180605 242.169031 302.302865 228.206999 302.335283 C 230.710536 305.38264 233.214073 308.397577 235.685513 311.444933 Z M 223.713472 313.130705 C 211.131595 313.292798 199.352134 305.155709 196.784404 295.819128 C 192.836519 286.352873 205.129526 275.006334 210.104503 281.068628 C 215.111577 287.16334 196.784404 295.819128 210.200793 301.330304 L 215.625123 303.275425 Z M 223.713472 313.130705 " transform="matrix(0.121703,0,0,0.120494,0,-26.472494)"/>
<path style="fill-rule:evenodd;fill:rgb(100%,93.333334%,66.666669%);fill-opacity:1;stroke-width:0.7;stroke-linecap:butt;stroke-linejoin:miter;stroke:rgb(0%,0%,0%);stroke-opacity:1;stroke-miterlimit:4;" d="M 205.739362 285.056126 C 198.292945 285.866593 210.297083 279.091088 205.739362 285.056126 Z M 205.739362 285.056126 " transform="matrix(0.121703,0,0,0.120494,0,-26.472494)"/>
<path style="fill:none;stroke-width:0.7;stroke-linecap:round;stroke-linejoin:miter;stroke:rgb(0%,0%,0%);stroke-opacity:1;stroke-miterlimit:4;" d="M 209.494667 283.402773 C 212.961103 277.016293 215.593026 282.365375 220.054457 279.220763 " transform="matrix(0.121703,0,0,0.120494,0,-26.472494)"/>
<path style="fill-rule:nonzero;fill:rgb(0%,56.078434%,29.803923%);fill-opacity:1;stroke-width:0.7;stroke-linecap:butt;stroke-linejoin:miter;stroke:rgb(0%,0%,0%);stroke-opacity:1;stroke-miterlimit:4;" d="M 7.51061 226.929428 L 7.51061 431.005033 L 165.008746 431.005033 L 165.008746 226.929428 Z M 7.51061 226.929428 " transform="matrix(0.121703,0,0,0.120494,0,-26.472494)"/>
<path style="fill-rule:nonzero;fill:rgb(89.019608%,89.411765%,89.803922%);fill-opacity:1;stroke-width:0.7;stroke-linecap:square;stroke-linejoin:miter;stroke:rgb(0%,0%,0%);stroke-opacity:1;stroke-miterlimit:4;" d="M 52.285401 271.829303 C 52.189111 271.861722 52.124918 271.991397 52.124918 272.15349 C 53.05572 272.15349 53.2483 272.380421 53.184107 274.293123 C 53.15201 275.589871 52.670561 276.367919 51.739759 276.530012 C 50.841053 276.659687 50.102831 275.914057 50.070734 275.10359 C 49.942348 276.140988 50.58428 277.048711 51.707662 276.919037 C 52.798947 276.82178 53.633459 276.076151 53.601363 275.038753 C 53.601363 274.195867 53.569266 273.482656 53.569266 272.704608 C 53.569266 271.991397 52.831044 271.764466 52.285401 271.829303 Z M 52.285401 271.829303 " transform="matrix(0.121703,0,0,0.120494,0,-26.472494)"/>
<path style="fill-rule:nonzero;fill:rgb(89.019608%,89.411765%,89.803922%);fill-opacity:1;stroke-width:0.7;stroke-linecap:square;stroke-linejoin:miter;stroke:rgb(0%,0%,0%);stroke-opacity:1;stroke-miterlimit:4;" d="M 120.233955 271.829303 C 120.330245 271.861722 120.394438 271.991397 120.394438 272.15349 C 119.463636 272.15349 119.303153 272.380421 119.335249 274.293123 C 119.367346 275.589871 119.848795 276.367919 120.779598 276.530012 C 121.678303 276.659687 122.416525 275.914057 122.448622 275.10359 C 122.577009 276.140988 121.967173 277.048711 120.811694 276.919037 C 119.752506 276.82178 118.885897 276.076151 118.917993 275.038753 C 118.95009 274.195867 118.95009 273.482656 118.982187 272.704608 C 118.982187 271.991397 119.688312 271.764466 120.233955 271.829303 Z M 120.233955 271.829303 " transform="matrix(0.121703,0,0,0.120494,0,-26.472494)"/>
<path style="fill-rule:nonzero;fill:rgb(89.019608%,89.411765%,89.803922%);fill-opacity:1;stroke-width:0.7;stroke-linecap:square;stroke-linejoin:miter;stroke:rgb(0%,0%,0%);stroke-opacity:1;stroke-miterlimit:4;" d="M 53.633459 273.093632 L 118.885897 273.093632 L 118.885897 274.811822 L 53.633459 274.811822 Z M 53.633459 273.093632 " transform="matrix(0.121703,0,0,0.120494,0,-26.472494)"/>
<path style="fill-rule:evenodd;fill:rgb(89.019608%,89.411765%,89.803922%);fill-opacity:1;stroke-width:0.7;stroke-linecap:butt;stroke-linejoin:miter;stroke:rgb(0%,0%,0%);stroke-opacity:1;stroke-miterlimit:4;" d="M 121.100564 276.367919 L 106.175633 312.644424 " transform="matrix(0.121703,0,0,0.120494,0,-26.472494)"/>
<path style="fill-rule:evenodd;fill:rgb(89.019608%,89.411765%,89.803922%);fill-opacity:1;stroke-width:0.7;stroke-linecap:butt;stroke-linejoin:miter;stroke:rgb(0%,0%,0%);stroke-opacity:1;stroke-miterlimit:4;" d="M 121.036371 276.3355 L 135.993398 312.644424 " transform="matrix(0.121703,0,0,0.120494,0,-26.472494)"/>
<path style="fill-rule:evenodd;fill:rgb(89.019608%,89.411765%,89.803922%);fill-opacity:1;stroke-width:0.7;stroke-linecap:butt;stroke-linejoin:miter;stroke:rgb(0%,0%,0%);stroke-opacity:1;stroke-miterlimit:4;" d="M 121.068467 276.497594 L 121.100564 312.644424 " transform="matrix(0.121703,0,0,0.120494,0,-26.472494)"/>
<path style="fill-rule:nonzero;fill:rgb(89.019608%,89.411765%,89.803922%);fill-opacity:1;stroke-width:0.7;stroke-linecap:square;stroke-linejoin:miter;stroke:rgb(0%,0%,0%);stroke-opacity:1;stroke-miterlimit:4;" d="M 66.375819 312.709262 C 66.375819 315.886293 63.51922 318.836393 58.897306 320.424908 C 54.275392 322.013424 48.562193 322.013424 43.940279 320.392489 C 39.318365 318.803974 36.493862 315.853874 36.493862 312.676843 L 51.418792 312.709262 Z M 66.375819 312.709262 " transform="matrix(0.121703,0,0,0.120494,0,-26.472494)"/>
<path style="fill-rule:evenodd;fill:rgb(89.019608%,89.411765%,89.803922%);fill-opacity:1;stroke-width:0.7;stroke-linecap:butt;stroke-linejoin:miter;stroke:rgb(0%,0%,0%);stroke-opacity:1;stroke-miterlimit:4;" d="M 51.418792 276.367919 L 36.525959 312.644424 " transform="matrix(0.121703,0,0,0.120494,0,-26.472494)"/>
<path style="fill-rule:evenodd;fill:rgb(89.019608%,89.411765%,89.803922%);fill-opacity:1;stroke-width:0.7;stroke-linecap:butt;stroke-linejoin:miter;stroke:rgb(0%,0%,0%);stroke-opacity:1;stroke-miterlimit:4;" d="M 51.386696 276.3355 L 66.343723 312.644424 " transform="matrix(0.121703,0,0,0.120494,0,-26.472494)"/>
<path style="fill-rule:evenodd;fill:rgb(89.019608%,89.411765%,89.803922%);fill-opacity:1;stroke-width:0.7;stroke-linecap:butt;stroke-linejoin:miter;stroke:rgb(0%,0%,0%);stroke-opacity:1;stroke-miterlimit:4;" d="M 51.418792 276.497594 L 51.450889 312.644424 " transform="matrix(0.121703,0,0,0.120494,0,-26.472494)"/>
<path style="fill-rule:nonzero;fill:rgb(89.019608%,89.411765%,89.803922%);fill-opacity:1;stroke-width:0.7;stroke-linecap:square;stroke-linejoin:miter;stroke:rgb(0%,0%,0%);stroke-opacity:1;stroke-miterlimit:4;" d="M 135.961301 312.709262 C 135.961301 315.886293 133.104701 318.836393 128.482787 320.424908 C 123.828777 322.013424 118.147674 322.013424 113.52576 320.392489 C 108.903847 318.803974 106.047247 315.853874 106.079344 312.676843 L 121.004274 312.709262 Z M 135.961301 312.709262 " transform="matrix(0.121703,0,0,0.120494,0,-26.472494)"/>
<path style="fill-rule:nonzero;fill:rgb(89.019608%,89.411765%,89.803922%);fill-opacity:1;stroke-width:0.7;stroke-linecap:butt;stroke-linejoin:miter;stroke:rgb(0%,0%,0%);stroke-opacity:1;stroke-miterlimit:4;" d="M 83.38703 380.302214 C 85.312828 388.082698 87.752171 388.082698 89.581679 380.302214 C 91.411186 372.554149 91.988925 362.990638 89.966838 355.210154 C 87.944751 347.42967 84.670895 347.42967 82.648808 355.210154 C 80.62672 362.990638 81.461233 372.554149 83.38703 380.302214 Z M 83.38703 380.302214 " transform="matrix(0.121703,0,0,0.120494,0,-26.472494)"/>
<path style="fill-rule:nonzero;fill:rgb(89.019608%,89.411765%,89.803922%);fill-opacity:1;stroke-width:0.7;stroke-linecap:butt;stroke-linejoin:miter;stroke:rgb(0%,0%,0%);stroke-opacity:1;stroke-miterlimit:4;" d="M 82.392035 353.362289 L 90.191515 353.362289 L 89.068133 281.295559 L 86.307823 275.071172 L 83.515417 281.295559 Z M 82.392035 353.362289 " transform="matrix(0.121703,0,0,0.120494,0,-26.472494)"/>
<path style="fill-rule:evenodd;fill:rgb(0%,0%,0%);fill-opacity:1;stroke-width:0.7;stroke-linecap:butt;stroke-linejoin:miter;stroke:rgb(0%,0%,0%);stroke-opacity:1;stroke-miterlimit:4;" d="M 85.922663 352.713916 L 86.211533 284.180821 L 87.046045 352.713916 Z M 85.922663 352.713916 " transform="matrix(0.121703,0,0,0.120494,0,-26.472494)"/>
<path style="fill-rule:nonzero;fill:rgb(89.019608%,89.411765%,89.803922%);fill-opacity:1;stroke-width:0.7;stroke-linecap:butt;stroke-linejoin:miter;stroke:rgb(0%,0%,0%);stroke-opacity:1;stroke-miterlimit:4;" d="M 84.221542 384.127619 C 84.157349 383.965525 84.093156 383.771013 84.028963 383.60892 L 89.934742 380.204958 C 89.870548 380.464308 89.806355 380.691239 89.742162 380.950588 Z M 83.19445 380.983007 C 83.162354 380.820913 83.098161 380.626401 83.066064 380.431889 L 90.769254 375.958111 C 90.737157 376.21746 90.705061 376.444391 90.640867 376.703741 Z M 82.424131 377.70872 C 82.359938 377.514208 82.327842 377.319696 82.295745 377.125183 L 91.314896 371.938194 C 91.2828 372.165125 91.250703 372.392056 91.250703 372.618987 Z M 81.782199 374.337177 C 81.750102 374.142665 81.750102 373.948153 81.718006 373.753641 L 91.571669 368.047952 C 91.539573 368.274883 91.539573 368.501814 91.539573 368.696326 Z M 81.364943 370.868378 C 81.332846 370.641447 81.30075 370.446935 81.30075 370.252423 L 91.539573 364.319804 C 91.571669 364.546735 91.571669 364.741247 91.571669 364.968178 Z M 81.10817 367.269904 C 81.10817 367.042973 81.10817 366.848461 81.10817 366.62153 L 91.2828 360.72133 C 91.314896 360.948261 91.346993 361.142773 91.346993 361.337285 Z M 81.10817 363.509337 C 81.10817 363.314825 81.140266 363.087894 81.140266 362.860963 L 90.80135 357.28495 C 90.80135 357.349787 90.833447 357.414625 90.833447 357.511881 C 90.865544 357.609137 90.89764 357.738811 90.89764 357.868486 Z M 81.397039 359.619095 C 81.429136 359.392164 81.461233 359.165233 81.493329 358.938303 L 89.998935 354.010663 C 90.063128 354.205175 90.127321 354.367269 90.159418 354.561781 Z M 81.397039 359.619095 " transform="matrix(0.121703,0,0,0.120494,0,-26.472494)"/>
<path style="fill-rule:nonzero;fill:rgb(89.019608%,89.411765%,89.803922%);fill-opacity:1;stroke-width:0.7;stroke-linecap:butt;stroke-linejoin:miter;stroke:rgb(0%,0%,0%);stroke-opacity:1;stroke-miterlimit:4;" d="M 71.061926 -355.858528 L 101.55372 -355.858528 L 101.55372 -351.87103 L 71.061926 -351.87103 Z M 71.061926 -355.858528 " transform="matrix(0.121703,0,0,-0.120494,0,-26.472494)"/>
<path style="fill-rule:nonzero;fill:rgb(89.019608%,89.411765%,89.803922%);fill-opacity:1;stroke-width:0.7;stroke-linecap:butt;stroke-linejoin:miter;stroke:rgb(0%,0%,0%);stroke-opacity:1;stroke-miterlimit:4;" d="M 91.732152 379.199979 C 91.732152 376.249879 89.292809 373.818478 86.307823 373.818478 C 83.29074 373.818478 80.883493 376.249879 80.883493 379.199979 C 80.883493 382.182498 83.29074 384.58148 86.307823 384.58148 C 89.292809 384.58148 91.732152 382.182498 91.732152 379.199979 Z M 91.732152 379.199979 " transform="matrix(0.121703,0,0,0.120494,0,-26.472494)"/>
<path style="fill-rule:nonzero;fill:rgb(89.019608%,89.411765%,89.803922%);fill-opacity:1;stroke-width:0.7;stroke-linecap:butt;stroke-linejoin:miter;stroke:rgb(0%,0%,0%);stroke-opacity:1;stroke-miterlimit:4;" d="M 88.586683 379.199979 C 88.586683 377.968069 87.559591 376.930671 86.307823 376.930671 C 85.023958 376.930671 83.996866 377.968069 83.996866 379.199979 C 83.996866 380.464308 85.023958 381.469287 86.307823 381.469287 C 87.559591 381.469287 88.586683 380.464308 88.586683 379.199979 Z M 88.586683 379.199979 " transform="matrix(0.121703,0,0,0.120494,0,-26.472494)"/>
<path style="fill-rule:nonzero;fill:rgb(83.137256%,0%,0%);fill-opacity:1;stroke-width:1;stroke-linecap:butt;stroke-linejoin:miter;stroke:rgb(0%,0%,0%);stroke-opacity:1;stroke-miterlimit:4;" d="M 7.51061 431.005033 L 7.51061 623.053307 C 8.794475 629.569463 10.977046 634.237753 17.909916 635.826268 L 145.301419 635.826268 C 163.275528 635.210313 162.761982 641.207769 165.008746 643.801264 L 165.008746 431.005033 Z M 7.51061 431.005033 " transform="matrix(0.121703,0,0,0.120494,0,-26.472494)"/>
<path style="fill-rule:nonzero;fill:rgb(91.764706%,75.686276%,0.784314%);fill-opacity:1;stroke-width:0.7;stroke-linecap:round;stroke-linejoin:round;stroke:rgb(0%,0%,0%);stroke-opacity:1;stroke-miterlimit:4;" d="M 63.487123 549.462899 C 61.721809 550.824483 60.052784 551.505276 58.512146 551.505276 C 54.821034 551.505276 51.226213 547.355684 50.712667 546.707311 L 49.621381 549.398061 C 49.781864 549.624992 53.954426 554.876819 58.512146 554.876819 C 60.277461 554.876819 62.171161 554.09877 64.161152 552.575092 Z M 63.487123 549.462899 " transform="matrix(0.121703,0,0,0.120494,0,-26.472494)"/>
<path style="fill-rule:nonzero;fill:rgb(91.764706%,75.686276%,0.784314%);fill-opacity:1;stroke-width:0.7;stroke-linecap:round;stroke-linejoin:round;stroke:rgb(0%,0%,0%);stroke-opacity:1;stroke-miterlimit:4;" d="M 56.457962 544.956702 C 56.00861 544.275909 55.206194 544.664934 54.660551 545.864425 C 54.147005 547.031497 54.050715 548.522757 54.467972 549.235968 C 54.724745 548.620013 55.013614 547.971639 55.33458 547.258428 C 55.71974 546.383124 56.072803 545.637494 56.457962 544.956702 Z M 56.457962 544.956702 " transform="matrix(0.121703,0,0,0.120494,0,-26.472494)"/>
<path style="fill-rule:nonzero;fill:rgb(91.764706%,75.686276%,0.784314%);fill-opacity:1;stroke-width:0.7;stroke-linecap:round;stroke-linejoin:round;stroke:rgb(0%,0%,0%);stroke-opacity:1;stroke-miterlimit:4;" d="M 60.598427 544.956702 C 61.04778 544.275909 61.818099 544.664934 62.363741 545.864425 C 62.877287 547.031497 62.973577 548.522757 62.556321 549.235968 C 62.299548 548.620013 62.010678 547.971639 61.721809 547.258428 C 61.304553 546.383124 60.95149 545.637494 60.598427 544.956702 Z M 60.598427 544.956702 " transform="matrix(0.121703,0,0,0.120494,0,-26.472494)"/>
<path style="fill-rule:nonzero;fill:rgb(91.764706%,75.686276%,0.784314%);fill-opacity:1;stroke-width:0.7;stroke-linecap:round;stroke-linejoin:round;stroke:rgb(0%,0%,0%);stroke-opacity:1;stroke-miterlimit:4;" d="M 58.865209 538.148778 L 60.213267 537.241055 L 72.666758 568.233316 C 69.232419 562.430371 67.274525 561.328136 67.274525 561.328136 C 67.274525 561.328136 67.146138 558.76706 66.215336 556.757102 C 65.284534 554.779562 64.417925 555.168587 64.417925 555.168587 C 64.417925 555.168587 64.129056 553.288303 62.427934 549.235968 C 62.813094 548.555175 62.748901 547.161172 62.235355 546.058937 C 61.753905 544.956702 61.015683 544.600096 60.598427 545.24847 C 58.704726 541.714833 57.324571 540.969204 57.324571 540.969204 L 57.324571 538.148778 Z M 58.865209 538.148778 " transform="matrix(0.121703,0,0,0.120494,0,-26.472494)"/>
<path style="fill-rule:nonzero;fill:rgb(91.764706%,75.686276%,0.784314%);fill-opacity:1;stroke-width:0.7;stroke-linecap:round;stroke-linejoin:round;stroke:rgb(0%,0%,0%);stroke-opacity:1;stroke-miterlimit:4;" d="M 58.19118 538.148778 L 56.843122 537.241055 L 44.357535 568.233316 C 47.82397 562.430371 49.749768 561.328136 49.749768 561.328136 C 49.749768 561.328136 49.878154 558.76706 50.808956 556.757102 C 51.739759 554.779562 52.606367 555.168587 52.606367 555.168587 C 52.606367 555.168587 52.927334 553.288303 54.596358 549.235968 C 54.211199 548.555175 54.307488 547.161172 54.788938 546.058937 C 55.302484 544.956702 56.040706 544.600096 56.457962 545.24847 C 58.319567 541.714833 59.699721 540.969204 59.699721 540.969204 L 59.699721 538.148778 Z M 58.19118 538.148778 " transform="matrix(0.121703,0,0,0.120494,0,-26.472494)"/>
<path style="fill-rule:nonzero;fill:rgb(91.764706%,75.686276%,0.784314%);fill-opacity:1;stroke-width:3.418799;stroke-linecap:round;stroke-linejoin:round;stroke:rgb(0%,0%,0%);stroke-opacity:1;stroke-miterlimit:4;" d="M 110.151266 15.621438 C 110.151266 7.301815 103.492431 0.484346 95.115187 0.484346 C 86.737943 0.484346 80.079108 7.301815 80.079108 15.621438 C 80.079108 23.941061 86.737943 30.64298 95.115187 30.64298 C 103.492431 30.64298 110.151266 23.941061 110.151266 15.621438 Z M 110.151266 15.621438 " transform="matrix(0.0181854,0,0,0.0338056,5.391384,37.51097)"/>
<path style="fill-rule:nonzero;fill:rgb(91.764706%,75.686276%,0.784314%);fill-opacity:1;stroke-width:3.418799;stroke-linecap:round;stroke-linejoin:round;stroke:rgb(0%,0%,0%);stroke-opacity:1;stroke-miterlimit:4;" d="M 101.988823 15.621438 C 101.988823 11.808278 98.766806 8.803969 95.115187 8.803969 C 91.463568 8.803969 88.456352 11.808278 88.456352 15.621438 C 88.456352 19.319048 91.463568 22.323357 95.115187 22.323357 C 98.766806 22.323357 101.988823 19.319048 101.988823 15.621438 Z M 101.988823 15.621438 " transform="matrix(0.0181854,0,0,0.0338056,5.391384,37.51097)"/>
<path style="fill-rule:nonzero;fill:rgb(0%,44.313726%,73.725492%);fill-opacity:1;stroke-width:0.7;stroke-linecap:butt;stroke-linejoin:miter;stroke:rgb(0%,0%,0%);stroke-opacity:1;stroke-miterlimit:4;" d="M 132.270189 552.704767 C 127.648275 565.380472 113.589954 571.896627 100.87969 567.260755 C 88.201524 562.624884 81.685909 548.555175 86.33992 535.879471 C 90.961833 523.171347 105.020155 516.655192 117.698322 521.323482 C 130.408585 525.959354 136.9242 539.996643 132.270189 552.704767 Z M 132.270189 552.704767 " transform="matrix(0.121703,0,0,0.120494,0,-26.472494)"/>
<path style=" stroke:none;fill-rule:nonzero;fill:rgb(91.764706%,75.686276%,0.784314%);fill-opacity:1;" d="M 14.265625 36.457031 L 13.941406 36.378906 L 13.519531 36.34375 L 13.421875 36.390625 L 13.597656 36.636719 L 13.566406 36.726562 L 13.4375 36.789062 L 13.46875 37.082031 L 13.570312 37.058594 L 13.734375 36.9375 C 13.914062 36.945312 14.078125 36.941406 14.257812 36.925781 L 14.496094 36.65625 Z M 13.519531 36.210938 L 13.378906 36.183594 L 13.292969 36.222656 L 13.183594 36.203125 L 13.078125 36.210938 L 13.023438 36.214844 L 12.984375 36.242188 L 13.105469 36.3125 L 13.175781 36.285156 L 13.289062 36.300781 C 13.375 36.292969 13.453125 36.296875 13.539062 36.300781 Z M 12.808594 36.269531 L 12.765625 36.3125 L 12.734375 36.425781 L 12.625 36.46875 L 12.53125 36.578125 L 12.628906 36.613281 L 12.726562 36.519531 C 12.78125 36.503906 12.839844 36.488281 12.898438 36.476562 L 12.984375 36.546875 C 13.035156 36.617188 13.089844 36.691406 13.140625 36.761719 L 13.28125 36.707031 L 13.183594 36.621094 L 13.167969 36.492188 L 12.980469 36.398438 L 12.992188 36.335938 L 12.890625 36.324219 L 12.816406 36.394531 Z M 12.523438 36.273438 L 12.421875 36.378906 C 12.421875 36.378906 12.328125 36.363281 12.304688 36.363281 C 11.925781 36.519531 11.140625 36.875 10.617188 37.886719 C 10.613281 37.910156 10.65625 38.085938 10.65625 38.085938 L 10.824219 38.292969 L 11.023438 38.429688 L 11.070312 38.578125 L 11.175781 38.734375 L 11.261719 38.753906 L 11.316406 38.804688 L 11.308594 38.824219 L 11.144531 39.015625 L 11.046875 39.085938 L 11.054688 39.136719 L 10.933594 39.292969 L 10.996094 39.699219 L 11.125 39.929688 L 11.164062 40.074219 L 11.066406 40.3125 L 11.074219 40.476562 L 10.914062 40.722656 C 10.914062 40.722656 10.90625 40.71875 10.90625 40.75 C 10.902344 40.78125 11.113281 41.085938 11.1875 41.066406 C 11.214844 41.058594 11.238281 41.046875 11.238281 41.046875 L 11.242188 40.984375 L 11.351562 40.933594 L 11.414062 40.863281 L 11.566406 40.867188 L 11.765625 40.648438 L 11.761719 40.566406 L 11.871094 40.488281 L 12.039062 40.507812 L 12.1875 40.355469 L 12.257812 40.113281 L 12.441406 39.988281 L 12.53125 39.820312 C 12.390625 39.675781 12.253906 39.527344 12.117188 39.378906 L 12.089844 39.1875 L 11.949219 39.097656 L 11.949219 38.847656 L 11.730469 38.792969 L 11.601562 38.597656 L 11.355469 38.699219 L 11.347656 38.71875 C 11.296875 38.683594 11.226562 38.65625 11.1875 38.605469 L 11.1875 38.480469 L 11.238281 38.347656 L 11.109375 38.316406 C 11.148438 38.242188 11.191406 38.160156 11.230469 38.082031 L 11.160156 38.054688 L 11.050781 38.125 L 10.964844 38.132812 L 10.882812 38.039062 L 10.921875 37.90625 L 10.992188 37.769531 L 11.1875 37.714844 L 11.316406 37.761719 L 11.359375 37.695312 L 11.503906 37.789062 L 11.566406 37.96875 L 11.671875 37.742188 L 11.929688 37.652344 L 12.070312 37.503906 L 12.234375 37.5 L 12.359375 37.410156 L 12.558594 37.449219 L 12.703125 37.34375 C 12.613281 37.308594 12.515625 37.273438 12.421875 37.242188 L 12.632812 37.21875 L 12.753906 37.265625 L 12.953125 37.269531 L 13 37.210938 L 12.957031 37.128906 L 12.894531 37.082031 L 12.945312 37.015625 L 12.925781 36.894531 L 12.789062 36.894531 L 12.839844 36.8125 L 12.722656 36.675781 L 12.539062 36.835938 L 12.523438 36.90625 L 12.390625 36.910156 L 12.261719 37.035156 L 12.28125 36.882812 L 12.117188 36.734375 L 12.125 36.617188 L 12.4375 36.558594 L 12.589844 36.496094 L 12.652344 36.371094 L 12.601562 36.316406 Z M 15.425781 37.324219 L 15.214844 37.300781 L 15.058594 37.335938 L 15.03125 37.40625 L 14.789062 37.460938 L 14.761719 37.664062 L 14.90625 37.625 L 14.949219 37.734375 L 15.011719 37.808594 L 15.117188 37.6875 L 15.117188 37.59375 L 15.167969 37.546875 L 15.320312 37.484375 L 15.371094 37.503906 L 15.277344 37.601562 L 15.238281 37.707031 C 15.292969 37.710938 15.34375 37.722656 15.394531 37.734375 L 15.222656 37.777344 L 15.195312 37.832031 L 14.992188 37.90625 L 14.84375 37.8125 L 14.878906 37.71875 L 14.789062 37.742188 L 14.792969 37.835938 L 14.679688 37.792969 L 14.574219 37.871094 L 14.46875 37.929688 L 14.316406 37.910156 L 14.371094 38.023438 L 14.359375 38.109375 L 14.253906 38.074219 L 14.097656 38.097656 L 14.019531 38.304688 L 14.082031 38.324219 L 14.117188 38.410156 L 14.265625 38.390625 L 14.367188 38.285156 L 14.480469 38.261719 L 14.519531 38.222656 L 14.6875 38.242188 L 14.734375 38.363281 L 14.8125 38.445312 L 14.722656 38.53125 L 14.8125 38.539062 L 14.890625 38.449219 L 14.832031 38.296875 L 14.871094 38.3125 L 14.945312 38.429688 L 14.925781 38.554688 L 14.980469 38.691406 L 15.058594 38.546875 L 15.117188 38.542969 C 15.148438 38.613281 15.167969 38.691406 15.1875 38.765625 L 15.335938 38.835938 L 15.410156 38.929688 L 15.351562 38.96875 L 15.222656 39.019531 L 15.085938 38.96875 L 14.9375 38.847656 L 14.835938 38.824219 L 14.742188 38.875 L 14.621094 38.613281 L 14.496094 38.53125 L 14.292969 38.484375 L 14.101562 38.464844 C 13.960938 38.539062 13.820312 38.617188 13.683594 38.695312 L 13.472656 38.925781 L 13.5 39 L 13.359375 39.105469 L 13.375 39.386719 C 13.425781 39.519531 13.476562 39.648438 13.527344 39.78125 L 13.695312 39.714844 L 13.730469 39.800781 L 13.902344 39.761719 L 13.929688 39.835938 L 14.070312 39.886719 L 14.117188 40.003906 L 14.011719 40.144531 L 14.066406 40.292969 L 13.988281 40.480469 L 14.007812 40.648438 L 13.917969 40.742188 C 13.882812 40.824219 13.84375 40.910156 13.8125 40.992188 C 13.8125 41.125 13.808594 41.257812 13.808594 41.390625 L 13.769531 41.585938 L 13.734375 41.679688 L 13.808594 41.703125 L 13.945312 41.679688 L 14.082031 41.726562 L 14.367188 41.570312 L 14.371094 41.488281 L 14.546875 41.417969 L 14.492188 41.273438 L 14.644531 41.21875 L 14.785156 41.1875 L 14.859375 41.148438 L 14.878906 41.011719 C 14.917969 40.902344 14.957031 40.796875 14.996094 40.6875 L 15.160156 40.523438 L 15.320312 40.433594 L 15.558594 40.179688 L 15.589844 40.097656 C 15.527344 40.085938 15.46875 40.066406 15.40625 40.050781 L 15.570312 39.96875 L 15.785156 39.921875 L 15.914062 39.84375 L 15.957031 39.730469 C 15.953125 39.683594 15.949219 39.640625 15.941406 39.59375 L 15.820312 39.652344 L 15.789062 39.566406 L 15.71875 39.457031 L 15.773438 39.308594 L 15.835938 39.472656 L 15.960938 39.496094 C 16 39.5625 16.039062 39.632812 16.066406 39.707031 L 16.175781 39.644531 C 16.207031 39.550781 16.269531 39.054688 16.183594 38.589844 C 16.101562 38.121094 15.835938 37.625 15.835938 37.625 L 15.785156 37.664062 L 15.636719 37.742188 L 15.554688 37.554688 L 15.691406 37.605469 L 15.773438 37.558594 L 15.546875 37.417969 Z M 14.339844 37.105469 L 14.242188 37.121094 L 14.207031 37.09375 L 14.171875 37.160156 L 14.226562 37.230469 L 14.378906 37.195312 Z M 12.96875 36.632812 L 12.859375 36.660156 L 12.9375 36.765625 L 13.023438 36.796875 L 13.054688 36.714844 Z M 14.507812 37.492188 L 14.480469 37.5625 L 14.503906 37.621094 L 14.464844 37.726562 L 14.390625 37.855469 L 14.511719 37.875 L 14.628906 37.828125 L 14.582031 37.734375 C 14.582031 37.660156 14.574219 37.585938 14.566406 37.511719 Z M 14.414062 37.617188 L 14.332031 37.613281 L 14.304688 37.75 L 14.414062 37.738281 Z M 12.902344 37.308594 L 12.875 37.480469 L 12.972656 37.410156 Z M 15.277344 39.195312 L 15.34375 39.367188 L 15.375 39.714844 L 15.421875 39.839844 L 15.34375 39.929688 L 15.394531 40.046875 C 15.355469 40.039062 15.316406 40.023438 15.277344 40.011719 C 15.261719 39.851562 15.265625 39.695312 15.269531 39.535156 L 15.214844 39.402344 L 15.230469 39.214844 Z M 15.277344 39.195312 "/>
<path style="fill:none;stroke-width:0.7;stroke-linecap:butt;stroke-linejoin:miter;stroke:rgb(0%,0%,0%);stroke-opacity:1;stroke-miterlimit:4;" d="M 60.149074 495.129187 L 109.353199 544.308328 M 60.598427 494.545651 L 111.2469 541.001622 M 61.015683 493.962114 L 113.140601 537.792173 M 61.368746 493.313741 L 114.488659 534.290955 M 61.657615 492.665367 L 115.933007 531.016668 M 61.850195 491.952156 L 117.248969 527.742381 M 61.946485 491.238945 L 117.858805 524.208745 M 61.946485 490.525734 L 118.340254 520.804783 M 59.603431 495.583049 L 106.047247 546.22103 M 59.025692 496.03691 L 102.837585 548.101314 M 58.38376 496.393516 L 99.339052 549.462899 M 57.709731 496.620446 L 96.0331 550.921739 M 57.035702 496.879796 L 92.791341 552.218487 M 56.361672 497.041889 L 89.260712 552.834442 M 55.559257 496.912215 L 85.826374 553.288303 " transform="matrix(0.121703,0,0,0.120494,0,-26.472494)"/>
<path style="fill-rule:nonzero;fill:rgb(89.019608%,89.411765%,89.803922%);fill-opacity:1;stroke-width:0.7;stroke-linecap:round;stroke-linejoin:miter;stroke:rgb(0%,0%,0%);stroke-opacity:1;stroke-miterlimit:4;" d="M 64.321635 502.131622 L 57.388764 496.620446 L 50.199121 501.807436 L 53.312493 493.508253 L 46.154946 488.288845 L 55.013614 488.677869 L 57.741827 480.249012 L 60.116977 488.807544 L 68.975646 488.807544 L 61.593422 493.702765 Z M 64.321635 502.131622 " transform="matrix(0.121703,0,0,0.120494,0,-26.472494)"/>
<path style="fill-rule:nonzero;fill:rgb(47.058824%,26.666668%,12.941177%);fill-opacity:1;stroke-width:0.7;stroke-linecap:butt;stroke-linejoin:miter;stroke:rgb(0%,0%,0%);stroke-opacity:1;stroke-miterlimit:4;" d="M 38.708529 569.270713 L 38.708529 577.991339 L 124.791676 577.991339 L 124.791676 594.557286 L 133.457764 594.557286 L 133.457764 569.270713 Z M 38.708529 569.270713 " transform="matrix(0.121703,0,0,0.120494,0,-26.472494)"/>
<path style="fill-rule:nonzero;fill:rgb(92.54902%,92.54902%,92.54902%);fill-opacity:1;stroke-width:0.315138;stroke-linecap:butt;stroke-linejoin:miter;stroke:rgb(0%,0%,0%);stroke-opacity:1;stroke-miterlimit:4;" d="M 212.832716 431.005033 C 212.832716 457.42626 191.424268 478.82259 164.976649 478.82259 C 138.561127 478.82259 117.152679 457.42626 117.152679 431.005033 C 117.152679 404.583807 138.561127 383.155058 164.976649 383.155058 C 191.424268 383.155058 212.832716 404.583807 212.832716 431.005033 Z M 212.832716 431.005033 " transform="matrix(0.121703,0,0,0.120494,0,-26.472494)"/>
<path style=" stroke:none;fill-rule:nonzero;fill:url(#radial0);" d="M 22.992188 26.148438 C 22.992188 27.5625 21.660156 28.710938 20.019531 28.710938 C 18.378906 28.710938 17.046875 27.5625 17.046875 26.148438 C 17.046875 24.734375 18.378906 23.585938 20.019531 23.585938 C 21.660156 23.585938 22.992188 24.734375 22.992188 26.148438 Z M 22.992188 26.148438 "/>
<path style=" stroke:none;fill-rule:nonzero;fill:url(#radial1);" d="M 21.289062 26.175781 C 21.289062 26.832031 20.746094 27.367188 20.082031 27.367188 C 19.417969 27.367188 18.878906 26.832031 18.878906 26.175781 C 18.878906 25.515625 19.417969 24.984375 20.082031 24.984375 C 20.746094 24.984375 21.289062 25.515625 21.289062 26.175781 Z M 21.289062 26.175781 "/>
<path style=" stroke:none;fill-rule:nonzero;fill:url(#radial2);" d="M 20.691406 26.175781 C 20.691406 26.527344 20.40625 26.808594 20.050781 26.808594 C 19.699219 26.808594 19.410156 26.527344 19.410156 26.175781 C 19.410156 25.824219 19.699219 25.542969 20.050781 25.542969 C 20.40625 25.542969 20.691406 25.824219 20.691406 26.175781 Z M 20.691406 26.175781 "/>
<path style=" stroke:none;fill-rule:evenodd;fill:rgb(92.54902%,92.54902%,92.54902%);fill-opacity:1;" d="M 23.863281 25.875 C 20.808594 22.570312 17.222656 23.863281 14.699219 26.230469 C 17.058594 29.675781 22.582031 31.144531 23.863281 25.875 Z M 23.25 26.378906 C 21.027344 28.234375 19.144531 27.921875 16.902344 26.988281 C 18.269531 24.761719 20.925781 25.386719 23.25 26.378906 Z M 23.25 26.378906 "/>
<path style=" stroke:none;fill-rule:evenodd;fill:rgb(25.882354%,21.568628%,21.176471%);fill-opacity:1;" d="M 23.328125 25.214844 C 21.085938 24.105469 18.769531 24.164062 17.207031 24.667969 L 17.976562 23.464844 C 20.144531 23.375 21.894531 23.570312 23.328125 25.214844 Z M 23.328125 25.214844 "/>
<path style="fill:none;stroke-width:0.7;stroke-linecap:butt;stroke-linejoin:miter;stroke:rgb(0%,0%,0%);stroke-opacity:1;stroke-miterlimit:4;" d="M 191.039108 438.623424 C 176.146275 451.363966 161.670697 453.795367 138.882094 443.680738 C 150.115912 425.202089 171.941617 430.389078 191.039108 438.623424 Z M 191.039108 438.623424 " transform="matrix(0.121703,0,0,0.120494,0,-26.472494)"/>
<path style="fill:none;stroke-width:0.7;stroke-linecap:butt;stroke-linejoin:miter;stroke:rgb(0%,0%,0%);stroke-opacity:1;stroke-miterlimit:4;" d="M 189.947823 434.635926 C 173.418062 426.628511 157.369749 424.94274 142.027563 432.399037 " transform="matrix(0.121703,0,0,0.120494,0,-26.472494)"/>
<path style="fill-rule:nonzero;fill:rgb(92.54902%,92.54902%,92.54902%);fill-opacity:1;stroke-width:0.315138;stroke-linecap:butt;stroke-linejoin:miter;stroke:rgb(0%,0%,0%);stroke-opacity:1;stroke-miterlimit:4;" d="M 117.152679 431.005033 C 117.152679 457.42626 138.593224 478.855009 165.008746 478.855009 C 191.392171 478.855009 212.832716 457.42626 212.832716 431.005033 C 205.161623 368.080371 127.840855 364.806084 117.152679 431.005033 Z M 164.880359 390.805867 L 195.179573 457.977377 C 195.179573 457.977377 135.255175 457.977377 134.837919 457.977377 Z M 164.880359 390.805867 " transform="matrix(0.121703,0,0,0.120494,0,-26.472494)"/>
<path style=" stroke:none;fill-rule:nonzero;fill:rgb(89.019608%,89.411765%,89.803922%);fill-opacity:1;" d="M 20.085938 20.539062 C 20.074219 20.542969 20.058594 20.550781 20.046875 20.558594 C 20.027344 20.558594 20.011719 20.5625 19.996094 20.574219 C 19.964844 20.597656 19.945312 20.636719 19.945312 20.675781 L 19.945312 20.890625 L 20.066406 20.617188 L 20.222656 20.960938 L 20.222656 20.675781 C 20.21875 20.65625 20.210938 20.640625 20.203125 20.625 C 20.179688 20.589844 20.144531 20.5625 20.101562 20.558594 C 20.09375 20.550781 20.089844 20.542969 20.085938 20.539062 Z M 21.273438 20.84375 C 21.269531 20.847656 21.265625 20.855469 21.261719 20.863281 C 21.253906 20.863281 21.25 20.863281 21.246094 20.863281 C 21.238281 20.867188 21.230469 20.871094 21.226562 20.878906 C 21.21875 20.886719 21.214844 20.898438 21.210938 20.910156 L 20.832031 22.304688 L 20.9375 22.527344 L 21.363281 20.945312 C 21.363281 20.941406 21.363281 20.9375 21.363281 20.929688 C 21.363281 20.925781 21.363281 20.917969 21.363281 20.910156 C 21.363281 20.90625 21.363281 20.898438 21.363281 20.894531 C 21.359375 20.886719 21.351562 20.882812 21.34375 20.878906 C 21.339844 20.871094 21.335938 20.867188 21.328125 20.863281 C 21.324219 20.863281 21.320312 20.863281 21.3125 20.863281 C 21.304688 20.855469 21.289062 20.847656 21.273438 20.84375 Z M 18.835938 20.863281 C 18.832031 20.867188 18.828125 20.871094 18.820312 20.878906 C 18.816406 20.882812 18.808594 20.886719 18.804688 20.894531 C 18.800781 20.898438 18.800781 20.90625 18.804688 20.910156 C 18.800781 20.917969 18.800781 20.925781 18.804688 20.929688 C 18.800781 20.9375 18.800781 20.941406 18.804688 20.945312 L 19.21875 22.492188 L 19.320312 22.265625 L 18.957031 20.910156 C 18.953125 20.90625 18.945312 20.898438 18.941406 20.894531 C 18.941406 20.886719 18.941406 20.882812 18.941406 20.878906 C 18.933594 20.871094 18.929688 20.867188 18.921875 20.863281 C 18.914062 20.863281 18.910156 20.863281 18.90625 20.863281 C 18.898438 20.863281 18.894531 20.863281 18.890625 20.863281 C 18.882812 20.863281 18.878906 20.863281 18.871094 20.863281 C 18.867188 20.863281 18.863281 20.863281 18.855469 20.863281 C 18.851562 20.863281 18.84375 20.863281 18.835938 20.863281 Z M 20.628906 20.894531 C 20.585938 21.128906 20.550781 21.367188 20.515625 21.605469 L 20.59375 21.777344 C 20.621094 21.476562 20.640625 21.179688 20.644531 20.894531 Z M 19.449219 20.910156 C 19.46875 21.203125 19.503906 21.496094 19.535156 21.792969 L 19.609375 21.632812 C 19.5625 21.382812 19.511719 21.144531 19.449219 20.910156 Z M 17.695312 21.183594 C 17.679688 21.183594 17.664062 21.1875 17.648438 21.199219 C 17.632812 21.203125 17.621094 21.207031 17.609375 21.214844 C 17.601562 21.222656 17.597656 21.238281 17.59375 21.25 C 17.585938 21.265625 17.578125 21.28125 17.574219 21.300781 C 17.570312 21.316406 17.570312 21.335938 17.574219 21.351562 C 17.578125 21.363281 17.585938 21.371094 17.59375 21.382812 L 18.792969 23.433594 L 18.925781 23.144531 L 17.8125 21.25 C 17.808594 21.230469 17.796875 21.210938 17.78125 21.199219 C 17.769531 21.191406 17.761719 21.1875 17.75 21.183594 C 17.734375 21.179688 17.714844 21.179688 17.695312 21.183594 Z M 22.453125 21.183594 C 22.421875 21.183594 22.390625 21.191406 22.367188 21.214844 C 22.359375 21.21875 22.355469 21.226562 22.351562 21.230469 C 22.34375 21.238281 22.339844 21.246094 22.335938 21.25 L 21.226562 23.160156 L 21.359375 23.457031 L 22.570312 21.382812 C 22.582031 21.367188 22.589844 21.351562 22.589844 21.332031 C 22.59375 21.316406 22.59375 21.296875 22.589844 21.28125 C 22.582031 21.234375 22.546875 21.199219 22.503906 21.183594 C 22.488281 21.179688 22.472656 21.179688 22.453125 21.183594 Z M 21.789062 21.199219 C 21.535156 21.71875 21.300781 22.273438 21.074219 22.832031 L 21.132812 22.964844 C 21.390625 22.363281 21.628906 21.761719 21.789062 21.199219 Z M 18.308594 21.214844 C 18.488281 21.800781 18.734375 22.394531 18.992188 22.992188 L 19.0625 22.839844 C 18.828125 22.28125 18.585938 21.726562 18.308594 21.214844 Z M 22.828125 21.773438 C 22.335938 22.316406 21.871094 22.929688 21.40625 23.550781 L 21.460938 23.679688 C 21.964844 23.042969 22.457031 22.410156 22.828125 21.773438 Z M 17.285156 21.804688 C 17.605469 22.417969 18.179688 23.050781 18.683594 23.675781 L 18.730469 23.574219 C 18.257812 22.957031 17.78125 22.34375 17.285156 21.804688 Z M 16.777344 22.046875 C 16.769531 22.050781 16.761719 22.054688 16.757812 22.0625 C 16.75 22.058594 16.746094 22.058594 16.742188 22.0625 C 16.734375 22.066406 16.730469 22.070312 16.726562 22.074219 C 16.726562 22.082031 16.726562 22.089844 16.726562 22.09375 C 16.71875 22.097656 16.710938 22.101562 16.707031 22.109375 C 16.707031 22.113281 16.707031 22.117188 16.707031 22.125 C 16.707031 22.128906 16.707031 22.140625 16.707031 22.148438 C 16.710938 22.152344 16.71875 22.15625 16.726562 22.164062 C 16.726562 22.167969 16.726562 22.171875 16.726562 22.175781 C 16.730469 22.179688 16.734375 22.179688 16.742188 22.175781 L 18.550781 23.96875 L 18.617188 23.832031 L 16.84375 22.074219 C 16.839844 22.070312 16.832031 22.066406 16.824219 22.0625 C 16.820312 22.054688 16.816406 22.050781 16.808594 22.046875 C 16.804688 22.042969 16.796875 22.042969 16.792969 22.046875 C 16.785156 22.042969 16.78125 22.042969 16.777344 22.046875 Z M 23.359375 22.046875 C 23.351562 22.050781 23.34375 22.054688 23.339844 22.0625 C 23.335938 22.058594 23.328125 22.058594 23.320312 22.0625 C 23.320312 22.066406 23.320312 22.070312 23.320312 22.074219 L 21.539062 23.839844 L 21.597656 23.984375 L 23.425781 22.175781 C 23.429688 22.171875 23.4375 22.167969 23.441406 22.164062 C 23.453125 22.152344 23.460938 22.136719 23.460938 22.125 C 23.460938 22.117188 23.460938 22.113281 23.460938 22.109375 C 23.457031 22.101562 23.449219 22.097656 23.441406 22.09375 C 23.445312 22.089844 23.445312 22.082031 23.441406 22.074219 C 23.4375 22.070312 23.429688 22.066406 23.425781 22.0625 C 23.414062 22.050781 23.402344 22.046875 23.390625 22.046875 C 23.382812 22.042969 23.378906 22.042969 23.375 22.046875 C 23.371094 22.042969 23.363281 22.042969 23.359375 22.046875 Z M 23.683594 22.597656 C 23.011719 23.039062 22.332031 23.570312 21.65625 24.105469 L 21.703125 24.210938 C 22.410156 23.6875 23.117188 23.164062 23.683594 22.597656 Z M 16.453125 22.652344 C 16.921875 23.21875 17.808594 23.695312 18.433594 24.230469 L 18.484375 24.125 C 17.808594 23.636719 17.117188 23.027344 16.453125 22.652344 Z M 15.9375 22.902344 C 15.921875 22.90625 15.90625 22.910156 15.890625 22.917969 C 15.851562 22.945312 15.832031 22.992188 15.835938 23.039062 C 15.835938 23.070312 15.847656 23.097656 15.871094 23.121094 C 15.875 23.128906 15.882812 23.136719 15.890625 23.140625 C 15.894531 23.140625 15.898438 23.140625 15.90625 23.140625 L 18.304688 24.515625 L 18.410156 24.277344 L 16.042969 22.917969 C 16.027344 22.910156 16.011719 22.90625 15.992188 22.902344 C 15.976562 22.902344 15.957031 22.902344 15.9375 22.902344 Z M 24.164062 22.902344 C 24.152344 22.90625 24.136719 22.910156 24.125 22.917969 L 21.738281 24.289062 L 21.847656 24.527344 L 24.261719 23.140625 C 24.292969 23.128906 24.316406 23.105469 24.328125 23.074219 C 24.335938 23.050781 24.335938 23.027344 24.328125 23.003906 C 24.324219 22.992188 24.320312 22.980469 24.3125 22.972656 C 24.300781 22.949219 24.28125 22.929688 24.261719 22.917969 C 24.246094 22.910156 24.230469 22.90625 24.210938 22.902344 C 24.195312 22.902344 24.179688 22.902344 24.164062 22.902344 Z M 24.28125 23.625 C 23.5 23.871094 22.683594 24.230469 21.871094 24.582031 L 21.914062 24.675781 C 22.746094 24.34375 23.582031 24.011719 24.28125 23.625 Z M 15.851562 23.679688 C 16.570312 24.050781 17.398438 24.371094 18.226562 24.691406 L 18.261719 24.613281 C 17.453125 24.285156 16.628906 23.902344 15.851562 23.679688 Z M 15.546875 24.121094 C 15.539062 24.125 15.535156 24.128906 15.527344 24.136719 C 15.523438 24.140625 15.519531 24.148438 15.511719 24.152344 C 15.511719 24.160156 15.511719 24.167969 15.511719 24.171875 C 15.511719 24.179688 15.511719 24.183594 15.511719 24.1875 C 15.511719 24.195312 15.511719 24.195312 15.511719 24.203125 C 15.511719 24.207031 15.511719 24.214844 15.511719 24.222656 C 15.519531 24.226562 15.523438 24.230469 15.527344 24.238281 C 15.535156 24.242188 15.539062 24.25 15.546875 24.257812 C 15.550781 24.261719 15.554688 24.265625 15.5625 24.269531 L 18.109375 24.945312 L 18.175781 24.800781 L 15.601562 24.121094 C 15.59375 24.121094 15.585938 24.121094 15.582031 24.121094 C 15.578125 24.121094 15.570312 24.121094 15.5625 24.121094 C 15.558594 24.121094 15.554688 24.121094 15.546875 24.121094 Z M 24.550781 24.121094 L 21.976562 24.800781 L 22.039062 24.949219 L 24.601562 24.269531 C 24.609375 24.265625 24.613281 24.261719 24.617188 24.257812 C 24.625 24.25 24.632812 24.242188 24.636719 24.238281 C 24.644531 24.230469 24.648438 24.226562 24.652344 24.222656 C 24.652344 24.214844 24.652344 24.207031 24.652344 24.203125 C 24.652344 24.195312 24.652344 24.195312 24.652344 24.1875 C 24.652344 24.183594 24.652344 24.179688 24.652344 24.171875 C 24.652344 24.167969 24.652344 24.160156 24.652344 24.152344 C 24.648438 24.148438 24.644531 24.140625 24.636719 24.136719 C 24.632812 24.128906 24.625 24.125 24.617188 24.121094 C 24.613281 24.121094 24.609375 24.121094 24.601562 24.121094 C 24.597656 24.121094 24.59375 24.121094 24.585938 24.121094 C 24.582031 24.121094 24.574219 24.121094 24.570312 24.121094 C 24.5625 24.121094 24.554688 24.121094 24.550781 24.121094 Z M 24.601562 24.761719 C 23.804688 24.808594 22.945312 24.933594 22.089844 25.058594 L 22.140625 25.164062 C 22.988281 25.058594 23.835938 24.957031 24.601562 24.761719 Z M 15.546875 24.828125 C 16.335938 24.988281 17.171875 25.085938 18.007812 25.179688 L 18.050781 25.078125 C 17.199219 24.957031 16.347656 24.839844 15.546875 24.828125 Z M 15.121094 25.25 C 15.105469 25.25 15.089844 25.261719 15.070312 25.269531 C 15.058594 25.273438 15.042969 25.28125 15.035156 25.289062 C 15.015625 25.304688 15.007812 25.328125 15.003906 25.351562 C 14.996094 25.375 14.996094 25.398438 15.003906 25.417969 C 15.007812 25.445312 15.015625 25.46875 15.035156 25.488281 C 15.042969 25.496094 15.058594 25.5 15.070312 25.507812 C 15.089844 25.515625 15.105469 25.519531 15.121094 25.519531 L 17.851562 25.519531 L 17.972656 25.25 Z M 22.175781 25.25 L 22.300781 25.519531 L 24.839844 25.519531 C 24.855469 25.519531 24.875 25.515625 24.890625 25.507812 C 24.914062 25.496094 24.929688 25.472656 24.941406 25.453125 C 24.949219 25.4375 24.957031 25.421875 24.960938 25.402344 C 24.964844 25.386719 24.964844 25.367188 24.960938 25.351562 C 24.949219 25.296875 24.898438 25.253906 24.839844 25.25 Z M 22.339844 25.609375 L 22.390625 25.71875 C 23.210938 25.832031 24.03125 25.9375 24.808594 25.957031 C 24.019531 25.800781 23.179688 25.703125 22.339844 25.609375 Z M 17.796875 25.648438 C 16.96875 25.753906 16.136719 25.859375 15.355469 26.023438 C 16.09375 26.027344 16.929688 25.882812 17.746094 25.753906 Z M 22.492188 25.941406 L 22.578125 26.132812 L 24.753906 26.703125 C 24.761719 26.703125 24.769531 26.703125 24.773438 26.703125 C 24.78125 26.703125 24.785156 26.703125 24.789062 26.703125 C 24.796875 26.703125 24.800781 26.703125 24.808594 26.703125 C 24.816406 26.699219 24.820312 26.691406 24.824219 26.683594 C 24.828125 26.679688 24.835938 26.671875 24.839844 26.664062 C 24.84375 26.660156 24.851562 26.65625 24.859375 26.648438 C 24.859375 26.644531 24.859375 26.640625 24.859375 26.636719 C 24.859375 26.628906 24.859375 26.625 24.859375 26.621094 C 24.859375 26.613281 24.859375 26.605469 24.859375 26.601562 C 24.851562 26.59375 24.84375 26.585938 24.839844 26.582031 C 24.835938 26.578125 24.828125 26.574219 24.824219 26.566406 C 24.820312 26.5625 24.816406 26.554688 24.808594 26.546875 C 24.800781 26.546875 24.796875 26.546875 24.789062 26.546875 Z M 17.65625 25.945312 L 15.375 26.546875 C 15.371094 26.546875 15.363281 26.546875 15.355469 26.546875 C 15.351562 26.554688 15.347656 26.5625 15.34375 26.566406 C 15.335938 26.574219 15.332031 26.578125 15.328125 26.582031 C 15.320312 26.585938 15.3125 26.59375 15.308594 26.601562 C 15.308594 26.605469 15.308594 26.613281 15.308594 26.621094 C 15.308594 26.625 15.308594 26.628906 15.308594 26.636719 C 15.308594 26.640625 15.308594 26.644531 15.308594 26.648438 C 15.3125 26.65625 15.320312 26.660156 15.328125 26.664062 C 15.328125 26.671875 15.328125 26.679688 15.328125 26.683594 C 15.332031 26.683594 15.335938 26.683594 15.34375 26.683594 C 15.347656 26.691406 15.351562 26.699219 15.355469 26.703125 C 15.363281 26.703125 15.371094 26.703125 15.375 26.703125 C 15.382812 26.703125 15.390625 26.703125 15.394531 26.703125 C 15.402344 26.703125 15.40625 26.703125 15.410156 26.703125 L 17.574219 26.136719 Z M 22.6875 26.363281 L 22.757812 26.527344 C 23.351562 26.769531 23.9375 26.996094 24.5 27.160156 C 23.925781 26.867188 23.308594 26.613281 22.6875 26.363281 Z M 17.433594 26.441406 C 16.824219 26.683594 16.1875 26.914062 15.703125 27.226562 C 16.257812 27.039062 16.816406 26.8125 17.371094 26.578125 Z M 22.90625 26.851562 L 23.089844 27.25 L 24.3125 27.953125 C 24.328125 27.960938 24.34375 27.964844 24.363281 27.96875 C 24.402344 27.972656 24.4375 27.960938 24.464844 27.933594 C 24.472656 27.929688 24.480469 27.925781 24.484375 27.917969 C 24.492188 27.910156 24.496094 27.894531 24.5 27.882812 C 24.503906 27.867188 24.503906 27.851562 24.5 27.832031 C 24.503906 27.816406 24.503906 27.796875 24.5 27.78125 C 24.488281 27.757812 24.46875 27.742188 24.445312 27.730469 Z M 17.246094 26.859375 L 15.71875 27.730469 C 15.707031 27.742188 15.695312 27.75 15.683594 27.765625 C 15.675781 27.777344 15.667969 27.785156 15.664062 27.800781 C 15.65625 27.816406 15.652344 27.832031 15.648438 27.851562 C 15.652344 27.871094 15.65625 27.886719 15.664062 27.902344 C 15.675781 27.921875 15.695312 27.941406 15.71875 27.953125 C 15.730469 27.960938 15.742188 27.964844 15.753906 27.96875 C 15.769531 27.972656 15.785156 27.972656 15.800781 27.96875 C 15.820312 27.964844 15.835938 27.960938 15.851562 27.953125 L 17.066406 27.261719 Z M 23.316406 27.75 L 23.390625 27.90625 C 23.554688 28.019531 23.722656 28.125 23.886719 28.222656 C 23.703125 28.0625 23.511719 27.90625 23.316406 27.75 Z M 16.796875 27.859375 C 16.628906 27.996094 16.472656 28.132812 16.316406 28.273438 C 16.453125 28.191406 16.589844 28.101562 16.726562 28.011719 Z M 16.605469 28.710938 L 16.585938 28.730469 C 16.578125 28.738281 16.574219 28.75 16.570312 28.761719 C 16.570312 28.769531 16.570312 28.773438 16.570312 28.777344 C 16.570312 28.785156 16.570312 28.789062 16.570312 28.792969 C 16.570312 28.796875 16.570312 28.804688 16.570312 28.8125 C 16.574219 28.816406 16.578125 28.824219 16.585938 28.832031 C 16.589844 28.835938 16.597656 28.839844 16.605469 28.847656 C 16.609375 28.851562 16.617188 28.859375 16.625 28.863281 C 16.628906 28.867188 16.632812 28.867188 16.640625 28.863281 C 16.644531 28.867188 16.648438 28.867188 16.652344 28.863281 C 16.660156 28.867188 16.667969 28.867188 16.671875 28.863281 C 16.679688 28.859375 16.683594 28.851562 16.6875 28.847656 C 16.695312 28.847656 16.703125 28.847656 16.707031 28.847656 L 16.84375 28.710938 C 16.816406 28.710938 16.617188 28.710938 16.605469 28.710938 Z M 17.492188 28.710938 C 17.390625 28.851562 17.289062 28.996094 17.199219 29.136719 C 17.34375 29.019531 17.484375 28.871094 17.621094 28.710938 C 17.585938 28.710938 17.523438 28.710938 17.492188 28.710938 Z M 17.992188 28.710938 L 17.492188 29.574219 C 17.480469 29.589844 17.476562 29.609375 17.476562 29.625 C 17.472656 29.640625 17.472656 29.65625 17.476562 29.675781 C 17.480469 29.6875 17.484375 29.695312 17.492188 29.703125 C 17.503906 29.726562 17.523438 29.746094 17.542969 29.757812 C 17.5625 29.761719 17.578125 29.761719 17.59375 29.757812 C 17.617188 29.761719 17.640625 29.761719 17.660156 29.757812 C 17.667969 29.75 17.671875 29.746094 17.675781 29.742188 C 17.691406 29.734375 17.703125 29.71875 17.710938 29.703125 L 18.292969 28.710938 C 18.179688 28.710938 18.09375 28.710938 17.992188 28.710938 Z M 18.65625 28.710938 C 18.515625 29.0625 18.386719 29.410156 18.292969 29.757812 C 18.464844 29.421875 18.625 29.070312 18.78125 28.710938 C 18.726562 28.710938 18.707031 28.710938 18.65625 28.710938 Z M 19.105469 28.710938 L 18.753906 30.007812 C 18.753906 30.015625 18.753906 30.023438 18.753906 30.027344 C 18.753906 30.035156 18.753906 30.042969 18.753906 30.046875 C 18.753906 30.050781 18.753906 30.054688 18.753906 30.0625 C 18.757812 30.074219 18.765625 30.085938 18.773438 30.097656 C 18.777344 30.097656 18.78125 30.097656 18.789062 30.097656 C 18.796875 30.105469 18.808594 30.109375 18.820312 30.109375 C 18.828125 30.113281 18.832031 30.113281 18.835938 30.109375 C 18.84375 30.105469 18.851562 30.101562 18.855469 30.097656 C 18.863281 30.097656 18.867188 30.097656 18.871094 30.097656 C 18.878906 30.089844 18.886719 30.082031 18.890625 30.078125 C 18.890625 30.070312 18.890625 30.066406 18.890625 30.0625 C 18.898438 30.058594 18.902344 30.054688 18.90625 30.046875 L 19.265625 28.710938 C 19.191406 28.710938 19.179688 28.710938 19.105469 28.710938 Z M 19.613281 28.710938 C 19.558594 29.167969 19.511719 29.621094 19.488281 30.0625 C 19.601562 29.648438 19.675781 29.1875 19.730469 28.710938 C 19.671875 28.710938 19.671875 28.710938 19.613281 28.710938 Z M 19.945312 28.710938 L 19.945312 30.300781 C 19.945312 30.316406 19.953125 30.335938 19.964844 30.351562 C 19.96875 30.363281 19.976562 30.371094 19.980469 30.382812 C 20.003906 30.402344 20.035156 30.414062 20.066406 30.417969 C 20.082031 30.417969 20.101562 30.417969 20.117188 30.417969 C 20.132812 30.410156 20.140625 30.40625 20.148438 30.398438 C 20.171875 30.382812 20.195312 30.359375 20.203125 30.332031 C 20.210938 30.324219 20.21875 30.3125 20.222656 30.300781 L 20.222656 28.710938 C 20.082031 28.710938 20.082031 28.710938 19.945312 28.710938 Z M 20.492188 28.710938 C 20.546875 29.1875 20.605469 29.65625 20.746094 30.046875 C 20.714844 29.609375 20.664062 29.160156 20.605469 28.710938 C 20.550781 28.710938 20.546875 28.710938 20.492188 28.710938 Z M 20.902344 28.710938 L 21.261719 30.046875 C 21.257812 30.050781 21.257812 30.054688 21.261719 30.0625 C 21.265625 30.066406 21.269531 30.070312 21.273438 30.078125 C 21.28125 30.082031 21.289062 30.089844 21.292969 30.097656 C 21.304688 30.105469 21.316406 30.109375 21.328125 30.109375 C 21.335938 30.113281 21.339844 30.113281 21.34375 30.109375 C 21.347656 30.113281 21.355469 30.113281 21.363281 30.109375 C 21.367188 30.105469 21.375 30.101562 21.378906 30.097656 C 21.382812 30.089844 21.390625 30.082031 21.398438 30.078125 C 21.402344 30.070312 21.410156 30.066406 21.414062 30.0625 C 21.417969 30.054688 21.417969 30.050781 21.414062 30.046875 C 21.417969 30.042969 21.417969 30.035156 21.414062 30.027344 C 21.417969 30.023438 21.417969 30.015625 21.414062 30.007812 L 21.066406 28.710938 C 20.992188 28.710938 20.980469 28.710938 20.902344 28.710938 Z M 21.445312 28.710938 C 21.605469 29.058594 21.769531 29.398438 21.945312 29.722656 C 21.828125 29.386719 21.695312 29.050781 21.558594 28.710938 C 21.511719 28.710938 21.492188 28.710938 21.445312 28.710938 Z M 21.871094 28.710938 L 22.453125 29.703125 C 22.464844 29.71875 22.476562 29.734375 22.488281 29.742188 C 22.5 29.75 22.511719 29.753906 22.523438 29.757812 C 22.539062 29.761719 22.554688 29.761719 22.570312 29.757812 C 22.605469 29.757812 22.636719 29.746094 22.660156 29.722656 C 22.664062 29.71875 22.667969 29.710938 22.675781 29.703125 C 22.683594 29.695312 22.6875 29.6875 22.691406 29.675781 C 22.695312 29.652344 22.695312 29.628906 22.691406 29.605469 C 22.6875 29.59375 22.683594 29.582031 22.675781 29.574219 L 22.171875 28.710938 C 22.070312 28.710938 21.988281 28.710938 21.871094 28.710938 Z M 22.648438 28.710938 C 22.765625 28.84375 22.878906 28.972656 22.996094 29.097656 C 22.914062 28.96875 22.828125 28.839844 22.738281 28.710938 C 22.71875 28.710938 22.671875 28.710938 22.648438 28.710938 Z M 23.324219 28.710938 L 23.460938 28.847656 C 23.46875 28.847656 23.472656 28.847656 23.476562 28.847656 C 23.480469 28.851562 23.484375 28.859375 23.492188 28.863281 C 23.5 28.867188 23.503906 28.867188 23.511719 28.863281 C 23.515625 28.867188 23.519531 28.867188 23.527344 28.863281 C 23.53125 28.867188 23.539062 28.867188 23.546875 28.863281 C 23.550781 28.859375 23.558594 28.851562 23.566406 28.847656 C 23.570312 28.839844 23.574219 28.835938 23.578125 28.832031 C 23.585938 28.824219 23.589844 28.816406 23.59375 28.8125 C 23.59375 28.804688 23.59375 28.796875 23.59375 28.792969 C 23.59375 28.789062 23.59375 28.785156 23.59375 28.777344 C 23.59375 28.773438 23.59375 28.769531 23.59375 28.761719 C 23.589844 28.757812 23.585938 28.75 23.578125 28.746094 C 23.582031 28.738281 23.582031 28.734375 23.578125 28.730469 L 23.5625 28.710938 C 23.550781 28.710938 23.351562 28.710938 23.324219 28.710938 Z M 23.324219 28.710938 "/>
<path style="fill-rule:nonzero;fill:rgb(89.019608%,89.411765%,89.803922%);fill-opacity:1;stroke-width:0.7;stroke-linecap:butt;stroke-linejoin:miter;stroke:rgb(0%,0%,0%);stroke-opacity:1;stroke-miterlimit:4;" d="M 164.976649 383.155058 C 138.561127 383.155058 117.152679 404.583807 117.152679 430.972615 C 117.152679 457.393841 138.561127 478.855009 164.976649 478.855009 C 191.392171 478.855009 212.832716 457.393841 212.832716 430.972615 C 212.832716 404.583807 191.392171 383.155058 164.976649 383.155058 Z M 164.976649 390.643774 C 187.251707 390.643774 205.322106 408.70098 205.322106 430.972615 C 205.322106 453.24425 187.251707 471.366293 164.976649 471.366293 C 142.701592 471.366293 124.631192 453.24425 124.631192 430.972615 C 124.631192 408.70098 142.701592 390.643774 164.976649 390.643774 Z M 164.976649 390.643774 " transform="matrix(0.121703,0,0,0.120494,0,-26.472494)"/>
<path style="fill-rule:evenodd;fill:rgb(89.019608%,89.411765%,89.803922%);fill-opacity:1;stroke-width:0.7;stroke-linecap:butt;stroke-linejoin:miter;stroke:rgb(0%,0%,0%);stroke-opacity:1;stroke-miterlimit:4;" d="M 163.981654 390.578937 C 167.06293 389.087677 169.309694 388.27721 170.433075 387.0453 C 170.208399 385.618878 166.324708 384.030363 164.880359 383.057802 C 176.563531 374.077827 179.099164 385.197435 186.866547 388.471722 " transform="matrix(0.121703,0,0,0.120494,0,-26.472494)"/>
<path style=" stroke:none;fill-rule:evenodd;fill:rgb(0%,0%,0%);fill-opacity:1;" d="M 20.785156 19.699219 C 20.851562 19.632812 21.125 19.464844 21.242188 19.582031 C 21.550781 19.84375 21.007812 19.804688 20.785156 19.699219 Z M 20.785156 19.699219 "/>
<path style="fill:none;stroke-width:0.7;stroke-linecap:butt;stroke-linejoin:miter;stroke:rgb(0%,0%,0%);stroke-opacity:1;stroke-miterlimit:4;" d="M 164.880359 390.805867 L 195.179573 457.977377 C 195.179573 457.977377 135.255175 457.977377 134.837919 457.977377 Z M 164.880359 390.805867 " transform="matrix(0.121703,0,0,0.120494,0,-26.472494)"/>
<path style=" stroke:none;fill-rule:nonzero;fill:rgb(0%,0%,0%);fill-opacity:1;" d="M 0.792969 0.75 L 0.792969 48.625 C 0.871094 49.023438 0.980469 49.378906 1.191406 49.664062 C 1.398438 49.949219 1.707031 50.160156 2.152344 50.261719 L 17.6875 50.261719 C 18.769531 50.226562 19.269531 50.390625 19.53125 50.578125 C 19.789062 50.761719 19.816406 50.988281 19.984375 51.183594 L 20.097656 51.308594 L 20.183594 51.171875 C 20.3125 50.96875 20.332031 50.753906 20.589844 50.574219 C 20.847656 50.390625 21.367188 50.234375 22.472656 50.261719 L 38.011719 50.261719 L 38.03125 50.253906 C 38.796875 49.957031 39.242188 49.460938 39.367188 48.617188 L 39.371094 48.609375 L 39.371094 0.75 Z M 1.035156 0.992188 L 39.128906 0.992188 L 39.128906 48.585938 C 39.015625 49.351562 38.660156 49.742188 37.96875 50.019531 L 22.476562 50.019531 C 21.347656 49.992188 20.777344 50.148438 20.449219 50.375 C 20.226562 50.535156 20.136719 50.707031 20.070312 50.855469 C 19.992188 50.714844 19.894531 50.542969 19.671875 50.378906 C 19.347656 50.144531 18.789062 49.984375 17.679688 50.019531 L 2.195312 50.019531 C 1.804688 49.929688 1.5625 49.757812 1.386719 49.523438 C 1.214844 49.285156 1.113281 48.96875 1.035156 48.589844 Z M 1.035156 0.992188 "/>
<path style="fill:none;stroke-width:1.4;stroke-linecap:round;stroke-linejoin:miter;stroke:rgb(0%,0%,0%);stroke-opacity:1;stroke-miterlimit:4;" d="M 165.008746 5.185642 L 165.008746 225.729937 M 60.116977 81.401964 L 269.868418 149.546034 M 100.173565 204.690212 L 165.008746 115.473999 L 229.811831 26.257785 M 229.811831 204.690212 L 165.008746 115.473999 L 100.173565 26.257785 M 269.868418 81.401964 L 60.116977 149.546034 M 243.452896 115.473999 L 86.532499 115.473999 M 189.241697 40.846192 L 140.743698 190.101805 M 101.521623 69.342214 L 228.495869 161.573365 M 101.521623 161.573365 L 228.495869 69.342214 M 189.241697 190.101805 L 140.743698 40.846192 " transform="matrix(0.121703,0,0,0.120494,0,-26.472494)"/>
</g>
</svg>
