<svg xmlns:dc="http://purl.org/dc/elements/1.1/" xmlns:cc="http://creativecommons.org/ns#" xmlns:rdf="http://www.w3.org/1999/02/22-rdf-syntax-ns#" xmlns:svg="http://www.w3.org/2000/svg" xmlns="http://www.w3.org/2000/svg" xmlns:sodipodi="http://sodipodi.sourceforge.net/DTD/sodipodi-0.dtd" xmlns:inkscape="http://www.inkscape.org/namespaces/inkscape" version="1.1" sodipodi:docname="uos-crest.svg" inkscape:version="0.92.4 (5da689c313, 2019-01-14)" viewBox="77.8 47.77 1225.83 1229"><rect id="backgroundrect" width="100%" height="100%" x="0" y="0" fill="none" stroke="none" style="" class=""/>
  <metadata id="metadata1491">
    <rdf:RDF>
      <cc:Work rdf:about="">
        <dc:format>image/svg+xml</dc:format>
        <dc:type rdf:resource="http://purl.org/dc/dcmitype/StillImage"/>
        <dc:title/>
      </cc:Work>
    </rdf:RDF>
  </metadata>
  <sodipodi:namedview pagecolor="#ffffff" bordercolor="#111111" borderopacity="1" objecttolerance="10" gridtolerance="10" guidetolerance="10" inkscape:pageopacity="0" inkscape:pageshadow="2" inkscape:window-width="1920" inkscape:window-height="1017" id="namedview1489" showgrid="false" fit-margin-top="0" fit-margin-left="0" fit-margin-right="0" fit-margin-bottom="0" inkscape:zoom="0.27522617" inkscape:cx="320.33963" inkscape:cy="-16.240834" inkscape:window-x="1912" inkscape:window-y="-8" inkscape:window-maximized="1" inkscape:current-layer="Layer_1">
    <inkscape:grid type="xygrid" id="grid1504" originx="-1284.7461" originy="26.738165"/>
  </sodipodi:namedview>
  <defs id="defs1378">
    <style id="style1376">.cls-1{fill:#fff;}.cls-2{fill:#409;}</style>
  </defs>
  
  
  
  
  
  
  
  
  
  
  
  
  
  
  
  
  
  
  
  
  
  
  
  
  
  
  
  
  
  
  
  
  
  
  
  
  
  
  
  
  
  
  
  
  
  
  
  
  
  
  
  
  
  
<g class="currentLayer" style=""><title>Layer 1</title><rect fill="#ffffff" style="color: rgb(5, 55, 108);" stroke-dashoffset="" fill-rule="nonzero" id="svg_1" x="77.83330436991355" y="47.792793548559494" width="1225.7777876126165" height="1228.9699172678577" class="" fill-opacity="1" rx="200" ry="200" opacity="1"/><path class="cls-2" d="M695.1488840820313,144.44445037841797 C616.7323840820313,144.44445037841797 540.8885840820312,155.15881037841797 468.88298408203127,175.23755037841795 v192.60459 c0,42.85729 5.9054,82.46647 17.5903,117.68872 c10.8828,32.81789 27.0814,62.89388 48.172,89.34222 c36.4878,45.767830000000004 88.0346,82.08686 157.5088,111.10821 l3.0369,1.26554 l3.0372,-1.26554 c69.4746,-29.02135 121.0214,-65.38255 157.5088,-111.10821 c21.0914,-26.44834 37.2896,-56.48213 48.1724,-89.34222 c11.6849,-35.22225 17.591,-74.83143 17.591,-117.68872 V175.23755037841795 C849.4940840820312,155.15881037841797 773.6085840820313,144.44445037841797 695.1488840820313,144.44445037841797 z" id="path1380" inkscape:connector-curvature="0" style="fill:#440099;stroke-width:4.21823454"/><path class="cls-1" d="m587.4999840820312,473.67762037841794 v-7.3397 l-14.3846,10.46123 l-4.8083,-6.62268 h-0.049000000000000016 c-9.4485,9.6176 -17.8004,20.28972 -24.7612,31.76335 l-0.08600000000000003,0.12666999999999998 h0.1713 c13.0763,-3.12154 25.8151,-7.76152 37.8368,-13.79367 h0.08600000000000003 l-4.8091,-6.66481 l10.9257,-7.93024 z" id="path1382" inkscape:connector-curvature="0" style="fill:#ffffff;stroke-width:4.21823454"/><polygon class="cls-1" points="825.9565353393555,280.56688690185547 798.959831237793,304.6108169555664 797.5256271362305,313.7643814086914 765.7201461791992,336.8803024291992 775.8017501831055,336.8803024291992 801.0267868041992,318.5731735229492 810.1803512573242,320.00736236572266 841.3530807495117,301.7845993041992 827.1798629760742,299.54894256591797 837.4301681518555,292.12483978271484 833.9290084838867,287.31604766845703 823.7208786010742,294.74015045166016 " id="polygon1384" style="fill:#ffffff"/><path class="cls-1" d="m695.1909840820313,491.731730378418 v0 c-2.8682,0 -5.6938,-0.4219700000000001 -8.394,-1.22333 l-68.9258,50.07045 l-4.8094,-6.62261 h-0.048000000000000015 c-9.449,9.61755 -17.8004,20.28968 -24.7601,31.76324 l-0.08600000000000003,0.12666 h0.17140000000000005 c13.077,-3.1215 25.8158,-7.76159 37.8375,-13.7937 h0.08600000000000003 l-4.8083,-6.66478 l73.8608,-53.65593 z" id="path1386" inkscape:connector-curvature="0" style="fill:#ffffff;stroke-width:4.21823454"/><polygon class="cls-1" points="870.6698532104492,344.3465805053711 843.7153244018555,368.3905258178711 842.2389450073242,377.5440902709961 802.8406295776367,406.18590545654297 802.8406295776367,413.52562713623047 845.7400436401367,382.35289764404297 854.893669128418,383.78710174560547 886.1085739135742,365.56429290771484 871.9352951049805,363.3286361694336 882.143424987793,355.90453338623047 878.6422653198242,351.0957565307617 868.434196472168,358.51985931396484 " id="polygon1388" style="fill:#ffffff"/><path class="cls-1" d="M647.7781840820312,478.02244037841797 H637.6966840820312 l-42.2248,30.66654 l-4.8083,-6.62261 h-0.048000000000000015 c-9.4482,9.6176 -17.8004,20.28969 -24.7608,31.76328 l-0.08600000000000003,0.12666 h0.17140000000000005 c13.0763,-3.12153 25.8151,-7.76155 37.8375,-13.79358 h0.08600000000000003 l-4.8083,-6.66486 l48.8466,-35.47535 z" id="path1390" inkscape:connector-curvature="0" style="fill:#ffffff;stroke-width:4.21823454"/><polygon class="cls-1" points="848.3131637573242,312.4567337036133 821.316520690918,336.5006637573242 819.8822555541992,345.6542282104492 802.8406295776367,358.0558395385742 802.8406295776367,365.35338592529297 823.383415222168,350.46300506591797 832.536979675293,351.89720916748047 863.7097091674805,333.6744613647461 849.5786666870117,331.4387741088867 859.7867965698242,324.0147018432617 856.2856369018555,319.2059097290039 846.077507019043,326.62999725341797 " id="polygon1392" style="fill:#ffffff"/><path class="cls-1" d="m780.7794840820312,193.54474037841797 c0,0 -1.2234,-0.16916000000000006 -3.0794,-0.21074000000000007 v0 c-4.3448,-0.04250000000000002 -12.317,0.59055 -17.6331,5.82114 c-1.9819,1.94043 -2.6148000000000002,4.5979 -2.6148000000000002,7.12878 v0 c0,0.2528 0,0.4640100000000001 0,0.6749400000000004 c0,0.12661999999999998 0,0.2953000000000001 0,0.4219500000000001 v0.21075000000000005 c0,0 0.048000000000000015,0.4219500000000001 0.08600000000000003,0.5905900000000002 v0 c0.048000000000000015,0.5062099999999998 0.1266,0.97017 0.2086,1.43418 c-0.7600000000000002,-0.8436700000000003 -1.7297000000000002,-1.51857 -2.8689,-2.02477 c-8.8581,-3.6697900000000008 -18.6025,1.05455 -18.6025,1.05455 c0,0 2.2781000000000002,11.05179 12.3592,13.96238 c2.4472,0.7170900000000002 4.8515,0.3373700000000002 6.9183,-0.3373600000000002 l-2.1089,3.75422 c-2.7001,4.80887 -8.1413,7.38195 -13.5829,6.41174 c-6.9597,-1.26545 -11.6004,-8.01465 -10.3345,-14.97474 l-2.9106,-0.54835 l-2.9106,-0.5484 c-0.6329000000000002,3.37465 -2.531,6.32739 -5.357,8.26777 c-2.8265000000000002,1.94038 -6.2433,2.69966 -9.6174,2.06696 c-6.1174,-1.1389 -10.546,-6.45388 -10.546,-12.65473 v-8.0146 c1.7293,1.8981400000000004 4.1764,3.71202 7.34,3.71202 c9.6173,0 16.7882,-8.14119 16.7882,-8.14119 c0,0 -7.2133,-8.14123 -16.7882,-8.14123 c-1.1813,0 -2.236,0.2528100000000001 -3.206,0.6749400000000004 c1.8984,-1.8138400000000003 3.4165,-4.17608 3.4165,-7.00224 c0,-10.71435 -10.5036,-18.72895 -10.5036,-18.72895 c0,0 -10.5029,8.0146 -10.5029,18.72895 c0,2.86836 1.5185,5.1884 3.4162,7.00224 c-0.9701,-0.4219500000000001 -2.024,-0.6749400000000004 -3.2049,-0.6749400000000004 c-9.6177,0 -16.789,8.14123 -16.789,8.14123 c0,0 7.213,8.14119 16.789,8.14119 c3.1635,0 5.6096,-1.8138800000000002 7.3389,-3.71202 v8.0146 c0,6.20085 -4.4287,11.51583 -10.545,12.65473 c-3.3747,0.6327000000000004 -6.792,-0.12661999999999998 -9.6177,-2.06696 c-2.826,-1.94038 -4.7244,-4.89312 -5.3578,-8.26777 l-2.9102,0.5484 l-2.9102,0.54835 c1.2651,6.96009 -3.3335,13.6671 -10.3352,14.97474 c-5.4409,1.01236 -10.8829,-1.56072 -13.583,-6.41174 l-2.1082,-3.75422 c2.0248,0.6749400000000004 4.4708,1.0546 6.9169,0.3373600000000002 c10.0822,-2.86835 12.3603,-13.96238 12.3603,-13.96238 c0,0 -9.7448,-4.72434 -18.6021,-1.05455 c-1.1392,0.4640100000000001 -2.1097,1.1811 -2.8689,2.02477 c0.08600000000000003,-0.4640100000000001 0.1267,-0.9279700000000002 0.2086,-1.3919800000000002 v0 c0,-0.21074000000000007 0,-0.4219500000000001 0.048000000000000015,-0.6327900000000004 v-0.21075000000000005 c0,0 0,-0.2953000000000001 0,-0.4219500000000001 c0,-0.21075000000000005 0,-0.4640100000000001 0,-0.6749400000000004 v0 c0,-2.57308 -0.6325000000000002,-5.18835 -2.6148000000000002,-7.12878 c-5.3566,-5.23059 -13.2875,-5.86338 -17.6324,-5.77895 v0 c-1.8980000000000001,0 -3.0793,0.16869000000000006 -3.0793,0.16869000000000006 c0,0 -0.2571,2.10911 -0.08600000000000003,5.06185 c5.2725,5.65246 9.9966,11.64238 14.173,17.96972 c5.7795,8.73169 10.5457,18.09617 14.1731,27.88247 l11.4316,6.58049 l-6.2433,10.840770000000001 c1.0125,4.47141 1.7717,9.06926 2.3626,13.66715 h0.257 c16.1557,3.33243 32.6917,5.01971 49.4796,5.01971 h0.17140000000000005 c16.7886,0 33.3235,-1.6872800000000003 49.4799,-4.9775 h0.257 c0.548,-4.68227 1.3494000000000004,-9.23795 2.3615,-13.70936 l-6.2429,-10.840770000000001 l11.4316,-6.58049 c3.6281,-9.7863 8.3526,-19.15078 14.173,-27.88247 c4.1761,-6.32734 8.9427,-12.31726 14.1731,-17.96972 c0.17140000000000005,-2.99493 -0.08600000000000003,-5.06185 -0.08600000000000003,-5.06185 zm-57.1154,45.93658 c4.0919,0 7.4242,3.33236 7.4242,7.42408 c0,4.0916500000000005 -3.3323,7.42412 -7.4242,7.42412 c-4.0915,0 -7.4235,-3.3324700000000003 -7.4235,-7.42412 c0,-4.0917200000000005 3.332,-7.42408 7.4235,-7.42408 zM695.1488840820313,231.76195037841796 L705.6524840820313,242.26533037841796 L695.1488840820313,252.76875037841796 L684.6456840820313,242.26533037841796 zm-28.557,7.71937 c4.0916,0 7.4239,3.33236 7.4239,7.42408 c0,4.0916500000000005 -3.3323,7.42412 -7.4239,7.42412 c-4.0919,0 -7.4246,-3.3324700000000003 -7.4246,-7.42412 c0,-4.0917200000000005 3.3327,-7.42408 7.4246,-7.42408 zm73.0174,31.13053 c-14.5527,2.6996800000000007 -29.4007,4.09173 -44.4183,4.09173 c-15.0161,0 -29.8649,-1.3498400000000004 -44.418,-4.04956 c-0.1266,-0.8436000000000002 -0.257,-1.64511 -0.3777000000000001,-2.44658 c14.6786,-2.7418400000000007 29.6119,-4.13389 44.7972,-4.13389 c15.1856,0 30.1603,1.39205 44.84,4.13389 c-0.1267,0.80147 -0.257,1.6451500000000001 -0.3781000000000001,2.44658 z" id="path1394" inkscape:connector-curvature="0" style="fill:#ffffff;stroke-width:4.21823454"/><polygon class="cls-1" points="811.572380065918,255.42620086669922 815.0734786987305,260.23499298095703 804.8231735229492,267.6590805053711 818.996452331543,269.89473724365234 787.8237228393555,288.1175308227539 778.6279220581055,286.6833267211914 695.191276550293,347.34154510498047 611.7124557495117,286.6833267211914 602.5588302612305,288.1175308227539 571.3438949584961,269.89473724365234 585.5171737670898,267.6590805053711 575.3090438842773,260.23499298095703 578.7679977416992,255.42620086669922 589.0183029174805,262.8502883911133 586.7826461791992,248.6770248413086 613.737174987793,272.72095489501953 615.2135543823242,281.8745346069336 695.191276550293,340.00182342529297 775.1689987182617,281.8745346069336 776.6032028198242,272.72095489501953 803.5999069213867,248.6770248413086 801.3642501831055,262.8502883911133 " id="polygon1396" style="fill:#ffffff"/><path class="cls-1" d="m787.9082840820313,353.71107037841796 l0.1267,109.46322 h-77.7419 l-0.5491,2.27778 c-1.6451000000000002,6.74924 -7.5922,11.43143 -14.553,11.43143 c-6.9597,0 -12.9076,-4.68219 -14.5523,-11.43143 l-0.5488000000000002,-2.27778 H602.3476840820313 l0.1267,-109.46322 h-6.0325 v115.41091 h79.1344 c2.9948,8.18337 10.7569,13.70917 19.6147,13.70917 c8.8585,0 16.6627,-5.5258 19.615,-13.70917 h79.1344 V353.71107037841796 z" id="path1398" inkscape:connector-curvature="0" style="fill:#ffffff;stroke-width:4.21823454"/><path class="cls-1" d="m846.9209840820313,501.93982037841795 c-6.9597,-11.47363 -15.3115,-22.14575 -24.7604,-31.72114 h-0.048000000000000015 l-4.8094,6.58047 l-14.3843,-10.46123 v7.3397 l10.925,7.93031 l-4.8083,6.62257 h0.08600000000000003 c12.0224,6.07435 24.7608,10.71434 37.8375,13.79367 h0.1713 l-0.08600000000000003,-0.08460000000000004 z" id="path1400" inkscape:connector-curvature="0" style="fill:#ffffff;stroke-width:4.21823454"/><polygon class="cls-1" points="564.3838119506836,280.56688690185547 566.6616744995117,294.74015045166016 556.4113693237305,287.31604766845703 552.9524154663086,292.12483978271484 563.1605453491211,299.54894256591797 548.9872665405273,301.7845993041992 580.2022018432617,320.00736236572266 589.3557662963867,318.5731735229492 614.5386276245117,336.8803024291992 624.6624069213867,336.8803024291992 592.8147201538086,313.7643814086914 591.3805160522461,304.6108169555664 " id="polygon1402" style="fill:#ffffff"/><polygon class="cls-1" points="544.3050155639648,326.62999725341797 534.0547103881836,319.2059097290039 530.5957565307617,324.0147018432617 540.8038864135742,331.4387741088867 526.6306076049805,333.6744613647461 557.8033676147461,351.89720916748047 566.999137878418,350.46300506591797 587.4997482299805,365.35338592529297 587.4997482299805,358.0558395385742 570.4580612182617,345.6542282104492 569.0238876342773,336.5006637573242 542.0271835327148,312.4567337036133 " id="polygon1404" style="fill:#ffffff"/><path class="cls-1" d="m824.5223840820313,533.8296503784179 c-6.96,-11.47359 -15.3122,-22.14568 -24.7612,-31.72107 h-0.048000000000000015 l-4.8087,6.5804 l-42.2244,-30.66654 h-10.0816 l48.8478,35.47532 l-4.8094,6.62265 h0.08600000000000003 c12.0216,6.07423 24.7608,10.71429 37.8382,13.79362 h0.17140000000000005 l-0.08600000000000003,-0.08420000000000004 z" id="path1406" inkscape:connector-curvature="0" style="fill:#ffffff;stroke-width:4.21823454"/><polygon class="cls-1" points="521.9061813354492,358.51985931396484 511.69808197021484,351.0957565307617 508.1969223022461,355.90453338623047 518.4472579956055,363.3286361694336 504.2739791870117,365.56429290771484 535.4467391967773,383.78710174560547 544.6424789428711,382.35289764404297 587.4997482299805,413.52562713623047 587.4997482299805,406.18590545654297 548.101432800293,377.5440902709961 546.6672286987305,368.3905258178711 519.670524597168,344.3465805053711 " id="polygon1408" style="fill:#ffffff"/><path class="cls-1" d="m777.4046840820313,533.998370378418 h-0.048000000000000015 l-4.8087,6.58048 l-68.9258,-50.07045 c-2.6998,0.80147 -5.5679,1.22333 -8.3947,1.22333 v0 l73.8615,53.65589 l-4.809,6.62261 h0.08600000000000003 c12.022,6.07428 24.7612,10.71437 37.8375,13.79366 h0.17140000000000005 l-0.08600000000000003,-0.08460000000000004 c-6.9597,-11.47363 -15.3123,-22.14568 -24.7612,-31.72115 z" id="path1410" inkscape:connector-curvature="0" style="fill:#ffffff;stroke-width:4.21823454"/><path class="cls-1" d="m587.4999840820312,425.547630378418 v-7.33981 l-36.7408,26.70147 l-4.8086,-6.62261 h-0.048000000000000015 c-9.4489,9.61756 -17.8004,20.28972 -24.7612,31.76324 l-0.08600000000000003,0.12666 h0.1713 c13.0756,-3.12146 25.8151,-7.76148 37.8368,-13.79355 h0.08600000000000003 l-4.8091,-6.66481 l33.2822,-24.17048 z" id="path1412" inkscape:connector-curvature="0" style="fill:#ffffff;stroke-width:4.21823454"/><path class="cls-1" d="m869.2774840820313,470.09217037841796 c-6.9597,-11.47363 -15.3115,-22.1458 -24.7601,-31.72115 h-0.048000000000000015 l-4.809,6.58048 l-36.7412,-26.70147 v7.33969 l33.2822,24.17048 l-4.8091,6.62269 h0.08600000000000003 c12.0217,6.07427 24.7605,10.71429 37.8368,13.79358 h0.17140000000000005 l-0.08600000000000003,-0.08420000000000004 z" id="path1414" inkscape:connector-curvature="0" style="fill:#ffffff;stroke-width:4.21823454"/><path class="cls-1" d="m735.2647840820313,613.048110378418 c0.9276000000000002,-2.8684000000000003 3.7116000000000002,-11.38925 4.6403,-14.25765 c1.6447000000000005,-5.10401 -1.1392,-10.62992 -6.2433,-12.27503 l-13.457,-2.44661 l9.449300000000001,-9.91287 c3.1635,-4.34471 2.1935000000000002,-10.46119 -2.1507,-13.62479 c-2.4468,-1.77169 -9.7026,-7.04454 -12.149000000000001,-8.8162 c-1.7293,-1.26542 -3.7541,-1.8560400000000001 -5.7367,-1.8560400000000001 c-2.9952,0 -5.99,1.39205 -7.8888,4.00743 l-6.4955,12.06409 l-6.4966,-12.06409 c-1.8977000000000004,-2.61538 -4.8928,-4.00743 -7.8876,-4.00743 c-1.9823,0 -4.007,0.5906200000000003 -5.7363,1.8560400000000001 c-2.4472,1.77166 -9.7027,7.04451 -12.1483,8.8162 c-4.3456,3.1636 -5.3153,9.28008 -2.1514,13.62479 l9.4482,9.91287 l-13.4559,2.44661 c-5.1038,1.64511 -7.9305,7.17102 -6.2437000000000005,12.27503 c0.9291,2.8684000000000003 3.7123,11.38925 4.6406,14.25765 c1.3501,4.13394 5.1459,6.74916 9.2802,6.74916 c1.0118,0 2.0244,-0.16913000000000006 2.9948,-0.46403 l12.3175,-5.94769 l-1.8142,13.58274 c0,5.39928 4.3452,9.74406 9.7443,9.74406 h14.9751 c5.3988000000000005,0 9.7437,-4.34478 9.7437,-9.74406 l-1.8139,-13.58274 l12.3175,5.94769 c1.0118,0.3375200000000002 2.0247,0.46403 2.9948,0.46403 c4.0915,0 7.9301,-2.61522 9.2805,-6.74916 zm-30.4982,-9.19577 c-0.3353000000000002,0 -0.7171000000000002,0 -1.0543,0 c-1.6876000000000004,6.66489 -8.4789,13.3718 -8.4789,13.3718 c0,0 -6.7912,-6.66478 -8.4788,-13.3718 c-0.3353000000000002,0 -0.7172000000000002,0 -1.0547,0 c-6.6642,0 -14.2572,-3.96514 -14.2572,-3.96514 c0,0 4.2603,-8.52085 10.0819,-12.19069 c-2.5739,-6.41171 -1.0129,-15.77617 -1.0129,-15.77617 c0,0 9.4068,1.43418 14.7217,5.8211 c5.2733,-4.42913 14.7222,-5.8211 14.7222,-5.8211 c0,0 1.5602,9.40663 -1.0125,15.77617 c5.8208,3.66984 10.0815,12.19069 10.0815,12.19069 c0,0 -7.6351,3.96514 -14.258,3.96514 z" id="path1416" inkscape:connector-curvature="0" style="fill:#ffffff;stroke-width:4.21823454"/><circle class="cls-1" cx="695.2334518432617" cy="592.1679611206055" r="6.411712646484375" id="circle1418" style="fill:#ffffff;stroke-width:4.21823454"/><path class="cls-1" d="m654.7810840820313,580.230270378418 l0.4206000000000001,-0.12666999999999998 l0.4202,-0.08460000000000004 l1.4343000000000001,-0.25258 l-1.0122,-1.0546 l-0.2980000000000001,-0.3375200000000002 l-0.2571,-0.3794300000000001 c-1.5184,-2.10913 -2.4885,-4.47137 -2.9106,-6.96008 c-4.7248,1.18104 -8.6051,3.16367 -8.816,3.29022 l-1.2655,0.6749500000000004 l0.6326000000000004,1.30763 c0.1266,0.2954200000000001 2.1093,4.176 5.2307,7.8459 c1.7722,-1.7294900000000002 3.9228,-3.12153 6.4542,-3.9229700000000003 z" id="path1420" inkscape:connector-curvature="0" style="fill:#ffffff;stroke-width:4.21823454"/><path class="cls-1" d="m694.0524840820312,549.985510378418 l0.2533,0.3794300000000001 l0.20870000000000005,0.3794600000000002 l0.6754000000000002,1.26542 l0.6746000000000004,-1.26542 l0.2086,-0.3794600000000002 l0.2534,-0.3794300000000001 c1.5188000000000001,-2.06689 3.5018000000000002,-3.7541700000000002 5.7374,-4.89316 c-2.5735,-4.09168 -5.6525,-7.17101 -5.8637,-7.3819 l-1.0126,-1.01236 l-1.0122,1.01236 c-0.2086,0.21085 -3.2898,3.29022 -5.8633,7.3819 c2.2356,1.13899 4.2186,2.82627 5.7374,4.89316 z" id="path1422" inkscape:connector-curvature="0" style="fill:#ffffff;stroke-width:4.21823454"/><path class="cls-1" d="m746.6959840820313,574.366880378418 c-0.2086,-0.12666 -4.1347,-2.1091 -8.8588,-3.29014 c-0.3778000000000002,2.44646 -1.3494000000000004,4.85091 -2.9103,6.96008 l-0.257,0.3794300000000001 l-0.2981000000000001,0.3375200000000002 l-1.0125,1.0546 l1.4346,0.25295 l0.4206000000000001,0.08460000000000004 l0.4206000000000001,0.12666 c2.5306,0.80143 4.6824,2.19351 6.4534,3.9229700000000003 c3.1215,-3.71212 5.062,-7.59284 5.2308,-7.8459 l0.6329000000000002,-1.3077100000000002 z" id="path1424" inkscape:connector-curvature="0" style="fill:#ffffff;stroke-width:4.21823454"/><path class="cls-1" d="m725.9841840820312,626.377710378418 c-1.7293,0 -3.4161,-0.25258 -5.0616,-0.80147 l-0.4206000000000001,-0.12666 l-0.3781000000000001,-0.21086000000000005 l-1.3083,-0.6327500000000003 l0.2086,1.43422 v0.8857800000000002 c0.048000000000000015,2.65754 -0.5901000000000002,5.1462900000000005 -1.6868000000000005,7.33977 c4.4715,1.81383 8.7743,2.48879 9.0697,2.53092 l1.4339,0.21085 l0.2533,-1.43418 c0.048000000000000015,-0.2954200000000001 0.7599000000000002,-4.59785 0.3781000000000001,-9.40663 c-0.8009000000000002,0.12666999999999998 -1.6447000000000005,0.21086000000000005 -2.4885,0.21086000000000005 z" id="path1426" inkscape:connector-curvature="0" style="fill:#ffffff;stroke-width:4.21823454"/><path class="cls-1" d="m671.3580840820313,626.926080378418 v-0.8857800000000002 l0.2571,-1.43421 l-1.3072,0.6327400000000004 l-0.3830000000000001,0.21011000000000005 l-0.4206000000000001,0.12666 c-1.6447000000000005,0.54834 -3.3316,0.80151 -5.0612,0.80151 c-0.8438000000000002,0 -1.6452,-0.08460000000000004 -2.4889,-0.21085 c-0.3353000000000002,4.8087800000000005 0.3352000000000001,9.11132 0.3781000000000001,9.40663 l0.257,1.43414 l1.4339,-0.21086000000000005 c0.2980000000000001,-0.04250000000000002 4.5974,-0.7170900000000002 9.069,-2.53092 c-1.0968,-2.19344 -1.7297000000000002,-4.72436 -1.7297000000000002,-7.33973 z" id="path1428" inkscape:connector-curvature="0" style="fill:#ffffff;stroke-width:4.21823454"/><path class="cls-1" d="m680.5957840820313,394.206100378418 c-1.2655,0 -2.066,1.6029300000000002 -2.1927,4.55575 h2.404 c1.3076,0 1.6447000000000005,-0.3794300000000001 1.6447000000000005,-1.72953 c0,-1.7294800000000001 -0.7167000000000002,-2.82622 -1.8973,-2.82622 z" id="path1430" inkscape:connector-curvature="0" style="fill:#ffffff;stroke-width:4.21823454"/><path class="cls-1" d="m622.1735840820313,389.48170037841794 h-0.8434 c-0.048000000000000015,2.48875 -0.048000000000000015,4.9775 -0.048000000000000015,7.55062 v1.01236 c0,2.65747 0,5.18847 0.048000000000000015,7.67718 h0.8009000000000002 c3.4594,0 5.4837,-3.03708 5.4837,-8.14113 c0,-5.10409 -1.9822,-8.14124 -5.4837,-8.14124 z" id="path1432" inkscape:connector-curvature="0" style="fill:#ffffff;stroke-width:4.21823454"/><path class="cls-1" d="m672.7923840820313,342.82806037841794 h-64.4122 v108.70384 h64.4122 c7.8034,0 14.7635,3.54332 19.4462,9.06922 v-98.3271 c0,-10.71429 -8.7314,-19.44596 -19.4462,-19.44596 zm-33.8302,42.14013 c1.6027,0 2.8261000000000003,1.13891 2.8261000000000003,2.6996800000000007 c0,1.5607600000000001 -1.2234,2.6575 -2.8261000000000003,2.6575 c-1.6026000000000002,0 -2.826,-1.13898 -2.826,-2.6575 c0,-1.51856 1.2234,-2.6996800000000007 2.826,-2.6996800000000007 zm-16.8311,23.07377 h-8.8577 v-2.06696 l2.3201,-0.25295 c0.049000000000000016,-2.44647 0.049000000000000016,-4.93529 0.049000000000000016,-7.55059 v-1.05461 c0,-2.44658 0,-4.9775 -0.049000000000000016,-7.46628 l-2.3201,-0.25295 v-2.06697 h9.4065 c6.6225000000000005,0 10.7561,3.96521 10.7561,10.33468 c0,6.36951 -4.3444,10.41907 -11.3049,10.41907 zm21.1335,0 h-8.6473 v-1.85607 l1.6869,-0.3794300000000001 c0,-1.43429 0,-3.29025 0,-4.47141 v-1.47635 c0,-1.64507 0,-2.57309 -0.08600000000000003,-3.7120800000000003 l-1.9402,-0.2954100000000001 v-1.5607700000000002 l6.7496,-2.15131 l0.7160000000000002,0.46403 l-0.08600000000000003,4.59788 v4.09166 c0,1.22332 0,3.07936 0,4.55567 l1.561,0.2954200000000001 v1.8559700000000001 zm6.3692,0.46403 c-2.024,0 -3.8382,-0.46403 -5.4833,-1.43418 l-0.1267,-0.08420000000000004 l0.08600000000000003,-4.1339 h2.8685 l0.548,3.12158 c0.7175,0.25295 1.3922,0.3794200000000002 2.1093,0.3794200000000002 c1.6876000000000004,0 2.5314,-0.54833 2.5314,-1.6029 c0,-0.80143 -0.4206000000000001,-1.39201 -2.4472,-1.98259 l-1.6868000000000005,-0.50612 c-2.5314,-0.7593400000000002 -3.8811,-2.40445 -3.8811,-4.80885 c0,-3.16367 2.6998,-5.27277 6.6646,-5.27277 c1.6880000000000004,0 3.164,0.3794200000000002 4.9778,1.30766 l0.1267,0.08460000000000004 l-0.2533,3.712 h-2.8682 l-0.6322000000000002,-2.699640000000001 c-0.4205000000000001,-0.12666 -0.8866000000000004,-0.21085 -1.5191,-0.21085 c-0.6322000000000002,0 -2.109,0.12666 -2.109,1.51856 c0,0.5905400000000002 0.17140000000000005,1.1810800000000001 2.4465,1.85603 l1.5188000000000001,0.4219400000000001 c2.9102,0.8436400000000004 4.2607,2.44661 4.2607,5.0197 c0,3.33239 -2.6998,5.35719 -7.2138,5.35719 zm22.526,-11.5158 c-0.3781000000000001,1.22333 -1.0967,1.7717 -2.3201,1.7717 c-0.8855000000000002,0 -2.4044,-0.4219700000000001 -2.5731,-3.12158 l-0.2086,-1.3498 c0,0 -0.2571,0 -0.3778000000000002,0 c-1.6034000000000002,0 -3.5014,1.4764300000000001 -3.5014,5.61021 c0,3.3324700000000003 1.518,5.3150200000000005 4.0919,5.3150200000000005 c1.2651,0 2.3198,-0.5061599999999998 3.2902,-1.64508 l0.1267,-0.16913000000000006 l1.3925,1.22329 l-0.08600000000000003,0.16913000000000006 c-1.2234,2.48875 -3.4596999999999998,3.83856 -6.5391,3.83856 c-5.4837,0 -7.9297,-4.04948 -7.9297,-8.09896 c0,-4.85103 3.5007,-8.22559 8.5627,-8.22559 c3.2481,0 5.7366,1.9825499999999998 5.9902999999999995,4.72444 v0 v0.08460000000000004 zm10.2082,8.14117 c1.3918000000000001,0 2.531,-0.50613 3.5853,-1.6029 l0.1713,-0.16913000000000006 l1.3490000000000002,1.26549 l-0.08600000000000003,0.16913000000000006 c-1.2651,2.48875 -3.5432,3.71204 -6.6646,3.71204 c-4.8087,0 -7.9302,-3.20587 -7.9302,-8.1412 c0,-5.35719 4.0919,-8.18338 8.1406,-8.18338 c4.0498,0 6.6233,2.65747 6.6233,6.7492 c0,0.6327100000000002 -0.048000000000000015,1.13887 -0.2086,1.6872800000000003 v0.16913000000000006 h-8.8998 c0.2533,2.74181 1.6447000000000005,4.30258 3.922,4.30258 z" id="path1434" inkscape:connector-curvature="0" style="fill:#ffffff;stroke-width:4.21823454"/><path class="cls-1" d="m715.3543840820313,389.48170037841794 h-0.8438000000000002 c-0.048000000000000015,2.48875 -0.048000000000000015,4.9775 -0.048000000000000015,7.55062 v1.01236 c0,2.65747 0,5.18847 0.048000000000000015,7.67718 h0.802 c3.4586,0 5.4834,-3.03708 5.4834,-8.14113 c0,-5.10409 -1.983,-8.14124 -5.4834,-8.14124 z" id="path1436" inkscape:connector-curvature="0" style="fill:#ffffff;stroke-width:4.21823454"/><path class="cls-1" d="m735.7710840820313,394.206100378418 c-1.6455000000000002,0 -2.4047,1.94038 -2.4047,6.11648 c0,5.44149 1.3914,6.07424 2.4047,6.07424 c1.6026000000000002,0 2.3615,-1.94038 2.3615,-6.07424 c0,-4.13386 -0.7589000000000002,-6.11648 -2.3615,-6.11648 z" id="path1438" inkscape:connector-curvature="0" style="fill:#ffffff;stroke-width:4.21823454"/><path class="cls-1" d="m717.5898840820313,342.82806037841794 c-10.7137,0 -19.4458,8.73167 -19.4458,19.44596 v98.3271 c4.6402,-5.5259 11.6424,-9.06922 19.4458,-9.06922 h64.4123 V342.82806037841794 zm-2.2773,65.17166 h-8.8588 v-2.06697 l2.3201,-0.25295 c0.049000000000000016,-2.44658 0.049000000000000016,-4.93536 0.049000000000000016,-7.55062 v-1.05461 c0,-2.44654 0,-4.97746 -0.049000000000000016,-7.46625 l-2.3201,-0.25295 v-2.06697 h9.4068 c6.6233,0 10.7562,3.96522 10.7562,10.33476 c0,6.36955 -4.3445,10.41907 -11.3042,10.41907 zm20.4585,0.46403 c-4.8936,0 -8.0572,-3.24801 -8.0572,-8.22555 c0,-4.68219 3.3744,-8.099 8.0572,-8.099 c4.6816,0 8.056,3.33243 8.056,8.099 c0,4.76665 -3.1628,8.22555 -8.056,8.22555 zm23.5378,-11.51569 c-0.3830000000000001,1.22329 -1.0971,1.77162 -2.3205,1.77162 c-0.8855000000000002,0 -2.4044,-0.42193 -2.5731,-3.1215 l-0.2086,-1.3498400000000004 c0,0 -0.2571,0 -0.3826000000000001,0 c-1.6027,0 -3.5011,1.47639 -3.5011,5.61025 c0,3.33239 1.5188000000000001,5.31498 4.0923,5.31498 c1.2651,0 2.3194,-0.50624 3.2895,-1.64511 l0.1266,-0.16913000000000006 l1.3505,1.22336 l-0.08600000000000003,0.1687600000000001 c-1.2234,2.48882 -3.4594,3.83855 -6.538,3.83855 c-5.4841,0 -7.9305,-4.04944 -7.9305,-8.09892 c0,-4.85103 3.5011,-8.22559 8.5631,-8.22559 c3.2477,0 5.7795,1.98259 5.9896,4.72444 v0 v0.08460000000000004 zm10.207,8.14116 c1.3926,0 2.5318,-0.50619 3.5864000000000003,-1.6029300000000002 l0.17140000000000005,-0.16913000000000006 l1.3501,1.26549 l-0.08600000000000003,0.16913000000000006 c-1.2652,2.48879 -3.5432,3.712 -6.6647,3.712 c-4.809,0 -7.9301,-3.20583 -7.9301,-8.14109 c0,-5.35722 4.0919,-8.18345 8.1406,-8.18345 c4.0502,0 6.6233,2.65747 6.6233,6.74923 c0,0.6327200000000004 -0.048000000000000015,1.13888 -0.2086,1.68721 v0.16913000000000006 h-8.9006 c0.2571,2.74181 1.6451000000000002,4.30258 3.9228,4.30258 z" id="path1440" inkscape:connector-curvature="0" style="fill:#ffffff;stroke-width:4.21823454"/><path class="cls-1" d="m767.7448840820313,394.206100378418 c-1.2659,0 -2.0668,1.6029300000000002 -2.1931,4.55575 h2.404 c1.3076,0 1.6455000000000002,-0.3794300000000001 1.6455000000000002,-1.72953 c0,-1.7294800000000001 -0.7175,-2.82622 -1.8985,-2.82622 z" id="path1442" inkscape:connector-curvature="0" style="fill:#ffffff;stroke-width:4.21823454"/><path class="cls-2" d="m817.3823840820312,939.591560378418 c11.141,0 19.8878,-7.94839 19.8878,-18.82339 c0,-10.87505 -8.7468,-19.08946 -19.8878,-19.08946 c-11.1413,0 -20.1537,7.68232 -20.1537,19.08946 c0,11.4071 8.7468,18.82339 20.1537,18.82339 z" id="path1444" inkscape:connector-curvature="0" style="fill:#440099;stroke-width:3.32568693"/><path class="cls-2" d="m270.8387840820312,735.9264603784179 h42.7017 v8.34751 l-15.1316,1.79584 v58.3658 c0,37.54705 -17.7922,52.5126 -44.6638,52.5126 c-26.8716,0 -44.298,-13.7018 -44.298,-47.52403 v-19.38875 c0,-14.59979 0,-29.53213 -0.3651000000000001,-44.29818 L195.21368408203125,744.307240378418 v-8.347480000000001 h54.1094 v8.347480000000001 l-16.362,1.79583 c-0.3651000000000001,14.40023 -0.3651000000000001,29.19958 -0.3651000000000001,43.96555 v13.86817 c0,28.99993 9.9768,38.61123 27.4039,38.61123 c17.4264,0 28.1021,-11.04127 28.1021,-40.40714 v-55.90481 l-17.2606,-1.9621 z" id="path1446" inkscape:connector-curvature="0" style="fill:#440099;stroke-width:3.32568693"/><path class="cls-2" d="m315.7026840820313,846.605320378418 l11.5735,-2.3280000000000003 c0.1639000000000001,-8.71323 0.1639000000000001,-20.12036 0.1639000000000001,-27.76945 v-9.44492 c0,-9.77756 -0.1639000000000001,-14.23396 -0.532,-21.35096 l-12.4713,-1.59631 v-6.75113 l29.7312,-11.20757 l2.8607,1.79587 l1.2305,13.70184 c9.079,-10.30965 19.3885,-15.49771 30.2635,-15.49771 c15.4978,0 24.2113,9.777519999999999 24.2113,31.86006 v18.49083 c0,8.01492 0,19.22248 0.16400000000000006,27.93579 l10.8418,2.1284 v7.28329 h-43.9657 v-7.28329 l11.3742,-2.32797 c0.1639000000000001,-8.71326 0.1639000000000001,-19.75457 0.1639000000000001,-27.76945 v-16.89448 c0,-13.86817 -3.5584,-18.49087 -12.4709,-18.49087 c-6.2195,0 -12.804,2.86009 -19.9213,8.71331 v26.70527 c0,7.8153500000000005 0,19.05622 0.16400000000000006,27.93579 l10.5088,2.1284 v7.28329 h-43.9657 v-7.28329 z" id="path1448" inkscape:connector-curvature="0" style="fill:#440099;stroke-width:3.32568693"/><path class="cls-2" d="m422.78978408203125,846.605320378418 l11.7396,-2.3280000000000003 c0.1639000000000001,-8.71323 0.1639000000000001,-20.12036 0.1639000000000001,-27.76945 v-8.347480000000001 c0,-9.777519999999999 -0.1639000000000001,-15.2981 -0.5323,-22.41513 l-12.6378,-1.59627 v-6.75121 l32.0263,-11.20757 l2.8600000000000003,1.79587 l-0.532,25.07567 v23.47939 c0,7.64909 0,19.05618 0.1639000000000001,27.93579 l10.8418,2.12839 v7.2833 h-44.1322 v-7.2833 z" id="path1450" inkscape:connector-curvature="0" style="fill:#440099;stroke-width:3.32568693"/><path class="cls-2" d="m524.5223840820313,768.651210378418 h33.8224 v7.48282 l-9.9772,2.1284 l-29.1992,76.35781 h-10.5096 l-32.2256,-76.8899 l-9.2452,-1.59631 v-7.48282 h46.7917 v7.48282 l-13.7014,2.1284 l19.5882,51.61471 l17.6261,-51.41514 l-13.0033,-2.32797 v-7.48282 z" id="path1452" inkscape:connector-curvature="0" style="fill:#440099;stroke-width:3.32568693"/><path class="cls-2" d="m559.7085840820312,811.7188703784179 c0,-28.46788 20.8183,-45.56189 43.2337,-45.56189 c20.9852,0 34.8863,14.23392 34.8863,35.78441 c0,4.09057 -0.3651000000000001,7.11696 -1.0643,9.77748 h-54.4414 c0.8978000000000004,20.453 11.74,30.59636 26.7051,30.59636 c10.5092,0 17.2606,-4.6227 23.147,-11.20757 l5.1544,4.62269 c-6.9504,13.16971 -19.0559,20.652540000000002 -35.5844,20.652540000000002 c-24.9095,0 -42.004,-16.72823 -42.004,-44.66402 zm22.7805,-8.34747 h24.3775 c8.547,0 10.6757,-3.72478 10.6757,-10.14332 c0,-10.84174 -7.1173,-18.49083 -15.8305,-18.49083 c-8.7132,0 -17.7922,7.48279 -19.2227,28.63415 z" id="path1454" inkscape:connector-curvature="0" style="fill:#440099;stroke-width:3.32568693"/><path class="cls-2" d="m725.6265840820313,848.933330378418 l-0.1639000000000001,-20.65253 h11.939 l3.1926,16.56188 c4.2569,1.7959100000000001 8.7132,2.6605600000000003 13.8683,2.6605600000000003 c12.1051,0 17.9584,-4.45636 17.9584,-12.10545 c0,-6.5848700000000004 -4.2566,-10.30968 -15.664,-14.06769 l-8.9125,-3.02632 c-13.3359,-4.25691 -21.5175,-12.47135 -21.5175,-25.0757 c0,-14.76608 11.9397,-27.03787 33.8223,-27.03787 c10.1434,0 18.1584,2.6605600000000003 26.5058,7.28326 l-0.8978000000000004,18.69039 h-11.74 l-3.1926,-14.93238 c-3.3923,-1.43001 -6.7511,-2.1284 -11.0408,-2.1284 c-9.4453,0 -14.9327,4.25684 -14.9327,11.20753 c0,6.41865 3.5585,9.61126 15.664,13.70183 l7.1168,2.12844 c17.2607,5.88648 24.0113,14.59979 24.0113,26.87157 c0,16.02987 -13.3356,27.40367 -37.3804,27.40367 c-10.8415,0 -19.5882,-2.49423 -28.6344,-7.48279 z" id="path1456" inkscape:connector-curvature="0" style="fill:#440099;stroke-width:3.32568693"/><path class="cls-2" d="m798.9248840820312,846.605320378418 l11.7396,-2.3280000000000003 c0.16400000000000006,-8.71323 0.16400000000000006,-20.12036 0.16400000000000006,-27.76945 v-8.347480000000001 c0,-9.777519999999999 -0.16400000000000006,-15.2981 -0.5324,-22.41513 l-12.6375,-1.59627 v-6.75121 l32.0264,-11.20757 l2.8603,1.79587 l-0.532,25.07567 v23.47939 c0,7.64909 0,19.05618 0.16400000000000006,27.93579 l10.8414,2.12839 v7.2833 h-44.1318 v-7.2833 z" id="path1458" inkscape:connector-curvature="0" style="fill:#440099;stroke-width:3.32568693"/><path class="cls-2" d="m857.3575840820313,833.9677503784179 c0,-5.35436 0.1639000000000001,-9.61123 0.1639000000000001,-16.56192 V779.492950378418 H844.3516840820313 v-9.24536 l14.3999,-1.79584 l6.7514,-24.37735 h14.4003 l-0.6981000000000004,24.54358 h21.351 v10.84174 H879.0386840820313 v52.51263 c0,8.71326 3.7245,12.63757 9.4448,12.63757 c3.5588,0 6.7514,-1.43001 10.8419,-4.45643 l4.2565,4.45643 c-4.622,7.48279 -12.4713,11.73966 -23.4793,11.73966 c-14.2334,0 -22.7804,-6.75113 -22.7804,-22.4151 z" id="path1460" inkscape:connector-curvature="0" style="fill:#440099;stroke-width:3.32568693"/><path class="cls-2" d="m1042.5980840820312,811.353080378418 c0,-28.46788 19.9209,-45.1961 42.901,-45.1961 c22.9809,0 43.0679,16.561890000000002 43.0679,45.1961 c0,28.63414 -19.0558,45.02981 -43.0679,45.02981 c-24.0113,0 -42.901,-16.72823 -42.901,-45.02981 zm62.6558,0.16615000000000005 c0,-24.54361 -6.9504,-36.64909 -19.7548,-36.64909 c-12.8036,0 -19.5878,12.10548 -19.5878,36.64909 c0,24.54357 6.7511,36.11693 19.5878,36.11693 c12.8376,0 19.7548,-11.57336 19.7548,-36.11693 z" id="path1462" inkscape:connector-curvature="0" style="fill:#440099;stroke-width:3.32568693"/><path class="cls-2" d="M198.97068408203126,1085.4562103784178 L200.56738408203125,1047.277300378418 H220.98668408203125 l5.2881,32.09286 c8.2144,3.7248200000000002 16.1628,5.55392 26.7718,5.55392 c22.0164,0 35.2857,-11.14107 35.2857,-28.63418 c0,-15.66397 -8.4808,-22.81423 -27.836100000000002,-30.76258 L249.62108408203125,1021.0043503784179 C220.45508408203125,1008.533000378418 202.16368408203124,992.902340378418 202.16368408203124,964.767020378418 c0,-31.2947 25.741,-50.11809 62.8554,-50.11809 c18.2914,0 34.4873,5.28782 46.6926,13.80152 l-1.8623,35.81771 H289.6956840820312 l-5.2877,-30.76265 c-6.3521,-2.92659 -12.4717,-4.25683 -19.8877,-4.25683 c-17.7591,0 -31.8267,9.81075 -31.8267,27.03783 c0,15.3979 9.8107,23.87845 27.3037,31.02864 l11.4074,4.789 c34.4869,14.59979 47.9894,29.43233 47.9894,55.43922 c0,31.2947 -24.9426,51.98046 -66.048,51.98046 c-19.8877,0 -40.5734,-5.28778 -54.3754,-14.06762 z" id="path1464" inkscape:connector-curvature="0" style="fill:#440099;stroke-width:3.32568693"/><path class="cls-2" d="m329.1052840820313,1084.125930378418 l17.4927,-3.45868 c0.2645,-13.00348 0.2645,-29.9645 0.2645,-41.37163 V925.5239003784179 l-19.355,-2.66057 V912.520450378418 l47.4575,-11.93918 l3.9906,2.39446 l-1.0644,37.38071 v47.45757 c13.5357,-15.664 29.1665,-23.61235 45.3627,-23.61235 c23.08,0 36.3493,14.59975 36.3493,47.45753 v27.56997 c0,11.93922 0,28.63414 0.2645,41.63754 l16.1631,3.19269 v10.87497 h-65.5168 v-10.87497 l16.961100000000002,-3.45871 c0.2645,-13.00341 0.2645,-29.4323 0.2645,-41.37152 v-25.20873 c0,-20.68577 -5.0553,-27.56993 -18.2918,-27.56993 c-10.076600000000001,0 -19.8869,4.78896 -30.7619,15.13188 v37.64678 c0,11.67319 0,28.36811 0.2645,41.63754 l15.6639,3.19269 v10.87497 h-65.516 v-10.87497 z" id="path1466" inkscape:connector-curvature="0" style="fill:#440099;stroke-width:3.32568693"/><path class="cls-2" d="m484.0484840820312,1032.145390378418 c0,-42.4357 31.0291,-67.9105 64.4524,-67.9105 c31.2944,0 51.9804,21.21785 51.9804,53.31079 c0,6.08601 -0.5323,10.6089 -1.5959,14.59971 h-81.1476 c1.3304,30.49659 17.4927,45.62843 39.7755,45.62843 c15.6639,0 25.7406,-6.88413 34.4873,-16.69492 l7.6824,6.8842 c-10.343,19.62154 -28.3681,30.76258 -53.0447,30.76258 c-37.1145,0 -62.5898,-24.94267 -62.5898,-66.58029 zm33.9557,-12.47128 h36.35 c12.7369,0 15.8964,-5.55388 15.8964,-15.13188 c0,-16.16282 -10.609,-27.569960000000002 -23.6123,-27.569960000000002 c-13.0037,0 -26.5058,11.14104 -28.6341,42.70184 z" id="path1468" inkscape:connector-curvature="0" style="fill:#440099;stroke-width:3.32568693"/><path class="cls-2" d="m853.8981840820312,1032.145390378418 c0,-42.4357 31.0287,-67.9105 64.4521,-67.9105 c31.2947,0 51.9807,21.21785 51.9807,53.31079 c0,6.08601 -0.5327000000000002,10.6089 -1.5963,14.59971 h-81.1475 c1.3303,30.49659 17.4934,45.62843 39.7754,45.62843 c15.664,0 25.741,-6.88413 34.4877,-16.69492 l7.6824,6.8842 c-10.343,19.62154 -28.3684,30.76258 -53.0447,30.76258 c-37.1144,0 -62.5898,-24.94267 -62.5898,-66.58029 zm33.9557,-12.47128 h36.3496 c12.7373,0 15.8968,-5.55388 15.8968,-15.13188 c0,-16.16282 -10.609,-27.569960000000002 -23.6123,-27.569960000000002 c-13.0037,0 -26.5062,11.14104 -28.6341,42.70184 z" id="path1470" inkscape:connector-curvature="0" style="fill:#440099;stroke-width:3.32568693"/><path class="cls-2" d="m979.8421840820313,1084.125930378418 l18.0251,-3.45868 c0.2645,-13.80164 0.5319,-27.57 0.5319,-41.37163 V925.5239003784179 l-19.355,-2.66057 V912.520450378418 l48.2555,-11.93918 l3.9909,2.39446 l-1.0639,37.38071 v98.93918 c0,13.80163 0.2645,27.56999 0.5319,41.37163 l18.0251,3.45868 v10.875 h-68.9415 z" id="path1472" inkscape:connector-curvature="0" style="fill:#440099;stroke-width:3.32568693"/><path class="cls-2" d="m1146.9578840820313,1081.1993403784181 c-9.8107,11.40706 -21.484,17.49303 -37.1144,17.49303 c-31.2947,0 -53.5771,-25.20865 -53.5771,-66.04808 c0,-40.83947 26.2402,-68.4094 57.5345,-68.4094 c13.536,0 23.8783,4.789 33.4234,15.89677 v-54.64103 l-20.6861,-2.66053 v-10.34291 l48.5218,-11.93923 l3.9909,2.3945 l-1.0639,37.38075 V1081.166070378418 L1195.2136840820312,1084.0926603784178 v10.87497 l-46.1607,2.9266300000000003 l-2.1283,-16.69492 zm-24.4106,-1.3302800000000001 c9.279,0 16.4291,-3.7248200000000002 23.3466,-10.87501 v-76.12498 c-8.2147,-7.15026 -15.1315,-10.07685 -23.0803,-10.07685 c-17.7594,0 -32.625,15.3979 -32.625,49.31998 c0,32.09282 13.5353,47.72359 32.3587,47.72359 z" id="path1474" inkscape:connector-curvature="0" style="fill:#440099;stroke-width:3.32568693"/><path class="cls-2" d="m706.9361840820313,766.156980378418 c-11.7396,-0.26599 -20.4193,6.81767 -26.6388,22.78093 l-1.7956,-20.98506 l-2.8603,-1.79587 l-29.7315,11.20757 v6.75113 l12.4709,1.59631 c0.3651000000000001,7.117 0.5324,11.5734 0.5324,21.35096 v9.44492 c0,7.64909 0,19.05622 -0.16400000000000006,27.93579 l-11.3738,2.1284 v7.28329 h47.8565 v-7.28329 l-14.5996,-2.86006 c-0.16400000000000006,-8.7133 -0.16400000000000006,-19.75461 -0.16400000000000006,-27.23736 v-13.0034 c2.6607000000000003,-9.445 7.8821,-17.82571 14.3676,-22.54817 v0 c1.3303,5.15475 6.1523,8.67996 12.1051,8.67996 c6.884,0 12.3051,-4.92195 12.3051,-11.67309 c0,-6.75117 -5.4211,-11.67319 -12.3051,-11.83946 z" id="path1476" inkscape:connector-curvature="0" style="fill:#440099;stroke-width:3.32568693"/><path class="cls-2" d="m833.8446840820312,1080.933270378418 c-0.2645,-13.2695 -0.2645,-29.96446 -0.2645,-41.63765 v-35.01945 l0.7652000000000002,-41.33829 l-3.9582,-2.36123 l-29.7643,7.34975 h-51.7807 c0,0 0,-19.45528 0,-26.27291 c0,-6.81766 0.4317000000000001,-21.25115 9.944,-26.47247 c0,0 -1.3634,2.42773 -1.131,6.88416 c0.5324,7.64909 6.9176,13.169740000000001 15.1316,13.169740000000001 c8.2147,0 14.9658,-5.9862400000000004 14.9658,-14.16746 c0,-7.61582 -6.1859,-19.38875 -24.344,-19.38875 c-15.9634,0 -45.6614,8.28098 -45.6614,65.41627 v0.8646900000000004 h-54.9737 v-26.27295 c0,-6.81766 0.4321000000000001,-21.25111 9.9436,-26.47244 c0,0 -1.3631,2.42777 -1.1306,6.88413 c0.532,7.64913 6.9172,13.169740000000001 15.1319,13.169740000000001 c8.2144,0 14.9655,-5.9862400000000004 14.9655,-14.16742 c0,-7.61582 -6.186,-19.38875 -24.344,-19.38875 c-15.9634,0 -45.6618,8.28094 -45.6618,65.41627 v0.5986300000000002 l-20.1538,2.6605600000000003 v13.80156 h19.6218 v55.17319 c0,13.80163 -0.2645,27.56992 -0.5327000000000002,41.37152 l-17.7587,3.45871 v10.87497 h71.6017 v-10.87497 l-20.6853,-3.99084 c-0.2645,-13.53553 -0.5324,-27.30382 -0.5324,-40.83939 v-55.17319 h53.9098 v55.17319 c0,13.80163 -0.2645,27.56992 -0.5324,41.37152 l-17.7594,3.45871 v10.87497 h71.60210000000001 v-10.87497 l-20.6857,-3.99084 c-0.2645,-13.53553 -0.5323,-27.30382 -0.5323,-40.83939 v-55.17319 h51.3825 c0.4653000000000001,10.94154 0.6981000000000004,22.88076 0.6981000000000004,38.97706 v16.16286 c0,11.4071 0,28.36808 -0.2645,41.37152 l-17.2271,3.45875 v10.87497 h65.782 v-10.87497 l-15.8971,-3.19269 z" id="path1478" inkscape:connector-curvature="0" style="fill:#440099;stroke-width:3.32568693"/><path class="cls-2" d="m968.1356840820313,768.651210378418 v7.11696 l13.5357,2.12847 l-19.3889,54.27523 l-19.9209,-54.44153 l14.068,-1.96217 v-7.11696 h-46.6264 v7.11696 l9.0794,1.43008 l33.8224,82.37725 l-0.3651000000000001,1.06425 c-3.1922,9.0791 -7.815,17.26028 -14.2334,23.31306 c-1.0308,-5.32116 -5.6208,-8.7798 -11.3075,-8.7798 c-6.6177,0 -11.673,4.4564 -11.673,11.0745 c0,6.61813 5.0553,10.90827 11.673,10.90827 h0.2645 c15.4978,0 24.5436,-12.80391 34.8863,-40.04124 l30.4304,-79.35097 l9.9772,-1.9621 v-7.117 h-34.1554 z" id="path1480" inkscape:connector-curvature="0" style="fill:#440099;stroke-width:3.32568693"/><path class="cls-2" d="m1190.1252840820312,768.651210378418 h-21.5835 c0,0 0,-13.73507 0,-18.3245 c0,-4.58946 0.2980000000000001,-14.33372 6.7179,-17.8922 c0,0 -0.8978000000000004,1.62958 -0.7648000000000003,4.65597 c0.3650000000000001,5.18805 4.6559,8.87956 10.2428,8.87956 c5.5872,0 10.1098,-4.0573 10.1098,-9.57795 c0,-5.12156 -4.1567,-13.10325 -16.4284,-13.10325 c-10.7755,0 -30.829,5.58723 -30.829,44.19842 v1.16395 l-13.6023,1.7959100000000001 v9.07913 h13.2696 v36.74882 c0,9.31193 -0.1639000000000001,18.62386 -0.3651000000000001,27.93579 l-12.006,2.3280000000000003 v7.34976 h48.3557 v-7.34976 l-13.9678,-2.69382 c-0.1639000000000001,-9.14564 -0.3651000000000001,-18.45757 -0.3651000000000001,-27.60323 V779.492950378418 h21.2177 z" id="path1482" inkscape:connector-curvature="0" style="fill:#440099;stroke-width:3.32568693"/><path class="cls-2" d="m807.8041840820313,736.9907103784179 c0,-7.64909 5.8868,-12.80395 13.536,-12.80395 c7.6485,0 13.336,5.15486 13.336,12.80395 c0,7.64905 -5.8864,12.63758 -13.336,12.63758 c-7.4495000000000005,0 -13.536,-5.35432 -13.536,-12.63758 z" id="path1484" inkscape:connector-curvature="0" style="fill:#440099;stroke-width:3.32568693"/><path class="cls-2" d="m431.70258408203125,736.9907103784179 c0,-7.64909 5.8865,-12.80395 13.5353,-12.80395 c7.6489,0 13.3364,5.15486 13.3364,12.80395 c0,7.64905 -5.8868,12.63758 -13.3364,12.63758 c-7.4495000000000005,0 -13.5353,-5.35432 -13.5353,-12.63758 z" id="path1486" inkscape:connector-curvature="0" style="fill:#440099;stroke-width:3.32568693"/><rect fill="" style="color: rgb(5, 55, 108);" stroke-dashoffset="" fill-rule="nonzero" id="svg_3" x="-235" y="69" width="0" height="0"/></g></svg>