<?xml version="1.0" encoding="UTF-8"?>
<svg version="1.1" xmlns="http://www.w3.org/2000/svg" width="290" height="136">
<path d="M0 0 C0 4.29 0 8.58 0 13 C-1.670625 13.2784375 -1.670625 13.2784375 -3.375 13.5625 C-4.57125 14.036875 -5.7675 14.51125 -7 15 C-7.66 17.31 -8.32 19.62 -9 22 C-0.09 22 8.82 22 18 22 C18.05607422 25.34318359 18.05607422 25.34318359 18.11328125 28.75390625 C18.15959992 30.93181723 18.21079558 33.10956334 18.26245117 35.28735352 C18.29553909 36.79148187 18.32362045 38.29572958 18.34643555 39.80004883 C18.38028166 41.97268144 18.4326062 44.14423613 18.48828125 46.31640625 C18.51446533 47.62037354 18.54064941 48.92434082 18.56762695 50.26782227 C19.06354513 54.54851177 20.00009677 57.20103914 22 61 C26.02314866 63.68209911 29.27219919 63.68843415 34 63 C37.49890004 60.88608123 38.70578686 59.88263941 40 56 C40.15322359 53.41669771 40.25706889 50.85507761 40.31640625 48.26953125 C40.3475779 47.14390022 40.3475779 47.14390022 40.37937927 45.99552917 C40.44469926 43.60127816 40.50367792 41.20691861 40.5625 38.8125 C40.60570193 37.18813987 40.64931676 35.56379067 40.69335938 33.93945312 C40.8011389 29.95974498 40.90034215 25.97995299 41 22 C45.95 22 50.9 22 56 22 C56 23.32 56 24.64 56 26 C56.59425781 25.6390625 57.18851562 25.278125 57.80078125 24.90625 C64.8267582 20.97257706 71.10131604 19.41797748 79.0390625 21.546875 C83.02513403 23.12725578 86.51845125 25.53744113 90 28 C90.86625 27.21625 91.7325 26.4325 92.625 25.625 C98.29168134 20.99458677 103.8674972 20.56526083 111.01953125 20.671875 C116.58369223 21.28444318 120.44293849 23.96195899 125 27 C125 19.41 125 11.82 125 4 C129.95 4 134.9 4 140 4 C140 10.27 140 16.54 140 23 C141.98 22.34 143.96 21.68 146 21 C154.32024712 20.09195273 161.65979648 20.82975001 169 25 C171.625 27.25 171.625 27.25 173 29 C173.33 26.69 173.66 24.38 174 22 C178.95 22 183.9 22 189 22 C189.33 23.32 189.66 24.64 190 26 C190.58265625 25.6390625 191.1653125 25.278125 191.765625 24.90625 C198.55853589 21.0612061 204.23798761 19.75070513 212 21 C219.36626222 23.26175375 224.38648495 27.19037263 228 34 C231.92485901 43.11820856 232.22415175 52.22910291 229.02734375 61.61328125 C226.00194088 68.64187879 221.80542547 73.04422659 214.7734375 76.1484375 C204.74785465 79.22671505 199.50728588 76.75364294 190 72 C189.67 81.9 189.34 91.8 189 102 C184.05 102 179.1 102 174 102 C173.67 91.11 173.34 80.22 173 69 C171.02 70.65 169.04 72.3 167 74 C159.47502524 77.82849593 151.22856989 78.41088394 143.046875 76.203125 C138.9905985 74.66126551 135.93183829 73.25863555 133 70 C131.00100837 70.99281767 129.00989505 71.9947869 127.03515625 73.03515625 C126.38417969 73.37417969 125.73320312 73.71320313 125.0625 74.0625 C124.41410156 74.40410156 123.76570312 74.74570313 123.09765625 75.09765625 C116.01859993 78.1428369 106.3741559 78.34273686 99.0859375 76.10546875 C96.98445653 75.16147016 94.98098925 74.17391955 93 73 C93 73.99 93 74.98 93 76 C88.38 76 83.76 76 79 76 C78.96261719 73.77121094 78.92523438 71.54242188 78.88671875 69.24609375 C78.84040008 67.06818277 78.78920442 64.89043666 78.73754883 62.71264648 C78.70446091 61.20851813 78.67637955 59.70427042 78.65356445 58.19995117 C78.61971834 56.02731856 78.5673938 53.85576387 78.51171875 51.68359375 C78.48553467 50.37962646 78.45935059 49.07565918 78.43237305 47.73217773 C77.93552076 43.4434251 77.01711213 40.80053984 75 37 C70.97083636 34.44303077 68.9746759 33.83755402 64.25 34.625 C60.49079601 36.21543246 58.80121841 37.39756318 57 41 C56.84339117 43.62380313 56.7417092 46.22524852 56.68359375 48.8515625 C56.6524221 50.01261002 56.6524221 50.01261002 56.62062073 51.19711304 C56.55516552 53.67298392 56.49625913 56.14896202 56.4375 58.625 C56.39431093 60.30209448 56.35069652 61.97917807 56.30664062 63.65625 C56.19948829 67.77072308 56.09820955 71.88530414 56 76 C51.05 76 46.1 76 41 76 C40.67 74.68 40.34 73.36 40 72 C39.071875 72.639375 38.14375 73.27875 37.1875 73.9375 C31.58823327 77.56055494 26.50614873 77.61756225 20 77 C13.62742733 75.28957022 9.61475852 72.47690685 6 67 C4.27623485 62.69397887 3.76065277 59.13145964 3.8046875 54.5078125 C3.81113281 53.30898437 3.81757812 52.11015625 3.82421875 50.875 C3.84097656 49.6375 3.85773437 48.4 3.875 47.125 C3.88402344 45.86429688 3.89304688 44.60359375 3.90234375 43.3046875 C3.92584106 40.20304319 3.96170991 37.10149697 4 34 C-0.29 34 -4.58 34 -9 34 C-9 47.86 -9 61.72 -9 76 C-13.95 76 -18.9 76 -24 76 C-24 62.14 -24 48.28 -24 34 C-25.98 34 -27.96 34 -30 34 C-30 30.04 -30 26.08 -30 22 C-28.02 22 -26.04 22 -24 22 C-24.0928125 20.2365625 -24.0928125 20.2365625 -24.1875 18.4375 C-24.15597098 12.4890252 -22.43662929 8.46927995 -18.25 4.1875 C-12.29176213 0.17714759 -6.95300564 -0.24396511 0 0 Z M144 36 C143.4225 36.474375 142.845 36.94875 142.25 37.4375 C140.65160406 39.21306207 140.65160406 39.21306207 140 43 C147.92 43 155.84 43 164 43 C162.56213537 37.42000993 162.56213537 37.42000993 160.4375 35.1875 C154.76471776 32.42383686 149.05001263 31.84116607 144 36 Z M101 38 C97.45269665 42.96622469 97.15972265 48.0993857 98 54 C99.29504271 57.73195104 101.23757846 60.34347034 104.25 62.9375 C108.96108079 64.75769031 113.09896505 64.82090146 117.75 62.8125 C121.25536595 59.98873298 123.57096705 57.28709884 125 53 C125.44654909 46.19012631 124.60691723 42.01424805 120 36.6875 C116.6554438 33.8655307 113.35539648 33.65163407 109.0625 33.72265625 C105.57495927 34.1916248 103.5958851 35.70596201 101 38 Z M192 38 C188.45269665 42.96622469 188.15972265 48.0993857 189 54 C190.29504271 57.73195104 192.23757846 60.34347034 195.25 62.9375 C198.90123647 64.348205 202.17425453 64.68263302 206 64 C211.10209922 61.30455136 214.17381037 58.4785689 216 53 C216.44654909 46.19012631 215.60691723 42.01424805 211 36.6875 C207.6554438 33.8655307 204.35539648 33.65163407 200.0625 33.72265625 C196.57495927 34.1916248 194.5958851 35.70596201 192 38 Z M140 54 C141.77156362 60.13793071 141.77156362 60.13793071 146 64 C150.31317658 65.17925802 153.75816799 65.50201719 157.9375 63.8125 C160.35523023 61.91728968 160.35523023 61.91728968 162 58 C165.96 58 169.92 58 174 58 C174 56.68 174 55.36 174 54 C162.78 54 151.56 54 140 54 Z " fill="#026AA4" transform="translate(45,18)"/>
<path d="M0 0 C6.55704813 3.7574096 10.08611972 8.78909338 12.5 15.875 C14.94918066 25.40931041 14.07679527 34.49513168 9.44140625 43.23046875 C5.7193447 48.85046537 1.05130296 52.02685346 -5.375 54 C-14.71818358 55.50378416 -18.34780317 53.51359841 -27.375 49 C-27.705 58.9 -28.035 68.8 -28.375 79 C-33.325 79 -38.275 79 -43.375 79 C-43.54239985 74.2535704 -43.70521999 69.50739117 -43.85717773 64.76049805 C-43.90996505 63.15168835 -43.96522912 61.54295766 -44.02319336 59.93432617 C-44.33213135 51.31361313 -44.41929534 42.91010323 -43.61743164 34.30786133 C-43.12675725 27.61284897 -43.27230733 20.89664321 -43.3125 14.1875 C-43.31753176 12.70507966 -43.32209166 11.22265764 -43.32617188 9.74023438 C-43.33616673 6.16007898 -43.3557633 2.58016443 -43.375 -1 C-38.425 -1 -33.475 -1 -28.375 -1 C-28.045 0.32 -27.715 1.64 -27.375 3 C-26.79234375 2.6390625 -26.2096875 2.278125 -25.609375 1.90625 C-17.10749874 -2.90613279 -9.11181554 -4.02233299 0 0 Z M-25.375 15 C-28.92230335 19.96622469 -29.21527735 25.0993857 -28.375 31 C-27.07995729 34.73195104 -25.13742154 37.34347034 -22.125 39.9375 C-18.47376353 41.348205 -15.20074547 41.68263302 -11.375 41 C-6.27290078 38.30455136 -3.20118963 35.4785689 -1.375 30 C-0.92845091 23.19012631 -1.76808277 19.01424805 -6.375 13.6875 C-9.7195562 10.8655307 -13.01960352 10.65163407 -17.3125 10.72265625 C-20.80004073 11.1916248 -22.7791149 12.70596201 -25.375 15 Z " fill="#0269A5" transform="translate(262.375,41)"/>
<path d="M0 0 C2.82240864 2.27605552 4.21765567 3.94566636 4.87280273 7.57226562 C4.98617427 10.67686236 4.91844684 13.70107461 4.77050781 16.80517578 C4.58488281 22.31205078 4.58488281 22.31205078 4.39550781 27.93017578 C-7.15449219 27.93017578 -18.70449219 27.93017578 -30.60449219 27.93017578 C-28.26706203 33.2005217 -28.26706203 33.2005217 -24.60449219 36.93017578 C-20.38278292 38.17929575 -16.72947319 38.4088911 -12.66699219 36.68017578 C-10.39634799 34.91649087 -10.39634799 34.91649087 -8.60449219 31.93017578 C-5.78417969 31.63720703 -5.78417969 31.63720703 -2.47949219 31.74267578 C-0.8359375 31.78328125 -0.8359375 31.78328125 0.84082031 31.82470703 C2.10539062 31.87691406 2.10539062 31.87691406 3.39550781 31.93017578 C3.87503311 36.72542879 3.94032194 39.96767082 1.52050781 44.24267578 C-3.81834798 49.59644458 -10.76136821 51.17039545 -18.10449219 51.43017578 C-26.13937966 51.16487289 -33.88008525 48.84539629 -39.60449219 42.93017578 C-39.60449219 41.94017578 -39.60449219 40.95017578 -39.60449219 39.93017578 C-40.26449219 39.93017578 -40.92449219 39.93017578 -41.60449219 39.93017578 C-45.33259791 31.23126243 -46.22836786 21.31218179 -43.87792969 12.07470703 C-41.96413749 7.4302601 -39.36654584 4.29622378 -35.60449219 0.93017578 C-34.94449219 -0.05982422 -34.28449219 -1.04982422 -33.60449219 -2.06982422 C-32.94449219 -2.06982422 -32.28449219 -2.06982422 -31.60449219 -2.06982422 C-31.27449219 -2.72982422 -30.94449219 -3.38982422 -30.60449219 -4.06982422 C-19.95504104 -6.48307704 -9.22592667 -6.15155366 0 0 Z M-26.60449219 9.93017578 C-27.18199219 10.40455078 -27.75949219 10.87892578 -28.35449219 11.36767578 C-29.95288812 13.14323785 -29.95288812 13.14323785 -30.60449219 16.93017578 C-22.68449219 16.93017578 -14.76449219 16.93017578 -6.60449219 16.93017578 C-8.04235682 11.35018571 -8.04235682 11.35018571 -10.16699219 9.11767578 C-15.83977443 6.35401264 -21.55447955 5.77134185 -26.60449219 9.93017578 Z " fill="#0292A0" transform="translate(215.6044921875,44.06982421875)"/>
<path d="M0 0 C0 4.29 0 8.58 0 13 C-1.670625 13.2784375 -1.670625 13.2784375 -3.375 13.5625 C-4.57125 14.036875 -5.7675 14.51125 -7 15 C-8.54086322 18.51400668 -8.54086322 18.51400668 -9 22 C-4.71 22 -0.42 22 4 22 C4 25.96 4 29.92 4 34 C-0.29 34 -4.58 34 -9 34 C-9 47.86 -9 61.72 -9 76 C-13.95 76 -18.9 76 -24 76 C-24 62.14 -24 48.28 -24 34 C-25.98 34 -27.96 34 -30 34 C-30 30.04 -30 26.08 -30 22 C-28.02 22 -26.04 22 -24 22 C-24.0928125 20.2365625 -24.0928125 20.2365625 -24.1875 18.4375 C-24.15597098 12.4890252 -22.43662929 8.46927995 -18.25 4.1875 C-12.29176213 0.17714759 -6.95300564 -0.24396511 0 0 Z " fill="#0269A6" transform="translate(45,18)"/>
<path d="M0 0 C4.62 0 9.24 0 14 0 C14.03738281 2.22878906 14.07476562 4.45757812 14.11328125 6.75390625 C14.15959992 8.93181723 14.21079558 11.10956334 14.26245117 13.28735352 C14.29553909 14.79148187 14.32362045 16.29572958 14.34643555 17.80004883 C14.38028166 19.97268144 14.4326062 22.14423613 14.48828125 24.31640625 C14.51446533 25.62037354 14.54064941 26.92434082 14.56762695 28.26782227 C15.06354513 32.54851177 16.00009677 35.20103914 18 39 C22.0178673 41.6785782 25.27687975 41.69726204 30 41 C32.94900524 39.27623195 32.94900524 39.27623195 35 37 C35.66 36.34 36.32 35.68 37 35 C37.13526139 37.24834496 37.23210804 39.49902514 37.3125 41.75 C37.37050781 43.00296875 37.42851563 44.2559375 37.48828125 45.546875 C37 49 37 49 34.79296875 51.328125 C28.49455742 55.09836283 23.26347392 55.79599714 16 55 C9.62595695 53.27410527 5.61985801 50.48463335 2 45 C-0.17761864 39.88016817 -0.26385605 35.34175438 -0.1953125 29.8828125 C-0.1924826 29.02565643 -0.18965271 28.16850037 -0.18673706 27.28536987 C-0.17559999 24.56510068 -0.1505076 21.84516859 -0.125 19.125 C-0.11496182 17.27344228 -0.10583744 15.42187936 -0.09765625 13.5703125 C-0.07568188 9.0467464 -0.041197 4.52343023 0 0 Z " fill="#0292A0" transform="translate(49,40)"/>
<path d="M0 0 C2.9375 2.1875 2.9375 2.1875 5 4 C4.38722388 6.96175123 3.74627478 8.38058783 2 11 C-0.50745289 21.58702331 -0.95037951 31.69324852 3 42 C3.99 42.33 4.98 42.66 6 43 C7.6875 44.1875 7.6875 44.1875 9 46 C9 47.98 9 49.96 9 52 C4.38 52 -0.24 52 -5 52 C-5.05607422 48.65681641 -5.05607422 48.65681641 -5.11328125 45.24609375 C-5.15959992 43.06818277 -5.21079558 40.89043666 -5.26245117 38.71264648 C-5.29553909 37.20851813 -5.32362045 35.70427042 -5.34643555 34.19995117 C-5.38028166 32.02731856 -5.4326062 29.85576387 -5.48828125 27.68359375 C-5.51446533 26.37962646 -5.54064941 25.07565918 -5.56762695 23.73217773 C-6.06447924 19.4434251 -6.98288787 16.80053984 -9 13 C-13.02916364 10.44303077 -15.0253241 9.83755402 -19.75 10.625 C-22.70327584 11.87446286 -24.0544295 12.56803687 -26 15 C-26.99383114 16.00613103 -27.99310845 17.00693938 -29 18 C-29.10823773 15.75106046 -29.18569645 13.50062425 -29.25 11.25 C-29.29640625 9.99703125 -29.3428125 8.7440625 -29.390625 7.453125 C-29 4 -29 4 -27.17578125 1.65625 C-19.00167798 -4.56604764 -8.90480989 -4.98669354 0 0 Z " fill="#0491A0" transform="translate(129,42)"/>
<path d="M0 0 C1.32 0 2.64 0 4 0 C2.20440882 6.66933868 2.20440882 6.66933868 0.9375 8.71875 C-0.47622909 12.15882413 -0.20894378 15.59521691 -0.125 19.25 C-0.11146484 20.36761719 -0.11146484 20.36761719 -0.09765625 21.5078125 C-0.07418358 23.33868059 -0.03831525 25.16938238 0 27 C-0.33 26.01 -0.66 25.02 -1 24 C-1.66 23.67 -2.32 23.34 -3 23 C-3.05449838 21.27119018 -3.09301688 19.54187288 -3.125 17.8125 C-3.14820313 16.84957031 -3.17140625 15.88664062 -3.1953125 14.89453125 C-2.98952646 11.84478215 -2.20893387 9.78421134 -1 7 C-0.6186926 4.67402489 -0.27539746 2.34087842 0 0 Z " fill="#057BA0" transform="translate(172,48)"/>
<path d="M0 0 C4.95 0 9.9 0 15 0 C14.67 1.32 14.34 2.64 14 4 C14 3.01 14 2.02 14 1 C11.03 1 8.06 1 5 1 C5 1.99 5 2.98 5 4 C2.5 5.6875 2.5 5.6875 0 7 C0 4.69 0 2.38 0 0 Z " fill="#0D659F" transform="translate(219,40)"/>
<path d="M0 0 C3.96 0 7.92 0 12 0 C12.125 8.75 12.125 8.75 11 11 C10.34 11 9.68 11 9 11 C9.33 7.7 9.66 4.4 10 1 C6.7 1 3.4 1 0 1 C0 0.67 0 0.34 0 0 Z " fill="#0D8CA4" transform="translate(207,76)"/>
<path d="M0 0 C0 0.66 0 1.32 0 2 C-0.66 2 -1.32 2 -2 2 C-2.268125 2.61875 -2.53625 3.2375 -2.8125 3.875 C-4 6 -4 6 -7 8 C-7 4 -7 4 -5.1875 1.75 C-3 0 -3 0 0 0 Z " fill="#00749A" transform="translate(184,40)"/>
<path d="M0 0 C0.99 0 1.98 0 3 0 C3 2.31 3 4.62 3 7 C2.01 7.33 1.02 7.66 0 8 C0 5.36 0 2.72 0 0 Z " fill="#088EAC" transform="translate(49,41)"/>
</svg>
