<?xml version="1.0" encoding="UTF-8" standalone="no"?>
<svg
   xmlns:dc="http://purl.org/dc/elements/1.1/"
   xmlns:cc="http://creativecommons.org/ns#"
   xmlns:rdf="http://www.w3.org/1999/02/22-rdf-syntax-ns#"
   xmlns:svg="http://www.w3.org/2000/svg"
   xmlns="http://www.w3.org/2000/svg"
   viewBox="0 0 595.27557 841.88977"
   id="svg2"
   height="841.88977"
   width="595.27557"
   version="1.1">
  <metadata
     id="metadata35">
    <rdf:RDF>
      <cc:Work
         rdf:about="">
        <dc:format>image/svg+xml</dc:format>
        <dc:type
           rdf:resource="http://purl.org/dc/dcmitype/StillImage" />
      </cc:Work>
    </rdf:RDF>
  </metadata>
  <path
     id="path4"
     style="fill:#e2e3e4;fill-rule:evenodd"
     d="m 445.2259,246.6633 c -20.2081,81.8371 -67.2631,148.4408 -119.9725,192.7253 -33.4278,26.7629 -68.6393,45.6167 -109.6265,54.5895 -37.6269,7.0424 -77.8411,3.4448 -80.4013,-39.9771 -1.4476,-90.1024 138.6865,-178.3393 215.785,-197.591 -10.4361,-2.2675 -71.7132,19.3864 -98.741,35.5524 -101.1154,55.853 -153.6166,163.8435 -108.6064,198.0219 18.7339,16.8718 61.9492,15.959 97.2305,2.8707 109.6176,-39.9667 201.1282,-143.6452 214.0391,-237.1318 -3.2356,-3.0203 -6.4713,-6.0401 -9.7069,-9.0599 z" />
  <path
     id="path6"
     style="fill:#1b1918;fill-rule:evenodd"
     d="m 220.4048,357.3429 249.9274,0 0,51.9512 -249.9274,0 0,-51.9512 z" />
  <g
     id="g8">
    <path
       id="path10"
       style="fill:#ffffff;fill-rule:evenodd"
       d="m 230.1079,393.7769 25.8755,0 c 0.7101,1.927 1.9967,3.3226 3.8781,4.1628 1.8806,0.8524 4.6643,1.2723 8.3688,1.2723 3.1102,0 5.5479,-0.3459 7.3326,-1.0374 1.7855,-0.6797 2.6683,-1.6309 2.6683,-2.8416 0,-1.927 -3.7239,-3.4958 -11.1718,-4.7064 -1.4975,-0.2345 -2.6494,-0.4199 -3.4363,-0.5433 -6.1038,-1.0129 -10.9793,-1.9274 -14.5883,-2.7672 -3.6277,-0.8275 -6.258,-1.606 -7.9088,-2.3346 -3.1862,-1.47 -5.5669,-3.2365 -7.1598,-5.2873 -1.5933,-2.0504 -2.3993,-4.385 -2.3993,-7.0162 0,-5.2873 3.0903,-9.4379 9.2715,-12.4522 6.1996,-3.0139 14.704,-4.521 25.5299,-4.521 10.6536,0 19.0418,1.4454 25.146,4.3237 6.1047,2.8906 9.56,7.0162 10.3469,12.4024 l -25.2423,0 c -0.403,-1.5688 -1.497,-2.7427 -3.2247,-3.5085 -1.7475,-0.7781 -4.2422,-1.1613 -7.4673,-1.1613 -2.8407,0 -4.9523,0.2966 -6.3539,0.9019 -1.3821,0.6053 -2.0732,1.5194 -2.0732,2.7549 0,1.7539 3.6285,3.2365 10.9033,4.41 0.6522,0.1233 1.1329,0.2099 1.459,0.2593 1.0556,0.1606 2.6485,0.4199 4.7799,0.7536 9.6356,1.5689 15.932,2.9894 18.8885,4.274 3.6855,1.5688 6.3538,3.3475 8.0426,5.3612 1.6897,2.0013 2.5336,4.3605 2.5336,7.0905 0,5.8804 -3.1862,10.4014 -9.5785,13.564 -6.3923,3.1621 -15.548,4.7432 -27.4688,4.7432 -10.9991,0 -19.6944,-1.5811 -26.1252,-4.7432 -6.4307,-3.1626 -10.0393,-7.6097 -10.8263,-13.3536 z" />
    <path
       id="path12"
       style="fill:#ffffff;fill-rule:evenodd"
       d="m 361.7744,390.0318 22.3632,0 c -0.6641,7.1552 -4.0704,12.7103 -10.2359,16.6657 -6.149,3.9428 -14.4776,5.9205 -24.9867,5.9205 -11.786,0 -21.0512,-2.5573 -27.7958,-7.6591 -6.7619,-5.1014 -10.1344,-12.0927 -10.1344,-20.9857 0,-8.8558 3.3383,-15.834 10.0322,-20.9612 6.6931,-5.1141 15.8057,-7.6714 27.3531,-7.6714 10.6451,0 19.008,1.9021 25.1223,5.7064 6.0979,3.7915 9.5211,9.2334 10.2536,16.2876 l -22.6014,0 c -0.3405,-2.7841 -1.5503,-4.875 -3.6454,-6.2985 -2.0947,-1.4109 -5.0415,-2.1163 -8.8393,-2.1163 -4.6326,0 -8.0904,1.2474 -10.4065,3.7413 -2.3165,2.507 -3.4747,6.2732 -3.4747,11.3121 0,4.9502 1.2262,8.6915 3.6956,11.2234 2.4525,2.5319 6.0633,3.8042 10.8327,3.8042 3.645,0 6.557,-0.781 8.7037,-2.3304 2.1454,-1.5494 3.4063,-3.754 3.7637,-6.6386 z" />
    <path
       id="path14"
       style="fill:#ffffff;fill-rule:evenodd"
       d="m 418.4735,396.8043 c -1.6542,0.4245 -3.8549,0.8765 -6.6019,1.3462 -4.3334,0.7591 -6.4932,1.78 -6.4932,3.0451 0,0.8132 0.4237,1.4455 1.2849,1.9064 0.8474,0.4608 2.0639,0.6868 3.6361,0.6868 2.8838,0 4.9891,-0.4427 6.315,-1.3192 1.326,-0.8858 1.9824,-2.286 1.9824,-4.2105 0,-0.4068 0,-0.7139 -0.0143,-0.9129 -0.0136,-0.1989 -0.0541,-0.3793 -0.109,-0.5419 z m 1.5992,12.8395 -1.0801,-2.7558 c -2.2138,1.2922 -4.6064,2.2409 -7.1628,2.8551 -2.5695,0.6235 -5.4541,0.931 -8.6522,0.931 -4.9071,0 -8.7075,-0.7954 -11.4004,-2.3947 -2.6797,-1.5992 -4.0188,-3.8494 -4.0188,-6.7678 0,-2.8369 1.326,-4.9426 3.9639,-6.2977 2.6384,-1.3555 7.6414,-2.3494 14.982,-2.9636 0.9289,-0.0904 2.1868,-0.1808 3.7586,-0.2894 5.4816,-0.3886 8.2154,-1.328 8.2154,-2.8098 0,-0.8224 -0.5052,-1.4278 -1.5037,-1.8075 -0.9973,-0.3793 -2.5835,-0.569 -4.7428,-0.569 -1.7911,0 -3.1715,0.2349 -4.1282,0.7046 -0.9572,0.4608 -1.5178,1.1836 -1.6817,2.1505 l -16.8955,0 c 0.0824,-3.2255 2.0783,-5.6654 6.0012,-7.3187 3.9229,-1.6537 9.6918,-2.4757 17.3057,-2.4757 3.5811,0 6.8751,0.2167 9.9101,0.6594 3.0211,0.4426 5.3857,1.0302 7.0669,1.78 2.0508,0.9128 3.4992,1.9519 4.32,3.1085 0.8338,1.1566 1.2435,2.8099 1.2435,4.9603 l 0,16.0385 c 0,0.5331 0.1644,1.0028 0.4786,1.4184 0.3278,0.4157 0.7929,0.7591 1.4079,1.021 l 0,0.8224 -17.3876,0 z" />
    <path
       id="path16"
       style="fill:#ffffff;fill-rule:evenodd"
       d="m 440.9786,409.6438 0,-28.7787 17.2034,0 0,5.2408 c 1.222,-2.0782 3.0025,-3.6052 5.3126,-4.5628 2.3254,-0.9669 5.4014,-1.4459 9.2567,-1.4459 l 1.6782,0 0,11.4122 c -0.6923,-0.0363 -1.3542,-0.0727 -1.987,-0.0997 -0.6327,-0.027 -1.2364,-0.0359 -1.81,-0.0359 -3.7675,0 -6.5347,0.5238 -8.2999,1.5629 -1.7661,1.0391 -2.6494,2.6747 -2.6494,4.8974 l 0,11.8097 -18.7046,0 z" />
  </g>
  <path
     id="path18"
     style="fill:#1b1918;fill-rule:evenodd"
     d="m 154.6647,357.6455 0,19.5018 9.689,0 0,-33.2105 c 0,-6.1485 5.0271,-11.1749 11.1734,-11.1749 l 33.2727,0 c 6.1455,0 11.1742,5.0264 11.1742,11.1749 l 0,13.5422 -22.8404,0 0,-11.3399 c 0,-1.1874 -0.9714,-2.1588 -2.1603,-2.1588 l -6.4771,0 c -1.1881,0 -2.1602,0.9714 -2.1602,2.1588 l 0,31.0082 21.5959,0 0,14.2683 -21.5959,0 0,44.7379 -21.9823,0 0,-44.7379 -9.689,0 0,17.5357 -22.0476,0 0,-7.555 c -2.8173,3.0267 -5.9767,5.268 -9.4444,6.7337 -3.482,1.4641 -7.402,2.188 -11.8013,2.188 -3.6747,0 -6.9698,-0.5116 -9.8607,-1.5595 -2.9141,-1.0321 -5.3662,-2.5765 -7.3689,-4.6243 -1.789,-1.8205 -3.0469,-4.0453 -3.7895,-6.6699 -0.7419,-2.6245 -1.1222,-7.0396 -1.1222,-13.2406 l 0,-26.5782 24.1028,0 0,26.4807 c 0,3.9012 0.6084,6.6068 1.8468,8.1055 1.2189,1.4964 3.3304,2.239 6.3585,2.239 3.0079,0 5.2544,-0.8701 6.7584,-2.5961 1.5032,-1.7379 2.2645,-4.3483 2.2645,-7.8422 l 0,-26.3869 24.1036,0 z" />
  <defs
     id="defs20">
    <linearGradient
       id="grad1">
      <stop
         id="stop23"
         stop-opacity="1"
         stop-color="#868789"
         offset="0.0000%" />
      <stop
         id="stop25"
         stop-opacity="1"
         stop-color="#e30016"
         offset="42.0000%" />
      <stop
         id="stop27"
         stop-opacity="1"
         stop-color="#ffffff"
         offset="99.0000%" />
      <stop
         id="stop29"
         stop-opacity="1"
         stop-color="#ffffff"
         offset="100.0000%" />
    </linearGradient>
  </defs>
  <path
     id="path31"
     style="fill:url(#grad1)"
     d="m 432.265,289.04 c 11.2377,0 20.3508,9.1131 20.3508,20.3508 0,11.2377 -9.1131,20.3508 -20.3508,20.3508 -11.2376,0 -20.3507,-9.1131 -20.3507,-20.3508 0,-11.2377 9.1131,-20.3508 20.3507,-20.3508 z" />
</svg>
