<svg version="1.0" xmlns="http://www.w3.org/2000/svg" width="1080" height="1080" preserveAspectRatio="xMidYMid meet" transform="scale(1)"><rect id="backgroundrect" width="100%" height="100%" x="0" y="0" fill="none" stroke="none"/>


<g class="currentLayer" style=""><title>Layer 1</title><rect fill="#ffffff" style="color: rgb(0, 0, 0);" stroke-dashoffset="" fill-rule="nonzero" id="svg_5" x="54.66666603088379" y="304.666663646698" width="940" height="434" class=""/><g transform="translate(0.000000,1080.000000) scale(0.100000,-0.100000)" fill="#001856" stroke="none" id="svg_1" class="">
<path d="M0 5400 l0 -5400 5400 0 5400 0 0 5400 0 5400 -5400 0 -5400 0 0 -5400z m6782 1453 c17 -15 18 -57 18 -929 0 -569 4 -922 10 -938 14 -37 40 -33 139 21 282 153 574 357 587 409 9 35 -19 71 -92 115 -63 38 -75 60 -50 88 14 15 48 17 386 16 395 0 389 1 390 -47 0 -25 -36 -45 -147 -84 -96 -33 -182 -78 -463 -242 -164 -95 -387 -241 -415 -271 -17 -19 -17 -22 -1 -46 15 -23 679 -632 796 -730 41 -35 230 -135 256 -135 14 0 54 -38 54 -51 0 -5 -17 -17 -37 -26 -33 -13 -60 -14 -215 -4 -130 8 -232 8 -380 0 -218 -12 -258 -8 -258 30 0 31 24 47 92 60 143 28 143 55 1 194 -184 178 -577 548 -600 564 -52 35 -53 30 -53 -314 0 -187 4 -333 10 -355 13 -46 47 -71 125 -93 68 -19 91 -36 82 -59 -13 -34 -55 -39 -225 -27 -115 7 -210 7 -325 0 -170 -11 -222 -6 -241 24 -19 31 6 51 100 78 116 34 148 51 165 91 20 47 21 2307 1 2354 -15 35 -75 77 -144 100 -39 13 -48 20 -48 39 0 13 6 27 12 32 35 21 397 152 422 153 16 0 38 -7 48 -17z m-4132 -209 c250 -28 448 -83 625 -171 381 -191 620 -510 706 -941 30 -152 37 -415 15 -536 -95 -503 -539 -893 -1111 -976 -41 -5 -313 -10 -648 -10 -317 0 -667 -5 -777 -11 -111 -6 -211 -8 -224 -5 -29 7 -38 28 -26 61 12 32 48 49 145 70 144 31 180 72 196 224 9 94 13 2030 3 2078 -9 45 -52 61 -206 73 -73 6 -150 15 -170 21 -35 9 -38 13 -38 45 0 65 11 67 528 75 250 4 456 10 459 13 13 12 393 5 523 -10z m6546 -957 c117 -33 256 -129 331 -230 108 -146 166 -364 114 -428 l-19 -24 -546 -3 -546 -3 -6 -26 c-11 -43 5 -292 25 -390 26 -126 69 -212 145 -287 118 -117 249 -160 471 -154 164 5 216 24 310 109 69 62 84 69 106 43 38 -45 -124 -216 -275 -289 -127 -62 -217 -79 -381 -72 -102 4 -147 11 -210 31 -270 86 -442 321 -484 661 -43 355 60 686 279 888 162 150 296 200 515 192 66 -2 143 -10 171 -18z m-4538 -61 c11 -7 13 -123 11 -645 l-3 -636 23 -52 c25 -57 63 -91 139 -126 42 -20 64 -22 207 -22 137 0 170 3 230 22 137 43 212 114 237 221 10 43 13 184 13 572 l0 515 -110 31 c-146 42 -206 65 -219 86 -25 40 -1 43 309 43 287 0 295 -1 316 -21 24 -25 24 -27 13 -895 -4 -267 -4 -498 0 -512 10 -41 49 -54 180 -61 66 -3 125 -11 133 -17 17 -14 17 -43 0 -57 -17 -14 -484 -94 -557 -96 l-55 -1 -2 60 c-5 117 -12 145 -36 145 -24 0 -38 -9 -154 -91 -43 -31 -100 -68 -128 -82 -185 -93 -428 -102 -592 -22 -128 63 -200 178 -229 365 -14 91 -15 174 -10 616 4 397 3 514 -7 526 -6 9 -47 26 -90 37 -121 33 -147 46 -147 75 0 13 6 26 13 29 22 8 502 2 515 -7z" fill="#001856" id="svg_2"/>
<path d="M2064 6516 c-94 -21 -121 -39 -134 -86 -8 -28 -10 -339 -8 -1008 l3 -968 38 -76 c60 -123 167 -202 327 -245 103 -27 279 -23 405 10 327 85 582 259 746 506 59 90 102 192 137 320 23 87 25 114 25 286 1 251 -30 386 -129 582 -163 318 -513 574 -910 664 -126 28 -404 36 -500 15z" fill="#001856" id="svg_3"/>
<path d="M8909 5577 c-78 -27 -131 -61 -195 -127 -82 -85 -144 -200 -144 -270 0 -35 6 -37 200 -45 155 -7 419 8 485 26 22 6 56 28 76 48 45 44 58 112 39 193 -17 70 -92 147 -173 177 -80 29 -198 29 -288 -2z" fill="#001856" id="svg_4"/>
</g></g></svg>