<?xml version="1.0" encoding="UTF-8"?>
<svg version="1.1" xmlns="http://www.w3.org/2000/svg" width="2000" height="434">
<path d="M0 0 C93.39 0 186.78 0 283 0 C282.35844111 5.13247114 281.72468417 9.59472281 280.4765625 14.51953125 C280.1775 15.70740234 279.8784375 16.89527344 279.5703125 18.11914062 C279.10238281 19.94735352 279.10238281 19.94735352 278.625 21.8125 C278.32078125 23.01970703 278.0165625 24.22691406 277.703125 25.47070312 C275.88036493 32.6721633 273.95523913 39.83078985 272 47 C335.36 47 398.72 47 464 47 C465.0633845 51.25353801 464.63131384 54.04331722 463.75244141 58.19946289 C463.60789017 58.91699234 463.46333893 59.63452179 463.31440735 60.37379456 C462.83512865 62.74186494 462.34349492 65.10718495 461.8515625 67.47265625 C461.51551995 69.11870689 461.18019253 70.76490368 460.84555054 72.41123962 C460.14281688 75.85964587 459.43451139 79.306841 458.72167969 82.75317383 C457.8075997 87.17253328 456.9026298 91.59369046 456.00121498 96.01564884 C455.14165933 100.23106474 454.27825265 104.44568835 453.4140625 108.66015625 C453.16664747 109.86816234 453.16664747 109.86816234 452.91423416 111.10057259 C452.44702363 113.37746153 451.97716022 115.65378514 451.50634766 117.92993164 C451.36811081 118.60481628 451.22987396 119.27970093 451.08744812 119.97503662 C450.51710216 122.71993087 449.88782966 125.33651102 449 128 C424.91 128 400.82 128 376 128 C374.68 134.6 373.36 141.2 372 148 C370.515 153.445 370.515 153.445 369 159 C392.1 159 415.2 159 439 159 C438.36515992 165.34840077 437.66971285 171.42865913 436.4765625 177.65625 C436.32972015 178.44286011 436.18287781 179.22947021 436.03158569 180.03991699 C435.56665723 182.52736887 435.09621528 185.01373216 434.625 187.5 C434.01059703 190.75996513 433.398816 194.0204121 432.7890625 197.28125 C432.63979309 198.07845459 432.49052368 198.87565918 432.33673096 199.69702148 C430.77295032 208.11172149 429.3736727 216.55248365 428 225 C428.54164795 223.84008545 429.0832959 222.6801709 429.64135742 221.48510742 C432.76428106 214.80175562 435.90098815 208.13648623 439.25 201.5625 C442.65217252 194.82822258 445.7939308 187.98325419 448.9375 181.125 C452.4432103 173.48291683 455.98375968 165.8783785 459.79199219 158.38256836 C464.77400993 148.55023274 469.49755667 138.5887783 474.27610779 128.65643311 C476.29003414 124.47115317 478.31100168 120.28934364 480.3359375 116.109375 C486.4965349 103.37821573 492.52679845 90.59553215 498.45483398 77.75512695 C502.47040868 69.08012754 506.64809124 60.51087575 511 52 C512.00110029 50.00055053 513.00125342 48.00062622 514 46 C530.41108686 45.97667105 546.82216837 45.95902084 563.23326778 45.94818783 C570.85270173 45.94302486 578.47212539 45.93598216 586.09155273 45.92456055 C592.73028827 45.91461372 599.36901637 45.90814658 606.00775915 45.90591151 C609.52504336 45.90460439 613.04230626 45.90151853 616.55958366 45.89426994 C620.47974938 45.88625611 624.39989399 45.88600886 628.32006836 45.88647461 C629.49466614 45.88287933 630.66926392 45.87928406 631.87945557 45.87557983 C633.47179268 45.87764183 633.47179268 45.87764183 635.09629822 45.87974548 C636.02454375 45.87882369 636.95278929 45.8779019 637.90916348 45.87695217 C640 46 640 46 641 47 C641.28208186 50.12815868 641.50247656 53.24042193 641.68359375 56.375 C641.77321884 57.83749176 641.77321884 57.83749176 641.86465454 59.32952881 C642.06051549 62.5527443 642.24918966 65.77633521 642.4375 69 C642.57138067 71.23470966 642.70541523 73.46941011 642.83959961 75.70410156 C643.72311763 90.56580051 644.49145675 105.4311924 645.18084717 120.30303955 C645.73250173 132.18868793 646.44977715 144.0457628 647.32275391 155.9128418 C647.86440931 163.46236429 648.20969479 170.99751682 648.4375 178.5625 C648.83227526 191.39173319 649.72789716 204.16995651 650.64035034 216.97079468 C651.60850238 230.60040323 652.39137437 244.22481849 653 257.875 C653.8678198 277.28990697 655.33753383 296.63843257 657 316 C662.72552017 288.58642146 668.42122294 261.16723257 674.03222656 233.72998047 C675.01715904 228.91468573 676.00437163 224.09986022 676.9921875 219.28515625 C677.15763565 218.47874191 677.3230838 217.67232758 677.49354553 216.84147644 C678.16281257 213.57963653 678.83216848 210.31781486 679.5015564 207.05599976 C681.16135431 198.96785842 682.82074196 190.8796379 684.47431946 182.79022217 C685.2947637 178.77668868 686.11594187 174.76330562 686.9375 170.75 C687.10055634 169.95339966 687.26361267 169.15679932 687.43161011 168.33605957 C690.28829024 154.38897678 693.20651884 140.45517532 696.13583374 126.52319336 C698.74361168 114.11219774 701.28280373 101.68967687 703.75 89.25 C705.72945533 79.2782571 707.73597504 69.31406297 709.875 59.375 C710.07834961 58.42012695 710.28169922 57.46525391 710.49121094 56.48144531 C710.6771582 55.62905273 710.86310547 54.77666016 711.0546875 53.8984375 C711.29421143 52.79508057 711.29421143 52.79508057 711.53857422 51.66943359 C712 50 712 50 713 49 C714.50887414 48.89987313 716.02241719 48.86924524 717.53460693 48.86628723 C718.51533173 48.86202225 719.49605652 48.85775726 720.50650024 48.85336304 C721.59200165 48.85381622 722.67750305 48.85426941 723.79589844 48.85473633 C724.93274078 48.85137772 726.06958313 48.8480191 727.24087524 48.84455872 C731.03038608 48.83500027 734.81985282 48.83310199 738.609375 48.83203125 C741.24806741 48.82881783 743.88675963 48.82545369 746.52545166 48.82194519 C752.08077276 48.81553406 757.63608195 48.81406366 763.19140625 48.81469727 C769.56044671 48.81529266 775.92940097 48.80485407 782.29841971 48.7889536 C787.79256954 48.77573758 793.28669179 48.77051945 798.78085732 48.77115268 C802.049514 48.7714044 805.31807912 48.7677802 808.58672333 48.75797462 C847.76170565 48.65162552 847.76170565 48.65162552 864.3125 53.25 C865.12678467 53.46688477 865.94106934 53.68376953 866.7800293 53.90722656 C890.12112066 60.31378087 912.34247524 71.3586384 925 93 C925.51949219 93.8765625 926.03898437 94.753125 926.57421875 95.65625 C929.81336567 101.59604586 931.97657773 107.64210964 933.8125 114.125 C934.01955566 114.85267578 934.22661133 115.58035156 934.43994141 116.33007812 C942.12949954 145.22260489 937.46474504 178.2841805 923.03515625 204.21484375 C910.08455492 226.54852227 887.71945365 241.59483705 863.15869141 248.41015625 C861.10930507 248.95501964 859.05601888 249.48079306 857 250 C855.23076172 250.46212891 855.23076172 250.46212891 853.42578125 250.93359375 C841.90882989 253.78216515 830.62889306 254.146275 818.80078125 254.09765625 C817.48458298 254.0962413 816.1683847 254.09482635 814.81230164 254.09336853 C811.35183736 254.08959214 807.89141659 254.07980495 804.43096924 254.06866455 C800.88432402 254.05834414 797.33767161 254.05384838 793.79101562 254.04882812 C786.86065947 254.03817712 779.93033184 254.0211611 773 254 C772.90058105 255.01368652 772.80116211 256.02737305 772.69873047 257.07177734 C771.34035467 270.33990177 769.27216212 283.46490982 767.125 296.625 C766.7821637 298.74863525 766.43971444 300.87233303 766.09765625 302.99609375 C763.78127756 317.33918119 761.38859328 331.66844035 759 346 C689.04 346 619.08 346 547 346 C546.3631937 340.90554957 545.84828132 336.17553802 545.68359375 331.09375 C545.64548584 329.97677734 545.60737793 328.85980469 545.56811523 327.70898438 C545.52501221 326.32001953 545.48190918 324.93105469 545.4375 323.5 C545.293125 319.045 545.14875 314.59 545 310 C520.745 309.505 520.745 309.505 496 309 C495.67 310.98 495.34 312.96 495 315 C494.32807223 316.96743119 493.59840373 318.91583754 492.8203125 320.84375 C492.38589844 321.92527344 491.95148437 323.00679688 491.50390625 324.12109375 C491.04886719 325.23613281 490.59382812 326.35117187 490.125 327.5 C489.67769531 328.61503906 489.23039063 329.73007812 488.76953125 330.87890625 C486.6796189 336.0512852 484.50066663 340.99866674 482 346 C445.7 346 409.4 346 372 346 C372.81773435 341.09359388 373.61629732 338.20222114 375.66015625 333.8515625 C376.2020459 332.69035889 376.74393555 331.52915527 377.30224609 330.33276367 C377.8886709 329.0966875 378.47542946 327.86076961 379.0625 326.625 C379.66527676 325.34304304 380.26765049 324.0608965 380.86962891 322.77856445 C384.08249049 315.95327139 387.34980898 309.1583648 390.76660156 302.43237305 C397.04261564 290.05503476 402.9779891 277.50234053 409 265 C409.56847656 263.82034668 410.13695312 262.64069336 410.72265625 261.42529297 C412.25496254 258.24298818 413.78449007 255.05936959 415.3125 251.875 C415.98696167 250.47302368 415.98696167 250.47302368 416.67504883 249.04272461 C417.08779053 248.18042236 417.50053223 247.31812012 417.92578125 246.4296875 C418.28067627 245.68960449 418.63557129 244.94952148 419.0012207 244.18701172 C420.07957872 241.82574769 421.03592647 239.41018383 422 237 C399.89 236.67 377.78 236.34 355 236 C354.34 240.62 353.68 245.24 353 250 C352.504059 252.4767591 351.97385278 254.94748495 351.37890625 257.40234375 C350.93514648 259.26342773 350.93514648 259.26342773 350.48242188 261.16210938 C350.17884766 262.40798828 349.87527344 263.65386719 349.5625 264.9375 C347.47054808 273.60672872 345.50842652 282.27281085 343.79272461 291.0246582 C342.45984533 297.77722791 340.98006894 304.49951048 339.52050781 311.22558594 C338.99908431 313.62922112 338.4798865 316.03332949 337.9609375 318.4375 C337.61992321 320.01304931 337.27878168 321.58857109 336.9375 323.1640625 C336.71235718 324.20682846 336.71235718 324.20682846 336.48266602 325.2706604 C335.05031129 331.86131618 333.52533716 338.43033361 332 345 C196.54482233 347.51368042 196.54482233 347.51368042 142.15966797 334.61035156 C129.82096156 331.74100682 117.28704134 329.79167485 104.80438232 327.66130066 C99.06714589 326.66401965 93.34610079 325.58536035 87.625 324.5 C76.4609566 322.40929157 65.26939834 320.52553192 54.06256104 318.68212891 C43.18805552 316.89153962 32.3377375 315.000798 21.5 313 C9.91407904 310.86185047 -1.68793734 308.85444919 -13.3125 306.9375 C-24.59329761 305.07545741 -35.86682286 303.18225809 -47.125 301.1875 C-48.89484253 300.87703735 -48.89484253 300.87703735 -50.70043945 300.56030273 C-51.77124756 300.36895752 -52.84205566 300.1776123 -53.9453125 299.98046875 C-54.87875488 299.81442139 -55.81219727 299.64837402 -56.77392578 299.47729492 C-59 299 -59 299 -61 298 C-61 295.03 -61 292.06 -61 289 C30.08 289 121.16 289 215 289 C215.33 285.7 215.66 282.4 216 279 C216.37652792 276.71095686 216.78842967 274.42733729 217.2421875 272.15234375 C217.36606842 271.52324097 217.48994934 270.89413818 217.61758423 270.24597168 C217.88894393 268.87051938 218.16240012 267.49547934 218.43774414 266.12081909 C219.05543608 263.03654114 219.66267193 259.95022601 220.27069092 256.86402893 C220.61170342 255.13332943 220.95323233 253.40273163 221.29522705 251.67222595 C222.77374565 244.18157132 224.22242954 236.68533278 225.6640625 229.1875 C225.89477448 227.98768997 226.12548645 226.78787994 226.3631897 225.55171204 C226.83638328 223.09044123 227.30953764 220.62916288 227.78265381 218.1678772 C231.18136816 200.49372394 234.60575682 182.82625627 238.16702271 165.18411255 C240.48983866 153.66779583 242.69975394 142.13244719 244.8671875 130.5859375 C247.58526809 116.10598092 250.39655521 101.64522515 253.24780273 87.19091797 C255.28920885 76.81421626 257.20335239 66.42189443 259 56 C258.16698364 55.85751831 258.16698364 55.85751831 257.31713867 55.7121582 C245.57164764 53.69820151 233.840501 51.61954819 222.125 49.4375 C210.4324399 47.26004433 198.73036553 45.15744494 187.0090332 43.140625 C174.00145298 40.89794385 161.0166676 38.5472304 148.03903198 36.1378479 C132.18214448 33.19632514 116.32392261 30.32710236 100.40551758 27.73803711 C91.13029519 26.21852232 81.89638176 24.50899063 72.66375732 22.75170898 C58.35707943 20.0313534 44.01627648 17.51754592 29.66796875 15.02734375 C28.09392045 14.7538206 26.52002382 14.47942301 24.94628906 14.20410156 C21.00094047 13.51480884 17.05385828 12.84217603 13.10107422 12.19677734 C11.92393105 12.00029854 11.92393105 12.00029854 10.7230072 11.79985046 C9.23300194 11.55131267 7.74194605 11.30896775 6.24977112 11.07380676 C1.22542784 10.22542784 1.22542784 10.22542784 -1 8 C-1.33333333 2.66666667 -1.33333333 2.66666667 0 0 Z M799 127 C796.83149595 136.03543356 795.25661052 145.13761895 793.8125 154.3125 C793.63364258 155.42093262 793.45478516 156.52936523 793.27050781 157.67138672 C792.31737875 163.86300971 791.8085906 169.73629226 792 176 C801.50314818 176.42132184 808.16417587 176.16821183 815.58984375 169.57421875 C818.40216353 166.43470387 820.20333778 162.78513891 822 159 C822.31066406 158.360625 822.62132812 157.72125 822.94140625 157.0625 C825.78855004 150.46042745 827.38207376 141.95872129 825.0625 135 C821.71367844 130.12898683 816.73054551 128.07906067 811 127 C808.91765408 126.93256652 806.83331443 126.91485528 804.75 126.9375 C803.13351562 126.95103516 803.13351562 126.95103516 801.484375 126.96484375 C800.25460937 126.98224609 800.25460937 126.98224609 799 127 Z M551 150 C545.65251464 165.66185868 540.31751598 181.32793921 535 197 C534.53234222 198.37819916 534.53234222 198.37819916 534.05523682 199.78424072 C532.433858 204.56545126 530.81777084 209.34838129 529.21109009 214.134552 C528.73852074 215.5404159 528.26438865 216.9457555 527.78866577 218.35055542 C527.13601358 220.279113 526.48969722 222.20981133 525.84375 224.140625 C525.48474609 225.20829102 525.12574219 226.27595703 524.75585938 227.37597656 C523.86160063 230.02534424 523.86160063 230.02534424 524 233 C533.9 233 543.8 233 554 233 C553.46654939 205.32866855 552.89623465 177.66223927 552 150 C551.67 150 551.34 150 551 150 Z " fill="#2E3192" transform="translate(387,79)"/>
<path d="M0 0 C0.77179596 0.00021149 1.54359192 0.00042297 2.33877563 0.00064087 C14.63426649 0.03422076 26.12787326 0.97937644 38 4.375 C38.68433105 4.55691895 39.36866211 4.73883789 40.07373047 4.92626953 C51.20897272 7.89796905 61.63242832 12.38643774 72 17.375 C72.76715332 17.74222168 73.53430664 18.10944336 74.32470703 18.48779297 C87.46643638 24.86495245 99.26391258 32.7103682 111 41.375 C111.70608398 41.89255859 112.41216797 42.41011719 113.13964844 42.94335938 C121.02307644 48.74574634 121.02307644 48.74574634 124 51.375 C124 52.035 124 52.695 124 53.375 C124.53109375 53.58898438 125.0621875 53.80296875 125.609375 54.0234375 C128.91031819 55.88965701 131.51074368 58.41270358 134.25 61 C134.82411621 61.53689453 135.39823242 62.07378906 135.98974609 62.62695312 C145.32814197 71.39564647 145.32814197 71.39564647 149 75.375 C149.56460937 75.9628125 150.12921875 76.550625 150.7109375 77.15625 C153.56060691 82.06113553 151.80519407 88.09772857 150.6015625 93.3515625 C150.45133636 94.01763016 150.30111023 94.68369781 150.14633179 95.36994934 C149.64599637 97.58156612 149.13534567 99.79067372 148.625 102 C148.26479125 103.58582973 147.90543781 105.17185395 147.546875 106.75805664 C146.77545871 110.16800703 146.00061661 113.57715393 145.22363281 116.98583984 C143.33185565 125.30022133 141.48451245 133.62452448 139.63598633 141.9486084 C139.20934322 143.86981261 138.78241921 145.79095447 138.35522461 147.71203613 C135.24955635 161.67815705 132.19094119 175.65362532 129.1796875 189.64038086 C126.14682563 203.72450198 123.07460426 217.79993861 120 231.875 C116.58797913 247.49653617 113.18357698 263.11957541 109.8125 278.75 C106.69600505 293.19491392 103.55675494 307.63482684 100.36791992 322.06396484 C99.99262953 323.7626851 99.6173853 325.46141555 99.2421875 327.16015625 C99.05693008 327.99875183 98.87167267 328.83734741 98.68080139 329.70135498 C97.53521574 334.90174329 96.41462004 340.1068792 95.31243896 345.31663513 C94.59535659 348.70012837 93.8685145 352.08148596 93.14038086 355.46261597 C92.7988696 357.0611548 92.46205708 358.66070523 92.13012695 360.26126099 C91.67412722 362.45815284 91.20226021 364.6510532 90.7265625 366.84375 C90.46439941 368.08576172 90.20223633 369.32777344 89.93212891 370.60742188 C89.4707251 371.97737305 89.4707251 371.97737305 89 373.375 C88.01 373.705 87.02 374.035 86 374.375 C85.505 373.281875 85.01 372.18875 84.5 371.0625 C81.65253553 365.36757106 77.86137228 360.4145469 74 355.375 C73.55140625 354.75753906 73.1028125 354.14007813 72.640625 353.50390625 C64.35619634 342.84153973 51.75660396 335.58520109 40 329.375 C39.25105469 328.96636719 38.50210937 328.55773437 37.73046875 328.13671875 C15.72835397 316.53071523 -11.18182686 313.38883302 -35.73828125 313.1015625 C-36.729384 313.08898911 -37.72048676 313.07641571 -38.74162292 313.0634613 C-61.0189588 312.83561663 -82.23814059 313.12951325 -104 318.375 C-105.07459473 318.62668945 -106.14918945 318.87837891 -107.25634766 319.13769531 C-148.2298572 328.98025162 -187.90598445 349.24469252 -219.8984375 376.73046875 C-222 378.375 -222 378.375 -225 379.375 C-225.19605811 373.80101691 -224.47376839 368.80171074 -223.34765625 363.3515625 C-223.17240921 362.47392746 -222.99716217 361.59629242 -222.81660461 360.69206238 C-222.43660359 358.79079243 -222.05376564 356.89008774 -221.668396 354.98989868 C-220.62188331 349.82570066 -219.59806687 344.65701291 -218.57421875 339.48828125 C-218.36081848 338.41263412 -218.14741821 337.336987 -217.92755127 336.22874451 C-215.62500884 324.56986238 -213.49616677 312.88047915 -211.375 301.1875 C-208.74318288 286.70524652 -206.02435028 272.25044184 -203.0824585 257.82803345 C-200.16205901 243.48496986 -197.53894067 229.09100068 -194.92102051 214.69009399 C-192.35188464 200.56977825 -189.67365573 186.48016284 -186.81347656 172.41601562 C-184.69369924 161.98536531 -182.74889921 151.5342346 -180.91967773 141.04833984 C-179.19063157 131.23268867 -177.27272185 121.45906328 -175.3125 111.6875 C-175.08651123 110.5591272 -175.08651123 110.5591272 -174.85595703 109.40795898 C-174.15435295 105.91031278 -173.44512402 102.41469814 -172.7175293 98.92236328 C-172.29205125 96.81886002 -171.89428047 94.70892611 -171.55786133 92.58935547 C-170.57607799 86.78630379 -168.38301617 83.80144438 -164.0625 79.875 C-163.47839355 79.31949463 -162.89428711 78.76398926 -162.29248047 78.19165039 C-157.08836843 73.30227467 -151.60979244 68.78913963 -146 64.375 C-144.88091562 63.45673394 -143.76383082 62.53602723 -142.6484375 61.61328125 C-109.9993924 34.75774095 -70.73846976 11.08761092 -29 2.375 C-27.70328369 2.09897949 -27.70328369 2.09897949 -26.38037109 1.81738281 C-17.6032811 0.14114537 -8.89988012 -0.02252953 0 0 Z " fill="#2E3192" transform="translate(225,-0.375)"/>
<path d="M0 0 C14.13666024 -0.04718586 28.27330789 -0.08207898 42.41003132 -0.10362434 C48.97723979 -0.11397515 55.54439464 -0.12797123 62.11157227 -0.15087891 C68.47236327 -0.17292285 74.83310335 -0.18463365 81.19392967 -0.18975449 C83.59707629 -0.19339456 86.00022074 -0.20049852 88.40334511 -0.21146011 C101.12269235 -0.26706662 113.76279895 -0.03457576 126.45385742 0.86767578 C128.07928325 0.98031423 128.07928325 0.98031423 129.73754597 1.0952282 C158.7378993 3.38086058 187.50198264 13.76582692 206.87109375 36.21875 C214.25136398 45.86049752 218.87206226 56.31266674 222 68 C222.18546387 68.66974854 222.37092773 69.33949707 222.56201172 70.02954102 C224.65098964 78.69758813 224.39714824 87.57616942 224.375 96.4375 C224.37412384 97.2872641 224.37324768 98.1370282 224.37234497 99.01254272 C224.33023441 111.35909719 224.05064289 123.21265791 220 135 C219.75330566 135.72864258 219.50661133 136.45728516 219.25244141 137.20800781 C214.25472377 151.46178078 206.60882084 163.21317881 196 174 C195.25234375 174.76054687 194.5046875 175.52109375 193.734375 176.3046875 C164.81773197 203.97657437 124.52457817 206.38999704 86.8125 206.125 C84.29752964 206.11494207 81.78255535 206.10582123 79.26757812 206.09765625 C73.17829795 206.0758844 67.08916804 206.04263331 61 206 C60.81993408 207.20100342 60.81993408 207.20100342 60.63623047 208.42626953 C50.73645677 274.3533608 50.73645677 274.3533608 46 298 C32.0321608 298.77909212 18.1248592 299.13923701 4.13671875 299.09765625 C2.2385919 299.09578359 0.34046455 299.09436371 -1.55766296 299.09336853 C-6.47455254 299.08960999 -11.39141101 299.0798395 -16.30828857 299.06866455 C-21.35721415 299.05830431 -26.40614491 299.05384011 -31.45507812 299.04882812 C-41.30339884 299.03820887 -51.1516968 299.02121619 -61 299 C-60.49793859 294.01462581 -59.92890741 289.12352201 -58.8359375 284.2265625 C-58.60447021 283.17235107 -58.37300293 282.11813965 -58.13452148 281.03198242 C-57.88387939 279.90767822 -57.6332373 278.78337402 -57.375 277.625 C-54.94019051 266.5015844 -52.64698992 255.35764036 -50.4375 244.1875 C-48.52350066 234.52131653 -46.5757828 224.86966284 -44.4375 215.25 C-42.33975056 205.80583236 -40.49470322 196.31959648 -38.68185425 186.81729126 C-36.68107992 176.34553145 -34.51696278 165.91642053 -32.25244141 155.49829102 C-30.39661374 146.93158229 -28.64391415 138.34766 -26.9375 129.75 C-25.20339178 121.01280514 -23.45277034 112.28061391 -21.625 103.5625 C-19.50140029 93.42062942 -17.39868325 83.27462596 -15.3125 73.125 C-15.1479129 72.32487488 -14.98332581 71.52474976 -14.81375122 70.70037842 C-12.60523374 59.95452929 -10.43609716 49.20126702 -8.296875 38.44140625 C-7.95555794 36.72633881 -7.95555794 36.72633881 -7.60734558 34.97662354 C-6.4800643 29.31023344 -5.35622309 23.64319326 -4.23754883 17.97509766 C-3.82643182 15.90395206 -3.41522222 13.83282484 -3.00390625 11.76171875 C-2.81572327 10.8021376 -2.62754028 9.84255646 -2.43365479 8.85389709 C-2.17174347 7.53922707 -2.17174347 7.53922707 -1.90454102 6.19799805 C-1.75324234 5.43182663 -1.60194366 4.66565521 -1.44606018 3.87626648 C-1 2 -1 2 0 0 Z M86 78 C83.96984939 89.87847479 81.97697209 101.76063226 80.25 113.6875 C80.12262451 114.55270264 79.99524902 115.41790527 79.86401367 116.30932617 C79.30595394 120.23764431 78.83787615 124.01985951 79 128 C88.08733319 128.52203829 96.10603397 127.70843912 103.375 121.8125 C109.26698091 116.14621997 112.13052213 109.07945594 113 101 C113.09233681 94.31071121 111.99367394 89.39685667 108 84 C101.7659739 78.50811987 94.01889453 77.86013556 86 78 Z " fill="#2E3192" transform="translate(1776,132)"/>
<path d="M0 0 C0.76360397 0.00291284 1.52720795 0.00582568 2.31395143 0.00882679 C3.11926567 0.00797237 3.92457991 0.00711794 4.75429761 0.00623763 C7.47366211 0.00458036 10.19296596 0.0101082 12.91232485 0.01555592 C14.85333435 0.01583776 16.79434397 0.01568011 18.73535341 0.01511341 C24.02232492 0.01482533 29.30927396 0.02072375 34.59624022 0.02768737 C40.11492561 0.03391917 45.63361146 0.03452457 51.15229982 0.03571278 C61.61060666 0.03882661 72.0689031 0.0470407 82.52720535 0.05706227 C94.43026549 0.0682218 106.33332611 0.07373345 118.23639017 0.0787577 C142.72920425 0.08922327 167.22200908 0.10682371 191.71481508 0.12908131 C191.5719701 2.02192501 191.42479793 3.91444242 191.27585024 5.80681568 C191.19436739 6.86074513 191.11288454 7.91467457 191.02893251 9.00054127 C190.6626182 12.6489507 189.98096008 16.15837893 189.20993227 19.73845631 C188.39474484 23.67450922 187.87987184 27.64758652 187.33981508 31.62908131 C186.02633001 41.07120682 184.59684111 50.49253871 183.13205141 59.91228443 C182.05418021 66.86170337 181.03259745 73.81349106 180.10934633 80.78533131 C179.71481508 83.12908131 179.71481508 83.12908131 178.71481508 85.12908131 C151.32481508 85.12908131 123.93481508 85.12908131 95.71481508 85.12908131 C93.23981508 98.49408131 93.23981508 98.49408131 90.71481508 112.12908131 C114.14481508 112.12908131 137.57481508 112.12908131 161.71481508 112.12908131 C160.58957256 125.63199153 160.58957256 125.63199153 159.69919008 131.51824147 C159.55507692 132.48165455 159.55507692 132.48165455 159.40805238 133.46453053 C159.09756702 135.5330168 158.78142128 137.60058635 158.46481508 139.66814381 C158.24418686 141.12590009 158.02381403 142.58369504 157.80368227 144.04152638 C157.34562912 147.06899074 156.88479244 150.09601375 156.42184633 153.12273365 C155.82830214 157.00457834 155.24148948 160.88740603 154.65664858 164.77057034 C154.2044909 167.76829277 153.74904943 170.76550895 153.29257387 173.76257664 C153.07471097 175.19539287 152.85782678 176.62835826 152.6419391 178.06147343 C152.34142199 180.05277435 152.03605193 182.04334108 151.73044008 184.03386647 C151.55802797 185.16571369 151.38561586 186.29756092 151.20797914 187.46370655 C150.71481508 190.12908131 150.71481508 190.12908131 149.71481508 192.12908131 C125.29481508 192.45908131 100.87481508 192.78908131 75.71481508 193.12908131 C73.23981508 206.49408131 73.23981508 206.49408131 70.71481508 220.12908131 C70.38481508 220.78908131 70.05481508 221.44908131 69.71481508 222.12908131 C94.46481508 222.12908131 119.21481508 222.12908131 144.71481508 222.12908131 C142.41146123 241.70758899 142.41146123 241.70758899 141.34762758 248.32830006 C141.2267679 249.09551884 141.10590822 249.86273762 140.98138613 250.65320545 C140.72927061 252.24852931 140.47555146 253.8436006 140.22018617 255.43840748 C139.84286534 257.79751034 139.47181208 260.15753587 139.10153383 262.51775318 C137.71533724 271.28136518 136.21169706 280.01818939 134.6127643 288.74553639 C134.42934984 289.75033291 134.24593538 290.75512944 134.05696291 291.79037434 C133.61030006 294.23674249 133.16290619 296.68297444 132.71481508 299.12908131 C113.77732357 299.15999001 94.83982759 299.18015246 75.90231508 299.19158131 C74.85366879 299.19223276 74.85366879 299.19223276 73.78383774 299.19289738 C37.36251727 299.21491479 0.94544361 299.17974365 -35.47268492 298.62908131 C-36.26423098 298.61712349 -37.05577704 298.60516567 -37.87130934 298.5928455 C-47.00954648 298.45349065 -56.14749364 298.30084839 -65.28518492 298.12908131 C-64.77247472 292.36256699 -64.12658799 286.71807053 -62.96487242 281.03923756 C-62.7625022 280.03793057 -62.7625022 280.03793057 -62.55604368 279.01639515 C-62.25621451 277.53585913 -61.95413166 276.05577817 -61.6500836 274.57610279 C-61.13692422 272.07836273 -60.62970393 269.57947418 -60.12380797 267.08025318 C-59.53639993 264.17837186 -58.94862738 261.27656892 -58.35926634 258.37508351 C-56.51186073 249.27478016 -54.69112978 240.16926377 -52.87502867 231.06267506 C-52.56866522 229.52681539 -52.26229409 227.99095725 -51.95591551 226.4551006 C-51.80194021 225.68322344 -51.6479649 224.91134629 -51.48932368 224.11607891 C-51.3338988 223.33694197 -51.17847393 222.55780503 -51.01833922 221.75505787 C-50.86148177 220.9687052 -50.70462433 220.18235253 -50.54301363 219.37217098 C-44.79172095 190.54317982 -38.98560514 161.7257684 -33.12186819 132.91945034 C-30.04977129 117.82708424 -26.98802716 102.73289759 -23.97268492 87.62908131 C-23.81657744 86.84743611 -23.66046995 86.0657909 -23.49963194 85.26045948 C-22.08757207 78.18813001 -20.67922937 71.1150654 -19.27493101 64.04119068 C-12.44272448 29.62732938 -12.44272448 29.62732938 -8.84768492 12.69158131 C-8.60066832 11.51821217 -8.35365172 10.34484303 -8.09914976 9.13591725 C-7.87308043 8.08307545 -7.64701109 7.03023365 -7.41409117 5.94548756 C-7.21887877 5.03226734 -7.02366637 4.11904713 -6.82253844 3.17815357 C-5.78193522 -0.78994403 -3.74118685 0.01082341 0 0 Z " fill="#2E3192" transform="translate(1354.2851849198341,130.8709186911583)"/>
<path d="M0 0 C0.92055176 0.03577148 1.84110352 0.07154297 2.78955078 0.10839844 C23.40576182 1.0103371 42.9258837 4.88941453 62.5625 11.1875 C63.31273437 11.42500977 64.06296875 11.66251953 64.8359375 11.90722656 C66.87890625 12.60546875 66.87890625 12.60546875 70 14 C71.18940512 17.56821536 70.72672263 18.93987225 69.8125 22.546875 C69.52955078 23.68560059 69.24660156 24.82432617 68.95507812 25.99755859 C68.63990234 27.23586426 68.32472656 28.47416992 68 29.75 C67.33930578 32.40255193 66.68526039 35.05673077 66.03125 37.7109375 C65.86185913 38.39552032 65.69246826 39.08010315 65.51794434 39.78543091 C63.74873607 46.96047164 62.11500056 54.16366343 60.5 61.375 C60.21479492 62.64472656 59.92958984 63.91445312 59.63574219 65.22265625 C58.59920364 69.84345437 57.56616081 74.46502906 56.53393555 79.08679199 C55.59233927 83.30212284 54.64867201 87.51698009 53.70239258 91.73126221 C53.26504756 93.68285237 52.83071216 95.63511623 52.39648438 97.58740234 C50.78204496 104.78206104 49.01761314 111.90745362 47 119 C43.45532944 117.81844315 43.18688817 117.09354608 41.3125 114 C30.44287985 97.25919817 13.53390526 86.04162129 -5.8125 81.3125 C-14.5174236 80.45907612 -21.86149329 80.66511296 -30 84 C-30.99 84.33 -31.98 84.66 -33 85 C-34.54656519 89.63969557 -34.99818768 93.63833043 -33.08203125 98.171875 C-25.6438772 110.47427643 -11.84211104 118.00126898 -0.16088867 125.75976562 C5.7707426 129.71449419 11.45004766 133.81590196 16.95458984 138.34912109 C19.10310687 140.13441337 19.10310687 140.13441337 22 142 C22 142.66 22 143.32 22 144 C22.85271484 144.3403125 22.85271484 144.3403125 23.72265625 144.6875 C31.38708383 149.10473442 36.88510191 158.91718051 40 167 C40.25749023 167.66241699 40.51498047 168.32483398 40.78027344 169.00732422 C43.41503665 176.5904923 43.55566049 184.03839052 43.5 192 C43.49790527 192.68564026 43.49581055 193.37128052 43.49365234 194.07769775 C43.42263995 205.36044865 42.28772886 215.49211697 38 226 C37.72655762 226.70189453 37.45311523 227.40378906 37.17138672 228.12695312 C32.55423278 239.73908222 25.95385658 249.42138347 18 259 C17.54222168 259.55558594 17.08444336 260.11117188 16.61279297 260.68359375 C9.66515902 268.9953518 1.78026038 275.70804321 -7 282 C-7.55526367 282.39815918 -8.11052734 282.79631836 -8.68261719 283.20654297 C-23.0744747 293.34374916 -39.05425373 300.39992081 -56 305 C-57.05703125 305.29519531 -58.1140625 305.59039062 -59.203125 305.89453125 C-73.29007516 309.63752979 -86.95025687 310.37091114 -101.4375 310.3125 C-102.36997559 310.31067719 -103.30245117 310.30885437 -104.26318359 310.30697632 C-128.75592689 310.22624199 -151.1205055 307.02076986 -174 298 C-174.25459619 291.92934176 -173.28439687 286.39482496 -172.09375 280.453125 C-171.89330078 279.42423157 -171.69285156 278.39533813 -171.48632812 277.33526611 C-170.8301082 273.97232773 -170.16509967 270.6111924 -169.5 267.25 C-168.58044378 262.55785468 -167.6651476 257.8648819 -166.75 253.171875 C-166.518573 251.98827393 -166.287146 250.80467285 -166.04870605 249.58520508 C-164.52659505 241.77875589 -163.05442926 233.96455288 -161.625 226.140625 C-161.44247681 225.14395813 -161.25995361 224.14729126 -161.07189941 223.12042236 C-160.37661978 219.31859927 -159.68244595 215.51663087 -158.99975586 211.71252441 C-158.53618894 209.13030999 -158.06555597 206.5494695 -157.59375 203.96875 C-157.46081543 203.21386292 -157.32788086 202.45897583 -157.19091797 201.68121338 C-156.54254115 198.16519637 -155.84984638 195.08575242 -154 192 C-150.8771567 194.93358007 -148.24995422 197.93684468 -145.6875 201.375 C-135.828249 214.18777662 -121.34769303 222.37805727 -105.3125 224.484375 C-94.48436361 224.91180144 -86.22318068 221.56838631 -78.2421875 214.33203125 C-75.43530621 211.32213653 -75.67540367 208.24994526 -75.70703125 204.328125 C-76.14966575 200.81065618 -77.74169469 198.65682977 -80 196 C-80.66 195.67 -81.32 195.34 -82 195 C-82 194.34 -82 193.68 -82 193 C-82.5787085 192.7306665 -83.15741699 192.46133301 -83.75366211 192.18383789 C-86.03042557 190.98396549 -87.91609196 189.64296973 -89.94140625 188.05859375 C-90.68447021 187.47948242 -91.42753418 186.90037109 -92.19311523 186.30371094 C-92.97501221 185.68786133 -93.75690918 185.07201172 -94.5625 184.4375 C-95.36953369 183.80489258 -96.17656738 183.17228516 -97.00805664 182.52050781 C-99.34308013 180.68579638 -101.67295313 178.84481421 -104 177 C-104.57331055 176.5457666 -105.14662109 176.0915332 -105.73730469 175.62353516 C-108.86791856 173.1318428 -111.94548535 170.5842239 -115 168 C-115.92167969 167.236875 -116.84335938 166.47375 -117.79296875 165.6875 C-132.62866514 152.91856959 -140.18476858 137.41289154 -142 118 C-143.78728094 91.38228035 -133.6406115 64.83763945 -116.45849609 44.65771484 C-91.52814225 16.32207665 -58.66447535 2.87430898 -21.484375 0.3125 C-14.30151344 -0.11955182 -7.19509127 -0.31236856 0 0 Z " fill="#2E3192" transform="translate(1679,124)"/>
</svg>
