<svg xmlns:dc="http://purl.org/dc/elements/1.1/" xmlns:cc="http://creativecommons.org/ns#" xmlns:rdf="http://www.w3.org/1999/02/22-rdf-syntax-ns#" xmlns:svg="http://www.w3.org/2000/svg" xmlns="http://www.w3.org/2000/svg" xmlns:sodipodi="http://sodipodi.sourceforge.net/DTD/sodipodi-0.dtd" xmlns:inkscape="http://www.inkscape.org/namespaces/inkscape" inkscape:version="1.1-dev (bc69992, 2020-04-15)" sodipodi:docname="UFSCar-sigla-preto.svg" xml:space="preserve" enable-background="new 0 0 200 40" height="270.4883723258972" width="269.8139543533325" version="1.1"><rect id="backgroundrect" width="100%" height="100%" x="0" y="0" fill="none" stroke="none" style="" class=""/><metadata id="metadata850"><rdf:RDF><cc:Work rdf:about=""><dc:format>image/svg+xml</dc:format><dc:type rdf:resource="http://purl.org/dc/dcmitype/StillImage"/><dc:title/></cc:Work></rdf:RDF></metadata><defs id="defs848"/><sodipodi:namedview inkscape:current-layer="Layer_1" inkscape:window-maximized="0" inkscape:window-y="25" inkscape:window-x="0" inkscape:cy="20" inkscape:cx="100" inkscape:zoom="3.92" width="188.949px" showgrid="false" id="namedview846" inkscape:window-height="656" inkscape:window-width="1937" inkscape:pageshadow="2" inkscape:pageopacity="0" guidetolerance="10" gridtolerance="10" objecttolerance="10" borderopacity="1" bordercolor="#666666" pagecolor="#ffffff"/>






<g class="currentLayer" style=""><title>Layer 1</title><rect fill="#ffffff" style="color: rgb(5, 55, 108);" stroke-dashoffset="" fill-rule="nonzero" id="svg_1" x="3.465109414775725" y="2.674415822746596" width="264.0232427120209" height="265.4055633544922" class="" opacity="1" rx="50" ry="50"/><rect fill="#ffffff" style="color: rgb(5, 55, 108);" stroke-dashoffset="" fill-rule="nonzero" id="svg_3" x="134" y="-39" width="0" height="1" class=""/><path id="path833" d="m73.30046290397644,136.35659745979308 c0,10.463 -4.803,15.668 -15.719,15.668 C46.66146290397644,152.02459745979309 41.86046290397644,146.8195974597931 41.86046290397644,136.35659745979308 V115.17659745979309 h9.4 v21.734 c0,4.65 1.719,7.027 6.32,7.027 c4.598,0 6.316,-2.3770000000000002 6.316,-7.027 V115.17659745979309 h9.402 v21.18 z" fill="#000000" class=""/><path id="path843" d="m211.99634664154053,125.0325974597931 h8.34 v4.6 h0.10200000000000002 c1.264,-3.3360000000000003 4.193,-5.105 7.885,-5.105 c0.6560000000000002,0 1.365,0.05000000000000002 2.021,0.202 v7.834 c-1.111,-0.3030000000000001 -2.123,-0.505 -3.283,-0.505 c-4.248,0 -6.471,2.932 -6.471,6.217 v12.99 h-8.594 z" fill="#000000" class=""/><path id="path841" d="m181.4163466415405,133.1205974597931 c0.15000000000000005,-3.4370000000000003 1.7680000000000002,-5.6610000000000005 4.092,-7.025 c2.326,-1.314 5.359,-1.819 8.342,-1.819 c6.217,0 12.23,1.364 12.23,8.795 v11.473 c0,2.225 0,4.65 1.012,6.723 h-8.645 c-0.3030000000000001,-0.809 -0.402,-1.617 -0.504,-2.477 c-2.223,2.324 -5.51,3.234 -8.645,3.234 c-5.002,0 -8.945,-2.527 -8.945,-7.936 c0,-8.541 9.299,-7.885 15.264,-9.098 c1.467,-0.3030000000000001 2.275,-0.809 2.275,-2.426 c0,-1.9729999999999999 -2.375,-2.73 -4.145,-2.73 c-2.375,0 -3.8930000000000002,1.062 -4.295,3.286 zm11.119,13.597 c4.094,0 5.457,-2.324 5.256,-7.734 c-1.211,0.7580000000000002 -3.438,0.91 -5.307,1.416 c-1.92,0.455 -3.537,1.264 -3.537,3.3360000000000003 c0,2.122 1.6680000000000001,2.982 3.588,2.982 " fill="#000000" class=""/><path id="path839" d="m168.23046290397644,128.06559745979308 c-0.506,-3.64 -3.3360000000000003,-5.5600000000000005 -7.277,-5.5600000000000005 c-6.068,0 -8.393,5.358 -8.393,10.716 c0,5.357 2.324,10.714 8.393,10.714 c4.396,0 6.924,-2.525 7.277,-6.6720000000000015 h9.4 c-0.504,9.301 -7.328,14.76 -16.477,14.76 c-10.918,0 -17.994,-8.34 -17.994,-18.802 C143.16046290397645,122.75759745979309 150.23646290397645,114.41859745979309 161.15446290397642,114.41859745979309 c7.783,0 16.225,4.953 16.477,13.647 z" fill="#000000" class=""/><path id="path837" d="m118.08846290397643,139.13559745979308 c0.201,4.246 2.83,5.611 6.824,5.611 c2.83,0 5.7620000000000005,-1.012 5.7620000000000005,-3.689 c0,-3.186 -5.156,-3.791 -10.361,-5.258 C115.15746290397644,134.33359745979308 109.74746290397644,132.0075974597931 109.74746290397644,125.3865974597931 C109.74646290397644,117.5025974597931 117.68346290397643,114.41859745979309 124.45546290397644,114.41859745979309 C131.63346290397644,114.41859745979309 138.86146290397645,117.90659745979309 138.91246290397646,126.0445974597931 h-9.4 c0.15000000000000008,-3.287 -2.932,-4.347 -5.814,-4.347 c-2.02,0 -4.549,0.7080000000000003 -4.549,3.083 c0,2.7800000000000002 5.207,3.286 10.465,4.751 c5.205,1.466 10.463,3.8920000000000003 10.463,10.413 c0,9.148 -7.785,12.08 -15.721,12.08 c-8.289,0 -15.619,-3.6390000000000002 -15.67,-12.889 z" fill="#000000" class=""/><polygon id="polygon835" points="89.27546215057373,130.0875961780548 104.13447093963623,130.0875961780548 104.13447093963623,137.36759495735168 89.27546215057373,137.36759495735168 89.27546215057373,151.266597032547 79.87346935272217,151.266597032547 79.87346935272217,115.17660069465637 106.46145915985107,115.17660069465637 106.46145915985107,122.70859837532043 89.27546215057373,122.70859837532043 " fill="#000000" class=""/></g></svg>