<svg version="1.0" xmlns="http://www.w3.org/2000/svg" width="331" height="331" preserveAspectRatio="xMidYMid meet"><rect id="backgroundrect" width="100%" height="100%" x="0" y="0" fill="none" stroke="none"/>


<g class="currentLayer" style=""><title>Layer 1</title><g id="deeditor_bgCarrier" stroke-width="0" class="">
  <rect id="dee_c_e" x="64.03911105486364" y="60.687172170241496" width="197.48044818408698" height="243.50879185513165" rx="38.400001525878906" fill="#ffffff" strokewidth="0"/>
</g><g transform="translate(0, 325) scale(0.1, -0.1)" fill="#0000ce" stroke="none" id="svg_1" class="">
<path d="M434.17318534851074,3212.6535034179688 c-97,-21 -193,-77 -265,-154 c-76,-81 -112,-145 -138,-247 c-19,-75 -20,-114 -20,-1208 c0,-1253 -2,-1207 66,-1336 c42,-80 140,-179 221,-223 c28,-15 86,-36 129,-47 c75,-19 114,-20 1208,-20 c1253,0 1207,-2 1336,66 c80,42 179,140 223,221 c15,28 36,86 47,129 c19,75 20,114 20,1208 c0,1253 2,1207 -66,1336 c-42,80 -140,179 -221,223 c-28,15 -86,36 -129,47 c-75,19 -113,20 -1213,19 c-915,0 -1148,-3 -1198,-14 zm1925,-765 c1,-69 0,-149 -3,-177 l-6,-53 l-265,0 l-264,0 l0,-615 l0,-615 l268,-2 l267,-3 l0,-175 l0,-175 l-717,-3 l-717,-2 l-3,176 c-2,97 -1,178 1,180 c2,2 123,4 268,4 l263,0 l0,615 l0,615 l-267,2 l-268,3 l-2,170 c-1,93 1,173 3,177 c3,5 328,7 722,6 l717,-3 l3,-125 z" fill="#0000ce" id="svg_2"/>
</g></g></svg>