<svg xmlns:dc="http://purl.org/dc/elements/1.1/" xmlns:cc="http://web.resource.org/cc/" xmlns:rdf="http://www.w3.org/1999/02/22-rdf-syntax-ns#" xmlns:svg="http://www.w3.org/2000/svg" xmlns="http://www.w3.org/2000/svg" xmlns:xlink="http://www.w3.org/1999/xlink" xmlns:sodipodi="http://sodipodi.sourceforge.net/DTD/sodipodi-0.dtd" xmlns:inkscape="http://www.inkscape.org/namespaces/inkscape" version="1.0" sodipodi:version="0.32" inkscape:version="0.45.1" sodipodi:docname="Uchile.svg" inkscape:output_extension="org.inkscape.output.svg.inkscape" sodipodi:docbase="C:\Documents and Settings\B1mbo\Escritorio" viewBox="8.67 9.32 849.35 849.37"><rect id="backgroundrect" width="100%" height="100%" x="0" y="0" fill="none" stroke="none"/>
  <metadata id="metadata137">
    <rdf:RDF>
      <cc:Work rdf:about="">
        <dc:format>image/svg+xml</dc:format>
        <dc:type rdf:resource="http://purl.org/dc/dcmitype/StillImage"/>
      </cc:Work>
    </rdf:RDF>
  </metadata>
  <sodipodi:namedview inkscape:window-height="851" inkscape:window-width="1440" inkscape:pageshadow="2" inkscape:pageopacity="0.0" guidetolerance="10.0" gridtolerance="10.0" objecttolerance="10.0" borderopacity="1.0" bordercolor="#666666" pagecolor="#ffffff" id="base" inkscape:zoom="1.0187109" inkscape:cx="503.45315" inkscape:cy="325" inkscape:window-x="-4" inkscape:window-y="-4" inkscape:current-layer="svg2"/>
  <defs id="defs5">
    <linearGradient id="linearGradient3375">
      <stop style="stop-color:#c2614b;stop-opacity:1" offset="0" id="stop3377"/>
      <stop style="stop-color:#8c5a35;stop-opacity:1" offset="0.74000001" id="stop3383"/>
      <stop style="stop-color:#826f66;stop-opacity:1" offset="1" id="stop3379"/>
    </linearGradient>
    <linearGradient id="linearGradient3390">
      <stop style="stop-color:#594e4c;stop-opacity:1" offset="0" id="stop3392"/>
      <stop style="stop-color:#312d2b;stop-opacity:1" offset="1" id="stop3396"/>
    </linearGradient>
    <linearGradient id="linearGradient3405">
      <stop style="stop-color:#ffffff;stop-opacity:1" offset="0" id="stop3407"/>
      <stop style="stop-color:#ffffff;stop-opacity:1" offset="0.58928573" id="stop3409"/>
      <stop style="stop-color:#838683;stop-opacity:1" offset="1" id="stop3411"/>
    </linearGradient>
    <radialGradient cx="355.1739501953125" cy="554.0723266601562" r="107.20243835449219" fx="355.1739501953125" fy="554.0723266601562" id="radialGradient6502" xlink:href="#linearGradient5408" gradientUnits="userSpaceOnUse" gradientTransform="matrix(0.488523,-0.4102101,0.2364367,0.2815748,34.939789,360.82731)"/>
    <radialGradient cx="257.0206604003906" cy="146.231201171875" r="8.396895408630371" fx="257.0206604003906" fy="146.231201171875" id="radialGradient8857" xlink:href="#linearGradient3375" gradientUnits="userSpaceOnUse" gradientTransform="translate(4.7857143,2.6428578)"/>
    <radialGradient cx="259.2018737792969" cy="144.2177734375" r="8.396895408630371" fx="259.2018737792969" fy="144.2177734375" id="radialGradient8859" xlink:href="#linearGradient3390" gradientUnits="userSpaceOnUse" gradientTransform="matrix(0.5321401,0,0,0.5321401,124.81218,71.058577)"/>
    <radialGradient cx="257.4775085449219" cy="139.5955047607422" r="56.91350173950195" fx="257.4775085449219" fy="139.5955047607422" id="radialGradient8861" xlink:href="#linearGradient4662" gradientUnits="userSpaceOnUse"/>
    <radialGradient cx="257.0206604003906" cy="146.231201171875" r="8.396895408630371" fx="257.0206604003906" fy="146.231201171875" id="radialGradient8923" xlink:href="#linearGradient3405" gradientUnits="userSpaceOnUse" gradientTransform="matrix(2.4693712,0,0,2.1503758,-373.315,-165.76737)"/>
    <radialGradient cx="257.0206604003906" cy="146.231201171875" r="8.396895408630371" fx="257.0206604003906" fy="146.231201171875" id="radialGradient8925" xlink:href="#linearGradient3375" gradientUnits="userSpaceOnUse" gradientTransform="translate(4.7857143,2.6428578)"/>
    <radialGradient cx="259.2018737792969" cy="144.2177734375" r="8.396895408630371" fx="259.2018737792969" fy="144.2177734375" id="radialGradient8927" xlink:href="#linearGradient3390" gradientUnits="userSpaceOnUse" gradientTransform="matrix(0.5321401,0,0,0.5321401,124.81218,71.058577)"/>
    <radialGradient cx="257.4775085449219" cy="139.5955047607422" r="56.91350173950195" fx="257.4775085449219" fy="139.5955047607422" id="radialGradient8929" xlink:href="#linearGradient4662" gradientUnits="userSpaceOnUse"/>
    <radialGradient cx="257.0206604003906" cy="146.231201171875" r="8.396895408630371" fx="257.0206604003906" fy="146.231201171875" id="radialGradient8960" xlink:href="#linearGradient3405" gradientUnits="userSpaceOnUse" gradientTransform="matrix(2.4693712,0,0,2.1503758,-373.315,-165.76737)"/>
    <radialGradient cx="257.0206604003906" cy="146.231201171875" r="8.396895408630371" fx="257.0206604003906" fy="146.231201171875" id="radialGradient8962" xlink:href="#linearGradient3375" gradientUnits="userSpaceOnUse" gradientTransform="translate(4.7857143,2.6428578)"/>
    <radialGradient cx="259.2018737792969" cy="144.2177734375" r="8.396895408630371" fx="259.2018737792969" fy="144.2177734375" id="radialGradient8964" xlink:href="#linearGradient3390" gradientUnits="userSpaceOnUse" gradientTransform="matrix(0.5321401,0,0,0.5321401,124.81218,71.058577)"/>
    <radialGradient cx="257.4775085449219" cy="139.5955047607422" r="56.91350173950195" fx="257.4775085449219" fy="139.5955047607422" id="radialGradient8966" xlink:href="#linearGradient4662" gradientUnits="userSpaceOnUse"/>
    <radialGradient cx="257.4775085449219" cy="139.5955047607422" r="56.91350173950195" fx="257.4775085449219" fy="139.5955047607422" id="radialGradient8968" xlink:href="#linearGradient4662" gradientUnits="userSpaceOnUse"/>
    <radialGradient cx="257.4775085449219" cy="139.5955047607422" r="56.91350173950195" fx="257.4775085449219" fy="139.5955047607422" id="radialGradient8985" xlink:href="#linearGradient4662" gradientUnits="userSpaceOnUse"/>
    <radialGradient cx="257.4775085449219" cy="139.5955047607422" r="56.91350173950195" fx="257.4775085449219" fy="139.5955047607422" id="radialGradient8987" xlink:href="#linearGradient4662" gradientUnits="userSpaceOnUse"/>
    <radialGradient cx="257.0206604003906" cy="146.231201171875" r="8.396895408630371" fx="257.0206604003906" fy="146.231201171875" id="radialGradient8993" xlink:href="#linearGradient3405" gradientUnits="userSpaceOnUse" gradientTransform="matrix(2.4693712,0,0,2.1503758,-373.315,-165.76737)"/>
    <radialGradient cx="257.0206604003906" cy="146.231201171875" r="8.396895408630371" fx="257.0206604003906" fy="146.231201171875" id="radialGradient8995" xlink:href="#linearGradient3375" gradientUnits="userSpaceOnUse" gradientTransform="translate(4.7857143,2.6428578)"/>
    <radialGradient cx="259.2018737792969" cy="144.2177734375" r="8.396895408630371" fx="259.2018737792969" fy="144.2177734375" id="radialGradient8997" xlink:href="#linearGradient3390" gradientUnits="userSpaceOnUse" gradientTransform="matrix(0.5321401,0,0,0.5321401,124.81218,71.058577)"/>
    <radialGradient cx="257.0206604003906" cy="146.231201171875" r="8.396895408630371" fx="257.0206604003906" fy="146.231201171875" id="radialGradient9012" xlink:href="#linearGradient3405" gradientUnits="userSpaceOnUse" gradientTransform="matrix(2.4693712,0,0,2.1503758,-373.315,-165.76737)"/>
    <radialGradient cx="257.0206604003906" cy="146.231201171875" r="8.396895408630371" fx="257.0206604003906" fy="146.231201171875" id="radialGradient9014" xlink:href="#linearGradient3375" gradientUnits="userSpaceOnUse" gradientTransform="translate(4.7857143,2.6428578)"/>
    <radialGradient cx="259.2018737792969" cy="144.2177734375" r="8.396895408630371" fx="259.2018737792969" fy="144.2177734375" id="radialGradient9016" xlink:href="#linearGradient3390" gradientUnits="userSpaceOnUse" gradientTransform="matrix(0.5321401,0,0,0.5321401,124.81218,71.058577)"/>
    <radialGradient cx="259.2018737792969" cy="144.2177734375" r="8.396895408630371" fx="259.2018737792969" fy="144.2177734375" id="radialGradient9019" xlink:href="#linearGradient3390" gradientUnits="userSpaceOnUse" gradientTransform="matrix(0.4487497,0,0,0.4487497,44.529928,411.75512)"/>
    <radialGradient cx="257.0206604003906" cy="146.231201171875" r="8.396895408630371" fx="257.0206604003906" fy="146.231201171875" id="radialGradient9022" xlink:href="#linearGradient3375" gradientUnits="userSpaceOnUse" gradientTransform="matrix(0.8432924,0,0,0.8432924,-56.687479,354.06066)"/>
    <radialGradient cx="257.0206604003906" cy="146.231201171875" r="8.396895408630371" fx="257.0206604003906" fy="146.231201171875" id="radialGradient9025" xlink:href="#linearGradient3405" gradientUnits="userSpaceOnUse" gradientTransform="matrix(2.082402,0,0,1.8133956,-375.53694,212.0416)"/>
    <radialGradient cx="257.4775085449219" cy="139.5955047607422" r="56.91350173950195" fx="257.4775085449219" fy="139.5955047607422" id="radialGradient9027" xlink:href="#linearGradient4662" gradientUnits="userSpaceOnUse"/>
    <radialGradient cx="257.4775085449219" cy="139.5955047607422" r="56.91350173950195" fx="257.4775085449219" fy="139.5955047607422" id="radialGradient9029" xlink:href="#linearGradient4662" gradientUnits="userSpaceOnUse"/>
    <radialGradient cx="257.4775085449219" cy="139.5955047607422" r="56.91350173950195" fx="257.4775085449219" fy="139.5955047607422" id="radialGradient18503" xlink:href="#linearGradient4662" gradientUnits="userSpaceOnUse" gradientTransform="matrix(0.8432924,0,0,0.8432924,-57.222577,353.21767)"/>
    <radialGradient cx="257.0206604003906" cy="146.231201171875" r="8.396895408630371" fx="257.0206604003906" fy="146.231201171875" id="radialGradient18505" xlink:href="#linearGradient3405" gradientUnits="userSpaceOnUse" gradientTransform="matrix(2.082402,0,0,1.8133956,-375.53694,212.0416)"/>
    <radialGradient cx="257.0206604003906" cy="146.231201171875" r="8.396895408630371" fx="257.0206604003906" fy="146.231201171875" id="radialGradient18507" xlink:href="#linearGradient3375" gradientUnits="userSpaceOnUse" gradientTransform="matrix(0.8432924,0,0,0.8432924,-56.687479,354.06066)"/>
    <radialGradient cx="259.2018737792969" cy="144.2177734375" r="8.396895408630371" fx="259.2018737792969" fy="144.2177734375" id="radialGradient18509" xlink:href="#linearGradient3390" gradientUnits="userSpaceOnUse" gradientTransform="matrix(0.4487497,0,0,0.4487497,44.529928,411.75512)"/>
    <radialGradient cx="257.4775085449219" cy="139.5955047607422" r="56.91350173950195" fx="257.4775085449219" fy="139.5955047607422" id="radialGradient3739" xlink:href="#linearGradient4662" gradientUnits="userSpaceOnUse" gradientTransform="matrix(0.8432924,0,0,0.8432924,-52.128827,313.28328)"/>
    <radialGradient cx="259.2018737792969" cy="144.2177734375" r="8.396895408630371" fx="259.2018737792969" fy="144.2177734375" id="radialGradient3905" xlink:href="#linearGradient3390" gradientUnits="userSpaceOnUse" gradientTransform="matrix(0.6268106,0,0,0.6268106,3.6548491,345.27543)"/>
    <radialGradient cx="257.0206604003906" cy="146.231201171875" r="8.396895408630371" fx="257.0206604003906" fy="146.231201171875" id="radialGradient3908" xlink:href="#linearGradient3375" gradientUnits="userSpaceOnUse" gradientTransform="matrix(1.1779052,0,0,1.1779052,-137.72495,264.6882)"/>
    <radialGradient cx="257.0206604003906" cy="146.231201171875" r="8.396895408630371" fx="257.0206604003906" fy="146.231201171875" id="radialGradient3911" xlink:href="#linearGradient3405" gradientUnits="userSpaceOnUse" gradientTransform="matrix(2.9086852,0,0,2.5329388,-583.09174,66.316926)"/>
    <inkscape:perspective sodipodi:type="inkscape:persp3d" inkscape:vp_x="0 : 526.18109 : 1" inkscape:vp_y="0 : 1000 : 0" inkscape:vp_z="744.09448 : 526.18109 : 1" inkscape:persp3d-origin="372.04724 : 350.78739 : 1" id="perspective9851"/>
    <inkscape:perspective id="perspective9973" inkscape:persp3d-origin="372.04724 : 350.78739 : 1" inkscape:vp_z="744.09448 : 526.18109 : 1" inkscape:vp_y="0 : 1000 : 0" inkscape:vp_x="0 : 526.18109 : 1" sodipodi:type="inkscape:persp3d"/>
    <radialGradient r="300" fy="200.44757080078125" fx="285.18572998046875" cy="200.44757080078125" cx="285.18572998046875" gradientTransform="matrix(1.551284,0,0,1.350335,-227.8943,-51.2635)" gradientUnits="userSpaceOnUse" id="radialGradient11919" xlink:href="#linearGradient2893" inkscape:collect="always"/>
    <radialGradient gradientUnits="userSpaceOnUse" gradientTransform="matrix(0,2.342476,-2.291353,0,562.9126,1323.77)" r="300.0000305175781" fy="153.9282989501953" fx="-483.50823974609375" cy="153.9282989501953" cx="-483.50823974609375" id="radialGradient2928" xlink:href="#linearGradient2955" inkscape:collect="always"/>
    <radialGradient r="300" fy="218.90098571777344" fx="225.52438354492188" cy="218.90098571777344" cx="225.52438354492188" gradientTransform="matrix(-4.167939e-4,2.182867,-1.884232,-3.599562e-4,1395.597,-309.1214)" gradientUnits="userSpaceOnUse" id="radialGradient1911" xlink:href="#linearGradient2955" inkscape:collect="always"/>
    <clipPath id="clip">
      <path id="path10" d="M 0,-200 L 0,600 L 300,600 L 300,-200 L 0,-200 z "/>
    </clipPath>
    <polygon points="0,-1 0.58778525,0.80901699 -0.95105652,-0.30901699 0.95105652,-0.30901699 -0.58778525,0.80901699 0,-1 " transform="scale(53,53)" id="star"/>
    <radialGradient gradientUnits="userSpaceOnUse" gradientTransform="matrix(-4.167939e-4,2.182867,-1.884232,-3.599562e-4,615.5972,-289.1214)" r="300" fy="218.90098571777344" fx="225.52438354492188" cy="218.90098571777344" cx="225.52438354492188" id="radialGradient2961" xlink:href="#linearGradient2955" inkscape:collect="always"/>
    <linearGradient id="linearGradient2955">
      <stop id="stop2965" offset="0" style="stop-color:white;stop-opacity:0;"/>
      <stop id="stop2959" offset="1" style="stop-color:black;stop-opacity:0.64583331;"/>
    </linearGradient>
    <radialGradient gradientUnits="userSpaceOnUse" gradientTransform="matrix(1.360018,0,0,1.355087,-79.5275,-87.64524)" r="300" fy="218.01039123535156" fx="203.19754028320312" cy="218.01039123535156" cx="203.19754028320312" id="radialGradient2883" xlink:href="#linearGradient2893" inkscape:collect="always"/>
    <linearGradient id="linearGradient2893">
      <stop id="stop2895" offset="0" style="stop-color:white;stop-opacity:0.3137255;"/>
      <stop style="stop-color:white;stop-opacity:0.25098041;" offset="0.19" id="stop2897"/>
      <stop id="stop2901" offset="0.60000002" style="stop-color:#6b6b6b;stop-opacity:0.1254902;"/>
      <stop id="stop2899" offset="1" style="stop-color:black;stop-opacity:0.1254902;"/>
    </linearGradient>
    <radialGradient inkscape:collect="always" xlink:href="#linearGradient2893" id="radialGradient3747" gradientUnits="userSpaceOnUse" gradientTransform="matrix(0.8237135,0,0,0.8623293,561.61151,192.79102)" cx="285.18572998046875" cy="200.44757080078125" fx="285.18572998046875" fy="200.44757080078125" r="300"/>
    <radialGradient inkscape:collect="always" xlink:href="#linearGradient2893" id="radialGradient3752" gradientUnits="userSpaceOnUse" gradientTransform="matrix(0.8237135,0,0,0.8623293,561.61151,192.79102)" cx="285.18572998046875" cy="200.44757080078125" fx="285.18572998046875" fy="200.44757080078125" r="300"/>
    <radialGradient inkscape:collect="always" xlink:href="#linearGradient2893" id="radialGradient3757" gradientUnits="userSpaceOnUse" gradientTransform="matrix(0.3485971,0,0,0.2634205,46.378712,35.257209)" cx="285.18572998046875" cy="200.44757080078125" fx="285.18572998046875" fy="200.44757080078125" r="300"/>
    <radialGradient inkscape:collect="always" xlink:href="#linearGradient2893" id="radialGradient3770" gradientUnits="userSpaceOnUse" gradientTransform="matrix(0.3485971,0,0,0.2634205,46.378712,35.257209)" cx="285.18572998046875" cy="200.44757080078125" fx="285.18572998046875" fy="200.44757080078125" r="300"/>
    <radialGradient inkscape:collect="always" xlink:href="#linearGradient2893" id="radialGradient3778" gradientUnits="userSpaceOnUse" gradientTransform="matrix(0.8237135,0,0,0.8623293,-115.29477,192.77851)" cx="285.18572998046875" cy="200.44757080078125" fx="285.18572998046875" fy="200.44757080078125" r="300"/>
    <radialGradient inkscape:collect="always" xlink:href="#linearGradient2893" id="radialGradient3788" gradientUnits="userSpaceOnUse" gradientTransform="matrix(0.8237135,0,0,0.8623293,-115.29477,192.77851)" cx="285.18572998046875" cy="200.44757080078125" fx="285.18572998046875" fy="200.44757080078125" r="300"/>
    <radialGradient inkscape:collect="always" xlink:href="#linearGradient2893" id="radialGradient3790" gradientUnits="userSpaceOnUse" gradientTransform="matrix(0.3485971,0,0,0.2634205,46.378712,35.257209)" cx="285.18572998046875" cy="200.44757080078125" fx="285.18572998046875" fy="200.44757080078125" r="300"/>
    <radialGradient inkscape:collect="always" xlink:href="#linearGradient2893" id="radialGradient3793" gradientUnits="userSpaceOnUse" gradientTransform="matrix(0.3485971,0,0,0.2634205,46.378712,35.257209)" cx="285.18572998046875" cy="200.44757080078125" fx="285.18572998046875" fy="200.44757080078125" r="300"/>
    <radialGradient inkscape:collect="always" xlink:href="#linearGradient2893" id="radialGradient3796" gradientUnits="userSpaceOnUse" gradientTransform="matrix(0.8237135,0,0,0.8623293,-115.29477,192.77851)" cx="285.18572998046875" cy="200.44757080078125" fx="285.18572998046875" fy="200.44757080078125" r="300"/>
    <radialGradient inkscape:collect="always" xlink:href="#linearGradient2893" id="radialGradient3802" gradientUnits="userSpaceOnUse" gradientTransform="matrix(0.8237135,0,0,0.8623293,-115.29477,192.77851)" cx="285.18572998046875" cy="200.44757080078125" fx="285.18572998046875" fy="200.44757080078125" r="300"/>
    <radialGradient inkscape:collect="always" xlink:href="#linearGradient2893" id="radialGradient3804" gradientUnits="userSpaceOnUse" gradientTransform="matrix(0.3485971,0,0,0.2634205,46.378712,35.257209)" cx="285.18572998046875" cy="200.44757080078125" fx="285.18572998046875" fy="200.44757080078125" r="300"/>
  </defs>
  
  
  
  
  
  
  
  
  
  
  
<g class="currentLayer" style=""><title>Layer 1</title><rect fill="#ffffff" style="color: rgb(5, 55, 108);" stroke-dashoffset="" fill-rule="nonzero" id="svg_1" x="8.666702270507812" y="9.333335876464844" width="849.3333740234375" height="849.3333740234375" class="" rx="200" ry="200"/><rect fill="#ffffff" style="color: rgb(5, 55, 108);" stroke-dashoffset="" fill-rule="nonzero" id="svg_3" x="378" y="176" width="1" height="0"/><g id="humanidades" class="">
    <path d="M429,527.00311 L429,739.81561 C429.11109999999996,739.63929 429.21358,739.48042 429.3125,739.28436 C430.79625,736.34351 431.48696,731.39746 448.6875,731.81561 L576.15625,731.81561 C576.53494,731.66673 576.89276,731.53754 577.25,731.37811 C582.60857,728.98669 585.57545,725.36354 586.5,719.06561 L586.5,527.00311 L429,527.00311 z" style="fill:#0071bc;fill-opacity:1;stroke:#000000;stroke-width:1;stroke-miterlimit:4;stroke-dasharray:none;stroke-opacity:1" id="path4183"/>
    <path d="M506.57937000000004,611.77382 C505.49546,604.19877 495.63116,607.25152 497.52719,595.2076099999999 C498.28076,592.00542 501.79246,587.14161 495.7327,584.65715 C497.78477,583.86324 500.35507,584.1836900000001 501.57798,588.08912 C506.78790000000004,582.87697 506.9687,580.32339 503.79442,576.21642 C507.57299,575.84415 512.16148,578.94642 510.45844,584.7135499999999 C511.4651,583.8816400000001 514.05978,586.4306799999999 513.9082,589.93391 C517.73662,595.01379 517.25238,597.70983 513.96891,602.27149 C512.87501,604.20066 507.37366,606.78994 506.57937000000004,611.77382 z" style="fill:#d40000;fill-opacity:1;fill-rule:evenodd;stroke:#000000;stroke-width:0.69999999;stroke-linecap:butt;stroke-linejoin:round;stroke-miterlimit:4;stroke-dasharray:none;stroke-opacity:1" id="path9499"/>
    <path d="M501.62352999999996,587.91278 C499.14464,591.61394 500.77382,593.34123 500.79436999999996,593.61327 " style="fill:#d40000;fill-opacity:1;fill-rule:evenodd;stroke:#000000;stroke-width:0.69999999;stroke-linecap:butt;stroke-linejoin:round;stroke-miterlimit:4;stroke-dasharray:none;stroke-opacity:1" id="path10386"/>
    <path d="M506.18392,586.15081 C505.79308000000003,588.36982 504.99933,589.3835300000001 503.80008,591.33307 C500.89799,595.59067 505.64108,599.09163 505.6657,601.49031 L505.6657,601.2830200000001 " style="fill:#d40000;fill-opacity:1;fill-rule:evenodd;stroke:#000000;stroke-width:0.69999999;stroke-linecap:butt;stroke-linejoin:round;stroke-miterlimit:4;stroke-dasharray:none;stroke-opacity:1" id="path10388"/>
    <path d="M507.94588999999996,592.3695299999999 C507.59505,587.6112 509.7769,587.36085 510.64067,584.18155 " style="fill:#d40000;fill-opacity:1;fill-rule:evenodd;stroke:#000000;stroke-width:0.69999999;stroke-linecap:butt;stroke-linejoin:round;stroke-miterlimit:4;stroke-dasharray:none;stroke-opacity:1" id="path10390"/>
    <path d="M513.8536799999999,589.88204 C514.18343,593.64211 511.03909,594.42166 510.12244999999996,599.5210500000001 " style="fill:#d40000;fill-opacity:1;fill-rule:evenodd;stroke:#000000;stroke-width:0.69999999;stroke-linecap:butt;stroke-linejoin:round;stroke-miterlimit:4;stroke-dasharray:none;stroke-opacity:1" id="path10392"/>
    <polygon points="457.956787109375,680.0001831054688 534.9667358398438,679.6236572265625 557.8492431640625,661.5863037109375 557.8492431640625,661.5863037109375 483.6474304199219,661.467041015625 457.956787109375,680.0001831054688 " style="fill:#eac102;fill-opacity:1;stroke:#000000;stroke-width:2.11872244;stroke-miterlimit:4;stroke-dasharray:none;stroke-opacity:1" id="polygon16561"/>
    <path d="M458.4755,680.06235 L534.24137,679.68449 L556.61663,661.64368 L556.96696,672.39528 L536.1123299999999,690.18865 L458.55613,690.53342 C454.55987,690.59699 454.76536,679.58092 458.4755,680.06235 z" style="fill:#eac102;fill-opacity:1;stroke:#000000;stroke-width:0.69999999;stroke-miterlimit:4;stroke-dasharray:none;stroke-opacity:1" id="path290"/>
    <path d="M502.42179999999996,679.78182 C500.71338000000003,682.77918 500.7645,687.32535 502.49913000000004,690.38725 L498.36721,690.31023 C496.63192000000004,687.38499 496.57851,682.83882 498.14993000000004,679.83819 L502.42179999999996,679.78182 z" style="fill:#d40000;fill-opacity:1;stroke:#000000;stroke-width:0.69999999;stroke-miterlimit:4;stroke-dasharray:none;stroke-opacity:1" id="path377"/>
    <path d="M522.53283,679.74053 C520.9623799999999,682.7405 520.8778199999999,687.28602 522.6124500000001,690.21159 L518.47955,690.27091 C516.74393,687.34729 516.68985,682.8008 518.40057,679.80148 L522.53283,679.74053 z" style="fill:#d40000;fill-opacity:1;stroke:#000000;stroke-width:0.69999999;stroke-miterlimit:4;stroke-dasharray:none;stroke-opacity:1" id="path415"/>
    <path d="M535.32318,680.8053 L556.01821,664.11242 L556.29415,671.55566 L536.7084600000001,687.72091 C534.3292,689.74099 533.49843,682.56386 535.32318,680.8053 z" style="fill:#e3e4e5;fill-opacity:1;stroke:#000000;stroke-width:0.69999999;stroke-miterlimit:4;stroke-dasharray:none;stroke-opacity:1" id="path445"/>
    <path d="M460.71500000000003,667.00487 L536.38063,670.89995 L559.8742500000001,654.15845 L559.48105,664.90201 L537.65463,681.49178 L460.20394999999996,677.46376 C456.21113,677.30202 457.17584999999997,666.32517 460.71500000000003,667.00487 z" style="fill:#eac102;fill-opacity:1;stroke:#000000;stroke-width:0.69999999;stroke-miterlimit:4;stroke-dasharray:none;stroke-opacity:1" id="path259"/>
    <polygon points="460.7149963378906,667.0048828125 536.3806457519531,670.899658203125 559.874267578125,654.1581420898438 559.874267578125,654.1581420898438 486.994873046875,649.924072265625 460.7149963378906,667.0048828125 " style="fill:#eac102;fill-opacity:1;stroke:#000000;stroke-width:2.13595247;stroke-miterlimit:4;stroke-dasharray:none;stroke-opacity:1" id="polygon301"/>
    <path d="M486.17114000000004,668.22969 C484.43375000000003,671.13636 484.09281,675.66953 485.65143,678.82431 L476.57758,678.28117 C475.00998000000004,675.2621 475.21191999999996,670.72009 477.08766,667.8219 L486.17114000000004,668.22969 z" style="fill:#d40000;fill-opacity:1;stroke:#000000;stroke-width:0.69999999;stroke-miterlimit:4;stroke-dasharray:none;stroke-opacity:1" id="path320"/>
    <path d="M537.39653,672.08055 L559.0029999999999,656.57864 L558.86672,663.88784 L538.39155,679.06105 C535.90184,680.94444 535.4870900000001,673.59297 537.39653,672.08055 z" style="fill:#e3e4e5;fill-opacity:1;stroke:#000000;stroke-width:0.69999999;stroke-miterlimit:4;stroke-dasharray:none;stroke-opacity:1" id="path430"/>
    <path d="M545.5232,650.35026 L546.25532,662.18227 L467.06876,662.18227 L468.65497,650.1498 L506.70268999999996,628.34603 L545.5232,650.35026 z" style="fill:#e3e4e5;fill-opacity:1;stroke:#000000;stroke-width:0.69999999;stroke-miterlimit:4;stroke-dasharray:none;stroke-opacity:1" id="path3345"/>
    <path d="M546.6061,660.88663 L467.66637000000003,660.88663 L467.66637000000003,664.3429 L546.6061,664.3429 L546.6061,660.88663 z" style="fill:#eac102;fill-opacity:1;stroke:#000000;stroke-width:0.69999999;stroke-miterlimit:4;stroke-dasharray:none;stroke-opacity:1" id="rect26826"/>
    <path d="M468.81938,661.43087 L473.45643,617.34649 C478.08799999999997,618.89166 482.49852,617.65285 487.78949,612.3579 C493.40335,606.74046 501.25373,604.37682 507.14057,611.72794 L507.16585,656.22655 C501.25373,648.85876 491.57306,648.83875 485.5933,654.65469 C480.26166,659.84066 473.81722,662.18205 468.81938,661.43087 z" style="fill:#e3e4e5;fill-opacity:1;stroke:#000000;stroke-width:0.69999999;stroke-miterlimit:4;stroke-dasharray:none;stroke-opacity:1" id="path26820"/>
    <path d="M469.0575,658.40393 L473.69455,614.31954 C478.32610999999997,615.86471 482.73663,614.62591 488.02761,609.33095 C493.64147,603.71351 501.49185,601.34988 507.37868000000003,608.70099 L507.40396,653.19961 C501.49185,645.83181 491.81118000000004,645.8118 485.83142,651.62775 C480.49977,656.81372 474.05534,659.1551 469.0575,658.40393 z" style="fill:#e3e4e5;fill-opacity:1;stroke:#000000;stroke-width:0.69999999;stroke-miterlimit:4;stroke-dasharray:none;stroke-opacity:1" id="path26822"/>
    <path d="M468.82083,653.57518 L473.45752,609.05575 C478.08875,610.61617 482.49893,609.36514 487.78951,604.01793 C493.40294,598.3450700000001 501.25273000000004,595.9581000000001 507.13912,603.38176 L507.1644,648.3195 C501.25273000000004,640.879 491.57280000000003,640.85879 485.59348,646.73213 C480.26224,651.96928 473.81829,654.33376 468.82083,653.57518 z" style="fill:#e3e4e5;fill-opacity:1;stroke:#000000;stroke-width:0.69999999;stroke-miterlimit:4;stroke-dasharray:none;stroke-opacity:1" id="path26824"/>
    <path d="M468.72057,645.28965 L473.35692,601.90294 C477.98815,604.59482 482.39833,604.42125 487.68926,600.36667 C493.30268,596.06522 501.15211999999997,595.5959700000001 507.03886,604.4578200000001 L507.0638,649.40165 C501.15211999999997,640.51687 491.4722,638.13174 485.49287000000004,642.54426 C480.16163,646.47893 473.71768,647.26909 468.72057,645.28965 z" style="fill:#e3e4e5;fill-opacity:1;stroke:#000000;stroke-width:0.69999999;stroke-miterlimit:4;stroke-dasharray:none;stroke-opacity:1" id="path3283"/>
    <path d="M545.33403,657.39445 L540.6969799999999,614.44295 C536.06542,617.11966 531.6549,616.9584 526.36392,612.95609 C520.7500600000001,608.71018 512.89969,608.26448 507.01284999999996,617.05382 L506.98757,661.55861 C512.89969,652.74642 522.58035,650.36131 528.56011,654.71633 C533.89176,658.59972 540.33619,659.36666 545.33403,657.39445 z" style="fill:#e3e4e5;fill-opacity:1;stroke:#000000;stroke-width:0.69999999;stroke-miterlimit:4;stroke-dasharray:none;stroke-opacity:1" id="path26818"/>
    <path d="M545.09591,654.42568 L540.4588699999999,611.47418 C535.8272999999999,614.1509 531.41678,613.98963 526.1258,609.98732 C520.51194,605.74141 512.66157,605.29571 506.77473,614.08505 L506.74945,658.58984 C512.66157,649.77765 522.34224,647.39254 528.322,651.74756 C533.65364,655.63095 540.09808,656.39789 545.09591,654.42568 z" style="fill:#e3e4e5;fill-opacity:1;stroke:#000000;stroke-width:0.69999999;stroke-miterlimit:4;stroke-dasharray:none;stroke-opacity:1" id="path26816"/>
    <path d="M545.33259,649.53911 L540.69589,606.15248 C536.06467,608.84436 531.65449,608.67079 526.3639000000001,604.61613 C520.75047,600.3146899999999 512.9006899999999,599.8455200000001 507.01428999999996,608.70728 L506.98901,653.6512 C512.9006899999999,644.76642 522.58062,642.38129 528.55994,646.79381 C533.8911800000001,650.72848 540.3351299999999,651.51863 545.33259,649.53911 z" style="fill:#e3e4e5;fill-opacity:1;stroke:#000000;stroke-width:0.69999999;stroke-miterlimit:4;stroke-dasharray:none;stroke-opacity:1" id="path26814"/>
    <path d="M545.32744,645.26178 L540.69074,601.8751500000001 C536.05952,604.5670299999999 531.64933,604.39346 526.35875,600.3388 C520.74532,596.0373500000001 512.89554,595.56818 507.00914,604.42995 L506.98386,649.37386 C512.89554,640.48908 522.57547,638.10395 528.55479,642.51647 C533.88603,646.45114 540.32998,647.2413 545.32744,645.26178 z" style="fill:#e3e4e5;fill-opacity:1;stroke:#000000;stroke-width:0.69999999;stroke-miterlimit:4;stroke-dasharray:none;stroke-opacity:1" id="path3341"/>
  </g><g id="medicina" class="">
    <path d="M429,322.94061 L429,527.00311 L586.5,527.00311 L586.5,322.94061 L429,322.94061 z" style="fill:#eac102;fill-opacity:1;stroke:#000000;stroke-width:0.69999999;stroke-miterlimit:4;stroke-dasharray:none;stroke-opacity:1" id="path4190"/>
    <path d="M554.52734,475.81335 C558.94982,481.08385 554.4322500000001,484.87454 550.00978,479.60404 L460.56514000000004,377.59533 C455.51088,371.57191 464.54602,363.99053 469.60027,370.01395 L556.42269,478.07214 L554.52734,475.81335 z" style="fill:#784421;fill-rule:evenodd;stroke:#000000;stroke-width:0.69999999;stroke-miterlimit:4;stroke-dasharray:none;stroke-opacity:1" id="rod"/>
    <path d="M542.72432,460.62561 C550.5364400000001,459.29746 554.35969,470.14787 549.8022599999999,473.89054 C548.20252,468.84512 546.4669799999999,465.18305 542.72432,460.62561 zM517.82646,429.97211 C531.0361700000001,430.57049 535.2941900000001,443.83442 532.4722899999999,451.23915 C529.78619,457.26053 532.98764,459.94566 537.97785,466.02224 C524.90393,464.04051 522.3814600000001,454.43864 525.33915,445.65056 C526.64191,439.49338 522.1929,435.28912 517.82646,429.97211 zM499.69613000000004,407.4441 C506.55768,415.79939 496.39921000000004,427.44622 501.38941,433.5228 C503.26075000000003,435.80152 507.76299,439.73518 513.43219,438.895 C506.57063,430.5397 512.78301,424.16614 513.5977800000001,415.86605 C514.54835,406.18261 506.18009,398.30384 492.21081000000004,398.32923 C494.70591,401.36752 497.20101999999997,404.40581 499.69613000000004,407.4441 zM487.72152,409.1359 C475.13558,409.29709 463.3644,401.15818 460.7887,391.82692 C456.82964000000004,382.35987 469.1186,370.99608 474.10881,377.07266 C479.09904,383.14924 460.7887,391.82692 474.21481,397.33492 L479.61242,399.26145 L487.72152,409.1359 z" style="fill:#ffeeaa;fill-opacity:1;fill-rule:evenodd;stroke:#000000;stroke-width:0.69999999;stroke-miterlimit:4;stroke-dasharray:none;stroke-opacity:1" id="body"/>
    <path d="M469.74644,381.04526 C462.30478,381.85302 474.29368999999997,375.09939 469.74644,381.04526 z" style="fill:#ffeeaa;fill-opacity:1;fill-rule:evenodd;stroke:#000000;stroke-width:0.69999999;stroke-miterlimit:4;stroke-dasharray:none;stroke-opacity:1" id="eye"/>
    <path d="M473.51141,379.41942 C476.95365000000004,373.02442 479.60807,378.37257 484.04822,375.23008 " style="fill:none;fill-rule:evenodd;stroke:#000000;stroke-width:0.69999999;stroke-linecap:round;stroke-linejoin:miter;stroke-miterlimit:4;stroke-dasharray:none;stroke-opacity:1" id="path6604"/>
  </g><g id="derecho" class="">
    <path d="M271.5,322.94061 L271.5,527.00311 L429,527.00311 L429,322.94061 L271.5,322.94061 z" style="fill:#008f4c;fill-opacity:1;stroke:#000000;stroke-width:0.69999999;stroke-miterlimit:4;stroke-dasharray:none;stroke-opacity:1" id="path4198"/>
    <path d="M316.289789,367.81394 C316.188326,367.87562 316.133271,367.98263 316.121753,368.14943 C317.066338,368.14943 317.243222,368.38408 317.192944,370.29809 C317.158721,371.59572000000003 316.668272,372.37466 315.756802,372.51686 C314.846292,372.65891 314.108407,371.92015 314.08576800000003,371.09305 C313.958012,372.13962 314.572437,373.06651 315.7078,372.93406 C316.785355,372.80835 317.637908,372.06265 317.6107,371.02971 C317.588804,370.19075 317.578942,369.48325 317.565847,368.71388 C317.55377,368.00411 316.838485,367.75754 316.289789,367.81394 z" style="fill:#e3e4e5;fill-opacity:1;fill-rule:nonzero;stroke:#000000;stroke-width:0.69999999;stroke-linecap:square;stroke-linejoin:miter;marker:none;marker-start:none;marker-mid:none;marker-end:none;stroke-miterlimit:4;stroke-dasharray:none;stroke-dashoffset:0;stroke-opacity:1;visibility:visible;display:inline;overflow:visible;enable-background:accumulate" id="path3780"/>
    <path d="M384.24221,367.81394 C384.34367,367.87562 384.39873,367.98263 384.41024,368.14943 C383.46566,368.14943 383.28878,368.38408 383.33905,370.29809 C383.37327,371.59572000000003 383.86372,372.37466 384.7752,372.51686 C385.68571,372.65891 386.42359,371.92015 386.44623,371.09305 C386.57399,372.13962 385.95956,373.06651 384.8242,372.93406 C383.74664,372.80835 382.89409,372.06265 382.9213,371.02971 C382.94319,370.19075 382.95305,369.48325 382.96614999999997,368.71388 C382.97823,368.00411 383.69352000000003,367.75754 384.24221,367.81394 z" style="fill:#e3e4e5;fill-opacity:1;fill-rule:nonzero;stroke:#000000;stroke-width:0.69999999;stroke-linecap:square;stroke-linejoin:miter;marker:none;marker-start:none;marker-mid:none;marker-end:none;stroke-miterlimit:4;stroke-dasharray:none;stroke-dashoffset:0;stroke-opacity:1;visibility:visible;display:inline;overflow:visible;enable-background:accumulate" id="path3788"/>
    <path d="M317.640366,369.0915 L382.89164,369.0915 L382.89164,370.80031 L317.640366,370.80031 L317.640366,369.0915 z" style="fill:#e3e4e5;fill-opacity:1;fill-rule:nonzero;stroke:#000000;stroke-width:0.69999999;stroke-linecap:square;stroke-linejoin:miter;marker:none;marker-start:none;marker-mid:none;marker-end:none;stroke-miterlimit:4;stroke-dasharray:none;stroke-dashoffset:0;stroke-opacity:1;visibility:visible;display:inline;overflow:visible;enable-background:accumulate" id="rect3778"/>
    <path d="M385.0872,372.36727 L370.18647,408.63298 " style="fill:#e3e4e5;fill-opacity:1;fill-rule:evenodd;stroke:#000000;stroke-width:0.69999999;stroke-linecap:butt;stroke-linejoin:miter;stroke-miterlimit:4;stroke-dasharray:none;stroke-opacity:1;display:inline" id="path3814"/>
    <path d="M385.04528,372.33808 L400.00514,408.65893 " style="fill:#e3e4e5;fill-opacity:1;fill-rule:evenodd;stroke:#000000;stroke-width:0.69999999;stroke-linecap:butt;stroke-linejoin:miter;stroke-miterlimit:4;stroke-dasharray:none;stroke-opacity:1;display:inline" id="path3818"/>
    <path d="M385.08537,372.4898 L385.10431,408.63956 " style="fill:#e3e4e5;fill-opacity:1;fill-rule:evenodd;stroke:#000000;stroke-width:0.69999999;stroke-linecap:butt;stroke-linejoin:miter;stroke-miterlimit:4;stroke-dasharray:none;stroke-opacity:1" id="path3828"/>
    <path d="M330.371741,408.70036 C330.371837,411.88481 327.520698,414.82705 322.893642,416.41738 C318.266587,418.00772 312.567608,418.00419 307.9461,416.40813 C303.32459200000005,414.81207 300.483705,411.86631 300.49489100000005,408.68186 L315.43330000000003,408.70036 L330.371741,408.70036 z" style="fill:#e3e4e5;fill-opacity:1;fill-rule:nonzero;stroke:#000000;stroke-width:0.69999999;stroke-linecap:square;stroke-linejoin:miter;marker:none;marker-start:none;marker-mid:none;marker-end:none;stroke-miterlimit:4;stroke-dasharray:none;stroke-dashoffset:0;stroke-opacity:1;visibility:visible;display:inline;overflow:visible;enable-background:accumulate" id="path3832"/>
    <path d="M315.427391,372.36727 L300.52664300000004,408.63298 " style="fill:#e3e4e5;fill-opacity:1;fill-rule:evenodd;stroke:#000000;stroke-width:0.69999999;stroke-linecap:butt;stroke-linejoin:miter;stroke-miterlimit:4;stroke-dasharray:none;stroke-opacity:1;display:inline" id="path3834"/>
    <path d="M315.385468,372.33808 L330.345332,408.65893 " style="fill:#e3e4e5;fill-opacity:1;fill-rule:evenodd;stroke:#000000;stroke-width:0.69999999;stroke-linecap:butt;stroke-linejoin:miter;stroke-miterlimit:4;stroke-dasharray:none;stroke-opacity:1;display:inline" id="path3836"/>
    <path d="M315.425553,372.4898 L315.444498,408.63957 " style="fill:#e3e4e5;fill-opacity:1;fill-rule:evenodd;stroke:#000000;stroke-width:0.69999999;stroke-linecap:butt;stroke-linejoin:miter;stroke-miterlimit:4;stroke-dasharray:none;stroke-opacity:1" id="path3838"/>
    <path d="M399.94803,408.70036 C399.94812,411.88481 397.09699,414.82705 392.46993,416.41738 C387.84287,418.00772 382.14389,418.00419 377.52239,416.40813 C372.90088000000003,414.81207 370.05998999999997,411.86631 370.07118,408.68186 L385.00959,408.70036 L399.94803,408.70036 z" style="fill:#e3e4e5;fill-opacity:1;fill-rule:nonzero;stroke:#000000;stroke-width:0.69999999;stroke-linecap:square;stroke-linejoin:miter;marker:none;marker-start:none;marker-mid:none;marker-end:none;stroke-miterlimit:4;stroke-dasharray:none;stroke-dashoffset:0;stroke-opacity:1;visibility:visible;display:inline;overflow:visible;enable-background:accumulate" id="path2355"/>
    <path d="M347.39369999999997,476.31045 C349.317398,484.07991 351.75228400000003,484.07991 353.581815,476.31045 C355.411344,468.54098 355.97634700000003,458.97754 353.958484,451.20808 C351.940618,443.43861 348.658229,443.43861 346.640366,451.20808 C344.622503,458.97754 345.470003,468.54098 347.39369999999997,476.31045 z" style="fill:#e3e4e5;fill-opacity:1;fill-rule:nonzero;stroke:#000000;stroke-width:0.69999999;stroke-miterlimit:4;stroke-dasharray:none;stroke-opacity:1" id="rect4549"/>
    <path d="M346.39938,449.35335 L354.19946600000003,449.35335 L353.069463,377.3006 L350.299423,371.07202 L347.529384,377.3006 L346.39938,449.35335 z" style="fill:#e3e4e5;fill-opacity:1;fill-rule:nonzero;stroke:#000000;stroke-width:0.69999999;stroke-miterlimit:4;stroke-dasharray:none;stroke-opacity:1" id="rect2770"/>
    <path d="M349.9211,448.70311 L350.202761,380.16593 L351.051103,448.70311 L349.9211,448.70311 z" style="fill:#000000;fill-opacity:1;fill-rule:evenodd;stroke:#000000;stroke-width:0.69999999;stroke-linecap:butt;stroke-linejoin:miter;stroke-miterlimit:4;stroke-dasharray:none;stroke-opacity:1" id="path2773"/>
    <path d="M348.235857,480.13598 C348.16253,479.9598 348.090794,479.786 348.023983,479.61079 L353.927073,476.2029 C353.868194,476.45268 353.806381,476.70093 353.744627,476.94984 L348.235857,480.13598 zM347.200023,476.99652 C347.150256,476.81023 347.10103300000003,476.62311 347.052886,476.43632 L354.774576,471.97221 C354.734503,472.21397 354.693865,472.45459 354.650982,472.69581 L347.200023,476.99652 zM346.417261,473.71701 C346.376393,473.52454 346.332757,473.33217 346.29366400000004,473.1393 L355.310151,467.93409 C355.28763200000003,468.16414 355.264709,468.3929 355.239525,468.62267 L346.417261,473.71701 zM345.793402,470.33829 C345.762817,470.14197 345.733804,469.94553 345.705121,469.74891 L355.563226,464.05353 C355.556521,464.27307 355.54894,464.49345 355.53968299999997,464.71293000000003 L345.793402,470.33829 zM345.357881,466.85454 C345.338298,466.6519 345.316503,466.45047 345.299028,466.24765 L355.551453,460.32468 C355.55942600000003,460.53711 355.563667,460.74821 355.569111,460.96075 L345.357881,466.85454 zM345.116578,463.25991 C345.109415,463.04852 345.10368900000003,462.83529 345.098923,462.62385 L355.292496,456.73589 C355.314305,456.93943 355.332001,457.14483 355.351349,457.34861 L345.116578,463.25991 zM345.116578,459.52523 C345.12411,459.30531 345.129865,459.08565 345.140121,458.86583 L354.792234,453.29299 C354.807344,453.36054 354.82408,453.43006 354.839317,453.49723 C354.861477,453.62412 354.882909,453.74949 354.90405699999997,453.87653 L345.116578,459.52523 zM345.393193,455.633 C345.428524,455.39901 345.462912,455.16286 345.49913200000003,454.92691 L354.00946899999997,450.00764 C354.06289200000003,450.19397 354.11354,450.38004 354.16249,450.56784 L345.393193,455.633 z" style="fill:#e3e4e5;fill-opacity:1;fill-rule:nonzero;stroke:#000000;stroke-width:0.69999999;stroke-miterlimit:4;stroke-dasharray:none;stroke-opacity:1" id="path16111"/>
    <rect width="30.485395431518555" height="3.991960287094116" x="887.0567321777344" y="-415.87554931640625" transform="translate(-552, 36) scale(1, -1)" style="fill:#e3e4e5;fill-opacity:1;fill-rule:nonzero;stroke:#000000;stroke-width:0.69999999;stroke-miterlimit:4;stroke-dasharray:none;stroke-opacity:1" id="rect1882"/>
    <path d="M355.721432,475.20796 C355.722549,472.23813 353.294705,469.83001 350.299423,469.83001 C347.30414,469.83001 344.876296,472.23813 344.877413,475.20796 C344.876296,478.1778 347.30414,480.58591 350.299423,480.58591 C353.294705,480.58591 355.722549,478.1778 355.721432,475.20796 z" style="fill:#e3e4e5;fill-opacity:1;fill-rule:nonzero;stroke:#000000;stroke-width:0.69999999;stroke-miterlimit:4;stroke-dasharray:none;stroke-opacity:1" id="path5443"/>
    <path d="M352.58783900000003,475.20795 C352.58831499999997,473.95449 351.56361300000003,472.93811 350.299413,472.93811 C349.035215,472.93811 348.010513,473.95449 348.010989,475.20795 C348.010513,476.46141 349.035215,477.47779 350.299413,477.47779 C351.56361300000003,477.47779 352.58831499999997,476.46141 352.58783900000003,475.20795 L352.58783900000003,475.20795 z" style="fill:#e3e4e5;fill-opacity:1;fill-rule:nonzero;stroke:#000000;stroke-width:0.69999999;stroke-miterlimit:4;stroke-dasharray:none;stroke-opacity:1" id="path5441"/>
  </g><g id="ingenieria" class="">
    <path d="M271.5,527.00311 L271.5,719.06561 C272.80575650000003,725.56875 274.96327099999996,730.24075 281.90625,731.81561 L409.3125,731.81561 C427.27161,731.22606 426.77341,737.21767 429,739.81561 L429,527.00311 L271.5,527.00311 z" style="fill:#d40000;fill-opacity:1;stroke:#000000;stroke-width:1;stroke-miterlimit:4;stroke-dasharray:none;stroke-opacity:1" id="path4185"/>
    <path d="M327.485636,645.44785 C325.715394,646.81249 324.043771,647.50463 322.517092,647.50463 C318.808951,647.50463 315.242466,643.34814 314.705132,642.69472 L313.622545,645.38697 C313.797074,645.61085 317.949307,650.87134 322.517092,650.87134 C324.278369,650.87134 326.179359,650.09447 328.166867,648.56234 L327.485636,645.44785 z" style="fill:#eac102;fill-opacity:1;stroke:#000000;stroke-width:0.69999999;stroke-linecap:round;stroke-linejoin:round;stroke-miterlimit:4;stroke-dasharray:none;stroke-opacity:1" id="path1976"/>
    <path d="M320.444412,640.95638 C320.001665,640.27181 319.213894,640.6674 318.676859,641.84996 C318.147146,643.0168 318.059882,644.51415 318.470652,645.23855 C318.725721,644.62188 319.010227,643.95808 319.328055,643.24546 C319.713423,642.38134 320.087136,641.62327 320.444412,640.95638 z" style="fill:#eac102;fill-opacity:1;stroke:#000000;stroke-width:0.69999999;stroke-linecap:round;stroke-linejoin:round;stroke-miterlimit:4;stroke-dasharray:none;stroke-opacity:1" id="path1978"/>
    <path d="M324.589921,640.95638 C325.032668,640.27181 325.820439,640.6674 326.357474,641.84996 C326.887187,643.0168 326.974451,644.51415 326.563681,645.23855 C326.308762,644.62188 326.024106,643.95808 325.706428,643.24546 C325.32091,642.38134 324.947197,641.62327 324.589921,640.95638 z" style="fill:#eac102;fill-opacity:1;stroke:#000000;stroke-width:0.69999999;stroke-linecap:round;stroke-linejoin:round;stroke-miterlimit:4;stroke-dasharray:none;stroke-opacity:1" id="path1980"/>
    <path d="M322.848966,634.16095 L324.208289,633.22725 L336.67514900000003,664.22961 C333.227009,658.43999 331.270731,657.31943 331.270731,657.31943 C331.270731,657.31943 331.138041,654.7669 330.209661,652.77494 C329.28128100000004,650.78296 328.419246,651.15639 328.419246,651.15639 C328.419246,651.15639 328.114119,649.29516 326.436072,645.23855 C326.820245,644.561 326.738509,643.16045 326.243164,642.06936 C325.740945,640.96339 325.004128,640.59333 324.590071,641.23357 C322.710448,637.72658 321.32408,636.96234 321.32408,636.96234 L321.32408,634.16095 L322.848966,634.16095 L322.848966,634.16095 z" style="fill:#eac102;fill-opacity:1;stroke:#000000;stroke-width:0.69999999;stroke-linecap:round;stroke-linejoin:round;stroke-miterlimit:4;stroke-dasharray:none;stroke-opacity:1" id="path1982"/>
    <path d="M322.185367,634.16095 L320.826044,633.22725 L308.359184,664.22961 C311.807474,658.43999 313.763602,657.31943 313.763602,657.31943 C313.763602,657.31943 313.896292,654.7669 314.824672,652.77494 C315.753052,650.78296 316.615087,651.15639 316.615087,651.15639 C316.615087,651.15639 316.920214,649.29516 318.598262,645.23855 C318.214088,644.561 318.295825,643.16045 318.79116899999997,642.06936 C319.293388,640.96339 320.030205,640.59333 320.444412,641.23357 C322.324035,637.72658 323.710403,636.96234 323.710403,636.96234 L323.710403,634.16095 L322.185367,634.16095 L322.185367,634.16095 z" style="fill:#eac102;fill-opacity:1;stroke:#000000;stroke-width:0.69999999;stroke-linecap:round;stroke-linejoin:round;stroke-miterlimit:4;stroke-dasharray:none;stroke-opacity:1" id="path1984"/>
    <circle cx="1861.930419921875" cy="357.76092529296875" r="15.086997985839844" transform="matrix(0.149425, 0, 0, 0.280559, 44.2996, 531.01)" style="fill:#eac102;fill-opacity:1;stroke:#000000;stroke-width:3.41879892;stroke-linecap:round;stroke-linejoin:round;stroke-miterlimit:4;stroke-dasharray:none;stroke-opacity:1" id="circle1986"/>
    <circle cx="1861.930419921875" cy="357.76092529296875" r="6.741943359375" transform="matrix(0.149425, 0, 0, 0.280559, 44.2996, 531.01)" style="fill:#eac102;fill-opacity:1;stroke:#000000;stroke-width:3.41879892;stroke-linecap:round;stroke-linejoin:round;stroke-miterlimit:4;stroke-dasharray:none;stroke-opacity:1" id="circle1988"/>
    <path d="M396.27911,648.69165 C391.63529,661.38196 377.58275000000003,667.90485 364.89390000000003,663.26156 C352.203886,658.61785 345.681149,644.56562 350.32493,631.87542 C354.968543,619.18569 369.02012,612.66364 381.71013,617.30735 C394.39898,621.95064 400.92272,636.00191 396.27911,648.69165 L396.27911,648.69165 z" style="fill:#0071bc;fill-opacity:1;stroke:#000000;stroke-width:0.69999999;stroke-miterlimit:4;stroke-dasharray:none;stroke-opacity:1" id="path3214"/>
    <path d="M381.22378000000003,618.26401 L378.54254000000003,617.621 L375.09754,617.33251 L374.28285,617.71067 L375.73019,619.76194 L375.45738,620.50747 L374.42539,621.01745 L374.68163,623.43594 L375.50266999999997,623.27144 L376.8511,622.24324 C378.31595,622.31795 379.68554,622.28801 381.14806,622.16721 L383.10938,619.92618 L381.22378000000003,618.26401 zM375.07942,616.22692 L373.94383,615.98044 L373.23098,616.31133 L372.31905,616.14669 L371.45074,616.20936 L371.00977,616.25933 L370.67698,616.47569 L371.68980999999997,617.05766 L372.27354,616.84859 L373.19911,616.97595 C373.88655,616.90569 374.54146000000003,616.93342 375.23394,616.95975 L375.07942,616.22692 zM369.23859,616.71016 L368.90215,617.05199 L368.63569,618.01117 L367.74645,618.36206 L366.95447,619.25574 L367.77456,619.55584 L368.5629,618.78763 C369.02534,618.66227 369.50199,618.5272 369.96767,618.41406 L370.67864,619.01237 C371.10515,619.60573 371.54332,620.20246 371.97051999999996,620.79541 L373.11433999999997,620.32635 L372.31882,619.61257 L372.19888000000003,618.55425 L370.66417,617.78131 L370.76694,617.26943 L369.91592,617.16935 L369.32126,617.75483 L369.23859,616.71016 zM366.9019,616.7427 L366.07264,617.62274 C366.07264,617.62274 365.30949,617.50354 365.10978,617.48174 C361.981939,618.78121 355.543072,621.7309 351.23069499999997,630.11309 C351.199642,630.33266 351.546085,631.79241 351.546085,631.79241 L352.953443,633.49091 L354.565411,634.63026 L354.956293,635.87226 L355.835424,637.16613 L356.533691,637.33711 L356.973723,637.75174 L356.91916100000003,637.90084 L355.579784,639.48184 L354.771452,640.07367 L354.821432,640.51463 L353.842122,641.80471 L354.34743100000003,645.1597 L355.422003,647.07456 L355.738332,648.28928 L354.927183,650.27492 L354.988925,651.60781 L353.685886,653.66705 C353.685886,653.66705 353.619986,653.64488 353.604042,653.8907 C353.58864,654.13686 355.308528,656.68447 355.93874,656.5203 C356.157112,656.46341 356.332442,656.36849 356.332442,656.36849 L356.360662,655.82933 L357.277179,655.4039 L357.78364899999997,654.82842 L359.038366,654.86488 L360.673252,653.05388 L360.630565,652.36198 L361.540731,651.72288 L362.917274,651.88846 L364.14753,650.60568 L364.70772999999997,648.61275 L366.23255,647.56456 L366.95092,646.179 C365.80622,644.97377 364.68018,643.74838 363.55341599999997,642.52647 L363.33621700000003,640.92535 L362.177925,640.16335 L362.17532900000003,638.09128 L360.392384,637.65018 L359.33416,636.03717 L357.301099,636.85711 L357.232896,637.04349 C356.817862,636.73974 356.249364,636.50671 355.92914,636.10146 L355.934663,635.04679 L356.330242,633.96578 L355.282841,633.7093 C355.615228,633.06532 355.961084,632.39824 356.294015,631.7546 L355.697584,631.53634 L354.814697,632.10088 L354.109141,632.18084 L353.429098,631.38251 L353.75012300000003,630.27422 L354.32209,629.17322 L355.930524,628.70511 L356.974281,629.08705 L357.341639,628.5452 L358.537208,629.32084 L359.046273,630.81743 L359.904695,628.93363 L362.03594599999997,628.19189 L363.164362,626.95637 L364.53454999999997,626.90829 L365.5602,626.18465 L367.18404,626.48299 L368.38971,625.6139 C367.62299,625.33332 366.84527,625.04873 366.07854,624.76816 L367.79152,624.5919 L368.79799,624.96021 L370.42913,625.00762 L370.82012,624.51668 L370.47557,623.84111 L369.94734,623.43648 L370.35198,622.90827 L370.21839,621.88722 L369.07550000000003,621.89168 L369.49742000000003,621.20072 L368.55009,620.09324 L367.01797999999997,621.39237 L366.88792,621.97879 L365.81959,622.01053 L364.75937999999996,623.05966 L364.9213,621.80862 L363.563919,620.55108 L363.616714,619.59825 L366.20529,619.10839 L367.45094,618.59206 L367.95835,617.55198 L367.53196,617.10007 L366.9019,616.7427 zM390.75918,625.47291 L389.01986,625.25911 L387.73057,625.54813 L387.51232,626.14455 L385.52747,626.60172 L385.29006,628.29009 L386.46751,627.96014 L386.81842,628.84937 L387.35299,629.46767 L388.22318,628.4758 L388.20777,627.70934 L388.64603999999997,627.32024 L389.8917,626.80391 L390.30174,626.95396 L389.53704,627.77309 L389.22330999999997,628.63044 C389.65368,628.66715 390.06561999999997,628.7838 390.48437,628.88057 L389.09325,629.21686 L388.84137,629.67417 L387.17837,630.29139 L385.9828,629.51575 L386.26925,628.73295 L385.52278,628.92473 L385.53818,629.69119 L384.60626,629.35017 L383.77065,630.01654 L382.87777,630.4929 L381.62669,630.33096 L382.08943,631.26111 L381.993,631.98664 L381.13563,631.6729 L379.83635,631.87373 L379.20888,633.58844 L379.69348,633.76577 L379.98711000000003,634.46497 L381.22184,634.32505 L382.0511,633.445 L382.97397,633.23323 L383.29676,632.92868 L384.6733,633.09426 L385.07147,634.08532 L385.70424,634.78182 L384.98046,635.48912 L385.71965,635.54828 L386.36888,634.81369 L385.86616,633.53077 L386.20166,633.65354 L386.8135,634.63825 L386.64522999999997,635.67564 L387.07703,636.80581 L387.7272,635.60662 L388.20545,635.57029 C388.46662000000003,636.16161 388.61711,636.81144 388.79177,637.43329 L390.01827000000003,638.00891 L390.62376,638.77996 L390.12458,639.10451 L389.08259,639.5263 L387.96428000000003,639.11707 L386.72508,638.11412 L385.91498,637.90221 L385.12394,638.33129 L384.14485,636.1555 L383.12202,635.48534 L381.45091,635.08516 L379.8607,634.92592 C378.71107,635.54974 377.57108,636.17338 376.45192,636.84861 L374.70156,638.74416 L374.93428,639.3788 L373.76588,640.26155 L373.88666,642.5882 C374.31115,643.67258 374.72522,644.75502 375.14844,645.8396 L376.53321,645.28964 L376.8132,646.02612 L378.2416,645.70346 L378.45069,646.28719 L379.60627,646.71006 L380.00445,647.70112 L379.11698,648.85573 L379.59605999999997,650.08774 L378.93495,651.66333 L379.10853,653.03715 L378.35746,653.819 C378.05545,654.51289 377.76503,655.20693 377.50539000000003,655.91646 C377.50273,657.00544 377.47254,658.10353 377.4479,659.19231 L377.14957,660.81612 L376.86312,661.59892 L377.45955,661.81717 L378.59609,661.59905 L379.7144,662.00828 L382.05026,660.7074 L382.09576,660.0055 L383.53145,659.43191 L383.07601,658.25082 L384.34531,657.7854 L385.49548,657.53001 L386.08286,657.19547 L386.24113,656.06989 C386.57024,655.17053 386.89411,654.28549 387.22326,653.38601 L388.56899,652.01868 L389.89649,651.27869 L391.85417,649.16313 L392.0997,648.49216 C391.5859,648.3743 391.09837,648.21179 390.60498,648.07199 L391.94248,647.4202 L393.70002,647.00665 L394.77293,646.38484 L395.12759,645.41566 C395.07475,645.03173 395.03801999999996,644.69079 394.98401,644.30643 L394.00293,644.79277 L393.72294,644.0563 L393.15837,643.17342 L393.60851,641.94331 L394.13486,643.27714 L395.15863,643.4827 C395.45662,644.05109 395.77693,644.62308 395.99954,645.22753 L396.90606,644.7139 C397.18663000000004,643.94718 397.67922,639.83707 396.98482,635.95103 C396.29003,632.06604 394.11492999999996,627.96892 394.11492999999996,627.96893 L393.70394999999996,628.28348 L392.49192,628.93892 L391.79647,627.37413 L392.91478,627.78336 L393.60399,627.40154 L391.74108,626.2549 L390.75918,625.47291 zM381.83352,623.6438 L381.02612,623.77102 L380.73154999999997,623.53643 L380.43875,624.10557 L380.89877,624.69658 L382.15078,624.39392 L381.83352,623.6438 zM370.54494,619.72426 L369.65934,619.94967 L370.31211,620.82256 L371.02037,621.08173 L371.2659,620.41076 L370.54494,619.72426 zM383.19713,626.84793 L382.97888,627.44435 L383.17797,627.93988 L382.86424,628.79724 L382.25499,629.88459 L383.25512000000003,630.03923 L384.20891,629.62744 L383.81709,628.85004 C383.81197,628.24347 383.74522,627.62848 383.68173,627.02527 L383.19713,626.84793 zM382.43878,627.88072 L381.77415,627.84885 L381.52768000000003,628.98443 L382.4469,628.89812 L382.43878,627.88072 zM370.01814,625.32217 L369.78802,626.7596 L370.59635000000003,626.16777 L370.01814,625.32217 zM389.5171,640.9956 L390.09072000000003,642.43127 L390.34603,645.31437 L390.73055999999997,646.3427 L390.08133,647.07729 L390.47950000000003,648.06835 C390.17162,647.97887 389.84284,647.87764 389.53394000000003,647.7646 C389.4086,646.42628 389.43727,645.15043 389.46055,643.80684 L389.0151,642.71395 L389.16068,641.16104 L389.5171,640.9956 z" style="fill:#eac102;fill-opacity:1;fill-rule:nonzero;stroke:none;stroke-width:3.13495469;stroke-miterlimit:4;stroke-dasharray:none;stroke-opacity:1" id="path3224"/>
    <path d="M324.144348,591.1237 L373.34048,640.31983 M324.600682,590.5508600000001 L375.24105,637.01369 M325.019254,589.9554800000001 L377.12737,633.80691 M325.361325,589.31458 L378.50453,630.30803 M325.649384,588.65746 L379.93509,627.00266 M325.83979,587.9634 L381.24832000000004,623.7542 M325.940001,587.2505699999999 L381.84859,620.21772 M325.95577000000003,586.53292 L382.3275,616.81022 M323.589583,591.58584 L370.04098999999997,642.21375 M323.011307,592.02584 L366.83422,644.10007 M322.399581,592.40881 L363.335335,645.47723 M321.696199,592.63828 L360.029965,646.90778 M321.025492,592.86635 L356.781506,648.22102 M320.350995,593.03669 L353.245028,648.82129 M319.560229,592.92846 L349.837513,649.30019 " style="fill:none;fill-rule:evenodd;stroke:#000000;stroke-width:0.69999999;stroke-linecap:butt;stroke-linejoin:miter;stroke-miterlimit:4;stroke-dasharray:none;stroke-opacity:1" id="path14258"/>
    <path d="M328.312636,598.14165 L321.376757,592.61797 L314.196569,597.82012 L317.306599,589.51679 L310.140259,584.29558 L318.998243,584.68752 L321.749391,576.25848 L324.113894,584.80405 L332.980537,584.81583 L325.583898,589.70533 L328.312636,598.14165 z" style="fill:#e3e4e5;fill-opacity:1;stroke:#000000;stroke-width:0.69999999;stroke-linecap:round;stroke-miterlimit:4;stroke-dasharray:none;stroke-opacity:1" id="path13260"/>
    <path d="M302.72426199999995,665.28333 L302.72426199999995,673.98252 L388.77828,673.98252 L388.77828,690.56023 L397.45403,690.56023 L397.45403,673.98252 L397.45403,672.38806 L397.45403,665.28333 L302.72426199999995,665.28333 z" style="fill:#784421;fill-opacity:1;stroke:#000000;stroke-width:0.69999999;stroke-miterlimit:4;stroke-dasharray:none;stroke-opacity:1" id="rect6671"/>
  </g><g id="teologa" class="">
    <path d="M476.99471,527.0031 C476.99471,553.4961900000001 455.49307999999996,574.99783 428.99999,574.99783 C402.50691,574.99783 381.00527,553.4961900000001 381.00527,527.0031 C381.00527,500.51002 402.50691,479.00838 428.99999,479.00838 C455.49307999999996,479.00838 476.99471,500.51002 476.99471,527.0031 zM403.72019,548.6244300000001 L454.31773999999996,548.6244300000001 L429.01896999999997,493.25393 L403.72019,548.6244300000001 z" style="fill:url(#radialGradient3739);fill-opacity:1;stroke:none;stroke-width:2.12100005;stroke-linecap:round;stroke-linejoin:miter;stroke-miterlimit:4;stroke-dashoffset:0;stroke-opacity:1" id="path10497"/>
    <path d="M476.82874000000004,527.00092 C476.82874000000004,553.4208 455.41119000000003,574.83835 428.99131,574.83835 C402.57142,574.83835 381.15387,553.4208 381.15387,527.00092 C381.15387,500.58103 402.57142,479.16348 428.99131,479.16348 C455.41119000000003,479.16348 476.82874000000004,500.58103 476.82874000000004,527.00092 L476.82874000000004,527.00092 z" style="fill:#ececec;fill-opacity:1;stroke:#000000;stroke-width:0.31513816;stroke-miterlimit:4;stroke-dasharray:none;stroke-opacity:1" id="path2358"/>
    <path d="M452.92438000000004,532.71155 C452.92438000000004,544.45196 441.98246,553.9803899999999 428.50046,553.9803899999999 C415.01844,553.9803899999999 404.07654,544.45196 404.07654,532.71155 C404.07654,520.97116 415.01844,511.44274 428.50046,511.44274 C441.98246,511.44274 452.92438000000004,520.97116 452.92438000000004,532.71155 z" style="fill:url(#radialGradient3911);fill-opacity:1;stroke:none;stroke-width:2.12100005;stroke-linecap:round;stroke-linejoin:miter;stroke-miterlimit:4;stroke-dashoffset:0;stroke-opacity:1;display:inline" id="path3401"/>
    <path d="M438.91178,532.93467 C438.91178,538.39436 434.48072,542.82543 429.02103,542.82543 C423.56133,542.82543 419.13027999999997,538.39436 419.13027999999997,532.93467 C419.13027999999997,527.47498 423.56133,523.04394 429.02103,523.04394 C434.48072,523.04394 438.91178,527.47498 438.91178,532.93467 z" style="fill:url(#radialGradient3908);fill-opacity:1;stroke:none;stroke-width:2.12100005;stroke-linecap:round;stroke-linejoin:miter;stroke-miterlimit:4;stroke-dashoffset:0;stroke-opacity:1;display:inline" id="path2403"/>
    <path d="M434.02137,532.93467 C434.02137,535.83999 431.66343,538.19794 428.7581,538.19794 C425.85278,538.19794 423.49484,535.83999 423.49484,532.93467 C423.49484,530.02936 425.85278,527.6714099999999 428.7581,527.6714099999999 C431.66343,527.6714099999999 434.02137,530.02936 434.02137,532.93467 z" style="fill:url(#radialGradient3905);fill-opacity:1;stroke:none;stroke-width:2.12100005;stroke-linecap:round;stroke-linejoin:miter;stroke-miterlimit:4;stroke-dashoffset:0;stroke-opacity:1;display:inline" id="path3385"/>
    <path d="M460.08496,530.4327499999999 C434.9838,503.0167 405.51458,513.75342 384.78316,533.37751 C404.17908,561.99275 449.53993,574.16301 460.08496,530.4327499999999 zM455.03679999999997,534.6395600000001 C436.77696000000003,550.03049 421.30786,547.43445 402.87243,539.68772 C414.10931,521.1916100000001 435.93399,526.37698 455.03679999999997,534.6395600000001 z" style="fill:#ececec;fill-opacity:1;fill-rule:evenodd;stroke:none;stroke-width:1px;stroke-linecap:butt;stroke-linejoin:miter;stroke-opacity:1" id="path4389"/>
    <path d="M455.66783,524.9639099999999 C437.24649999999997,515.7533599999999 418.22635,516.23261 405.39649,520.4416 L411.70672,510.45043 C429.50923,509.69115 443.89549999999997,511.32501 455.66783,524.9639099999999 z" style="fill:#423736;fill-opacity:1;fill-rule:evenodd;stroke:none;stroke-width:1px;stroke-linecap:butt;stroke-linejoin:miter;stroke-opacity:1" id="path3414"/>
    <path d="M455.03679999999997,534.6395600000001 C440.14434,547.35997 425.67394,549.80542 402.87243,539.68772 C414.10931,521.1916100000001 435.93399,526.37698 455.03679999999997,534.6395600000001 z" style="fill:none;fill-rule:evenodd;stroke:#000000;stroke-width:0.69999999;stroke-linecap:butt;stroke-linejoin:miter;stroke-miterlimit:4;stroke-dasharray:none;stroke-opacity:1" id="path3416"/>
    <path d="M453.93383,530.62932 C437.4113,522.62495 421.37538,520.94622 406.04179999999997,528.39832 " style="fill:none;fill-rule:evenodd;stroke:#000000;stroke-width:0.69999999;stroke-linecap:butt;stroke-linejoin:miter;stroke-miterlimit:4;stroke-dasharray:none;stroke-opacity:1" id="path4387"/>
    <path d="M381.15625,527.00311 C381.15625,553.4093700000001 402.59374,574.84683 429,574.84686 C455.40626,574.84686 476.84376,553.40938 476.84375,527.00311 C469.14955,464.07948 391.84524,460.80536 381.15625,527.00311 zM428.875,486.81561 L459.1875,553.97186 C459.1875,553.97186 399.25511,553.97185 398.84375,553.97186 L428.875,486.81561 z" style="fill:#ececec;fill-opacity:1;stroke:#000000;stroke-width:0.31513816;stroke-miterlimit:4;stroke-dasharray:none;stroke-opacity:1" id="path9109"/>
    <path d="M429.03125,486.15936 C428.93158,486.1923 428.80493,486.25562 428.71875,486.31561 C428.57052999999996,486.33296 428.44149,486.36556 428.3125,486.44061 C428.05228,486.6427 427.88052,486.9549 427.875,487.28436 L427.875,489.06561 L428.875,486.81561 L430.15625,489.65936 L430.15625,487.28436 C430.13889,487.13612 430.07506,487.0071 430,486.87811 C429.82885999999996,486.56453 429.51153,486.353 429.15625,486.31561 C429.11393,486.26472 429.08214,486.20169 429.03125,486.15936 zM438.8125,488.69061 C438.75892999999996,488.72987 438.72677999999996,488.79328 438.6875,488.84686 C438.6409,488.84184 438.60908,488.84184 438.5625,488.84686 C438.50892999999996,488.88613 438.44552999999996,488.91828 438.40625,488.97186 C438.33748,489.05251 438.30452,489.14972 438.28125,489.25311 L435.1875,500.81561 L436.03125,502.65936 L439.53125,489.53436 C439.53627,489.48777 439.53627,489.45594 439.53125,489.40936 C439.53627,489.36278 439.53627,489.29969 439.53125,489.25311 C439.53627,489.20652 439.53627,489.14344 439.53125,489.09686 C439.49198,489.04329 439.42858,489.01114 439.375,488.97186 C439.3357,488.91827 439.30357000000004,488.88613 439.25,488.84686 C439.20340999999996,488.84184 439.17159000000004,488.84184 439.125,488.84686 C439.04434000000003,488.77808 438.91589999999997,488.71388 438.8125,488.69061 zM418.78125,488.84686 C418.72765000000004,488.88613 418.69552,488.91828 418.65625,488.97186 C418.60267,489.01112 418.53927999999996,489.04328 418.5,489.09686 C418.49496999999997,489.14345 418.49498,489.20653 418.5,489.25311 C418.49496999999997,489.29969 418.49498,489.36277 418.5,489.40936 C418.49496999999997,489.45595 418.49498,489.48778 418.5,489.53436 L421.90625,502.37811 L422.75,500.47186 L419.78125,489.25311 C419.74196,489.19953 419.67858,489.13613 419.625,489.09686 C419.63002,489.05028 419.63002,489.01845 419.625,488.97186 C419.58573,488.91827 419.52233,488.88613 419.46875,488.84686 C419.42217,488.84184 419.39033,488.84184 419.34375,488.84686 C419.29715999999996,488.84184 419.26534000000004,488.84184 419.21875,488.84686 C419.17218,488.84184 419.1091,488.84184 419.0625,488.84686 C419.01593,488.84184 418.98408,488.84184 418.9375,488.84686 C418.89092,488.84184 418.82783,488.84184 418.78125,488.84686 zM433.5,489.09686 C433.16209000000003,491.04314 432.84531000000004,493.0283 432.5625,495.00311 L433.21875,496.44061 C433.44151,493.95194 433.59137,491.48841 433.625,489.09686 L433.5,489.09686 zM423.8125,489.25311 C423.96541,491.65481 424.24766,494.09189 424.53125,496.56561 L425.125,495.22186 C424.75189,493.16577 424.31408999999996,491.17678 423.8125,489.25311 zM409.40625,491.50311 C409.25802999999996,491.52045 409.12899,491.55306 409,491.62811 C408.90031999999997,491.66108 408.77368,491.69312 408.6875,491.75311 C408.62751000000003,491.83929 408.59545,491.96594 408.5625,492.06561 C408.48742,492.19459 408.42359999999996,492.32363 408.40625,492.47186 C408.3789,492.61063 408.3789,492.77059 408.40625,492.90936 C408.4392,493.00902 408.5025,493.07319 408.5625,493.15936 L418.40625,510.19061 L419.5,507.78436 L410.375,492.06561 C410.31592,491.90544 410.21885,491.74428 410.09375,491.62811 C410.00757,491.56813 409.94342,491.53606 409.84375,491.50311 C409.70499,491.47575 409.54502,491.47576 409.40625,491.50311 zM448.5,491.50311 C448.24055,491.50992 447.97382,491.5791 447.78125,491.75311 C447.73036,491.79544 447.69857,491.85847 447.65625,491.90936 C447.60534,491.95168 447.57358,492.01472 447.53125,492.06561 L438.40625,507.90936 L439.5,510.37811 L449.46875,493.15936 C449.54380000000003,493.03036 449.60766,492.90134 449.625,492.75311 C449.65236,492.61436 449.65236,492.45438 449.625,492.31561 C449.55978,491.92975 449.27403000000004,491.63685 448.90625,491.50311 C448.76748,491.47575 448.63877,491.47576 448.5,491.50311 zM443.03125,491.62811 C440.94653,495.95163 439.03562999999997,500.54359 437.15625,505.19061 L437.65625,506.28436 C439.75541,501.28058 441.70253,496.32008 443.03125,491.62811 zM414.4375,491.75311 C415.91299000000004,496.61506 417.92801,501.56362 420.0625,506.50311 L420.625,505.25311 C418.69477,500.60264 416.69996000000003,496.01791 414.4375,491.75311 zM451.5625,496.40936 C447.5271,500.92244 443.70147,506.01331 439.875,511.15936 L440.34375,512.22186 C444.47524999999996,506.95134 448.52342999999996,501.68564 451.5625,496.40936 zM406.03125,496.65936 C408.64718,501.73358 413.39169000000004,506.996 417.53125,512.19061 L417.90625,511.34686 C414.02656,506.21898 410.11653,501.1439 406.03125,496.65936 zM401.84375,498.65936 C401.79017,498.69863 401.72677999999996,498.73078 401.6875,498.78436 C401.64092,498.77935 401.60908,498.77934 401.5625,498.78436 C401.50891,498.82365 401.47677999999996,498.85578 401.4375,498.90936 C401.43249000000003,498.95594 401.43249000000003,499.01902 401.4375,499.06561 C401.38392999999996,499.10489 401.32052999999996,499.13703 401.28125,499.19061 C401.27623,499.23719 401.27623,499.26902 401.28125,499.31561 C401.27623,499.36218 401.27623,499.45653 401.28125,499.50311 C401.32052999999996,499.55668000000003 401.38392999999996,499.58883 401.4375,499.62811 C401.43249000000003,499.6747 401.43249000000003,499.70653 401.4375,499.75311 C401.48409000000004,499.75814 401.51590999999996,499.75814 401.5625,499.75311 L416.4375,514.62811 L416.96875,513.47186 L402.40625,498.90936 C402.36696,498.85578 402.30358,498.82364 402.25,498.78436 C402.21072000000004,498.73079 402.17857000000004,498.69864 402.125,498.65936 C402.07840999999996,498.65433 402.01534000000004,498.65434 401.96875,498.65936 C401.92217,498.65433 401.89033,498.65434 401.84375,498.65936 zM455.9375,498.65936 C455.88392,498.69863 455.82052,498.73078 455.78125,498.78436 C455.73465,498.77935 455.67159000000004,498.77934 455.625,498.78436 C455.61998,498.83095 455.61998,498.86278 455.625,498.90936 L440.96875,513.56561 L441.46875,514.75311 L456.46875,499.75311 C456.52234999999996,499.71384 456.58573,499.68168000000003 456.625,499.62811 C456.69377,499.54746 456.75798,499.41899 456.78125,499.31561 C456.78629,499.26901 456.78627,499.2372 456.78125,499.19061 C456.74199,499.13702 456.67858,499.10488 456.625,499.06561 C456.63002,499.01903 456.63003000000003,498.95594 456.625,498.90936 C456.58572000000004,498.85578 456.52234,498.82364 456.46875,498.78436 C456.3881,498.71559 456.29089999999997,498.68264 456.1875,498.65936 C456.1409,498.65433 456.10909000000004,498.65434 456.0625,498.65936 C456.01590999999996,498.65433 455.98409000000004,498.65434 455.9375,498.65936 zM458.59375,503.25311 C453.09567000000004,506.88912 447.50086,511.31994 441.9375,515.75311 L442.34375,516.62811 C448.13408000000004,512.28844 453.94168,507.94007 458.59375,503.25311 zM399.1875,503.69061 C403.03515,508.39321 410.32777999999996,512.3645 415.46875,516.78436 L415.875,515.90936 C410.3174,511.84864 404.65627,506.81108 399.1875,503.69061 zM394.96875,505.78436 C394.82051,505.8017 394.69149,505.8343 394.5625,505.90936 C394.26057000000003,506.14036 394.08407,506.53143 394.125,506.90936 C394.13183000000004,507.16882 394.23224,507.40429 394.40625,507.59686 C394.44858,507.64776 394.51161,507.71078 394.5625,507.75311 C394.60917,507.75611 394.64083,507.75611 394.6875,507.75311 L414.40625,519.15936 L415.28125,517.19061 L395.8125,505.90936 C395.68351,505.83431 395.55448,505.80171 395.40625,505.78436 C395.26749,505.75701 395.10752,505.75702 394.96875,505.78436 zM462.5625,505.78436 C462.44408,505.80804 462.3243,505.84722 462.21875,505.90936 L442.625,517.28436 L443.5,519.25311 L463.34375,507.75311 C463.59442,507.64344 463.79658,507.44128 463.90625,507.19061 C463.95522,507.00701 463.95520999999997,506.81171 463.90625,506.62811 C463.8733,506.52843 463.84125,506.43304 463.78125,506.34686 C463.68287,506.17043 463.52017,506.00773 463.34375,505.90936 C463.21475,505.83431 463.08573,505.80171 462.9375,505.78436 C462.81617,505.76758 462.68093,505.76068 462.5625,505.78436 zM463.5,511.78436 C457.09144000000003,513.81115 450.39051,516.7891099999999 443.71875,519.72186 L444.0625,520.50311 C450.89072999999996,517.74311 457.7626,514.96613 463.5,511.78436 zM394.25,512.22186 C400.15621,515.3160399999999 406.96286,517.9681 413.75,520.62811 L414.0625,519.97186 C407.41996,517.23864 400.64147,514.06845 394.25,512.22186 zM391.75,515.87811 C391.69644,515.9173900000001 391.63303,515.9495400000001 391.59375,516.00311 C391.54016,516.04238 391.50802,516.10578 391.46875,516.15936 C391.46373,516.2059300000001 391.46373,516.26902 391.46875,516.31561 C391.46373,516.3621800000001 391.46373,516.3940299999999 391.46875,516.44061 C391.46373,516.4872 391.46373,516.51902 391.46875,516.56561 C391.46373,516.6122 391.46373,516.6752799999999 391.46875,516.72186 C391.50803,516.77545 391.54017,516.8075799999999 391.59375,516.84686 C391.63302,516.9004299999999 391.69643,516.9638299999999 391.75,517.00311 C391.78929,517.0567 391.82142,517.0888299999999 391.875,517.12811 L412.8125,522.72186 L413.34375,521.53436 L392.1875,515.87811 C392.14092,515.87309 392.07784000000004,515.8730800000001 392.03125,515.87811 C391.98467,515.87309 391.92158,515.8730800000001 391.875,515.87811 C391.82841,515.87309 391.79659,515.8730800000001 391.75,515.87811 zM465.71875,515.87811 L444.5625,521.53436 L445.09375,522.75311 L466.15625,517.12811 C466.20984999999996,517.08884 466.24198,517.05669 466.28125,517.00311 C466.33482000000004,516.96384 466.39822000000004,516.9004299999999 466.4375,516.84686 C466.49109,516.8075799999999 466.52322000000004,516.77545 466.5625,516.72186 C466.56754,516.6752799999999 466.56752,516.61219 466.5625,516.56561 C466.56754,516.5190299999999 466.56752,516.48719 466.5625,516.44061 C466.56754,516.39404 466.56752,516.36219 466.5625,516.31561 C466.56754,516.26901 466.56752,516.20594 466.5625,516.15936 C466.52324,516.10577 466.49108,516.0423900000001 466.4375,516.00311 C466.39823,515.94953 466.33483,515.91738 466.28125,515.87811 C466.23465999999996,515.87309 466.20284000000004,515.8730800000001 466.15625,515.87811 C466.10968,515.87309 466.07783,515.8730800000001 466.03125,515.87811 C465.98465999999996,515.87309 465.92159000000004,515.8730800000001 465.875,515.87811 C465.82842,515.87309 465.76534000000004,515.8730800000001 465.71875,515.87811 zM466.15625,521.19061 C459.58475999999996,521.5978600000001 452.53885,522.61884 445.5,523.65936 L445.90625,524.53436 C452.88197,523.68317 459.85456,522.81519 466.15625,521.19061 zM391.75,521.75311 C398.22146,523.07735 405.08933,523.88517 411.96875,524.65936 L412.3125,523.81561 C405.31707,522.82287 398.31041,521.84539 391.75,521.75311 zM388.25,525.25311 C388.10177,525.27046 387.97274,525.3343 387.84375,525.40936 C387.74408,525.44232 387.61743,525.50562 387.53125,525.56561 C387.38486,525.7208800000001 387.31766,525.88658 387.28125,526.09686 C387.23228,526.2804699999999 387.23229000000003,526.47576 387.28125,526.65936 C387.31765,526.8696299999999 387.38486,527.06659 387.53125,527.22186 C387.61743,527.28183 387.74408,527.3451600000001 387.84375,527.37811 C387.97274,527.45318 388.10177,527.48577 388.25,527.50311 L410.6875,527.50311 L411.6875,525.25311 L388.25,525.25311 zM446.21875,525.25311 L447.25,527.50311 L468.09375,527.50311 C468.24197000000004,527.48578 468.40226,527.45317 468.53125,527.37811 C468.70767,527.2797499999999 468.83913,527.11704 468.9375,526.94061 C469.01255000000003,526.81162 469.07640000000004,526.6825799999999 469.09375,526.53436 C469.12109,526.39558 469.1211,526.23563 469.09375,526.09686 C468.98672,525.63179 468.56973,525.28772 468.09375,525.25311 L446.21875,525.25311 zM447.5625,528.22186 L447.96875,529.12811 C454.72577,530.0707600000001 461.47243000000003,530.9520600000001 467.84375,531.12811 C461.34607,529.81126 454.46019,529.00324 447.5625,528.22186 zM410.21875,528.56561 C403.41452000000004,529.43317 396.60589,530.3167900000001 390.1875,531.69061 C396.24486,531.71641 403.09506,530.49809 409.8125,529.44061 L410.21875,528.56561 zM448.8125,531.00311 L449.53125,532.56561 L467.40625,537.31561 C467.45284000000004,537.32064 467.51590999999996,537.3206299999999 467.5625,537.31561 C467.60908,537.32064 467.64092,537.3206299999999 467.6875,537.31561 C467.73409000000004,537.32064 467.79717,537.3206299999999 467.84375,537.31561 C467.89731,537.27635 467.92948,537.21295 467.96875,537.15936 C468.02233,537.1201 468.05448,537.05669 468.09375,537.00311 C468.14732000000004,536.9638199999999 468.21071,536.93169 468.25,536.87811 C468.25500999999997,536.83152 468.25500999999997,536.79969 468.25,536.75311 C468.25500999999997,536.70652 468.25500999999997,536.6747 468.25,536.62811 C468.25500999999997,536.58154 468.25500999999997,536.51844 468.25,536.47186 C468.21071,536.41827 468.14733,536.35488 468.09375,536.31561 C468.05447000000004,536.26202 468.02234,536.22988 467.96875,536.19061 C467.92947000000004,536.13702 467.89733,536.07363 467.84375,536.03436 C467.79715,536.0293300000001 467.73409000000004,536.02934 467.6875,536.03436 L448.8125,531.00311 zM409.09375,531.03436 L390.34375,536.03436 C390.29717,536.0293300000001 390.23409,536.02934 390.1875,536.03436 C390.13393,536.07362 390.10178,536.13702 390.0625,536.19061 C390.00893,536.22988 389.97678,536.26203 389.9375,536.31561 C389.88392,536.35487 389.82052,536.41827 389.78125,536.47186 C389.77623,536.51844 389.77621999999997,536.5815299999999 389.78125,536.62811 C389.77623,536.67471 389.77621999999997,536.70651 389.78125,536.75311 C389.77623,536.7997 389.77621999999997,536.8315299999999 389.78125,536.87811 C389.82053,536.93168 389.88393,536.9638299999999 389.9375,537.00311 C389.93248,537.04969 389.93249000000003,537.1127799999999 389.9375,537.15936 C389.98409,537.1644 390.01591,537.16439 390.0625,537.15936 C390.10179,537.2129600000001 390.13393,537.27634 390.1875,537.31561 C390.23409,537.32064 390.29717,537.3206299999999 390.34375,537.31561 C390.39033,537.32064 390.45342,537.3206299999999 390.5,537.31561 C390.54659,537.32064 390.57842,537.3206299999999 390.625,537.31561 L408.40625,532.59686 L409.09375,531.03436 zM450.40625,534.50311 L451,535.84686 C455.86309,537.86722 460.69329,539.74339 465.3125,541.09686 C460.58268,538.6913099999999 455.53720999999996,536.55296 450.40625,534.50311 zM407.25,535.12811 C402.23229000000003,537.14353 397.01709,539.05057 393.03125,541.65936 C397.60126,540.10196 402.16971,538.23101 406.75,536.28436 L407.25,535.12811 zM452.21875,538.53436 L453.71875,541.84686 L463.78125,547.69061 C463.91023,547.76566 464.03927,547.79825 464.1875,547.81561 C464.49481000000003,547.8457900000001 464.80353,547.74289 465.03125,547.53436 C465.08214,547.49204 465.14517,547.46025 465.1875,547.40936 C465.24748,547.32318 465.27955,547.1965299999999 465.3125,547.09686 C465.33986,546.9581000000001 465.33985,546.82938 465.3125,546.69061 C465.33986,546.55183 465.33985,546.3918699999999 465.3125,546.25311 C465.21414,546.07668 465.05143,545.94523 464.875,545.84686 L452.21875,538.53436 zM405.71875,538.59686 L393.15625,545.84686 C393.04645,545.92232 392.95046,546.0183099999999 392.875,546.12811 C392.81501000000003,546.21429 392.75171,546.3096800000001 392.71875,546.40936 C392.64369,546.53836 392.61109,546.6986400000001 392.59375,546.84686 C392.61109,546.9950799999999 392.64369,547.12412 392.71875,547.25311 C392.81712,547.42954 392.97982,547.59224 393.15625,547.69061 C393.24242000000004,547.7506000000001 393.33783,547.78265 393.4375,547.81561 C393.57628,547.8429699999999 393.70499,547.84296 393.84375,547.81561 C393.99198,547.79826 394.121,547.76566 394.25,547.69061 L404.21875,541.94061 L405.71875,538.59686 zM455.59375,546.00311 L456.1875,547.31561 C457.54380000000003,548.22648 458.91255,549.1293499999999 460.28125,549.94061 C458.77106000000003,548.61076 457.18622,547.293 455.59375,546.00311 zM402,546.90936 C400.65061000000003,548.04295 399.3352,549.19165 398.0625,550.34686 C399.19969000000003,549.65818 400.31084999999996,548.9159 401.4375,548.15936 L402,546.90936 zM400.4375,553.97186 L400.28125,554.12811 C400.21245999999996,554.2087799999999 400.17953,554.30597 400.15625,554.40936 C400.15125,554.45594 400.15124000000003,554.48776 400.15625,554.53436 C400.15125,554.58094 400.15124000000003,554.6127799999999 400.15625,554.65936 C400.15125,554.70597 400.15124000000003,554.76902 400.15625,554.81561 C400.19554,554.86918 400.22767,554.93259 400.28125,554.97186 C400.32052,555.02545 400.38392,555.0575799999999 400.4375,555.09686 C400.47677,555.15044 400.54017,555.21384 400.59375,555.25311 C400.64033,555.25814 400.67217,555.25814 400.71875,555.25311 C400.76534000000004,555.25814 400.79717,555.25814 400.84375,555.25311 C400.89032,555.25814 400.95340999999996,555.25814 401,555.25311 C401.05359,555.21384 401.08572000000004,555.15044 401.125,555.09686 C401.17159000000004,555.1018799999999 401.23465999999996,555.1018799999999 401.28125,555.09686 L402.40625,553.97186 C402.17710999999997,553.97186 400.55079,553.97186 400.4375,553.97186 zM407.71875,553.97186 C406.89862,555.1461300000001 406.07099,556.33699 405.3125,557.50311 C406.50529,556.52422 407.66234,555.30592 408.78125,553.97186 C408.48585,553.97186 407.98879,553.97186 407.71875,553.97186 zM411.84375,553.97186 L407.71875,561.12811 C407.64369999999997,561.2571 407.61109,561.4173900000001 407.59375,561.56561 C407.56638,561.70439 407.56639,561.8331000000001 407.59375,561.97186 C407.62669,562.07152 407.65877,562.13568 407.71875,562.22186 C407.81712,562.39829 407.97982,562.56099 408.15625,562.65936 C408.29502,562.6867 408.42373,562.68671 408.5625,562.65936 C408.74608,562.70831 408.94139,562.70832 409.125,562.65936 C409.17588,562.61702 409.20767,562.58525 409.25,562.53436 C409.35979,562.45888 409.45579,562.33166 409.53125,562.22186 L414.3125,553.97186 C413.36829,553.97186 412.68303000000003,553.97186 411.84375,553.97186 zM417.28125,553.97186 C416.12853,556.8858399999999 415.08537,559.7863199999999 414.3125,562.65936 C415.72895,559.8864 417.04003,556.9582 418.3125,553.97186 C417.86157000000003,553.97186 417.71932000000004,553.97186 417.28125,553.97186 zM420.96875,553.97186 L418.09375,564.75311 C418.08871999999997,564.7996800000001 418.08873,564.8627799999999 418.09375,564.90936 C418.08871999999997,564.95596 418.08873,565.01902 418.09375,565.06561 C418.08871999999997,565.11219 418.08873,565.1440299999999 418.09375,565.19061 C418.11701,565.2940100000001 418.18122,565.3912 418.25,565.47186 C418.29657,565.4768799999999 418.32842,565.4768799999999 418.375,565.47186 C418.45565,565.5406399999999 418.55286,565.57358 418.65625,565.59686 C418.70283,565.6018799999999 418.73465,565.6018799999999 418.78125,565.59686 C418.83481,565.55759 418.89822000000004,565.52544 418.9375,565.47186 C418.98409000000004,565.4768799999999 419.01592,565.4768799999999 419.0625,565.47186 C419.11609999999996,565.43259 419.17948,565.36918 419.21875,565.31561 C419.22379,565.2690299999999 419.22378000000003,565.2372 419.21875,565.19061 C419.27234,565.15134 419.30447000000004,565.11919 419.34375,565.06561 L422.3125,553.97186 C421.67467,553.97186 421.5923,553.97186 420.96875,553.97186 zM425.15625,553.97186 C424.70336,557.77003 424.33559,561.52252 424.125,565.19061 C425.07525999999996,561.74984 425.65723,557.91837 426.125,553.97186 C425.64632,553.97186 425.63158999999996,553.97186 425.15625,553.97186 zM427.875,553.97186 L427.875,567.15936 C427.89236,567.30759 427.95619999999997,567.46787 428.03125,567.59686 C428.06421,567.69654 428.12751000000003,567.7606900000001 428.1875,567.84686 C428.38005999999996,568.02088 428.61554,568.12129 428.875,568.12811 C429.01374999999996,568.15545 429.17373,568.15545 429.3125,568.12811 C429.41216,568.09514 429.47632,568.0318500000001 429.5625,567.97186 C429.76058,567.83654 429.92557,567.66868 430,567.44061 C430.05998,567.35442 430.12329,567.2590299999999 430.15625,567.15936 L430.15625,553.97186 C429.02133000000003,553.97186 429.01051,553.97186 427.875,553.97186 zM432.375,553.97186 C432.81975,557.93118 433.32474,561.82525 434.46875,565.06561 C434.21838,561.44938 433.80403,557.71903 433.3125,553.97186 C432.85518,553.97186 432.83608000000004,553.97186 432.375,553.97186 zM435.75,553.97186 L438.6875,565.06561 C438.68246999999997,565.11219 438.68248,565.1440299999999 438.6875,565.19061 C438.72677,565.2442 438.75892999999996,565.2763299999999 438.8125,565.31561 C438.85179,565.36919 438.91517999999996,565.4325799999999 438.96875,565.47186 C439.04942,565.5406399999999 439.14660000000003,565.57358 439.25,565.59686 C439.29658,565.6018799999999 439.32842,565.6018799999999 439.375,565.59686 C439.42157,565.6018799999999 439.48465999999996,565.6018799999999 439.53125,565.59686 C439.58483,565.55759 439.61697000000004,565.52544 439.65625,565.47186 C439.70982000000004,565.43259 439.77322000000004,565.36918 439.8125,565.31561 C439.86607000000004,565.27634 439.92948,565.24419 439.96875,565.19061 C439.97378000000003,565.14404 439.97378000000003,565.11219 439.96875,565.06561 C439.97378000000003,565.01902 439.97378000000003,564.95595 439.96875,564.90936 C439.97378000000003,564.86279 439.97378000000003,564.79969 439.96875,564.75311 L437.09375,553.97186 C436.47301,553.97186 436.38548000000003,553.97186 435.75,553.97186 zM440.21875,553.97186 C441.51601,556.87579 442.88491999999997,559.6912500000001 444.3125,562.37811 C443.35600999999997,559.57141 442.25928999999996,556.78222 441.125,553.97186 C440.74687,553.97186 440.60738000000003,553.97186 440.21875,553.97186 zM443.71875,553.97186 L448.5,562.22186 C448.57547,562.33167 448.67145,562.45889 448.78125,562.53436 C448.86742000000004,562.59433 448.96283,562.6264100000001 449.0625,562.65936 C449.20126,562.6867 449.32997,562.68671 449.46875,562.65936 C449.72821,562.6525300000001 449.99494000000004,562.5521100000001 450.1875,562.37811 C450.23839,562.33579 450.27017,562.27274 450.3125,562.22186 C450.37248999999997,562.1356900000001 450.40455,562.0715299999999 450.4375,561.97186 C450.48647,561.7882500000001 450.48647,561.59296 450.4375,561.40936 C450.40456,561.3097 450.37248999999997,561.2142799999999 450.3125,561.12811 L446.1875,553.97186 C445.3578,553.97186 444.65476,553.97186 443.71875,553.97186 zM450.09375,553.97186 C451.04757,555.07645 451.99406999999997,556.15751 452.96875,557.19061 C452.29118,556.1141299999999 451.58281,555.04865 450.84375,553.97186 C450.66613,553.97186 450.28456,553.97186 450.09375,553.97186 zM455.65625,553.97186 L456.78125,555.09686 C456.82785,555.1018799999999 456.85967,555.1018799999999 456.90625,555.09686 C456.94552,555.15044 456.97766,555.21384 457.03125,555.25311 C457.07783,555.25814 457.14092,555.25814 457.1875,555.25311 C457.23409000000004,555.25814 457.26590999999996,555.25814 457.3125,555.25311 C457.35906,555.25814 457.42215999999996,555.25814 457.46875,555.25311 C457.52232000000004,555.21384 457.58572000000004,555.15044 457.625,555.09686 C457.67856,555.0575799999999 457.71073,555.02544 457.75,554.97186 C457.80358,554.9326 457.83573,554.86919 457.875,554.81561 C457.88002,554.76901 457.88002,554.70595 457.875,554.65936 C457.88002,554.6128 457.88002,554.58094 457.875,554.53436 C457.88002,554.48776 457.88002,554.45594 457.875,554.40936 C457.83573,554.35577 457.80359,554.2923900000001 457.75,554.25311 C457.75502,554.20652 457.75503000000003,554.17469 457.75,554.12811 L457.59375,553.97186 C457.49477,553.97186 455.86834999999996,553.97186 455.65625,553.97186 z" style="fill:#e3e4e5;fill-opacity:1;stroke:none;stroke-width:0.184;stroke-linecap:round;stroke-opacity:1;display:inline" id="path9461"/>
    <path d="M428.98226,479.16264 C402.57597999999996,479.16264 381.15953,500.57913 381.15953,526.98537 C381.15953,553.39164 402.57599,574.84359 428.98226,574.84358 C455.38853,574.84358 476.84046,553.39164 476.84047,526.98537 C476.84047,500.57909 455.38853,479.16264 428.98226,479.16264 zM428.98226,486.64824 C451.25001,486.64824 469.31939,504.71762 469.31939,526.98537 C469.31938,549.2531200000001 451.25,567.35798 428.98226,567.35798 C406.71452999999997,567.35798 388.64513,549.25311 388.64513,526.98537 C388.64513,504.71764 406.71452,486.64824 428.98226,486.64824 z" style="fill:#e3e4e5;fill-opacity:1;stroke:#000000;stroke-width:0.69999999;stroke-miterlimit:4;stroke-dasharray:none;stroke-opacity:1" id="path2363"/>
    <path d="M427.9645,486.57846 C431.06075,485.09792 433.31556,484.26573 434.42103,483.04474 C434.22505,481.60966 430.31339,480.03671 428.86987999999997,479.06841 C440.54801,470.08864 443.11181999999997,481.1871 450.86415999999997,484.46959 " style="fill:#e3e4e5;fill-opacity:1;fill-rule:evenodd;stroke:#000000;stroke-width:0.69999999;stroke-linecap:butt;stroke-linejoin:miter;stroke-miterlimit:4;stroke-dasharray:none;stroke-opacity:1" id="path3430"/>
    <path d="M434.79497000000003,479.17582 C435.32483,478.63384 437.56674,477.22831 438.55564000000004,478.21721 C441.07966,480.37841 436.62331,480.06999 434.79497000000003,479.17582 z" style="fill:#000000;fill-rule:evenodd;stroke:none;stroke-width:1px;stroke-linecap:butt;stroke-linejoin:miter;stroke-opacity:1" id="path4417"/>
    <path d="M428.875,486.81561 L459.1875,553.97186 C459.1875,553.97186 399.25511,553.97185 398.84375,553.97186 L428.875,486.81561 z" style="fill:none;fill-opacity:1;stroke:#000000;stroke-width:0.69999999;stroke-miterlimit:4;stroke-dasharray:none;stroke-opacity:1" id="path10155"/>
  </g><path d="M270.5,321.94061 L270.5,322.94061 L270.5,719.06561 L270.5,719.15936 L270.5,719.25311 C271.1647574,722.56384 272.0732243,725.50617 273.78125,727.87811 C275.489276,730.25005 278.028634,731.98568 281.6875,732.81561 L281.8125,732.81561 L281.90625,732.81561 L409.3125,732.81561 L409.34375,732.81561 C418.21258,732.52446 422.33887000000004,733.88757 424.46875,735.44061 C426.59863,736.99365 426.83426,738.85646 428.21875,740.47186 L429.125,741.50311 L429.84375,740.37811 C430.91206,738.68261 431.06375,736.91257 433.1875,735.40936 C435.31125,733.90613 439.58454,732.59506 448.65625,732.81561 L448.6875,732.81561 L576.15625,732.81561 L576.34375,732.81561 L576.5,732.75311 C582.77012,730.28805 586.44362,726.17365 587.46875,719.19061 L587.5,719.12811 L587.5,719.06561 L587.5,322.94061 L587.5,321.94061 L586.5,321.94061 L429,321.94061 L271.5,321.94061 L270.5,321.94061 zM272.5,323.94061 L429,323.94061 L585.5,323.94061 L585.5,718.90936 C584.56428,725.28333 581.67525,728.52157 575.96875,730.81561 L448.6875,730.81561 C439.41197,730.59011 434.71982,731.88135 432.03125,733.78436 C430.18803,735.08901 429.46492,736.52851 428.90625,737.75311 C428.27422,736.58538 427.466,735.15801 425.625,733.81561 C422.95778,731.87074 418.37153,730.5172 409.28125,730.81561 L282.03125,730.81561 C278.812674,730.0643 276.82833700000003,728.66545 275.40625,726.69061 C273.9883748,724.7216 273.13771380000003,722.10384 272.5,718.97186 L272.5,323.94061 z" style="fill:#000000;fill-opacity:1;stroke:none;stroke-width:2;stroke-miterlimit:4;stroke-dasharray:none;stroke-opacity:1" id="borde" class=""/><path id="use15019" style="fill:none;fill-opacity:1;fill-rule:evenodd;stroke:#000000;stroke-width:1.39999998;stroke-linecap:round;stroke-linejoin:miter;stroke-miterlimit:4;stroke-dasharray:none;stroke-opacity:1" d="M429.00001,101.196895 L429.00001,211.47048999999998 L429.00001,321.74408 M324.123596,177.39407599999998 L429.00001,211.47050000000002 L533.87643,245.54691 M364.1828,300.68368 L429,211.47047 L493.81719,122.25726 M493.81718,300.68367 L429,211.47046 L364.18282,122.257245 M533.8764,177.394046 L428.99998,211.47045 L324.123569,245.54685 M507.46551999999997,211.47048999999998 L428.99994000000004,211.47048999999998 L350.534363,211.47048999999998 M453.24714,136.845284 L428.99993,211.47048999999998 L404.75273000000004,286.09569 M365.51997,165.349556 L428.99995,211.47048 L492.47994,257.5914 M365.51998000000003,257.59139 L428.99996,211.47048999999998 L492.47995000000003,165.349577 M453.24716,286.09567000000004 L428.99996999999996,211.47047 L404.75279,136.84526499999998 " class=""/><path id="path3655" style="fill:#ffffff;fill-opacity:1;stroke:#000000;stroke-width:0.69999999;stroke-miterlimit:4;stroke-dasharray:none;stroke-opacity:1" d="M429.24607000000003,141.904312 L443.93959,191.571096 L495.72734,190.72333600000002 L453.03199,220.04558 L469.84154,269.03665 L428.76084000000003,237.49205 L387.36199999999997,268.618 L404.66809,219.80009 L362.272602,190.045886 L414.04907000000003,191.419386 L429.24607000000003,141.904312 z" class=""/><path id="path4547" style="fill:#e3e4e5;fill-opacity:1;stroke:#000000;stroke-width:0.69999999;stroke-miterlimit:4;stroke-dasharray:none;stroke-opacity:1" d="M443.93960000000004,191.571076 L387.36202000000003,268.61797 L428.76084000000003,237.49202 L429.24609,141.90430800000001 L443.93960000000004,191.571076 zM404.66808000000003,219.80006 L495.72733,190.723316 L453.03198,220.04556 L469.84155,269.03665 L427.9972,210.82369 L362.272607,190.04587600000002 L404.66808000000003,219.80006 z" class=""/><path d="M443.93960000000004,191.571076 L387.36202000000003,268.61797 L428.76084000000003,237.49202 L429.24609,141.90430800000001 L443.93960000000004,191.571076 zM404.66808000000003,219.80006 L495.72733,190.723316 L453.03198,220.04556 L469.84155,269.03665 L427.9972,210.82369 L362.272607,190.04587600000002 L404.66808000000003,219.80006 z" style="fill:#e3e4e5;fill-opacity:1;stroke:#000000;stroke-width:0.69999999;stroke-miterlimit:4;stroke-dasharray:none;stroke-opacity:1" id="path3759" class=""/><g id="g3798" style="opacity:0.7" class="">
    <path id="path2875" d="M270.4999775,322.48748 L270.4999775,322.92498 L270.4999775,719.04998 L270.4999775,719.14373 L270.4999775,719.23748 C271.1647475,722.54823 272.0731975,725.49055 273.7812275,727.86248 C275.489277,730.23442 278.02860699999997,731.97006 281.68747699999994,732.79998 L281.81247699999994,732.79998 L281.90622699999994,732.79998 L409.31246999999996,732.79998 L409.34371999999996,732.79998 C418.21254,732.50883 422.33880999999997,733.87194 424.46871999999996,735.42498 C426.59854,736.97803 426.83421,738.84083 428.21871999999996,740.45623 L428.65621999999996,740.95623 L429.46871999999996,740.95623 L429.84371999999996,740.36248 C430.91202999999996,738.66698 431.06378,736.89694 433.18746999999996,735.39373 C435.31129999999996,733.8905 439.58442,732.57943 448.65621999999996,732.79998 L448.68746999999996,732.79998 L576.1562200000001,732.79998 L576.3437200000001,732.79998 L576.4999700000001,732.73748 C582.77009,730.27243 586.44354,726.15802 587.4687200000001,719.17498 L587.50002,719.11248 L587.50002,719.04998 L587.50002,322.48748 L270.4999775,322.48748 z" style="opacity:1;fill:url(#radialGradient3802);fill-opacity:1;fill-rule:evenodd;stroke:none;stroke-width:3.00000024;stroke-linecap:butt;stroke-linejoin:miter;stroke-miterlimit:4;stroke-dasharray:none;stroke-opacity:1"/>
    <path id="path3755" d="M429.25,141.90625 L414.0625,191.40625 L362.28125,190.03125 L404.65625,219.8125 L387.96875,266.90625 L389.65625,266.90625 L428.75,237.5 L467.0625,266.90625 L469.125,266.90625 L453.03125,220.03125 L495.71875,190.71875 L443.9375,191.5625 L429.25,141.90625 z" style="opacity:1;fill:url(#radialGradient3804);fill-opacity:1;fill-rule:evenodd;stroke:none;stroke-width:3.00000024;stroke-linecap:butt;stroke-linejoin:miter;stroke-miterlimit:4;stroke-dasharray:none;stroke-opacity:1"/>
  </g></g></svg>