<?xml version="1.0" encoding="UTF-8"?>
<svg version="1.1" xmlns="http://www.w3.org/2000/svg" width="300" height="266">
<path d="M0 0 C5.07365847 2.76507865 9.46771914 5.50179973 11.2890625 11.28515625 C12.96721658 20.08723894 10.77836581 27.54899585 6.6875 35.375 C6.3575 36.365 6.0275 37.355 5.6875 38.375 C6.656875 37.611875 7.62625 36.84875 8.625 36.0625 C15.14327804 31.43662526 21.7649217 29.72560834 29.6875 30.375 C30.780625 30.74625 31.87375 31.1175 33 31.5 C33.886875 31.78875 34.77375 32.0775 35.6875 32.375 C36.6775 31.715 37.6675 31.055 38.6875 30.375 C48.83264334 28.774115 57.26945972 33.25097548 65.6875 38.375 C65.254375 37.68277344 64.82125 36.99054688 64.375 36.27734375 C59.69444769 28.05387338 58.05355094 20.79423578 59.6875 11.375 C61.2000899 8.12363854 62.91281468 5.656858 65.6875 3.375 C66.6775 3.045 67.6675 2.715 68.6875 2.375 C68.6875 1.715 68.6875 1.055 68.6875 0.375 C75.63567352 -2.71307712 81.87209188 -4.1797506 89.30078125 -1.78125 C95.34274753 0.93259221 100.36667251 4.54577988 103.6875 10.375 C104.61657656 13.76214769 104.78566346 16.87576131 104.6875 20.375 C104.666875 21.509375 104.64625 22.64375 104.625 23.8125 C103.22184365 29.14449414 100.48078841 33.65118198 97.6875 38.375 C98.0175 38.045 98.3475 37.715 98.6875 37.375 C100.61197859 36.3501642 102.5522007 35.3547878 104.5 34.375 C105.55832031 33.83875 106.61664063 33.3025 107.70703125 32.75 C113.70074969 29.98487695 119.64886699 29.3231655 125.9375 31.5 C129.33932337 32.58239834 129.64894577 31.9194585 132.6875 30.375 C139.92024291 29.30070658 145.35885788 31.01177876 151.6875 34.375 C153.4509375 35.24125 153.4509375 35.24125 155.25 36.125 C156.4565625 36.74375 156.4565625 36.74375 157.6875 37.375 C157.6875 38.035 157.6875 38.695 157.6875 39.375 C158.3475 39.375 159.0075 39.375 159.6875 39.375 C159.26597656 38.54355469 158.84445313 37.71210938 158.41015625 36.85546875 C157.86230469 35.76878906 157.31445312 34.68210938 156.75 33.5625 C156.20472656 32.48355469 155.65945312 31.40460938 155.09765625 30.29296875 C151.83901101 23.55001032 151.82092363 16.84130546 153.625 9.625 C157.37352337 3.71823589 163.0396095 -0.44010141 169.6875 -2.625 C177.62964494 -3.75583521 183.85391192 -1.78055204 190.4765625 2.54296875 C194.14296337 5.33340685 196.23765492 8.02546477 197.6875 12.375 C198.62335448 22.1940446 196.27216934 29.80656458 191.6875 38.375 C193.1415625 37.2303125 193.1415625 37.2303125 194.625 36.0625 C201.04620604 31.50551507 207.86080456 29.50536717 215.6875 30.375 C222.07164942 32.58215946 226.75559097 36.1974562 230.29296875 42.015625 C231.98444299 46.09032484 232.22611815 49.38421803 232.1875 53.75 C232.18105469 54.50442383 232.17460937 55.25884766 232.16796875 56.03613281 C232.00437262 61.00213648 231.47967389 64.85287071 228.31640625 68.86328125 C223.06038359 73.74117278 217.23703501 76.87896877 209.921875 76.70703125 C196.95666422 74.7803828 186.56029006 66.50497238 177.6875 57.375 C177.25703446 69.04430716 177.25703446 69.04430716 179.6875 80.375 C180.66421071 81.39775911 181.66114348 82.40207026 182.6875 83.375 C182.6875 84.035 182.6875 84.695 182.6875 85.375 C177.7375 85.375 172.7875 85.375 167.6875 85.375 C168.3475 83.725 169.0075 82.075 169.6875 80.375 C170.12446845 78.36275915 170.12446845 78.36275915 170.3203125 76.37890625 C170.40410156 75.65509766 170.48789063 74.93128906 170.57421875 74.18554688 C170.65285156 73.44369141 170.73148438 72.70183594 170.8125 71.9375 C170.94205078 70.83051758 170.94205078 70.83051758 171.07421875 69.70117188 C171.53683139 65.57070191 171.77987449 61.53845039 171.6875 57.375 C171.275 57.81070313 170.8625 58.24640625 170.4375 58.6953125 C162.33106491 67.05507369 153.23662862 74.53158821 141.203125 75.71875 C137.01654629 75.75663759 133.05962709 75.66748489 128.95703125 74.79296875 C125.97832197 74.24439406 124.46922331 75.24906437 121.6875 76.375 C108.69518293 77.64875658 98.6573218 70.20250029 88.9375 62.5 C88.195 61.79875 87.4525 61.0975 86.6875 60.375 C86.6875 59.715 86.6875 59.055 86.6875 58.375 C85.6975 58.045 84.7075 57.715 83.6875 57.375 C83.34573095 66.2989697 83.60686377 74.75404565 88.6875 82.375 C88.6875 83.365 88.6875 84.355 88.6875 85.375 C84.0675 85.375 79.4475 85.375 74.6875 85.375 C75.6875 80.375 75.6875 80.375 76.6875 78.375 C77.66844519 71.39938978 77.82479133 64.40736679 77.6875 57.375 C77.22859375 57.84550781 76.7696875 58.31601563 76.296875 58.80078125 C69.74266266 65.45137907 69.74266266 65.45137907 66.6875 67.375 C66.0275 67.375 65.3675 67.375 64.6875 67.375 C64.6875 68.035 64.6875 68.695 64.6875 69.375 C56.12192011 74.61923258 48.71745873 75.98330497 38.6875 75.375 C37.6046875 75.09269531 37.6046875 75.09269531 36.5 74.8046875 C34.50124429 74.16284709 34.50124429 74.16284709 31.875 75.3125 C23.45898996 78.11783668 16.33454167 75.15056333 8.6875 71.375 C2.41099816 67.30594312 -3.102957 62.73554425 -8.3125 57.375 C-8.619264 65.9984768 -8.63162786 73.30934732 -5.3125 81.375 C-4.9825 82.695 -4.6525 84.015 -4.3125 85.375 C-8.9325 85.375 -13.5525 85.375 -18.3125 85.375 C-17.6525 83.395 -16.9925 81.415 -16.3125 79.375 C-16.04014247 77.58378776 -15.82839117 75.78224994 -15.6796875 73.9765625 C-15.59589844 73.00332031 -15.51210938 72.03007812 -15.42578125 71.02734375 C-15.34714844 70.02832031 -15.26851562 69.02929688 -15.1875 68 C-15.10113281 66.97777344 -15.01476563 65.95554687 -14.92578125 64.90234375 C-14.71477374 62.39369888 -14.51055006 59.88469545 -14.3125 57.375 C-15.32957031 58.35339844 -15.32957031 58.35339844 -16.3671875 59.3515625 C-26.87418553 69.21824486 -36.30130753 75.89679441 -51.25 75.625 C-57.6458468 75.10289006 -61.18165519 72.06406708 -65.3125 67.375 C-68.68009263 62.93626948 -68.7712617 59.29359512 -68.6875 53.9375 C-68.69910156 53.19951172 -68.71070312 52.46152344 -68.72265625 51.70117188 C-68.68184237 44.04856982 -65.65991516 38.84394733 -60.3125 33.375 C-54.78990931 30.12641724 -49.57165041 29.50274474 -43.3125 30.375 C-37.6002983 32.19209516 -32.44036224 35.32010335 -27.3125 38.375 C-27.66183594 37.68792969 -28.01117188 37.00085938 -28.37109375 36.29296875 C-29.05365234 34.94138672 -29.05365234 34.94138672 -29.75 33.5625 C-30.20246094 32.66917969 -30.65492187 31.77585938 -31.12109375 30.85546875 C-34.0855298 24.6836101 -34.66801072 16.78829072 -32.640625 10.1875 C-31.8125 8.5625 -31.8125 8.5625 -30.3125 6.375 C-29.6525 6.375 -28.9925 6.375 -28.3125 6.375 C-27.9825 5.385 -27.6525 4.395 -27.3125 3.375 C-25.5703125 2.0234375 -25.5703125 2.0234375 -23.4375 0.75 C-22.73882812 0.32460937 -22.04015625 -0.10078125 -21.3203125 -0.5390625 C-14.16966449 -4.4065336 -7.11402495 -3.36379205 0 0 Z " fill="#04218C" transform="translate(68.3125,91.625)"/>
<path d="M0 0 C4.35885921 2.84019469 8.94941311 6.56926776 10.53125 11.69140625 C12.53828375 21.78181444 9.56944337 30.41341307 3.95703125 38.83203125 C4.28703125 38.50203125 4.61703125 38.17203125 4.95703125 37.83203125 C6.90361521 36.80934834 8.86435114 35.81351198 10.83203125 34.83203125 C11.90195313 34.29578125 12.971875 33.75953125 14.07421875 33.20703125 C20.90227448 29.95028922 27.65922595 30.23563634 34.95703125 31.83203125 C35.61703125 31.50203125 36.27703125 31.17203125 36.95703125 30.83203125 C48.17491571 29.50932547 55.75404004 32.69670378 64.95703125 38.83203125 C64.52390625 38.13980469 64.09078125 37.44757812 63.64453125 36.734375 C58.96505338 28.51279235 57.31962511 21.24979205 58.95703125 11.83203125 C60.5042409 8.59301292 62.36027823 6.28346719 64.95703125 3.83203125 C65.67439453 3.05085937 65.67439453 3.05085937 66.40625 2.25390625 C70.59601304 -1.58758933 74.85458978 -1.50399728 80.33203125 -1.48046875 C81.07453125 -1.49658203 81.81703125 -1.51269531 82.58203125 -1.52929688 C89.72791548 -1.53560949 94.68282915 0.98546715 99.95703125 5.83203125 C104.023345 10.76969794 104.31115304 16.98820013 103.7421875 23.1640625 C102.66476908 29.02316647 100.07205492 33.80281365 96.95703125 38.83203125 C97.94703125 38.06890625 98.93703125 37.30578125 99.95703125 36.51953125 C107.20800639 31.41484475 114.07856973 29.81014554 122.95703125 30.83203125 C123.82972656 31.20972656 124.70242187 31.58742187 125.6015625 31.9765625 C126.37886719 32.25886719 127.15617188 32.54117188 127.95703125 32.83203125 C128.94703125 32.17203125 129.93703125 31.51203125 130.95703125 30.83203125 C138.84925183 29.81291568 145.088243 30.95195239 151.95703125 34.83203125 C152.653125 35.21359375 153.34921875 35.59515625 154.06640625 35.98828125 C155.71175116 36.9096744 157.33696408 37.86688485 158.95703125 38.83203125 C158.35890625 38.00703125 157.76078125 37.18203125 157.14453125 36.33203125 C152.49714059 29.23690458 150.82157335 22.32328163 151.95703125 13.83203125 C153.42217614 9.46532492 155.44099781 5.85895768 158.95703125 2.83203125 C159.61703125 2.83203125 160.27703125 2.83203125 160.95703125 2.83203125 C160.95703125 2.17203125 160.95703125 1.51203125 160.95703125 0.83203125 C166.84345167 -3.08172817 176.23932153 -2.10499835 182.95703125 -1.16796875 C188.56226848 0.98346377 192.69341223 4.8006186 195.95703125 9.83203125 C198.62632588 17.83991514 196.9493088 25.59844146 193.45703125 33.01953125 C191.95703125 35.83203125 191.95703125 35.83203125 189.95703125 38.83203125 C190.28703125 38.50203125 190.61703125 38.17203125 190.95703125 37.83203125 C192.90361521 36.80934834 194.86435114 35.81351198 196.83203125 34.83203125 C197.90195312 34.29578125 198.971875 33.75953125 200.07421875 33.20703125 C206.56565376 30.11084545 213.39368185 29.68907012 220.26953125 31.89453125 C225.3132288 35.5306853 229.11675637 39.82382787 230.95703125 45.83203125 C232.57108156 62.90698455 232.57108156 62.90698455 227.45703125 69.38671875 C221.49259827 75.13369844 216.20756444 76.18479001 208.23046875 76.1171875 C200.80845426 75.4706397 193.73866582 72.51984306 187.95703125 67.83203125 C187.95703125 67.17203125 187.95703125 66.51203125 187.95703125 65.83203125 C187.33828125 65.52265625 186.71953125 65.21328125 186.08203125 64.89453125 C184.70703125 64.20703125 183.33203125 63.51953125 181.95703125 62.83203125 C181.95703125 62.17203125 181.95703125 61.51203125 181.95703125 60.83203125 C181.31765625 60.52265625 180.67828125 60.21328125 180.01953125 59.89453125 C177.95703125 58.83203125 177.95703125 58.83203125 176.95703125 57.83203125 C176.72044204 66.09950976 177.1435879 73.75249349 178.95703125 81.83203125 C179.61703125 81.83203125 180.27703125 81.83203125 180.95703125 81.83203125 C181.28703125 83.15203125 181.61703125 84.47203125 181.95703125 85.83203125 C177.00703125 85.83203125 172.05703125 85.83203125 166.95703125 85.83203125 C167.6090024 83.22414665 168.27501452 80.61972002 168.95703125 78.01953125 C170.44664447 71.39408739 170.61847662 64.59421458 170.95703125 57.83203125 C170.33054688 58.40953125 169.7040625 58.98703125 169.05859375 59.58203125 C167.83269531 60.69578125 167.83269531 60.69578125 166.58203125 61.83203125 C165.36386719 62.94578125 165.36386719 62.94578125 164.12109375 64.08203125 C161.95703125 65.83203125 161.95703125 65.83203125 159.95703125 65.83203125 C159.95703125 66.49203125 159.95703125 67.15203125 159.95703125 67.83203125 C157.89882044 68.98619631 155.83603653 70.13038972 153.76953125 71.26953125 C152.62097656 71.90761719 151.47242188 72.54570313 150.2890625 73.203125 C142.50743495 77.00727352 134.29551705 76.25567517 125.95703125 74.83203125 C124.96703125 75.16203125 123.97703125 75.49203125 122.95703125 75.83203125 C109.2796447 77.10192559 100.35147308 72.37258635 89.95703125 63.83203125 C87.52070555 61.5860435 85.19452873 59.2757145 82.95703125 56.83203125 C82.50711475 65.14715465 83.40293657 72.87684644 85.95703125 80.83203125 C86.61703125 81.49203125 87.27703125 82.15203125 87.95703125 82.83203125 C87.95703125 83.82203125 87.95703125 84.81203125 87.95703125 85.83203125 C83.33703125 85.83203125 78.71703125 85.83203125 73.95703125 85.83203125 C74.95703125 80.83203125 74.95703125 80.83203125 75.95703125 78.83203125 C76.10878674 77.23941059 76.2060345 75.64138269 76.2734375 74.04296875 C76.31533203 73.10195312 76.35722656 72.1609375 76.40039062 71.19140625 C76.43970703 70.2065625 76.47902344 69.22171875 76.51953125 68.20703125 C76.56271484 67.21445313 76.60589844 66.221875 76.65039062 65.19921875 C76.75664194 62.74363287 76.85868089 60.28794422 76.95703125 57.83203125 C76.23604248 58.63036377 76.23604248 58.63036377 75.50048828 59.44482422 C67.90916647 67.72139934 57.73662713 75.08131218 46.26171875 76.0625 C42.01004478 75.98730962 38.12748843 75.71667368 33.95703125 74.83203125 C32.47203125 75.32703125 32.47203125 75.32703125 30.95703125 75.83203125 C19.71608451 76.53869895 11.1107384 74.60982648 1.95703125 67.83203125 C1.95703125 67.17203125 1.95703125 66.51203125 1.95703125 65.83203125 C1.374375 65.56648438 0.79171875 65.3009375 0.19140625 65.02734375 C-2.10471103 63.79900129 -3.84652893 62.42888186 -5.79296875 60.70703125 C-6.4065625 60.16820312 -7.02015625 59.629375 -7.65234375 59.07421875 C-8.11125 58.66429687 -8.57015625 58.254375 -9.04296875 57.83203125 C-9.24679356 65.79252235 -9.34379578 73.16260783 -7.04296875 80.83203125 C-6.05296875 81.82203125 -6.05296875 81.82203125 -5.04296875 82.83203125 C-5.04296875 83.82203125 -5.04296875 84.81203125 -5.04296875 85.83203125 C-9.66296875 85.83203125 -14.28296875 85.83203125 -19.04296875 85.83203125 C-18.04296875 81.83203125 -18.04296875 81.83203125 -17.04296875 79.83203125 C-16.75417855 78.09566428 -16.50975246 76.35179803 -16.2890625 74.60546875 C-16.15693359 73.57421875 -16.02480469 72.54296875 -15.88867188 71.48046875 C-15.75396484 70.40023437 -15.61925781 69.32 -15.48046875 68.20703125 C-15.27260742 66.57507813 -15.27260742 66.57507813 -15.06054688 64.91015625 C-14.71810347 62.21784257 -14.37905464 59.52514471 -14.04296875 56.83203125 C-14.70296875 56.83203125 -15.36296875 56.83203125 -16.04296875 56.83203125 C-16.37296875 57.82203125 -16.70296875 58.81203125 -17.04296875 59.83203125 C-26.93161407 69.41051611 -37.59176057 76.25007588 -51.55078125 76.04296875 C-57.67515847 75.52460453 -61.65057514 72.67353154 -65.78125 68.4296875 C-69.27230848 64.00912119 -69.37913177 59.96578217 -69.35546875 54.45703125 C-69.37158203 53.71453125 -69.38769531 52.97203125 -69.40429688 52.20703125 C-69.41113279 44.46877454 -66.37976127 39.41704668 -61.04296875 33.83203125 C-55.62121441 29.86489393 -49.49198957 30.07674052 -43.04296875 30.83203125 C-37.47639528 32.48421059 -32.72918936 35.46756517 -28.04296875 38.83203125 C-28.47609375 38.04441406 -28.90921875 37.25679687 -29.35546875 36.4453125 C-33.41778908 28.49933871 -35.64006374 21.77576319 -34.04296875 12.83203125 C-31.89435706 7.54054834 -28.20182947 2.97442689 -23.46484375 -0.23828125 C-16.69032657 -2.83882172 -6.71223269 -2.57632551 0 0 Z " fill="#0F55E1" transform="translate(69.04296875,1.16796875)"/>
<path d="M0 0 C3.33446216 2.72055924 6.33662712 5.31945538 7.9375 9.375 C7.958125 10.24125 7.97875 11.1075 8 12 C8.03609375 12.680625 8.0721875 13.36125 8.109375 14.0625 C8.40339167 22.76539347 5.82731866 28.90642106 1 36 C1.74765625 35.57847656 2.4953125 35.15695313 3.265625 34.72265625 C4.25046875 34.17480469 5.2353125 33.62695312 6.25 33.0625 C7.22453125 32.51722656 8.1990625 31.97195312 9.203125 31.41015625 C12.89496661 29.54876683 15.89564755 28.86684626 20.01171875 28.9375 C20.76517578 28.94563721 21.51863281 28.95377441 22.29492188 28.9621582 C23.08447266 28.974646 23.87402344 28.98713379 24.6875 29 C31.86929205 29.08524024 31.86929205 29.08524024 39 28.3125 C47.20620719 27.20442114 54.51497014 31.41700404 61 36 C60.6390625 35.29617187 60.278125 34.59234375 59.90625 33.8671875 C55.93197104 25.41080506 54.02737897 16.99606588 56.62890625 7.76953125 C59.56496073 1.80525914 65.45667726 -1.91673291 71.375 -4.4375 C79.17705608 -5.64816387 86.48829929 -4.64160485 93 0 C97.40508355 3.69651391 100.28565771 7.12924894 101.0625 12.9375 C101.32164657 21.85759785 98.64797463 28.49582723 94 36 C95.12148438 35.36771484 95.12148438 35.36771484 96.265625 34.72265625 C97.25046875 34.17480469 98.2353125 33.62695312 99.25 33.0625 C100.22453125 32.51722656 101.1990625 31.97195312 102.203125 31.41015625 C106.62984117 29.17825047 110.05268325 28.86263171 115 28.875 C116.03125 28.87242187 117.0625 28.86984375 118.125 28.8671875 C121 29 121 29 123.2109375 29.5703125 C125.16865867 30.21850191 125.16865867 30.21850191 127.625 29 C134.74393951 26.89068459 141.50360032 28.69051337 148 32 C150.36199504 33.29258784 152.68204698 34.62815025 155 36 C154.566875 35.34 154.13375 34.68 153.6875 34 C149.44554582 26.45874812 147.630787 19.66055051 149 11 C151.48609879 4.76339478 154.86967195 0.00260966 161 -3 C167.44751896 -5.60380573 173.7089988 -5.51007359 180.2421875 -3.2109375 C184.63415093 -1.17240353 187.74819893 1.3656341 191 5 C191.66 5.66 192.32 6.32 193 7 C196.27606822 16.76479688 193.21589241 25.51276876 188.8671875 34.28515625 C188.58101563 34.85105469 188.29484375 35.41695312 188 36 C188.66386719 35.57847656 189.32773437 35.15695313 190.01171875 34.72265625 C191.33623047 33.90087891 191.33623047 33.90087891 192.6875 33.0625 C193.55761719 32.51722656 194.42773438 31.97195312 195.32421875 31.41015625 C201.13246017 28.34917063 207.57259347 28.49756262 214 29 C220.13266754 30.96708204 223.6675418 35.5013127 227.140625 40.7109375 C229.57852017 47.20460373 229.34299658 56.71254211 226.7265625 63.1171875 C225.2813015 65.3238543 223.9513014 67.22563008 222 69 C221.34 69 220.68 69 220 69 C220 69.66 220 70.32 220 71 C213.29556745 74.57569736 206.92249616 75.15011593 199.4921875 73.4140625 C189.56960004 69.93637107 181.05440079 62.64226752 174 55 C173.37146878 69.33432945 173.37146878 69.33432945 179 82 C174.05 82 169.1 82 164 82 C164.99 80.02 164.99 80.02 166 78 C166.45459289 75.38188168 166.82818065 72.82237996 167.125 70.1875 C167.21136719 69.50107422 167.29773438 68.81464844 167.38671875 68.10742188 C167.91114544 63.70806461 168.08106316 59.42952243 168 55 C167.56171875 55.4846875 167.1234375 55.969375 166.671875 56.46875 C157.99856599 65.63566196 147.35903141 73.89935984 134.3125 74.3125 C131.37138522 74.22539381 129.54118632 73.84417648 126.6875 72.875 C123.32834215 71.7813207 123.02378234 72.48536492 120 74 C108.18905416 75.62259 99.27213534 70.76469018 90 64 C88.88238281 63.22849609 88.88238281 63.22849609 87.7421875 62.44140625 C86.87980469 61.72791016 86.87980469 61.72791016 86 61 C86 60.34 86 59.68 86 59 C85.01 58.67 84.02 58.34 83 58 C83 57.34 83 56.68 83 56 C82.01 55.67 81.02 55.34 80 55 C79.4904057 64.58792248 80.67385798 73.34771597 85 82 C80.38 82 75.76 82 71 82 C71.66 80.02 72.32 78.04 73 76 C74.02565946 69.37191766 74.10972078 62.69296732 74 56 C73.39414063 56.58007812 72.78828125 57.16015625 72.1640625 57.7578125 C62.42580626 66.83686371 51.85063198 74.65547521 38.00390625 74.24609375 C35.47095409 73.93502945 33.35756498 72.94302599 31 72 C30.40058594 72.30421875 29.80117187 72.6084375 29.18359375 72.921875 C24.39714966 75.28512826 18.51409147 74.6073799 13.4453125 73.3828125 C3.44290727 69.77172052 -4.89296377 62.76195083 -12 55 C-12.24827117 64.69636843 -12.3914091 73.2171818 -8 82 C-12.62 82 -17.24 82 -22 82 C-21.34 80.35 -20.68 78.7 -20 77 C-19.55384461 74.39980338 -19.55384461 74.39980338 -19.3671875 71.69921875 C-19.28339844 70.72275391 -19.19960938 69.74628906 -19.11328125 68.74023438 C-19.03464844 67.73283203 -18.95601562 66.72542969 -18.875 65.6875 C-18.78863281 64.66076172 -18.70226563 63.63402344 -18.61328125 62.57617188 C-18.40189423 60.05127134 -18.19770649 57.52600242 -18 55 C-18.67313232 55.69379761 -18.67313232 55.69379761 -19.35986328 56.40161133 C-28.25638686 65.4555222 -38.74421181 73.22868432 -51.75 74.3125 C-57.86127003 74.22145687 -62.28984159 71.48213729 -66.8125 67.5625 C-72.35444483 61.07050749 -72.75336807 55.49034616 -72.4765625 47.2578125 C-71.95808311 40.69137243 -69.24789945 35.93970461 -64.39453125 31.546875 C-59.8228966 28.46292194 -54.42512903 27.66043588 -49 28 C-42.48027253 29.6052699 -36.67502818 32.46887136 -31 36 C-31.34933594 35.31292969 -31.69867188 34.62585938 -32.05859375 33.91796875 C-32.74115234 32.56638672 -32.74115234 32.56638672 -33.4375 31.1875 C-33.88996094 30.29417969 -34.34242187 29.40085938 -34.80859375 28.48046875 C-37.686075 22.48964713 -37.60441477 16.53866886 -37 10 C-35.9605242 7.19931629 -34.80003649 5.41879903 -33 3 C-32.34 3 -31.68 3 -31 3 C-31 2.34 -31 1.68 -31 1 C-21.44830312 -6.45498293 -9.97596293 -6.86362739 0 0 Z " fill="#1056E2" transform="translate(72,184)"/>
<path d="M0 0 C4.95390009 3.22791815 9.05852786 7.13652107 10.95703125 12.83203125 C11.63820581 22.92291945 9.59586729 30.37377719 3.95703125 38.83203125 C4.28703125 38.50203125 4.61703125 38.17203125 4.95703125 37.83203125 C6.90361521 36.80934834 8.86435114 35.81351198 10.83203125 34.83203125 C11.90195312 34.29578125 12.971875 33.75953125 14.07421875 33.20703125 C20.56565376 30.11084545 27.39368185 29.68907012 34.26953125 31.89453125 C39.3132288 35.5306853 43.11675637 39.82382787 44.95703125 45.83203125 C46.57108156 62.90698455 46.57108156 62.90698455 41.45703125 69.38671875 C35.49259827 75.13369844 30.20756444 76.18479001 22.23046875 76.1171875 C14.80845426 75.4706397 7.73866582 72.51984306 1.95703125 67.83203125 C1.95703125 67.17203125 1.95703125 66.51203125 1.95703125 65.83203125 C1.33828125 65.52265625 0.71953125 65.21328125 0.08203125 64.89453125 C-1.29296875 64.20703125 -2.66796875 63.51953125 -4.04296875 62.83203125 C-4.04296875 62.17203125 -4.04296875 61.51203125 -4.04296875 60.83203125 C-4.68234375 60.52265625 -5.32171875 60.21328125 -5.98046875 59.89453125 C-8.04296875 58.83203125 -8.04296875 58.83203125 -9.04296875 57.83203125 C-9.27955796 66.09950976 -8.8564121 73.75249349 -7.04296875 81.83203125 C-6.38296875 81.83203125 -5.72296875 81.83203125 -5.04296875 81.83203125 C-4.71296875 83.15203125 -4.38296875 84.47203125 -4.04296875 85.83203125 C-8.99296875 85.83203125 -13.94296875 85.83203125 -19.04296875 85.83203125 C-18.3909976 83.22414665 -17.72498548 80.61972002 -17.04296875 78.01953125 C-15.55335553 71.39408739 -15.38152338 64.59421458 -15.04296875 57.83203125 C-15.66945312 58.40953125 -16.2959375 58.98703125 -16.94140625 59.58203125 C-17.75867188 60.32453125 -18.5759375 61.06703125 -19.41796875 61.83203125 C-20.23007813 62.57453125 -21.0421875 63.31703125 -21.87890625 64.08203125 C-24.04296875 65.83203125 -24.04296875 65.83203125 -26.04296875 65.83203125 C-26.04296875 66.49203125 -26.04296875 67.15203125 -26.04296875 67.83203125 C-28.10117956 68.98619631 -30.16396347 70.13038972 -32.23046875 71.26953125 C-33.37902344 71.90761719 -34.52757812 72.54570313 -35.7109375 73.203125 C-40.23401694 75.41429045 -44.0539426 75.98055448 -49.04296875 76.01953125 C-49.86796875 76.03371094 -50.69296875 76.04789062 -51.54296875 76.0625 C-55.72016521 75.6774147 -58.23006761 74.64639708 -61.2109375 71.66015625 C-61.87738281 70.809375 -62.54382813 69.95859375 -63.23046875 69.08203125 C-64.24173828 67.82132813 -64.24173828 67.82132813 -65.2734375 66.53515625 C-68.89408354 61.00427974 -70.04350635 55.31468115 -69.04296875 48.83203125 C-66.58093702 41.64377789 -62.04037654 34.33073514 -55.04296875 30.83203125 C-47.05980232 30.07232274 -41.01120717 30.89577444 -34.04296875 34.83203125 C-33.346875 35.21359375 -32.65078125 35.59515625 -31.93359375 35.98828125 C-30.28824884 36.9096744 -28.66303592 37.86688485 -27.04296875 38.83203125 C-27.64109375 38.00703125 -28.23921875 37.18203125 -28.85546875 36.33203125 C-33.50285941 29.23690458 -35.17842665 22.32328163 -34.04296875 13.83203125 C-32.57782386 9.46532492 -30.55900219 5.85895768 -27.04296875 2.83203125 C-26.38296875 2.83203125 -25.72296875 2.83203125 -25.04296875 2.83203125 C-25.04296875 2.17203125 -25.04296875 1.51203125 -25.04296875 0.83203125 C-18.69514413 -3.3885063 -6.83896211 -2.62496748 0 0 Z " fill="#75CDFE" transform="translate(255.04296875,1.16796875)"/>
<path d="M0 0 C5.07365847 2.76507865 9.46771914 5.50179973 11.2890625 11.28515625 C12.96721658 20.08723894 10.77836581 27.54899585 6.6875 35.375 C6.3575 36.365 6.0275 37.355 5.6875 38.375 C6.656875 37.611875 7.62625 36.84875 8.625 36.0625 C15.13593902 31.4418336 21.77004933 29.71521244 29.6875 30.375 C36.13586387 31.63321734 40.05988983 37.98783842 43.5625 43.125 C46.17739132 48.35478263 46.6727433 53.97413005 45.0390625 59.61328125 C42.33119391 66.31352019 38.27463342 72.58143329 31.6875 75.875 C21.83105626 77.51774062 13.67671224 74.60950688 5.35546875 69.21484375 C0.42606793 65.57401626 -4.03918982 61.77217424 -8.3125 57.375 C-8.619264 65.9984768 -8.63162786 73.30934732 -5.3125 81.375 C-4.9825 82.695 -4.6525 84.015 -4.3125 85.375 C-8.9325 85.375 -13.5525 85.375 -18.3125 85.375 C-17.6525 83.395 -16.9925 81.415 -16.3125 79.375 C-16.04014247 77.58378776 -15.82839117 75.78224994 -15.6796875 73.9765625 C-15.59589844 73.00332031 -15.51210938 72.03007812 -15.42578125 71.02734375 C-15.34714844 70.02832031 -15.26851562 69.02929688 -15.1875 68 C-15.10113281 66.97777344 -15.01476563 65.95554687 -14.92578125 64.90234375 C-14.71477374 62.39369888 -14.51055006 59.88469545 -14.3125 57.375 C-15.32957031 58.35339844 -15.32957031 58.35339844 -16.3671875 59.3515625 C-26.87418553 69.21824486 -36.30130753 75.89679441 -51.25 75.625 C-57.6458468 75.10289006 -61.18165519 72.06406708 -65.3125 67.375 C-68.68009263 62.93626948 -68.7712617 59.29359512 -68.6875 53.9375 C-68.69910156 53.19951172 -68.71070312 52.46152344 -68.72265625 51.70117188 C-68.68184237 44.04856982 -65.65991516 38.84394733 -60.3125 33.375 C-54.78990931 30.12641724 -49.57165041 29.50274474 -43.3125 30.375 C-37.6002983 32.19209516 -32.44036224 35.32010335 -27.3125 38.375 C-27.66183594 37.68792969 -28.01117188 37.00085938 -28.37109375 36.29296875 C-29.05365234 34.94138672 -29.05365234 34.94138672 -29.75 33.5625 C-30.20246094 32.66917969 -30.65492187 31.77585938 -31.12109375 30.85546875 C-34.0855298 24.6836101 -34.66801072 16.78829072 -32.640625 10.1875 C-31.8125 8.5625 -31.8125 8.5625 -30.3125 6.375 C-29.6525 6.375 -28.9925 6.375 -28.3125 6.375 C-27.9825 5.385 -27.6525 4.395 -27.3125 3.375 C-25.5703125 2.0234375 -25.5703125 2.0234375 -23.4375 0.75 C-22.73882812 0.32460937 -22.04015625 -0.10078125 -21.3203125 -0.5390625 C-14.16966449 -4.4065336 -7.11402495 -3.36379205 0 0 Z " fill="#75CDFE" transform="translate(68.3125,91.625)"/>
<path d="M0 0 C3.33446216 2.72055924 6.33662712 5.31945538 7.9375 9.375 C7.958125 10.24125 7.97875 11.1075 8 12 C8.03609375 12.680625 8.0721875 13.36125 8.109375 14.0625 C8.40339167 22.76539347 5.82731866 28.90642106 1 36 C1.74765625 35.57847656 2.4953125 35.15695313 3.265625 34.72265625 C4.25046875 34.17480469 5.2353125 33.62695312 6.25 33.0625 C7.22453125 32.51722656 8.1990625 31.97195312 9.203125 31.41015625 C13.65007643 29.16804806 17.09138441 28.86268001 22.0625 28.875 C23.10535156 28.87242187 24.14820312 28.86984375 25.22265625 28.8671875 C28.77424359 29.03702431 30.46227401 29.43408676 32.9375 32.0390625 C38.40004356 38.88793341 42.72236265 44.48947756 42.42578125 53.58984375 C41.421951 59.27207555 38.48629093 65.27144721 34 69 C33.34 69 32.68 69 32 69 C31.731875 69.639375 31.46375 70.27875 31.1875 70.9375 C30 73 30 73 27 74 C15.03531731 75.21438543 6.94735934 71.21076708 -2.4375 64.10546875 C-5.86757682 61.28715868 -9.00348425 58.27264519 -12 55 C-12.24827117 64.69636843 -12.3914091 73.2171818 -8 82 C-12.62 82 -17.24 82 -22 82 C-21.34 80.35 -20.68 78.7 -20 77 C-19.55384461 74.39980338 -19.55384461 74.39980338 -19.3671875 71.69921875 C-19.28339844 70.72275391 -19.19960938 69.74628906 -19.11328125 68.74023438 C-19.03464844 67.73283203 -18.95601562 66.72542969 -18.875 65.6875 C-18.78863281 64.66076172 -18.70226563 63.63402344 -18.61328125 62.57617188 C-18.40189423 60.05127134 -18.19770649 57.52600242 -18 55 C-18.67313232 55.69379761 -18.67313232 55.69379761 -19.35986328 56.40161133 C-28.25638686 65.4555222 -38.74421181 73.22868432 -51.75 74.3125 C-57.86127003 74.22145687 -62.28984159 71.48213729 -66.8125 67.5625 C-72.35444483 61.07050749 -72.75336807 55.49034616 -72.4765625 47.2578125 C-71.95808311 40.69137243 -69.24789945 35.93970461 -64.39453125 31.546875 C-59.8228966 28.46292194 -54.42512903 27.66043588 -49 28 C-42.48027253 29.6052699 -36.67502818 32.46887136 -31 36 C-31.34933594 35.31292969 -31.69867188 34.62585938 -32.05859375 33.91796875 C-32.74115234 32.56638672 -32.74115234 32.56638672 -33.4375 31.1875 C-33.88996094 30.29417969 -34.34242187 29.40085938 -34.80859375 28.48046875 C-37.686075 22.48964713 -37.60441477 16.53866886 -37 10 C-35.9605242 7.19931629 -34.80003649 5.41879903 -33 3 C-32.34 3 -31.68 3 -31 3 C-31 2.34 -31 1.68 -31 1 C-21.44830312 -6.45498293 -9.97596293 -6.86362739 0 0 Z " fill="#04218C" transform="translate(72,184)"/>
<path d="M0 0 C4.95960212 2.79270971 8.96794536 6.00680622 11.8125 11 C12.74157656 14.38714769 12.91066346 17.50076131 12.8125 21 C12.791875 22.134375 12.77125 23.26875 12.75 24.4375 C11.34684365 29.76949414 8.60578841 34.27618198 5.8125 39 C6.1425 38.67 6.4725 38.34 6.8125 38 C8.73697859 36.9751642 10.6772007 35.9797878 12.625 35 C13.68332031 34.46375 14.74164063 33.9275 15.83203125 33.375 C21.6960325 30.66972026 27.62354336 29.93701445 33.8125 32 C34.4725 32.33 35.1325 32.66 35.8125 33 C33.97017888 36.90714478 31.59941425 40.33095318 29.15234375 43.87890625 C26.3084556 48.38103822 26.22659868 52.84081341 26.8125 58 C28.55777449 63.86184586 31.20153548 68.02944722 35.8125 72 C34.8125 75 34.8125 75 32.6875 76.1875 C25.72948295 78.15389612 19.32424257 76.78942731 12.8125 74 C6.43848459 70.28651309 0.18687453 66.07579817 -5.1875 61 C-5.1875 60.34 -5.1875 59.68 -5.1875 59 C-6.1775 58.67 -7.1675 58.34 -8.1875 58 C-8.52926905 66.9239697 -8.26813623 75.37904565 -3.1875 83 C-3.1875 83.99 -3.1875 84.98 -3.1875 86 C-7.8075 86 -12.4275 86 -17.1875 86 C-16.1875 81 -16.1875 81 -15.1875 79 C-14.20655481 72.02438978 -14.05020867 65.03236679 -14.1875 58 C-14.64640625 58.47050781 -15.1053125 58.94101563 -15.578125 59.42578125 C-22.13233734 66.07637907 -22.13233734 66.07637907 -25.1875 68 C-25.8475 68 -26.5075 68 -27.1875 68 C-27.1875 68.66 -27.1875 69.32 -27.1875 70 C-35.74229837 75.23763166 -43.16241461 76.63023198 -53.1875 76 C-54.1775 75.67 -55.1675 75.34 -56.1875 75 C-55.60168953 71.68763958 -54.56380663 70.03497952 -52.25 67.625 C-48.01761491 62.84453627 -46.75747235 58.46139199 -46.9296875 52.015625 C-47.82746658 44.99662492 -52.12640803 38.71205114 -57.1875 34 C-53.3630804 30.70820505 -50.82465435 30.49253646 -45.91015625 30.64453125 C-38.69285831 31.58681836 -32.32105351 35.26653264 -26.1875 39 C-26.620625 38.30777344 -27.05375 37.61554688 -27.5 36.90234375 C-32.18055231 28.67887338 -33.82144906 21.41923578 -32.1875 12 C-30.6749101 8.74863854 -28.96218532 6.281858 -26.1875 4 C-25.1975 3.67 -24.2075 3.34 -23.1875 3 C-23.1875 2.34 -23.1875 1.68 -23.1875 1 C-15.17046062 -2.56312861 -8.22079937 -3.69249866 0 0 Z " fill="#1056E1" transform="translate(160.1875,91)"/>
<path d="M0 0 C0.7425 -0.01611328 1.485 -0.03222656 2.25 -0.04882812 C9.39588423 -0.05514074 14.3507979 2.4659359 19.625 7.3125 C23.69131375 12.25016669 23.97912179 18.46866888 23.41015625 24.64453125 C22.33273783 30.50363522 19.74002367 35.2832824 16.625 40.3125 C17.615 39.549375 18.605 38.78625 19.625 38 C26.85510761 32.91000424 33.76263235 31.25286909 42.625 32.3125 C44.953125 33.33203125 44.953125 33.33203125 46.625 34.3125 C44.78267888 38.21964478 42.41191425 41.64345318 39.96484375 45.19140625 C36.81677742 50.17507978 36.88012019 55.82797749 38.0859375 61.46875 C39.79634815 66.70059433 42.5399835 69.68137423 46.625 73.3125 C46.13 74.7975 46.13 74.7975 45.625 76.3125 C38.19423511 78.78942163 30.18758477 77.91683921 23.1328125 74.70703125 C15.35566576 70.3823562 8.62192139 64.86203872 2.625 58.3125 C2.1750835 66.6276234 3.07090532 74.35731519 5.625 82.3125 C6.615 83.3025 6.615 83.3025 7.625 84.3125 C7.625 85.3025 7.625 86.2925 7.625 87.3125 C3.005 87.3125 -1.615 87.3125 -6.375 87.3125 C-5.375 82.3125 -5.375 82.3125 -4.375 80.3125 C-4.22324451 78.71987934 -4.12599675 77.12185144 -4.05859375 75.5234375 C-3.99575195 74.11191406 -3.99575195 74.11191406 -3.93164062 72.671875 C-3.89232422 71.68703125 -3.85300781 70.7021875 -3.8125 69.6875 C-3.76931641 68.69492188 -3.72613281 67.70234375 -3.68164062 66.6796875 C-3.57538931 64.22410162 -3.47335036 61.76841297 -3.375 59.3125 C-3.85565918 59.84472168 -4.33631836 60.37694336 -4.83154297 60.92529297 C-12.47036772 69.25365903 -22.57036264 76.44479661 -34.0703125 77.578125 C-38.59067529 77.54905514 -42.28314928 77.49482039 -46.375 75.3125 C-45.98828125 74.91160156 -45.6015625 74.51070313 -45.203125 74.09765625 C-40.09079576 68.51711864 -36.31652382 62.5988245 -35.8125 54.875 C-36.14351952 48.1363883 -39.32114007 42.22943593 -44.1875 37.6875 C-44.909375 37.23375 -45.63125 36.78 -46.375 36.3125 C-46.045 35.3225 -45.715 34.3325 -45.375 33.3125 C-40.87234938 31.06117469 -35.24308742 31.73823428 -30.375 32.3125 C-24.95479443 34.32342102 -20.17184605 37.11460263 -15.375 40.3125 C-15.808125 39.62027344 -16.24125 38.92804687 -16.6875 38.21484375 C-21.36697787 29.9932611 -23.01240614 22.7302608 -21.375 13.3125 C-19.82779035 10.07348167 -17.97175302 7.76393594 -15.375 5.3125 C-14.89675781 4.79171875 -14.41851562 4.2709375 -13.92578125 3.734375 C-9.73601821 -0.10712058 -5.47744147 -0.02352853 0 0 Z " fill="#04218C" transform="translate(149.375,-0.3125)"/>
<path d="M0 0 C4.40508355 3.69651391 7.28565771 7.12924894 8.0625 12.9375 C8.32164657 21.85759785 5.64797463 28.49582723 1 36 C1.74765625 35.57847656 2.4953125 35.15695313 3.265625 34.72265625 C4.25046875 34.17480469 5.2353125 33.62695312 6.25 33.0625 C7.22453125 32.51722656 8.1990625 31.97195312 9.203125 31.41015625 C13.65007643 29.16804806 17.09138441 28.86268001 22.0625 28.875 C23.10535156 28.87242187 24.14820313 28.86984375 25.22265625 28.8671875 C28 29 28 29 31 30 C31 33 31 33 28.6875 35.375 C27.3571875 36.674375 27.3571875 36.674375 26 38 C22.06489942 43.76211157 21.34938478 49.13368578 22 56 C23.58041364 60.74124092 25.63409875 64.30836637 29 68 C29.66 68.33 30.32 68.66 31 69 C31 69.99 31 70.98 31 72 C25.54803315 75.16974817 19.36722644 74.88189264 13.375 73.3125 C7.36186912 71.05757592 2.16985851 67.77178394 -3 64 C-3.74507812 63.48566406 -4.49015625 62.97132813 -5.2578125 62.44140625 C-6.12019531 61.72791016 -6.12019531 61.72791016 -7 61 C-7 60.34 -7 59.68 -7 59 C-7.99 58.67 -8.98 58.34 -10 58 C-10 57.34 -10 56.68 -10 56 C-10.99 55.67 -11.98 55.34 -13 55 C-13.5095943 64.58792248 -12.32614202 73.34771597 -8 82 C-12.62 82 -17.24 82 -22 82 C-21.34 80.02 -20.68 78.04 -20 76 C-18.97434054 69.37191766 -18.89027922 62.69296732 -19 56 C-19.90878906 56.87011719 -19.90878906 56.87011719 -20.8359375 57.7578125 C-30.6994193 66.95361245 -41.04031264 74.37682889 -54.95703125 74.30078125 C-57.28802577 73.95759468 -58.95817952 73.15167852 -61 72 C-61 71.01 -61 70.02 -61 69 C-59.88625 67.9171875 -59.88625 67.9171875 -58.75 66.8125 C-54.35807371 62.3207572 -51.8011225 57.80438207 -51.5625 51.4375 C-51.97948266 43.8275665 -55.48996417 39.05715991 -60.57421875 33.69921875 C-62 32 -62 32 -62 30 C-55.66801202 27.16726853 -49.73760705 27.77376502 -43.2734375 29.89453125 C-39.41592399 31.41364055 -35.69384965 33.11934139 -32 35 C-32.41572266 34.18595703 -32.41572266 34.18595703 -32.83984375 33.35546875 C-33.20207031 32.64003906 -33.56429687 31.92460937 -33.9375 31.1875 C-34.29714844 30.47980469 -34.65679687 29.77210938 -35.02734375 29.04296875 C-38.04825122 22.69784985 -38.21607017 14.49248854 -36.38671875 7.734375 C-33.35442652 1.8033717 -27.57009599 -1.90532949 -21.625 -4.4375 C-13.82294392 -5.64816387 -6.51170071 -4.64160485 0 0 Z " fill="#75CDFE" transform="translate(165,184)"/>
</svg>
