<?xml version="1.0" encoding="UTF-8"?>
<svg xmlns="http://www.w3.org/2000/svg" xmlns:xlink="http://www.w3.org/1999/xlink" width="300px" height="300px" viewBox="0 0 300 300" version="1.1">
<g id="surface1">
<path style=" stroke:none;fill-rule:nonzero;fill:rgb(100%,100%,100%);fill-opacity:1;" d="M 72.03125 0.00390625 L 227.96875 0.00390625 C 267.75 0.00390625 299.996094 32.328125 299.996094 72.203125 L 299.996094 227.796875 C 299.996094 267.671875 267.75 299.996094 227.96875 299.996094 L 72.03125 299.996094 C 32.253906 299.996094 0.00390625 267.671875 0.00390625 227.796875 L 0.00390625 72.203125 C 0.00390625 32.328125 32.253906 0.00390625 72.03125 0.00390625 Z M 72.03125 0.00390625 "/>
<path style=" stroke:none;fill-rule:nonzero;fill:rgb(1.960784%,21.568628%,42.352942%);fill-opacity:1;" d="M 61.410156 148.570312 C 63.386719 141.910156 65.359375 135.246094 67.4375 128.582031 C 62.761719 123.6875 57.671875 120.25 51.546875 120.25 C 45.3125 120.25 38.25 123.6875 30.5625 128.582031 C 28.589844 135.246094 26.613281 141.90625 24.640625 148.570312 C 22.566406 155.234375 20.589844 161.898438 18.617188 168.664062 C 26.199219 163.878906 33.261719 160.648438 39.394531 160.648438 C 45.625 160.648438 50.71875 163.878906 55.390625 168.664062 C 57.359375 161.898438 59.4375 155.234375 61.410156 148.570312 "/>
<path style=" stroke:none;fill-rule:nonzero;fill:rgb(1.960784%,21.568628%,42.352942%);fill-opacity:1;" d="M 188.132812 156.484375 C 189.214844 154.972656 190.023438 153.28125 190.519531 151.484375 C 191.972656 146.800781 191.457031 143.261719 189.070312 140.96875 C 188.863281 140.65625 188.546875 140.449219 188.132812 140.144531 C 185.84375 138.476562 181.796875 137.539062 176.289062 137.539062 L 161.644531 137.539062 L 149.800781 177.828125 L 149.800781 177.929688 L 163.617188 177.929688 L 167.566406 164.5 L 170.371094 164.5 C 171.617188 164.5 172.863281 164.398438 174.109375 164.292969 C 177.640625 163.773438 180.757812 162.734375 183.457031 160.964844 C 185.304688 159.804688 186.894531 158.28125 188.132812 156.488281 M 177.746094 150.652344 C 177.417969 152.0625 176.511719 153.273438 175.253906 153.984375 C 174.902344 154.21875 174.515625 154.394531 174.109375 154.503906 C 173.082031 154.917969 171.824219 155.125 170.265625 155.125 L 172.863281 146.175781 L 174.113281 146.175781 C 175.566406 146.28125 176.707031 146.589844 177.332031 147.324219 C 178.058594 148.050781 178.15625 149.195312 177.742188 150.652344 "/>
<path style=" stroke:none;fill-rule:nonzero;fill:rgb(1.960784%,21.568628%,42.352942%);fill-opacity:1;" d="M 118.75 157.210938 L 119.890625 153.152344 L 110.542969 153.152344 L 112.203125 147.324219 L 122.898438 147.324219 L 125.8125 137.535156 L 101.59375 137.535156 L 104.105469 128.683594 L 67.644531 128.683594 L 101.226562 137.769531 L 92.261719 168.667969 L 55.074219 168.667969 L 89.5625 177.929688 L 103.273438 177.929688 L 107.738281 162.730469 L 117.085938 162.730469 Z M 118.75 157.210938 "/>
<path style=" stroke:none;fill-rule:nonzero;fill:rgb(1.960784%,21.568628%,42.352942%);fill-opacity:1;" d="M 281.511719 140.96875 C 279.222656 138.679688 274.863281 137.535156 268.632812 137.535156 L 253.988281 137.535156 L 245.78125 165.644531 L 242.144531 177.929688 L 255.957031 177.929688 L 259.90625 164.5 L 262.710938 164.5 C 263.949219 164.5 265.203125 164.398438 266.449219 164.292969 C 269.984375 163.773438 273.097656 162.734375 275.796875 160.964844 C 279.433594 158.671875 281.824219 155.546875 282.964844 151.488281 C 284.40625 146.804688 283.898438 143.261719 281.511719 140.972656 M 270.085938 150.65625 C 269.5625 152.21875 268.847656 153.257812 267.59375 153.988281 C 267.242188 154.21875 266.855469 154.394531 266.449219 154.507812 C 265.421875 154.921875 264.164062 155.125 262.605469 155.125 L 265.203125 146.171875 L 266.441406 146.171875 C 267.894531 146.277344 269.035156 146.585938 269.660156 147.320312 C 270.386719 148.046875 270.480469 149.191406 270.070312 150.648438 "/>
<path style=" stroke:none;fill-rule:nonzero;fill:rgb(1.960784%,21.568628%,42.352942%);fill-opacity:1;" d="M 243.296875 159.503906 C 242.566406 157.734375 240.492188 155.546875 237.167969 152.839844 C 237.167969 152.734375 237.0625 152.734375 236.855469 152.527344 C 234.988281 151.070312 234.15625 149.820312 234.46875 148.777344 C 234.699219 148.019531 235.222656 147.382812 235.917969 147.007812 C 236.742188 146.539062 237.671875 146.285156 238.621094 146.28125 C 239.871094 146.28125 241.011719 146.59375 242.363281 147.105469 C 243.554688 147.667969 244.703125 148.328125 245.789062 149.082031 C 245.910156 149.273438 246.09375 149.417969 246.308594 149.496094 L 249.316406 139.082031 C 248.175781 138.542969 246.996094 138.089844 245.789062 137.726562 C 245.171875 137.625 244.644531 137.417969 244.125 137.316406 C 242.390625 136.902344 240.613281 136.695312 238.828125 136.695312 C 234.363281 136.695312 230.414062 137.839844 226.984375 140.03125 C 223.449219 142.21875 221.261719 145.03125 220.230469 148.46875 C 219.710938 150.445312 219.710938 152.320312 220.335938 153.984375 C 221.0625 155.757812 223.039062 158.152344 226.257812 161.273438 C 228.125 163.25 228.957031 164.605469 228.644531 165.542969 C 228.414062 166.445312 227.808594 167.203125 226.980469 167.625 C 226.113281 168.175781 225.105469 168.464844 224.074219 168.453125 C 222.839844 168.453125 221.480469 168.039062 220.023438 167.417969 C 218.90625 166.875 217.832031 166.246094 216.804688 165.542969 C 216.3125 165.257812 215.855469 164.914062 215.453125 164.511719 L 212.132812 175.660156 C 213.605469 176.554688 215.171875 177.289062 216.804688 177.84375 C 216.90625 177.949219 217.117188 177.949219 217.214844 178.050781 C 219.015625 178.503906 220.863281 178.75 222.722656 178.78125 C 227.8125 178.78125 232.175781 177.527344 235.914062 175.136719 C 239.652344 172.742188 242.148438 169.617188 243.289062 165.660156 C 244.015625 163.265625 243.90625 161.285156 243.289062 159.519531 "/>
<path style=" stroke:none;fill-rule:nonzero;fill:rgb(1.960784%,21.568628%,42.352942%);fill-opacity:1;" d="M 201.949219 167.519531 L 203.609375 161.898438 L 213.164062 161.898438 L 215.96875 152.527344 L 206.308594 152.527344 L 207.867188 147.324219 L 218.460938 147.324219 L 221.367188 137.535156 L 196.855469 137.535156 L 188.132812 167.210938 L 185.117188 177.929688 L 209.527344 177.929688 L 212.644531 167.519531 Z M 201.949219 167.519531 "/>
<path style=" stroke:none;fill-rule:nonzero;fill:rgb(1.960784%,21.568628%,42.352942%);fill-opacity:1;" d="M 149.800781 137.535156 L 134.328125 137.535156 L 118.75 165.335938 L 111.683594 177.925781 L 125.085938 177.925781 L 127.890625 171.996094 L 136.097656 171.996094 L 135.371094 177.925781 L 148.769531 177.925781 L 149.800781 138.257812 Z M 137.132812 163.875 L 131.628906 163.875 L 135.160156 156.375 L 138.6875 148.878906 Z M 137.132812 163.875 "/>
</g>
</svg>
