<?xml version="1.0" encoding="UTF-8"?>
<svg xmlns="http://www.w3.org/2000/svg" xmlns:xlink="http://www.w3.org/1999/xlink" width="56px" height="56px" viewBox="0 0 56 56" version="1.1">
<defs>
<radialGradient id="radial0" gradientUnits="userSpaceOnUse" cx="257.02066" cy="146.231201" fx="257.02066" fy="146.231201" r="8.396895" gradientTransform="matrix(0.191773,0,0,0.167,-39.014913,3.757877)">
<stop offset="0" style="stop-color:rgb(100%,100%,100%);stop-opacity:1;"/>
<stop offset="0.589286" style="stop-color:rgb(100%,100%,100%);stop-opacity:1;"/>
<stop offset="1" style="stop-color:rgb(51.372549%,52.54902%,51.372549%);stop-opacity:1;"/>
</radialGradient>
<radialGradient id="radial1" gradientUnits="userSpaceOnUse" cx="257.02066" cy="146.231201" fx="257.02066" fy="146.231201" r="8.396895" gradientTransform="matrix(0.0776607,0,0,0.0776607,-9.651337,16.836737)">
<stop offset="0" style="stop-color:rgb(76.078431%,38.039216%,29.411765%);stop-opacity:1;"/>
<stop offset="0.74" style="stop-color:rgb(54.901961%,35.294118%,20.784314%);stop-opacity:1;"/>
<stop offset="1" style="stop-color:rgb(50.980392%,43.529412%,40%);stop-opacity:1;"/>
</radialGradient>
<radialGradient id="radial2" gradientUnits="userSpaceOnUse" cx="259.201874" cy="144.217773" fx="259.201874" fy="144.217773" r="8.396895" gradientTransform="matrix(0.0413264,0,0,0.0413264,-0.329995,22.149951)">
<stop offset="0" style="stop-color:rgb(34.901961%,30.588235%,29.803922%);stop-opacity:1;"/>
<stop offset="1" style="stop-color:rgb(19.215686%,17.647059%,16.862745%);stop-opacity:1;"/>
</radialGradient>
<filter id="alpha" filterUnits="objectBoundingBox" x="0%" y="0%" width="100%" height="100%">
  <feColorMatrix type="matrix" in="SourceGraphic" values="0 0 0 0 1 0 0 0 0 1 0 0 0 0 1 0 0 0 1 0"/>
</filter>
<mask id="mask0">
  <g filter="url(#alpha)">
<rect x="0" y="0" width="56" height="56" style="fill:rgb(0%,0%,0%);fill-opacity:0.698039;stroke:none;"/>
  </g>
</mask>
<radialGradient id="radial3" gradientUnits="userSpaceOnUse" cx="285.18573" cy="200.447571" fx="285.18573" fy="200.447571" r="300" gradientTransform="matrix(0.0543084,0,0,0.0568544,-8.172489,12.095643)">
<stop offset="0" style="stop-color:rgb(100%,100%,100%);stop-opacity:0.313725;"/>
<stop offset="0.19" style="stop-color:rgb(100%,100%,100%);stop-opacity:0.25098;"/>
<stop offset="0.6" style="stop-color:rgb(41.960784%,41.960784%,41.960784%);stop-opacity:0.12549;"/>
<stop offset="1" style="stop-color:rgb(0%,0%,0%);stop-opacity:0.12549;"/>
</radialGradient>
<radialGradient id="radial4" gradientUnits="userSpaceOnUse" cx="285.18573" cy="200.447571" fx="285.18573" fy="200.447571" r="300" gradientTransform="matrix(0.0229834,0,0,0.0173676,2.486841,1.710072)">
<stop offset="0" style="stop-color:rgb(100%,100%,100%);stop-opacity:0.313725;"/>
<stop offset="0.19" style="stop-color:rgb(100%,100%,100%);stop-opacity:0.25098;"/>
<stop offset="0.6" style="stop-color:rgb(41.960784%,41.960784%,41.960784%);stop-opacity:0.12549;"/>
<stop offset="1" style="stop-color:rgb(0%,0%,0%);stop-opacity:0.12549;"/>
</radialGradient>
<clipPath id="clip1">
  <rect x="0" y="0" width="56" height="56"/>
</clipPath>
<g id="surface5" clip-path="url(#clip1)">
<path style=" stroke:none;fill-rule:evenodd;fill:url(#radial3);" d="M 17.261719 20.648438 L 17.261719 46.804688 C 17.308594 47.023438 17.367188 47.21875 17.480469 47.375 C 17.59375 47.53125 17.761719 47.644531 18 47.699219 L 26.417969 47.699219 C 27.003906 47.679688 27.273438 47.769531 27.414062 47.871094 C 27.554688 47.976562 27.570312 48.097656 27.660156 48.203125 L 27.691406 48.238281 L 27.746094 48.238281 L 27.769531 48.199219 C 27.839844 48.085938 27.847656 47.96875 27.988281 47.871094 C 28.128906 47.773438 28.410156 47.683594 29.007812 47.699219 L 37.429688 47.699219 L 37.4375 47.695312 C 37.851562 47.535156 38.09375 47.261719 38.160156 46.800781 L 38.164062 46.796875 L 38.164062 20.648438 Z M 17.261719 20.648438 "/>
<path style=" stroke:none;fill-rule:evenodd;fill:url(#radial4);" d="M 27.730469 8.742188 L 26.730469 12.003906 L 23.316406 11.914062 L 26.109375 13.878906 L 25.007812 16.984375 L 25.121094 16.984375 L 27.695312 15.042969 L 30.222656 16.984375 L 30.359375 16.984375 L 29.296875 13.890625 L 32.113281 11.960938 L 28.699219 12.015625 Z M 27.730469 8.742188 "/>
</g>
</defs>
<g id="surface1">
<path style=" stroke:none;fill-rule:nonzero;fill:rgb(100%,100%,100%);fill-opacity:1;" d="M 13.1875 0 L 42.8125 0 C 50.09375 0 55.996094 5.90625 55.996094 13.1875 L 55.996094 42.8125 C 55.996094 50.09375 50.09375 56 42.8125 56 L 13.1875 56 C 5.902344 56 0 50.09375 0 42.8125 L 0 13.1875 C 0 5.90625 5.902344 0 13.1875 0 Z M 13.1875 0 "/>
<path style="fill-rule:nonzero;fill:rgb(0%,44.313726%,73.725492%);fill-opacity:1;stroke-width:1;stroke-linecap:butt;stroke-linejoin:miter;stroke:rgb(0%,0%,0%);stroke-opacity:1;stroke-miterlimit:4;" d="M 429.019931 527.023335 L 429.019931 739.839813 C 429.138426 739.662071 429.197673 739.484329 429.316168 739.306587 C 430.797352 736.344219 431.50832 731.426689 448.690051 731.841421 L 576.131099 731.841421 C 576.54583 731.663679 576.901314 731.545184 577.256799 731.367442 C 582.58906 728.997548 585.551427 725.38346 586.499385 719.043993 L 586.499385 527.023335 Z M 429.019931 527.023335 " transform="matrix(0.0659312,0,0,0.0659312,-0.570964,-0.614479)"/>
<path style="fill-rule:evenodd;fill:rgb(83.137256%,0%,0%);fill-opacity:1;stroke-width:0.7;stroke-linecap:butt;stroke-linejoin:round;stroke:rgb(0%,0%,0%);stroke-opacity:1;stroke-miterlimit:4;" d="M 506.574711 611.747044 C 505.508259 604.222631 495.613952 607.244246 497.509867 595.217034 C 498.280082 592.017677 501.775676 587.159394 495.732446 584.671006 C 497.806104 583.841543 500.35374 584.197027 501.597934 588.107352 C 506.811701 582.893585 506.989443 580.345949 503.790086 576.198635 C 507.581916 575.843151 512.143962 578.924013 510.485036 584.730253 C 511.492241 583.90079 514.039877 586.448426 513.921382 589.94402 C 517.713213 595.039292 517.239234 597.705423 513.98063 602.267468 C 512.85493 604.222631 507.344927 606.770267 506.574711 611.747044 Z M 506.574711 611.747044 " transform="matrix(0.0659312,0,0,0.0659312,-0.570964,-0.614479)"/>
<path style="fill-rule:evenodd;fill:rgb(83.137256%,0%,0%);fill-opacity:1;stroke-width:0.7;stroke-linecap:butt;stroke-linejoin:round;stroke:rgb(0%,0%,0%);stroke-opacity:1;stroke-miterlimit:4;" d="M 501.597934 587.92961 C 499.168793 591.602946 500.768471 593.321119 500.768471 593.617355 " transform="matrix(0.0659312,0,0,0.0659312,-0.570964,-0.614479)"/>
<path style="fill-rule:evenodd;fill:rgb(83.137256%,0%,0%);fill-opacity:1;stroke-width:0.7;stroke-linecap:butt;stroke-linejoin:round;stroke:rgb(0%,0%,0%);stroke-opacity:1;stroke-miterlimit:4;" d="M 506.15998 586.152189 C 505.804496 588.344341 504.975033 589.410794 503.790086 591.306709 C 500.886966 595.572518 505.626754 599.068112 505.686001 601.497253 L 505.686001 601.260263 " transform="matrix(0.0659312,0,0,0.0659312,-0.570964,-0.614479)"/>
<path style="fill-rule:evenodd;fill:rgb(83.137256%,0%,0%);fill-opacity:1;stroke-width:0.7;stroke-linecap:butt;stroke-linejoin:round;stroke:rgb(0%,0%,0%);stroke-opacity:1;stroke-miterlimit:4;" d="M 507.9374 592.373161 C 507.581916 587.633373 509.774068 587.337136 510.662778 584.197027 " transform="matrix(0.0659312,0,0,0.0659312,-0.570964,-0.614479)"/>
<path style="fill-rule:evenodd;fill:rgb(83.137256%,0%,0%);fill-opacity:1;stroke-width:0.7;stroke-linecap:butt;stroke-linejoin:round;stroke:rgb(0%,0%,0%);stroke-opacity:1;stroke-miterlimit:4;" d="M 513.862135 589.884772 C 514.158372 593.617355 511.018262 594.446818 510.129552 599.54209 " transform="matrix(0.0659312,0,0,0.0659312,-0.570964,-0.614479)"/>
<path style="fill-rule:nonzero;fill:rgb(91.764706%,75.686276%,0.784314%);fill-opacity:1;stroke-width:2.118722;stroke-linecap:butt;stroke-linejoin:miter;stroke:rgb(0%,0%,0%);stroke-opacity:1;stroke-miterlimit:4;" d="M 457.932638 679.99999 L 534.954191 679.644506 L 557.823668 661.574065 L 483.645987 661.45557 Z M 457.932638 679.99999 " transform="matrix(0.0659312,0,0,0.0659312,-0.570964,-0.614479)"/>
<path style="fill-rule:nonzero;fill:rgb(91.764706%,75.686276%,0.784314%);fill-opacity:1;stroke-width:0.7;stroke-linecap:butt;stroke-linejoin:miter;stroke:rgb(0%,0%,0%);stroke-opacity:1;stroke-miterlimit:4;" d="M 458.465864 680.059238 L 534.243223 679.703754 L 556.638721 661.633312 L 556.994205 672.41633 L 536.139138 690.190534 L 458.584359 690.546018 C 454.555539 690.605266 454.792528 679.585259 458.465864 680.059238 Z M 458.465864 680.059238 " transform="matrix(0.0659312,0,0,0.0659312,-0.570964,-0.614479)"/>
<path style="fill-rule:nonzero;fill:rgb(83.137256%,0%,0%);fill-opacity:1;stroke-width:0.7;stroke-linecap:butt;stroke-linejoin:miter;stroke:rgb(0%,0%,0%);stroke-opacity:1;stroke-miterlimit:4;" d="M 502.427397 679.763001 C 500.709224 682.784616 500.768471 687.346662 502.486644 690.368276 L 498.33933 690.309029 C 496.621157 687.405909 496.561909 682.843863 498.161588 679.822248 Z M 502.427397 679.763001 " transform="matrix(0.0659312,0,0,0.0659312,-0.570964,-0.614479)"/>
<path style="fill-rule:nonzero;fill:rgb(83.137256%,0%,0%);fill-opacity:1;stroke-width:0.7;stroke-linecap:butt;stroke-linejoin:miter;stroke:rgb(0%,0%,0%);stroke-opacity:1;stroke-miterlimit:4;" d="M 522.512248 679.763001 C 520.971817 682.725368 520.853322 687.287414 522.630743 690.190534 L 518.483428 690.249782 C 516.765255 687.346662 516.706008 682.784616 518.424181 679.822248 Z M 522.512248 679.763001 " transform="matrix(0.0659312,0,0,0.0659312,-0.570964,-0.614479)"/>
<path style="fill-rule:nonzero;fill:rgb(89.019608%,89.411765%,89.803922%);fill-opacity:1;stroke-width:0.7;stroke-linecap:butt;stroke-linejoin:miter;stroke:rgb(0%,0%,0%);stroke-opacity:1;stroke-miterlimit:4;" d="M 535.309675 680.829453 L 556.046248 664.121701 L 556.283237 671.527619 L 536.731612 687.702146 C 534.302471 689.716555 533.473008 682.547626 535.309675 680.829453 Z M 535.309675 680.829453 " transform="matrix(0.0659312,0,0,0.0659312,-0.570964,-0.614479)"/>
<path style="fill-rule:nonzero;fill:rgb(91.764706%,75.686276%,0.784314%);fill-opacity:1;stroke-width:0.7;stroke-linecap:butt;stroke-linejoin:miter;stroke:rgb(0%,0%,0%);stroke-opacity:1;stroke-miterlimit:4;" d="M 460.717263 667.024821 L 536.376128 670.875899 L 559.897325 654.168146 L 559.482594 664.891916 L 537.679569 681.481174 L 460.184037 677.452354 C 456.214465 677.274612 457.162422 666.313853 460.717263 667.024821 Z M 460.717263 667.024821 " transform="matrix(0.0659312,0,0,0.0659312,-0.570964,-0.614479)"/>
<path style="fill-rule:nonzero;fill:rgb(91.764706%,75.686276%,0.784314%);fill-opacity:1;stroke-width:2.135952;stroke-linecap:butt;stroke-linejoin:miter;stroke:rgb(0%,0%,0%);stroke-opacity:1;stroke-miterlimit:4;" d="M 460.717263 667.024821 L 536.376128 670.875899 L 559.897325 654.168146 L 487.023086 649.902337 Z M 460.717263 667.024821 " transform="matrix(0.0659312,0,0,0.0659312,-0.570964,-0.614479)"/>
<path style="fill-rule:nonzero;fill:rgb(83.137256%,0%,0%);fill-opacity:1;stroke-width:0.7;stroke-linecap:butt;stroke-linejoin:miter;stroke:rgb(0%,0%,0%);stroke-opacity:1;stroke-miterlimit:4;" d="M 486.193623 668.209768 C 484.416203 671.112888 484.119966 675.674934 485.660397 678.815043 L 476.595553 678.281817 C 474.995874 675.260202 475.232864 670.698156 477.069531 667.795036 Z M 486.193623 668.209768 " transform="matrix(0.0659312,0,0,0.0659312,-0.570964,-0.614479)"/>
<path style="fill-rule:nonzero;fill:rgb(89.019608%,89.411765%,89.803922%);fill-opacity:1;stroke-width:0.7;stroke-linecap:butt;stroke-linejoin:miter;stroke:rgb(0%,0%,0%);stroke-opacity:1;stroke-miterlimit:4;" d="M 537.383333 672.060845 L 559.008615 656.597287 L 558.89012 663.884711 L 538.390538 679.052033 C 535.902149 680.947948 535.487418 673.601277 537.383333 672.060845 Z M 537.383333 672.060845 " transform="matrix(0.0659312,0,0,0.0659312,-0.570964,-0.614479)"/>
<path style="fill-rule:nonzero;fill:rgb(89.019608%,89.411765%,89.803922%);fill-opacity:1;stroke-width:0.7;stroke-linecap:butt;stroke-linejoin:miter;stroke:rgb(0%,0%,0%);stroke-opacity:1;stroke-miterlimit:4;" d="M 545.50022 650.376316 L 546.270435 662.166538 L 467.056729 662.166538 L 468.656408 650.139326 L 506.693206 628.336302 Z M 545.50022 650.376316 " transform="matrix(0.0659312,0,0,0.0659312,-0.570964,-0.614479)"/>
<path style="fill-rule:nonzero;fill:rgb(91.764706%,75.686276%,0.784314%);fill-opacity:1;stroke-width:0.7;stroke-linecap:butt;stroke-linejoin:miter;stroke:rgb(0%,0%,0%);stroke-opacity:1;stroke-miterlimit:4;" d="M 546.625919 660.863097 L 467.649203 660.863097 L 467.649203 664.35869 L 546.625919 664.35869 Z M 546.625919 660.863097 " transform="matrix(0.0659312,0,0,0.0659312,-0.570964,-0.614479)"/>
<path style="fill-rule:nonzero;fill:rgb(89.019608%,89.411765%,89.803922%);fill-opacity:1;stroke-width:0.7;stroke-linecap:butt;stroke-linejoin:miter;stroke:rgb(0%,0%,0%);stroke-opacity:1;stroke-miterlimit:4;" d="M 468.83415 661.45557 L 473.455443 617.375542 C 478.076736 618.915973 482.520288 617.671779 487.793302 612.339518 C 493.4218 606.71102 501.24245 604.400373 507.167185 611.747044 L 507.167185 656.241803 C 501.24245 648.835885 491.585132 648.835885 485.60115 654.642125 C 480.268888 659.855892 473.810927 662.166538 468.83415 661.45557 Z M 468.83415 661.45557 " transform="matrix(0.0659312,0,0,0.0659312,-0.570964,-0.614479)"/>
<path style="fill-rule:nonzero;fill:rgb(89.019608%,89.411765%,89.803922%);fill-opacity:1;stroke-width:0.7;stroke-linecap:butt;stroke-linejoin:miter;stroke:rgb(0%,0%,0%);stroke-opacity:1;stroke-miterlimit:4;" d="M 469.071139 658.374708 L 473.692433 614.29468 C 478.313726 615.835111 482.757277 614.650164 488.030291 609.317903 C 493.658789 603.689405 501.479439 601.378758 507.404174 608.725429 L 507.404174 653.220189 C 501.479439 645.81427 491.822121 645.81427 485.838139 651.62051 C 480.505878 656.834277 474.047917 659.144923 469.071139 658.374708 Z M 469.071139 658.374708 " transform="matrix(0.0659312,0,0,0.0659312,-0.570964,-0.614479)"/>
<path style="fill-rule:nonzero;fill:rgb(89.019608%,89.411765%,89.803922%);fill-opacity:1;stroke-width:0.7;stroke-linecap:butt;stroke-linejoin:miter;stroke:rgb(0%,0%,0%);stroke-opacity:1;stroke-miterlimit:4;" d="M 468.83415 653.575673 L 473.455443 609.080914 C 478.076736 610.621345 482.520288 609.37715 487.793302 604.044889 C 493.4218 598.357143 501.24245 595.987249 507.167185 603.393168 L 507.167185 648.302659 C 501.24245 640.89674 491.585132 640.837493 485.60115 646.70298 C 480.268888 651.975994 473.810927 654.345888 468.83415 653.575673 Z M 468.83415 653.575673 " transform="matrix(0.0659312,0,0,0.0659312,-0.570964,-0.614479)"/>
<path style="fill-rule:nonzero;fill:rgb(89.019608%,89.411765%,89.803922%);fill-opacity:1;stroke-width:0.7;stroke-linecap:butt;stroke-linejoin:miter;stroke:rgb(0%,0%,0%);stroke-opacity:1;stroke-miterlimit:4;" d="M 468.715655 645.281044 L 473.336948 601.911984 C 478.017489 604.578115 482.401793 604.400373 487.674807 600.371553 C 493.303305 596.046497 501.123955 595.572518 507.04869 604.45962 L 507.04869 649.428358 C 501.123955 640.541256 491.466637 638.112115 485.482655 642.555666 C 480.150394 646.465991 473.692433 647.295454 468.715655 645.281044 Z M 468.715655 645.281044 " transform="matrix(0.0659312,0,0,0.0659312,-0.570964,-0.614479)"/>
<path style="fill-rule:nonzero;fill:rgb(89.019608%,89.411765%,89.803922%);fill-opacity:1;stroke-width:0.7;stroke-linecap:butt;stroke-linejoin:miter;stroke:rgb(0%,0%,0%);stroke-opacity:1;stroke-miterlimit:4;" d="M 545.322477 657.367503 L 540.701184 614.472422 C 536.079891 617.138553 531.63634 616.960811 526.363326 612.931991 C 520.734828 608.725429 512.914178 608.251451 506.989443 617.079306 L 506.989443 661.574065 C 512.914178 652.74621 522.571495 650.376316 528.555478 654.701372 C 533.887739 658.611697 540.3457 659.381913 545.322477 657.367503 Z M 545.322477 657.367503 " transform="matrix(0.0659312,0,0,0.0659312,-0.570964,-0.614479)"/>
<path style="fill-rule:nonzero;fill:rgb(89.019608%,89.411765%,89.803922%);fill-opacity:1;stroke-width:0.7;stroke-linecap:butt;stroke-linejoin:miter;stroke:rgb(0%,0%,0%);stroke-opacity:1;stroke-miterlimit:4;" d="M 545.085488 654.405135 L 540.464195 611.450807 C 535.842902 614.176186 531.39935 613.998443 526.126336 609.969624 C 520.497838 605.763062 512.677188 605.289083 506.752453 614.057691 L 506.752453 658.611697 C 512.677188 649.783842 522.334506 647.413948 528.318488 651.739005 C 533.65075 655.64933 540.108711 656.419545 545.085488 654.405135 Z M 545.085488 654.405135 " transform="matrix(0.0659312,0,0,0.0659312,-0.570964,-0.614479)"/>
<path style="fill-rule:nonzero;fill:rgb(89.019608%,89.411765%,89.803922%);fill-opacity:1;stroke-width:0.7;stroke-linecap:butt;stroke-linejoin:miter;stroke:rgb(0%,0%,0%);stroke-opacity:1;stroke-miterlimit:4;" d="M 545.322477 649.546853 L 540.701184 606.177793 C 536.079891 608.843924 531.63634 608.666182 526.363326 604.637362 C 520.734828 600.312306 512.914178 599.838327 506.989443 608.725429 L 506.989443 653.63492 C 512.914178 644.747818 522.571495 642.377924 528.555478 646.821475 C 533.887739 650.7318 540.3457 651.502015 545.322477 649.546853 Z M 545.322477 649.546853 " transform="matrix(0.0659312,0,0,0.0659312,-0.570964,-0.614479)"/>
<path style="fill-rule:nonzero;fill:rgb(89.019608%,89.411765%,89.803922%);fill-opacity:1;stroke-width:0.7;stroke-linecap:butt;stroke-linejoin:miter;stroke:rgb(0%,0%,0%);stroke-opacity:1;stroke-miterlimit:4;" d="M 545.322477 645.281044 L 540.701184 601.852737 C 536.079891 604.578115 531.63634 604.400373 526.363326 600.312306 C 520.734828 596.046497 512.914178 595.572518 506.989443 604.400373 L 506.989443 649.369111 C 512.914178 640.482008 522.571495 638.112115 528.555478 642.496418 C 533.887739 646.465991 540.3457 647.236206 545.322477 645.281044 Z M 545.322477 645.281044 " transform="matrix(0.0659312,0,0,0.0659312,-0.570964,-0.614479)"/>
<path style="fill-rule:nonzero;fill:rgb(91.764706%,75.686276%,0.784314%);fill-opacity:1;stroke-width:0.7;stroke-linecap:butt;stroke-linejoin:miter;stroke:rgb(0%,0%,0%);stroke-opacity:1;stroke-miterlimit:4;" d="M 429.019931 322.916218 L 429.019931 527.023335 L 586.499385 527.023335 L 586.499385 322.916218 Z M 429.019931 322.916218 " transform="matrix(0.0659312,0,0,0.0659312,-0.570964,-0.614479)"/>
<path style="fill-rule:evenodd;fill:rgb(47.058824%,26.666668%,12.941177%);fill-opacity:1;stroke-width:0.7;stroke-linecap:butt;stroke-linejoin:miter;stroke:rgb(0%,0%,0%);stroke-opacity:1;stroke-miterlimit:4;" d="M 554.505817 475.833626 C 558.949368 481.10664 554.446569 484.89847 550.003018 479.625456 L 460.539521 377.601521 C 455.503496 371.558291 464.568341 363.974631 469.604365 370.01786 L 556.401732 478.085025 Z M 554.505817 475.833626 " transform="matrix(0.0659312,0,0,0.0659312,-0.570964,-0.614479)"/>
<path style="fill-rule:evenodd;fill:rgb(100%,93.333334%,66.666669%);fill-opacity:1;stroke-width:0.7;stroke-linecap:butt;stroke-linejoin:miter;stroke:rgb(0%,0%,0%);stroke-opacity:1;stroke-miterlimit:4;" d="M 542.715594 460.607057 C 550.536244 459.303615 554.387322 470.14588 549.825276 473.878463 C 548.225598 468.842438 546.448177 465.169103 542.715594 460.607057 Z M 517.831708 429.976178 C 531.043866 430.568651 535.309675 443.840057 532.465803 451.245976 C 529.799672 457.289205 532.999029 459.955336 537.975806 465.998566 C 524.882142 464.043403 522.393753 454.445333 525.356121 445.676725 C 526.659563 439.515001 522.216011 435.308439 517.831708 429.976178 Z M 499.702019 407.462185 C 506.574711 415.816061 496.384167 427.428542 501.360945 433.531018 C 503.25686 435.782418 507.759658 439.75199 513.447404 438.922527 C 506.574711 430.568651 512.795683 424.169937 513.625146 415.875308 C 514.573103 406.158743 506.15998 398.278846 492.236853 398.338093 C 494.725241 401.359708 497.21363 404.381323 499.702019 407.462185 Z M 487.734054 409.121111 C 475.114369 409.298853 463.383394 401.181966 460.77651 391.820885 C 456.806938 382.341309 469.130387 371.025065 474.107164 377.068295 C 479.083941 383.170772 460.77651 391.820885 474.225659 397.330888 L 479.617167 399.286051 Z M 487.734054 409.121111 " transform="matrix(0.0659312,0,0,0.0659312,-0.570964,-0.614479)"/>
<path style="fill-rule:evenodd;fill:rgb(100%,93.333334%,66.666669%);fill-opacity:1;stroke-width:0.7;stroke-linecap:butt;stroke-linejoin:miter;stroke:rgb(0%,0%,0%);stroke-opacity:1;stroke-miterlimit:4;" d="M 469.72286 381.037867 C 462.316942 381.86733 474.284906 375.113132 469.72286 381.037867 Z M 469.72286 381.037867 " transform="matrix(0.0659312,0,0,0.0659312,-0.570964,-0.614479)"/>
<path style="fill:none;stroke-width:0.7;stroke-linecap:round;stroke-linejoin:miter;stroke:rgb(0%,0%,0%);stroke-opacity:1;stroke-miterlimit:4;" d="M 473.51469 379.438189 C 476.951037 373.039475 479.617167 378.371737 484.060719 375.231627 " transform="matrix(0.0659312,0,0,0.0659312,-0.570964,-0.614479)"/>
<path style="fill-rule:nonzero;fill:rgb(0%,56.078434%,29.803923%);fill-opacity:1;stroke-width:0.7;stroke-linecap:butt;stroke-linejoin:miter;stroke:rgb(0%,0%,0%);stroke-opacity:1;stroke-miterlimit:4;" d="M 271.48123 322.916218 L 271.48123 527.023335 L 429.019931 527.023335 L 429.019931 322.916218 Z M 271.48123 322.916218 " transform="matrix(0.0659312,0,0,0.0659312,-0.570964,-0.614479)"/>
<path style="fill-rule:nonzero;fill:rgb(89.019608%,89.411765%,89.803922%);fill-opacity:1;stroke-width:0.7;stroke-linecap:square;stroke-linejoin:miter;stroke:rgb(0%,0%,0%);stroke-opacity:1;stroke-miterlimit:4;" d="M 316.272226 367.825708 C 316.212979 367.884956 316.153732 368.00345 316.094484 368.121945 C 317.042442 368.121945 317.220184 368.358935 317.220184 370.314097 C 317.160937 371.617539 316.686958 372.387754 315.739 372.506249 C 314.85029 372.683991 314.080074 371.913776 314.080074 371.084313 C 313.96158 372.150765 314.554053 373.039475 315.679753 372.92098 C 316.805452 372.802486 317.634915 372.091518 317.634915 371.025065 C 317.575668 370.195602 317.575668 369.484634 317.575668 368.714419 C 317.575668 368.00345 316.8647 367.766461 316.272226 367.825708 Z M 316.272226 367.825708 " transform="matrix(0.0659312,0,0,0.0659312,-0.570964,-0.614479)"/>
<path style="fill-rule:nonzero;fill:rgb(89.019608%,89.411765%,89.803922%);fill-opacity:1;stroke-width:0.7;stroke-linecap:square;stroke-linejoin:miter;stroke:rgb(0%,0%,0%);stroke-opacity:1;stroke-miterlimit:4;" d="M 384.228936 367.825708 C 384.34743 367.884956 384.406678 368.00345 384.406678 368.121945 C 383.45872 368.121945 383.280978 368.358935 383.340225 370.314097 C 383.399473 371.617539 383.873451 372.387754 384.762162 372.506249 C 385.710119 372.683991 386.421087 371.913776 386.421087 371.084313 C 386.59883 372.150765 385.947109 373.039475 384.821409 372.92098 C 383.754957 372.802486 382.866247 372.091518 382.925494 371.025065 C 382.925494 370.195602 382.925494 369.484634 382.984741 368.714419 C 382.984741 368.00345 383.695709 367.766461 384.228936 367.825708 Z M 384.228936 367.825708 " transform="matrix(0.0659312,0,0,0.0659312,-0.570964,-0.614479)"/>
<path style="fill-rule:nonzero;fill:rgb(89.019608%,89.411765%,89.803922%);fill-opacity:1;stroke-width:0.7;stroke-linecap:square;stroke-linejoin:miter;stroke:rgb(0%,0%,0%);stroke-opacity:1;stroke-miterlimit:4;" d="M 317.634915 369.069903 L 382.866247 369.069903 L 382.866247 370.788076 L 317.634915 370.788076 Z M 317.634915 369.069903 " transform="matrix(0.0659312,0,0,0.0659312,-0.570964,-0.614479)"/>
<path style="fill-rule:evenodd;fill:rgb(89.019608%,89.411765%,89.803922%);fill-opacity:1;stroke-width:0.7;stroke-linecap:butt;stroke-linejoin:miter;stroke:rgb(0%,0%,0%);stroke-opacity:1;stroke-miterlimit:4;" d="M 385.058398 372.387754 L 370.187314 408.647132 " transform="matrix(0.0659312,0,0,0.0659312,-0.570964,-0.614479)"/>
<path style="fill-rule:evenodd;fill:rgb(89.019608%,89.411765%,89.803922%);fill-opacity:1;stroke-width:0.7;stroke-linecap:butt;stroke-linejoin:miter;stroke:rgb(0%,0%,0%);stroke-opacity:1;stroke-miterlimit:4;" d="M 385.058398 372.328507 L 399.98873 408.647132 " transform="matrix(0.0659312,0,0,0.0659312,-0.570964,-0.614479)"/>
<path style="fill-rule:evenodd;fill:rgb(89.019608%,89.411765%,89.803922%);fill-opacity:1;stroke-width:0.7;stroke-linecap:butt;stroke-linejoin:miter;stroke:rgb(0%,0%,0%);stroke-opacity:1;stroke-miterlimit:4;" d="M 385.058398 372.506249 L 385.117646 408.647132 " transform="matrix(0.0659312,0,0,0.0659312,-0.570964,-0.614479)"/>
<path style="fill-rule:nonzero;fill:rgb(89.019608%,89.411765%,89.803922%);fill-opacity:1;stroke-width:0.7;stroke-linecap:square;stroke-linejoin:miter;stroke:rgb(0%,0%,0%);stroke-opacity:1;stroke-miterlimit:4;" d="M 330.373095 408.706379 C 330.373095 411.905736 327.529223 414.808856 322.907929 416.408535 C 318.286636 418.008213 312.539643 418.008213 307.91835 416.408535 C 303.297057 414.808856 300.512431 411.846489 300.512431 408.706379 Z M 330.373095 408.706379 " transform="matrix(0.0659312,0,0,0.0659312,-0.570964,-0.614479)"/>
<path style="fill-rule:evenodd;fill:rgb(89.019608%,89.411765%,89.803922%);fill-opacity:1;stroke-width:0.7;stroke-linecap:butt;stroke-linejoin:miter;stroke:rgb(0%,0%,0%);stroke-opacity:1;stroke-miterlimit:4;" d="M 315.442763 372.387754 L 300.512431 408.647132 " transform="matrix(0.0659312,0,0,0.0659312,-0.570964,-0.614479)"/>
<path style="fill-rule:evenodd;fill:rgb(89.019608%,89.411765%,89.803922%);fill-opacity:1;stroke-width:0.7;stroke-linecap:butt;stroke-linejoin:miter;stroke:rgb(0%,0%,0%);stroke-opacity:1;stroke-miterlimit:4;" d="M 315.383516 372.328507 L 330.373095 408.647132 " transform="matrix(0.0659312,0,0,0.0659312,-0.570964,-0.614479)"/>
<path style="fill:none;stroke-width:0.7;stroke-linecap:butt;stroke-linejoin:miter;stroke:rgb(0%,0%,0%);stroke-opacity:1;stroke-miterlimit:4;" d="M 315.442763 372.506249 L 315.442763 408.647132 " transform="matrix(0.0659312,0,0,0.0659312,-0.570964,-0.614479)"/>
<path style="fill-rule:nonzero;fill:rgb(89.019608%,89.411765%,89.803922%);fill-opacity:1;stroke-width:0.7;stroke-linecap:square;stroke-linejoin:miter;stroke:rgb(0%,0%,0%);stroke-opacity:1;stroke-miterlimit:4;" d="M 399.929483 408.706379 C 399.929483 411.905736 397.08561 414.808856 392.464317 416.408535 C 387.843024 418.008213 382.155278 418.008213 377.533985 416.408535 C 372.912692 414.808856 370.068819 411.846489 370.068819 408.706379 Z M 399.929483 408.706379 " transform="matrix(0.0659312,0,0,0.0659312,-0.570964,-0.614479)"/>
<path style="fill-rule:nonzero;fill:rgb(89.019608%,89.411765%,89.803922%);fill-opacity:1;stroke-width:0.7;stroke-linecap:butt;stroke-linejoin:miter;stroke:rgb(0%,0%,0%);stroke-opacity:1;stroke-miterlimit:4;" d="M 347.377084 476.307604 C 349.332247 484.069007 351.761388 484.069007 353.598056 476.307604 C 355.434724 468.546202 355.96795 458.948131 353.95354 451.186728 C 351.93913 443.425326 348.680526 443.425326 346.666116 451.186728 C 344.651706 458.948131 345.481169 468.546202 347.377084 476.307604 Z M 347.377084 476.307604 " transform="matrix(0.0659312,0,0,0.0659312,-0.570964,-0.614479)"/>
<path style="fill-rule:nonzero;fill:rgb(89.019608%,89.411765%,89.803922%);fill-opacity:1;stroke-width:0.7;stroke-linecap:butt;stroke-linejoin:miter;stroke:rgb(0%,0%,0%);stroke-opacity:1;stroke-miterlimit:4;" d="M 346.36988 449.350061 L 354.19053 449.350061 L 353.06483 377.305284 L 350.280205 371.084313 L 347.554827 377.305284 Z M 346.36988 449.350061 " transform="matrix(0.0659312,0,0,0.0659312,-0.570964,-0.614479)"/>
<path style="fill-rule:evenodd;fill:rgb(0%,0%,0%);fill-opacity:1;stroke-width:0.7;stroke-linecap:butt;stroke-linejoin:miter;stroke:rgb(0%,0%,0%);stroke-opacity:1;stroke-miterlimit:4;" d="M 349.92472 448.69834 L 350.220957 380.149157 L 351.05042 448.69834 Z M 349.92472 448.69834 " transform="matrix(0.0659312,0,0,0.0659312,-0.570964,-0.614479)"/>
<path style="fill-rule:nonzero;fill:rgb(89.019608%,89.411765%,89.803922%);fill-opacity:1;stroke-width:0.7;stroke-linecap:butt;stroke-linejoin:miter;stroke:rgb(0%,0%,0%);stroke-opacity:1;stroke-miterlimit:4;" d="M 348.206547 480.158682 C 348.1473 479.98094 348.088053 479.803198 348.028805 479.625456 L 353.95354 476.18911 C 353.894293 476.426099 353.835046 476.722336 353.716551 476.959325 Z M 347.199342 477.018573 C 347.140095 476.781583 347.080848 476.603841 347.080848 476.426099 L 354.783003 471.982548 C 354.723756 472.219537 354.664508 472.456527 354.664508 472.693516 Z M 346.429127 473.700721 C 346.36988 473.522979 346.310632 473.345237 346.310632 473.167495 L 355.316229 467.953728 C 355.316229 468.190718 355.256982 468.36846 355.256982 468.605449 Z M 345.777406 470.323622 C 345.777406 470.14588 345.718159 469.968138 345.718159 469.731149 L 355.553219 464.043403 C 355.553219 464.280393 355.553219 464.517382 355.553219 464.695124 Z M 345.362675 466.828029 C 345.362675 466.650287 345.303427 466.472544 345.303427 466.235555 L 355.553219 460.31082 C 355.553219 460.54781 355.553219 460.725552 355.553219 460.962541 Z M 345.125685 463.273188 C 345.125685 463.036198 345.125685 462.858456 345.125685 462.621467 L 355.316229 456.755979 C 355.316229 456.933721 355.316229 457.170711 355.375477 457.348453 Z M 345.125685 459.540605 C 345.125685 459.303615 345.125685 459.066626 345.125685 458.888884 L 354.783003 453.319633 C 354.783003 453.37888 354.84225 453.438128 354.84225 453.497375 C 354.84225 453.61587 354.901498 453.734364 354.901498 453.852859 Z M 345.421922 455.63028 C 345.421922 455.39329 345.481169 455.156301 345.481169 454.919311 L 354.012788 450.001781 C 354.072035 450.179524 354.131282 450.357266 354.19053 450.594255 Z M 345.421922 455.63028 " transform="matrix(0.0659312,0,0,0.0659312,-0.570964,-0.614479)"/>
<path style="fill-rule:nonzero;fill:rgb(89.019608%,89.411765%,89.803922%);fill-opacity:1;stroke-width:0.7;stroke-linecap:butt;stroke-linejoin:miter;stroke:rgb(0%,0%,0%);stroke-opacity:1;stroke-miterlimit:4;" d="M 887.053636 -415.897697 L 917.566021 -415.897697 L 917.566021 -411.868877 L 887.053636 -411.868877 Z M 887.053636 -415.897697 " transform="matrix(0.0659312,0,0,-0.0659312,-36.964997,1.759045)"/>
<path style="fill-rule:nonzero;fill:rgb(89.019608%,89.411765%,89.803922%);fill-opacity:1;stroke-width:0.7;stroke-linecap:butt;stroke-linejoin:miter;stroke:rgb(0%,0%,0%);stroke-opacity:1;stroke-miterlimit:4;" d="M 355.730961 475.181905 C 355.730961 472.219537 353.301819 469.849643 350.280205 469.849643 C 347.317837 469.849643 344.888696 472.219537 344.888696 475.181905 C 344.888696 478.20352 347.317837 480.573414 350.280205 480.573414 C 353.301819 480.573414 355.730961 478.20352 355.730961 475.181905 Z M 355.730961 475.181905 " transform="matrix(0.0659312,0,0,0.0659312,-0.570964,-0.614479)"/>
<path style="fill-rule:nonzero;fill:rgb(89.019608%,89.411765%,89.803922%);fill-opacity:1;stroke-width:0.7;stroke-linecap:butt;stroke-linejoin:miter;stroke:rgb(0%,0%,0%);stroke-opacity:1;stroke-miterlimit:4;" d="M 352.590851 475.181905 C 352.590851 473.93771 351.583646 472.930506 350.280205 472.930506 C 349.03601 472.930506 348.028805 473.93771 348.028805 475.181905 C 348.028805 476.485346 349.03601 477.492551 350.280205 477.492551 C 351.583646 477.492551 352.590851 476.485346 352.590851 475.181905 Z M 352.590851 475.181905 " transform="matrix(0.0659312,0,0,0.0659312,-0.570964,-0.614479)"/>
<path style="fill-rule:nonzero;fill:rgb(83.137256%,0%,0%);fill-opacity:1;stroke-width:1;stroke-linecap:butt;stroke-linejoin:miter;stroke:rgb(0%,0%,0%);stroke-opacity:1;stroke-miterlimit:4;" d="M 271.48123 527.023335 L 271.48123 719.043993 C 272.784672 725.561202 274.976824 730.241742 281.908764 731.841421 L 409.290564 731.841421 C 427.242511 731.248947 426.768532 737.232929 429.019931 739.839813 L 429.019931 527.023335 Z M 271.48123 527.023335 " transform="matrix(0.0659312,0,0,0.0659312,-0.570964,-0.614479)"/>
<path style="fill-rule:nonzero;fill:rgb(91.764706%,75.686276%,0.784314%);fill-opacity:1;stroke-width:0.7;stroke-linecap:round;stroke-linejoin:round;stroke:rgb(0%,0%,0%);stroke-opacity:1;stroke-miterlimit:4;" d="M 327.469975 645.458786 C 325.692555 646.821475 324.033629 647.532443 322.493198 647.532443 C 318.819862 647.532443 315.265021 643.325881 314.731795 642.67416 L 313.606096 645.399538 C 313.783838 645.636528 317.931152 650.850295 322.493198 650.850295 C 324.270618 650.850295 326.166534 650.080079 328.180943 648.539648 Z M 327.469975 645.458786 " transform="matrix(0.0659312,0,0,0.0659312,-0.570964,-0.614479)"/>
<path style="fill-rule:nonzero;fill:rgb(91.764706%,75.686276%,0.784314%);fill-opacity:1;stroke-width:0.7;stroke-linecap:round;stroke-linejoin:round;stroke:rgb(0%,0%,0%);stroke-opacity:1;stroke-miterlimit:4;" d="M 320.419541 640.955987 C 320.004809 640.245019 319.234594 640.659751 318.701368 641.844698 C 318.168141 643.029644 318.049647 644.510828 318.464378 645.221796 C 318.701368 644.629323 318.997604 643.977602 319.353088 643.266634 C 319.708573 642.377924 320.064057 641.607708 320.419541 640.955987 Z M 320.419541 640.955987 " transform="matrix(0.0659312,0,0,0.0659312,-0.570964,-0.614479)"/>
<path style="fill-rule:nonzero;fill:rgb(91.764706%,75.686276%,0.784314%);fill-opacity:1;stroke-width:0.7;stroke-linecap:round;stroke-linejoin:round;stroke:rgb(0%,0%,0%);stroke-opacity:1;stroke-miterlimit:4;" d="M 324.566855 640.955987 C 325.040834 640.245019 325.811049 640.659751 326.344276 641.844698 C 326.877502 643.029644 326.995996 644.510828 326.581265 645.221796 C 326.285028 644.629323 326.048039 643.977602 325.692555 643.266634 C 325.337071 642.377924 324.922339 641.607708 324.566855 640.955987 Z M 324.566855 640.955987 " transform="matrix(0.0659312,0,0,0.0659312,-0.570964,-0.614479)"/>
<path style="fill-rule:nonzero;fill:rgb(91.764706%,75.686276%,0.784314%);fill-opacity:1;stroke-width:0.7;stroke-linecap:round;stroke-linejoin:round;stroke:rgb(0%,0%,0%);stroke-opacity:1;stroke-miterlimit:4;" d="M 322.848682 634.142542 L 324.211371 633.253832 L 336.653314 664.240195 C 333.216968 658.433955 331.261806 657.308256 331.261806 657.308256 C 331.261806 657.308256 331.143311 654.76062 330.195353 652.74621 C 329.306643 650.791047 328.417933 651.146531 328.417933 651.146531 C 328.417933 651.146531 328.121696 649.309863 326.46277 645.221796 C 326.818254 644.570076 326.759007 643.148139 326.225781 642.081687 C 325.751802 640.955987 324.981587 640.600503 324.566855 641.252224 C 322.730187 637.697383 321.308251 636.986415 321.308251 636.986415 L 321.308251 634.142542 Z M 322.848682 634.142542 " transform="matrix(0.0659312,0,0,0.0659312,-0.570964,-0.614479)"/>
<path style="fill-rule:nonzero;fill:rgb(91.764706%,75.686276%,0.784314%);fill-opacity:1;stroke-width:0.7;stroke-linecap:round;stroke-linejoin:round;stroke:rgb(0%,0%,0%);stroke-opacity:1;stroke-miterlimit:4;" d="M 322.196961 634.142542 L 320.834272 633.253832 L 308.333082 664.240195 C 311.828675 658.433955 313.783838 657.308256 313.783838 657.308256 C 313.783838 657.308256 313.902332 654.76062 314.85029 652.74621 C 315.739 650.791047 316.62771 651.146531 316.62771 651.146531 C 316.62771 651.146531 316.923947 649.309863 318.582873 645.221796 C 318.227389 644.570076 318.286636 643.148139 318.819862 642.081687 C 319.293841 640.955987 320.004809 640.600503 320.419541 641.252224 C 322.315456 637.697383 323.737392 636.986415 323.737392 636.986415 L 323.737392 634.142542 Z M 322.196961 634.142542 " transform="matrix(0.0659312,0,0,0.0659312,-0.570964,-0.614479)"/>
<path style="fill-rule:nonzero;fill:rgb(91.764706%,75.686276%,0.784314%);fill-opacity:1;stroke-width:3.418799;stroke-linecap:round;stroke-linejoin:round;stroke:rgb(0%,0%,0%);stroke-opacity:1;stroke-miterlimit:4;" d="M 1876.82783 357.671313 C 1876.82783 349.435446 1870.087292 342.677811 1861.760745 342.677811 C 1853.434198 342.677811 1846.693659 349.435446 1846.693659 357.671313 C 1846.693659 366.118356 1853.434198 372.87599 1861.760745 372.87599 C 1870.087292 372.87599 1876.82783 366.118356 1876.82783 357.671313 Z M 1876.82783 357.671313 " transform="matrix(0.00985177,0,0,0.0184976,2.349763,34.395659)"/>
<path style="fill-rule:nonzero;fill:rgb(91.764706%,75.686276%,0.784314%);fill-opacity:1;stroke-width:3.418799;stroke-linecap:round;stroke-linejoin:round;stroke:rgb(0%,0%,0%);stroke-opacity:1;stroke-miterlimit:4;" d="M 1868.501283 357.671313 C 1868.501283 354.081319 1865.725767 350.913678 1861.760745 350.913678 C 1858.192225 350.913678 1855.020207 354.081319 1855.020207 357.671313 C 1855.020207 361.472482 1858.192225 364.428947 1861.760745 364.428947 C 1865.725767 364.428947 1868.501283 361.472482 1868.501283 357.671313 Z M 1868.501283 357.671313 " transform="matrix(0.00985177,0,0,0.0184976,2.349763,34.395659)"/>
<path style="fill-rule:nonzero;fill:rgb(0%,44.313726%,73.725492%);fill-opacity:1;stroke-width:0.7;stroke-linecap:butt;stroke-linejoin:miter;stroke:rgb(0%,0%,0%);stroke-opacity:1;stroke-miterlimit:4;" d="M 396.256147 648.71739 C 391.634854 661.396323 377.593232 667.913531 364.9143 663.23299 C 352.17612 658.611697 345.658911 644.570076 350.339452 631.891143 C 354.960745 619.21221 369.002367 612.635754 381.6813 617.316295 C 394.41948 621.937588 400.936688 635.97921 396.256147 648.71739 Z M 396.256147 648.71739 " transform="matrix(0.0659312,0,0,0.0659312,-0.570964,-0.614479)"/>
<path style=" stroke:none;fill-rule:nonzero;fill:rgb(91.764706%,75.686276%,0.784314%);fill-opacity:1;" d="M 24.5625 40.148438 L 24.386719 40.105469 L 24.160156 40.085938 L 24.105469 40.113281 L 24.203125 40.246094 L 24.183594 40.296875 L 24.117188 40.328125 L 24.132812 40.488281 L 24.1875 40.480469 L 24.273438 40.410156 C 24.371094 40.414062 24.460938 40.414062 24.558594 40.40625 L 24.6875 40.257812 Z M 24.160156 40.015625 L 24.082031 39.996094 L 24.035156 40.019531 L 23.976562 40.007812 L 23.917969 40.011719 L 23.890625 40.015625 L 23.867188 40.03125 L 23.933594 40.070312 L 23.972656 40.054688 L 24.035156 40.0625 C 24.078125 40.058594 24.121094 40.0625 24.167969 40.0625 Z M 23.773438 40.046875 L 23.75 40.070312 L 23.734375 40.132812 L 23.675781 40.15625 L 23.621094 40.214844 L 23.675781 40.234375 L 23.730469 40.183594 C 23.757812 40.175781 23.789062 40.164062 23.820312 40.160156 L 23.867188 40.199219 C 23.894531 40.238281 23.925781 40.277344 23.953125 40.316406 L 24.027344 40.285156 L 23.976562 40.238281 L 23.96875 40.167969 L 23.867188 40.117188 L 23.875 40.082031 L 23.816406 40.078125 L 23.777344 40.113281 Z M 23.621094 40.046875 L 23.566406 40.105469 C 23.566406 40.105469 23.515625 40.097656 23.5 40.097656 C 23.296875 40.183594 22.871094 40.378906 22.585938 40.929688 C 22.585938 40.945312 22.605469 41.039062 22.605469 41.039062 L 22.699219 41.152344 L 22.804688 41.226562 L 22.832031 41.308594 L 22.890625 41.394531 L 22.9375 41.40625 L 22.964844 41.433594 L 22.960938 41.441406 L 22.871094 41.546875 L 22.820312 41.585938 L 22.824219 41.617188 L 22.757812 41.699219 L 22.792969 41.921875 L 22.863281 42.046875 L 22.882812 42.128906 L 22.828125 42.257812 L 22.832031 42.347656 L 22.746094 42.484375 C 22.746094 42.484375 22.742188 42.480469 22.742188 42.496094 C 22.742188 42.511719 22.855469 42.679688 22.898438 42.671875 C 22.910156 42.667969 22.921875 42.660156 22.921875 42.660156 L 22.925781 42.625 L 22.984375 42.597656 L 23.019531 42.558594 L 23.101562 42.5625 L 23.207031 42.441406 L 23.207031 42.398438 L 23.265625 42.355469 L 23.355469 42.367188 L 23.4375 42.28125 L 23.476562 42.148438 L 23.574219 42.082031 L 23.621094 41.988281 C 23.546875 41.910156 23.472656 41.828125 23.398438 41.75 L 23.382812 41.640625 L 23.308594 41.59375 L 23.308594 41.457031 L 23.191406 41.425781 L 23.121094 41.320312 L 22.988281 41.375 L 22.980469 41.386719 C 22.953125 41.367188 22.917969 41.351562 22.894531 41.324219 L 22.894531 41.253906 L 22.921875 41.183594 L 22.851562 41.167969 C 22.875 41.125 22.898438 41.082031 22.921875 41.039062 L 22.878906 41.023438 L 22.824219 41.0625 L 22.777344 41.066406 L 22.730469 41.011719 L 22.753906 40.941406 L 22.789062 40.867188 L 22.894531 40.835938 L 22.964844 40.863281 L 22.988281 40.828125 L 23.066406 40.878906 L 23.101562 40.976562 L 23.15625 40.851562 L 23.296875 40.804688 L 23.371094 40.722656 L 23.464844 40.71875 L 23.53125 40.671875 L 23.636719 40.691406 L 23.71875 40.632812 C 23.667969 40.613281 23.617188 40.597656 23.566406 40.578125 L 23.679688 40.566406 L 23.746094 40.589844 L 23.851562 40.59375 L 23.878906 40.5625 L 23.855469 40.515625 L 23.820312 40.488281 L 23.847656 40.453125 L 23.839844 40.386719 L 23.761719 40.386719 L 23.789062 40.34375 L 23.726562 40.269531 L 23.628906 40.355469 L 23.617188 40.394531 L 23.546875 40.394531 L 23.476562 40.464844 L 23.488281 40.382812 L 23.398438 40.300781 L 23.402344 40.238281 L 23.574219 40.203125 L 23.65625 40.171875 L 23.6875 40.101562 L 23.660156 40.070312 Z M 25.191406 40.625 L 25.078125 40.609375 L 24.992188 40.628906 L 24.976562 40.667969 L 24.847656 40.699219 L 24.832031 40.808594 L 24.910156 40.789062 L 24.933594 40.847656 L 24.96875 40.886719 L 25.023438 40.820312 L 25.023438 40.769531 L 25.054688 40.746094 L 25.136719 40.710938 L 25.160156 40.722656 L 25.113281 40.773438 L 25.089844 40.832031 C 25.121094 40.835938 25.148438 40.84375 25.175781 40.847656 L 25.082031 40.871094 L 25.066406 40.902344 L 24.957031 40.941406 L 24.878906 40.890625 L 24.894531 40.839844 L 24.847656 40.851562 L 24.847656 40.902344 L 24.785156 40.878906 L 24.730469 40.921875 L 24.671875 40.953125 L 24.589844 40.945312 L 24.621094 41.003906 L 24.613281 41.054688 L 24.558594 41.03125 L 24.472656 41.046875 L 24.429688 41.160156 L 24.460938 41.171875 L 24.480469 41.214844 L 24.5625 41.207031 L 24.617188 41.148438 L 24.679688 41.136719 L 24.699219 41.117188 L 24.792969 41.125 L 24.816406 41.191406 L 24.859375 41.238281 L 24.8125 41.285156 L 24.859375 41.289062 L 24.902344 41.238281 L 24.871094 41.15625 L 24.890625 41.164062 L 24.933594 41.226562 L 24.921875 41.296875 L 24.949219 41.371094 L 24.992188 41.292969 L 25.023438 41.289062 C 25.042969 41.328125 25.050781 41.371094 25.0625 41.414062 L 25.144531 41.449219 L 25.183594 41.5 L 25.152344 41.523438 L 25.082031 41.550781 L 25.007812 41.523438 L 24.925781 41.457031 L 24.871094 41.441406 L 24.820312 41.472656 L 24.757812 41.328125 L 24.6875 41.285156 L 24.578125 41.257812 L 24.472656 41.246094 C 24.398438 41.289062 24.324219 41.328125 24.25 41.375 L 24.132812 41.5 L 24.148438 41.539062 L 24.070312 41.597656 L 24.078125 41.753906 C 24.109375 41.824219 24.136719 41.894531 24.164062 41.964844 L 24.253906 41.929688 L 24.273438 41.980469 L 24.367188 41.957031 L 24.378906 41.996094 L 24.457031 42.023438 L 24.484375 42.089844 L 24.425781 42.164062 L 24.457031 42.246094 L 24.414062 42.351562 L 24.425781 42.441406 L 24.375 42.492188 C 24.355469 42.539062 24.335938 42.585938 24.320312 42.632812 C 24.316406 42.703125 24.316406 42.773438 24.316406 42.847656 L 24.296875 42.953125 L 24.277344 43.003906 L 24.316406 43.019531 L 24.390625 43.003906 L 24.464844 43.03125 L 24.617188 42.945312 L 24.621094 42.902344 L 24.714844 42.863281 L 24.6875 42.785156 L 24.769531 42.753906 L 24.84375 42.738281 L 24.882812 42.714844 L 24.894531 42.640625 C 24.917969 42.582031 24.9375 42.523438 24.960938 42.464844 L 25.046875 42.375 L 25.136719 42.324219 L 25.265625 42.1875 L 25.28125 42.140625 C 25.246094 42.132812 25.214844 42.121094 25.183594 42.113281 L 25.269531 42.070312 L 25.386719 42.042969 L 25.457031 42.003906 L 25.480469 41.9375 C 25.476562 41.914062 25.472656 41.890625 25.472656 41.867188 L 25.40625 41.898438 L 25.386719 41.847656 L 25.351562 41.789062 L 25.378906 41.710938 L 25.414062 41.796875 L 25.480469 41.8125 C 25.503906 41.847656 25.523438 41.886719 25.539062 41.925781 L 25.597656 41.890625 C 25.617188 41.839844 25.648438 41.570312 25.601562 41.316406 C 25.558594 41.058594 25.414062 40.789062 25.414062 40.789062 L 25.386719 40.808594 L 25.304688 40.851562 L 25.261719 40.75 L 25.335938 40.777344 L 25.378906 40.75 L 25.257812 40.675781 Z M 24.605469 40.503906 L 24.550781 40.511719 L 24.53125 40.496094 L 24.511719 40.535156 L 24.542969 40.574219 L 24.625 40.550781 Z M 23.859375 40.246094 L 23.800781 40.257812 L 23.84375 40.316406 L 23.890625 40.335938 L 23.90625 40.289062 Z M 24.695312 40.714844 L 24.679688 40.753906 L 24.691406 40.785156 L 24.671875 40.84375 L 24.632812 40.914062 L 24.699219 40.925781 L 24.761719 40.898438 L 24.734375 40.847656 C 24.734375 40.804688 24.730469 40.765625 24.726562 40.726562 Z M 24.644531 40.78125 L 24.601562 40.78125 L 24.582031 40.855469 L 24.644531 40.847656 Z M 23.824219 40.613281 L 23.808594 40.707031 L 23.863281 40.667969 Z M 25.109375 41.648438 L 25.148438 41.742188 L 25.164062 41.933594 L 25.191406 42 L 25.148438 42.046875 L 25.171875 42.113281 C 25.152344 42.109375 25.132812 42.101562 25.113281 42.09375 C 25.101562 42.003906 25.105469 41.921875 25.105469 41.832031 L 25.078125 41.761719 L 25.085938 41.65625 Z M 25.109375 41.648438 "/>
<path style="fill:none;stroke-width:0.7;stroke-linecap:butt;stroke-linejoin:miter;stroke:rgb(0%,0%,0%);stroke-opacity:1;stroke-miterlimit:4;" d="M 324.152124 591.128967 L 373.327423 640.304266 M 324.626102 590.536493 L 375.223339 636.986415 M 325.040834 589.94402 L 377.119254 633.787058 M 325.337071 589.292299 L 378.481943 630.291464 M 325.633307 588.640578 L 379.963126 626.973613 M 325.811049 587.988857 L 381.266568 623.774256 M 325.929544 587.277889 L 381.859042 620.219415 M 325.929544 586.507674 L 382.33302 616.783069 M 323.618898 591.602946 L 370.068819 642.200182 M 323.026424 592.017677 L 366.810215 644.096097 M 322.374703 592.432408 L 363.314621 645.458786 M 321.722982 592.61015 L 360.056017 646.880722 M 321.012014 592.84714 L 356.797413 648.243411 M 320.360293 593.024882 L 353.242572 648.835885 M 319.53083 592.906387 L 349.865473 649.309863 " transform="matrix(0.0659312,0,0,0.0659312,-0.570964,-0.614479)"/>
<path style="fill-rule:nonzero;fill:rgb(89.019608%,89.411765%,89.803922%);fill-opacity:1;stroke-width:0.7;stroke-linecap:round;stroke-linejoin:miter;stroke:rgb(0%,0%,0%);stroke-opacity:1;stroke-miterlimit:4;" d="M 328.299438 598.120154 L 321.367498 592.61015 L 314.198569 597.823917 L 317.279431 589.529288 L 310.169749 584.315522 L 318.997604 584.671006 L 321.722982 576.257882 L 324.092876 584.7895 L 332.979979 584.7895 L 325.57406 589.70703 Z M 328.299438 598.120154 " transform="matrix(0.0659312,0,0,0.0659312,-0.570964,-0.614479)"/>
<path style="fill-rule:nonzero;fill:rgb(47.058824%,26.666668%,12.941177%);fill-opacity:1;stroke-width:0.7;stroke-linecap:butt;stroke-linejoin:miter;stroke:rgb(0%,0%,0%);stroke-opacity:1;stroke-miterlimit:4;" d="M 302.704583 665.306648 L 302.704583 673.956761 L 388.790981 673.956761 L 388.790981 690.546018 L 397.441094 690.546018 L 397.441094 665.306648 Z M 302.704583 665.306648 " transform="matrix(0.0659312,0,0,0.0659312,-0.570964,-0.614479)"/>
<path style="fill-rule:nonzero;fill:rgb(92.54902%,92.54902%,92.54902%);fill-opacity:1;stroke-width:0.315138;stroke-linecap:butt;stroke-linejoin:miter;stroke:rgb(0%,0%,0%);stroke-opacity:1;stroke-miterlimit:4;" d="M 476.832542 527.023335 C 476.832542 553.447653 455.385002 574.835946 429.019931 574.835946 C 402.595614 574.835946 381.148073 553.447653 381.148073 527.023335 C 381.148073 500.599018 402.595614 479.151477 429.019931 479.151477 C 455.385002 479.151477 476.832542 500.599018 476.832542 527.023335 Z M 476.832542 527.023335 " transform="matrix(0.0659312,0,0,0.0659312,-0.570964,-0.614479)"/>
<path style=" stroke:none;fill-rule:nonzero;fill:url(#radial0);" d="M 29.289062 34.507812 C 29.289062 35.28125 28.570312 35.910156 27.679688 35.910156 C 26.792969 35.910156 26.070312 35.28125 26.070312 34.507812 C 26.070312 33.734375 26.792969 33.105469 27.679688 33.105469 C 28.570312 33.105469 29.289062 33.734375 29.289062 34.507812 Z M 29.289062 34.507812 "/>
<path style=" stroke:none;fill-rule:nonzero;fill:url(#radial1);" d="M 28.367188 34.523438 C 28.367188 34.882812 28.074219 35.175781 27.714844 35.175781 C 27.355469 35.175781 27.0625 34.882812 27.0625 34.523438 C 27.0625 34.164062 27.355469 33.871094 27.714844 33.871094 C 28.074219 33.871094 28.367188 34.164062 28.367188 34.523438 Z M 28.367188 34.523438 "/>
<path style=" stroke:none;fill-rule:nonzero;fill:url(#radial2);" d="M 28.042969 34.523438 C 28.042969 34.714844 27.890625 34.871094 27.699219 34.871094 C 27.507812 34.871094 27.351562 34.714844 27.351562 34.523438 C 27.351562 34.332031 27.507812 34.175781 27.699219 34.175781 C 27.890625 34.175781 28.042969 34.332031 28.042969 34.523438 Z M 28.042969 34.523438 "/>
<path style=" stroke:none;fill-rule:evenodd;fill:rgb(92.54902%,92.54902%,92.54902%);fill-opacity:1;" d="M 29.761719 34.359375 C 28.109375 32.550781 26.164062 33.257812 24.796875 34.550781 C 26.078125 36.4375 29.066406 37.242188 29.761719 34.359375 Z M 29.429688 34.636719 C 28.226562 35.648438 27.207031 35.480469 25.992188 34.96875 C 26.730469 33.75 28.171875 34.089844 29.429688 34.636719 Z M 29.429688 34.636719 "/>
<path style=" stroke:none;fill-rule:evenodd;fill:rgb(25.882354%,21.568628%,21.176471%);fill-opacity:1;" d="M 29.472656 33.996094 C 28.257812 33.390625 27.003906 33.421875 26.15625 33.699219 L 26.574219 33.039062 C 27.746094 32.988281 28.695312 33.097656 29.472656 33.996094 Z M 29.472656 33.996094 "/>
<path style="fill:none;stroke-width:0.7;stroke-linecap:butt;stroke-linejoin:miter;stroke:rgb(0%,0%,0%);stroke-opacity:1;stroke-miterlimit:4;" d="M 455.029518 534.666243 C 440.158433 547.345176 425.70208 549.833565 402.89185 539.702268 C 414.089599 521.217095 435.951871 526.371614 455.029518 534.666243 Z M 455.029518 534.666243 " transform="matrix(0.0659312,0,0,0.0659312,-0.570964,-0.614479)"/>
<path style="fill:none;stroke-width:0.7;stroke-linecap:butt;stroke-linejoin:miter;stroke:rgb(0%,0%,0%);stroke-opacity:1;stroke-miterlimit:4;" d="M 453.963065 530.637423 C 437.433055 522.639031 421.377023 520.920858 406.03196 528.386024 " transform="matrix(0.0659312,0,0,0.0659312,-0.570964,-0.614479)"/>
<path style="fill-rule:nonzero;fill:rgb(92.54902%,92.54902%,92.54902%);fill-opacity:1;stroke-width:0.315138;stroke-linecap:butt;stroke-linejoin:miter;stroke:rgb(0%,0%,0%);stroke-opacity:1;stroke-miterlimit:4;" d="M 381.148073 527.023335 C 381.148073 553.388405 402.595614 574.835946 429.019931 574.835946 C 455.385002 574.835946 476.832542 553.388405 476.832542 527.023335 C 469.130387 464.102651 391.871844 460.784799 381.148073 527.023335 Z M 428.901437 486.794385 L 459.176832 553.980879 C 459.176832 553.980879 399.277762 553.980879 398.863031 553.980879 Z M 428.901437 486.794385 " transform="matrix(0.0659312,0,0,0.0659312,-0.570964,-0.614479)"/>
<path style=" stroke:none;fill-rule:nonzero;fill:rgb(89.019608%,89.411765%,89.803922%);fill-opacity:1;" d="M 27.714844 31.4375 C 27.710938 31.441406 27.699219 31.445312 27.695312 31.449219 C 27.683594 31.449219 27.675781 31.453125 27.667969 31.457031 C 27.652344 31.46875 27.640625 31.492188 27.640625 31.511719 L 27.640625 31.628906 L 27.707031 31.480469 L 27.789062 31.667969 L 27.789062 31.511719 C 27.789062 31.503906 27.785156 31.496094 27.78125 31.484375 C 27.769531 31.464844 27.746094 31.453125 27.722656 31.449219 C 27.722656 31.445312 27.71875 31.441406 27.714844 31.4375 Z M 28.359375 31.605469 C 28.355469 31.609375 28.355469 31.613281 28.351562 31.617188 C 28.347656 31.617188 28.347656 31.617188 28.34375 31.617188 C 28.339844 31.617188 28.335938 31.621094 28.332031 31.625 C 28.328125 31.628906 28.328125 31.636719 28.324219 31.640625 L 28.121094 32.40625 L 28.175781 32.527344 L 28.40625 31.660156 C 28.40625 31.65625 28.40625 31.65625 28.40625 31.652344 C 28.40625 31.648438 28.40625 31.644531 28.40625 31.640625 C 28.40625 31.640625 28.40625 31.636719 28.40625 31.632812 C 28.40625 31.628906 28.402344 31.625 28.398438 31.625 C 28.394531 31.621094 28.394531 31.617188 28.390625 31.617188 C 28.386719 31.617188 28.382812 31.617188 28.382812 31.617188 C 28.375 31.609375 28.367188 31.605469 28.359375 31.605469 Z M 27.039062 31.617188 C 27.035156 31.617188 27.035156 31.621094 27.03125 31.625 C 27.027344 31.625 27.023438 31.628906 27.019531 31.632812 C 27.019531 31.636719 27.019531 31.640625 27.019531 31.640625 C 27.019531 31.644531 27.019531 31.648438 27.019531 31.652344 C 27.019531 31.65625 27.019531 31.65625 27.019531 31.660156 L 27.246094 32.507812 L 27.300781 32.382812 L 27.105469 31.640625 C 27.101562 31.640625 27.097656 31.636719 27.09375 31.632812 C 27.097656 31.628906 27.097656 31.628906 27.09375 31.625 C 27.09375 31.621094 27.089844 31.617188 27.085938 31.617188 C 27.082031 31.617188 27.078125 31.617188 27.078125 31.617188 C 27.074219 31.617188 27.070312 31.617188 27.070312 31.617188 C 27.066406 31.617188 27.0625 31.617188 27.058594 31.617188 C 27.054688 31.617188 27.054688 31.617188 27.050781 31.617188 C 27.046875 31.617188 27.042969 31.617188 27.039062 31.617188 Z M 28.011719 31.632812 C 27.988281 31.761719 27.96875 31.890625 27.949219 32.023438 L 27.992188 32.117188 C 28.007812 31.953125 28.015625 31.789062 28.019531 31.632812 Z M 27.371094 31.640625 C 27.382812 31.800781 27.398438 31.960938 27.417969 32.125 L 27.457031 32.035156 C 27.433594 31.902344 27.40625 31.769531 27.371094 31.640625 Z M 26.421875 31.789062 C 26.410156 31.792969 26.402344 31.792969 26.394531 31.800781 C 26.386719 31.800781 26.378906 31.804688 26.375 31.808594 C 26.371094 31.8125 26.367188 31.820312 26.367188 31.828125 C 26.359375 31.835938 26.355469 31.84375 26.355469 31.855469 C 26.355469 31.863281 26.355469 31.875 26.355469 31.882812 C 26.359375 31.890625 26.363281 31.894531 26.367188 31.898438 L 27.015625 33.023438 L 27.085938 32.863281 L 26.484375 31.828125 C 26.480469 31.816406 26.476562 31.808594 26.46875 31.800781 C 26.460938 31.796875 26.457031 31.792969 26.449219 31.789062 C 26.441406 31.789062 26.429688 31.789062 26.421875 31.789062 Z M 29 31.789062 C 28.980469 31.792969 28.964844 31.796875 28.953125 31.808594 C 28.949219 31.808594 28.945312 31.8125 28.945312 31.816406 C 28.941406 31.820312 28.9375 31.824219 28.933594 31.828125 L 28.332031 32.871094 L 28.40625 33.035156 L 29.0625 31.898438 C 29.066406 31.890625 29.070312 31.882812 29.074219 31.875 C 29.074219 31.863281 29.074219 31.855469 29.074219 31.84375 C 29.070312 31.820312 29.050781 31.800781 29.027344 31.789062 C 29.015625 31.789062 29.007812 31.789062 29 31.789062 Z M 28.636719 31.800781 C 28.5 32.085938 28.375 32.386719 28.25 32.691406 L 28.285156 32.765625 C 28.421875 32.4375 28.550781 32.109375 28.636719 31.800781 Z M 26.753906 31.808594 C 26.851562 32.128906 26.984375 32.453125 27.125 32.78125 L 27.160156 32.699219 C 27.035156 32.390625 26.902344 32.089844 26.753906 31.808594 Z M 29.199219 32.113281 C 28.933594 32.410156 28.683594 32.746094 28.429688 33.085938 L 28.460938 33.15625 C 28.734375 32.808594 29 32.460938 29.199219 32.113281 Z M 26.199219 32.132812 C 26.371094 32.464844 26.683594 32.8125 26.957031 33.15625 L 26.980469 33.097656 C 26.726562 32.761719 26.46875 32.425781 26.199219 32.132812 Z M 25.921875 32.261719 C 25.917969 32.265625 25.914062 32.265625 25.914062 32.269531 C 25.910156 32.269531 25.90625 32.269531 25.90625 32.269531 C 25.902344 32.273438 25.898438 32.277344 25.894531 32.277344 C 25.894531 32.28125 25.894531 32.285156 25.894531 32.289062 C 25.894531 32.292969 25.886719 32.292969 25.886719 32.296875 C 25.886719 32.300781 25.886719 32.304688 25.886719 32.304688 C 25.886719 32.308594 25.886719 32.316406 25.886719 32.320312 C 25.886719 32.320312 25.894531 32.324219 25.894531 32.328125 C 25.894531 32.328125 25.894531 32.332031 25.894531 32.335938 C 25.898438 32.335938 25.902344 32.335938 25.90625 32.335938 L 26.886719 33.316406 L 26.921875 33.238281 L 25.960938 32.277344 C 25.957031 32.277344 25.953125 32.273438 25.949219 32.269531 C 25.949219 32.265625 25.945312 32.265625 25.941406 32.261719 C 25.9375 32.261719 25.933594 32.261719 25.929688 32.261719 C 25.929688 32.261719 25.925781 32.261719 25.921875 32.261719 Z M 29.488281 32.261719 C 29.484375 32.265625 29.480469 32.265625 29.480469 32.269531 C 29.476562 32.269531 29.472656 32.269531 29.46875 32.269531 C 29.46875 32.273438 29.46875 32.277344 29.46875 32.277344 L 28.503906 33.246094 L 28.535156 33.324219 L 29.523438 32.335938 C 29.527344 32.332031 29.53125 32.332031 29.535156 32.328125 C 29.539062 32.320312 29.542969 32.3125 29.546875 32.304688 C 29.546875 32.304688 29.546875 32.300781 29.546875 32.296875 C 29.542969 32.292969 29.539062 32.292969 29.535156 32.289062 C 29.535156 32.285156 29.535156 32.28125 29.535156 32.277344 C 29.53125 32.277344 29.527344 32.273438 29.523438 32.269531 C 29.519531 32.265625 29.511719 32.265625 29.507812 32.261719 C 29.503906 32.261719 29.5 32.261719 29.496094 32.261719 C 29.496094 32.261719 29.492188 32.261719 29.488281 32.261719 Z M 29.664062 32.566406 C 29.300781 32.804688 28.933594 33.097656 28.566406 33.390625 L 28.59375 33.449219 C 28.976562 33.160156 29.359375 32.875 29.664062 32.566406 Z M 25.746094 32.59375 C 26 32.90625 26.484375 33.167969 26.820312 33.457031 L 26.847656 33.398438 C 26.480469 33.132812 26.109375 32.800781 25.746094 32.59375 Z M 25.46875 32.734375 C 25.460938 32.734375 25.453125 32.734375 25.441406 32.742188 C 25.421875 32.757812 25.410156 32.78125 25.414062 32.808594 C 25.414062 32.824219 25.421875 32.839844 25.433594 32.851562 C 25.433594 32.855469 25.441406 32.859375 25.441406 32.863281 C 25.445312 32.863281 25.449219 32.863281 25.453125 32.863281 L 26.75 33.613281 L 26.808594 33.484375 L 25.527344 32.742188 C 25.515625 32.734375 25.507812 32.734375 25.5 32.734375 C 25.488281 32.730469 25.480469 32.730469 25.46875 32.734375 Z M 29.925781 32.734375 C 29.917969 32.734375 29.910156 32.738281 29.902344 32.742188 L 28.613281 33.492188 L 28.667969 33.621094 L 29.976562 32.863281 C 29.996094 32.855469 30.007812 32.839844 30.015625 32.824219 C 30.019531 32.8125 30.019531 32.800781 30.015625 32.789062 C 30.011719 32.78125 30.011719 32.773438 30.007812 32.769531 C 30 32.757812 29.988281 32.746094 29.976562 32.742188 C 29.96875 32.734375 29.960938 32.734375 29.949219 32.734375 C 29.941406 32.730469 29.933594 32.730469 29.925781 32.734375 Z M 29.988281 33.128906 C 29.566406 33.261719 29.125 33.457031 28.683594 33.652344 L 28.707031 33.703125 C 29.15625 33.519531 29.609375 33.335938 29.988281 33.128906 Z M 25.421875 33.15625 C 25.8125 33.359375 26.261719 33.535156 26.707031 33.710938 L 26.730469 33.667969 C 26.289062 33.488281 25.84375 33.277344 25.421875 33.15625 Z M 25.257812 33.398438 C 25.253906 33.402344 25.25 33.402344 25.246094 33.40625 C 25.242188 33.410156 25.242188 33.414062 25.238281 33.417969 C 25.238281 33.417969 25.238281 33.421875 25.238281 33.425781 C 25.238281 33.429688 25.238281 33.433594 25.238281 33.433594 C 25.238281 33.4375 25.238281 33.441406 25.238281 33.441406 C 25.238281 33.445312 25.238281 33.449219 25.238281 33.453125 C 25.242188 33.457031 25.242188 33.460938 25.246094 33.460938 C 25.25 33.464844 25.253906 33.46875 25.257812 33.472656 C 25.261719 33.476562 25.261719 33.476562 25.265625 33.480469 L 26.644531 33.847656 L 26.679688 33.769531 L 25.285156 33.398438 C 25.285156 33.398438 25.277344 33.398438 25.277344 33.398438 C 25.273438 33.398438 25.269531 33.398438 25.265625 33.398438 C 25.261719 33.398438 25.261719 33.398438 25.257812 33.398438 Z M 30.132812 33.398438 L 28.738281 33.769531 L 28.773438 33.851562 L 30.164062 33.480469 C 30.167969 33.476562 30.167969 33.476562 30.171875 33.472656 C 30.175781 33.46875 30.179688 33.464844 30.183594 33.460938 C 30.183594 33.460938 30.1875 33.457031 30.191406 33.453125 C 30.191406 33.449219 30.191406 33.445312 30.191406 33.441406 C 30.191406 33.441406 30.191406 33.4375 30.191406 33.433594 C 30.191406 33.433594 30.191406 33.429688 30.191406 33.425781 C 30.191406 33.421875 30.191406 33.417969 30.191406 33.417969 C 30.1875 33.414062 30.183594 33.410156 30.183594 33.40625 C 30.179688 33.402344 30.175781 33.402344 30.171875 33.398438 C 30.167969 33.398438 30.167969 33.398438 30.164062 33.398438 C 30.160156 33.398438 30.15625 33.398438 30.15625 33.398438 C 30.152344 33.398438 30.148438 33.398438 30.144531 33.398438 C 30.140625 33.398438 30.136719 33.398438 30.132812 33.398438 Z M 30.164062 33.75 C 29.730469 33.773438 29.265625 33.84375 28.800781 33.910156 L 28.828125 33.96875 C 29.289062 33.914062 29.746094 33.855469 30.164062 33.75 Z M 25.257812 33.785156 C 25.683594 33.871094 26.136719 33.925781 26.589844 33.976562 L 26.613281 33.921875 C 26.152344 33.855469 25.691406 33.792969 25.257812 33.785156 Z M 25.027344 34.015625 C 25.015625 34.015625 25.007812 34.019531 25 34.027344 C 24.992188 34.027344 24.984375 34.03125 24.980469 34.035156 C 24.96875 34.046875 24.964844 34.058594 24.964844 34.070312 C 24.960938 34.082031 24.960938 34.097656 24.964844 34.109375 C 24.964844 34.121094 24.96875 34.136719 24.980469 34.144531 C 24.984375 34.148438 24.992188 34.152344 25 34.15625 C 25.007812 34.160156 25.015625 34.164062 25.027344 34.164062 L 26.507812 34.164062 L 26.570312 34.015625 Z M 28.847656 34.015625 L 28.917969 34.164062 L 30.292969 34.164062 C 30.300781 34.164062 30.3125 34.160156 30.320312 34.15625 C 30.332031 34.148438 30.339844 34.140625 30.347656 34.128906 C 30.351562 34.117188 30.355469 34.109375 30.355469 34.101562 C 30.359375 34.089844 30.359375 34.082031 30.355469 34.070312 C 30.351562 34.042969 30.324219 34.019531 30.292969 34.015625 Z M 28.9375 34.210938 L 28.964844 34.273438 C 29.410156 34.332031 29.855469 34.390625 30.273438 34.402344 C 29.847656 34.316406 29.390625 34.261719 28.9375 34.210938 Z M 26.476562 34.234375 C 26.027344 34.292969 25.578125 34.351562 25.15625 34.441406 C 25.554688 34.441406 26.003906 34.363281 26.449219 34.292969 Z M 29.019531 34.394531 L 29.066406 34.5 L 30.246094 34.8125 C 30.25 34.8125 30.253906 34.8125 30.257812 34.8125 C 30.257812 34.8125 30.261719 34.8125 30.265625 34.8125 C 30.265625 34.8125 30.269531 34.8125 30.273438 34.8125 C 30.277344 34.808594 30.28125 34.804688 30.28125 34.800781 C 30.285156 34.796875 30.289062 34.792969 30.292969 34.789062 C 30.292969 34.789062 30.296875 34.785156 30.300781 34.78125 C 30.300781 34.78125 30.300781 34.777344 30.300781 34.773438 C 30.300781 34.769531 30.300781 34.769531 30.300781 34.765625 C 30.300781 34.761719 30.300781 34.757812 30.300781 34.753906 C 30.296875 34.753906 30.292969 34.75 30.292969 34.746094 C 30.289062 34.742188 30.285156 34.738281 30.28125 34.738281 C 30.28125 34.734375 30.277344 34.730469 30.273438 34.726562 C 30.269531 34.726562 30.265625 34.726562 30.265625 34.726562 Z M 26.402344 34.398438 L 25.164062 34.726562 C 25.160156 34.726562 25.15625 34.726562 25.15625 34.726562 C 25.152344 34.730469 25.148438 34.734375 25.144531 34.738281 C 25.144531 34.738281 25.140625 34.742188 25.136719 34.746094 C 25.132812 34.75 25.128906 34.753906 25.128906 34.753906 C 25.128906 34.757812 25.128906 34.761719 25.128906 34.765625 C 25.128906 34.769531 25.128906 34.769531 25.128906 34.773438 C 25.128906 34.777344 25.128906 34.78125 25.128906 34.78125 C 25.128906 34.785156 25.132812 34.789062 25.136719 34.789062 C 25.136719 34.792969 25.136719 34.796875 25.136719 34.800781 C 25.140625 34.800781 25.144531 34.800781 25.144531 34.800781 C 25.148438 34.804688 25.152344 34.808594 25.15625 34.8125 C 25.15625 34.8125 25.160156 34.8125 25.164062 34.8125 C 25.167969 34.8125 25.171875 34.8125 25.175781 34.8125 C 25.179688 34.8125 25.179688 34.8125 25.183594 34.8125 L 26.355469 34.5 Z M 29.125 34.625 L 29.164062 34.714844 C 29.484375 34.847656 29.804688 34.972656 30.109375 35.0625 C 29.796875 34.902344 29.464844 34.761719 29.125 34.625 Z M 26.28125 34.667969 C 25.949219 34.800781 25.605469 34.925781 25.34375 35.097656 C 25.644531 34.996094 25.945312 34.871094 26.246094 34.742188 Z M 29.246094 34.890625 L 29.34375 35.109375 L 30.007812 35.496094 C 30.015625 35.5 30.023438 35.503906 30.035156 35.503906 C 30.054688 35.503906 30.074219 35.5 30.089844 35.484375 C 30.09375 35.480469 30.097656 35.480469 30.097656 35.476562 C 30.101562 35.472656 30.105469 35.460938 30.109375 35.457031 C 30.109375 35.445312 30.109375 35.4375 30.109375 35.429688 C 30.109375 35.421875 30.109375 35.410156 30.109375 35.402344 C 30.101562 35.390625 30.089844 35.378906 30.078125 35.375 Z M 26.179688 34.894531 L 25.351562 35.375 C 25.34375 35.378906 25.335938 35.386719 25.332031 35.390625 C 25.328125 35.398438 25.324219 35.40625 25.320312 35.410156 C 25.316406 35.417969 25.3125 35.429688 25.3125 35.441406 C 25.3125 35.449219 25.316406 35.457031 25.320312 35.464844 C 25.328125 35.476562 25.339844 35.488281 25.351562 35.496094 C 25.355469 35.5 25.363281 35.5 25.367188 35.503906 C 25.378906 35.503906 25.386719 35.503906 25.394531 35.503906 C 25.40625 35.503906 25.414062 35.5 25.421875 35.496094 L 26.078125 35.117188 Z M 29.46875 35.382812 L 29.507812 35.472656 C 29.59375 35.53125 29.6875 35.589844 29.777344 35.644531 C 29.675781 35.554688 29.570312 35.46875 29.46875 35.382812 Z M 25.933594 35.445312 C 25.84375 35.519531 25.757812 35.59375 25.671875 35.671875 C 25.75 35.625 25.820312 35.578125 25.894531 35.527344 Z M 25.832031 35.910156 L 25.820312 35.917969 C 25.816406 35.925781 25.8125 35.929688 25.8125 35.9375 C 25.8125 35.941406 25.8125 35.945312 25.8125 35.945312 C 25.8125 35.949219 25.8125 35.953125 25.8125 35.953125 C 25.8125 35.957031 25.8125 35.960938 25.8125 35.964844 C 25.8125 35.96875 25.816406 35.972656 25.820312 35.976562 C 25.824219 35.980469 25.828125 35.980469 25.832031 35.984375 C 25.832031 35.988281 25.835938 35.992188 25.839844 35.992188 C 25.84375 35.996094 25.847656 35.996094 25.847656 35.992188 C 25.851562 35.996094 25.855469 35.996094 25.855469 35.992188 C 25.859375 35.996094 25.863281 35.996094 25.867188 35.992188 C 25.871094 35.992188 25.875 35.988281 25.875 35.984375 C 25.878906 35.984375 25.882812 35.984375 25.886719 35.984375 L 25.960938 35.910156 C 25.945312 35.910156 25.835938 35.910156 25.832031 35.910156 Z M 26.308594 35.910156 C 26.257812 35.988281 26.203125 36.066406 26.152344 36.140625 C 26.230469 36.078125 26.308594 35.996094 26.378906 35.910156 C 26.359375 35.910156 26.328125 35.910156 26.308594 35.910156 Z M 26.582031 35.910156 L 26.308594 36.382812 C 26.304688 36.390625 26.304688 36.402344 26.300781 36.410156 C 26.300781 36.417969 26.300781 36.429688 26.300781 36.4375 C 26.304688 36.445312 26.304688 36.449219 26.308594 36.453125 C 26.316406 36.464844 26.328125 36.476562 26.339844 36.480469 C 26.347656 36.484375 26.355469 36.484375 26.367188 36.480469 C 26.378906 36.484375 26.390625 36.484375 26.402344 36.480469 C 26.40625 36.480469 26.410156 36.476562 26.410156 36.472656 C 26.417969 36.46875 26.425781 36.460938 26.429688 36.453125 L 26.746094 35.910156 C 26.683594 35.910156 26.636719 35.910156 26.582031 35.910156 Z M 26.941406 35.910156 C 26.863281 36.101562 26.796875 36.292969 26.746094 36.480469 C 26.839844 36.300781 26.925781 36.105469 27.007812 35.910156 C 26.980469 35.910156 26.96875 35.910156 26.941406 35.910156 Z M 27.183594 35.910156 L 26.996094 36.621094 C 26.992188 36.625 26.992188 36.628906 26.996094 36.628906 C 26.992188 36.632812 26.992188 36.636719 26.996094 36.640625 C 26.992188 36.644531 26.992188 36.644531 26.996094 36.648438 C 26.996094 36.65625 27 36.664062 27.003906 36.667969 C 27.007812 36.667969 27.011719 36.667969 27.011719 36.667969 C 27.019531 36.671875 27.023438 36.675781 27.03125 36.675781 C 27.035156 36.675781 27.035156 36.675781 27.039062 36.675781 C 27.042969 36.671875 27.046875 36.671875 27.050781 36.667969 C 27.054688 36.667969 27.054688 36.667969 27.058594 36.667969 C 27.0625 36.664062 27.066406 36.660156 27.070312 36.65625 C 27.070312 36.65625 27.070312 36.652344 27.070312 36.648438 C 27.070312 36.648438 27.074219 36.644531 27.078125 36.640625 L 27.273438 35.910156 C 27.230469 35.910156 27.226562 35.910156 27.183594 35.910156 Z M 27.460938 35.910156 C 27.429688 36.160156 27.40625 36.40625 27.390625 36.648438 C 27.453125 36.421875 27.492188 36.167969 27.523438 35.910156 C 27.492188 35.910156 27.492188 35.910156 27.460938 35.910156 Z M 27.640625 35.910156 L 27.640625 36.777344 C 27.640625 36.789062 27.644531 36.800781 27.648438 36.808594 C 27.652344 36.8125 27.65625 36.820312 27.660156 36.824219 C 27.671875 36.835938 27.6875 36.84375 27.707031 36.84375 C 27.714844 36.84375 27.726562 36.84375 27.734375 36.84375 C 27.742188 36.839844 27.746094 36.835938 27.75 36.832031 C 27.765625 36.824219 27.773438 36.8125 27.78125 36.796875 C 27.785156 36.792969 27.789062 36.785156 27.789062 36.777344 L 27.789062 35.910156 C 27.714844 35.910156 27.714844 35.910156 27.640625 35.910156 Z M 27.9375 35.910156 C 27.964844 36.171875 28 36.425781 28.074219 36.640625 C 28.058594 36.402344 28.03125 36.15625 27.996094 35.910156 C 27.96875 35.910156 27.964844 35.910156 27.9375 35.910156 Z M 28.160156 35.910156 L 28.351562 36.640625 C 28.351562 36.644531 28.351562 36.644531 28.351562 36.648438 C 28.355469 36.652344 28.355469 36.65625 28.359375 36.65625 C 28.363281 36.660156 28.367188 36.664062 28.371094 36.667969 C 28.375 36.671875 28.382812 36.675781 28.390625 36.675781 C 28.390625 36.675781 28.394531 36.675781 28.398438 36.675781 C 28.402344 36.675781 28.40625 36.675781 28.40625 36.675781 C 28.410156 36.671875 28.414062 36.671875 28.417969 36.667969 C 28.417969 36.664062 28.421875 36.660156 28.425781 36.65625 C 28.429688 36.65625 28.433594 36.652344 28.4375 36.648438 C 28.4375 36.644531 28.4375 36.644531 28.4375 36.640625 C 28.4375 36.636719 28.4375 36.632812 28.4375 36.628906 C 28.4375 36.628906 28.4375 36.625 28.4375 36.621094 L 28.246094 35.910156 C 28.207031 35.910156 28.199219 35.910156 28.160156 35.910156 Z M 28.453125 35.910156 C 28.539062 36.101562 28.628906 36.285156 28.722656 36.464844 C 28.660156 36.277344 28.585938 36.09375 28.511719 35.910156 C 28.488281 35.910156 28.480469 35.910156 28.453125 35.910156 Z M 28.683594 35.910156 L 29 36.453125 C 29.003906 36.460938 29.011719 36.46875 29.019531 36.472656 C 29.023438 36.476562 29.03125 36.480469 29.035156 36.480469 C 29.046875 36.484375 29.054688 36.484375 29.0625 36.480469 C 29.082031 36.480469 29.097656 36.476562 29.109375 36.464844 C 29.113281 36.460938 29.117188 36.457031 29.117188 36.453125 C 29.121094 36.449219 29.125 36.445312 29.125 36.4375 C 29.128906 36.425781 29.128906 36.410156 29.125 36.398438 C 29.125 36.394531 29.121094 36.386719 29.117188 36.382812 L 28.847656 35.910156 C 28.792969 35.910156 28.746094 35.910156 28.683594 35.910156 Z M 29.105469 35.910156 C 29.167969 35.980469 29.230469 36.054688 29.292969 36.121094 C 29.25 36.050781 29.203125 35.980469 29.152344 35.910156 C 29.140625 35.910156 29.117188 35.910156 29.105469 35.910156 Z M 29.472656 35.910156 L 29.546875 35.984375 C 29.546875 35.984375 29.550781 35.984375 29.554688 35.984375 C 29.554688 35.988281 29.558594 35.992188 29.5625 35.992188 C 29.566406 35.996094 29.570312 35.996094 29.570312 35.992188 C 29.574219 35.996094 29.578125 35.996094 29.582031 35.992188 C 29.582031 35.996094 29.585938 35.996094 29.589844 35.992188 C 29.59375 35.992188 29.597656 35.988281 29.601562 35.984375 C 29.605469 35.980469 29.605469 35.980469 29.609375 35.976562 C 29.613281 35.972656 29.613281 35.96875 29.617188 35.964844 C 29.617188 35.960938 29.617188 35.957031 29.617188 35.953125 C 29.617188 35.953125 29.617188 35.949219 29.617188 35.945312 C 29.617188 35.945312 29.617188 35.941406 29.617188 35.9375 C 29.613281 35.933594 29.613281 35.929688 29.609375 35.929688 C 29.609375 35.925781 29.609375 35.921875 29.609375 35.917969 L 29.597656 35.910156 C 29.59375 35.910156 29.484375 35.910156 29.472656 35.910156 Z M 29.472656 35.910156 "/>
<path style="fill-rule:nonzero;fill:rgb(89.019608%,89.411765%,89.803922%);fill-opacity:1;stroke-width:0.7;stroke-linecap:butt;stroke-linejoin:miter;stroke:rgb(0%,0%,0%);stroke-opacity:1;stroke-miterlimit:4;" d="M 428.960684 479.151477 C 402.595614 479.151477 381.148073 500.599018 381.148073 526.964088 C 381.148073 553.388405 402.595614 574.835946 428.960684 574.835946 C 455.385002 574.835946 476.832542 553.388405 476.832542 526.964088 C 476.832542 500.599018 455.385002 479.151477 428.960684 479.151477 Z M 428.960684 486.675891 C 451.237687 486.675891 469.308129 504.746332 469.308129 526.964088 C 469.308129 549.241091 451.237687 567.37078 428.960684 567.37078 C 406.742928 567.37078 388.672487 549.241091 388.672487 526.964088 C 388.672487 504.746332 406.742928 486.675891 428.960684 486.675891 Z M 428.960684 486.675891 " transform="matrix(0.0659312,0,0,0.0659312,-0.570964,-0.614479)"/>
<path style="fill-rule:evenodd;fill:rgb(89.019608%,89.411765%,89.803922%);fill-opacity:1;stroke-width:0.7;stroke-linecap:butt;stroke-linejoin:miter;stroke:rgb(0%,0%,0%);stroke-opacity:1;stroke-miterlimit:4;" d="M 427.953479 486.557396 C 431.034341 485.076212 433.344988 484.246749 434.41144 483.061802 C 434.233698 481.580618 430.323373 480.040187 428.842189 479.09223 C 440.573164 470.086633 443.1208 481.165887 450.882203 484.483739 " transform="matrix(0.0659312,0,0,0.0659312,-0.570964,-0.614479)"/>
<path style=" stroke:none;fill-rule:evenodd;fill:rgb(0%,0%,0%);fill-opacity:1;" d="M 28.09375 30.976562 C 28.128906 30.941406 28.277344 30.851562 28.34375 30.914062 C 28.511719 31.058594 28.214844 31.039062 28.09375 30.976562 Z M 28.09375 30.976562 "/>
<path style="fill:none;stroke-width:0.7;stroke-linecap:butt;stroke-linejoin:miter;stroke:rgb(0%,0%,0%);stroke-opacity:1;stroke-miterlimit:4;" d="M 428.901437 486.794385 L 459.176832 553.980879 C 459.176832 553.980879 399.277762 553.980879 398.863031 553.980879 Z M 428.901437 486.794385 " transform="matrix(0.0659312,0,0,0.0659312,-0.570964,-0.614479)"/>
<path style=" stroke:none;fill-rule:nonzero;fill:rgb(0%,0%,0%);fill-opacity:1;" d="M 17.261719 20.613281 L 17.261719 46.808594 C 17.308594 47.023438 17.367188 47.21875 17.480469 47.375 C 17.59375 47.53125 17.761719 47.644531 18 47.699219 L 26.417969 47.699219 C 27.003906 47.683594 27.273438 47.773438 27.414062 47.875 C 27.554688 47.976562 27.570312 48.097656 27.660156 48.207031 L 27.722656 48.273438 L 27.769531 48.199219 C 27.839844 48.085938 27.847656 47.972656 27.988281 47.871094 C 28.128906 47.773438 28.410156 47.6875 29.007812 47.699219 L 37.429688 47.699219 L 37.4375 47.695312 C 37.851562 47.535156 38.09375 47.261719 38.160156 46.800781 L 38.164062 46.796875 L 38.164062 20.613281 Z M 17.394531 20.742188 L 38.03125 20.742188 L 38.03125 46.785156 C 37.96875 47.203125 37.78125 47.417969 37.402344 47.570312 L 29.011719 47.570312 C 28.398438 47.554688 28.089844 47.640625 27.914062 47.765625 C 27.792969 47.851562 27.746094 47.945312 27.707031 48.027344 C 27.664062 47.949219 27.613281 47.855469 27.492188 47.765625 C 27.316406 47.636719 27.011719 47.550781 26.414062 47.570312 L 18.023438 47.570312 C 17.8125 47.519531 17.679688 47.425781 17.585938 47.296875 C 17.492188 47.167969 17.4375 46.996094 17.394531 46.789062 Z M 17.394531 20.742188 "/>
<path style="fill:none;stroke-width:1.4;stroke-linecap:round;stroke-linejoin:miter;stroke:rgb(0%,0%,0%);stroke-opacity:1;stroke-miterlimit:4;" d="M 429.019931 101.212638 L 429.019931 321.731271 M 324.152124 177.404729 L 533.887739 245.53918 M 364.203332 300.698462 L 493.836531 122.245447 M 493.836531 300.698462 L 364.203332 122.245447 M 533.887739 177.404729 L 324.152124 245.53918 M 507.463421 211.471954 L 350.517194 211.471954 M 453.252097 136.820295 L 429.019931 211.471954 L 404.728518 286.123614 M 365.506773 165.377517 L 429.019931 211.471954 L 492.473842 257.566392 M 365.506773 257.566392 L 429.019931 211.471954 L 492.473842 165.377517 M 453.252097 286.123614 L 429.019931 211.471954 L 404.728518 136.820295 " transform="matrix(0.0659312,0,0,0.0659312,-0.570964,-0.614479)"/>
<path style="fill-rule:nonzero;fill:rgb(100%,100%,100%);fill-opacity:1;stroke-width:0.7;stroke-linecap:butt;stroke-linejoin:miter;stroke:rgb(0%,0%,0%);stroke-opacity:1;stroke-miterlimit:4;" d="M 429.256921 141.915567 L 443.950263 191.564845 L 495.732446 190.735382 L 453.015108 220.06282 L 469.841355 269.060378 L 428.782942 237.481541 L 387.369045 268.645646 L 404.669271 219.825831 L 362.248169 190.024414 L 414.030352 191.44635 Z M 429.256921 141.915567 " transform="matrix(0.0659312,0,0,0.0659312,-0.570964,-0.614479)"/>
<path style="fill-rule:nonzero;fill:rgb(89.019608%,89.411765%,89.803922%);fill-opacity:1;stroke-width:0.7;stroke-linecap:butt;stroke-linejoin:miter;stroke:rgb(0%,0%,0%);stroke-opacity:1;stroke-miterlimit:4;" d="M 443.950263 191.564845 L 387.369045 268.645646 L 428.782942 237.481541 L 429.256921 141.915567 Z M 404.669271 219.825831 L 495.732446 190.735382 L 453.015108 220.06282 L 469.841355 269.060378 L 428.012726 210.820234 L 362.248169 190.024414 Z M 404.669271 219.825831 " transform="matrix(0.0659312,0,0,0.0659312,-0.570964,-0.614479)"/>
<path style="fill-rule:nonzero;fill:rgb(89.019608%,89.411765%,89.803922%);fill-opacity:1;stroke-width:0.7;stroke-linecap:butt;stroke-linejoin:miter;stroke:rgb(0%,0%,0%);stroke-opacity:1;stroke-miterlimit:4;" d="M 443.950263 191.564845 L 387.369045 268.645646 L 428.782942 237.481541 L 429.256921 141.915567 Z M 404.669271 219.825831 L 495.732446 190.735382 L 453.015108 220.06282 L 469.841355 269.060378 L 428.012726 210.820234 L 362.248169 190.024414 Z M 404.669271 219.825831 " transform="matrix(0.0659312,0,0,0.0659312,-0.570964,-0.614479)"/>
<use xlink:href="#surface5" mask="url(#mask0)"/>
</g>
</svg>
