<svg version="1.1" xmlns="http://www.w3.org/2000/svg" style="max-height: 500px" viewBox="16.63 8.13 619.03 618.03"><rect id="backgroundrect" width="100%" height="100%" x="0" y="0" fill="none" stroke="none" style="" class=""/>
  <defs id="defs4364"/>
  
  
<g class="currentLayer" style=""><title>Layer 1</title><rect fill="#ffffff" style="color: rgb(5, 55, 108);" stroke-dashoffset="" fill-rule="nonzero" id="svg_1" x="16.66666352748871" y="8.166663885116577" width="619" height="618" class="" rx="120" ry="120"/><path style="fill:#025b9c" d="m279.008341083952,103.5956913239778 c-9.24951230514578,-0.7307491167579871 -17.75926521184314,5.112494917807128 -20.431806391208813,14.466389198303624 L229.5544173678585,228.02104150211613 H131.04920735392506 c-10.690164717462698,0 -22.134978705658856,9.160020354796735 -25.18931148207677,19.850185072259436 l-5.354016282102374,19.850108713940024 c-3.054332776417914,10.690164717462698 3.8208939449794,19.850185072259436 14.5110586624421,19.850185072259436 H213.52214826612175 l-24.428706262429298,94.68729404341234 c-3.054332776417914,10.690164717462698 3.8060040726943636,21.374373486011383 14.496168790157066,24.428706262429298 l19.089579852611962,5.354092640421783 c10.690164717462698,3.054332776417914 21.38926335829642,-3.060365083651339 24.44359613471433,-13.75052980111404 l29.78272254453167,-109.9589579255019 h142.02349612897598 c19.089579852611962,0 35.121848954349,16.04723533234149 35.121848954349,35.13681518495345 c0,2.2907495823134365 -0.7605288613280616,6.108665552835828 -0.7605288613280616,7.635831941044785 l-46.575596865916175,171.80621867350766 c-3.054332776417914,10.690164717462698 3.8060040726943636,21.37429712769197 14.496168790157066,24.428629904109886 l19.089579852611962,5.3391264098173385 c10.690164717462698,3.054332776417914 21.38926335829642,-3.045322494727484 24.44359613471433,-13.735487212190181 l45.81499164626871,-170.28508459253214 c2.2907495823134365,-7.635831941044785 3.0573107508749215,-16.029214768960625 3.0573107508749215,-24.428629904109886 c-1.5271663882089561,-53.450823587313494 -44.29675918143077,-95.44789926305981 -96.98399957463978,-95.44789926305981 h-125.99122702723895 l25.204124996042395,-94.68737345606453 c3.054332776417914,-10.690164717462698 -3.060288725331929,-21.37429712769197 -13.750453442794628,-24.428630056826528 l-19.089579852611962,-5.354092640421783 c-1.3362705896828375,-0.3817915970522397 -2.6755191538226835,-0.6116301384776892 -3.9968998712204815,-0.7154774528758977 zm238.42587438466637,60.28138084457234 a35.12482616522282,35.12482616522282 0 0 0 -35.13673882663404,35.121775650362366 a35.12482616522282,35.12482616522282 0 0 0 35.13673882663404,35.121848954349 a35.12482616522282,35.12482616522282 0 0 0 35.121848954349,-35.121848954349 a35.12482616522282,35.12482616522282 0 0 0 -35.121848954349,-35.121775650362366 z" class="" id="svg_4"/><rect fill="#ffffff" style="color: rgb(5, 55, 108);" stroke-dashoffset="" fill-rule="nonzero" id="svg_3" x="150" y="-44" width="0" height="1" class=""/></g></svg>