<?xml version="1.0" encoding="UTF-8"?>
<svg xmlns="http://www.w3.org/2000/svg" xmlns:xlink="http://www.w3.org/1999/xlink" width="56px" height="56px" viewBox="0 0 56 56" version="1.1">
<g id="surface1">
<path style=" stroke:none;fill-rule:nonzero;fill:rgb(100%,100%,100%);fill-opacity:1;" d="M 10.859375 0.00390625 L 45.144531 0.00390625 C 51.140625 0.00390625 56 4.871094 56 10.875 L 56 45.128906 C 56 51.132812 51.140625 56 45.144531 56 L 10.859375 56 C 4.863281 56 0.00390625 51.132812 0.00390625 45.128906 L 0.00390625 10.875 C 0.00390625 4.871094 4.863281 0.00390625 10.859375 0.00390625 Z M 10.859375 0.00390625 "/>
<path style=" stroke:none;fill-rule:nonzero;fill:rgb(0.784314%,35.686275%,61.176473%);fill-opacity:1;" d="M 23.734375 8.648438 C 22.898438 8.582031 22.128906 9.113281 21.886719 9.960938 L 19.261719 19.925781 L 10.351562 19.925781 C 9.382812 19.925781 8.347656 20.753906 8.070312 21.722656 L 7.585938 23.523438 C 7.3125 24.492188 7.933594 25.320312 8.902344 25.320312 L 17.8125 25.320312 L 15.601562 33.898438 C 15.324219 34.867188 15.945312 35.835938 16.914062 36.113281 L 18.640625 36.597656 C 19.605469 36.875 20.574219 36.320312 20.851562 35.351562 L 23.546875 25.390625 L 36.394531 25.390625 C 38.121094 25.390625 39.570312 26.84375 39.570312 28.574219 C 39.570312 28.78125 39.503906 29.125 39.503906 29.265625 L 35.289062 44.832031 C 35.011719 45.800781 35.632812 46.769531 36.601562 47.046875 L 38.328125 47.53125 C 39.292969 47.804688 40.261719 47.253906 40.539062 46.285156 L 44.683594 30.855469 C 44.890625 30.164062 44.960938 29.402344 44.960938 28.640625 C 44.820312 23.796875 40.953125 19.992188 36.1875 19.992188 L 24.789062 19.992188 L 27.066406 11.414062 C 27.34375 10.445312 26.792969 9.476562 25.824219 9.199219 L 24.097656 8.714844 C 23.976562 8.679688 23.855469 8.660156 23.734375 8.648438 Z M 45.304688 14.113281 C 43.550781 14.113281 42.125 15.535156 42.125 17.292969 C 42.125 19.054688 43.550781 20.476562 45.304688 20.476562 C 47.058594 20.476562 48.480469 19.050781 48.480469 17.292969 C 48.480469 15.539062 47.058594 14.113281 45.304688 14.113281 Z M 45.304688 14.113281 "/>
</g>
</svg>
