<?xml version="1.0" encoding="UTF-8"?>
<svg xmlns="http://www.w3.org/2000/svg" xmlns:xlink="http://www.w3.org/1999/xlink" width="56px" height="56px" viewBox="0 0 56 56" version="1.1">
<g id="surface1">
<path style=" stroke:none;fill-rule:nonzero;fill:rgb(100%,100%,100%);fill-opacity:1;" d="M 10.421875 0.00390625 L 45.582031 0.00390625 C 51.335938 0.00390625 56 4.667969 56 10.421875 L 56 45.582031 C 56 51.332031 51.335938 56 45.582031 56 L 10.421875 56 C 4.667969 56 0.00390625 51.332031 0.00390625 45.582031 L 0.00390625 10.421875 C 0.00390625 4.667969 4.667969 0.00390625 10.421875 0.00390625 Z M 10.421875 0.00390625 "/>
<path style=" stroke:none;fill-rule:nonzero;fill:rgb(0.784314%,41.568628%,64.313728%);fill-opacity:1;" d="M 15.574219 21.609375 C 15.574219 22.167969 15.574219 22.726562 15.574219 23.300781 C 15.355469 23.339844 15.355469 23.339844 15.132812 23.375 C 14.976562 23.4375 14.820312 23.5 14.660156 23.5625 C 14.574219 23.863281 14.488281 24.164062 14.402344 24.472656 C 15.5625 24.472656 16.722656 24.472656 17.917969 24.472656 C 17.925781 24.910156 17.925781 24.910156 17.933594 25.355469 C 17.9375 25.636719 17.945312 25.921875 17.953125 26.203125 C 17.957031 26.402344 17.960938 26.597656 17.960938 26.792969 C 17.964844 27.074219 17.972656 27.359375 17.980469 27.640625 C 17.984375 27.8125 17.988281 27.980469 17.992188 28.15625 C 18.054688 28.714844 18.175781 29.058594 18.4375 29.554688 C 18.960938 29.902344 19.386719 29.902344 20 29.8125 C 20.457031 29.539062 20.613281 29.40625 20.78125 28.902344 C 20.800781 28.566406 20.816406 28.230469 20.824219 27.894531 C 20.828125 27.75 20.828125 27.75 20.832031 27.597656 C 20.839844 27.289062 20.847656 26.976562 20.855469 26.664062 C 20.859375 26.453125 20.867188 26.242188 20.871094 26.027344 C 20.886719 25.511719 20.898438 24.992188 20.914062 24.472656 C 21.558594 24.472656 22.203125 24.472656 22.867188 24.472656 C 22.867188 24.644531 22.867188 24.816406 22.867188 24.996094 C 22.941406 24.949219 23.019531 24.902344 23.101562 24.851562 C 24.015625 24.339844 24.832031 24.136719 25.867188 24.414062 C 26.386719 24.621094 26.839844 24.933594 27.292969 25.253906 C 27.40625 25.152344 27.519531 25.050781 27.636719 24.945312 C 28.371094 24.34375 29.097656 24.289062 30.03125 24.300781 C 30.753906 24.382812 31.257812 24.730469 31.851562 25.125 C 31.851562 24.136719 31.851562 23.148438 31.851562 22.128906 C 32.496094 22.128906 33.140625 22.128906 33.804688 22.128906 C 33.804688 22.945312 33.804688 23.761719 33.804688 24.605469 C 34.0625 24.519531 34.320312 24.433594 34.585938 24.34375 C 35.667969 24.226562 36.625 24.320312 37.582031 24.863281 C 37.921875 25.15625 37.921875 25.15625 38.101562 25.386719 C 38.144531 25.085938 38.1875 24.785156 38.230469 24.472656 C 38.875 24.472656 39.519531 24.472656 40.183594 24.472656 C 40.226562 24.644531 40.269531 24.816406 40.316406 24.996094 C 40.390625 24.949219 40.46875 24.902344 40.546875 24.851562 C 41.429688 24.351562 42.167969 24.179688 43.179688 24.34375 C 44.140625 24.640625 44.792969 25.148438 45.265625 26.035156 C 45.773438 27.222656 45.8125 28.410156 45.398438 29.632812 C 45.003906 30.546875 44.457031 31.121094 43.542969 31.527344 C 42.234375 31.925781 41.554688 31.605469 40.316406 30.984375 C 40.273438 32.273438 40.230469 33.5625 40.183594 34.890625 C 39.539062 34.890625 38.894531 34.890625 38.230469 34.890625 C 38.1875 33.472656 38.144531 32.054688 38.101562 30.59375 C 37.84375 30.808594 37.585938 31.023438 37.320312 31.246094 C 36.339844 31.746094 35.265625 31.820312 34.199219 31.53125 C 33.671875 31.332031 33.273438 31.148438 32.894531 30.726562 C 32.632812 30.855469 32.375 30.984375 32.117188 31.121094 C 32.03125 31.164062 31.945312 31.207031 31.859375 31.253906 C 31.773438 31.296875 31.691406 31.34375 31.601562 31.390625 C 30.679688 31.785156 29.425781 31.8125 28.476562 31.519531 C 28.203125 31.398438 27.941406 31.269531 27.683594 31.117188 C 27.683594 31.246094 27.683594 31.375 27.683594 31.507812 C 27.082031 31.507812 26.480469 31.507812 25.859375 31.507812 C 25.855469 31.214844 25.851562 30.925781 25.847656 30.628906 C 25.839844 30.34375 25.832031 30.058594 25.828125 29.777344 C 25.820312 29.582031 25.820312 29.382812 25.816406 29.1875 C 25.8125 28.90625 25.804688 28.621094 25.796875 28.339844 C 25.792969 28.171875 25.789062 28 25.785156 27.824219 C 25.722656 27.265625 25.601562 26.921875 25.339844 26.429688 C 24.816406 26.09375 24.554688 26.015625 23.941406 26.117188 C 23.449219 26.324219 23.230469 26.480469 22.996094 26.949219 C 22.976562 27.289062 22.960938 27.628906 22.953125 27.972656 C 22.949219 28.121094 22.949219 28.121094 22.945312 28.277344 C 22.9375 28.597656 22.929688 28.921875 22.921875 29.242188 C 22.917969 29.460938 22.910156 29.679688 22.90625 29.898438 C 22.890625 30.433594 22.878906 30.96875 22.867188 31.507812 C 22.222656 31.507812 21.578125 31.507812 20.914062 31.507812 C 20.871094 31.335938 20.828125 31.164062 20.78125 30.984375 C 20.660156 31.070312 20.539062 31.152344 20.414062 31.238281 C 19.6875 31.710938 19.023438 31.71875 18.175781 31.636719 C 17.347656 31.414062 16.824219 31.046875 16.355469 30.335938 C 16.128906 29.773438 16.0625 29.308594 16.070312 28.707031 C 16.070312 28.550781 16.070312 28.394531 16.070312 28.234375 C 16.074219 28.074219 16.074219 27.914062 16.078125 27.746094 C 16.078125 27.582031 16.078125 27.417969 16.082031 27.25 C 16.085938 26.84375 16.089844 26.441406 16.09375 26.035156 C 15.535156 26.035156 14.976562 26.035156 14.402344 26.035156 C 14.402344 27.84375 14.402344 29.648438 14.402344 31.507812 C 13.757812 31.507812 13.113281 31.507812 12.449219 31.507812 C 12.449219 29.703125 12.449219 27.898438 12.449219 26.035156 C 12.191406 26.035156 11.933594 26.035156 11.667969 26.035156 C 11.667969 25.519531 11.667969 25.003906 11.667969 24.472656 C 11.925781 24.472656 12.183594 24.472656 12.449219 24.472656 C 12.433594 24.246094 12.433594 24.246094 12.421875 24.011719 C 12.425781 23.234375 12.652344 22.710938 13.195312 22.15625 C 13.972656 21.632812 14.667969 21.578125 15.574219 21.609375 Z M 34.324219 26.296875 C 34.25 26.359375 34.175781 26.421875 34.097656 26.484375 C 33.890625 26.714844 33.890625 26.714844 33.804688 27.210938 C 34.835938 27.210938 35.867188 27.210938 36.929688 27.210938 C 36.742188 26.484375 36.742188 26.484375 36.464844 26.191406 C 35.726562 25.832031 34.984375 25.757812 34.324219 26.296875 Z M 28.726562 26.558594 C 28.261719 27.203125 28.226562 27.875 28.335938 28.640625 C 28.503906 29.128906 28.757812 29.46875 29.148438 29.804688 C 29.761719 30.042969 30.300781 30.050781 30.90625 29.789062 C 31.363281 29.421875 31.664062 29.070312 31.851562 28.511719 C 31.910156 27.625 31.800781 27.082031 31.199219 26.386719 C 30.765625 26.019531 30.335938 25.992188 29.777344 26 C 29.320312 26.0625 29.0625 26.257812 28.726562 26.558594 Z M 40.574219 26.558594 C 40.113281 27.203125 40.074219 27.875 40.183594 28.640625 C 40.355469 29.128906 40.605469 29.46875 41 29.804688 C 41.472656 29.988281 41.902344 30.03125 42.398438 29.945312 C 43.0625 29.59375 43.464844 29.226562 43.703125 28.511719 C 43.757812 27.625 43.648438 27.082031 43.050781 26.386719 C 42.613281 26.019531 42.183594 25.992188 41.625 26 C 41.171875 26.0625 40.914062 26.257812 40.574219 26.558594 Z M 33.804688 28.640625 C 34.035156 29.441406 34.035156 29.441406 34.585938 29.945312 C 35.148438 30.097656 35.597656 30.140625 36.140625 29.917969 C 36.453125 29.671875 36.453125 29.671875 36.667969 29.164062 C 37.183594 29.164062 37.699219 29.164062 38.230469 29.164062 C 38.230469 28.992188 38.230469 28.820312 38.230469 28.640625 C 36.769531 28.640625 35.308594 28.640625 33.804688 28.640625 Z M 33.804688 28.640625 "/>
<path style=" stroke:none;fill-rule:nonzero;fill:rgb(0.784314%,41.176471%,64.705884%);fill-opacity:1;" d="M 43.878906 24.605469 C 44.734375 25.09375 45.195312 25.75 45.507812 26.671875 C 45.828125 27.914062 45.714844 29.097656 45.109375 30.234375 C 44.625 30.964844 44.015625 31.378906 43.179688 31.636719 C 41.964844 31.832031 41.492188 31.574219 40.316406 30.984375 C 40.273438 32.273438 40.230469 33.5625 40.183594 34.890625 C 39.539062 34.890625 38.894531 34.890625 38.230469 34.890625 C 38.210938 34.273438 38.1875 33.65625 38.167969 33.039062 C 38.164062 32.828125 38.15625 32.617188 38.148438 32.410156 C 38.105469 31.285156 38.097656 30.191406 38.199219 29.074219 C 38.265625 28.199219 38.246094 27.324219 38.238281 26.453125 C 38.238281 26.257812 38.238281 26.066406 38.238281 25.871094 C 38.238281 25.40625 38.234375 24.941406 38.230469 24.472656 C 38.875 24.472656 39.519531 24.472656 40.183594 24.472656 C 40.226562 24.644531 40.269531 24.816406 40.316406 24.996094 C 40.390625 24.949219 40.46875 24.902344 40.546875 24.851562 C 41.652344 24.226562 42.695312 24.082031 43.878906 24.605469 Z M 40.574219 26.558594 C 40.113281 27.203125 40.074219 27.875 40.183594 28.640625 C 40.355469 29.128906 40.605469 29.46875 41 29.804688 C 41.472656 29.988281 41.902344 30.03125 42.398438 29.945312 C 43.0625 29.59375 43.464844 29.226562 43.703125 28.511719 C 43.757812 27.625 43.648438 27.082031 43.050781 26.386719 C 42.613281 26.019531 42.183594 25.992188 41.625 26 C 41.171875 26.0625 40.914062 26.257812 40.574219 26.558594 Z M 40.574219 26.558594 "/>
<path style=" stroke:none;fill-rule:nonzero;fill:rgb(0.784314%,57.254905%,62.7451%);fill-opacity:1;" d="M 37.789062 25.003906 C 38.15625 25.300781 38.339844 25.519531 38.425781 25.992188 C 38.4375 26.394531 38.429688 26.789062 38.410156 27.191406 C 38.386719 27.910156 38.386719 27.910156 38.363281 28.640625 C 36.859375 28.640625 35.355469 28.640625 33.804688 28.640625 C 34.109375 29.328125 34.109375 29.328125 34.585938 29.8125 C 35.136719 29.976562 35.609375 30.007812 36.140625 29.78125 C 36.4375 29.550781 36.4375 29.550781 36.667969 29.164062 C 37.035156 29.125 37.035156 29.125 37.46875 29.136719 C 37.679688 29.144531 37.679688 29.144531 37.898438 29.148438 C 38.0625 29.15625 38.0625 29.15625 38.230469 29.164062 C 38.292969 29.785156 38.304688 30.210938 37.988281 30.765625 C 37.292969 31.464844 36.386719 31.667969 35.433594 31.703125 C 34.386719 31.667969 33.378906 31.363281 32.632812 30.59375 C 32.632812 30.464844 32.632812 30.335938 32.632812 30.203125 C 32.546875 30.203125 32.460938 30.203125 32.371094 30.203125 C 31.886719 29.070312 31.769531 27.78125 32.074219 26.578125 C 32.324219 25.972656 32.664062 25.5625 33.152344 25.125 C 33.238281 24.996094 33.324219 24.867188 33.414062 24.734375 C 33.5 24.734375 33.585938 24.734375 33.675781 24.734375 C 33.71875 24.648438 33.761719 24.5625 33.804688 24.472656 C 35.191406 24.160156 36.589844 24.203125 37.789062 25.003906 Z M 34.324219 26.296875 C 34.25 26.359375 34.175781 26.421875 34.097656 26.484375 C 33.890625 26.714844 33.890625 26.714844 33.804688 27.210938 C 34.835938 27.210938 35.867188 27.210938 36.929688 27.210938 C 36.742188 26.484375 36.742188 26.484375 36.464844 26.191406 C 35.726562 25.832031 34.984375 25.757812 34.324219 26.296875 Z M 34.324219 26.296875 "/>
<path style=" stroke:none;fill-rule:nonzero;fill:rgb(0.784314%,41.176471%,65.098041%);fill-opacity:1;" d="M 15.574219 21.609375 C 15.574219 22.167969 15.574219 22.726562 15.574219 23.300781 C 15.355469 23.339844 15.355469 23.339844 15.132812 23.375 C 14.976562 23.4375 14.820312 23.5 14.660156 23.5625 C 14.460938 24.019531 14.460938 24.019531 14.402344 24.472656 C 14.960938 24.472656 15.519531 24.472656 16.09375 24.472656 C 16.09375 24.988281 16.09375 25.503906 16.09375 26.035156 C 15.535156 26.035156 14.976562 26.035156 14.402344 26.035156 C 14.402344 27.84375 14.402344 29.648438 14.402344 31.507812 C 13.757812 31.507812 13.113281 31.507812 12.449219 31.507812 C 12.449219 29.703125 12.449219 27.898438 12.449219 26.035156 C 12.191406 26.035156 11.933594 26.035156 11.667969 26.035156 C 11.667969 25.519531 11.667969 25.003906 11.667969 24.472656 C 11.925781 24.472656 12.183594 24.472656 12.449219 24.472656 C 12.433594 24.246094 12.433594 24.246094 12.421875 24.011719 C 12.425781 23.234375 12.652344 22.710938 13.195312 22.15625 C 13.972656 21.632812 14.667969 21.578125 15.574219 21.609375 Z M 15.574219 21.609375 "/>
<path style=" stroke:none;fill-rule:nonzero;fill:rgb(0.784314%,57.254905%,62.7451%);fill-opacity:1;" d="M 16.09375 24.472656 C 16.695312 24.472656 17.296875 24.472656 17.917969 24.472656 C 17.921875 24.765625 17.925781 25.054688 17.933594 25.355469 C 17.9375 25.636719 17.945312 25.921875 17.953125 26.203125 C 17.957031 26.402344 17.960938 26.597656 17.960938 26.792969 C 17.964844 27.074219 17.972656 27.359375 17.980469 27.640625 C 17.984375 27.8125 17.988281 27.980469 17.992188 28.15625 C 18.054688 28.714844 18.175781 29.058594 18.4375 29.554688 C 18.960938 29.902344 19.386719 29.90625 20 29.8125 C 20.382812 29.589844 20.382812 29.589844 20.652344 29.292969 C 20.738281 29.207031 20.824219 29.121094 20.914062 29.03125 C 20.929688 29.324219 20.941406 29.617188 20.953125 29.910156 C 20.960938 30.074219 20.96875 30.238281 20.976562 30.40625 C 20.914062 30.855469 20.914062 30.855469 20.625 31.160156 C 19.804688 31.648438 19.125 31.742188 18.175781 31.636719 C 17.347656 31.410156 16.824219 31.046875 16.355469 30.335938 C 16.070312 29.667969 16.058594 29.078125 16.070312 28.367188 C 16.070312 28.253906 16.070312 28.144531 16.070312 28.027344 C 16.070312 27.671875 16.074219 27.320312 16.078125 26.964844 C 16.078125 26.722656 16.082031 26.484375 16.082031 26.242188 C 16.085938 25.652344 16.089844 25.0625 16.09375 24.472656 Z M 16.09375 24.472656 "/>
<path style=" stroke:none;fill-rule:nonzero;fill:rgb(1.568628%,56.862748%,62.7451%);fill-opacity:1;" d="M 26.511719 24.734375 C 26.894531 25.019531 26.894531 25.019531 27.164062 25.253906 C 27.082031 25.640625 27 25.828125 26.773438 26.167969 C 26.445312 27.546875 26.386719 28.863281 26.902344 30.203125 C 27.03125 30.246094 27.160156 30.289062 27.292969 30.335938 C 27.511719 30.488281 27.511719 30.488281 27.683594 30.726562 C 27.683594 30.984375 27.683594 31.242188 27.683594 31.507812 C 27.082031 31.507812 26.480469 31.507812 25.859375 31.507812 C 25.851562 31.070312 25.851562 31.070312 25.847656 30.628906 C 25.839844 30.34375 25.832031 30.058594 25.828125 29.777344 C 25.820312 29.582031 25.820312 29.382812 25.816406 29.1875 C 25.8125 28.90625 25.804688 28.621094 25.796875 28.339844 C 25.792969 28.171875 25.789062 28 25.785156 27.824219 C 25.722656 27.265625 25.601562 26.921875 25.339844 26.429688 C 24.816406 26.09375 24.554688 26.015625 23.941406 26.117188 C 23.554688 26.28125 23.378906 26.371094 23.125 26.6875 C 22.996094 26.820312 22.867188 26.949219 22.734375 27.078125 C 22.722656 26.785156 22.710938 26.492188 22.703125 26.199219 C 22.695312 26.035156 22.691406 25.875 22.683594 25.707031 C 22.734375 25.253906 22.734375 25.253906 22.972656 24.949219 C 24.039062 24.140625 25.351562 24.085938 26.511719 24.734375 Z M 26.511719 24.734375 "/>
<path style=" stroke:none;fill-rule:nonzero;fill:rgb(1.960784%,48.235294%,62.7451%);fill-opacity:1;" d="M 32.113281 25.515625 C 32.285156 25.515625 32.457031 25.515625 32.632812 25.515625 C 32.398438 26.382812 32.398438 26.382812 32.234375 26.652344 C 32.050781 27.097656 32.085938 27.546875 32.09375 28.023438 C 32.097656 28.167969 32.097656 28.167969 32.097656 28.316406 C 32.101562 28.554688 32.105469 28.792969 32.113281 29.03125 C 32.070312 28.902344 32.027344 28.773438 31.980469 28.640625 C 31.894531 28.597656 31.808594 28.554688 31.722656 28.511719 C 31.714844 28.285156 31.707031 28.0625 31.703125 27.835938 C 31.703125 27.710938 31.699219 27.585938 31.695312 27.457031 C 31.722656 27.058594 31.824219 26.789062 31.980469 26.429688 C 32.03125 26.125 32.074219 25.820312 32.113281 25.515625 Z M 32.113281 25.515625 "/>
<path style=" stroke:none;fill-rule:nonzero;fill:rgb(5.098039%,39.607844%,62.352943%);fill-opacity:1;" d="M 38.230469 24.472656 C 38.875 24.472656 39.519531 24.472656 40.183594 24.472656 C 40.140625 24.644531 40.097656 24.816406 40.054688 24.996094 C 40.054688 24.867188 40.054688 24.738281 40.054688 24.605469 C 39.667969 24.605469 39.28125 24.605469 38.882812 24.605469 C 38.882812 24.734375 38.882812 24.863281 38.882812 24.996094 C 38.558594 25.214844 38.558594 25.214844 38.230469 25.386719 C 38.230469 25.085938 38.230469 24.785156 38.230469 24.472656 Z M 38.230469 24.472656 "/>
<path style=" stroke:none;fill-rule:nonzero;fill:rgb(5.098039%,54.901963%,64.313728%);fill-opacity:1;" d="M 36.667969 29.164062 C 37.183594 29.164062 37.699219 29.164062 38.230469 29.164062 C 38.25 30.300781 38.25 30.300781 38.101562 30.59375 C 38.015625 30.59375 37.929688 30.59375 37.839844 30.59375 C 37.882812 30.164062 37.925781 29.734375 37.972656 29.292969 C 37.542969 29.292969 37.113281 29.292969 36.667969 29.292969 C 36.667969 29.25 36.667969 29.207031 36.667969 29.164062 Z M 36.667969 29.164062 "/>
<path style=" stroke:none;fill-rule:nonzero;fill:rgb(0%,45.490196%,60.392159%);fill-opacity:1;" d="M 33.675781 24.472656 C 33.675781 24.558594 33.675781 24.644531 33.675781 24.734375 C 33.589844 24.734375 33.503906 24.734375 33.414062 24.734375 C 33.378906 24.816406 33.34375 24.894531 33.308594 24.980469 C 33.152344 25.253906 33.152344 25.253906 32.761719 25.515625 C 32.761719 24.996094 32.761719 24.996094 33 24.703125 C 33.285156 24.472656 33.285156 24.472656 33.675781 24.472656 Z M 33.675781 24.472656 "/>
<path style=" stroke:none;fill-rule:nonzero;fill:rgb(3.137255%,55.686277%,67.450982%);fill-opacity:1;" d="M 16.09375 24.605469 C 16.222656 24.605469 16.351562 24.605469 16.484375 24.605469 C 16.484375 24.90625 16.484375 25.207031 16.484375 25.515625 C 16.355469 25.558594 16.226562 25.601562 16.09375 25.644531 C 16.09375 25.300781 16.09375 24.957031 16.09375 24.605469 Z M 16.09375 24.605469 "/>
</g>
</svg>
