<?xml version="1.0" encoding="UTF-8"?>
<svg xmlns="http://www.w3.org/2000/svg" xmlns:xlink="http://www.w3.org/1999/xlink" width="56px" height="56px" viewBox="0 0 56 56" version="1.1">
<g id="surface1">
<path style=" stroke:none;fill-rule:nonzero;fill:rgb(100%,100%,100%);fill-opacity:1;" d="M 15.449219 0.00390625 L 40.550781 0.00390625 C 49.082031 0.00390625 55.996094 6.917969 55.996094 15.449219 L 55.996094 40.550781 C 55.996094 49.082031 49.082031 55.996094 40.550781 55.996094 L 15.449219 55.996094 C 6.917969 55.996094 0.00390625 49.082031 0.00390625 40.550781 L 0.00390625 15.449219 C 0.00390625 6.917969 6.917969 0.00390625 15.449219 0.00390625 Z M 15.449219 0.00390625 "/>
<path style=" stroke:none;fill-rule:nonzero;fill:rgb(45.09804%,0%,40.392157%);fill-opacity:1;" d="M 31.671875 17.027344 L 33.566406 17.027344 C 35.589844 17.027344 37.164062 17.863281 38.640625 19.351562 L 49.21875 29.953125 C 50.964844 31.699219 50.953125 34.550781 49.207031 36.296875 C 47.464844 38.042969 44.621094 38.058594 42.878906 36.3125 L 31.675781 25.09375 L 28.652344 22.039062 L 25.878906 17.027344 L 31.675781 17.027344 Z M 31.671875 17.027344 "/>
<path style=" stroke:none;fill-rule:nonzero;fill:rgb(59.215689%,77.64706%,49.019608%);fill-opacity:1;" d="M 24.113281 41.136719 L 16.097656 33.113281 L 24.113281 25.09375 L 27.136719 22.039062 L 29.90625 17.03125 L 22.21875 17.03125 C 20.195312 17.03125 18.621094 17.859375 17.144531 19.351562 L 6.78125 29.734375 C 6.710938 29.796875 6.644531 29.863281 6.578125 29.925781 C 5.921875 30.585938 5.507812 31.410156 5.34375 32.265625 C 5.34375 32.273438 5.34375 32.28125 5.339844 32.285156 C 5.328125 32.347656 5.316406 32.414062 5.308594 32.476562 C 5.308594 32.492188 5.304688 32.511719 5.304688 32.53125 C 5.296875 32.582031 5.289062 32.632812 5.285156 32.6875 C 5.285156 32.714844 5.28125 32.738281 5.28125 32.765625 C 5.277344 32.8125 5.273438 32.855469 5.269531 32.898438 C 5.269531 32.929688 5.269531 32.964844 5.269531 32.996094 C 5.269531 33.035156 5.269531 33.074219 5.269531 33.109375 C 5.269531 33.148438 5.269531 33.1875 5.269531 33.226562 C 5.269531 33.257812 5.269531 33.289062 5.269531 33.324219 C 5.269531 33.371094 5.277344 33.414062 5.28125 33.457031 C 5.28125 33.484375 5.28125 33.511719 5.285156 33.539062 C 5.292969 33.589844 5.296875 33.640625 5.304688 33.695312 C 5.304688 33.710938 5.304688 33.734375 5.308594 33.75 C 5.316406 33.8125 5.328125 33.875 5.339844 33.9375 C 5.339844 33.945312 5.339844 33.949219 5.339844 33.960938 C 5.503906 34.816406 5.914062 35.636719 6.578125 36.292969 C 6.640625 36.359375 6.707031 36.421875 6.777344 36.480469 L 17.144531 46.597656 C 18.617188 48.089844 20.191406 48.640625 22.214844 48.640625 L 29.902344 48.640625 L 27.132812 43.910156 L 24.109375 41.132812 Z M 24.113281 41.136719 "/>
<path style=" stroke:none;fill-rule:nonzero;fill:rgb(33.333334%,0%,26.666668%);fill-opacity:1;" d="M 49.214844 29.945312 C 47.472656 28.199219 44.632812 28.1875 42.886719 29.933594 L 31.683594 41.152344 L 28.984375 43.855469 L 37.15625 5.675781 C 37.351562 4.761719 36.585938 3.921875 35.566406 3.921875 L 29.535156 3.921875 C 28.757812 3.921875 28.089844 4.414062 27.945312 5.113281 L 19.183594 47.15625 C 18.992188 48.070312 19.761719 48.644531 20.773438 48.644531 L 33.578125 48.644531 C 35.601562 48.644531 37.171875 48.101562 38.648438 46.609375 L 49.226562 36.15625 C 50.972656 34.410156 50.960938 31.695312 49.214844 29.949219 Z M 49.214844 29.945312 "/>
<path style=" stroke:none;fill-rule:nonzero;fill:rgb(45.09804%,0%,40.392157%);fill-opacity:1;" d="M 25.449219 17.066406 L 27.941406 5.113281 C 28.089844 4.417969 28.757812 3.921875 29.53125 3.921875 L 35.5625 3.921875 C 36.386719 3.921875 36.769531 4.410156 36.777344 4.410156 Z M 25.449219 17.066406 "/>
</g>
</svg>
