<?xml version="1.0" encoding="UTF-8"?>
<svg xmlns="http://www.w3.org/2000/svg" xmlns:xlink="http://www.w3.org/1999/xlink" width="56px" height="56px" viewBox="0 0 56 56" version="1.1">
<g id="surface1">
<path style="fill-rule:nonzero;fill:rgb(100%,100%,100%);fill-opacity:1;stroke-width:1;stroke-linecap:butt;stroke-linejoin:round;stroke:rgb(100%,100%,100%);stroke-opacity:1;stroke-miterlimit:4;" d="M 8.447545 0.388393 L 39.753348 0.388393 C 44.169643 0.388393 47.752232 3.970982 47.752232 8.387277 L 47.752232 39.612723 C 47.752232 44.029018 44.169643 47.611607 39.753348 47.611607 L 8.447545 47.611607 C 4.027902 47.611607 0.448661 44.029018 0.448661 39.612723 L 0.448661 8.387277 C 0.448661 3.970982 4.027902 0.388393 8.447545 0.388393 Z M 8.447545 0.388393 " transform="matrix(1.166667,0,0,1.166667,0,0)"/>
<path style=" stroke:none;fill-rule:evenodd;fill:rgb(96.470588%,35.686275%,40.000001%);fill-opacity:1;" d="M 28.121094 50.230469 C 23.453125 50.230469 18.984375 48.9375 15.09375 46.53125 C 11.207031 44.125 8.289062 40.609375 6.445312 36.539062 C 4.695312 32.46875 4.207031 28.027344 5.179688 23.679688 C 6.054688 19.421875 8.289062 15.445312 11.597656 12.300781 C 14.902344 9.152344 19.082031 7.117188 23.550781 6.191406 C 28.121094 5.359375 32.785156 5.730469 37.0625 7.488281 C 41.339844 9.152344 45.035156 12.023438 47.5625 15.628906 C 50.089844 19.238281 51.546875 23.585938 51.546875 27.933594 C 51.546875 33.855469 49.117188 39.5 44.644531 43.664062 C 40.269531 47.917969 34.339844 50.230469 28.121094 50.230469 Z M 28.316406 41.351562 C 38.035156 41.351562 45.910156 33.671875 45.910156 24.328125 C 45.910156 14.890625 38.035156 7.304688 28.316406 7.304688 C 18.59375 7.210938 10.722656 14.890625 10.722656 24.328125 C 10.722656 33.671875 18.59375 41.351562 28.316406 41.351562 Z M 28.121094 37.464844 C 19.273438 37.464844 12.082031 30.804688 12.082031 22.660156 C 12.082031 14.519531 19.273438 7.949219 28.121094 7.949219 C 36.964844 7.949219 44.160156 14.519531 44.160156 22.660156 C 44.160156 30.804688 36.964844 37.464844 28.121094 37.464844 Z M 27.828125 31.359375 C 34.535156 31.359375 39.980469 26.453125 39.980469 20.347656 C 39.980469 14.242188 34.535156 9.339844 27.828125 9.339844 C 21.121094 9.339844 15.679688 14.242188 15.679688 20.347656 C 15.679688 26.453125 21.121094 31.359375 27.828125 31.359375 Z M 27.925781 29.230469 C 22.675781 29.230469 18.398438 24.972656 18.398438 19.609375 C 18.398438 14.335938 22.675781 9.984375 27.925781 9.984375 C 33.175781 9.984375 37.453125 14.242188 37.453125 19.609375 C 37.453125 24.972656 33.175781 29.230469 27.925781 29.230469 Z M 27.828125 20.8125 C 28.898438 20.8125 29.871094 20.535156 30.746094 19.976562 C 31.621094 19.421875 32.300781 18.683594 32.6875 17.757812 C 33.464844 15.90625 33.078125 13.78125 31.523438 12.390625 C 30.0625 11.003906 27.828125 10.542969 25.882812 11.28125 C 24.914062 11.652344 24.132812 12.300781 23.550781 13.132812 C 22.96875 13.964844 22.675781 14.890625 22.675781 15.816406 C 22.675781 17.109375 23.261719 18.40625 24.230469 19.238281 C 25.105469 20.347656 26.371094 20.8125 27.828125 20.8125 Z M 27.828125 20.8125 "/>
<path style=" stroke:none;fill-rule:evenodd;fill:rgb(96.470588%,35.686275%,40.000001%);fill-opacity:1;" d="M 28.121094 50.230469 C 23.453125 50.230469 18.984375 48.9375 15.09375 46.53125 C 11.207031 44.125 8.289062 40.609375 6.445312 36.539062 C 4.695312 32.46875 4.207031 28.027344 5.179688 23.679688 C 6.054688 19.421875 8.289062 15.445312 11.597656 12.300781 C 14.902344 9.152344 19.082031 7.117188 23.550781 6.191406 C 28.121094 5.359375 32.785156 5.730469 37.0625 7.488281 C 41.339844 9.152344 45.035156 12.023438 47.5625 15.628906 C 50.089844 19.238281 51.546875 23.585938 51.546875 27.933594 C 51.546875 33.855469 49.117188 39.5 44.644531 43.664062 C 40.269531 47.917969 34.339844 50.230469 28.121094 50.230469 Z M 28.316406 41.351562 C 38.035156 41.351562 45.910156 33.671875 45.910156 24.328125 C 45.910156 14.890625 38.035156 7.304688 28.316406 7.304688 C 18.59375 7.210938 10.722656 14.890625 10.722656 24.328125 C 10.722656 33.671875 18.59375 41.351562 28.316406 41.351562 Z M 28.121094 37.464844 C 19.273438 37.464844 12.082031 30.804688 12.082031 22.660156 C 12.082031 14.519531 19.273438 7.949219 28.121094 7.949219 C 36.964844 7.949219 44.160156 14.519531 44.160156 22.660156 C 44.160156 30.804688 36.964844 37.464844 28.121094 37.464844 Z M 27.828125 31.359375 C 34.535156 31.359375 39.980469 26.453125 39.980469 20.347656 C 39.980469 14.242188 34.535156 9.339844 27.828125 9.339844 C 21.121094 9.339844 15.679688 14.242188 15.679688 20.347656 C 15.679688 26.453125 21.121094 31.359375 27.828125 31.359375 Z M 27.828125 31.359375 "/>
<path style=" stroke:none;fill-rule:evenodd;fill:rgb(96.470588%,35.686275%,40.000001%);fill-opacity:1;" d="M 28.121094 50.230469 C 23.453125 50.230469 18.984375 48.9375 15.09375 46.53125 C 11.207031 44.125 8.289062 40.609375 6.445312 36.539062 C 4.695312 32.46875 4.207031 28.027344 5.179688 23.679688 C 6.054688 19.421875 8.289062 15.445312 11.597656 12.300781 C 14.902344 9.152344 19.082031 7.117188 23.550781 6.191406 C 28.121094 5.359375 32.785156 5.730469 37.0625 7.488281 C 41.339844 9.152344 45.035156 12.023438 47.5625 15.628906 C 50.089844 19.238281 51.546875 23.585938 51.546875 27.933594 C 51.546875 33.855469 49.117188 39.5 44.644531 43.664062 C 40.269531 47.917969 34.339844 50.230469 28.121094 50.230469 Z M 28.316406 41.351562 C 38.035156 41.351562 45.910156 33.671875 45.910156 24.328125 C 45.910156 14.890625 38.035156 7.304688 28.316406 7.304688 C 18.59375 7.210938 10.722656 14.890625 10.722656 24.328125 C 10.722656 33.671875 18.59375 41.351562 28.316406 41.351562 Z M 28.316406 41.351562 "/>
</g>
</svg>
