<svg version="1.2" xmlns="http://www.w3.org/2000/svg" viewBox="91.72 57.8 1213.57 1214.68"><rect id="backgroundrect" width="100%" height="100%" x="0" y="0" fill="none" stroke="none" style="" class=""/>
	<title>btgactual-svg</title>
	<style>
		.s0 { fill: #001e62 } 
	</style>
	
<g class="currentLayer" style=""><title>Layer 1</title><rect fill="#ffffff" stroke="#990000" style="color: rgb(34, 34, 34);" stroke-linejoin="round" stroke-dashoffset="" fill-rule="nonzero" id="svg_6" x="91.71948091027406" y="57.82010032286091" width="1213.5611332265698" height="1214.6456382607312" class="" rx="200" ry="200" opacity="1" stroke-opacity="1" stroke-width="0"/><path id="Layer" fill-rule="evenodd" class="s0" d="m1183.2213601201581,690.6926541506748 v118.63737233399254 c0,78.68114262731835 -41.90531188665543,109.46406227806888 -123.46766259302206,109.46406227806888 h-61.95241340024173 c-80.81292635071854,111.61886665362141 -210.40088784819994,178.84876317086056 -350.8555025025786,178.84876317086056 c-238.8790133628272,0 -433.16727756459335,-193.99395963902987 -433.16727756459335,-432.50002109304495 c0,-238.50606145401508 194.28826420176614,-432.50002109304495 433.16727756459335,-432.50002109304495 c170.49404090993943,0 325.31262238090636,100.16762054354221 395.1964435450903,255.3751014226264 h-19.110321069026178 c-68.5723285417998,-144.92598571573347 -215.08479007100047,-238.0751005789046 -376.0861224760642,-238.0751005789046 c-229.32385282831407,0 -415.86806535505,186.2366638870407 -415.86806535505,415.20002024932313 c0,228.96335636228244 186.5442125267359,415.20002024932313 415.86806535505,415.20002024932313 c143.70212019552034,0 275.538354759946,-73.32491460808777 351.480022798952,-193.37830124601484 l0.062452029637340874,0.06156583930150111 c9.117996327051705,-14.960498950264757 15.987719587159155,-17.607830040229302 31.10111075939554,-17.915659236736808 h26.479660566232347 c44.27848901287438,0 63.139001963351184,-14.221708878646744 63.139001963351184,-57.440928068300494 v-9.234875895225159 c-17.98618453555405,14.283274717948245 -43.279256538676925,18.839146826259324 -68.63478057143715,18.839146826259324 c-79.25162560978502,0 -112.85081755467418,-37.24733277740814 -112.85081755467418,-114.01993438637996 v-12.436299538903214 c0,-80.9590786814739 38.657806345513734,-116.359436279837 122.96804635592335,-116.359436279837 c82.49913115092673,0 122.53088214846194,34.045909133730085 122.53088214846194,112.23452504663643 zm-717.1991083552177,-199.16549014035593 l64.51294661537267,-10.158363484747674 v116.359436279837 c18.42334874301543,-14.221708878646744 45.589981635258525,-19.27010770136983 70.44588943092002,-19.27010770136983 c78.31484516522492,0 114.22476220669569,38.60178124204116 114.22476220669569,117.71388474447002 v21.60960959482687 c0,84.22206816445346 -38.657806345513734,118.26797729818352 -126.21555189706503,118.26797729818352 c-84.24778798077226,0 -122.96804635592335,-34.9693967232526 -122.96804635592335,-118.69893817329404 zm125.27877145250491,137.53808499955335 c-46.02714584271991,0 -61.70260528169235,15.637723182581269 -61.70260528169235,62.11993185521457 v26.16548170313795 c0,51.09964662024588 15.675459438972453,68.58434498187218 60.8282768667696,68.58434498187218 c45.090365398159804,0 60.76582483713224,-17.4846983616263 60.76582483713224,-68.09181826746017 v-19.331673540671332 c0,-51.9615683704669 -15.675459438972453,-69.44626673209319 -59.89149642220949,-69.44626673209319 zm234.00775505111463,8.74234918081315 v93.82633909548761 c0,38.663347081342664 11.553625482907982,47.34413042285432 47.02637831691735,47.34413042285432 h40.03175099753522 l-10.554393008710534,51.09964662024588 h-34.098808181987884 c-77.87768095776354,0 -106.41825850202812,-21.60960959482687 -106.41825850202812,-94.3188658098996 v-210.18577537532462 l64.01333037827396,-9.665836770335666 v70.36975432161572 h91.24241530015439 l-10.616845038347876,51.530607495356385 zm294.33641568078554,59.34946908664702 c0,-50.60711990583387 -9.680064593787769,-68.09181826746017 -58.954715977649386,-68.09181826746017 c-50.21143182842172,0 -58.954715977649386,17.915659236736808 -58.954715977649386,67.59929155304816 v7.818861591290634 c0,50.17615903072336 9.680064593787769,67.16833067793766 58.954715977649386,67.16833067793766 c43.778872775775646,0 58.954715977649386,-13.35978712842573 58.954715977649386,-56.57900631807947 z"/></g></svg>