<?xml version="1.0" encoding="UTF-8"?>
<svg xmlns="http://www.w3.org/2000/svg" xmlns:xlink="http://www.w3.org/1999/xlink" width="56px" height="56px" viewBox="0 0 56 56" version="1.1">
<g id="surface1">
<path style=" stroke:none;fill-rule:nonzero;fill:rgb(1.176471%,93.725491%,38.039216%);fill-opacity:1;" d="M 13.324219 0.00390625 L 42.671875 0.00390625 C 50.019531 0.00390625 55.972656 5.921875 55.972656 13.222656 L 55.972656 42.773438 C 55.972656 50.078125 50.019531 55.996094 42.671875 55.996094 L 13.324219 55.996094 C 5.976562 55.996094 0.0234375 50.078125 0.0234375 42.773438 L 0.0234375 13.222656 C 0.0234375 5.921875 5.976562 0.00390625 13.324219 0.00390625 Z M 13.324219 0.00390625 "/>
<path style=" stroke:none;fill-rule:nonzero;fill:rgb(1.568628%,9.803922%,17.254902%);fill-opacity:1;" d="M 12.554688 6.574219 C 11.757812 6.972656 11.339844 7.597656 11.191406 8.625 C 10.992188 10.078125 11.007812 35.675781 11.222656 36.4375 C 11.457031 37.28125 11.9375 37.808594 12.820312 38.207031 C 13.335938 38.4375 13.703125 38.488281 14.148438 38.402344 C 14.5 38.339844 17.175781 36.933594 20.117188 35.265625 C 23.042969 33.59375 25.570312 32.191406 25.722656 32.125 C 25.988281 32.023438 26.003906 32.371094 26.003906 36.289062 C 26.003906 41.496094 25.96875 41.363281 27.914062 42.484375 C 31.421875 44.484375 40.765625 49.742188 41.015625 49.824219 C 41.265625 49.921875 44.507812 48.253906 44.707031 47.90625 C 44.757812 47.839844 44.621094 47.675781 44.421875 47.542969 C 44.109375 47.34375 34.214844 41.757812 30.691406 39.792969 L 29.828125 39.296875 L 29.859375 34.519531 L 29.910156 29.726562 L 32.15625 28.4375 C 33.382812 27.726562 36.742188 25.828125 39.601562 24.222656 C 42.445312 22.605469 44.789062 21.234375 44.789062 21.183594 C 44.789062 21.019531 41.496094 19.167969 41.230469 19.167969 C 41.097656 19.167969 38.503906 20.589844 35.460938 22.308594 L 29.910156 25.449219 L 29.828125 20.324219 L 29.742188 15.199219 L 29.328125 14.804688 C 29.09375 14.589844 25.6875 12.574219 21.765625 10.34375 C 15.347656 6.707031 14.53125 6.277344 13.867188 6.277344 C 13.453125 6.277344 12.871094 6.410156 12.554688 6.574219 Z M 21.429688 14.425781 L 25.921875 16.984375 L 25.953125 22.339844 L 26.003906 27.679688 L 20.535156 30.769531 C 17.523438 32.488281 15.015625 33.875 14.964844 33.875 C 14.914062 33.875 14.863281 28.671875 14.863281 22.289062 L 14.863281 10.707031 L 15.914062 11.285156 C 16.476562 11.613281 18.972656 13.019531 21.429688 14.425781 Z M 21.429688 14.425781 "/>
</g>
</svg>
