<?xml version="1.0" encoding="UTF-8"?>
<svg xmlns="http://www.w3.org/2000/svg" xmlns:xlink="http://www.w3.org/1999/xlink" width="56px" height="56px" viewBox="0 0 56 56" version="1.1">
<g id="surface1">
<path style=" stroke:none;fill-rule:nonzero;fill:rgb(21.176471%,12.941177%,34.117648%);fill-opacity:1;" d="M 11.0625 0.0117188 L 45.011719 0.0117188 C 51.195312 0.0117188 56.210938 5.027344 56.210938 11.210938 L 56.210938 44.84375 C 56.210938 51.027344 51.195312 56.042969 45.011719 56.042969 L 11.0625 56.042969 C 4.875 56.042969 -0.136719 51.027344 -0.136719 44.84375 L -0.136719 11.210938 C -0.136719 5.027344 4.875 0.0117188 11.0625 0.0117188 Z M 11.0625 0.0117188 "/>
<path style=" stroke:none;fill-rule:nonzero;fill:rgb(100%,100%,100%);fill-opacity:1;" d="M 34.203125 17.101562 C 34.203125 17.359375 34.203125 20.777344 34.203125 21.035156 C 34.449219 21.035156 36.835938 21.035156 36.835938 21.035156 L 33.898438 32.519531 C 33.898438 32.519531 30.304688 17.316406 30.253906 17.101562 C 30.058594 17.101562 26.648438 17.101562 26.453125 17.101562 C 26.398438 17.308594 22.511719 32.523438 22.511719 32.523438 L 19.808594 21.035156 C 19.808594 21.035156 22.300781 21.035156 22.546875 21.035156 C 22.546875 20.777344 22.546875 17.359375 22.546875 17.101562 C 22.285156 17.101562 11.824219 17.101562 11.5625 17.101562 C 11.5625 17.359375 11.5625 20.777344 11.5625 21.035156 C 11.804688 21.035156 13.996094 21.035156 13.996094 21.035156 C 13.996094 21.035156 18.195312 38.695312 18.246094 38.910156 C 18.449219 38.910156 23.945312 38.910156 24.144531 38.910156 C 24.195312 38.699219 26.957031 27.660156 26.957031 27.660156 C 26.957031 27.660156 29.582031 38.695312 29.632812 38.910156 C 29.835938 38.910156 35.328125 38.910156 35.527344 38.910156 C 35.582031 38.699219 40 21.035156 40 21.035156 C 40 21.035156 42.171875 21.035156 42.414062 21.035156 C 42.414062 20.777344 42.414062 17.359375 42.414062 17.101562 C 42.15625 17.101562 34.464844 17.101562 34.203125 17.101562 "/>
</g>
</svg>
