<svg version="1.1" width="300" height="300" sodipodi:docname="W-Logo_Purple_vector.eps" xmlns:inkscape="http://www.inkscape.org/namespaces/inkscape" xmlns:sodipodi="http://sodipodi.sourceforge.net/DTD/sodipodi-0.dtd" xmlns="http://www.w3.org/2000/svg" xmlns:svg="http://www.w3.org/2000/svg"><rect id="backgroundrect" width="100%" height="100%" x="0" y="0" fill="none" stroke="none" style="" class=""/>
  <defs id="defs1"/>
  <sodipodi:namedview id="namedview1" pagecolor="#ffffff" bordercolor="#000000" borderopacity="0.25" inkscape:showpageshadow="2" inkscape:pageopacity="0.0" inkscape:pagecheckerboard="0" inkscape:deskcolor="#d1d1d1">
    <inkscape:page x="0" y="0" inkscape:label="1" id="page1" width="144" height="96.826668" margin="0" bleed="0"/>
  </sodipodi:namedview>
  
<g class="currentLayer" style=""><title>Layer 1</title><rect fill="#362157" style="color: rgb(54, 33, 87);" stroke-dashoffset="" fill-rule="nonzero" id="svg_1" x="-0.7419338226318359" y="0.06451702117919922" width="301.8709716796875" height="300.1612854003906" class="" fill-opacity="1" rx="60" ry="60"/><g id="g1" inkscape:groupmode="layer" inkscape:label="1" class="" fill="#ffffff" fill-opacity="1">
    <g id="group-R5" fill="#ffffff" fill-opacity="1">
      <path id="path2" d="m183.23867901186546,91.61304930916418 c0,1.3806205958791171 0,19.68824171352528 0,21.070631923311957 c1.310384843254988,0 14.089162333609869,0 14.089162333609869,0 L181.59694831651436,174.21927000997897 c0,0 -19.248515691583346,-81.45935001472503 -19.521703842156832,-82.60622070081479 c-1.0511239317303502,0 -19.323967656979832,0 -20.36009302358066,0 C141.42818910773747,92.73289316466575 120.60130400614614,174.22425710371846 120.60130400614614,174.22425710371846 l-14.48738954245704,-61.54057587124231 c0,0 13.354538735429076,0 14.669821069338605,0 c0,-1.3823902097866758 0,-19.690011327432842 0,-21.070631923311957 c-1.4068041905162172,0 -57.4409369302302,0 -58.848247704936,0 c0,1.3806205958791171 0,19.68824171352528 0,21.070631923311957 c1.3026896610640448,0 13.0394464304427,0 13.0394464304427,0 c0,0 22.502102389292894,94.60778726659673 22.77406616720274,95.75589989990159 c1.082651527818943,0 30.52024347958692,0 31.587437302527473,0 c0.28038133997233605,-1.1217196462435894 15.078608492409622,-60.25422743443861 15.078608492409622,-60.25422743443861 c0,0 14.061154808929226,59.116798442915645 14.331435074426578,60.25422743443861 c1.0820393414871252,0 30.5196312932551,0 31.586672069612707,0 c0.28405445796323975,-1.1292598102297065 23.961432167079032,-95.75589989990159 23.961432167079032,-95.75589989990159 c0,0 11.630315931865576,0 12.931211886977396,0 c0,-1.3823902097866758 0,-19.690011327432842 0,-21.070631923311957 c-1.389662973225332,0 -42.597149340513226,0 -43.987118406904486,0 " style="fill-rule: nonzero; stroke: none;" fill="#ffffff" fill-opacity="1"/>
    </g>
  </g></g></svg>