<?xml version="1.0" encoding="UTF-8"?>
<svg xmlns="http://www.w3.org/2000/svg" xmlns:xlink="http://www.w3.org/1999/xlink" width="56px" height="56px" viewBox="0 0 56 56" version="1.1">
<g id="surface1">
<path style=" stroke:none;fill-rule:nonzero;fill:rgb(100%,100%,100%);fill-opacity:1;" d="M 11.089844 0.554688 L 45.109375 0.554688 C 50.835938 0.554688 55.480469 5.199219 55.480469 10.925781 L 55.480469 45.230469 C 55.480469 50.957031 50.835938 55.601562 45.109375 55.601562 L 11.089844 55.601562 C 5.363281 55.601562 0.71875 50.957031 0.71875 45.230469 L 0.71875 10.925781 C 0.71875 5.199219 5.363281 0.554688 11.089844 0.554688 Z M 11.089844 0.554688 "/>
<path style=" stroke:none;fill-rule:nonzero;fill:rgb(0%,0%,0%);fill-opacity:1;" d="M 15.203125 28.28125 C 15.203125 30.453125 14.207031 31.53125 11.941406 31.53125 C 9.679688 31.53125 8.683594 30.453125 8.683594 28.28125 L 8.683594 23.886719 L 10.632812 23.886719 L 10.632812 28.394531 C 10.632812 29.359375 10.988281 29.855469 11.941406 29.855469 C 12.894531 29.855469 13.253906 29.359375 13.253906 28.394531 L 13.253906 23.886719 L 15.203125 23.886719 Z M 15.203125 28.28125 "/>
<path style=" stroke:none;fill-rule:nonzero;fill:rgb(0%,0%,0%);fill-opacity:1;" d="M 43.96875 25.933594 L 45.699219 25.933594 L 45.699219 26.886719 L 45.71875 26.886719 C 45.984375 26.195312 46.589844 25.828125 47.355469 25.828125 C 47.492188 25.828125 47.640625 25.839844 47.773438 25.871094 L 47.773438 27.496094 C 47.542969 27.433594 47.335938 27.390625 47.09375 27.390625 C 46.214844 27.390625 45.753906 28 45.753906 28.679688 L 45.753906 31.375 L 43.96875 31.375 Z M 43.96875 25.933594 "/>
<path style=" stroke:none;fill-rule:nonzero;fill:rgb(0%,0%,0%);fill-opacity:1;" d="M 37.628906 27.609375 C 37.660156 26.898438 37.992188 26.4375 38.476562 26.152344 C 38.957031 25.878906 39.585938 25.777344 40.207031 25.777344 C 41.496094 25.777344 42.742188 26.058594 42.742188 27.601562 L 42.742188 29.980469 C 42.742188 30.441406 42.742188 30.945312 42.953125 31.375 L 41.160156 31.375 C 41.097656 31.207031 41.074219 31.039062 41.054688 30.859375 C 40.59375 31.34375 39.910156 31.53125 39.261719 31.53125 C 38.222656 31.53125 37.40625 31.007812 37.40625 29.886719 C 37.40625 28.113281 39.335938 28.25 40.574219 28 C 40.875 27.933594 41.042969 27.832031 41.042969 27.496094 C 41.042969 27.085938 40.550781 26.929688 40.183594 26.929688 C 39.691406 26.929688 39.378906 27.148438 39.292969 27.609375 Z M 39.933594 30.429688 C 40.78125 30.429688 41.066406 29.949219 41.023438 28.828125 C 40.773438 28.984375 40.308594 29.015625 39.921875 29.121094 C 39.523438 29.214844 39.1875 29.382812 39.1875 29.8125 C 39.1875 30.25 39.535156 30.429688 39.933594 30.429688 "/>
<path style=" stroke:none;fill-rule:nonzero;fill:rgb(0%,0%,0%);fill-opacity:1;" d="M 34.890625 26.5625 C 34.789062 25.808594 34.199219 25.410156 33.382812 25.410156 C 32.125 25.410156 31.640625 26.519531 31.640625 27.632812 C 31.640625 28.742188 32.125 29.851562 33.382812 29.851562 C 34.292969 29.851562 34.820312 29.328125 34.890625 28.46875 L 36.84375 28.46875 C 36.738281 30.398438 35.320312 31.53125 33.425781 31.53125 C 31.160156 31.53125 29.691406 29.800781 29.691406 27.632812 C 29.691406 25.460938 31.160156 23.730469 33.425781 23.730469 C 35.039062 23.730469 36.789062 24.757812 36.84375 26.5625 Z M 34.890625 26.5625 "/>
<path style=" stroke:none;fill-rule:nonzero;fill:rgb(0%,0%,0%);fill-opacity:1;" d="M 24.492188 28.859375 C 24.535156 29.738281 25.078125 30.023438 25.90625 30.023438 C 26.496094 30.023438 27.101562 29.8125 27.101562 29.257812 C 27.101562 28.59375 26.035156 28.46875 24.953125 28.164062 C 23.882812 27.863281 22.761719 27.378906 22.761719 26.007812 C 22.761719 24.371094 24.410156 23.730469 25.8125 23.730469 C 27.300781 23.730469 28.800781 24.453125 28.8125 26.144531 L 26.863281 26.144531 C 26.894531 25.460938 26.253906 25.242188 25.65625 25.242188 C 25.238281 25.242188 24.710938 25.386719 24.710938 25.878906 C 24.710938 26.457031 25.792969 26.5625 26.882812 26.867188 C 27.960938 27.167969 29.054688 27.671875 29.054688 29.027344 C 29.054688 30.921875 27.4375 31.53125 25.792969 31.53125 C 24.074219 31.53125 22.554688 30.777344 22.542969 28.859375 Z M 24.492188 28.859375 "/>
<path style=" stroke:none;fill-rule:nonzero;fill:rgb(0%,0%,0%);fill-opacity:1;" d="M 18.515625 26.980469 L 21.597656 26.980469 L 21.597656 28.492188 L 18.515625 28.492188 L 18.515625 31.375 L 16.566406 31.375 L 16.566406 23.886719 L 22.082031 23.886719 L 22.082031 25.449219 L 18.515625 25.449219 Z M 18.515625 26.980469 "/>
</g>
</svg>
