<svg version="1.1" xmlns="http://www.w3.org/2000/svg" viewBox="42.08 28.73 430.03 430.02"><rect id="backgroundrect" width="100%" height="100%" x="0" y="0" fill="none" stroke="none" style="" class=""/>











<g class="currentLayer" style=""><title>Layer 1</title><rect fill="#ffffff" style="color: rgb(0, 24, 86);" stroke-dashoffset="" fill-rule="nonzero" id="svg_12" x="42.11119052000299" y="28.740780558927668" width="430.00003603200776" height="430.00003603200776" class="" rx="80" ry="80"/><path d="M161.66668701171875,194.66665649414062 C161.66668701171875,198.9566564941406 161.66668701171875,203.24665649414067 161.66668701171875,207.66665649414062 C159.99606201171878,207.94509399414062 159.99606201171878,207.94509399414062 158.29168701171875,208.22915649414062 C157.0954370117188,208.70353149414063 155.8991870117187,209.17790649414064 154.66668701171875,209.66665649414062 C154.00668701171878,211.97665649414057 153.3466870117187,214.28665649414063 152.66668701171875,216.66665649414062 C161.57668701171872,216.66665649414062 170.4866870117188,216.66665649414062 179.66668701171875,216.66665649414062 C179.72276123171878,220.0098400841406 179.72276123171878,220.0098400841406 179.77996826171875,223.42056274414062 C179.82628693171876,225.5984737241406 179.87748259171872,227.77621983414065 179.9291381817187,229.95401001414052 C179.96222610171878,231.45813836414072 179.99030746171877,232.96238607414057 180.01312256171877,234.46670532414055 C180.0469686717188,236.6393379341407 180.09929321171876,238.8108926241407 180.15496826171875,240.98306274414062 C180.18115234171876,242.28703003414057 180.20733642171876,243.59099731414062 180.23431396171873,244.93447876414075 C180.73023214171872,249.21516826414063 181.66678378171878,251.86769563414055 183.66668701171875,255.66665649414062 C187.6898356717188,258.3487556041407 190.9388862017188,258.35509064414055 195.66668701171875,257.6666564941406 C199.16558705171872,255.55273772414057 200.37247387171874,254.54929590414054 201.66668701171875,250.66665649414062 C201.8199106017188,248.0833542041405 201.92375590171878,245.5217341041407 201.98309326171875,242.93618774414062 C202.01426491171878,241.8105567141406 202.01426491171878,241.8105567141406 202.0460662817187,240.66218566414068 C202.11138627171874,238.26793465414062 202.17036493171872,235.87357510414063 202.22918701171875,233.47915649414062 C202.27238894171876,231.8547963641406 202.31600377171878,230.23044716414051 202.3600463917187,228.60610961414068 C202.4678259117187,224.62640147414072 202.56702916171878,220.64660948414064 202.66668701171875,216.66665649414062 C207.6166870117188,216.66665649414062 212.56668701171873,216.66665649414062 217.66668701171875,216.66665649414062 C217.66668701171875,217.98665649414068 217.66668701171875,219.3066564941406 217.66668701171875,220.66665649414062 C218.2609448217188,220.30571899414065 218.85520263171873,219.94478149414067 219.46746826171875,219.57290649414062 C226.49344521171872,215.63923355414067 232.76800305171878,214.08463397414062 240.70574951171875,216.21353149414062 C244.69182104171875,217.79391227414067 248.18513826171875,220.20409762414067 251.66668701171875,222.66665649414062 C252.5329370117188,221.88290649414057 253.39918701171882,221.09915649414063 254.29168701171875,220.29165649414062 C259.9583683517187,215.66124326414058 265.53418421171875,215.23191732414057 272.68621826171875,215.33853149414062 C278.25037924171875,215.95109967414066 282.1096255017187,218.6286154841406 286.66668701171875,221.66665649414062 C286.66668701171875,214.0766564941406 286.66668701171875,206.48665649414068 286.66668701171875,198.66665649414062 C291.6166870117188,198.66665649414062 296.5666870117187,198.66665649414062 301.66668701171875,198.66665649414062 C301.66668701171875,204.9366564941406 301.66668701171875,211.2066564941406 301.66668701171875,217.66665649414062 C303.64668701171877,217.00665649414066 305.6266870117188,216.34665649414057 307.66668701171875,215.66665649414062 C315.9869341317187,214.75860922414063 323.3264834917188,215.49640650414062 330.66668701171875,219.66665649414062 C333.29168701171875,221.91665649414062 333.29168701171875,221.91665649414062 334.66668701171875,223.66665649414062 C334.9966870117188,221.35665649414068 335.3266870117187,219.04665649414062 335.66668701171875,216.66665649414062 C340.6166870117188,216.66665649414062 345.5666870117187,216.66665649414062 350.66668701171875,216.66665649414062 C350.9966870117188,217.98665649414068 351.3266870117187,219.3066564941406 351.66668701171875,220.66665649414062 C352.24934326171876,220.30571899414065 352.8319995117188,219.94478149414067 353.43231201171875,219.57290649414062 C360.2252229017188,215.72786259414067 365.90467462171875,214.41736162414065 373.66668701171875,215.66665649414062 C381.0329492317187,217.92841024414065 386.0531719617188,221.85702912414058 389.66668701171875,228.66665649414062 C393.5915460217187,237.7848650541407 393.8908387617188,246.89575940414056 390.69403076171875,256.2799377441406 C387.66862789171876,263.3085352841406 383.4721124817188,267.71088308414073 376.44012451171875,270.8150939941406 C366.4145416617188,273.89337154414056 361.1739728917188,271.4202994341406 351.66668701171875,266.6666564941406 C351.3366870117187,276.5666564941407 351.0066870117188,286.4666564941406 350.66668701171875,296.6666564941406 C345.7166870117187,296.6666564941406 340.7666870117188,296.6666564941406 335.66668701171875,296.6666564941406 C335.3366870117187,285.7766564941405 335.0066870117188,274.88665649414065 334.66668701171875,263.6666564941406 C332.68668701171873,265.3166564941407 330.7066870117187,266.9666564941406 328.66668701171875,268.6666564941406 C321.1417122517188,272.49515242414054 312.89525690171877,273.0775404341407 304.71356201171875,270.8697814941406 C300.6572855117188,269.32792200414065 297.5985253017187,267.92529204414063 294.66668701171875,264.6666564941406 C292.6676953817188,265.65947416414065 290.6765820617188,266.66144339414063 288.70184326171875,267.7018127441406 C288.05086670171875,268.0408361841405 287.39989013171873,268.37985962414064 286.72918701171875,268.7291564941406 C286.0807885717188,269.0707580541407 285.43239013171876,269.41235962414066 284.76434326171875,269.7643127441406 C277.6852869417187,272.80949339414065 268.04084291171876,273.0093933541407 260.75262451171875,270.7721252441406 C258.65114354171874,269.82812665414053 256.64767626171874,268.84057604414056 254.66668701171875,267.6666564941406 C254.66668701171875,268.65665649414063 254.66668701171875,269.64665649414064 254.66668701171875,270.6666564941406 C250.04668701171875,270.6666564941406 245.42668701171874,270.6666564941406 240.66668701171875,270.6666564941406 C240.6293042017187,268.43786743414057 240.59192139171876,266.2090783741405 240.55340576171875,263.9127502441406 C240.50708709171874,261.73483926414065 240.45589143171878,259.5570931541406 240.4042358417188,257.3793029741407 C240.37114792171872,255.87517462414053 240.34306656171873,254.37092691414068 240.32025146171873,252.8666076641407 C240.2864053517187,250.69397505414054 240.23408081171874,248.52242036414054 240.17840576171875,246.35025024414062 C240.15222168171874,245.04628295414068 240.12603760171874,243.74231567414063 240.09906006171877,242.39883422414073 C239.60220777171878,238.11008159414064 238.68379914171874,235.46719633414068 236.66668701171875,231.66665649414062 C232.63752337171877,229.10968726414058 230.64136291171872,228.5042105141406 225.91668701171875,229.29165649414062 C222.1574830217187,230.88208895414073 220.4679054217188,232.06421967414053 218.66668701171875,235.66665649414062 C218.51007818171877,238.29045962414057 218.4083962117188,240.89190501414055 218.35028076171875,243.51821899414062 C218.31910911171872,244.67926651414064 218.31910911171872,244.67926651414064 218.2873077417188,245.8637695341406 C218.2218525317187,248.3396404141406 218.16294614171875,250.81561851414062 218.10418701171875,253.29165649414062 C218.0609979417187,254.96875097414068 218.0173835317188,256.6458345641406 217.9733276317188,258.3229064941406 C217.86617530171873,262.43737957414055 217.76489656171873,266.55196063414064 217.66668701171875,270.6666564941406 C212.7166870117187,270.6666564941406 207.76668701171877,270.6666564941406 202.66668701171875,270.6666564941406 C202.3366870117187,269.3466564941407 202.00668701171878,268.0266564941405 201.66668701171875,266.6666564941406 C200.73856201171873,267.3060314941406 199.8104370117187,267.94540649414057 198.85418701171875,268.6041564941406 C193.2549202817188,272.2272114341406 188.1728357417187,272.2842187441406 181.66668701171875,271.6666564941406 C175.2941143417188,269.9562267141407 171.28144553171876,267.1435633441406 167.66668701171875,261.6666564941406 C165.9429218617188,257.36063536414053 165.42733978171873,253.79811613414063 165.47137451171875,249.17446899414062 C165.47781982171875,247.9756408641406 165.48426513171876,246.77681274414067 165.49090576171875,245.54165649414062 C165.5076635717187,244.30415649414067 165.52442138171875,243.06665649414072 165.54168701171875,241.79165649414062 C165.55071045171871,240.5309533741406 165.5597338917188,239.2702502441407 165.56903076171875,237.97134399414062 C165.5925280717188,234.86969968414064 165.62839692171872,231.7681534641406 165.66668701171875,228.66665649414062 C161.3766870117188,228.66665649414062 157.0866870117187,228.66665649414062 152.66668701171875,228.66665649414062 C152.66668701171875,242.52665649414052 152.66668701171875,256.38665649414065 152.66668701171875,270.6666564941406 C147.7166870117187,270.6666564941406 142.76668701171877,270.6666564941406 137.66668701171875,270.6666564941406 C137.66668701171875,256.8066564941407 137.66668701171875,242.9466564941406 137.66668701171875,228.66665649414062 C135.68668701171873,228.66665649414062 133.7066870117187,228.66665649414062 131.66668701171875,228.66665649414062 C131.66668701171875,224.7066564941406 131.66668701171875,220.74665649414067 131.66668701171875,216.66665649414062 C133.64668701171877,216.66665649414062 135.6266870117188,216.66665649414062 137.66668701171875,216.66665649414062 C137.5738745117187,214.90321899414062 137.5738745117187,214.90321899414062 137.47918701171875,213.10415649414062 C137.51071603171874,207.15568169414064 139.2300577217187,203.1359364441406 143.41668701171875,198.85415649414062 C149.3749248817187,194.84380408414063 154.71368137171874,194.42269138414065 161.66668701171875,194.66665649414062 zM305.66668701171875,230.66665649414062 C305.08918701171876,231.14103149414063 304.5116870117188,231.61540649414064 303.91668701171875,232.10415649414062 C302.3182910717187,233.8797185641406 302.3182910717187,233.8797185641406 301.66668701171875,237.66665649414062 C309.5866870117187,237.66665649414062 317.5066870117188,237.66665649414062 325.66668701171875,237.66665649414062 C324.2288223817187,232.08666642414073 324.2288223817187,232.08666642414073 322.10418701171875,229.85415649414062 C316.4314047717187,227.09049335414056 310.7166996417187,226.50782256414072 305.66668701171875,230.66665649414062 zM262.66668701171875,232.66665649414062 C259.11938366171876,237.63288118414062 258.8264096617188,242.7660421941407 259.66668701171875,248.66665649414062 C260.9617297217187,252.39860753414064 262.90426547171876,255.0101268341407 265.91668701171875,257.6041564941406 C270.62776780171873,259.42434680414067 274.7656520617188,259.4875579541406 279.41668701171875,257.4791564941406 C282.9220529617187,254.65538947414052 285.2376540617188,251.95375533414062 286.66668701171875,247.66665649414062 C287.1132361017187,240.85678280414072 286.2736042417188,236.68090454414073 281.66668701171875,231.35415649414062 C278.3221308117188,228.53218719414053 275.0220834917187,228.31829056414063 270.72918701171875,228.38931274414062 C267.2416462817188,228.85828129414062 265.2625721117188,230.37261850414052 262.66668701171875,232.66665649414062 zM353.66668701171875,232.66665649414062 C350.11938366171876,237.63288118414062 349.8264096617188,242.7660421941407 350.66668701171875,248.66665649414062 C351.9617297217187,252.39860753414064 353.90426547171876,255.0101268341407 356.91668701171875,257.6041564941406 C360.5679234817187,259.01486149414063 363.84094154171873,259.34928951414054 367.66668701171875,258.6666564941406 C372.76878623171876,255.97120785414063 375.8404973817187,253.14522539414065 377.66668701171875,247.66665649414062 C378.1132361017187,240.85678280414072 377.2736042417188,236.68090454414073 372.66668701171875,231.35415649414062 C369.3221308117188,228.53218719414053 366.0220834917187,228.31829056414063 361.72918701171875,228.38931274414062 C358.2416462817188,228.85828129414062 356.2625721117188,230.37261850414052 353.66668701171875,232.66665649414062 zM301.66668701171875,248.66665649414062 C303.4382506317188,254.80458720414072 303.4382506317188,254.80458720414072 307.66668701171875,258.6666564941406 C311.97986359171875,259.84591451414053 315.4248550017187,260.1686736841407 319.60418701171875,258.4791564941406 C322.0219172417187,256.5839461741407 322.0219172417187,256.5839461741407 323.66668701171875,252.66665649414062 C327.6266870117188,252.66665649414062 331.5866870117187,252.66665649414062 335.66668701171875,252.66665649414062 C335.66668701171875,251.3466564941407 335.66668701171875,250.02665649414052 335.66668701171875,248.66665649414062 C324.4466870117187,248.66665649414062 313.2266870117187,248.66665649414062 301.66668701171875,248.66665649414062 z" fill="#026AA4" id="svg_1" class=""/><path d="M379.04168701171875,217.66665649414062 C385.59873514171875,221.42406609414058 389.1278067317187,226.45574987414057 391.54168701171875,233.54165649414062 C393.9908676717188,243.0759669041406 393.1184822817188,252.1617881741406 388.48309326171875,260.8971252441406 C384.7610317117187,266.51712186414056 380.0929899717187,269.6935099541406 373.66668701171875,271.6666564941406 C364.3235034317188,273.17044065414075 360.69388384171873,271.1802549041406 351.66668701171875,266.6666564941406 C351.3366870117188,276.5666564941407 351.0066870117188,286.4666564941406 350.66668701171875,296.6666564941406 C345.7166870117187,296.6666564941406 340.7666870117188,296.6666564941406 335.66668701171875,296.6666564941406 C335.4992871617187,291.92022689414057 335.3364670217188,287.17404766414074 335.18450928171876,282.42715454414065 C335.13172196171877,280.8183448441407 335.07645789171875,279.2096141541406 335.0184936517187,277.6009826641407 C334.7095556617187,268.98026962414065 334.6223916717188,260.57675972414063 335.4242553717188,251.97451782414055 C335.9149297617188,245.27950546414058 335.76937968171876,238.56329970414072 335.72918701171875,231.85415649414062 C335.7241552517187,230.37173615414054 335.7195953517187,228.8893141341407 335.7155151317188,227.40689087414057 C335.7055202817187,223.8267354741406 335.6859237117187,220.2468209241406 335.66668701171875,216.66665649414062 C340.6166870117188,216.66665649414062 345.5666870117187,216.66665649414062 350.66668701171875,216.66665649414062 C350.9966870117187,217.98665649414068 351.3266870117187,219.3066564941406 351.66668701171875,220.66665649414062 C352.24934326171876,220.30571899414065 352.8319995117188,219.94478149414067 353.43231201171875,219.57290649414062 C361.93418827171877,214.7605237041406 369.9298714717188,213.64432350414063 379.04168701171875,217.66665649414062 zM353.66668701171875,232.66665649414062 C350.11938366171876,237.63288118414062 349.8264096617188,242.7660421941407 350.66668701171875,248.66665649414062 C351.9617297217187,252.39860753414064 353.90426547171876,255.0101268341407 356.91668701171875,257.6041564941406 C360.5679234817187,259.01486149414063 363.84094154171873,259.34928951414054 367.66668701171875,258.6666564941406 C372.76878623171876,255.97120785414063 375.8404973817187,253.14522539414065 377.66668701171875,247.66665649414062 C378.1132361017187,240.85678280414072 377.2736042417188,236.68090454414073 372.66668701171875,231.35415649414062 C369.3221308117188,228.53218719414053 366.0220834917187,228.31829056414063 361.72918701171875,228.38931274414062 C358.2416462817188,228.85828129414062 356.2625721117188,230.37261850414052 353.66668701171875,232.66665649414062 z" fill="#0269A5" id="svg_2" class=""/><path d="M332.27117919921875,220.73648071289062 C335.0935878392188,223.01253623289062 336.48883486921875,224.68214707289053 337.14398192921874,228.30874633289068 C337.25735346921874,231.4133430728907 337.18962603921875,234.4375553228906 337.0416870092188,237.54165649289052 C336.8560620092187,243.04853149289056 336.8560620092187,243.04853149289056 336.6666870092188,248.66665649289052 C325.1166870092187,248.66665649289052 313.56668700921875,248.66665649289052 301.6666870092188,248.66665649289052 C304.0041171692187,253.9370024128907 304.0041171692187,253.9370024128907 307.6666870092188,257.6666564928905 C311.8883962792188,258.91577646289056 315.54170600921873,259.1453718128905 319.6041870092188,257.4166564928905 C321.87483120921877,255.6529715828906 321.87483120921877,255.6529715828906 323.6666870092188,252.66665649289052 C326.4869995092188,252.37368774289052 326.4869995092188,252.37368774289052 329.7916870092188,252.47915649289052 C331.43524169921875,252.5197619628907 331.43524169921875,252.5197619628907 333.1119995092188,252.56118774289052 C334.37656981921873,252.61339477289062 334.37656981921873,252.61339477289062 335.6666870092188,252.66665649289052 C336.14621230921875,257.46190950289065 336.21150113921874,260.7041515328906 333.7916870092188,264.9791564928905 C328.45283121921875,270.33292529289065 321.50981098921875,271.9068761628905 314.1666870092188,272.1666564928905 C306.1317995392187,271.9013536028906 298.39109394921877,269.5818770028907 292.6666870092188,263.6666564928905 C292.6666870092188,262.67665649289074 292.6666870092188,261.6866564928905 292.6666870092188,260.6666564928905 C292.0066870092187,260.6666564928905 291.3466870092187,260.6666564928905 290.6666870092188,260.6666564928905 C286.93858128921875,251.96774314289064 286.0428113392188,242.0486625028907 288.3932495092188,232.81118774289052 C290.30704170921877,228.16674081289057 292.9046333592187,225.03270449289062 296.6666870092188,221.66665649289064 C297.32668700921874,220.67665649289063 297.9866870092187,219.68665649289062 298.6666870092188,218.66665649289064 C299.32668700921874,218.66665649289064 299.9866870092187,218.66665649289064 300.6666870092188,218.66665649289064 C300.9966870092187,218.00665649289067 301.32668700921874,217.3466564928906 301.6666870092188,216.66665649289064 C312.3161381592188,214.2534036728906 323.0452525292187,214.58492705289063 332.27117919921875,220.73648071289062 zM305.6666870092188,230.66665649289052 C305.0891870092188,231.14103149289053 304.5116870092188,231.61540649289054 303.9166870092188,232.10415649289052 C302.31829107921874,233.87971856289073 302.31829107921874,233.87971856289073 301.6666870092188,237.66665649289052 C309.58668700921874,237.66665649289052 317.5066870092187,237.66665649289052 325.6666870092188,237.66665649289052 C324.22882237921874,232.08666642289063 324.22882237921874,232.08666642289063 322.1041870092188,229.85415649289052 C316.4314047692187,227.0904933528907 310.71669964921875,226.50782256289062 305.6666870092188,230.66665649289052 z" fill="#0292A0" id="svg_3" class=""/><path d="M161.66668701171875,194.66665649414062 C161.66668701171875,198.9566564941406 161.66668701171875,203.24665649414067 161.66668701171875,207.66665649414062 C159.99606201171878,207.94509399414062 159.99606201171878,207.94509399414062 158.29168701171875,208.22915649414062 C157.0954370117188,208.70353149414063 155.8991870117187,209.17790649414064 154.66668701171875,209.66665649414062 C153.12582379171874,213.1806631741406 153.12582379171874,213.1806631741406 152.66668701171875,216.66665649414062 C156.9566870117187,216.66665649414062 161.2466870117188,216.66665649414062 165.66668701171875,216.66665649414062 C165.66668701171875,220.62665649414066 165.66668701171875,224.5866564941407 165.66668701171875,228.66665649414062 C161.3766870117188,228.66665649414062 157.0866870117187,228.66665649414062 152.66668701171875,228.66665649414062 C152.66668701171875,242.52665649414052 152.66668701171875,256.38665649414065 152.66668701171875,270.6666564941406 C147.7166870117187,270.6666564941406 142.76668701171877,270.6666564941406 137.66668701171875,270.6666564941406 C137.66668701171875,256.8066564941407 137.66668701171875,242.9466564941406 137.66668701171875,228.66665649414062 C135.68668701171873,228.66665649414062 133.7066870117187,228.66665649414062 131.66668701171875,228.66665649414062 C131.66668701171875,224.7066564941406 131.66668701171875,220.74665649414067 131.66668701171875,216.66665649414062 C133.64668701171877,216.66665649414062 135.6266870117188,216.66665649414062 137.66668701171875,216.66665649414062 C137.5738745117187,214.90321899414062 137.5738745117187,214.90321899414062 137.47918701171875,213.10415649414062 C137.51071603171874,207.15568169414064 139.2300577217187,203.1359364441406 143.41668701171875,198.85415649414062 C149.3749248817187,194.84380408414063 154.71368137171874,194.42269138414065 161.66668701171875,194.66665649414062 z" fill="#0269A6" id="svg_4" class=""/><path d="M165.66668701171875,216.66665649414062 C170.28668701171875,216.66665649414062 174.90668701171876,216.66665649414062 179.66668701171875,216.66665649414062 C179.7040698217188,218.89544555414068 179.74145263171874,221.12423461414062 179.77996826171875,223.42056274414062 C179.82628693171876,225.5984737241406 179.87748259171872,227.77621983414065 179.9291381817187,229.95401001414052 C179.96222610171878,231.45813836414072 179.99030746171877,232.96238607414057 180.01312256171877,234.46670532414055 C180.0469686717188,236.6393379341407 180.09929321171876,238.8108926241407 180.15496826171875,240.98306274414062 C180.18115234171876,242.28703003414057 180.20733642171876,243.59099731414062 180.23431396171873,244.93447876414052 C180.73023214171872,249.21516826414063 181.66678378171878,251.86769563414055 183.66668701171875,255.66665649414062 C187.68455431171878,258.3452346941406 190.94356676171878,258.36391853414057 195.66668701171875,257.6666564941406 C198.61569225171877,255.94288844414064 198.61569225171877,255.94288844414064 200.66668701171875,253.66665649414062 C201.32668701171872,253.00665649414054 201.9866870117187,252.3466564941407 202.66668701171875,251.66665649414062 C202.80194840171873,253.91500145414057 202.8987950517187,256.1656816341406 202.97918701171875,258.4166564941406 C203.03719482171869,259.66962524414066 203.09520264171874,260.9225939941407 203.15496826171875,262.2135314941406 C202.66668701171875,265.6666564941406 202.66668701171875,265.6666564941406 200.45965576171875,267.9947814941406 C194.16124443171873,271.76501932414067 188.93016093171877,272.4626536341407 181.66668701171875,271.6666564941406 C175.2926439617188,269.9407617641407 171.28654502171878,267.1512898441406 167.66668701171875,261.6666564941406 C165.48906837171876,256.54682466414056 165.4028309617188,252.00841087414074 165.47137451171875,246.54946899414062 C165.4742044117188,245.69231292414065 165.47703430171873,244.83515686414057 165.4799499517187,243.9520263641407 C165.49108702171873,241.2317571741405 165.51617941171878,238.51182508414058 165.54168701171875,235.79165649414062 C165.5517251917188,233.94009877414055 165.5608495717188,232.08853585414067 165.56903076171875,230.23696899414062 C165.5910051317187,225.7134028941407 165.62549001171874,221.19008672414066 165.66668701171875,216.66665649414062 z" fill="#0292A0" id="svg_5" class=""/><path d="M245.66668701171875,218.66665649414062 C248.60418701171875,220.85415649414062 248.60418701171875,220.85415649414062 250.66668701171875,222.66665649414062 C250.05391089171871,225.62840772414052 249.41296179171877,227.0472443241406 247.66668701171875,229.66665649414062 C245.15923412171878,240.25367980414057 244.7163075017188,250.35990501414062 248.66668701171875,260.6666564941406 C249.65668701171876,260.99665649414055 250.64668701171877,261.3266564941407 251.66668701171875,261.6666564941406 C253.35418701171875,262.8541564941406 253.35418701171875,262.8541564941406 254.66668701171875,264.6666564941406 C254.66668701171875,266.64665649414064 254.66668701171875,268.62665649414066 254.66668701171875,270.6666564941406 C250.04668701171875,270.6666564941406 245.42668701171874,270.6666564941406 240.66668701171875,270.6666564941406 C240.61061279171872,267.32347290414054 240.61061279171872,267.32347290414054 240.55340576171875,263.9127502441406 C240.50708709171874,261.73483926414065 240.45589143171878,259.5570931541406 240.4042358417188,257.3793029741407 C240.37114792171872,255.87517462414053 240.34306656171873,254.37092691414068 240.32025146171873,252.8666076641407 C240.2864053517187,250.69397505414054 240.23408081171874,248.52242036414054 240.17840576171875,246.35025024414062 C240.15222168171874,245.04628295414068 240.12603760171874,243.74231567414063 240.09906006171877,242.39883422414073 C239.60220777171878,238.11008159414064 238.68379914171874,235.46719633414068 236.66668701171875,231.66665649414062 C232.63752337171877,229.10968726414058 230.64136291171872,228.5042105141406 225.91668701171875,229.29165649414062 C222.9634111717187,230.54111935414062 221.61225751171878,231.23469336414064 219.66668701171875,233.66665649414062 C218.67285587171875,234.67278752414063 217.67357856171873,235.67359587414057 216.66668701171875,236.66665649414062 C216.5584492817187,234.4177169541406 216.48099056171873,232.16728074414073 216.41668701171875,229.91665649414062 C216.37028076171873,228.6636877441406 216.3238745117187,227.41071899414055 216.27606201171875,226.11978149414062 C216.66668701171875,222.66665649414062 216.66668701171875,222.66665649414062 218.49090576171875,220.32290649414062 C226.6650090317188,214.10060885414066 236.76187712171873,213.6799629541406 245.66668701171875,218.66665649414062 z" fill="#0491A0" id="svg_6" class=""/><path d="M288.66668701171875,224.66665649414062 C289.9866870117187,224.66665649414062 291.30668701171874,224.66665649414062 292.66668701171875,224.66665649414062 C290.8710958317188,231.33599517414063 290.8710958317188,231.33599517414063 289.60418701171875,233.38540649414062 C288.1904579217187,236.8254806241407 288.4577432317187,240.26187340414072 288.54168701171875,243.91665649414062 C288.5552221717187,245.03427368414054 288.5552221717187,245.03427368414054 288.56903076171875,246.17446899414062 C288.5925034317188,248.0053370841406 288.62837176171877,249.83603887414074 288.66668701171875,251.66665649414062 C288.3366870117187,250.67665649414062 288.0066870117188,249.6866564941406 287.66668701171875,248.66665649414062 C287.0066870117188,248.3366564941407 286.3466870117188,248.00665649414054 285.66668701171875,247.66665649414062 C285.6121886317187,245.9378466741407 285.5736701317187,244.20852937414065 285.54168701171875,242.47915649414062 C285.5184838817188,241.51622680414062 285.49528076171873,240.5532971141406 285.47137451171875,239.56118774414062 C285.67716055171877,236.51143864414053 286.45775314171874,234.45086783414058 287.66668701171875,231.66665649414062 C288.0479944117187,229.34068138414068 288.3912895517187,227.0075349141407 288.66668701171875,224.66665649414062 z" fill="#057BA0" id="svg_7" class=""/><path d="M335.66668701171875,216.66665649414062 C340.6166870117188,216.66665649414062 345.5666870117187,216.66665649414062 350.66668701171875,216.66665649414062 C350.3366870117187,217.98665649414068 350.0066870117188,219.3066564941406 349.66668701171875,220.66665649414062 C349.66668701171875,219.67665649414062 349.66668701171875,218.6866564941406 349.66668701171875,217.66665649414062 C346.6966870117187,217.66665649414062 343.7266870117187,217.66665649414062 340.66668701171875,217.66665649414062 C340.66668701171875,218.65665649414063 340.66668701171875,219.64665649414064 340.66668701171875,220.66665649414062 C338.16668701171875,222.35415649414062 338.16668701171875,222.35415649414062 335.66668701171875,223.66665649414062 C335.66668701171875,221.35665649414068 335.66668701171875,219.04665649414062 335.66668701171875,216.66665649414062 z" fill="#0D659F" id="svg_8" class=""/><path d="M323.66668701171875,252.66665649414062 C327.6266870117188,252.66665649414062 331.5866870117187,252.66665649414062 335.66668701171875,252.66665649414062 C335.79168701171875,261.4166564941406 335.79168701171875,261.4166564941406 334.66668701171875,263.6666564941406 C334.0066870117188,263.6666564941406 333.3466870117188,263.6666564941406 332.66668701171875,263.6666564941406 C332.9966870117188,260.36665649414067 333.3266870117187,257.0666564941407 333.66668701171875,253.66665649414062 C330.3666870117188,253.66665649414062 327.0666870117187,253.66665649414062 323.66668701171875,253.66665649414062 C323.66668701171875,253.3366564941407 323.66668701171875,253.00665649414054 323.66668701171875,252.66665649414062 z" fill="#0D8CA4" id="svg_9" class=""/><path d="M300.66668701171875,216.66665649414062 C300.66668701171875,217.3266564941406 300.66668701171875,217.98665649414068 300.66668701171875,218.66665649414062 C300.0066870117188,218.66665649414062 299.3466870117188,218.66665649414062 298.66668701171875,218.66665649414062 C298.3985620117187,219.2854064941406 298.13043701171875,219.90415649414058 297.85418701171875,220.54165649414062 C296.66668701171875,222.66665649414062 296.66668701171875,222.66665649414062 293.66668701171875,224.66665649414062 C293.66668701171875,220.66665649414062 293.66668701171875,220.66665649414062 295.47918701171875,218.41665649414062 C297.66668701171875,216.66665649414062 297.66668701171875,216.66665649414062 300.66668701171875,216.66665649414062 z" fill="#00749A" id="svg_10" class=""/><path d="M165.66668701171875,217.66665649414062 C166.65668701171876,217.66665649414062 167.64668701171877,217.66665649414062 168.66668701171875,217.66665649414062 C168.66668701171875,219.97665649414057 168.66668701171875,222.28665649414063 168.66668701171875,224.66665649414062 C167.67668701171874,224.99665649414055 166.68668701171873,225.3266564941407 165.66668701171875,225.66665649414062 C165.66668701171875,223.02665649414064 165.66668701171875,220.38665649414065 165.66668701171875,217.66665649414062 z" fill="#088EAC" id="svg_11" class=""/></g></svg>