<?xml version="1.0" encoding="UTF-8"?>
<svg xmlns="http://www.w3.org/2000/svg" xmlns:xlink="http://www.w3.org/1999/xlink" width="56px" height="56px" viewBox="0 0 56 56" version="1.1">
<g id="surface1">
<path style=" stroke:none;fill-rule:nonzero;fill:rgb(100%,100%,100%);fill-opacity:1;" d="M 17.332031 10.265625 L 37.75 10.265625 C 41.335938 10.265625 44.246094 13.175781 44.246094 16.765625 L 44.246094 44.96875 C 44.246094 48.554688 41.335938 51.464844 37.75 51.464844 L 17.332031 51.464844 C 13.742188 51.464844 10.835938 48.554688 10.835938 44.96875 L 10.835938 16.765625 C 10.835938 13.175781 13.742188 10.265625 17.332031 10.265625 Z M 17.332031 10.265625 "/>
<path style=" stroke:none;fill-rule:nonzero;fill:rgb(0%,0%,80.784315%);fill-opacity:1;" d="M 7.34375 0.632812 C 5.703125 0.988281 4.082031 1.933594 2.863281 3.238281 C 1.578125 4.609375 0.96875 5.691406 0.527344 7.417969 C 0.207031 8.683594 0.1875 9.34375 0.1875 27.855469 C 0.1875 49.050781 0.15625 48.273438 1.304688 50.457031 C 2.015625 51.808594 3.675781 53.484375 5.042969 54.230469 C 5.519531 54.484375 6.5 54.839844 7.226562 55.023438 C 8.496094 55.347656 9.15625 55.363281 27.664062 55.363281 C 48.863281 55.363281 48.085938 55.398438 50.269531 54.246094 C 51.621094 53.535156 53.296875 51.878906 54.039062 50.507812 C 54.292969 50.035156 54.648438 49.050781 54.835938 48.324219 C 55.15625 47.054688 55.175781 46.394531 55.175781 27.886719 C 55.175781 6.6875 55.207031 7.46875 54.058594 5.285156 C 53.347656 3.929688 51.6875 2.257812 50.316406 1.511719 C 49.84375 1.257812 48.863281 0.902344 48.136719 0.714844 C 46.867188 0.394531 46.222656 0.378906 27.613281 0.394531 C 12.132812 0.394531 8.191406 0.445312 7.34375 0.632812 Z M 39.914062 13.574219 C 39.929688 14.742188 39.914062 16.09375 39.863281 16.570312 L 39.761719 17.464844 L 30.8125 17.464844 L 30.8125 38.273438 L 35.34375 38.308594 L 39.863281 38.359375 L 39.863281 44.28125 L 27.730469 44.332031 L 15.601562 44.367188 L 15.550781 41.386719 C 15.515625 39.746094 15.535156 38.375 15.566406 38.34375 C 15.601562 38.308594 17.648438 38.273438 20.101562 38.273438 L 24.550781 38.273438 L 24.550781 17.464844 L 20.035156 17.433594 L 15.5 17.382812 L 15.464844 14.503906 C 15.449219 12.929688 15.484375 11.578125 15.515625 11.511719 C 15.566406 11.425781 21.066406 11.390625 27.730469 11.410156 L 39.863281 11.460938 Z M 39.914062 13.574219 "/>
</g>
</svg>
