<?xml version="1.0" encoding="UTF-8"?>
<svg xmlns="http://www.w3.org/2000/svg" xmlns:xlink="http://www.w3.org/1999/xlink" width="56px" height="56px" viewBox="0 0 56 56" version="1.1">
<g id="surface1">
<path style=" stroke:none;fill-rule:nonzero;fill:rgb(100%,100%,100%);fill-opacity:1;" d="M 5.289062 18.25 L 51.125 18.25 L 51.125 39.769531 L 5.289062 39.769531 Z M 5.289062 18.25 "/>
<path style=" stroke:none;fill-rule:nonzero;fill:rgb(0%,9.411765%,33.725491%);fill-opacity:1;" d="M 8.769531 0.0585938 C 4.738281 0.480469 1.320312 3.417969 0.3125 7.328125 C -0.0195312 8.621094 0 7.269531 0 27.902344 C 0 40.746094 0.015625 46.828125 0.0585938 47.175781 C 0.1875 48.378906 0.519531 49.539062 1.027344 50.554688 C 2.550781 53.597656 5.402344 55.574219 8.824219 55.941406 C 9.171875 55.984375 15.21875 56 27.984375 56 C 48.339844 56 47.304688 56.015625 48.535156 55.710938 C 50.835938 55.140625 52.800781 53.792969 54.214844 51.816406 C 54.398438 51.566406 54.722656 51.007812 54.9375 50.582031 C 55.527344 49.398438 55.828125 48.371094 55.949219 47.082031 C 55.988281 46.660156 56 40.917969 55.984375 27.636719 C 55.964844 6.933594 55.996094 8.613281 55.667969 7.320312 C 55.191406 5.445312 54.046875 3.613281 52.578125 2.375 C 50.992188 1.035156 49.164062 0.257812 47.136719 0.0507812 C 46.476562 -0.015625 9.417969 -0.0117188 8.769531 0.0585938 Z M 35.113281 20.441406 C 35.160156 20.476562 35.210938 20.589844 35.226562 20.6875 C 35.242188 20.789062 35.257812 22.773438 35.265625 25.097656 C 35.273438 29.714844 35.289062 30.164062 35.425781 30.246094 C 35.527344 30.3125 35.886719 30.140625 36.847656 29.566406 C 37.945312 28.90625 38.804688 28.289062 39.019531 28.003906 C 39.101562 27.902344 39.101562 27.871094 39.039062 27.734375 C 38.996094 27.65625 38.816406 27.476562 38.636719 27.339844 C 38.261719 27.066406 38.226562 27.007812 38.339844 26.894531 C 38.394531 26.839844 38.605469 26.808594 39.132812 26.78125 C 40.03125 26.730469 42.203125 26.792969 42.296875 26.871094 C 42.398438 26.953125 42.375 27.109375 42.25 27.191406 C 42.179688 27.234375 41.90625 27.351562 41.636719 27.457031 C 41.367188 27.558594 40.910156 27.765625 40.621094 27.921875 C 39.195312 28.679688 37.125 29.980469 37.015625 30.183594 C 36.964844 30.28125 36.996094 30.324219 37.265625 30.578125 C 37.808594 31.09375 39.992188 33.097656 40.609375 33.648438 C 41.210938 34.179688 41.851562 34.605469 42.3125 34.777344 C 42.539062 34.859375 42.777344 35.03125 42.777344 35.109375 C 42.777344 35.253906 42.492188 35.273438 40.46875 35.285156 C 39.328125 35.285156 38.34375 35.269531 38.28125 35.25 C 38.148438 35.203125 38.125 35.046875 38.242188 34.949219 C 38.28125 34.917969 38.484375 34.84375 38.6875 34.792969 C 39.324219 34.625 39.335938 34.523438 38.785156 33.941406 C 38.386719 33.523438 35.707031 30.996094 35.523438 30.867188 C 35.296875 30.710938 35.285156 30.789062 35.285156 32.613281 C 35.285156 34.257812 35.289062 34.324219 35.394531 34.464844 C 35.507812 34.621094 35.707031 34.734375 36.105469 34.871094 C 36.382812 34.96875 36.457031 35.074219 36.332031 35.195312 C 36.253906 35.269531 36.03125 35.28125 34.445312 35.285156 C 33.449219 35.285156 32.566406 35.269531 32.476562 35.242188 C 32.277344 35.195312 32.214844 35.0625 32.339844 34.941406 C 32.390625 34.894531 32.65625 34.78125 32.929688 34.695312 C 33.246094 34.589844 33.476562 34.480469 33.554688 34.398438 L 33.679688 34.265625 L 33.714844 32.46875 C 33.75 30.46875 33.71875 22.414062 33.671875 22.15625 C 33.65625 22.066406 33.589844 21.949219 33.53125 21.890625 C 33.414062 21.78125 32.921875 21.519531 32.832031 21.519531 C 32.738281 21.519531 32.65625 21.367188 32.691406 21.265625 C 32.722656 21.15625 32.992188 21.042969 34.195312 20.605469 C 34.871094 20.363281 34.988281 20.339844 35.113281 20.441406 Z M 14.105469 21.597656 C 17.261719 22.066406 19.351562 23.59375 20.300781 26.117188 C 20.871094 27.632812 20.953125 29.648438 20.503906 30.914062 C 19.765625 32.953125 17.960938 34.476562 15.605469 35.035156 C 15.0625 35.164062 15.058594 35.164062 11.484375 35.207031 C 9.519531 35.226562 7.574219 35.265625 7.171875 35.285156 C 6.371094 35.332031 6.273438 35.304688 6.273438 35.074219 C 6.273438 34.90625 6.445312 34.761719 6.730469 34.6875 C 7.40625 34.511719 7.535156 34.464844 7.699219 34.320312 C 7.824219 34.207031 7.914062 34.066406 7.96875 33.863281 C 8.058594 33.59375 8.0625 33.160156 8.0625 28.097656 C 8.0625 23.820312 8.046875 22.605469 8 22.546875 C 7.902344 22.425781 7.605469 22.359375 6.90625 22.296875 C 6.554688 22.261719 6.207031 22.21875 6.132812 22.199219 C 5.824219 22.113281 5.839844 21.765625 6.160156 21.675781 C 6.269531 21.644531 7.367188 21.597656 8.683594 21.566406 C 9.964844 21.535156 11.027344 21.496094 11.042969 21.480469 C 11.097656 21.425781 13.570312 21.519531 14.105469 21.597656 Z M 47.679688 26.527344 C 48.234375 26.664062 48.980469 27.164062 49.359375 27.65625 C 49.960938 28.445312 50.265625 29.628906 49.960938 29.96875 C 49.867188 30.074219 49.808594 30.074219 47.050781 30.074219 L 44.234375 30.074219 L 44.199219 30.265625 C 44.152344 30.515625 44.261719 31.925781 44.363281 32.355469 C 44.601562 33.378906 45.28125 34.109375 46.277344 34.410156 C 46.515625 34.480469 46.769531 34.503906 47.339844 34.507812 C 48.289062 34.507812 48.523438 34.441406 49.027344 34.039062 C 49.511719 33.648438 49.566406 33.621094 49.667969 33.722656 C 49.742188 33.800781 49.742188 33.828125 49.628906 34.046875 C 49.464844 34.339844 48.910156 34.859375 48.476562 35.121094 C 48.292969 35.226562 47.957031 35.378906 47.730469 35.449219 C 47.351562 35.582031 47.246094 35.589844 46.511719 35.589844 C 45.402344 35.589844 44.835938 35.421875 44.132812 34.878906 C 42.359375 33.511719 42.121094 29.9375 43.675781 27.933594 C 44.328125 27.085938 45.195312 26.546875 46.074219 26.449219 C 46.53125 26.394531 47.277344 26.433594 47.679688 26.527344 Z M 24.164062 26.839844 C 24.179688 26.855469 24.199219 28.390625 24.214844 30.25 L 24.242188 33.632812 L 24.378906 33.84375 C 24.542969 34.085938 24.785156 34.289062 25.058594 34.402344 C 25.367188 34.527344 26.902344 34.511719 27.335938 34.378906 C 27.863281 34.21875 28.238281 33.917969 28.4375 33.496094 C 28.539062 33.269531 28.542969 33.191406 28.558594 30.4375 L 28.574219 27.609375 L 27.925781 27.417969 C 27.570312 27.308594 27.195312 27.191406 27.09375 27.148438 C 26.894531 27.066406 26.800781 26.925781 26.90625 26.859375 C 27.015625 26.796875 28.574219 26.746094 29.328125 26.785156 C 29.9375 26.816406 30.054688 26.839844 30.140625 26.925781 C 30.246094 27.03125 30.246094 27.070312 30.207031 30.585938 C 30.171875 34.554688 30.152344 34.324219 30.53125 34.425781 C 30.632812 34.449219 30.929688 34.488281 31.1875 34.507812 C 31.773438 34.554688 31.898438 34.601562 31.878906 34.757812 C 31.867188 34.835938 31.804688 34.890625 31.679688 34.925781 C 31.417969 35.015625 29.328125 35.359375 28.960938 35.375 L 28.648438 35.390625 L 28.621094 34.921875 C 28.589844 34.433594 28.558594 34.324219 28.441406 34.324219 C 28.398438 34.324219 28.105469 34.503906 27.78125 34.726562 C 26.839844 35.367188 26.339844 35.554688 25.460938 35.605469 C 24.605469 35.652344 23.878906 35.425781 23.421875 34.96875 C 23.125 34.664062 22.945312 34.335938 22.800781 33.824219 C 22.691406 33.429688 22.683594 33.363281 22.683594 30.5 C 22.683594 27.125 22.761719 27.511719 22.042969 27.292969 C 21.589844 27.160156 21.414062 27.054688 21.414062 26.933594 C 21.414062 26.765625 21.585938 26.75 22.867188 26.78125 C 23.5625 26.796875 24.148438 26.824219 24.164062 26.839844 Z M 24.164062 26.839844 "/>
<path style=" stroke:none;fill-rule:nonzero;fill:rgb(0%,9.411765%,33.725491%);fill-opacity:1;" d="M 10.890625 22.191406 C 10.453125 22.246094 10.195312 22.351562 10.074219 22.535156 C 9.988281 22.675781 9.980469 22.929688 9.980469 27.792969 L 9.980469 32.898438 L 10.152344 33.230469 C 10.5 33.894531 11.105469 34.363281 11.875 34.558594 C 12.402344 34.699219 13.558594 34.640625 14.179688 34.457031 C 15.410156 34.078125 16.359375 33.527344 17.132812 32.746094 C 17.765625 32.105469 18.152344 31.453125 18.464844 30.515625 C 18.625 30.015625 18.636719 29.960938 18.65625 29.019531 C 18.6875 27.492188 18.542969 26.78125 17.976562 25.703125 C 16.992188 23.816406 14.742188 22.382812 12.46875 22.191406 C 11.769531 22.136719 11.382812 22.136719 10.890625 22.191406 Z M 10.890625 22.191406 "/>
<path style=" stroke:none;fill-rule:nonzero;fill:rgb(0%,9.411765%,33.725491%);fill-opacity:1;" d="M 46.421875 27.039062 C 45.957031 27.144531 45.605469 27.351562 45.210938 27.75 C 44.835938 28.136719 44.515625 28.679688 44.457031 29.027344 C 44.425781 29.222656 44.4375 29.246094 44.550781 29.292969 C 44.917969 29.429688 47.402344 29.394531 47.972656 29.238281 C 48.226562 29.171875 48.507812 28.882812 48.585938 28.601562 C 48.664062 28.316406 48.585938 27.878906 48.410156 27.640625 C 48.25 27.425781 47.878906 27.148438 47.652344 27.070312 C 47.355469 26.972656 46.777344 26.957031 46.421875 27.039062 Z M 46.421875 27.039062 "/>
</g>
</svg>
