<?xml version="1.0" encoding="UTF-8"?>
<svg xmlns="http://www.w3.org/2000/svg" xmlns:xlink="http://www.w3.org/1999/xlink" width="56px" height="56px" viewBox="0 0 56 56" version="1.1">
<g id="surface1">
<path style=" stroke:none;fill-rule:nonzero;fill:rgb(26.666668%,0%,60.000002%);fill-opacity:1;" d="M 27.996094 0 C 23.605469 0 19.359375 0.628906 15.324219 1.804688 L 15.324219 13.101562 C 15.324219 15.613281 15.65625 17.933594 16.308594 20 C 16.921875 21.925781 17.828125 23.6875 19.007812 25.238281 C 21.050781 27.921875 23.9375 30.054688 27.828125 31.753906 L 28 31.828125 L 28.167969 31.753906 C 32.058594 30.054688 34.945312 27.921875 36.988281 25.238281 C 38.171875 23.6875 39.078125 21.929688 39.6875 20 C 40.339844 17.933594 40.671875 15.613281 40.671875 13.101562 L 40.671875 1.804688 C 36.640625 0.628906 32.390625 0 27.996094 0 Z M 27.996094 0 "/>
<path style=" stroke:none;fill-rule:nonzero;fill:rgb(100%,100%,100%);fill-opacity:1;" d="M 21.96875 19.304688 L 21.96875 18.875 L 21.164062 19.488281 L 20.894531 19.101562 L 20.890625 19.101562 C 20.363281 19.664062 19.894531 20.289062 19.503906 20.964844 L 19.5 20.96875 L 19.507812 20.96875 C 20.242188 20.789062 20.953125 20.515625 21.628906 20.160156 L 21.632812 20.160156 L 21.363281 19.769531 L 21.976562 19.304688 Z M 21.96875 19.304688 "/>
<path style=" stroke:none;fill-rule:nonzero;fill:rgb(100%,100%,100%);fill-opacity:1;" d="M 35.320312 7.980469 L 33.808594 9.390625 L 33.730469 9.929688 L 31.949219 11.285156 L 32.511719 11.285156 L 33.925781 10.210938 L 34.4375 10.292969 L 36.183594 9.226562 L 35.390625 9.09375 L 35.964844 8.660156 L 35.769531 8.378906 L 35.195312 8.8125 Z M 35.320312 7.980469 "/>
<path style=" stroke:none;fill-rule:nonzero;fill:rgb(100%,100%,100%);fill-opacity:1;" d="M 28 20.363281 C 27.839844 20.363281 27.679688 20.339844 27.527344 20.292969 L 23.667969 23.230469 L 23.398438 22.839844 C 22.867188 23.40625 22.398438 24.03125 22.011719 24.703125 L 22.003906 24.710938 L 22.015625 24.710938 C 22.746094 24.527344 23.460938 24.253906 24.132812 23.902344 L 24.140625 23.902344 L 23.871094 23.511719 L 28.003906 20.363281 Z M 28 20.363281 "/>
<path style=" stroke:none;fill-rule:nonzero;fill:rgb(100%,100%,100%);fill-opacity:1;" d="M 37.824219 11.722656 L 36.316406 13.132812 L 36.234375 13.667969 L 34.027344 15.347656 L 34.027344 15.777344 L 36.429688 13.949219 L 36.941406 14.035156 L 38.691406 12.964844 L 37.894531 12.835938 L 38.46875 12.398438 L 38.273438 12.117188 L 37.699219 12.554688 Z M 37.824219 11.722656 "/>
<path style=" stroke:none;fill-rule:nonzero;fill:rgb(100%,100%,100%);fill-opacity:1;" d="M 25.34375 19.5625 L 24.777344 19.5625 L 22.414062 21.359375 L 22.144531 20.96875 L 22.140625 20.96875 C 21.613281 21.535156 21.144531 22.160156 20.757812 22.832031 L 20.75 22.839844 L 20.761719 22.839844 C 21.492188 22.65625 22.207031 22.386719 22.878906 22.03125 L 22.882812 22.03125 L 22.613281 21.640625 L 25.351562 19.5625 Z M 25.34375 19.5625 "/>
<path style=" stroke:none;fill-rule:nonzero;fill:rgb(100%,100%,100%);fill-opacity:1;" d="M 36.574219 9.851562 L 35.0625 11.261719 L 34.980469 11.796875 L 34.027344 12.527344 L 34.027344 12.953125 L 35.175781 12.082031 L 35.691406 12.164062 L 37.4375 11.097656 L 36.644531 10.964844 L 37.214844 10.53125 L 37.019531 10.246094 L 36.449219 10.683594 Z M 36.574219 9.851562 "/>
<path style=" stroke:none;fill-rule:nonzero;fill:rgb(100%,100%,100%);fill-opacity:1;" d="M 32.792969 2.878906 C 32.792969 2.878906 32.722656 2.871094 32.621094 2.867188 C 32.375 2.863281 31.929688 2.902344 31.632812 3.207031 C 31.519531 3.320312 31.484375 3.476562 31.484375 3.625 C 31.484375 3.640625 31.484375 3.652344 31.484375 3.664062 C 31.484375 3.671875 31.484375 3.683594 31.484375 3.691406 L 31.484375 3.703125 C 31.484375 3.703125 31.488281 3.726562 31.488281 3.738281 C 31.492188 3.765625 31.496094 3.792969 31.5 3.820312 C 31.460938 3.773438 31.40625 3.734375 31.339844 3.703125 C 30.84375 3.488281 30.300781 3.765625 30.300781 3.765625 C 30.300781 3.765625 30.425781 4.414062 30.992188 4.582031 C 31.128906 4.625 31.261719 4.601562 31.378906 4.5625 L 31.261719 4.785156 C 31.109375 5.066406 30.804688 5.214844 30.5 5.160156 C 30.109375 5.085938 29.851562 4.691406 29.921875 4.28125 L 29.59375 4.21875 C 29.558594 4.414062 29.453125 4.589844 29.296875 4.703125 C 29.136719 4.816406 28.945312 4.859375 28.757812 4.824219 C 28.414062 4.757812 28.167969 4.445312 28.167969 4.082031 L 28.167969 3.613281 C 28.261719 3.722656 28.398438 3.828125 28.578125 3.828125 C 29.117188 3.828125 29.515625 3.351562 29.515625 3.351562 C 29.515625 3.351562 29.113281 2.875 28.578125 2.875 C 28.511719 2.875 28.453125 2.890625 28.398438 2.914062 C 28.503906 2.808594 28.589844 2.667969 28.589844 2.503906 C 28.589844 1.875 28 1.40625 28 1.40625 C 28 1.40625 27.414062 1.875 27.414062 2.503906 C 27.414062 2.671875 27.496094 2.808594 27.605469 2.914062 C 27.550781 2.890625 27.492188 2.875 27.425781 2.875 C 26.886719 2.875 26.484375 3.351562 26.484375 3.351562 C 26.484375 3.351562 26.886719 3.828125 27.425781 3.828125 C 27.601562 3.828125 27.738281 3.722656 27.835938 3.613281 L 27.835938 4.082031 C 27.835938 4.445312 27.585938 4.757812 27.246094 4.824219 C 27.054688 4.859375 26.863281 4.816406 26.707031 4.703125 C 26.546875 4.589844 26.441406 4.414062 26.40625 4.21875 L 26.242188 4.25 L 26.082031 4.28125 C 26.152344 4.691406 25.894531 5.082031 25.5 5.160156 C 25.195312 5.21875 24.890625 5.066406 24.742188 4.785156 L 24.625 4.5625 C 24.738281 4.601562 24.875 4.625 25.011719 4.582031 C 25.574219 4.414062 25.703125 3.765625 25.703125 3.765625 C 25.703125 3.765625 25.15625 3.488281 24.660156 3.703125 C 24.597656 3.730469 24.542969 3.773438 24.5 3.820312 C 24.503906 3.792969 24.507812 3.765625 24.511719 3.738281 C 24.511719 3.726562 24.511719 3.714844 24.515625 3.703125 L 24.515625 3.691406 C 24.515625 3.691406 24.515625 3.671875 24.515625 3.664062 C 24.515625 3.652344 24.515625 3.636719 24.515625 3.625 C 24.515625 3.476562 24.480469 3.320312 24.367188 3.207031 C 24.066406 2.902344 23.625 2.863281 23.378906 2.871094 C 23.273438 2.871094 23.207031 2.878906 23.207031 2.878906 C 23.207031 2.878906 23.195312 3.003906 23.203125 3.175781 C 23.5 3.507812 23.761719 3.859375 23.996094 4.230469 C 24.320312 4.742188 24.585938 5.289062 24.789062 5.863281 L 25.429688 6.25 L 25.082031 6.886719 C 25.136719 7.148438 25.179688 7.417969 25.214844 7.6875 L 25.226562 7.6875 C 26.132812 7.882812 27.058594 7.980469 28 7.980469 L 28.007812 7.980469 C 28.949219 7.980469 29.875 7.882812 30.78125 7.691406 L 30.792969 7.691406 C 30.824219 7.414062 30.871094 7.148438 30.925781 6.886719 L 30.578125 6.25 L 31.214844 5.863281 C 31.417969 5.289062 31.683594 4.742188 32.011719 4.230469 C 32.246094 3.859375 32.511719 3.507812 32.804688 3.175781 C 32.8125 3 32.800781 2.878906 32.800781 2.878906 Z M 29.59375 5.574219 C 29.824219 5.574219 30.007812 5.769531 30.007812 6.007812 C 30.007812 6.25 29.824219 6.445312 29.59375 6.445312 C 29.363281 6.445312 29.175781 6.25 29.175781 6.007812 C 29.175781 5.769531 29.363281 5.574219 29.59375 5.574219 Z M 27.996094 5.121094 L 28.585938 5.734375 L 27.996094 6.351562 L 27.40625 5.734375 Z M 26.398438 5.574219 C 26.625 5.574219 26.8125 5.769531 26.8125 6.007812 C 26.8125 6.25 26.625 6.445312 26.398438 6.445312 C 26.167969 6.445312 25.980469 6.25 25.980469 6.007812 C 25.980469 5.769531 26.167969 5.574219 26.398438 5.574219 Z M 30.484375 7.398438 C 29.671875 7.554688 28.839844 7.636719 28 7.636719 C 27.15625 7.636719 26.328125 7.558594 25.511719 7.402344 C 25.503906 7.351562 25.496094 7.304688 25.488281 7.257812 C 26.3125 7.097656 27.148438 7.015625 28 7.015625 C 28.847656 7.015625 29.6875 7.097656 30.511719 7.257812 C 30.503906 7.304688 30.496094 7.355469 30.488281 7.402344 Z M 30.484375 7.398438 "/>
<path style=" stroke:none;fill-rule:nonzero;fill:rgb(100%,100%,100%);fill-opacity:1;" d="M 34.515625 6.507812 L 34.710938 6.789062 L 34.136719 7.226562 L 34.933594 7.355469 L 33.1875 8.425781 L 32.671875 8.339844 L 28 11.898438 L 23.324219 8.339844 L 22.8125 8.425781 L 21.0625 7.355469 L 21.855469 7.226562 L 21.285156 6.789062 L 21.480469 6.507812 L 22.054688 6.941406 L 21.929688 6.113281 L 23.4375 7.523438 L 23.519531 8.058594 L 28 11.46875 L 32.476562 8.058594 L 32.558594 7.523438 L 34.070312 6.113281 L 33.945312 6.941406 Z M 34.515625 6.507812 "/>
<path style=" stroke:none;fill-rule:nonzero;fill:rgb(100%,100%,100%);fill-opacity:1;" d="M 33.191406 12.269531 L 33.199219 18.691406 L 28.84375 18.691406 L 28.8125 18.824219 C 28.722656 19.21875 28.386719 19.492188 28 19.492188 C 27.609375 19.492188 27.277344 19.21875 27.183594 18.824219 L 27.152344 18.691406 L 22.800781 18.691406 L 22.804688 12.269531 L 22.46875 12.269531 L 22.46875 19.039062 L 26.898438 19.039062 C 27.066406 19.519531 27.503906 19.84375 28 19.84375 C 28.496094 19.84375 28.933594 19.519531 29.097656 19.039062 L 33.527344 19.039062 L 33.527344 12.269531 Z M 33.191406 12.269531 "/>
<path style=" stroke:none;fill-rule:nonzero;fill:rgb(100%,100%,100%);fill-opacity:1;" d="M 36.496094 20.964844 C 36.105469 20.289062 35.636719 19.664062 35.109375 19.101562 L 35.105469 19.101562 L 34.835938 19.488281 L 34.03125 18.875 L 34.03125 19.304688 L 34.644531 19.769531 L 34.375 20.160156 L 34.378906 20.160156 C 35.050781 20.515625 35.765625 20.789062 36.496094 20.96875 L 36.507812 20.96875 L 36.503906 20.964844 Z M 36.496094 20.964844 "/>
<path style=" stroke:none;fill-rule:nonzero;fill:rgb(100%,100%,100%);fill-opacity:1;" d="M 20.671875 7.980469 L 20.800781 8.8125 L 20.226562 8.378906 L 20.035156 8.660156 L 20.605469 9.09375 L 19.8125 9.226562 L 21.558594 10.292969 L 22.070312 10.210938 L 23.480469 11.285156 L 24.050781 11.285156 L 22.265625 9.929688 L 22.183594 9.390625 Z M 20.671875 7.980469 "/>
<path style=" stroke:none;fill-rule:nonzero;fill:rgb(100%,100%,100%);fill-opacity:1;" d="M 19.550781 10.683594 L 18.976562 10.246094 L 18.78125 10.53125 L 19.351562 10.964844 L 18.558594 11.097656 L 20.304688 12.164062 L 20.820312 12.082031 L 21.96875 12.953125 L 21.96875 12.527344 L 21.015625 11.796875 L 20.933594 11.261719 L 19.421875 9.851562 Z M 19.550781 10.683594 "/>
<path style=" stroke:none;fill-rule:nonzero;fill:rgb(100%,100%,100%);fill-opacity:1;" d="M 35.242188 22.832031 C 34.851562 22.160156 34.382812 21.535156 33.855469 20.972656 L 33.851562 20.972656 L 33.582031 21.359375 L 31.21875 19.5625 L 30.652344 19.5625 L 33.390625 21.640625 L 33.121094 22.027344 L 33.125 22.027344 C 33.796875 22.386719 34.511719 22.65625 35.242188 22.839844 L 35.253906 22.839844 L 35.25 22.832031 Z M 35.242188 22.832031 "/>
<path style=" stroke:none;fill-rule:nonzero;fill:rgb(100%,100%,100%);fill-opacity:1;" d="M 18.292969 12.554688 L 17.722656 12.117188 L 17.527344 12.398438 L 18.101562 12.835938 L 17.308594 12.964844 L 19.054688 14.035156 L 19.566406 13.949219 L 21.96875 15.777344 L 21.96875 15.347656 L 19.761719 13.667969 L 19.679688 13.132812 L 18.167969 11.722656 Z M 18.292969 12.554688 "/>
<path style=" stroke:none;fill-rule:nonzero;fill:rgb(100%,100%,100%);fill-opacity:1;" d="M 32.601562 22.84375 L 32.332031 23.230469 L 28.472656 20.292969 C 28.320312 20.339844 28.160156 20.363281 28 20.363281 L 32.136719 23.511719 L 31.867188 23.898438 L 31.871094 23.898438 C 32.546875 24.253906 33.257812 24.527344 33.992188 24.707031 L 34 24.707031 L 33.996094 24.703125 C 33.605469 24.03125 33.140625 23.40625 32.609375 22.84375 Z M 32.601562 22.84375 "/>
<path style=" stroke:none;fill-rule:nonzero;fill:rgb(100%,100%,100%);fill-opacity:1;" d="M 21.96875 16.484375 L 21.96875 16.054688 L 19.910156 17.617188 L 19.640625 17.230469 L 19.636719 17.230469 C 19.109375 17.792969 18.640625 18.421875 18.25 19.09375 L 18.246094 19.101562 L 18.257812 19.101562 C 18.988281 18.917969 19.703125 18.644531 20.375 18.292969 L 20.378906 18.292969 L 20.109375 17.902344 L 21.976562 16.484375 Z M 21.96875 16.484375 "/>
<path style=" stroke:none;fill-rule:nonzero;fill:rgb(100%,100%,100%);fill-opacity:1;" d="M 37.746094 19.09375 C 37.359375 18.421875 36.890625 17.796875 36.359375 17.234375 L 36.089844 17.621094 L 34.03125 16.054688 L 34.03125 16.484375 L 35.894531 17.902344 L 35.625 18.292969 L 35.628906 18.292969 C 36.304688 18.648438 37.015625 18.921875 37.75 19.101562 L 37.757812 19.101562 L 37.753906 19.09375 Z M 37.746094 19.09375 "/>
<path style=" stroke:none;fill-rule:nonzero;fill:rgb(100%,100%,100%);fill-opacity:1;" d="M 30.242188 27.476562 C 30.292969 27.308594 30.449219 26.808594 30.503906 26.640625 C 30.59375 26.34375 30.4375 26.019531 30.152344 25.921875 L 29.398438 25.777344 L 29.929688 25.199219 C 30.105469 24.941406 30.050781 24.585938 29.808594 24.398438 C 29.671875 24.292969 29.265625 23.984375 29.128906 23.882812 C 29.03125 23.808594 28.917969 23.773438 28.804688 23.773438 C 28.640625 23.773438 28.472656 23.855469 28.363281 24.007812 L 28 24.714844 L 27.636719 24.007812 C 27.53125 23.855469 27.363281 23.773438 27.195312 23.773438 C 27.085938 23.773438 26.972656 23.808594 26.875 23.882812 C 26.738281 23.984375 26.332031 24.292969 26.195312 24.398438 C 25.949219 24.585938 25.894531 24.941406 26.074219 25.199219 L 26.601562 25.777344 L 25.847656 25.921875 C 25.5625 26.019531 25.40625 26.34375 25.5 26.640625 C 25.550781 26.808594 25.707031 27.308594 25.757812 27.476562 C 25.835938 27.722656 26.046875 27.875 26.277344 27.875 C 26.335938 27.875 26.390625 27.863281 26.445312 27.847656 L 27.136719 27.5 L 27.035156 28.292969 C 27.035156 28.609375 27.277344 28.867188 27.582031 28.867188 L 28.417969 28.867188 C 28.722656 28.867188 28.964844 28.609375 28.964844 28.292969 L 28.863281 27.5 L 29.554688 27.847656 C 29.609375 27.867188 29.667969 27.875 29.722656 27.875 C 29.949219 27.875 30.164062 27.722656 30.242188 27.476562 Z M 28.535156 26.9375 C 28.515625 26.9375 28.496094 26.9375 28.476562 26.9375 C 28.382812 27.328125 28 27.722656 28 27.722656 C 28 27.722656 27.621094 27.332031 27.527344 26.9375 C 27.507812 26.9375 27.484375 26.9375 27.46875 26.9375 C 27.09375 26.9375 26.667969 26.707031 26.667969 26.707031 C 26.667969 26.707031 26.90625 26.207031 27.234375 25.992188 C 27.089844 25.617188 27.175781 25.066406 27.175781 25.066406 C 27.175781 25.066406 27.703125 25.152344 28 25.40625 C 28.296875 25.148438 28.824219 25.066406 28.824219 25.066406 C 28.824219 25.066406 28.914062 25.617188 28.769531 25.992188 C 29.09375 26.207031 29.332031 26.707031 29.332031 26.707031 C 29.332031 26.707031 28.90625 26.9375 28.535156 26.9375 Z M 28.535156 26.9375 "/>
<path style=" stroke:none;fill-rule:nonzero;fill:rgb(100%,100%,100%);fill-opacity:1;" d="M 28.359375 26.253906 C 28.359375 26.046875 28.199219 25.878906 28 25.878906 C 27.804688 25.878906 27.640625 26.046875 27.640625 26.253906 C 27.640625 26.460938 27.804688 26.628906 28 26.628906 C 28.199219 26.628906 28.359375 26.460938 28.359375 26.253906 Z M 28.359375 26.253906 "/>
<path style=" stroke:none;fill-rule:nonzero;fill:rgb(100%,100%,100%);fill-opacity:1;" d="M 25.734375 25.554688 L 25.757812 25.546875 L 25.78125 25.542969 L 25.863281 25.527344 L 25.804688 25.464844 L 25.789062 25.445312 L 25.777344 25.421875 C 25.691406 25.300781 25.636719 25.160156 25.613281 25.015625 C 25.347656 25.082031 25.128906 25.199219 25.117188 25.207031 L 25.046875 25.246094 L 25.082031 25.324219 C 25.089844 25.339844 25.203125 25.570312 25.375 25.785156 C 25.476562 25.683594 25.597656 25.601562 25.738281 25.554688 Z M 25.734375 25.554688 "/>
<path style=" stroke:none;fill-rule:nonzero;fill:rgb(100%,100%,100%);fill-opacity:1;" d="M 27.933594 23.78125 L 27.949219 23.800781 L 27.960938 23.824219 L 28 23.898438 L 28.035156 23.824219 L 28.046875 23.800781 L 28.0625 23.78125 C 28.148438 23.660156 28.257812 23.558594 28.382812 23.492188 C 28.238281 23.253906 28.066406 23.074219 28.054688 23.0625 L 28 23 L 27.941406 23.0625 C 27.929688 23.074219 27.757812 23.253906 27.613281 23.492188 C 27.738281 23.558594 27.851562 23.660156 27.933594 23.78125 Z M 27.933594 23.78125 "/>
<path style=" stroke:none;fill-rule:nonzero;fill:rgb(100%,100%,100%);fill-opacity:1;" d="M 30.882812 25.210938 C 30.871094 25.203125 30.652344 25.085938 30.386719 25.015625 C 30.367188 25.160156 30.3125 25.300781 30.222656 25.425781 L 30.210938 25.449219 L 30.191406 25.46875 L 30.136719 25.527344 L 30.214844 25.542969 L 30.238281 25.550781 L 30.261719 25.554688 C 30.40625 25.601562 30.527344 25.683594 30.625 25.785156 C 30.800781 25.570312 30.910156 25.339844 30.917969 25.328125 L 30.953125 25.25 Z M 30.882812 25.210938 "/>
<path style=" stroke:none;fill-rule:nonzero;fill:rgb(100%,100%,100%);fill-opacity:1;" d="M 29.722656 28.261719 C 29.625 28.261719 29.53125 28.246094 29.441406 28.214844 L 29.417969 28.207031 L 29.394531 28.191406 L 29.320312 28.15625 L 29.332031 28.238281 L 29.332031 28.292969 C 29.335938 28.449219 29.300781 28.59375 29.238281 28.722656 C 29.488281 28.828125 29.730469 28.867188 29.746094 28.871094 L 29.828125 28.882812 L 29.839844 28.800781 C 29.84375 28.78125 29.882812 28.53125 29.863281 28.246094 C 29.816406 28.253906 29.769531 28.261719 29.722656 28.261719 Z M 29.722656 28.261719 "/>
<path style=" stroke:none;fill-rule:nonzero;fill:rgb(100%,100%,100%);fill-opacity:1;" d="M 26.664062 28.292969 L 26.664062 28.238281 L 26.679688 28.15625 L 26.605469 28.191406 L 26.582031 28.207031 L 26.558594 28.214844 C 26.46875 28.246094 26.375 28.261719 26.277344 28.261719 C 26.230469 28.261719 26.183594 28.253906 26.136719 28.246094 C 26.117188 28.53125 26.15625 28.78125 26.160156 28.800781 L 26.171875 28.882812 L 26.253906 28.871094 C 26.269531 28.867188 26.511719 28.828125 26.761719 28.722656 C 26.699219 28.59375 26.664062 28.445312 26.664062 28.292969 Z M 26.664062 28.292969 "/>
<path style=" stroke:none;fill-rule:nonzero;fill:rgb(100%,100%,100%);fill-opacity:1;" d="M 27.179688 14.644531 C 27.109375 14.644531 27.066406 14.738281 27.058594 14.914062 L 27.191406 14.914062 C 27.265625 14.914062 27.285156 14.890625 27.285156 14.8125 C 27.285156 14.710938 27.246094 14.644531 27.179688 14.644531 Z M 27.179688 14.644531 "/>
<path style=" stroke:none;fill-rule:nonzero;fill:rgb(100%,100%,100%);fill-opacity:1;" d="M 23.910156 14.367188 L 23.863281 14.367188 C 23.859375 14.515625 23.859375 14.660156 23.859375 14.8125 L 23.859375 14.871094 C 23.859375 15.027344 23.859375 15.175781 23.863281 15.320312 L 23.90625 15.320312 C 24.101562 15.320312 24.214844 15.144531 24.214844 14.84375 C 24.214844 14.542969 24.101562 14.367188 23.90625 14.367188 Z M 23.910156 14.367188 "/>
<path style=" stroke:none;fill-rule:nonzero;fill:rgb(100%,100%,100%);fill-opacity:1;" d="M 26.746094 11.632812 L 23.136719 11.632812 L 23.136719 18.007812 L 26.746094 18.007812 C 27.179688 18.007812 27.570312 18.214844 27.832031 18.539062 L 27.832031 12.773438 C 27.832031 12.144531 27.34375 11.632812 26.746094 11.632812 Z M 24.851562 14.105469 C 24.941406 14.105469 25.007812 14.171875 25.007812 14.261719 C 25.007812 14.355469 24.941406 14.417969 24.851562 14.417969 C 24.761719 14.417969 24.691406 14.351562 24.691406 14.261719 C 24.691406 14.171875 24.761719 14.105469 24.851562 14.105469 Z M 23.90625 15.457031 L 23.410156 15.457031 L 23.410156 15.335938 L 23.542969 15.320312 C 23.542969 15.175781 23.542969 15.03125 23.542969 14.878906 L 23.542969 14.816406 C 23.542969 14.671875 23.542969 14.523438 23.542969 14.378906 L 23.410156 14.363281 L 23.410156 14.242188 L 23.9375 14.242188 C 24.308594 14.242188 24.539062 14.476562 24.539062 14.847656 C 24.539062 15.222656 24.296875 15.460938 23.90625 15.460938 Z M 25.089844 15.457031 L 24.605469 15.457031 L 24.605469 15.347656 L 24.699219 15.324219 C 24.699219 15.242188 24.699219 15.132812 24.699219 15.0625 L 24.699219 14.976562 C 24.699219 14.878906 24.699219 14.828125 24.695312 14.757812 L 24.585938 14.742188 L 24.585938 14.652344 L 24.964844 14.523438 L 25.003906 14.550781 L 25 14.820312 L 25 15.0625 C 25 15.132812 25 15.242188 25 15.328125 L 25.089844 15.347656 Z M 25.449219 15.484375 C 25.335938 15.484375 25.234375 15.457031 25.140625 15.398438 L 25.132812 15.394531 L 25.136719 15.152344 L 25.296875 15.152344 L 25.328125 15.335938 C 25.371094 15.351562 25.40625 15.359375 25.449219 15.359375 C 25.542969 15.359375 25.589844 15.324219 25.589844 15.265625 C 25.589844 15.21875 25.566406 15.183594 25.453125 15.148438 L 25.359375 15.117188 C 25.214844 15.074219 25.140625 14.976562 25.140625 14.835938 C 25.140625 14.652344 25.292969 14.527344 25.515625 14.527344 C 25.609375 14.527344 25.691406 14.550781 25.792969 14.605469 L 25.800781 14.609375 L 25.785156 14.828125 L 25.625 14.828125 L 25.589844 14.667969 C 25.566406 14.660156 25.539062 14.65625 25.503906 14.65625 C 25.46875 14.65625 25.386719 14.664062 25.386719 14.746094 C 25.386719 14.78125 25.394531 14.8125 25.523438 14.851562 L 25.609375 14.878906 C 25.769531 14.925781 25.847656 15.023438 25.847656 15.171875 C 25.847656 15.367188 25.695312 15.488281 25.441406 15.488281 Z M 26.707031 14.808594 C 26.6875 14.878906 26.648438 14.914062 26.578125 14.914062 C 26.53125 14.914062 26.445312 14.886719 26.433594 14.730469 L 26.421875 14.652344 C 26.421875 14.652344 26.410156 14.652344 26.402344 14.652344 C 26.3125 14.652344 26.207031 14.738281 26.207031 14.980469 C 26.207031 15.175781 26.292969 15.292969 26.433594 15.292969 C 26.507812 15.292969 26.566406 15.261719 26.621094 15.195312 L 26.625 15.183594 L 26.703125 15.257812 L 26.699219 15.265625 C 26.632812 15.414062 26.507812 15.492188 26.332031 15.492188 C 26.027344 15.492188 25.890625 15.253906 25.890625 15.015625 C 25.890625 14.730469 26.085938 14.535156 26.367188 14.535156 C 26.550781 14.535156 26.691406 14.652344 26.703125 14.8125 L 26.703125 14.816406 Z M 27.28125 15.285156 C 27.359375 15.285156 27.421875 15.257812 27.480469 15.191406 L 27.492188 15.183594 L 27.566406 15.257812 L 27.5625 15.265625 C 27.492188 15.414062 27.363281 15.484375 27.1875 15.484375 C 26.917969 15.484375 26.746094 15.296875 26.746094 15.007812 C 26.746094 14.691406 26.972656 14.527344 27.199219 14.527344 C 27.425781 14.527344 27.570312 14.683594 27.570312 14.921875 C 27.570312 14.960938 27.570312 14.988281 27.558594 15.023438 L 27.558594 15.03125 L 27.0625 15.03125 C 27.074219 15.191406 27.152344 15.285156 27.28125 15.285156 Z M 27.28125 15.285156 "/>
<path style=" stroke:none;fill-rule:nonzero;fill:rgb(100%,100%,100%);fill-opacity:1;" d="M 29.128906 14.367188 L 29.082031 14.367188 C 29.078125 14.515625 29.078125 14.660156 29.078125 14.8125 L 29.078125 14.871094 C 29.078125 15.027344 29.078125 15.175781 29.082031 15.320312 L 29.125 15.320312 C 29.320312 15.320312 29.433594 15.144531 29.433594 14.84375 C 29.433594 14.542969 29.320312 14.367188 29.125 14.367188 Z M 29.128906 14.367188 "/>
<path style=" stroke:none;fill-rule:nonzero;fill:rgb(100%,100%,100%);fill-opacity:1;" d="M 30.269531 14.644531 C 30.179688 14.644531 30.136719 14.757812 30.136719 15.003906 C 30.136719 15.324219 30.214844 15.359375 30.269531 15.359375 C 30.359375 15.359375 30.402344 15.246094 30.402344 15.003906 C 30.402344 14.761719 30.359375 14.644531 30.269531 14.644531 Z M 30.269531 14.644531 "/>
<path style=" stroke:none;fill-rule:nonzero;fill:rgb(100%,100%,100%);fill-opacity:1;" d="M 29.253906 11.632812 C 28.652344 11.632812 28.164062 12.144531 28.164062 12.773438 L 28.164062 18.539062 C 28.425781 18.214844 28.816406 18.007812 29.253906 18.007812 L 32.859375 18.007812 L 32.859375 11.632812 Z M 29.125 15.453125 L 28.628906 15.453125 L 28.628906 15.332031 L 28.757812 15.320312 C 28.761719 15.175781 28.761719 15.027344 28.761719 14.875 L 28.761719 14.8125 C 28.761719 14.671875 28.761719 14.523438 28.757812 14.375 L 28.628906 14.359375 L 28.628906 14.238281 L 29.15625 14.238281 C 29.527344 14.238281 29.757812 14.472656 29.757812 14.847656 C 29.757812 15.21875 29.515625 15.457031 29.125 15.457031 Z M 30.269531 15.480469 C 29.996094 15.480469 29.820312 15.292969 29.820312 15 C 29.820312 14.726562 30.007812 14.523438 30.269531 14.523438 C 30.535156 14.523438 30.722656 14.71875 30.722656 15 C 30.722656 15.277344 30.546875 15.480469 30.269531 15.480469 Z M 31.589844 14.804688 C 31.566406 14.878906 31.527344 14.910156 31.460938 14.910156 C 31.410156 14.910156 31.324219 14.886719 31.316406 14.726562 L 31.304688 14.648438 C 31.304688 14.648438 31.289062 14.648438 31.28125 14.648438 C 31.191406 14.648438 31.085938 14.734375 31.085938 14.976562 C 31.085938 15.171875 31.171875 15.289062 31.316406 15.289062 C 31.386719 15.289062 31.445312 15.257812 31.5 15.191406 L 31.507812 15.183594 L 31.582031 15.253906 L 31.578125 15.265625 C 31.507812 15.410156 31.382812 15.488281 31.210938 15.488281 C 30.902344 15.488281 30.765625 15.25 30.765625 15.015625 C 30.765625 14.730469 30.964844 14.53125 31.246094 14.53125 C 31.429688 14.53125 31.570312 14.648438 31.582031 14.808594 L 31.582031 14.8125 Z M 32.160156 15.285156 C 32.238281 15.285156 32.300781 15.253906 32.363281 15.191406 L 32.371094 15.179688 L 32.445312 15.253906 L 32.441406 15.265625 C 32.371094 15.410156 32.242188 15.480469 32.070312 15.480469 C 31.800781 15.480469 31.625 15.292969 31.625 15.003906 C 31.625 14.691406 31.855469 14.523438 32.082031 14.523438 C 32.308594 14.523438 32.453125 14.679688 32.453125 14.921875 C 32.453125 14.957031 32.449219 14.988281 32.441406 15.019531 L 32.441406 15.027344 L 31.941406 15.027344 C 31.957031 15.191406 32.035156 15.28125 32.160156 15.28125 Z M 32.160156 15.285156 "/>
<path style=" stroke:none;fill-rule:nonzero;fill:rgb(100%,100%,100%);fill-opacity:1;" d="M 32.0625 14.644531 C 31.992188 14.644531 31.945312 14.738281 31.9375 14.914062 L 32.074219 14.914062 C 32.148438 14.914062 32.164062 14.890625 32.164062 14.8125 C 32.164062 14.710938 32.125 14.644531 32.058594 14.644531 Z M 32.0625 14.644531 "/>
<path style=" stroke:none;fill-rule:nonzero;fill:rgb(26.666668%,0%,60.000002%);fill-opacity:1;" d="M 34.839844 46.625 C 35.464844 46.625 35.957031 46.160156 35.957031 45.523438 C 35.957031 44.886719 35.464844 44.402344 34.839844 44.402344 C 34.21875 44.402344 33.710938 44.855469 33.710938 45.523438 C 33.710938 46.191406 34.203125 46.625 34.839844 46.625 Z M 34.839844 46.625 "/>
<path style=" stroke:none;fill-rule:nonzero;fill:rgb(26.666668%,0%,60.000002%);fill-opacity:1;" d="M 4.234375 34.683594 L 6.625 34.683594 L 6.625 35.171875 L 5.777344 35.277344 L 5.777344 38.699219 C 5.777344 40.902344 4.78125 41.78125 3.277344 41.78125 C 1.773438 41.78125 0.796875 40.976562 0.796875 38.992188 L 0.796875 37.855469 C 0.796875 37 0.796875 36.125 0.777344 35.257812 L 0 35.175781 L 0 34.6875 L 3.03125 34.6875 L 3.03125 35.175781 L 2.113281 35.28125 C 2.09375 36.125 2.09375 36.992188 2.09375 37.859375 L 2.09375 38.671875 C 2.09375 40.371094 2.652344 40.9375 3.628906 40.9375 C 4.605469 40.9375 5.203125 40.289062 5.203125 38.566406 L 5.203125 35.289062 L 4.234375 35.171875 Z M 4.234375 34.683594 "/>
<path style=" stroke:none;fill-rule:nonzero;fill:rgb(26.666668%,0%,60.000002%);fill-opacity:1;" d="M 6.746094 41.175781 L 7.394531 41.039062 C 7.40625 40.527344 7.40625 39.859375 7.40625 39.410156 L 7.40625 38.855469 C 7.40625 38.28125 7.394531 38.019531 7.375 37.601562 L 6.675781 37.507812 L 6.675781 37.113281 L 8.339844 36.457031 L 8.5 36.5625 L 8.570312 37.363281 C 9.078125 36.761719 9.65625 36.457031 10.265625 36.457031 C 11.132812 36.457031 11.621094 37.03125 11.621094 38.324219 L 11.621094 39.410156 C 11.621094 39.878906 11.621094 40.535156 11.628906 41.046875 L 12.238281 41.171875 L 12.238281 41.597656 L 9.773438 41.597656 L 9.773438 41.171875 L 10.414062 41.035156 C 10.421875 40.523438 10.421875 39.878906 10.421875 39.40625 L 10.421875 38.417969 C 10.421875 37.601562 10.222656 37.332031 9.722656 37.332031 C 9.375 37.332031 9.007812 37.5 8.609375 37.84375 L 8.609375 39.410156 C 8.609375 39.867188 8.609375 40.527344 8.617188 41.046875 L 9.207031 41.171875 L 9.207031 41.597656 L 6.742188 41.597656 L 6.742188 41.171875 Z M 6.746094 41.175781 "/>
<path style=" stroke:none;fill-rule:nonzero;fill:rgb(26.666668%,0%,60.000002%);fill-opacity:1;" d="M 12.746094 41.175781 L 13.402344 41.039062 C 13.410156 40.527344 13.410156 39.859375 13.410156 39.410156 L 13.410156 38.917969 C 13.410156 38.347656 13.402344 38.023438 13.382812 37.605469 L 12.671875 37.511719 L 12.671875 37.117188 L 14.46875 36.457031 L 14.628906 36.5625 L 14.597656 38.035156 L 14.597656 39.410156 C 14.597656 39.859375 14.597656 40.527344 14.605469 41.050781 L 15.214844 41.175781 L 15.214844 41.601562 L 12.742188 41.601562 L 12.742188 41.175781 Z M 12.746094 41.175781 "/>
<path style=" stroke:none;fill-rule:nonzero;fill:rgb(26.666668%,0%,60.000002%);fill-opacity:1;" d="M 18.441406 36.601562 L 20.335938 36.601562 L 20.335938 37.042969 L 19.777344 37.167969 L 18.140625 41.644531 L 17.554688 41.644531 L 15.75 37.136719 L 15.230469 37.042969 L 15.230469 36.601562 L 17.851562 36.601562 L 17.851562 37.042969 L 17.082031 37.167969 L 18.179688 40.191406 L 19.167969 37.179688 L 18.4375 37.042969 L 18.4375 36.601562 Z M 18.441406 36.601562 "/>
<path style=" stroke:none;fill-rule:nonzero;fill:rgb(26.666668%,0%,60.000002%);fill-opacity:1;" d="M 20.410156 39.128906 C 20.410156 37.457031 21.578125 36.457031 22.832031 36.457031 C 24.007812 36.457031 24.785156 37.292969 24.785156 38.554688 C 24.785156 38.792969 24.765625 38.972656 24.726562 39.128906 L 21.679688 39.128906 C 21.726562 40.328125 22.335938 40.921875 23.171875 40.921875 C 23.761719 40.921875 24.140625 40.652344 24.46875 40.265625 L 24.757812 40.535156 C 24.371094 41.308594 23.691406 41.746094 22.765625 41.746094 C 21.371094 41.746094 20.414062 40.765625 20.414062 39.128906 Z M 21.6875 38.636719 L 23.050781 38.636719 C 23.53125 38.636719 23.652344 38.421875 23.652344 38.042969 C 23.652344 37.40625 23.25 36.960938 22.765625 36.960938 C 22.277344 36.960938 21.765625 37.398438 21.6875 38.636719 Z M 21.6875 38.636719 "/>
<path style=" stroke:none;fill-rule:nonzero;fill:rgb(26.666668%,0%,60.000002%);fill-opacity:1;" d="M 29.703125 41.308594 L 29.695312 40.097656 L 30.363281 40.097656 L 30.542969 41.070312 C 30.78125 41.175781 31.027344 41.226562 31.316406 41.226562 C 31.996094 41.226562 32.324219 40.964844 32.324219 40.515625 C 32.324219 40.128906 32.085938 39.910156 31.445312 39.691406 L 30.949219 39.515625 C 30.199219 39.265625 29.742188 38.78125 29.742188 38.042969 C 29.742188 37.179688 30.410156 36.457031 31.636719 36.457031 C 32.203125 36.457031 32.652344 36.613281 33.121094 36.886719 L 33.070312 37.980469 L 32.414062 37.980469 L 32.234375 37.105469 C 32.042969 37.023438 31.855469 36.980469 31.617188 36.980469 C 31.085938 36.980469 30.78125 37.230469 30.78125 37.636719 C 30.78125 38.015625 30.980469 38.203125 31.65625 38.441406 L 32.054688 38.566406 C 33.023438 38.910156 33.398438 39.421875 33.398438 40.140625 C 33.398438 41.082031 32.652344 41.75 31.308594 41.75 C 30.699219 41.75 30.210938 41.601562 29.703125 41.308594 Z M 29.703125 41.308594 "/>
<path style=" stroke:none;fill-rule:nonzero;fill:rgb(26.666668%,0%,60.000002%);fill-opacity:1;" d="M 33.808594 41.175781 L 34.464844 41.039062 C 34.472656 40.527344 34.472656 39.859375 34.472656 39.410156 L 34.472656 38.917969 C 34.472656 38.347656 34.464844 38.023438 34.445312 37.605469 L 33.738281 37.511719 L 33.738281 37.117188 L 35.53125 36.457031 L 35.691406 36.5625 L 35.660156 38.035156 L 35.660156 39.410156 C 35.660156 39.859375 35.660156 40.527344 35.671875 41.050781 L 36.277344 41.175781 L 36.277344 41.601562 L 33.804688 41.601562 L 33.804688 41.175781 Z M 33.808594 41.175781 "/>
<path style=" stroke:none;fill-rule:nonzero;fill:rgb(26.666668%,0%,60.000002%);fill-opacity:1;" d="M 37.078125 40.433594 C 37.078125 40.117188 37.089844 39.871094 37.089844 39.460938 L 37.089844 37.238281 L 36.351562 37.238281 L 36.351562 36.695312 L 37.15625 36.589844 L 37.535156 35.160156 L 38.34375 35.160156 L 38.304688 36.601562 L 39.5 36.601562 L 39.5 37.238281 L 38.292969 37.238281 L 38.292969 40.316406 C 38.292969 40.828125 38.503906 41.058594 38.824219 41.058594 C 39.023438 41.058594 39.203125 40.972656 39.429688 40.796875 L 39.667969 41.058594 C 39.410156 41.496094 38.96875 41.746094 38.355469 41.746094 C 37.558594 41.746094 37.078125 41.347656 37.078125 40.429688 Z M 37.078125 40.433594 "/>
<path style=" stroke:none;fill-rule:nonzero;fill:rgb(26.666668%,0%,60.000002%);fill-opacity:1;" d="M 47.453125 39.105469 C 47.453125 37.4375 48.570312 36.457031 49.855469 36.457031 C 51.144531 36.457031 52.269531 37.425781 52.269531 39.105469 C 52.269531 40.785156 51.199219 41.746094 49.855469 41.746094 C 48.511719 41.746094 47.453125 40.765625 47.453125 39.105469 Z M 50.960938 39.117188 C 50.960938 37.675781 50.574219 36.96875 49.855469 36.96875 C 49.140625 36.96875 48.757812 37.675781 48.757812 39.117188 C 48.757812 40.554688 49.136719 41.234375 49.855469 41.234375 C 50.574219 41.234375 50.960938 40.554688 50.960938 39.117188 Z M 50.960938 39.117188 "/>
<path style=" stroke:none;fill-rule:nonzero;fill:rgb(26.666668%,0%,60.000002%);fill-opacity:1;" d="M 0.210938 55.179688 L 0.300781 52.941406 L 1.441406 52.941406 L 1.738281 54.824219 C 2.199219 55.042969 2.644531 55.148438 3.238281 55.148438 C 4.472656 55.148438 5.214844 54.496094 5.214844 53.46875 C 5.214844 52.550781 4.738281 52.132812 3.65625 51.664062 L 3.046875 51.398438 C 1.414062 50.667969 0.390625 49.753906 0.390625 48.101562 C 0.390625 46.269531 1.832031 45.164062 3.910156 45.164062 C 4.933594 45.164062 5.839844 45.472656 6.523438 45.972656 L 6.417969 48.074219 L 5.289062 48.074219 L 4.996094 46.269531 C 4.640625 46.097656 4.296875 46.019531 3.882812 46.019531 C 2.886719 46.019531 2.097656 46.59375 2.097656 47.605469 C 2.097656 48.507812 2.648438 49.003906 3.628906 49.425781 L 4.265625 49.707031 C 6.199219 50.5625 6.953125 51.429688 6.953125 52.957031 C 6.953125 54.792969 5.558594 56.003906 3.253906 56.003906 C 2.140625 56.003906 0.984375 55.695312 0.210938 55.179688 Z M 0.210938 55.179688 "/>
<path style=" stroke:none;fill-rule:nonzero;fill:rgb(26.666668%,0%,60.000002%);fill-opacity:1;" d="M 7.496094 55.101562 L 8.476562 54.898438 C 8.492188 54.136719 8.492188 53.140625 8.492188 52.472656 L 8.492188 45.800781 L 7.410156 45.644531 L 7.410156 45.039062 L 10.066406 44.339844 L 10.289062 44.480469 L 10.230469 46.671875 L 10.230469 49.453125 C 10.988281 48.535156 11.863281 48.070312 12.769531 48.070312 C 14.0625 48.070312 14.804688 48.925781 14.804688 50.851562 L 14.804688 52.46875 C 14.804688 53.167969 14.804688 54.148438 14.820312 54.910156 L 15.726562 55.097656 L 15.726562 55.734375 L 12.058594 55.734375 L 12.058594 55.097656 L 13.007812 54.894531 C 13.019531 54.132812 13.019531 53.167969 13.019531 52.46875 L 13.019531 50.992188 C 13.019531 49.777344 12.738281 49.375 11.996094 49.375 C 11.433594 49.375 10.882812 49.65625 10.273438 50.261719 L 10.273438 52.46875 C 10.273438 53.152344 10.273438 54.132812 10.289062 54.910156 L 11.167969 55.097656 L 11.167969 55.734375 L 7.496094 55.734375 L 7.496094 55.097656 Z M 7.496094 55.101562 "/>
<path style=" stroke:none;fill-rule:nonzero;fill:rgb(26.666668%,0%,60.000002%);fill-opacity:1;" d="M 16.175781 52.054688 C 16.175781 49.566406 17.914062 48.070312 19.785156 48.070312 C 21.535156 48.070312 22.695312 49.316406 22.695312 51.199219 C 22.695312 51.554688 22.664062 51.820312 22.605469 52.054688 L 18.0625 52.054688 C 18.136719 53.84375 19.039062 54.730469 20.289062 54.730469 C 21.164062 54.730469 21.730469 54.324219 22.21875 53.75 L 22.648438 54.152344 C 22.070312 55.304688 21.0625 55.957031 19.679688 55.957031 C 17.601562 55.957031 16.175781 54.496094 16.175781 52.054688 Z M 18.078125 51.324219 L 20.113281 51.324219 C 20.824219 51.324219 21.003906 50.996094 21.003906 50.433594 C 21.003906 49.488281 20.40625 48.820312 19.679688 48.820312 C 18.953125 48.820312 18.195312 49.472656 18.078125 51.324219 Z M 18.078125 51.324219 "/>
<path style=" stroke:none;fill-rule:nonzero;fill:rgb(26.666668%,0%,60.000002%);fill-opacity:1;" d="M 36.886719 52.054688 C 36.886719 49.566406 38.625 48.070312 40.496094 48.070312 C 42.25 48.070312 43.40625 49.316406 43.40625 51.199219 C 43.40625 51.554688 43.375 51.820312 43.316406 52.054688 L 38.773438 52.054688 C 38.847656 53.84375 39.753906 54.730469 41 54.730469 C 41.878906 54.730469 42.441406 54.324219 42.933594 53.75 L 43.363281 54.152344 C 42.78125 55.304688 41.773438 55.957031 40.390625 55.957031 C 38.3125 55.957031 36.886719 54.496094 36.886719 52.054688 Z M 38.789062 51.324219 L 40.824219 51.324219 C 41.535156 51.324219 41.714844 50.996094 41.714844 50.433594 C 41.714844 49.488281 41.121094 48.820312 40.390625 48.820312 C 39.664062 48.820312 38.90625 49.472656 38.789062 51.324219 Z M 38.789062 51.324219 "/>
<path style=" stroke:none;fill-rule:nonzero;fill:rgb(26.666668%,0%,60.000002%);fill-opacity:1;" d="M 43.9375 55.101562 L 44.949219 54.898438 C 44.964844 54.089844 44.976562 53.28125 44.976562 52.472656 L 44.976562 45.800781 L 43.894531 45.644531 L 43.894531 45.039062 L 46.597656 44.339844 L 46.820312 44.480469 L 46.761719 46.671875 L 46.761719 52.472656 C 46.761719 53.28125 46.777344 54.089844 46.789062 54.898438 L 47.800781 55.101562 L 47.800781 55.738281 L 43.9375 55.738281 Z M 43.9375 55.101562 "/>
<path style=" stroke:none;fill-rule:nonzero;fill:rgb(26.666668%,0%,60.000002%);fill-opacity:1;" d="M 53.296875 54.929688 C 52.75 55.597656 52.09375 55.957031 51.21875 55.957031 C 49.464844 55.957031 48.21875 54.476562 48.21875 52.082031 C 48.21875 49.6875 49.6875 48.070312 51.441406 48.070312 C 52.199219 48.070312 52.777344 48.351562 53.3125 49.003906 L 53.3125 45.800781 L 52.152344 45.644531 L 52.152344 45.035156 L 54.871094 44.335938 L 55.09375 44.476562 L 55.035156 46.667969 L 55.035156 54.929688 L 56 55.101562 L 56 55.738281 L 53.414062 55.910156 Z M 51.929688 54.851562 C 52.449219 54.851562 52.851562 54.632812 53.238281 54.214844 L 53.238281 49.75 C 52.777344 49.332031 52.390625 49.160156 51.945312 49.160156 C 50.949219 49.160156 50.117188 50.0625 50.117188 52.050781 C 50.117188 53.933594 50.875 54.851562 51.929688 54.851562 Z M 51.929688 54.851562 "/>
<path style=" stroke:none;fill-rule:nonzero;fill:rgb(26.666668%,0%,60.000002%);fill-opacity:1;" d="M 28.65625 36.457031 C 28 36.441406 27.511719 36.855469 27.164062 37.792969 L 27.0625 36.5625 L 26.902344 36.457031 L 25.238281 37.113281 L 25.238281 37.507812 L 25.9375 37.601562 C 25.957031 38.019531 25.96875 38.28125 25.96875 38.855469 L 25.96875 39.410156 C 25.96875 39.859375 25.96875 40.527344 25.957031 41.046875 L 25.320312 41.171875 L 25.320312 41.597656 L 28 41.597656 L 28 41.171875 L 27.183594 41.003906 C 27.175781 40.492188 27.175781 39.847656 27.175781 39.40625 L 27.175781 38.644531 C 27.324219 38.089844 27.617188 37.597656 27.980469 37.324219 C 28.054688 37.625 28.324219 37.832031 28.65625 37.832031 C 29.042969 37.832031 29.347656 37.542969 29.347656 37.148438 C 29.347656 36.75 29.042969 36.460938 28.65625 36.453125 Z M 28.65625 36.457031 "/>
<path style=" stroke:none;fill-rule:nonzero;fill:rgb(26.666668%,0%,60.000002%);fill-opacity:1;" d="M 35.761719 54.914062 C 35.75 54.136719 35.75 53.15625 35.75 52.472656 L 35.75 50.417969 L 35.792969 47.996094 L 35.570312 47.855469 L 33.902344 48.289062 L 31.003906 48.289062 C 31.003906 48.289062 31.003906 47.148438 31.003906 46.746094 C 31.003906 46.347656 31.027344 45.5 31.558594 45.195312 C 31.558594 45.195312 31.484375 45.335938 31.496094 45.597656 C 31.527344 46.046875 31.882812 46.371094 32.34375 46.371094 C 32.804688 46.371094 33.183594 46.019531 33.183594 45.539062 C 33.183594 45.09375 32.835938 44.402344 31.820312 44.402344 C 30.925781 44.402344 29.261719 44.890625 29.261719 48.238281 L 29.261719 48.289062 L 26.183594 48.289062 L 26.183594 46.75 C 26.183594 46.347656 26.207031 45.503906 26.738281 45.195312 C 26.738281 45.195312 26.664062 45.339844 26.675781 45.601562 C 26.707031 46.050781 27.0625 46.371094 27.523438 46.371094 C 27.984375 46.371094 28.363281 46.023438 28.363281 45.542969 C 28.363281 45.09375 28.015625 44.40625 27 44.40625 C 26.105469 44.40625 24.441406 44.890625 24.441406 48.242188 L 24.441406 48.277344 L 23.3125 48.433594 L 23.3125 49.242188 L 24.414062 49.242188 L 24.414062 52.476562 C 24.414062 53.285156 24.398438 54.09375 24.382812 54.902344 L 23.386719 55.105469 L 23.386719 55.742188 L 27.398438 55.742188 L 27.398438 55.105469 L 26.238281 54.871094 C 26.222656 54.078125 26.210938 53.269531 26.210938 52.476562 L 26.210938 49.242188 L 29.226562 49.242188 L 29.226562 52.476562 C 29.226562 53.285156 29.214844 54.09375 29.199219 54.902344 L 28.203125 55.105469 L 28.203125 55.742188 L 32.214844 55.742188 L 32.214844 55.105469 L 31.054688 54.871094 C 31.039062 54.078125 31.027344 53.269531 31.027344 52.476562 L 31.027344 49.242188 L 33.902344 49.242188 C 33.929688 49.882812 33.941406 50.582031 33.941406 51.527344 L 33.941406 52.476562 C 33.941406 53.144531 33.941406 54.136719 33.925781 54.902344 L 32.960938 55.105469 L 32.960938 55.742188 L 36.644531 55.742188 L 36.644531 55.105469 L 35.757812 54.917969 Z M 35.761719 54.914062 "/>
<path style=" stroke:none;fill-rule:nonzero;fill:rgb(26.666668%,0%,60.000002%);fill-opacity:1;" d="M 43.285156 36.601562 L 43.285156 37.019531 L 44.042969 37.144531 L 42.957031 40.328125 L 41.839844 37.136719 L 42.628906 37.019531 L 42.628906 36.601562 L 40.015625 36.601562 L 40.015625 37.019531 L 40.527344 37.105469 L 42.417969 41.933594 L 42.398438 41.996094 C 42.21875 42.527344 41.960938 43.007812 41.601562 43.363281 C 41.542969 43.050781 41.289062 42.847656 40.96875 42.847656 C 40.597656 42.847656 40.316406 43.109375 40.316406 43.5 C 40.316406 43.886719 40.597656 44.136719 40.96875 44.136719 L 40.984375 44.136719 C 41.851562 44.136719 42.359375 43.386719 42.9375 41.789062 L 44.640625 37.136719 L 45.199219 37.023438 L 45.199219 36.605469 L 43.289062 36.605469 Z M 43.285156 36.601562 "/>
<path style=" stroke:none;fill-rule:nonzero;fill:rgb(26.666668%,0%,60.000002%);fill-opacity:1;" d="M 55.714844 36.601562 L 54.507812 36.601562 C 54.507812 36.601562 54.507812 35.796875 54.507812 35.527344 C 54.507812 35.257812 54.523438 34.6875 54.882812 34.480469 C 54.882812 34.480469 54.832031 34.574219 54.839844 34.753906 C 54.859375 35.054688 55.101562 35.273438 55.414062 35.273438 C 55.726562 35.273438 55.980469 35.035156 55.980469 34.710938 C 55.980469 34.410156 55.746094 33.941406 55.058594 33.941406 C 54.457031 33.941406 53.332031 34.269531 53.332031 36.535156 L 53.332031 36.601562 L 52.570312 36.707031 L 52.570312 37.242188 L 53.3125 37.242188 L 53.3125 39.394531 C 53.3125 39.941406 53.304688 40.488281 53.292969 41.035156 L 52.621094 41.171875 L 52.621094 41.601562 L 55.328125 41.601562 L 55.328125 41.171875 L 54.546875 41.011719 C 54.539062 40.476562 54.527344 39.929688 54.527344 39.394531 L 54.527344 37.238281 L 55.714844 37.238281 Z M 55.714844 36.601562 "/>
<path style=" stroke:none;fill-rule:nonzero;fill:rgb(26.666668%,0%,60.000002%);fill-opacity:1;" d="M 34.304688 34.746094 C 34.304688 34.296875 34.632812 33.996094 35.0625 33.996094 C 35.492188 33.996094 35.808594 34.296875 35.808594 34.746094 C 35.808594 35.195312 35.480469 35.488281 35.0625 35.488281 C 34.644531 35.488281 34.304688 35.171875 34.304688 34.746094 Z M 34.304688 34.746094 "/>
<path style=" stroke:none;fill-rule:nonzero;fill:rgb(26.666668%,0%,60.000002%);fill-opacity:1;" d="M 13.242188 34.746094 C 13.242188 34.296875 13.574219 33.996094 14 33.996094 C 14.429688 33.996094 14.75 34.296875 14.75 34.746094 C 14.75 35.195312 14.417969 35.488281 14 35.488281 C 13.585938 35.488281 13.242188 35.171875 13.242188 34.746094 Z M 13.242188 34.746094 "/>
</g>
</svg>
