<?xml version="1.0" encoding="UTF-8"?>
<svg xmlns="http://www.w3.org/2000/svg" xmlns:xlink="http://www.w3.org/1999/xlink" width="56px" height="56px" viewBox="0 0 56 56" version="1.1">
<g id="surface1">
<path style=" stroke:none;fill-rule:nonzero;fill:rgb(100%,100%,100%);fill-opacity:1;" d="M 13.445312 0 L 42.554688 0 C 49.980469 0 56 6.035156 56 13.476562 L 56 42.523438 C 56 49.964844 49.980469 56 42.554688 56 L 13.445312 56 C 6.019531 56 0 49.964844 0 42.523438 L 0 13.476562 C 0 6.035156 6.019531 0 13.445312 0 Z M 13.445312 0 "/>
<path style=" stroke:none;fill-rule:nonzero;fill:rgb(1.960784%,21.568628%,42.352942%);fill-opacity:1;" d="M 11.464844 27.734375 C 11.832031 26.488281 12.199219 25.246094 12.589844 24.003906 C 11.714844 23.089844 10.765625 22.445312 9.621094 22.445312 C 8.457031 22.445312 7.140625 23.089844 5.703125 24.003906 C 5.335938 25.246094 4.96875 26.488281 4.597656 27.734375 C 4.210938 28.976562 3.84375 30.222656 3.476562 31.484375 C 4.890625 30.589844 6.207031 29.988281 7.355469 29.988281 C 8.515625 29.988281 9.46875 30.589844 10.339844 31.484375 C 10.707031 30.222656 11.09375 28.976562 11.464844 27.734375 "/>
<path style=" stroke:none;fill-rule:nonzero;fill:rgb(1.960784%,21.568628%,42.352942%);fill-opacity:1;" d="M 35.117188 29.210938 C 35.320312 28.929688 35.472656 28.613281 35.5625 28.277344 C 35.835938 27.402344 35.738281 26.742188 35.292969 26.3125 C 35.253906 26.253906 35.195312 26.21875 35.117188 26.160156 C 34.691406 25.847656 33.933594 25.675781 32.90625 25.675781 L 30.171875 25.675781 L 27.960938 33.195312 L 27.960938 33.214844 L 30.542969 33.214844 L 31.277344 30.707031 L 31.800781 30.707031 C 32.035156 30.707031 32.269531 30.6875 32.5 30.667969 C 33.160156 30.570312 33.742188 30.378906 34.246094 30.046875 C 34.589844 29.832031 34.886719 29.546875 35.117188 29.210938 M 33.179688 28.121094 C 33.117188 28.386719 32.949219 28.609375 32.714844 28.742188 C 32.648438 28.789062 32.578125 28.820312 32.5 28.839844 C 32.308594 28.917969 32.074219 28.957031 31.78125 28.957031 L 32.269531 27.285156 L 32.5 27.285156 C 32.773438 27.304688 32.984375 27.363281 33.101562 27.5 C 33.238281 27.636719 33.253906 27.851562 33.179688 28.121094 "/>
<path style=" stroke:none;fill-rule:nonzero;fill:rgb(1.960784%,21.568628%,42.352942%);fill-opacity:1;" d="M 22.167969 29.347656 L 22.378906 28.589844 L 20.632812 28.589844 L 20.945312 27.5 L 22.941406 27.5 L 23.484375 25.671875 L 18.964844 25.671875 L 19.433594 24.019531 L 12.628906 24.019531 L 18.894531 25.71875 L 17.222656 31.484375 L 10.28125 31.484375 L 16.71875 33.214844 L 19.277344 33.214844 L 20.109375 30.375 L 21.855469 30.375 Z M 22.167969 29.347656 "/>
<path style=" stroke:none;fill-rule:nonzero;fill:rgb(1.960784%,21.568628%,42.352942%);fill-opacity:1;" d="M 52.550781 26.3125 C 52.121094 25.886719 51.308594 25.671875 50.144531 25.671875 L 47.410156 25.671875 L 45.878906 30.921875 L 45.199219 33.214844 L 47.777344 33.214844 L 48.515625 30.707031 L 49.039062 30.707031 C 49.269531 30.707031 49.503906 30.6875 49.738281 30.667969 C 50.398438 30.570312 50.976562 30.378906 51.480469 30.046875 C 52.160156 29.617188 52.605469 29.035156 52.820312 28.277344 C 53.089844 27.402344 52.996094 26.742188 52.550781 26.316406 M 50.417969 28.121094 C 50.316406 28.414062 50.183594 28.609375 49.949219 28.746094 C 49.886719 28.789062 49.8125 28.820312 49.738281 28.839844 C 49.546875 28.917969 49.3125 28.957031 49.019531 28.957031 L 49.503906 27.285156 L 49.734375 27.285156 C 50.007812 27.304688 50.21875 27.363281 50.335938 27.5 C 50.472656 27.636719 50.488281 27.847656 50.414062 28.121094 "/>
<path style=" stroke:none;fill-rule:nonzero;fill:rgb(1.960784%,21.568628%,42.352942%);fill-opacity:1;" d="M 45.414062 29.773438 C 45.277344 29.445312 44.890625 29.035156 44.269531 28.53125 C 44.269531 28.511719 44.25 28.511719 44.214844 28.472656 C 43.863281 28.199219 43.710938 27.964844 43.765625 27.773438 C 43.808594 27.628906 43.910156 27.511719 44.039062 27.441406 C 44.191406 27.355469 44.367188 27.304688 44.542969 27.304688 C 44.777344 27.304688 44.988281 27.363281 45.242188 27.460938 C 45.464844 27.566406 45.679688 27.6875 45.878906 27.828125 C 45.902344 27.863281 45.9375 27.890625 45.976562 27.90625 L 46.539062 25.960938 C 46.324219 25.863281 46.105469 25.777344 45.878906 25.707031 C 45.765625 25.691406 45.667969 25.652344 45.570312 25.632812 C 45.246094 25.554688 44.914062 25.515625 44.582031 25.515625 C 43.746094 25.515625 43.011719 25.730469 42.371094 26.140625 C 41.710938 26.546875 41.300781 27.074219 41.109375 27.714844 C 41.011719 28.082031 41.011719 28.433594 41.128906 28.742188 C 41.265625 29.074219 41.632812 29.523438 42.234375 30.105469 C 42.582031 30.472656 42.738281 30.726562 42.679688 30.902344 C 42.636719 31.070312 42.523438 31.210938 42.371094 31.289062 C 42.207031 31.394531 42.019531 31.445312 41.828125 31.445312 C 41.597656 31.445312 41.34375 31.367188 41.070312 31.25 C 40.863281 31.148438 40.660156 31.03125 40.46875 30.902344 C 40.378906 30.847656 40.292969 30.785156 40.21875 30.707031 L 39.597656 32.789062 C 39.871094 32.957031 40.164062 33.09375 40.46875 33.199219 C 40.488281 33.21875 40.527344 33.21875 40.546875 33.234375 C 40.882812 33.320312 41.226562 33.367188 41.574219 33.371094 C 42.523438 33.371094 43.339844 33.136719 44.039062 32.691406 C 44.734375 32.246094 45.199219 31.660156 45.414062 30.921875 C 45.550781 30.476562 45.527344 30.105469 45.414062 29.777344 "/>
<path style=" stroke:none;fill-rule:nonzero;fill:rgb(1.960784%,21.568628%,42.352942%);fill-opacity:1;" d="M 37.695312 31.269531 L 38.007812 30.222656 L 39.789062 30.222656 L 40.3125 28.472656 L 38.511719 28.472656 L 38.800781 27.5 L 40.78125 27.5 L 41.320312 25.671875 L 36.746094 25.671875 L 35.117188 31.210938 L 34.554688 33.214844 L 39.113281 33.214844 L 39.695312 31.269531 Z M 37.695312 31.269531 "/>
<path style=" stroke:none;fill-rule:nonzero;fill:rgb(1.960784%,21.568628%,42.352942%);fill-opacity:1;" d="M 27.960938 25.671875 L 25.074219 25.671875 L 22.167969 30.863281 L 20.847656 33.210938 L 23.347656 33.210938 L 23.871094 32.105469 L 25.40625 32.105469 L 25.269531 33.210938 L 27.769531 33.210938 L 27.960938 25.808594 Z M 25.597656 30.589844 L 24.570312 30.589844 L 25.230469 29.191406 L 25.886719 27.789062 Z M 25.597656 30.589844 "/>
</g>
</svg>
