<svg version="1.0" xmlns="http://www.w3.org/2000/svg" preserveAspectRatio="xMidYMid meet" viewBox="31.72 30.02 336.58 338.85"><rect id="backgroundrect" width="100%" height="100%" x="0" y="0" fill="none" stroke="none"/>


<g class="currentLayer" style=""><title>Layer 1</title><rect fill="#03ef61" style="color: rgb(4, 25, 44);" stroke-dashoffset="" fill-rule="nonzero" id="svg_3" x="31.72625732421875" y="30.038234055042267" width="336.5474920272827" height="338.8062000274658" class="" fill-opacity="1" rx="80" ry="80"/><g transform="translate(0, 400) scale(0.1, -0.1)" fill="#04192c" stroke="none" id="svg_1" class="" fill-opacity="1">
<path d="M1071 3302 c-48 -24 -73 -62 -82 -124 -12 -88 -11 -1637 2 -1683 14 -51 43 -83 96 -107 31 -14 53 -17 80 -12 21 4 182 89 359 190 176 101 328 186 337 190 16 6 17 -15 17 -252 0 -315 -2 -307 115 -375 211 -121 773 -439 788 -444 15 -6 210 95 222 116 3 4 -5 14 -17 22 -19 12 -614 350 -826 469 l-52 30 2 289 3 290 135 78 c74 43 276 158 448 255 171 98 312 181 312 184 0 10 -198 122 -214 122 -8 0 -164 -86 -347 -190 l-334 -190 -5 310 -5 310 -25 24 c-14 13 -219 135 -455 270 -386 220 -435 246 -475 246 -25 0 -60 -8 -79 -18z m534 -475 l270 -155 2 -324 3 -323 -329 -187 c-181 -104 -332 -188 -335 -188 -3 0 -6 315 -6 701 l0 701 63 -35 c34 -20 184 -105 332 -190z" id="svg_2" fill="#04192c" fill-opacity="1"/>
</g></g></svg>