<svg version="1.1" xmlns="http://www.w3.org/2000/svg" viewBox="11.62 13.55 250.03 250.05"><rect id="backgroundrect" width="100%" height="100%" x="0" y="0" fill="none" stroke="none" style="" class=""/>













<g class="currentLayer" style=""><title>Layer 1</title><rect fill="#000032" style="color: rgb(0, 0, 50);" stroke-dashoffset="" fill-rule="nonzero" id="svg_14" x="11.642847061157227" y="13.571427345275879" width="250" height="250" class="" fill-opacity="1" rx="60" ry="60"/><path d="M50.92857027053833,78.13794982433319 C58.04934199053832,77.90775246433319 65.15713248053834,77.70897841433319 72.27866793053829,77.58863341433317 C74.69805888053833,77.53846544433318 77.11714846053832,77.47031097433319 79.53550386053837,77.38355529433318 C83.02144878053832,77.26166910433318 86.5033772805383,77.20542226433321 89.99107027053833,77.16138732433319 C91.0653427305383,77.10977447433316 92.13961519053828,77.05816161433319 93.24644136053826,77.00498473433319 C97.9184509805383,77.00152665433319 100.76792419053834,77.10483381433318 104.34392977053835,80.2879132043332 C106.39139109053826,82.8225866843332 108.18362720053835,85.3885609243332 109.92857027053833,88.13794982433319 C110.90469098053836,89.4971363743332 111.88632671053836,90.85241340433319 112.87778902053833,92.20044982433319 C113.79352697053832,93.5108741143332 114.70624337053835,94.82341460433321 115.61607027053833,96.13794982433319 C116.63469276053831,97.59561654433318 117.6542603705384,99.0526231643332 118.67466402053833,100.50904357433319 C119.19915132053836,101.25782775433319 119.72363863053829,102.0066119343332 120.26401949053832,102.77808654433318 C123.20186303053833,106.9431196443332 126.19012292053833,111.07164682433319 129.17857027053833,115.20044982433319 C129.75180025053828,115.9925787343332 130.32503023053835,116.78470763433319 130.91563082053835,117.60084044433319 C132.25252250053836,119.4470925743332 133.59010625053838,121.29283742433319 134.92857027053833,123.13794982433319 C138.19151784053838,122.05030063433318 138.55026945053828,121.64943765433318 140.38950777053833,118.95435607433319 C140.8546176305383,118.28275451433319 141.3197275005383,117.61115294433318 141.79893160053825,116.91919982433319 C142.2954623605383,116.18701232433318 142.79199312053834,115.4548248243332 143.30357027053833,114.70044982433319 C144.3768224905383,113.14899951433318 145.4510759205383,111.5982414243332 146.52622652053833,110.04810607433319 C147.36178072053826,108.83791808433318 147.36178072053826,108.83791808433318 148.21421480053834,107.6032818543332 C151.0107115605383,103.58177456433319 153.87287304053825,99.6084922643332 156.74107027053833,95.63794982433319 C157.2552450705383,94.92195617433319 157.7694198805384,94.20596252433319 158.29917574053832,93.4682720943332 C159.2822302305383,92.10613843433319 160.27720641053838,90.75249248433317 161.2864499105383,89.4096478243332 C162.9551482705383,87.1671916743332 162.9551482705383,87.1671916743332 164.34684420053827,84.78811156433318 C166.6380119905383,81.2690706843332 168.39389058053825,78.6042728443332 172.52187777053837,77.3499554443332 C175.64144266053836,77.09704318433319 178.64151260053836,77.12448276433321 181.76841402053833,77.25904357433319 C183.45155451053836,77.2781453643332 183.45155451053836,77.2781453643332 185.16869783053835,77.29763305433318 C188.73672944053828,77.3478349343332 192.29958856053827,77.46071240433321 195.86607027053833,77.57544982433319 C198.29112678053832,77.6206130843332 200.7162633905383,77.66167441433319 203.14146089053838,77.6984967043332 C209.07407005053835,77.78983006433319 214.9955659305383,77.96588632433318 220.92857027053833,78.13794982433319 C220.92857027053833,89.6879498243332 220.92857027053833,101.23794982433319 220.92857027053833,113.13794982433319 C216.63857027053837,113.13794982433319 212.3485702705383,113.13794982433319 207.92857027053833,113.13794982433319 C207.92857027053833,130.2979498243332 207.92857027053833,147.45794982433318 207.92857027053833,165.1379498243332 C212.2185702705383,165.1379498243332 216.50857027053837,165.1379498243332 220.92857027053833,165.1379498243332 C220.92857027053833,176.6879498243332 220.92857027053833,188.2379498243332 220.92857027053833,200.1379498243332 C199.47857027053828,200.1379498243332 178.02857027053835,200.1379498243332 155.92857027053833,200.1379498243332 C156.25857027053826,188.58794982433318 156.5885702705383,177.03794982433317 156.92857027053833,165.1379498243332 C161.2185702705383,165.1379498243332 165.50857027053826,165.1379498243332 169.92857027053833,165.1379498243332 C169.5985702705384,155.23794982433319 169.26857027053836,145.33794982433318 168.92857027053833,135.1379498243332 C161.80689213053836,144.7773929643332 154.69590904053825,154.42224984433318 147.67857027053833,164.1379498243332 C147.13047701053836,164.89640197433317 146.58238375053838,165.65485412433316 146.01768160053825,166.43628966433317 C143.9438075505384,169.31285835433317 141.89602775053834,172.18676360433318 139.92857027053833,175.1379498243332 C139.26857027053836,175.1379498243332 138.6085702705384,175.1379498243332 137.92857027053833,175.1379498243332 C136.93857027053832,177.1179498243332 136.93857027053832,177.1179498243332 135.92857027053833,179.1379498243332 C132.64841191053836,176.0581631243332 130.1275317305383,172.76069499433322 127.55357027053833,169.0754498243332 C122.72380012053827,162.2092536843332 117.75729924053826,155.4505283643332 112.7513241805384,148.71192443433318 C109.69623288053833,144.5869011643332 106.7282041205383,140.44083534433318 103.92857027053833,136.1379498243332 C102.09637381053835,137.9701462843332 102.68955699053834,140.89508723433318 102.61216402053833,143.3606060743332 C102.54932222053833,145.2506939643332 102.54932222053833,145.2506939643332 102.48521089053838,147.1789654443332 C102.4453943105384,148.5194571843332 102.40568213053837,149.8599520243332 102.36607027053833,151.2004498243332 C102.32288985053833,152.54486505433317 102.27927571053829,153.8892664243332 102.23521089053838,155.2336529443332 C102.12871744053837,158.53494995433317 102.02810277053834,161.8364356143332 101.92857027053833,165.1379498243332 C106.54857027053833,165.1379498243332 111.16857027053834,165.1379498243332 115.92857027053833,165.1379498243332 C115.92857027053833,176.6879498243332 115.92857027053833,188.2379498243332 115.92857027053833,200.1379498243332 C94.47857027053828,200.1379498243332 73.02857027053835,200.1379498243332 50.92857027053833,200.1379498243332 C50.92857027053833,188.58794982433318 50.92857027053833,177.03794982433317 50.92857027053833,165.1379498243332 C55.21857027053835,165.1379498243332 59.508570270538314,165.1379498243332 63.92857027053833,165.1379498243332 C63.92857027053833,147.9779498243332 63.92857027053833,130.8179498243332 63.92857027053833,113.13794982433319 C59.63857027053837,113.13794982433319 55.348570270538346,113.13794982433319 50.92857027053833,113.13794982433319 C50.92857027053833,101.58794982433318 50.92857027053833,90.0379498243332 50.92857027053833,78.13794982433319 zM101.92857027053833,133.1379498243332 C102.92857027053833,135.1379498243332 102.92857027053833,135.1379498243332 102.92857027053833,135.1379498243332 z" fill="#FDCA07" id="svg_1" class=""/></g></svg>