<?xml version="1.0" encoding="UTF-8"?>
<svg version="1.1" xmlns="http://www.w3.org/2000/svg" width="800" height="800">
<path d="M0 0 C2.02044703 -0.00302833 4.04089292 -0.0069212 6.06133682 -0.01159257 C11.55886572 -0.02179353 17.05632883 -0.0197111 22.55386293 -0.01541197 C28.50428922 -0.01293025 34.45470026 -0.02197678 40.40512085 -0.02944946 C52.04192019 -0.04215869 63.67869783 -0.04400058 75.31550279 -0.0416492 C84.78090263 -0.03981036 94.24629572 -0.04158849 103.71169472 -0.04587364 C105.07575871 -0.04647607 106.4398227 -0.04707726 107.80388669 -0.04767724 C109.85987635 -0.04858458 111.91586602 -0.04949326 113.97185569 -0.0504096 C133.06642821 -0.05882879 152.1609982 -0.063182 171.25557232 -0.05900288 C172.33338529 -0.05876831 172.33338529 -0.05876831 173.43297226 -0.05852901 C177.07410461 -0.05772333 180.71523695 -0.05687756 184.35636928 -0.05601571 C185.07939652 -0.05584462 185.80242377 -0.05567353 186.54736093 -0.05549726 C188.00949469 -0.0551506 189.47162846 -0.05480207 190.93376222 -0.05445167 C213.67483571 -0.04909678 236.4158704 -0.05702253 259.15693665 -0.07548523 C284.75890706 -0.09624669 310.36085345 -0.10692004 335.96283275 -0.10290974 C338.69787617 -0.10251445 341.4329196 -0.1021529 344.16796303 -0.10181236 C344.8413051 -0.10172163 345.51464718 -0.1016309 346.20839356 -0.10153742 C356.32946745 -0.10037625 366.45051691 -0.10698292 376.5715847 -0.11762428 C388.09583644 -0.12957751 399.62003109 -0.13089897 411.14428367 -0.11883412 C417.0146235 -0.11297292 422.88485911 -0.11176899 428.7551918 -0.12383652 C474.33186979 -0.21110703 474.33186979 -0.21110703 493.27436829 3.26069641 C494.12545555 3.41016106 494.97654282 3.55962571 495.85342062 3.71361959 C528.20436652 9.43694048 556.60232163 22.48978184 580.27436829 45.26069641 C580.97948547 45.89104797 581.68460266 46.52139954 582.41108704 47.17085266 C603.59499353 66.72192255 614.29396291 97.19245934 620.14936829 124.57319641 C620.34055237 125.46546936 620.53173645 126.35774231 620.72871399 127.27705383 C623.91480646 143.40131389 624.57042061 159.59236617 624.5350647 175.979599 C624.53809304 177.99933334 624.54198591 180.01906653 624.54665726 182.03879774 C624.55685821 187.53439603 624.5547758 193.02992851 624.55047667 198.52553201 C624.54799493 204.47393242 624.55704153 210.42231757 624.56451416 216.37071228 C624.57722357 228.00383662 624.57906523 239.63693924 624.5767139 251.2700692 C624.57487499 260.73307677 624.57665333 270.19607759 624.58093834 279.65908432 C624.58154076 281.02285667 624.58214196 282.38662902 624.58274194 283.75040137 C624.58364928 285.80596485 624.58455796 287.86152833 624.58547429 289.91709181 C624.59389362 309.00809094 624.59824663 328.09908754 624.59406757 347.19008827 C624.5939112 347.90850503 624.59375482 348.6269218 624.59359371 349.36710877 C624.59278803 353.00759315 624.59194226 356.64807752 624.5910804 360.2885619 C624.59090932 361.01145794 624.59073823 361.73435399 624.59056196 362.47915597 C624.5902153 363.94102481 624.58986677 365.40289364 624.58951637 366.86476247 C624.58416209 389.5991321 624.59208545 412.33346292 624.61054993 435.06782532 C624.63131448 460.66357939 624.6419841 486.25930942 624.63797444 511.85507238 C624.63757915 514.58985289 624.6372176 517.3246334 624.63687706 520.05941391 C624.63678633 520.73268856 624.6366956 521.40596322 624.63660212 522.09964013 C624.63544123 532.21716453 624.64204549 542.33466448 624.65268898 552.45218277 C624.66464607 563.97384407 624.66595943 575.49544827 624.65389881 587.01711042 C624.64804015 592.88554889 624.64682649 598.75388314 624.65890121 604.62231445 C624.76308215 658.93171779 624.76308215 658.93171779 618.52436829 683.13569641 C618.26687805 684.16195129 618.00938782 685.18820618 617.74409485 686.24555969 C610.87442897 712.7634596 599.1267986 735.28932689 580.27436829 755.26069641 C579.64014954 755.94776672 579.00593079 756.63483704 578.35249329 757.34272766 C551.05644493 785.93590228 505.78402432 799.20207079 467.24938335 800.31941241 C461.3369612 800.41826401 455.42383405 800.40418446 449.51077271 800.40113831 C447.49723097 800.40372505 445.48368974 800.40673906 443.47014922 800.41014171 C437.95456306 800.41817892 432.43898994 800.41999945 426.92339861 800.42073917 C420.96738185 800.4225955 415.01137177 800.43014582 409.05535889 800.43687439 C395.35989543 800.45114252 381.66443296 800.45698169 367.96896376 800.46156633 C361.19161757 800.46390673 354.41427222 800.4675099 347.63692669 800.47126171 C324.40802391 800.48409489 301.17912159 800.4948133 277.95021534 800.49826431 C276.49344191 800.49848594 275.03666849 800.49870772 273.57989506 800.49892966 C272.11972901 800.4991503 270.65956296 800.49937078 269.19939691 800.49959111 C266.27036718 800.50003365 263.34133746 800.50048077 260.41230774 800.50093079 C259.32297331 800.50109487 259.32297331 800.50109487 258.21163212 800.50126227 C234.68699952 800.50488937 211.16239781 800.52079748 187.63777702 800.54412115 C162.72893849 800.56877175 137.82011758 800.58243961 112.91126651 800.58363223 C110.17160491 800.58380367 107.43194332 800.58401909 104.69228172 800.58426666 C104.01776764 800.58432243 103.34325356 800.5843782 102.64829966 800.58443566 C92.50607825 800.58551092 82.36388561 800.59478076 72.22167397 800.60845184 C60.66795395 800.62390934 49.11428687 800.62894018 37.56055848 800.62071374 C31.67406933 800.61682694 25.7876866 800.61763968 19.90121078 800.63177109 C-25.6534846 800.73492193 -25.6534846 800.73492193 -44.72563171 797.26069641 C-45.98430652 797.04623493 -47.24298132 796.83177345 -48.53979778 796.61081314 C-51.26948661 796.12635423 -53.96145616 795.56841216 -56.66313171 794.94819641 C-58.07828064 794.62854919 -58.07828064 794.62854919 -59.52201843 794.30244446 C-86.05035051 788.08760797 -109.99683363 776.13883322 -129.72563171 757.26069641 C-130.5338739 756.52721985 -131.34211609 755.79374329 -132.17485046 755.03804016 C-161.5242623 727.43945666 -173.97974348 682.95026741 -175.84129037 643.83014767 C-176.01884524 637.76229296 -175.99937497 631.6939393 -175.98632812 625.62408447 C-175.9893558 623.60108839 -175.99324835 621.57809345 -175.99792069 619.5551005 C-176.00813026 614.04584136 -176.00603697 608.5366478 -176.0017401 603.02738345 C-175.99925993 597.06601374 -176.00830305 591.1046593 -176.01577759 585.14329529 C-176.0284916 573.4826292 -176.03032806 561.82198136 -176.02797733 550.16131031 C-176.02613886 540.67587226 -176.02791584 531.19044095 -176.03220177 521.70500374 C-176.03280419 520.33829114 -176.03340539 518.97157853 -176.03400537 517.60486593 C-176.03491271 515.54489465 -176.03582138 513.48492338 -176.03673772 511.42495211 C-176.0451581 492.29072926 -176.04950936 473.15650894 -176.045331 454.02228451 C-176.04517463 453.30211887 -176.04501825 452.58195323 -176.04485713 451.83996439 C-176.04405145 448.19057263 -176.04320568 444.54118088 -176.04234383 440.89178913 C-176.0420872 439.80478214 -176.0420872 439.80478214 -176.04182538 438.69581542 C-176.04147873 437.23035583 -176.0411302 435.76489624 -176.0407798 434.29943666 C-176.03542605 411.5115242 -176.04334692 388.72365047 -176.06181335 365.93574524 C-176.08257783 340.2824997 -176.09324749 314.62927814 -176.08923787 288.97602373 C-176.08884258 286.23504897 -176.08848102 283.49407421 -176.08814049 280.75309944 C-176.08804976 280.07829514 -176.08795902 279.40349083 -176.08786554 278.70823791 C-176.0867046 268.56713886 -176.09330945 258.4260642 -176.10395241 248.28497124 C-176.1159095 236.73583739 -176.11722291 225.1867605 -176.10516224 213.63762581 C-176.0993034 207.75501752 -176.09809039 201.87251319 -176.11016464 195.98991203 C-176.21426508 141.58936274 -176.21426508 141.58936274 -169.97563171 117.38569641 C-169.71814148 116.35944153 -169.46065125 115.33318665 -169.19535828 114.27583313 C-159.63984669 77.39018187 -139.14616719 43.96228756 -105.72563171 24.26069641 C-72.81562255 5.9597876 -37.23194143 -0.08029915 0 0 Z " fill="#DE0504" transform="translate(175.7256317138672,-0.2606964111328125)"/>
<path d="M0 0 C0.23171501 13.19514546 0.40938976 26.38980699 0.51812172 39.58657265 C0.57030927 45.71453334 0.6410874 51.84110219 0.75439453 57.96826172 C0.86306489 63.88170405 0.9228444 69.7938081 0.94877243 75.70817184 C0.96724817 77.96420748 1.00332961 80.22016989 1.05730057 82.47563553 C1.46477661 100.20981041 1.46477661 100.20981041 -2.19143677 104.67828369 C-4.7949932 106.25985109 -7.08333156 107.16905293 -10 108 C-13.39761711 110.24666281 -16.69812295 112.61531102 -20 115 C-20.74765625 115.52851563 -21.4953125 116.05703125 -22.265625 116.6015625 C-26.16251076 119.41598 -29.10933291 122.11255115 -32 126 C-34.5 128.5 -34.5 128.5 -37 131 C-56.94391845 151.05755901 -63.10254922 182.88169549 -63.25 210 C-63.12690536 227.6736545 -59.92947124 242.87601879 -54.61083984 259.71020508 C-54 262 -54 262 -54 265 C-53.34 265 -52.68 265 -52 265 C-51.52691406 266.01578125 -51.05382812 267.0315625 -50.56640625 268.078125 C-41.37540615 287.38322847 -27.59071433 305.03110724 -9.3046875 316.546875 C-7.73939295 317.53380648 -6.2028135 318.5674887 -4.6953125 319.640625 C19.94660433 336.68269832 52.96028192 342.22462704 82.3125 342.25 C83.01831207 342.25067474 83.72412415 342.25134949 84.45132446 342.25204468 C96.5128246 342.23382103 108.16614671 341.42298959 120 339 C120.8981543 338.81775879 121.79630859 338.63551758 122.72167969 338.44775391 C133.23836606 336.25387562 143.3043914 333.73238039 153 329 C153.92522461 328.56083252 153.92522461 328.56083252 154.86914062 328.11279297 C163.611628 323.95905561 172.03543986 319.53556106 180 314 C180.73089844 313.49339844 181.46179688 312.98679687 182.21484375 312.46484375 C204.34805082 296.17512354 218.94801166 272.31447627 226 246 C226.19754883 245.3090625 226.39509766 244.618125 226.59863281 243.90625 C235.14178393 213.48088695 231.07839233 177.25683415 217 149 C210.89199279 138.30475473 203.12016689 128.12132591 193.53125 120.33984375 C192 119 192 119 191 117 C189.37297069 116.05089957 187.74165286 115.10841097 186.08984375 114.203125 C183.11246903 112.48904759 180.31935767 110.52850782 177.50390625 108.5625 C174.14270698 106.46502776 170.54367609 104.77183805 167 103 C167 69.01 167 35.02 167 0 C177.69951216 1.78325203 187.15238367 6.4043953 196.7109375 11.3515625 C200.09699672 13.04861356 203.50640228 14.54064905 207 16 C207 16.66 207 17.32 207 18 C207.71542969 18.26296875 208.43085937 18.5259375 209.16796875 18.796875 C217.11577416 22.17332199 224.22839369 27.6993297 231 33 C232.06541016 33.804375 232.06541016 33.804375 233.15234375 34.625 C238.79278342 38.97968221 244.04167655 43.70739427 249.25 48.5625 C249.92353516 49.18761475 250.59707031 49.81272949 251.29101562 50.45678711 C282.68245681 80.02016588 300.28234209 122.05148431 307.60801697 163.82356262 C307.97949227 165.88613336 308.37901215 167.94118729 308.78564453 169.99707031 C310.84403114 180.78483317 311.43955856 191.23361544 311.33618164 202.20361328 C311.31257516 204.8665213 311.3156559 207.5284195 311.32226562 210.19140625 C311.29657024 227.18162725 309.85692198 243.86902532 306.3125 260.5 C305.92384766 262.34682373 305.92384766 262.34682373 305.52734375 264.23095703 C303.2014992 274.85092937 299.97087335 284.89610236 296 295 C295.49968733 296.33012291 295.00092425 297.66082999 294.50390625 298.9921875 C290.96289204 308.31510725 286.58075543 317.15239877 282 326 C281.34 326 280.68 326 280 326 C279.814375 326.78375 279.62875 327.5675 279.4375 328.375 C277.77836007 332.55891807 275.53747955 335.7522265 272.90234375 339.37890625 C271.71800759 341.01071234 270.55919859 342.6617545 269.44140625 344.33984375 C263.41928904 353.36551069 256.10224861 362.71537182 248 370 C247.34 370 246.68 370 246 370 C246 370.66 246 371.32 246 372 C245.21625 372.2475 244.4325 372.495 243.625 372.75 C240.91611873 373.7017939 240.91611873 373.7017939 240.1640625 375.75390625 C235.32352893 385.09386196 223.50917519 391.5963188 214.76025391 396.90722656 C213.03282971 397.97961917 211.34852708 399.09799869 209.66796875 400.2421875 C202.97093076 404.77308347 196.11771064 408.584814 188.8125 412.0625 C187.98596924 412.45695312 187.15943848 412.85140625 186.30786133 413.2578125 C180.39286952 416 180.39286952 416 177 416 C177 416.66 177 417.32 177 418 C176.16597656 418.25394531 175.33195312 418.50789063 174.47265625 418.76953125 C167.08468322 421.0206776 167.08468322 421.0206776 159.75 423.4375 C158.16816752 423.96287397 156.58458147 424.48297644 155 425 C153.83726562 425.3815625 152.67453125 425.763125 151.4765625 426.15625 C134.5159972 431.53419287 116.80020532 434.67921537 99 435 C97.88512207 435.02578125 96.77024414 435.0515625 95.62158203 435.078125 C58.50921179 435.8400882 18.66753953 432.73613215 -14.75805664 415.11791992 C-16.98768378 414.00614134 -19.21443871 413.13987907 -21.5625 412.3125 C-48.3807153 401.79473119 -73.85281871 380.05755718 -92 358 C-92.40186523 357.51192871 -92.80373047 357.02385742 -93.21777344 356.52099609 C-98.55931088 349.9913665 -103.60744107 343.33902223 -108.1875 336.25 C-108.57405762 335.65364746 -108.96061523 335.05729492 -109.35888672 334.44287109 C-112 330.26019515 -112 330.26019515 -112 328 C-112.66 328 -113.32 328 -114 328 C-119.859375 316.28125 -119.859375 316.28125 -120.93139648 314.13085938 C-121.63245606 312.73290462 -122.34009565 311.33822628 -123.05493164 309.94726562 C-125.30145786 305.55140067 -127.23477012 301.13279028 -128.9375 296.5 C-129.19128418 295.81276855 -129.44506836 295.12553711 -129.70654297 294.41748047 C-139.5769919 267.34618675 -144.56285281 240.05927235 -144.39111328 211.20703125 C-144.37501091 208.00217154 -144.39107993 204.7985723 -144.41015625 201.59375 C-144.43845963 173.05696601 -138.63646418 146.7533743 -129 120 C-128.71253906 119.20142578 -128.42507812 118.40285156 -128.12890625 117.58007812 C-121.76334848 100.26515185 -112.11892291 84.65081607 -101 70 C-100.34644531 69.13375 -99.69289062 68.2675 -99.01953125 67.375 C-95.14547715 62.39064998 -90.99248916 57.67084826 -86.75 53 C-85.98840576 52.15296509 -85.98840576 52.15296509 -85.21142578 51.28881836 C-82.69194478 48.5573678 -80.51060884 46.3373748 -77 45 C-77 44.34 -77 43.68 -77 43 C-74.89019755 41.1903117 -72.77300156 39.49127643 -70.5625 37.8125 C-69.92014404 37.31782227 -69.27778809 36.82314453 -68.6159668 36.31347656 C-67.32960345 35.32289763 -66.04162019 34.33441841 -64.75195312 33.34814453 C-62.58171386 31.67812485 -60.44964791 29.96205827 -58.3125 28.25 C-53.43274052 24.46863657 -48.26268729 21.21808648 -43 18 C-42.10925781 17.43410156 -41.21851563 16.86820313 -40.30078125 16.28515625 C-29.6205796 9.71616193 -12.90280991 0 0 0 Z " fill="#030202" transform="translate(317,194)"/>
<path d="M0 0 C1.7110909 1.26024877 3.39856737 2.55311225 5.0625 3.875 C5.89910156 4.53242188 6.73570312 5.18984375 7.59765625 5.8671875 C11.96057247 9.7406058 14.64300776 13.9051933 17.1875 19.125 C17.69667969 20.15882813 18.20585937 21.19265625 18.73046875 22.2578125 C20.65210754 26.40855229 21.12933601 29.43475093 21.14717102 33.97459412 C21.15432632 35.2234993 21.16148163 36.47240448 21.16885376 37.75915527 C21.17169408 39.14599584 21.1744058 40.53283668 21.17700195 41.91967773 C21.18326784 43.37846539 21.18991475 44.83725145 21.19691467 46.29603577 C21.21795465 51.09187713 21.2283217 55.88771879 21.23828125 60.68359375 C21.24232979 62.33728616 21.24644674 63.99097841 21.25063133 65.64467049 C21.26968828 73.41985753 21.28391438 81.1950351 21.2922433 88.97024101 C21.30199728 97.9269331 21.32826635 106.88337683 21.36874419 115.8399815 C21.39899228 122.7726583 21.41372066 129.70526432 21.41702431 136.63800579 C21.41936626 140.77329819 21.42821335 144.90832546 21.45348549 149.04354668 C21.47692182 152.94161635 21.48093772 156.83924933 21.47072411 160.73737144 C21.47023227 162.15946157 21.47644734 163.58157433 21.49028015 165.00359726 C21.61812509 178.93882711 18.74197259 190.94202853 8.89453125 201.19140625 C4.32708041 205.46012537 -0.17337503 208.72431817 -6 211 C-6.72445312 211.29777344 -7.44890625 211.59554687 -8.1953125 211.90234375 C-17.74555409 215.32214973 -29.06993467 215.50006879 -38.6640625 212.10546875 C-49.55626976 206.95079541 -59.20008545 198.15108883 -63.86177158 186.92465115 C-66.37906879 179.37545457 -66.43191929 172.06818765 -66.40405273 164.17797852 C-66.4097661 162.70668014 -66.41673407 161.2353862 -66.42485046 159.76409912 C-66.44268999 155.7950063 -66.44163104 151.82613566 -66.43590808 147.85701489 C-66.43280297 144.53216482 -66.43892327 141.2073566 -66.44494683 137.88251251 C-66.45896007 130.03353689 -66.45745738 122.18467018 -66.44604492 114.33569336 C-66.43456539 106.26263308 -66.4486438 98.18990509 -66.4754414 90.11688858 C-66.49765544 83.16198418 -66.50422301 76.20718365 -66.49836498 69.25224632 C-66.49500798 65.1087373 -66.4973263 60.96544123 -66.51461601 56.82196236 C-66.53017464 52.92376178 -66.52603198 49.02605052 -66.50731087 45.12786865 C-66.50364955 43.7053683 -66.50666096 42.28283096 -66.51719666 40.86036491 C-66.57706484 32.10215337 -65.6514819 25.00948801 -62 17 C-61.34 17 -60.68 17 -60 17 C-59.773125 16.113125 -59.54625 15.22625 -59.3125 14.3125 C-57.77792709 10.43953027 -56.10312511 8.75833343 -53 6 C-52.43667969 5.49210938 -51.87335938 4.98421875 -51.29296875 4.4609375 C-37.6111054 -7.64110285 -15.71106152 -10.56650847 0 0 Z " fill="#040202" transform="translate(423,177)"/>
<path d="M0 0 C4.39241169 3.02167631 6.55202702 6.31665252 8.75 11.0625 C9.05292969 11.68705078 9.35585938 12.31160156 9.66796875 12.95507812 C12.04355453 17.90157563 13.12532955 21.53415741 13.13371277 27.00823975 C13.13797775 28.26437073 13.14224274 29.52050171 13.14663696 30.81469727 C13.14628744 32.20947269 13.1458259 33.60424809 13.14526367 34.99902344 C13.14825544 36.46592291 13.15165801 37.93282159 13.15544128 39.39971924 C13.16428553 43.38749193 13.16661963 47.37524316 13.16725707 51.36302471 C13.16820637 54.69285759 13.17188506 58.02268546 13.17542917 61.35251641 C13.18357598 69.21125049 13.18601326 77.06997312 13.18530273 84.92871094 C13.18470244 93.03057714 13.19524408 101.13237666 13.2110464 109.23422599 C13.22413337 116.19230326 13.22948612 123.15035878 13.22884732 130.10844827 C13.2285926 134.26305499 13.23142948 138.41760251 13.24202538 142.57219696 C13.25172536 146.48247173 13.25177253 150.39263094 13.24450874 154.30290985 C13.24346514 155.73514983 13.24581247 157.16739708 13.2518692 158.59962463 C13.30458371 171.93276141 13.30458371 171.93276141 11 178 C10.67 178 10.34 178 10 178 C9.80593522 176.35492782 9.61992065 174.70890406 9.4375 173.0625 C9.33308594 172.14597656 9.22867187 171.22945312 9.12109375 170.28515625 C9.08113281 169.53105469 9.04117187 168.77695312 9 168 C9.33 167.67 9.66 167.34 10 167 C10.10082828 165.17272842 10.13076928 163.34152355 10.13371277 161.51147461 C10.13797775 160.31988235 10.14224274 159.1282901 10.14663696 157.90058899 C10.14618378 156.58116806 10.14573059 155.26174713 10.14526367 153.90234375 C10.14825379 152.50794891 10.15165598 151.1135549 10.15544128 149.71916199 C10.16430613 145.91914692 10.16662059 142.11915435 10.16725707 138.31912994 C10.16820522 135.14616151 10.17188291 131.97319835 10.17542917 128.80023193 C10.18358515 121.30773656 10.18601257 113.81525321 10.18530273 106.32275391 C10.18470343 98.60382485 10.19522317 90.88496603 10.2110464 83.16605473 C10.22415013 76.53664605 10.22948536 69.90726022 10.22884732 63.27783871 C10.22859292 59.31987483 10.23141126 55.36197316 10.24202538 51.40402222 C10.25175263 47.67433667 10.25175402 43.94477214 10.24450874 40.21508217 C10.24297469 38.20459529 10.2512796 36.1941083 10.25994873 34.18363953 C10.23122344 25.86871902 9.89440139 17.55972034 6 10 C5.01 9.34 4.02 8.68 3 8 C2.4375 6.125 2.4375 6.125 2 4 C1.36345658 2.6520257 0.70394612 1.31403276 0 0 Z " fill="#2D0000" transform="translate(431,184)"/>
<path d="M0 0 C0.66 0 1.32 0 2 0 C4.1519437 3.22791555 4.20086443 4.28400809 4 8 C4.66 8 5.32 8 6 8 C6.87513366 11.75710286 7.11652824 15.21179839 7.0957489 19.06565857 C7.09159973 20.28391327 7.08745056 21.50216797 7.08317566 22.75733948 C7.07338387 24.09921346 7.06347707 25.44108661 7.0534668 26.78295898 C7.0465929 28.2025127 7.04014422 29.62206853 7.03408813 31.04162598 C7.01619763 34.89082344 6.99163382 38.73995053 6.96532798 42.58909869 C6.94380642 45.8047883 6.92516323 49.02049229 6.90639621 52.23619896 C6.86191536 59.82360034 6.81162946 67.41094886 6.75805664 74.99829102 C6.70295351 82.82068156 6.6589559 90.64308087 6.62020558 98.46556801 C6.58644222 105.18677789 6.54511204 111.90791353 6.49788028 118.62904221 C6.46980412 122.64103256 6.4447366 126.65298558 6.4272213 130.66503716 C6.41047346 134.43832605 6.38428728 138.21143421 6.35091019 141.98461151 C6.34026378 143.3672601 6.33294456 144.74993904 6.32924461 146.13262367 C6.32365495 148.02425042 6.30473374 149.91582362 6.28520203 151.80735779 C6.27837245 152.8646128 6.27154287 153.92186781 6.26450634 155.01116085 C5.977079 158.2590002 5.14396276 160.95662265 4 164 C2.95584348 160.57782154 2.88415238 157.45989051 2.89993286 153.89169312 C2.90289368 152.63852295 2.90585449 151.38535278 2.90890503 150.09420776 C2.91722855 148.70782429 2.92562328 147.32144125 2.93408203 145.93505859 C2.93927647 144.47288165 2.94398435 143.01070292 2.94824219 141.54852295 C2.95818006 138.4001134 2.97102906 135.2517337 2.98596573 132.10334396 C3.00905371 127.11835625 3.02234103 122.13337255 3.03366089 117.14834595 C3.06707083 102.97270586 3.10859007 88.79712462 3.17138672 74.62158203 C3.20598841 66.79211175 3.22974718 58.96268553 3.24159515 51.13314688 C3.24834633 46.99348764 3.26072304 42.85401524 3.28662491 38.71442795 C3.31101842 34.81561246 3.32126853 30.91700916 3.32102966 27.01811981 C3.3234362 25.59357223 3.33094363 24.16902187 3.34415817 22.74453354 C3.41616411 14.63885091 2.94370269 7.60416692 0 0 Z " fill="#B40D0C" transform="translate(440,195)"/>
<path d="M0 0 C1.65 0 3.3 0 5 0 C5.33 0.66 5.66 1.32 6 2 C4.68 2 3.36 2 2 2 C2 35.99 2 69.98 2 105 C3.65 105.66 5.3 106.32 7 107 C12.72806984 109.88049489 18.09584887 112.83890207 23 117 C23.64195312 117.29777344 24.28390625 117.59554687 24.9453125 117.90234375 C27.21224129 119.11338366 28.33999287 120.3167224 29.9375 122.3125 C31.80903612 124.5915098 33.65530488 126.65530488 35.75 128.75 C38 131 38 131 40 134 C37.5625 133.1875 37.5625 133.1875 35 132 C34.67 131.01 34.34 130.02 34 129 C32.3663139 127.63169753 32.3663139 127.63169753 30.4375 126.4375 C28.49609375 125.18359375 28.49609375 125.18359375 27 124 C27 123.34 27 122.68 27 122 C26.34 122 25.68 122 25 122 C25 121.34 25 120.68 25 120 C24.46375 119.7525 23.9275 119.505 23.375 119.25 C21 118 21 118 18.5 116.25 C14.52474759 113.50104654 10.09932596 111.64359499 5.70703125 109.66015625 C2.4275878 107.64895356 1.5727492 106.51593602 0 103 C-0.4236461 99.65691528 -0.37898483 96.34300183 -0.34057617 92.97729492 C-0.34101425 91.97194702 -0.34145233 90.96659912 -0.34190369 89.93078613 C-0.33981672 86.61381488 -0.31648943 83.29735152 -0.29296875 79.98046875 C-0.28737248 77.67833228 -0.28310253 75.37619223 -0.28010559 73.0740509 C-0.2686593 67.01919668 -0.23919369 60.96455885 -0.20599365 54.90979004 C-0.1752883 48.72960334 -0.16159924 42.54938164 -0.14648438 36.36914062 C-0.11432401 24.24599875 -0.06313003 12.12301738 0 0 Z " fill="#A61213" transform="translate(482,192)"/>
<path d="M0 0 C0 33.66 0 67.32 0 102 C-2.475 102.99 -2.475 102.99 -5 104 C-4.34 103.01 -3.68 102.02 -3 101 C-2.69111705 99.05973844 -2.69111705 99.05973844 -2.7215271 96.91877747 C-2.71036362 96.09006638 -2.69920013 95.26135529 -2.68769836 94.40753174 C-2.68553818 93.50194519 -2.68337799 92.59635864 -2.68115234 91.66333008 C-2.67110672 90.70704208 -2.6610611 89.75075409 -2.65071106 88.76548767 C-2.6197855 85.60017506 -2.60281783 82.43494738 -2.5859375 79.26953125 C-2.5672334 77.07662724 -2.54766056 74.88373048 -2.5272522 72.69084167 C-2.47584496 66.91558094 -2.43626521 61.14029686 -2.39910889 55.3649292 C-2.35912307 49.47304465 -2.30800603 43.58125799 -2.2578125 37.68945312 C-2.16095149 26.12637075 -2.07657928 14.56323323 -2 3 C-3.44370086 3.29937071 -4.88618274 3.6046239 -6.328125 3.91235352 C-7.1315332 4.08170914 -7.93494141 4.25106476 -8.76269531 4.42555237 C-11.55244411 5.14184488 -13.62757437 6.31881376 -16 7.9375 C-26.57461509 14.65781613 -26.57461509 14.65781613 -32.2578125 13.56640625 C-32.83273437 13.37949219 -33.40765625 13.19257813 -34 13 C-27.85426606 9.72328191 -21.55829987 6.90450027 -15.125 4.25 C-14.38773682 3.94441162 -13.65047363 3.63882324 -12.89086914 3.32397461 C-4.74913486 0 -4.74913486 0 0 0 Z " fill="#2E0000" transform="translate(317,194)"/>
<path d="M0 0 C1.34316136 4.02948407 0.24138024 5.77762912 -1.1875 9.75 C-5.07981079 20.95239221 -7.9475349 32.23698709 -10.1875 43.875 C-10.35451416 44.7427002 -10.52152832 45.61040039 -10.69360352 46.50439453 C-12.39853027 55.67045983 -13.16543953 64.6147295 -13.23828125 73.9375 C-13.2527681 75.48301544 -13.2527681 75.48301544 -13.26754761 77.05975342 C-13.29226649 80.37320579 -13.30492432 83.68646552 -13.3125 87 C-13.31545074 88.12571411 -13.31840149 89.25142822 -13.32144165 90.41125488 C-13.33115971 106.65578252 -12.73114475 122.12573653 -9 138 C-8.67458867 139.47992242 -8.35154653 140.96036843 -8.03125 142.44140625 C-7.52239389 144.77601923 -6.99132414 147.10616579 -6.41796875 149.42578125 C-5.99739467 152.01604591 -6.14329344 153.54643905 -7 156 C-11.55016384 142.92502327 -13.37770752 130.00833219 -14.69042969 116.25219727 C-14.88130115 113.96968792 -14.88130115 113.96968792 -16 112 C-16.09016377 110.39645548 -16.11756075 108.78917778 -16.11352539 107.18310547 C-16.11344986 106.18221893 -16.11337433 105.1813324 -16.11329651 104.15011597 C-16.10813522 103.06674957 -16.10297394 101.98338318 -16.09765625 100.8671875 C-16.0962413 99.76021515 -16.09482635 98.6532428 -16.09336853 97.51272583 C-16.08775772 93.96679007 -16.07520337 90.42091677 -16.0625 86.875 C-16.05748639 84.47526133 -16.05292325 82.07552167 -16.04882812 79.67578125 C-16.03778478 73.78383275 -16.0210361 67.89192084 -16 62 C-15.34 62 -14.68 62 -14 62 C-14.03480469 61.23558594 -14.06960937 60.47117187 -14.10546875 59.68359375 C-14.33107255 50.75612902 -12.99690855 42.67963222 -11 34 C-10.66654189 32.45836032 -10.33318752 30.91669819 -10 29.375 C-9.66955676 27.91600909 -9.3358439 26.45775721 -9 25 C-8.73960937 23.86691406 -8.47921875 22.73382813 -8.2109375 21.56640625 C-7.47625651 18.3770668 -6.7391733 15.18830083 -6 12 C-5.34 12 -4.68 12 -4 12 C-4.0825 11.319375 -4.165 10.63875 -4.25 9.9375 C-3.90053135 5.83124335 -2.18150968 3.47678105 0 0 Z " fill="#B81010" transform="translate(187,314)"/>
<path d="M0 0 C-1.98 0.33 -3.96 0.66 -6 1 C-6 1.66 -6 2.32 -6 3 C-6.83402344 3.25394531 -7.66804687 3.50789062 -8.52734375 3.76953125 C-15.91531678 6.0206776 -15.91531678 6.0206776 -23.25 8.4375 C-24.83183248 8.96287397 -26.41541853 9.48297644 -28 10 C-29.16273438 10.3815625 -30.32546875 10.763125 -31.5234375 11.15625 C-48.4840028 16.53419287 -66.19979468 19.67921537 -84 20 C-85.11487793 20.02578125 -86.22975586 20.0515625 -87.37841797 20.078125 C-135.1809026 21.05956957 -135.1809026 21.05956957 -146 15 C-142.89548451 15.13894148 -139.79149165 15.287343 -136.6875 15.4375 C-135.80642578 15.47681641 -134.92535156 15.51613281 -134.01757812 15.55664062 C-132.74624023 15.61948242 -132.74624023 15.61948242 -131.44921875 15.68359375 C-130.66893311 15.72025146 -129.88864746 15.75690918 -129.0847168 15.79467773 C-127 16 -127 16 -124 17 C-122.45286222 17.09665819 -120.90194442 17.13812418 -119.35180664 17.14526367 C-118.40974869 17.15164352 -117.46769073 17.15802338 -116.49708557 17.16459656 C-115.4783989 17.16570938 -114.45971222 17.1668222 -113.41015625 17.16796875 C-111.82780434 17.17296135 -111.82780434 17.17296135 -110.21348572 17.17805481 C-107.97492916 17.18312294 -105.73636503 17.18546317 -103.49780273 17.18530273 C-100.10712804 17.18747146 -96.71678822 17.20557902 -93.32617188 17.22460938 C-91.14583444 17.22754704 -88.96549546 17.22952934 -86.78515625 17.23046875 C-85.78468765 17.23765427 -84.78421906 17.24483978 -83.75343323 17.25224304 C-72.1529307 17.72529214 -72.1529307 17.72529214 -62 14 C-59.73557336 13.64403333 -57.46270129 13.34142539 -55.1875 13.0625 C-53.82144341 12.88805398 -52.45555919 12.71225328 -51.08984375 12.53515625 C-50.40390137 12.44637207 -49.71795898 12.35758789 -49.01123047 12.26611328 C-46.08495867 11.87892752 -43.16673006 11.45339623 -40.25 11 C-39.30640625 10.855625 -38.3628125 10.71125 -37.390625 10.5625 C-34.75562253 10.08941345 -34.75562253 10.08941345 -32 8 C-30.61769291 7.53143579 -29.21619611 7.11753521 -27.8046875 6.74609375 C-27.00675781 6.53146484 -26.20882812 6.31683594 -25.38671875 6.09570312 C-24.55785156 5.87849609 -23.72898437 5.66128906 -22.875 5.4375 C-21.22576986 5.00168649 -19.57728624 4.56303474 -17.9296875 4.12109375 C-16.83503174 3.83383423 -16.83503174 3.83383423 -15.71826172 3.54077148 C-13.98746046 3.1415323 -13.98746046 3.1415323 -13 2 C-11.33382885 1.95936168 -9.66611905 1.957279 -8 2 C-8 1.34 -8 0.68 -8 0 C-4.94736336 -0.98120464 -3.05263664 -0.98120464 0 0 Z " fill="#410102" transform="translate(500,609)"/>
<path d="M0 0 C3.96 0 7.92 0 12 0 C12 34.32 12 68.64 12 104 C9.525 104.495 9.525 104.495 7 105 C7.99 104.01 7.99 104.01 9 103 C9.31282331 101.09533385 9.31282331 101.09533385 9.2784729 98.88717651 C9.28963638 98.02618347 9.30079987 97.16519043 9.31230164 96.27810669 C9.31446182 95.33152191 9.31662201 94.38493713 9.31884766 93.40966797 C9.32889328 92.41451172 9.3389389 91.41935547 9.34928894 90.39404297 C9.38026443 87.09343055 9.39719594 83.79289974 9.4140625 80.4921875 C9.43276259 78.20817353 9.45233512 75.92416654 9.4727478 73.64016724 C9.52419741 67.61993522 9.56375436 61.59968076 9.60089111 55.5793457 C9.64085051 49.43955885 9.69197953 43.29986634 9.7421875 37.16015625 C9.83909862 25.10683698 9.92345463 13.0534646 10 1 C9.38511719 1.2165625 8.77023437 1.433125 8.13671875 1.65625 C7.32847656 1.9346875 6.52023437 2.213125 5.6875 2.5 C4.48673828 2.91765625 4.48673828 2.91765625 3.26171875 3.34375 C1 4 1 4 -2 4 C-1.34 2.68 -0.68 1.36 0 0 Z " fill="#B61413" transform="translate(307,193)"/>
<path d="M0 0 C5.05592086 0.80228684 9.25373247 2.11785943 14 4 C14 4.33 14 4.66 14 5 C11.69 5 9.38 5 7 5 C7 4.34 7 3.68 7 3 C5.68 3 4.36 3 3 3 C1.86534654 13.3975872 1.83636625 23.74386406 1.83203125 34.1875 C1.82881182 36.02164739 1.82544725 37.85579453 1.82194519 39.68994141 C1.81599581 43.50895789 1.81410135 47.32795187 1.81469727 51.14697266 C1.81479957 56.0405914 1.80105861 60.93406727 1.78392506 65.82765198 C1.77282243 69.60399035 1.77077739 73.3802937 1.77130699 77.15664673 C1.77012768 78.96197001 1.76570863 80.76729422 1.75797462 82.57260132 C1.74819401 85.0875674 1.75104321 87.60221649 1.75708008 90.1171875 C1.75146057 90.86006516 1.74584106 91.60294281 1.74005127 92.36833191 C1.75164362 97.51792655 1.75164362 97.51792655 4 102 C7.05908413 102.81584568 7.05908413 102.81584568 10 103 C10.33 104.65 10.66 106.3 11 108 C2.92249926 105.55796489 2.92249926 105.55796489 0 103 C-0.76003619 99.74869725 -0.63037567 96.52860386 -0.56762695 93.2043457 C-0.56835709 92.19928986 -0.56908722 91.19423401 -0.56983948 90.15872192 C-0.56635089 86.83052953 -0.5274281 83.5037297 -0.48828125 80.17578125 C-0.47895769 77.87079127 -0.47183942 75.56579139 -0.46684265 73.26078796 C-0.44773713 67.18928752 -0.39860481 61.11838362 -0.34332275 55.04711914 C-0.2922074 48.85376049 -0.26934505 42.66030559 -0.24414062 36.46679688 C-0.19049024 24.31093558 -0.1051338 12.15551736 0 0 Z " fill="#350000" transform="translate(484,194)"/>
<path d="M0 0 C0.66 0 1.32 0 2 0 C-1.79556533 10.47118276 -9.37503774 19.08516314 -17 27 C-17.85207031 27.89203125 -18.70414062 28.7840625 -19.58203125 29.703125 C-23.79949444 34.02807976 -27.77506385 37.90769085 -33 41 C-33.74121094 41.49628906 -34.48242188 41.99257813 -35.24609375 42.50390625 C-42.5839877 47.37766345 -50.27456344 51.29651659 -58.19335938 55.1159668 C-59.9102241 55.95607047 -61.60628215 56.8383082 -63.30078125 57.72265625 C-66.14044472 59.06646226 -67.9025818 59.27330161 -71 59 C-71 58.34 -71 57.68 -71 57 C-68.36 56.67 -65.72 56.34 -63 56 C-63 55.34 -63 54.68 -63 54 C-60.03 53.505 -60.03 53.505 -57 53 C-56.67 52.01 -56.34 51.02 -56 50 C-54.41704789 49.55264397 -52.83098534 49.1146038 -51.234375 48.71875 C-44.07504288 46.41574806 -38.12583957 42.41874469 -33 37 C-31.00819591 35.98377342 -29.00847365 34.98287008 -27 34 C-24.26262933 31.63254428 -23.15290098 30.45870295 -22 27 C-21.01 27 -20.02 27 -19 27 C-19 26.34 -19 25.68 -19 25 C-18.05125 24.2575 -17.1025 23.515 -16.125 22.75 C-12.954409 20.24493399 -11.92557092 17.97995497 -11 14 C-10.01 14.33 -9.02 14.66 -8 15 C-7.7525 13.9275 -7.505 12.855 -7.25 11.75 C-5.96800277 7.9040083 -4.91745479 6.6439434 -2 4 C-0.76487921 1.86690808 -0.76487921 1.86690808 0 0 Z " fill="#B21012" transform="translate(530,468)"/>
<path d="M0 0 C0.33 0 0.66 0 1 0 C0.86186975 4.14612814 0.71321141 8.29181162 0.5625 12.4375 C0.52318359 13.62150391 0.48386719 14.80550781 0.44335938 16.02539062 C0.40146484 17.15009766 0.35957031 18.27480469 0.31640625 19.43359375 C0.27974854 20.47572021 0.24309082 21.51784668 0.20532227 22.59155273 C0 25 0 25 -1 26 C-1.1231517 27.74838835 -1.17787811 29.50164504 -1.20532227 31.25415039 C-1.22526749 32.37523697 -1.24521271 33.49632355 -1.26576233 34.65138245 C-1.28247482 35.8711528 -1.29918732 37.09092316 -1.31640625 38.34765625 C-1.33718735 39.58921982 -1.35796844 40.83078339 -1.37937927 42.10997009 C-1.43383609 45.41599123 -1.48404205 48.72202245 -1.53222656 52.02813721 C-1.58239856 55.39967491 -1.63810701 58.77112053 -1.69335938 62.14257812 C-1.80070038 68.76164551 -1.90244198 75.3807816 -2 82 C-2.33 82 -2.66 82 -3 82 C-4.03346851 76.01975888 -4.1771482 70.17870716 -4.203125 64.1171875 C-4.20882507 63.06709503 -4.21452515 62.01700256 -4.22039795 60.93508911 C-4.22982211 58.71113074 -4.23637163 56.48715857 -4.24023438 54.26318359 C-4.24982907 50.93430512 -4.28083079 47.60607466 -4.3125 44.27734375 C-4.3852365 29.37274653 -3.76710692 14.50024307 0 0 Z " fill="#310000" transform="translate(177,352)"/>
<path d="M0 0 C0.33 0 0.66 0 1 0 C3.44708739 12.14933056 4.45292162 23.81557461 4.33618164 36.20361328 C4.31257516 38.8665213 4.3156559 41.5284195 4.32226562 44.19140625 C4.30111177 56.22919624 3.40343374 68.04791803 2 80 C1.67 80 1.34 80 1 80 C1.00222061 79.3295163 1.00444122 78.65903259 1.00672913 77.9682312 C1.02902485 70.92658018 1.04400686 63.88493935 1.05493164 56.84326172 C1.05992942 54.22281486 1.06672986 51.60237074 1.07543945 48.98193359 C1.08770619 45.19367796 1.09327402 41.40545952 1.09765625 37.6171875 C1.10281754 36.46451385 1.10797882 35.31184021 1.11329651 34.12423706 C1.11377023 27.09913918 0.79761056 20.15939161 0.22142029 13.15750122 C-0.08643397 8.76743291 -0.09120075 4.39790269 0 0 Z " fill="#370101" transform="translate(624,360)"/>
<path d="M0 0 C0.66 0 1.32 0 2 0 C0.6609266 4.23934139 -0.96324385 8.20993643 -2.8125 12.25 C-14.24971061 38.31866067 -14.29935548 66.07925487 -12 94 C-12.33 94 -12.66 94 -13 94 C-17.63446417 69.29665079 -17.20295412 39.69667538 -8 16 C-7.34 15.34 -6.68 14.68 -6 14 C-5.35232207 11.42938689 -5.35232207 11.42938689 -5 9 C-4.34 9 -3.68 9 -3 9 C-2.67 7.02 -2.34 5.04 -2 3 C-1.34 3 -0.68 3 0 3 C0 2.01 0 1.02 0 0 Z " fill="#410000" transform="translate(267,338)"/>
<path d="M0 0 C0.98802158 3.1112169 0.95425175 5.09473381 0.1875 8.25 C-3.37981963 25.00194016 -3.5746271 41.94358433 -4 59 C-3.34 59 -2.68 59 -2 59 C-2 63.29 -2 67.58 -2 72 C-7.86138414 66.13861586 -6.25260501 50.146051 -6.3125 42.25 C-6.28412196 27.88844126 -4.76495971 13.6141706 0 0 Z " fill="#B91011" transform="translate(259,362)"/>
<path d="M0 0 C-1.98 0.33 -3.96 0.66 -6 1 C-6 1.66 -6 2.32 -6 3 C-6.83402344 3.25394531 -7.66804688 3.50789062 -8.52734375 3.76953125 C-15.91531678 6.0206776 -15.91531678 6.0206776 -23.25 8.4375 C-38.76193913 13.62715611 -53.4724855 17.5360275 -70 17 C-70 16.67 -70 16.34 -70 16 C-68.865625 15.855625 -67.73125 15.71125 -66.5625 15.5625 C-63.19222799 15.38828522 -63.19222799 15.38828522 -62 14 C-59.73557336 13.64403333 -57.46270129 13.34142539 -55.1875 13.0625 C-53.82144341 12.88805398 -52.45555919 12.71225328 -51.08984375 12.53515625 C-50.40390137 12.44637207 -49.71795898 12.35758789 -49.01123047 12.26611328 C-46.08495867 11.87892752 -43.16673006 11.45339623 -40.25 11 C-39.30640625 10.855625 -38.3628125 10.71125 -37.390625 10.5625 C-34.75562253 10.08941345 -34.75562253 10.08941345 -32 8 C-30.61769291 7.53143579 -29.21619611 7.11753521 -27.8046875 6.74609375 C-27.00675781 6.53146484 -26.20882812 6.31683594 -25.38671875 6.09570312 C-24.55785156 5.87849609 -23.72898437 5.66128906 -22.875 5.4375 C-21.22576986 5.00168649 -19.57728624 4.56303474 -17.9296875 4.12109375 C-17.19991699 3.9295874 -16.47014648 3.73808105 -15.71826172 3.54077148 C-13.98746046 3.1415323 -13.98746046 3.1415323 -13 2 C-11.33382885 1.95936168 -9.66611905 1.957279 -8 2 C-8 1.34 -8 0.68 -8 0 C-4.94736336 -0.98120464 -3.05263664 -0.98120464 0 0 Z " fill="#390100" transform="translate(500,609)"/>
<path d="M0 0 C0.99 0.33 1.98 0.66 3 1 C4.04844427 3.64030754 4.90522453 6.15712449 5.6875 8.875 C5.91244141 9.60847656 6.13738281 10.34195312 6.36914062 11.09765625 C7.28448669 14.1525194 8 16.79511041 8 20 C8.66 20 9.32 20 10 20 C12.59275127 29.87489778 12.30459792 39.9110073 12.26074219 50.03662109 C12.24992493 53.02070975 12.26073309 56.00420976 12.2734375 58.98828125 C12.27211757 60.88802216 12.26955863 62.7877627 12.265625 64.6875 C12.26967346 65.57808105 12.27372192 66.46866211 12.27789307 67.38623047 C12.27158875 68.2113916 12.26528442 69.03655273 12.25878906 69.88671875 C12.25640228 70.97279419 12.25640228 70.97279419 12.25396729 72.08081055 C12 74 12 74 10 77 C10.01047363 76.08412109 10.02094727 75.16824219 10.03173828 74.22460938 C10.06634437 70.74297441 10.09114825 67.26152879 10.10986328 63.77978516 C10.11976443 62.28854442 10.13328888 60.79732221 10.15087891 59.30615234 C10.30518868 45.86304756 9.50025056 32.70758273 6.125 19.625 C5.95645508 18.96999512 5.78791016 18.31499023 5.61425781 17.64013672 C4.34418189 12.870896 2.72313973 8.33327861 0.734375 3.8203125 C0 2 0 2 0 0 Z " fill="#380001" transform="translate(537,348)"/>
<path d="M0 0 C2.45849884 0.14336159 4.9167699 0.28965313 7.375 0.4375 C8.05433594 0.47681641 8.73367188 0.51613281 9.43359375 0.55664062 C13.13738442 0.78163725 16.81273141 1.0833441 20.5 1.5 C27.85152408 2.25896301 35.24180744 2.36164699 42.625 2.5625 C44.12110312 2.60579715 45.61719701 2.64941456 47.11328125 2.69335938 C50.74208861 2.79926182 54.37100135 2.9008418 58 3 C58 3.66 58 4.32 58 5 C53.37353911 5.02475469 48.74711694 5.04288594 44.12060547 5.05493164 C42.54735645 5.05995437 40.97411208 5.06677375 39.40087891 5.07543945 C37.13703257 5.08759529 34.87324807 5.09324896 32.609375 5.09765625 C31.90818542 5.10281754 31.20699585 5.10797882 30.48455811 5.11329651 C27.14717405 5.11367822 24.20515117 4.91669511 21 4 C19.59526408 3.87073698 18.18674677 3.77854189 16.77734375 3.71875 C15.99166016 3.68136719 15.20597656 3.64398437 14.39648438 3.60546875 C12.75326237 3.53498901 11.11003316 3.4646773 9.46679688 3.39453125 C8.68240234 3.35714844 7.89800781 3.31976562 7.08984375 3.28125 C6.37691162 3.25095703 5.66397949 3.22066406 4.92944336 3.18945312 C3 3 3 3 0 2 C0 1.34 0 0.68 0 0 Z " fill="#BF1212" transform="translate(358,626)"/>
<path d="M0 0 C-19.04387541 5.5726353 -37.34394766 5.33910733 -57 5 C-57 4.34 -57 3.68 -57 3 C-55.71089722 2.97812622 -55.71089722 2.97812622 -54.39575195 2.95581055 C-32.20647144 2.58359735 -32.20647144 2.58359735 -10.1965332 -0.0715332 C-6.4477136 -0.72120329 -3.64668813 -1.10453547 0 0 Z " fill="#2C0000" transform="translate(441,534)"/>
<path d="M0 0 C0.33 0 0.66 0 1 0 C1.0093457 0.9293335 1.01869141 1.85866699 1.02832031 2.81616211 C1.32240318 26.20584148 2.94475688 48.61914333 8.58203125 71.42578125 C9.00260533 74.01604591 8.85670656 75.54643905 8 78 C-0.83544697 52.61118597 -0.43437131 26.53229051 0 0 Z " fill="#A01212" transform="translate(172,392)"/>
<path d="M0 0 C0.76059646 2.24520137 1.14310528 3.55218071 0.41088867 5.84350586 C0.0832251 6.46104736 -0.24443848 7.07858887 -0.58203125 7.71484375 C-0.93716797 8.40126953 -1.29230469 9.08769531 -1.65820312 9.79492188 C-2.03912109 10.50197266 -2.42003906 11.20902344 -2.8125 11.9375 C-3.54991008 13.3415391 -4.28562963 14.74646757 -5.01953125 16.15234375 C-5.37023682 16.8160498 -5.72094238 17.47975586 -6.08227539 18.16357422 C-7.10464605 20.12723697 -7.10464605 20.12723697 -8.046875 22.81640625 C-9.14444837 25.33092885 -10.26721277 26.3571159 -12.4375 28 C-14.82016499 29.90613199 -16.04144319 31.07013463 -17.625 33.75 C-19.34949571 36.57190207 -20.89098177 37.07569728 -24 38 C-23.6596875 37.55011719 -23.319375 37.10023438 -22.96875 36.63671875 C-21.91921993 35.24385837 -20.8741374 33.84764222 -19.83203125 32.44921875 C-18.61190485 30.81804764 -17.38009358 29.19555121 -16.13671875 27.58203125 C-9.93890885 19.37210671 -3.27955972 9.83867916 0 0 Z " fill="#2F0101" transform="translate(538,456)"/>
<path d="M0 0 C0.66 0 1.32 0 2 0 C1.12985497 15.51258556 -3.96070312 28.33146237 -11 42 C-12.20525471 38.38423587 -11.38285465 37.36459001 -9.8359375 34.05078125 C-8.38735185 30.49700804 -7.72419207 26.75727884 -7 23 C-6.34 23 -5.68 23 -5 23 C-4.88406494 22.44538086 -4.76812988 21.89076172 -4.64868164 21.31933594 C-4.12075566 18.79605555 -3.59163973 16.27302612 -3.0625 13.75 C-2.88009766 12.87730469 -2.69769531 12.00460937 -2.50976562 11.10546875 C-2.33251953 10.26113281 -2.15527344 9.41679687 -1.97265625 8.546875 C-1.81031494 7.77182617 -1.64797363 6.99677734 -1.48071289 6.19824219 C-1.02638067 4.12063563 -0.5273492 2.06015019 0 0 Z " fill="#B60E11" transform="translate(544,426)"/>
<path d="M0 0 C0.66 0.33 1.32 0.66 2 1 C-1.71865691 3.47281246 -5.09006769 5.71353983 -9.375 7.0625 C-12.13241036 7.72372839 -12.13241036 7.72372839 -13.125 10 C-13.558125 10.99 -13.558125 10.99 -14 12 C-16.47037917 13.76455655 -17.81483072 14.00402542 -20.875 13.9375 C-24.09296457 13.77820778 -24.09296457 13.77820778 -27 15.5 C-30.29898157 17.14949078 -32.36584144 17.25958275 -36 17 C-35 15 -35 15 -33.07421875 14.1484375 C-32.28660156 13.89320313 -31.49898438 13.63796875 -30.6875 13.375 C-29.90761719 13.11460937 -29.12773437 12.85421875 -28.32421875 12.5859375 C-26 12 -26 12 -22 12 C-22 11.34 -22 10.68 -22 10 C-21.24976563 9.69707031 -20.49953125 9.39414062 -19.7265625 9.08203125 C-13.63833243 6.58999753 -7.75002596 3.94904316 -1.9609375 0.8203125 C-1.31382812 0.54960938 -0.66671875 0.27890625 0 0 Z " fill="#B90D0F" transform="translate(516,600)"/>
<path d="M0 0 C0 4.2257063 -2.41771504 5.98077027 -5.1875 8.875 C-5.91163086 9.65037109 -5.91163086 9.65037109 -6.65039062 10.44140625 C-15.01355879 19.35463514 -15.01355879 19.35463514 -19.125 22.5 C-22.08381971 24.77339243 -22.08381971 24.77339243 -23.4375 27.6875 C-25.68265937 31.01033587 -28.19422859 31.21012291 -32 32 C-28.63423196 27.6876097 -25.03128652 24.15333846 -20.86328125 20.61328125 C-18.85785564 18.92293366 -18.85785564 18.92293366 -16.625 16.5625 C-15 15 -15 15 -13 15 C-13 14.34 -13 13.68 -13 13 C-12.34 13 -11.68 13 -11 13 C-10.67 12.01 -10.34 11.02 -10 10 C-8.33784732 8.66104368 -6.67036393 7.32869858 -5 6 C-3.24174353 4.06067647 -1.63112366 2.05055546 0 0 Z " fill="#9B0F0F" transform="translate(576,551)"/>
<path d="M0 0 C3.37462715 0.54723683 5.08235 1.0549 8 3 C8 3.66 8 4.32 8 5 C8.66386719 5.09667969 9.32773437 5.19335938 10.01171875 5.29296875 C13.81431495 6.19266798 17.24844634 7.74958984 20.8125 9.3125 C29.03031099 12.82437733 37.28154228 15.11080526 46 17 C46 17.66 46 18.32 46 19 C39.60032651 18.44511502 34.086067 16.87580271 28.0625 14.6875 C27.22009766 14.39166016 26.37769531 14.09582031 25.50976562 13.79101562 C18.010303 11.117997 10.53654242 8.33988536 3.9375 3.8125 C3.18339844 3.30332031 2.42929687 2.79414062 1.65234375 2.26953125 C1.10707031 1.85058594 0.56179688 1.43164062 0 1 C0 0.67 0 0.34 0 0 Z " fill="#AB1012" transform="translate(312,513)"/>
<path d="M0 0 C4.05001077 1.18536901 7.41354833 2.78598818 11.03515625 4.93359375 C14.00786121 6.54701016 17.12074811 7.71918923 20.2734375 8.93359375 C23.14992289 10.05863746 25.97658162 11.2765893 28.8125 12.5 C35.07484963 15.13034971 41.47919189 17.1173796 48 19 C48 19.33 48 19.66 48 20 C40.14228061 19.52853684 33.32236379 16.74081834 26 14 C25.01128906 13.66742187 24.02257812 13.33484375 23.00390625 12.9921875 C17.23364554 11.04421296 12.3002914 8.59409407 7.19140625 5.26953125 C5.08408373 3.90044468 5.08408373 3.90044468 2.77734375 3.51171875 C2.19082031 3.34285156 1.60429687 3.17398438 1 3 C0.67 2.01 0.34 1.02 0 0 Z " fill="#B01112" transform="translate(283,600)"/>
<path d="M0 0 C2.47117671 2.97096526 3.65678471 5.55782005 4.75 9.25 C6.62463972 15.16456098 8.98289326 20.74831506 11.53808594 26.39160156 C13.25676981 30.20642831 14.75114047 34.00612249 16 38 C15.34 38 14.68 38 14 38 C11.28317615 34.26436721 10.13273539 30.44380808 9 26 C8.34 26 7.68 26 7 26 C6.731875 24.783125 6.46375 23.56625 6.1875 22.3125 C5.53378256 19.6605399 4.94759518 17.91484217 3.5 15.5625 C0.69513219 10.77085083 0 5.49047526 0 0 Z " fill="#B20F12" transform="translate(182,474)"/>
<path d="M0 0 C0.66 0.33 1.32 0.66 2 1 C0.9171875 2.051875 0.9171875 2.051875 -0.1875 3.125 C-2.16116399 5.06018029 -3.60630721 6.84209334 -5.25 9.125 C-8.40495838 12.42336558 -10.69671342 13.22804587 -15.01171875 14.359375 C-17.20250584 14.89838423 -17.20250584 14.89838423 -19 17 C-21.625 17.125 -21.625 17.125 -24 17 C-20.33456613 13.92576514 -16.48062217 11.28554001 -12.4921875 8.66015625 C-8.27455858 5.8506072 -4.14043002 2.92163955 0 0 Z " fill="#D50808" transform="translate(542,583)"/>
<path d="M0 0 C7.05667893 3.31009166 13.57111766 6.84262707 19.84375 11.484375 C21.91982565 13.03413235 21.91982565 13.03413235 24.09765625 13.99609375 C26.28773303 15.15184269 27.39608831 16.38680284 28.9375 18.3125 C30.80903612 20.5915098 32.65530488 22.65530488 34.75 24.75 C37 27 37 27 39 30 C36.5625 29.1875 36.5625 29.1875 34 28 C33.505 26.515 33.505 26.515 33 25 C31.3663139 23.63169753 31.3663139 23.63169753 29.4375 22.4375 C27.49609375 21.18359375 27.49609375 21.18359375 26 20 C26 19.34 26 18.68 26 18 C25.34 18 24.68 18 24 18 C24 17.34 24 16.68 24 16 C23.46375 15.7525 22.9275 15.505 22.375 15.25 C20 14 20 14 17.5 12.25 C13.48949821 9.47985959 9.02910553 7.58546124 4.609375 5.5625 C1.86352692 3.91827959 1.04843993 2.96631785 0 0 Z " fill="#B11011" transform="translate(483,296)"/>
<path d="M0 0 C0.66 0.33 1.32 0.66 2 1 C1.3503125 1.5878125 1.3503125 1.5878125 0.6875 2.1875 C-1.09187285 3.95316987 -1.09187285 3.95316987 -2.25 6.25 C-5.7081819 11.68428584 -10.29694428 15.99005392 -16 19 C-16.99 19.66 -17.98 20.32 -19 21 C-15.02935629 12.400075 -7.22112545 5.87766025 0 0 Z " fill="#C00B0E" transform="translate(294,310)"/>
<path d="M0 0 C1.93130605 1.85405381 3.77698532 3.72729504 5.47265625 5.80078125 C12.47207716 14.32253485 20.18989308 19.58497611 31 22 C31 22.33 31 22.66 31 23 C26.12807491 23.32721885 23.17743329 22.4487533 18.875 20.1875 C17.86179687 19.66542969 16.84859375 19.14335937 15.8046875 18.60546875 C13.35439802 17.20286572 11.12590891 15.85635587 9 14 C9 13.34 9 12.68 9 12 C8.34 12 7.68 12 7 12 C5.2734375 10.390625 5.2734375 10.390625 3.375 8.25 C2.74335938 7.55390625 2.11171875 6.8578125 1.4609375 6.140625 C0 4 0 4 0 0 Z " fill="#AD1013" transform="translate(361,368)"/>
<path d="M0 0 C0 3.76498335 -0.81601189 4.16753798 -3.375 6.8125 C-6.99660151 10.74341979 -10.16971939 14.83192565 -13.25 19.1875 C-13.66169434 19.76927002 -14.07338867 20.35104004 -14.49755859 20.95043945 C-17.05636337 24.59588126 -19.54252818 28.28561026 -22 32 C-22.33 31.34 -22.66 30.68 -23 30 C-21.63671875 27.5390625 -21.63671875 27.5390625 -19.6875 24.625 C-17.59715887 21.4788882 -15.59931251 18.42593847 -14 15 C-13.34 15 -12.68 15 -12 15 C-11.566875 14.071875 -11.566875 14.071875 -11.125 13.125 C-10 11 -10 11 -8 9 C-7.7525 8.21625 -7.505 7.4325 -7.25 6.625 C-5.58247293 3.12319316 -3.28878788 1.93037549 0 0 Z " fill="#B11013" transform="translate(227,249)"/>
<path d="M0 0 C0.66 0 1.32 0 2 0 C0.61030751 4.3885026 -1.06810176 8.54504313 -2.9375 12.75 C-5.13861733 17.74879917 -6.95039892 22.70399562 -8.26171875 28.01171875 C-9.10650354 30.28682698 -10.18312086 31.42336934 -12 33 C-11.00653423 26.53662858 -9.7846017 20.9172786 -7 15 C-6.31163487 13.00736409 -5.63718601 11.00958663 -5 9 C-4.34 9 -3.68 9 -3 9 C-2.67 7.02 -2.34 5.04 -2 3 C-1.34 3 -0.68 3 0 3 C0 2.01 0 1.02 0 0 Z " fill="#300000" transform="translate(267,338)"/>
<path d="M0 0 C-0.95261719 0.38671875 -1.90523438 0.7734375 -2.88671875 1.171875 C-4.15382341 1.69748878 -5.42074065 2.22355455 -6.6875 2.75 C-7.31333984 3.00265625 -7.93917969 3.2553125 -8.58398438 3.515625 C-12.61304387 5.20318919 -15.63943352 7.25096517 -19 10 C-23.06917396 11.67465074 -26.74950699 12.31585418 -31 11 C-24.84948497 7.72073277 -18.53737707 4.84753908 -12.125 2.125 C-11.38773682 1.80265381 -10.65047363 1.48030762 -9.89086914 1.14819336 C-6.1297977 -0.42175371 -3.89109344 -1.27550366 0 0 Z " fill="#3B0202" transform="translate(314,196)"/>
<path d="M0 0 C0 0.66 0 1.32 0 2 C-4.37210824 5.6279196 -8.18949432 7.57802051 -13.6015625 9.17578125 C-16.29868355 10.10264207 -18.67533912 11.34089124 -21.1875 12.6875 C-24.96560219 14.65612111 -27.65799862 15.57131597 -32 15 C-31.67 14.34 -31.34 13.68 -31 13 C-29.00624858 12.37039429 -27.01193883 11.74252693 -25.015625 11.12109375 C-17.61670066 8.37045737 -10.61530487 4.44159578 -3.64453125 0.75390625 C-2 0 -2 0 0 0 Z " fill="#3A0102" transform="translate(490,514)"/>
<path d="M0 0 C1 2 1 2 0.45849609 3.87255859 C-0.00435791 4.99911865 -0.00435791 4.99911865 -0.4765625 6.1484375 C-0.81534424 6.98375 -1.15412598 7.8190625 -1.50317383 8.6796875 C-2.05847778 10.01386719 -2.05847778 10.01386719 -2.625 11.375 C-2.99455811 12.27734375 -3.36411621 13.1796875 -3.74487305 14.109375 C-4.48502001 15.91377607 -5.22838225 17.71686192 -5.97509766 19.51855469 C-6.84488202 21.62443564 -7.69947033 23.73506475 -8.54296875 25.8515625 C-8.96191406 26.89054687 -9.38085938 27.92953125 -9.8125 29 C-10.16957031 29.886875 -10.52664063 30.77375 -10.89453125 31.6875 C-12.02536022 34.05305035 -13.3558151 35.96479119 -15 38 C-15 36.35 -15 34.7 -15 33 C-14.34 33 -13.68 33 -13 33 C-13 31.68 -13 30.36 -13 29 C-12.34 29 -11.68 29 -11 29 C-10.814375 27.453125 -10.814375 27.453125 -10.625 25.875 C-10.06110186 22.37883154 -9.21317941 19.31602373 -8 16 C-7.34 16 -6.68 16 -6 16 C-5.566875 14.2365625 -5.566875 14.2365625 -5.125 12.4375 C-4.75118462 10.95803351 -4.37615916 9.47887231 -4 8 C-3.83242188 7.32195312 -3.66484375 6.64390625 -3.4921875 5.9453125 C-3.05671212 4.27944636 -2.53446363 2.63679487 -2 1 C-1.34 0.67 -0.68 0.34 0 0 Z " fill="#370100" transform="translate(617,474)"/>
<path d="M0 0 C2.21815547 3.32723321 2.45095117 5.20480655 2.9375 9.125 C3.48531262 13.04595802 4.07783234 16.61772272 5.5 20.3125 C7.93727895 26.89439038 8.27669788 34.0648091 9 41 C5.33849222 37.33849222 5.05983967 31.62197149 3.9375 26.6875 C3.66873047 25.56537109 3.39996094 24.44324219 3.12304688 23.28710938 C1.33600075 15.5283879 0.38858428 7.94995791 0 0 Z " fill="#3B0101" transform="translate(175,435)"/>
<path d="M0 0 C4.08718695 -0.24042276 7.17679443 0.57741188 11 2 C11 2.66 11 3.32 11 4 C18.92 3.67 26.84 3.34 35 3 C27.9744825 7.68367834 17.96510031 6.90672487 9.8984375 5.43359375 C5.72240677 4.25716031 2.92213152 3.30126884 0 0 Z " fill="#3B0101" transform="translate(379,385)"/>
<path d="M0 0 C0.66 0 1.32 0 2 0 C3.33203125 1.57421875 3.33203125 1.57421875 4.8125 3.6875 C8.06304239 8.16690598 11.36519018 11.91012678 16 15 C16.391875 15.721875 16.78375 16.44375 17.1875 17.1875 C19.78597344 21.21961396 23.32129949 23.96791193 27 27 C21.49925154 27 17.82590409 21.63314862 14 18 C13.35160156 17.40445312 12.70320313 16.80890625 12.03515625 16.1953125 C7.27285468 11.68138494 3.49545613 6.54598207 0 1 C0 0.67 0 0.34 0 0 Z " fill="#AE1112" transform="translate(276,479)"/>
<path d="M0 0 C5.68099789 0.9212429 11.33935016 1.96254994 17 3 C17 3.66 17 4.32 17 5 C17.78375 5.12375 18.5675 5.2475 19.375 5.375 C20.57125 5.58125 21.7675 5.7875 23 6 C23.83144531 6.1340625 24.66289062 6.268125 25.51953125 6.40625 C26.39996094 6.5609375 27.28039062 6.715625 28.1875 6.875 C29.02667969 7.01679687 29.86585938 7.15859375 30.73046875 7.3046875 C33.25256084 8.07737664 34.32422126 9.00216606 36 11 C28.5479847 10.40199877 21.73906024 8.28810578 14.625 6.0625 C13.43777344 5.70220703 12.25054687 5.34191406 11.02734375 4.97070312 C2.25496749 2.25496749 2.25496749 2.25496749 0 0 Z " fill="#450201" transform="translate(310,612)"/>
<path d="M0 0 C0.66 0 1.32 0 2 0 C0.60809755 3.08549803 -1.04434111 5.37046979 -3.3125 7.875 C-6.28370859 11.19429997 -9.16512646 14.56378965 -12 18 C-13.32 17.67 -14.64 17.34 -16 17 C-14.09042286 14.86823936 -12.17291237 12.7446755 -10.25 10.625 C-9.71117187 10.02171875 -9.17234375 9.4184375 -8.6171875 8.796875 C-8.08867187 8.21679688 -7.56015625 7.63671875 -7.015625 7.0390625 C-6.53383789 6.50490723 -6.05205078 5.97075195 -5.55566406 5.42041016 C-3.83020274 3.8449654 -2.12452742 2.95002452 0 2 C0 1.34 0 0.68 0 0 Z " fill="#2F0101" transform="translate(240,237)"/>
<path d="M0 0 C2.38564077 0.57584432 4.66682784 1.22227595 7 2 C7.268125 2.5775 7.53625 3.155 7.8125 3.75 C10.13270792 8.14618342 14.47679388 11.08633587 19 13 C19 13.99 19 14.98 19 16 C19.598125 16.268125 20.19625 16.53625 20.8125 16.8125 C22.97224808 17.98493467 24.35790256 19.19369282 26 21 C25.67 21.66 25.34 22.32 25 23 C24.59273682 22.61255615 24.18547363 22.2251123 23.76586914 21.82592773 C13.55439302 12.06108765 13.55439302 12.06108765 2.5390625 3.234375 C1 2 1 2 0 0 Z " fill="#AB1012" transform="translate(545,224)"/>
<path d="M0 0 C0.33 0 0.66 0 1 0 C1.33 9.57 1.66 19.14 2 29 C2.66 29 3.32 29 4 29 C4 33.29 4 37.58 4 42 C-1.61542251 36.38457749 -0.110729 21.80281954 -0.13623047 14.29541016 C-0.11998952 9.52975146 -0.07758733 4.76505545 0 0 Z " fill="#9E1110" transform="translate(253,392)"/>
<path d="M0 0 C2.94661997 1.742748 5.85577864 3.53489621 8.7421875 5.375 C9.41636719 5.80296875 10.09054687 6.2309375 10.78515625 6.671875 C12.17282498 7.55375793 13.55826886 8.43915201 14.94140625 9.328125 C19.17659924 12.00638038 23.34072801 14.15088944 28 16 C26 17 26 17 24.00390625 16.43359375 C17.39445032 13.73693573 11.21320157 10.50571269 5 7 C4.34 6.67 3.68 6.34 3 6 C2.67 5.01 2.34 4.02 2 3 C1.34 2.67 0.68 2.34 0 2 C0 1.34 0 0.68 0 0 Z " fill="#350101" transform="translate(300,506)"/>
<path d="M0 0 C22.36986087 -0.64944757 22.36986087 -0.64944757 28.75 4.625 C29.4925 5.40875 30.235 6.1925 31 7 C30.01 7.495 30.01 7.495 29 8 C27.33026117 7.00513819 25.66416564 6.00415661 24 5 C16.17122336 2.57037966 8.16209185 1.47435003 0 1 C0 0.67 0 0.34 0 0 Z " fill="#AA1012" transform="translate(394,170)"/>
<path d="M0 0 C0.33 0 0.66 0 1 0 C1.78155632 6.09613932 -0.60165175 10.15571993 -4 15 C-7.88878525 19.58657132 -11.24088824 23.01030687 -17 25 C-15.948125 23.9790625 -15.948125 23.9790625 -14.875 22.9375 C-13.91165193 21.96326664 -12.95371044 20.98366993 -12 20 C-11.50757813 19.49210937 -11.01515625 18.98421875 -10.5078125 18.4609375 C-5.58914701 13.08353636 -2.30158049 6.90474147 0 0 Z " fill="#A81012" transform="translate(442,359)"/>
<path d="M0 0 C3.34474657 4.1685409 4.9267667 8.52549928 6.75 13.5 C7.07871094 14.35464844 7.40742187 15.20929688 7.74609375 16.08984375 C8.05160156 16.91613281 8.35710938 17.74242187 8.671875 18.59375 C8.9512793 19.34333984 9.23068359 20.09292969 9.51855469 20.86523438 C10.06202866 23.27503985 9.78307395 24.6835702 9 27 C8.32694982 25.39850114 7.66177773 23.79368971 7 22.1875 C6.62875 21.29417969 6.2575 20.40085937 5.875 19.48046875 C5 17 5 17 5 14 C4.34 14 3.68 14 3 14 C3 12.35 3 10.7 3 9 C2.34 9 1.68 9 1 9 C0.67 6.03 0.34 3.06 0 0 Z " fill="#430202" transform="translate(608,305)"/>
<path d="M0 0 C0.66 0.33 1.32 0.66 2 1 C-6.84774377 9.01826779 -15.8292831 8.36603077 -27 8 C-27 7.67 -27 7.34 -27 7 C-26.05640625 6.91363281 -25.1128125 6.82726562 -24.140625 6.73828125 C-16.145625 5.86332643 -9.63737651 4.44435717 -2.29296875 0.92578125 C-1.15794922 0.46751953 -1.15794922 0.46751953 0 0 Z " fill="#A81013" transform="translate(423,384)"/>
<path d="M0 0 C2.11601643 3.69826295 3.09642133 7.65092354 4.125 11.75 C4.30675781 12.42804688 4.48851562 13.10609375 4.67578125 13.8046875 C5.90173165 18.65318307 6.16813345 23.00083197 6 28 C5.67 28 5.34 28 5 28 C4.67 26.02 4.34 24.04 4 22 C3.34 22 2.68 22 2 22 C2.04125 20.96875 2.0825 19.9375 2.125 18.875 C2.19592312 15.10324373 2.19592312 15.10324373 1 12.125 C-0.31268308 8.02286537 -0.17075163 4.26879078 0 0 Z " fill="#360102" transform="translate(618,332)"/>
<path d="M0 0 C0.66 0 1.32 0 2 0 C6.21391095 8.03684046 10.47018645 16.25263473 13 25 C12.67 25.99 12.34 26.98 12 28 C10.18185895 24.08592773 8.37147155 20.16831756 6.5625 16.25 C6.04623047 15.13882812 5.52996094 14.02765625 4.99804688 12.8828125 C4.50498047 11.81289063 4.01191406 10.74296875 3.50390625 9.640625 C3.04830322 8.65610352 2.5927002 7.67158203 2.12329102 6.65722656 C1.17914686 4.42378492 0.49330687 2.36590954 0 0 Z " fill="#B81013" transform="translate(601,288)"/>
<path d="M0 0 C1.32 0 2.64 0 4 0 C4 0.66 4 1.32 4 2 C4.928125 2.28875 5.85625 2.5775 6.8125 2.875 C10 4 10 4 13 6 C13 6.66 13 7.32 13 8 C13.99 8 14.98 8 16 8 C16 8.66 16 9.32 16 10 C16.969375 10.268125 17.93875 10.53625 18.9375 10.8125 C19.948125 11.204375 20.95875 11.59625 22 12 C22.33 12.99 22.66 13.98 23 15 C18.48431584 13.42596152 14.77105435 11.05585413 10.8125 8.4375 C6.50834802 5.54506253 6.50834802 5.54506253 2 3 C2 2.34 2 1.68 2 1 C1.34 0.67 0.68 0.34 0 0 Z " fill="#A90F11" transform="translate(522,209)"/>
<path d="M0 0 C1.73542222 5.85868104 0.55049615 11.55894154 -2 17 C-2.66 17 -3.32 17 -4 17 C-4.12375 17.639375 -4.2475 18.27875 -4.375 18.9375 C-4.58125 19.618125 -4.7875 20.29875 -5 21 C-5.66 21.33 -6.32 21.66 -7 22 C-5.0827282 14.49068545 -2.75950985 7.24196241 0 0 Z " fill="#AD0F0F" transform="translate(619,469)"/>
<path d="M0 0 C3.94910615 3.41544316 5.670703 6.14783143 7.3203125 11.078125 C8.53950043 14.52548396 10.44030804 17.32037405 12.75 20.125 C13.1625 20.74375 13.575 21.3625 14 22 C13.67 22.99 13.34 23.98 13 25 C8.56652009 18.50161164 5.11761796 12.5985115 3 5 C2.34 5 1.68 5 1 5 C0.67 3.35 0.34 1.7 0 0 Z " fill="#A71115" transform="translate(262,454)"/>
<path d="M0 0 C8.68517024 0.50645534 17.35209459 1.02295299 26 2 C26 2.33 26 2.66 26 3 C22.22918278 3.02899599 18.45839417 3.04679729 14.6875 3.0625 C13.0797168 3.07506836 13.0797168 3.07506836 11.43945312 3.08789062 C10.41142578 3.09111328 9.38339844 3.09433594 8.32421875 3.09765625 C7.37635498 3.10289307 6.42849121 3.10812988 5.4519043 3.11352539 C3 3 3 3 0 2 C0 1.34 0 0.68 0 0 Z " fill="#B20F10" transform="translate(358,626)"/>
<path d="M0 0 C-7.42430959 4.94953972 -17.3903644 4.27045976 -26 4 C-26 3.67 -26 3.34 -26 3 C-24.865625 2.855625 -23.73125 2.71125 -22.5625 2.5625 C-19.19222799 2.38828522 -19.19222799 2.38828522 -18 1 C-15.53951062 0.57132285 -13.09917067 0.20151695 -10.625 -0.125 C-9.59632813 -0.27388672 -9.59632813 -0.27388672 -8.546875 -0.42578125 C-5.27760089 -0.86465268 -3.17186221 -1.0572874 0 0 Z " fill="#240000" transform="translate(456,622)"/>
<path d="M0 0 C1.32 0.33 2.64 0.66 4 1 C-12.80898876 12 -12.80898876 12 -17 12 C-15.97424768 9.22580621 -15.32502454 8.17788505 -12.6875 6.734375 C-11.800625 6.40953125 -10.91375 6.0846875 -10 5.75 C-9.113125 5.41484375 -8.22625 5.0796875 -7.3125 4.734375 C-5 4 -5 4 -3 4 C-3 3.34 -3 2.68 -3 2 C-2.01 2 -1.02 2 0 2 C0 1.34 0 0.68 0 0 Z " fill="#2D0001" transform="translate(523,593)"/>
<path d="M0 0 C5.08955915 2.83853494 9.97351663 5.87975145 14.8125 9.125 C15.81313477 9.78822266 15.81313477 9.78822266 16.83398438 10.46484375 C19.40539322 12.18257599 21.80761825 13.80761825 24 16 C19.76936391 15.43284951 17.03577521 13.97887282 13.5 11.625 C10.77720687 9.8276506 8.07162923 8.0427316 5.26953125 6.37109375 C3.1384324 5.08363128 1.5820685 3.91513555 0 2 C0 1.34 0 0.68 0 0 Z " fill="#AF110F" transform="translate(256,582)"/>
<path d="M0 0 C0.66 0 1.32 0 2 0 C2 0.66 2 1.32 2 2 C2.99 1.67 3.98 1.34 5 1 C5.33 1.99 5.66 2.98 6 4 C5.67 4.66 5.34 5.32 5 6 C5.66 6 6.32 6 7 6 C7.81837442 7.41328129 8.62946219 8.83078346 9.4375 10.25 C10.11619141 11.43335938 10.11619141 11.43335938 10.80859375 12.640625 C11.89311602 14.78833468 12.53148716 16.65205061 13 19 C9.34331035 15.67039956 6.85833756 11.96290031 4.25 7.8125 C3.83878906 7.17119141 3.42757812 6.52988281 3.00390625 5.86914062 C0 1.14372664 0 1.14372664 0 0 Z " fill="#BB0E11" transform="translate(586,265)"/>
<path d="M0 0 C0.33 0 0.66 0 1 0 C1.08123582 4.95538532 1.01990004 9.86638746 0.6875 14.8125 C0.62949219 15.70582031 0.57148438 16.59914063 0.51171875 17.51953125 C-0.07281361 20.35295147 -1.1192538 21.83688976 -3 24 C-3.15490223 18.26861756 -2.65244885 13.10650794 -1.5 7.5 C-1.35691406 6.77296875 -1.21382812 6.0459375 -1.06640625 5.296875 C-0.71766302 3.52990929 -0.35980277 1.76474691 0 0 Z " fill="#410202" transform="translate(177,352)"/>
<path d="M0 0 C1.18529297 0.02707031 1.18529297 0.02707031 2.39453125 0.0546875 C2.98621094 0.07789063 3.57789063 0.10109375 4.1875 0.125 C4.1875 0.455 4.1875 0.785 4.1875 1.125 C3.06214844 1.32802734 3.06214844 1.32802734 1.9140625 1.53515625 C-6.07291157 3.21503619 -11.44314373 6.10928301 -17.8125 11.125 C-18.8025 11.785 -19.7925 12.445 -20.8125 13.125 C-19.35653414 9.59019517 -17.52102557 7.80511867 -14.5 5.5 C-13.74074219 4.90960938 -12.98148437 4.31921875 -12.19921875 3.7109375 C-8.15862553 1.02602613 -4.8534928 -0.14488038 0 0 Z " fill="#AE1111" transform="translate(389.8125,170.875)"/>
<path d="M0 0 C2.97 0.495 2.97 0.495 6 1 C6 1.99 6 2.98 6 4 C7.32 4 8.64 4 10 4 C11.703125 5.53125 11.703125 5.53125 13.25 7.5 C13.77078125 8.1496875 14.2915625 8.799375 14.828125 9.46875 C15.40820312 10.22671875 15.40820312 10.22671875 16 11 C11.96286652 11 9.93375724 8.99353886 6.875 6.625 C6.32457031 6.2125 5.77414063 5.8 5.20703125 5.375 C1.13778832 2.27557664 1.13778832 2.27557664 0 0 Z " fill="#360202" transform="translate(250,576)"/>
<path d="M0 0 C0.33 0 0.66 0 1 0 C1 1.65 1 3.3 1 5 C0.01 5.495 0.01 5.495 -1 6 C-2.07697117 7.77971628 -3.08941687 9.59892279 -4.0625 11.4375 C-4.58972656 12.42621094 -5.11695313 13.41492188 -5.66015625 14.43359375 C-6.45168921 15.94973706 -7.23511897 17.47023793 -8 19 C-8.66 19 -9.32 19 -10 19 C-8.65610276 14.49558061 -6.84328221 10.7205754 -4.4375 6.6875 C-3.50744141 5.11548828 -3.50744141 5.11548828 -2.55859375 3.51171875 C-1 1 -1 1 0 0 Z " fill="#A60F0E" transform="translate(274,331)"/>
<path d="M0 0 C0.66 0.33 1.32 0.66 2 1 C0.71372289 2.17260611 -0.57919783 3.3379283 -1.875 4.5 C-2.59429688 5.1496875 -3.31359375 5.799375 -4.0546875 6.46875 C-6 8 -6 8 -8 8 C-8 8.66 -8 9.32 -8 10 C-11.47307692 12.10865385 -11.47307692 12.10865385 -14.140625 11.55859375 C-15.06101562 11.28208984 -15.06101562 11.28208984 -16 11 C-15.43152344 10.62488281 -14.86304688 10.24976563 -14.27734375 9.86328125 C-9.44969176 6.66365214 -4.69256409 3.39462083 0 0 Z " fill="#A80E10" transform="translate(542,583)"/>
<path d="M0 0 C0.99 0.33 1.98 0.66 3 1 C-1.06133537 6.59363406 -5.3791401 11.85963514 -10 17 C-10.33 16.01 -10.66 15.02 -11 14 C-10.38125 13.401875 -9.7625 12.80375 -9.125 12.1875 C-6.86323046 9.99188856 -6.86323046 9.99188856 -5 7 C-4.01 6.67 -3.02 6.34 -2 6 C-0.77479736 2.99152582 -0.77479736 2.99152582 0 0 Z " fill="#330100" transform="translate(583,538)"/>
<path d="M0 0 C0.703125 1.7421875 0.703125 1.7421875 1 4 C-0.328125 6.0703125 -0.328125 6.0703125 -2.25 8.125 C-2.87390625 8.80820312 -3.4978125 9.49140625 -4.140625 10.1953125 C-6 12 -6 12 -9 14 C-8.33333333 12.66666667 -7.66666667 11.33333333 -7 10 C-6.54625 9.01 -6.0925 8.02 -5.625 7 C-4.04463719 4.08240713 -2.45436742 2.20046735 0 0 Z " fill="#C50B0D" transform="translate(582,544)"/>
<path d="M0 0 C2.24538034 3.84344382 3.1026736 7.9638019 4.125 12.25 C4.30675781 12.99507813 4.48851562 13.74015625 4.67578125 14.5078125 C5.12147499 16.3375026 5.56131959 18.16861575 6 20 C1.49092145 15.69587957 0.10966545 12.05762171 -0.05859375 5.83203125 C-0.06203464 3.88792577 -0.03351413 1.94381963 0 0 Z " fill="#450302" transform="translate(256,434)"/>
<path d="M0 0 C0.33 0 0.66 0 1 0 C1.32105383 6.01678658 1.57288336 10.83916848 -2 16 C-2.99 16.33 -3.98 16.66 -5 17 C-4.80664062 16.35933594 -4.61328125 15.71867187 -4.4140625 15.05859375 C-2.9059252 10.04889015 -1.42282214 5.03460143 0 0 Z " fill="#330101" transform="translate(544,437)"/>
<path d="M0 0 C4.69564393 3.31457218 7.72469104 7.36279281 11 12 C10.01 12.33 9.02 12.66 8 13 C7.5875 12.21625 7.175 11.4325 6.75 10.625 C5.26634688 7.89014941 5.26634688 7.89014941 2.875 7.0625 C2.25625 6.711875 1.6375 6.36125 1 6 C0.25 2.875 0.25 2.875 0 0 Z " fill="#3D0201" transform="translate(570,247)"/>
<path d="M0 0 C2.82619863 2.82619863 3.81363347 6.26200296 5.1875 9.9375 C5.47302734 10.66646484 5.75855469 11.39542969 6.05273438 12.14648438 C8.12105341 17.63683977 8.12105341 17.63683977 7 21 C0 5.98473282 0 5.98473282 0 0 Z " fill="#380001" transform="translate(185,478)"/>
<path d="M0 0 C0.66 0 1.32 0 2 0 C4.94397591 6.65594553 5.64999003 12.75841435 6 20 C4.27299939 16.76381868 3.04729328 13.47346156 1.875 10 C1.52179687 8.96875 1.16859375 7.9375 0.8046875 6.875 C0 4 0 4 0 0 Z " fill="#B91011" transform="translate(614,316)"/>
<path d="M0 0 C2.9375 0.8125 2.9375 0.8125 6 2 C6.33 2.99 6.66 3.98 7 5 C7.66 5 8.32 5 9 5 C10.54296875 6.86328125 10.54296875 6.86328125 12.1875 9.3125 C12.73792969 10.11300781 13.28835938 10.91351563 13.85546875 11.73828125 C14.42201172 12.85783203 14.42201172 12.85783203 15 14 C14.67 14.99 14.34 15.98 14 17 C13.6596875 16.43152344 13.319375 15.86304688 12.96875 15.27734375 C9.70761256 10.08207426 6.30985653 6.17201877 1.5390625 2.3125 C1.03117187 1.879375 0.52328125 1.44625 0 1 C0 0.67 0 0.34 0 0 Z " fill="#AE0F12" transform="translate(425,178)"/>
<path d="M0 0 C3.48221175 0.17411059 5.65214817 0.68551124 8.75 2.1875 C8.75 2.5175 8.75 2.8475 8.75 3.1875 C6.44 3.1875 4.13 3.1875 1.75 3.1875 C1.75 2.5275 1.75 1.8675 1.75 1.1875 C0.43 1.1875 -0.89 1.1875 -2.25 1.1875 C-2.58 5.1475 -2.91 9.1075 -3.25 13.1875 C-3.58 13.1875 -3.91 13.1875 -4.25 13.1875 C-4.27686553 11.20840602 -4.29633375 9.22921029 -4.3125 7.25 C-4.32410156 6.14785156 -4.33570313 5.04570312 -4.34765625 3.91015625 C-4.20578405 -0.04524065 -4.02863957 0.23242151 0 0 Z " fill="#1F0101" transform="translate(489.25,195.8125)"/>
<path d="M0 0 C-0.33 0.99 -0.66 1.98 -1 3 C-6.94 3.33 -12.88 3.66 -19 4 C-19 3.67 -19 3.34 -19 3 C-16.58424393 2.49521515 -14.16755639 1.99602358 -11.75 1.5 C-11.06808594 1.35691406 -10.38617188 1.21382812 -9.68359375 1.06640625 C-6.35366879 0.38748951 -3.41667449 0 0 0 Z " fill="#AB100F" transform="translate(451,624)"/>
<path d="M0 0 C0.66 0 1.32 0 2 0 C2.67408308 1.26691507 3.33900497 2.53870749 4 3.8125 C4.556875 4.87404297 4.556875 4.87404297 5.125 5.95703125 C6 8 6 8 6 11 C6.66 11 7.32 11 8 11 C8.33 13.31 8.66 15.62 9 18 C6.44624385 14.82505993 4.62552847 11.51896339 2.8125 7.875 C2.28269531 6.82054687 1.75289062 5.76609375 1.20703125 4.6796875 C0 2 0 2 0 0 Z " fill="#3D0101" transform="translate(195,504)"/>
<path d="M0 0 C0.66 0.33 1.32 0.66 2 1 C0.71034824 2.37562854 -0.62689293 3.70766393 -2 5 C-2.66 5 -3.32 5 -4 5 C-4 5.66 -4 6.32 -4 7 C-5.98 7.99 -5.98 7.99 -8 9 C-7.67 7.02 -7.34 5.04 -7 3 C-5.68 3 -4.36 3 -3 3 C-3 2.34 -3 1.68 -3 1 C-2.01 0.67 -1.02 0.34 0 0 Z " fill="#B90E0F" transform="translate(244,232)"/>
<path d="M0 0 C4.8998928 0.50688546 9.44356134 0.9996123 14 3 C14.33 3.99 14.66 4.98 15 6 C4.44191344 2.92482916 4.44191344 2.92482916 0 1 C0 0.67 0 0.34 0 0 Z " fill="#B80F10" transform="translate(488,194)"/>
<path d="M0 0 C0.66 0.33 1.32 0.66 2 1 C0.75146327 1.79397239 -0.49890043 2.58507217 -1.75 3.375 C-2.44609375 3.81585937 -3.1421875 4.25671875 -3.859375 4.7109375 C-4.91898437 5.34902344 -4.91898437 5.34902344 -6 6 C-6.66515625 6.40476562 -7.3303125 6.80953125 -8.015625 7.2265625 C-10.42745892 8.166608 -11.60241182 7.85628149 -14 7 C-11.71296692 5.80274117 -9.42115138 4.61702982 -7.125 3.4375 C-6.14853516 2.92413086 -6.14853516 2.92413086 -5.15234375 2.40039062 C-3.46470143 1.53917109 -1.73420407 0.76313297 0 0 Z " fill="#A41112" transform="translate(516,600)"/>
<path d="M0 0 C1.65 0 3.3 0 5 0 C5.33 0.99 5.66 1.98 6 3 C6.639375 3.144375 7.27875 3.28875 7.9375 3.4375 C10 4 10 4 11.25 6.0625 C11.4975 6.701875 11.745 7.34125 12 8 C7.44328408 6.48109469 3.68276708 4.04597738 0 1 C0 0.67 0 0.34 0 0 Z " fill="#310101" transform="translate(266,588)"/>
<path d="M0 0 C0.6015625 1.8125 0.6015625 1.8125 1 4 C-1.34144182 8.32266181 -4.03237976 11.13449649 -8 14 C-6.6744419 10.37723685 -5.05653045 7.36494652 -2.875 4.1875 C-2.33617187 3.39730469 -1.79734375 2.60710938 -1.2421875 1.79296875 C-0.83226562 1.20128906 -0.42234375 0.60960937 0 0 Z " fill="#A10D10" transform="translate(591,530)"/>
<path d="M0 0 C1.84790538 3.31016094 2.74541487 6.57173491 3.625 10.25 C4.01558594 11.86648438 4.01558594 11.86648438 4.4140625 13.515625 C4.60742188 14.33546875 4.80078125 15.1553125 5 16 C4.34 16 3.68 16 3 16 C0.54970669 10.28264895 -0.33266291 6.20970773 0 0 Z " fill="#B20F11" transform="translate(356,352)"/>
<path d="M0 0 C3.88282378 0.22187564 4.96330697 0.96247304 7.75 3.8125 C9.70397848 6.58063618 10.37117822 7.84905609 11 11 C6.86378916 7.6189962 3.18683431 4.33409466 0 0 Z " fill="#3E0202" transform="translate(509,312)"/>
<path d="M0 0 C0.66 0.33 1.32 0.66 2 1 C-0.31 3.64 -2.62 6.28 -5 9 C-6.32 8.67 -7.64 8.34 -9 8 C-6.03 5.36 -3.06 2.72 0 0 Z " fill="#2B0001" transform="translate(251,228)"/>
<path d="M0 0 C1 2 1 2 0.22265625 4.6015625 C-0.16019531 5.59929687 -0.54304687 6.59703125 -0.9375 7.625 C-1.31777344 8.62789062 -1.69804688 9.63078125 -2.08984375 10.6640625 C-2.39019531 11.43492187 -2.69054687 12.20578125 -3 13 C-3.66 13 -4.32 13 -5 13 C-5 13.66 -5 14.32 -5 15 C-5.66 15 -6.32 15 -7 15 C-5.63408831 11.45756548 -4.09068516 8.07372071 -2.375 4.6875 C-1.70597656 3.36298828 -1.70597656 3.36298828 -1.0234375 2.01171875 C-0.68570313 1.34785156 -0.34796875 0.68398438 0 0 Z " fill="#B20F11" transform="translate(606,504)"/>
<path d="M0 0 C-4.29 2.64 -8.58 5.28 -13 8 C-13 7.01 -13 6.02 -13 5 C-12.401875 4.731875 -11.80375 4.46375 -11.1875 4.1875 C-8.96966765 3.11763032 -8.96966765 3.11763032 -7.4375 1.4375 C-4.8616209 -1.1383791 -3.37713848 -1.12571283 0 0 Z " fill="#2B0000" transform="translate(312,299)"/>
<path d="M0 0 C1.796875 0.1953125 1.796875 0.1953125 4 1 C5.703125 3.1796875 5.703125 3.1796875 7.25 5.875 C8.03117188 7.20144531 8.03117188 7.20144531 8.828125 8.5546875 C10 11 10 11 10 14 C8.82750647 12.54634731 7.66216184 11.08692581 6.5 9.625 C5.8503125 8.81289063 5.200625 8.00078125 4.53125 7.1640625 C3 5 3 5 3 3 C2.01 2.67 1.02 2.34 0 2 C0 1.34 0 0.68 0 0 Z " fill="#B01213" transform="translate(575,251)"/>
<path d="M0 0 C0 0.66 0 1.32 0 2 C-5.00873617 6.89225393 -5.00873617 6.89225393 -8.875 7.3125 C-9.926875 7.1578125 -9.926875 7.1578125 -11 7 C-4.36842105 0 -4.36842105 0 0 0 Z " fill="#380203" transform="translate(276,212)"/>
<path d="M0 0 C5 2 10 4 15 6 C11.6844404 7.1127563 9.67838751 6.9007397 6.375 5.8125 C5.21097656 5.45091797 5.21097656 5.45091797 4.0234375 5.08203125 C1.55586589 3.76249971 0.98884704 2.56781248 0 0 Z " fill="#300001" transform="translate(507,203)"/>
<path d="M0 0 C0 3 0 3 -1.96875 5.04296875 C-2.8040625 5.75066406 -3.639375 6.45835937 -4.5 7.1875 C-5.3353125 7.90292969 -6.170625 8.61835938 -7.03125 9.35546875 C-7.6809375 9.89816406 -8.330625 10.44085938 -9 11 C-9.33 10.01 -9.66 9.02 -10 8 C-9.01 8 -8.02 8 -7 8 C-7 7.01 -7 6.02 -7 5 C-6.01 5 -5.02 5 -4 5 C-3.67 4.01 -3.34 3.02 -3 2 C-2.01 1.34 -1.02 0.68 0 0 Z " fill="#370101" transform="translate(435,372)"/>
<path d="M0 0 C0.99 0.33 1.98 0.66 3 1 C0.69 3.97 -1.62 6.94 -4 10 C-5 6 -5 6 -4.0625 3.75 C-3.711875 3.1725 -3.36125 2.595 -3 2 C-2.01 2 -1.02 2 0 2 C0 1.34 0 0.68 0 0 Z " fill="#220000" transform="translate(279,321)"/>
<path d="M0 0 C0.33 0.66 0.66 1.32 1 2 C-0.58711039 5.65035389 -2.353906 9.0087633 -5 12 C-5.66 12 -6.32 12 -7 12 C-6.67 10.68 -6.34 9.36 -6 8 C-5.34 8 -4.68 8 -4 8 C-3.71125 7.05125 -3.4225 6.1025 -3.125 5.125 C-2 2 -2 2 0 0 Z " fill="#360101" transform="translate(367,186)"/>
<path d="M0 0 C0.99 0.33 1.98 0.66 3 1 C0.69 4.3 -1.62 7.6 -4 11 C-4.33 9.68 -4.66 8.36 -5 7 C-4.01 6.67 -3.02 6.34 -2 6 C-1.855625 5.195625 -1.71125 4.39125 -1.5625 3.5625 C-1 1 -1 1 0 0 Z " fill="#240000" transform="translate(593,523)"/>
<path d="M0 0 C1.1055189 0.93590504 2.20935453 1.87379858 3.3125 2.8125 C3.92738281 3.33457031 4.54226563 3.85664063 5.17578125 4.39453125 C6.85424679 5.87172469 8.43882034 7.40039131 10 9 C6.21547645 8.47437173 3.73485867 7.73485867 1 5 C0.25 2.3125 0.25 2.3125 0 0 Z " fill="#330001" transform="translate(290,497)"/>
<path d="M0 0 C3.3 0 6.6 0 10 0 C7.14521674 1.90318884 5.58058692 2.4619099 2.3125 3.125 C1.50425781 3.29257813 0.69601562 3.46015625 -0.13671875 3.6328125 C-0.75160156 3.75398437 -1.36648438 3.87515625 -2 4 C-1.34 2.68 -0.68 1.36 0 0 Z " fill="#B8100D" transform="translate(307,193)"/>
<path d="M0 0 C-1.40751221 0.86916887 -2.8264521 1.71985149 -4.25 2.5625 C-5.03890625 3.03816406 -5.8278125 3.51382813 -6.640625 4.00390625 C-9.30844625 5.13022151 -10.34501768 5.0169313 -13 4 C-4.4 -2.2 -4.4 -2.2 0 0 Z " fill="#3B0201" transform="translate(389,174)"/>
<path d="M0 0 C-0.5625 1.875 -0.5625 1.875 -2 4 C-5.625 5.25 -5.625 5.25 -9 6 C-4.5 0 -4.5 0 0 0 Z " fill="#B70D11" transform="translate(553,577)"/>
<path d="M0 0 C1.23967448 3.58128182 1.02699061 6.36603322 0 10 C-2.05078125 11.1796875 -2.05078125 11.1796875 -4 12 C-3.52309796 10.37433394 -3.04340334 8.74948689 -2.5625 7.125 C-2.29566406 6.22007812 -2.02882813 5.31515625 -1.75390625 4.3828125 C-1 2 -1 2 0 0 Z " fill="#AE1011" transform="translate(611,492)"/>
<path d="M0 0 C0.33 0.99 0.66 1.98 1 3 C1.66 3 2.32 3 3 3 C3.8638129 4.45264038 4.71580454 5.9123163 5.5625 7.375 C6.27599609 8.59316406 6.27599609 8.59316406 7.00390625 9.8359375 C7.33261719 10.55007813 7.66132813 11.26421875 8 12 C7.67 12.66 7.34 13.32 7 14 C5.82188197 12.42516875 4.65787174 10.83977627 3.5 9.25 C2.8503125 8.36828125 2.200625 7.4865625 1.53125 6.578125 C0 4 0 4 0 0 Z " fill="#3C0001" transform="translate(360,362)"/>
<path d="M0 0 C2.31 0.66 4.62 1.32 7 2 C7 2.66 7 3.32 7 4 C8.32 4.33 9.64 4.66 11 5 C10.67 5.99 10.34 6.98 10 8 C8.33055479 6.85821872 6.6645052 5.71147095 5 4.5625 C4.071875 3.92441406 3.14375 3.28632813 2.1875 2.62890625 C1.465625 2.09136719 0.74375 1.55382812 0 1 C0 0.67 0 0.34 0 0 Z " fill="#3F0202" transform="translate(495,302)"/>
<path d="M0 0 C-0.125 1.875 -0.125 1.875 -1 4 C-4.6068725 5.64661571 -6.1851221 6.27162597 -10 5 C-8.71186658 4.16121545 -7.41936744 3.32913217 -6.125 2.5 C-5.40570313 2.0359375 -4.68640625 1.571875 -3.9453125 1.09375 C-2 0 -2 0 0 0 Z " fill="#A90F0E" transform="translate(314,298)"/>
<path d="M0 0 C0.66 0.33 1.32 0.66 2 1 C-0.23848334 4.53444738 -2.07738136 5.66056925 -6 7 C-7.34050052 7.65213539 -8.67661368 8.31379969 -10 9 C-7.12505529 5.01930733 -4.17882671 2.56428003 0 0 Z " fill="#3A0201" transform="translate(263,219)"/>
<path d="M0 0 C1.32 0.33 2.64 0.66 4 1 C2.71186658 1.83878455 1.41936744 2.67086783 0.125 3.5 C-0.59429688 3.9640625 -1.31359375 4.428125 -2.0546875 4.90625 C-4 6 -4 6 -6 6 C-5.34 4.68 -4.68 3.36 -4 2 C-2.68 2 -1.36 2 0 2 C0 1.34 0 0.68 0 0 Z " fill="#2A0100" transform="translate(534,586)"/>
<path d="M0 0 C0.77321882 2.98241547 1.41196203 5.97580475 2 9 C-0.64752004 6.42215154 -2.94432065 4.08351902 -5 1 C-3.35 0.67 -1.7 0.34 0 0 Z " fill="#2E0102" transform="translate(525,322)"/>
<path d="M0 0 C0.33 0.99 0.66 1.98 1 3 C-1.64 5.64 -4.28 8.28 -7 11 C-7 7.22089522 -6.00296038 6.53893899 -3.5 3.8125 C-2.8503125 3.09707031 -2.200625 2.38164062 -1.53125 1.64453125 C-1.0259375 1.10183594 -0.520625 0.55914062 0 0 Z " fill="#960E10" transform="translate(283,320)"/>
<path d="M0 0 C0 3.67718093 -0.82184858 5.07076189 -3 8 C-5.6875 9.3125 -5.6875 9.3125 -8 10 C-7.04367001 8.70684939 -6.08486149 7.41553147 -5.125 6.125 C-4.59132813 5.40570313 -4.05765625 4.68640625 -3.5078125 3.9453125 C-2 2 -2 2 0 0 Z " fill="#340000" transform="translate(522,484)"/>
<path d="M0 0 C-1.26418246 0.69965443 -2.53665402 1.38434763 -3.8125 2.0625 C-4.52019531 2.44535156 -5.22789062 2.82820313 -5.95703125 3.22265625 C-8 4 -8 4 -11 3 C-10.34 3 -9.68 3 -9 3 C-9 2.34 -9 1.68 -9 1 C-5.47051709 -0.66670026 -3.71727674 -1.13583456 0 0 Z " fill="#2C0000" transform="translate(425,384)"/>
<path d="M0 0 C6.4 0.49230769 6.4 0.49230769 9.4375 3.0625 C10.2109375 4.0215625 10.2109375 4.0215625 11 5 C9.35153231 4.55123384 7.70626545 4.09069512 6.0625 3.625 C5.14597656 3.36976563 4.22945312 3.11453125 3.28515625 2.8515625 C1 2 1 2 0 0 Z " fill="#A51014" transform="translate(511,204)"/>
<path d="M0 0 C2.22825644 2.22825644 2.69239369 3.65761628 3.625 6.625 C4.01558594 7.85089844 4.01558594 7.85089844 4.4140625 9.1015625 C4.60742188 9.72804688 4.80078125 10.35453125 5 11 C4.34 11 3.68 11 3 11 C0 4.5 0 4.5 0 0 Z " fill="#3E0102" transform="translate(264,459)"/>
<path d="M0 0 C0 0.99 0 1.98 0 3 C-2.3125 4.75 -2.3125 4.75 -5 6 C-5.99 5.67 -6.98 5.34 -8 5 C-2.25 0 -2.25 0 0 0 Z " fill="#AD1012" transform="translate(304,304)"/>
<path d="M0 0 C0.93423645 3.01031744 1.04449911 3.86650268 0 7 C-0.66 7 -1.32 7 -2 7 C-2 7.66 -2 8.32 -2 9 C-2.66 9 -3.32 9 -4 9 C-2.94124926 5.59687262 -1.99097846 2.98646769 0 0 Z " fill="#350001" transform="translate(201,287)"/>
<path d="M0 0 C0 0.99 0 1.98 0 3 C-3.3 3.33 -6.6 3.66 -10 4 C-7.25346796 1.25346796 -3.91404908 0 0 0 Z " fill="#220000" transform="translate(476,615)"/>
<path d="M0 0 C0.33 0 0.66 0 1 0 C1.3125 2.1875 1.3125 2.1875 1 5 C-1.5 7.8125 -1.5 7.8125 -4 10 C-4 5.75354935 -2.18249194 3.61475228 0 0 Z " fill="#A10D0F" transform="translate(597,520)"/>
<path d="M0 0 C2.31 0.66 4.62 1.32 7 2 C7 2.66 7 3.32 7 4 C7.66 4 8.32 4 9 4 C9 4.66 9 5.32 9 6 C4.64464931 4.83857315 2.35380297 3.92300495 0 0 Z " fill="#AE1111" transform="translate(303,507)"/>
<path d="M0 0 C0.99 0 1.98 0 3 0 C2.67 3.63 2.34 7.26 2 11 C-0.10814567 6.78370866 -0.17700355 4.60209225 0 0 Z " fill="#D60909" transform="translate(626,357)"/>
<path d="M0 0 C-2.31 1.65 -4.62 3.3 -7 5 C-6.67 3.35 -6.34 1.7 -6 0 C-3 -1 -3 -1 0 0 Z " fill="#2D0100" transform="translate(298,308)"/>
<path d="M0 0 C1 2 1 2 0.3125 4.5 C-1.15567038 7.29651501 -2.09303901 7.93411431 -5 9 C-3.7508258 5.54074837 -2.32472205 2.85306797 0 0 Z " fill="#370101" transform="translate(211,271)"/>
<path d="M0 0 C-2.9432656 1.96217707 -5.75978738 3.58240698 -9 5 C-9.99 4.67 -10.98 4.34 -12 4 C-7.81413519 0.81076967 -5.29441695 -0.50423019 0 0 Z " fill="#B21113" transform="translate(305,197)"/>
<path d="M0 0 C0.66 0 1.32 0 2 0 C0.33333333 3.33333333 -1.33333333 6.66666667 -3 10 C-3.33 10 -3.66 10 -4 10 C-4.4025937 6.47730515 -4.13372795 5.20059192 -2.125 2.1875 C-1.42375 1.465625 -0.7225 0.74375 0 0 Z " fill="#AB0F11" transform="translate(366,184)"/>
<path d="M0 0 C0.8125 1.625 0.8125 1.625 1 4 C-0.46818136 6.24609835 -2.15852858 8.02378677 -4 10 C-4.33 8.68 -4.66 7.36 -5 6 C-4.01 5.67 -3.02 5.34 -2 5 C-2 4.34 -2 3.68 -2 3 C-1.34 3 -0.68 3 0 3 C0 2.01 0 1.02 0 0 Z " fill="#D2090A" transform="translate(603,514)"/>
<path d="M0 0 C2.29633824 3.44450737 2.54016485 5.93812283 3 10 C1.68 9.34 0.36 8.68 -1 8 C-0.67 5.36 -0.34 2.72 0 0 Z " fill="#D40A02" transform="translate(539,358)"/>
<path d="M0 0 C3.44216672 2.6598561 3.99504674 5.90288286 5 10 C2.9754262 8.06745228 1.57894208 6.36841312 0 4 C0 2.68 0 1.36 0 0 Z " fill="#9F0F11" transform="translate(533,342)"/>
<path d="M0 0 C0.33 0 0.66 0 1 0 C1.29296875 6.0546875 1.29296875 6.0546875 1 8 C0.01 8.66 -0.98 9.32 -2 10 C-1.54177532 6.53058454 -1.10868317 3.32604951 0 0 Z " fill="#400100" transform="translate(185,322)"/>
<path d="M0 0 C2.79872437 2.52788007 4.45773019 4.20411134 5 8 C2 7 2 7 0 4 C0 2.68 0 1.36 0 0 Z " fill="#490302" transform="translate(595,280)"/>
<path d="M0 0 C0.33 0.66 0.66 1.32 1 2 C-0.25 4.5625 -0.25 4.5625 -2 7 C-2.99 7.33 -3.98 7.66 -5 8 C-3.8141763 4.62496331 -2.72426311 2.35277269 0 0 Z " fill="#390101" transform="translate(217,263)"/>
<path d="M0 0 C5.75 2.625 5.75 2.625 8 6 C6.35 5.67 4.7 5.34 3 5 C3 4.34 3 3.68 3 3 C2.01 2.67 1.02 2.34 0 2 C0 1.34 0 0.68 0 0 Z " fill="#2C0000" transform="translate(540,222)"/>
<path d="M0 0 C3.465 1.485 3.465 1.485 7 3 C7 3.33 7 3.66 7 4 C4.69 4 2.38 4 0 4 C0 2.68 0 1.36 0 0 Z " fill="#2A0002" transform="translate(419,176)"/>
<path d="M0 0 C3.3 0.33 6.6 0.66 10 1 C10 1.33 10 1.66 10 2 C6.7 2.33 3.4 2.66 0 3 C0 2.01 0 1.02 0 0 Z " fill="#CF0B0C" transform="translate(348,625)"/>
<path d="M0 0 C0.66 0.33 1.32 0.66 2 1 C0.8125 3 0.8125 3 -1 5 C-3.6875 5.25 -3.6875 5.25 -6 5 C-5.195625 4.360625 -4.39125 3.72125 -3.5625 3.0625 C-1.7249496 1.59396498 -1.7249496 1.59396498 0 0 Z " fill="#B10F11" transform="translate(524,595)"/>
<path d="M0 0 C0.99 0 1.98 0 3 0 C1.63016497 3.16115776 1.0109362 3.9927092 -2 6 C-1.125 1.125 -1.125 1.125 0 0 Z " fill="#CF0C0C" transform="translate(594,528)"/>
<path d="M0 0 C0.33 0.99 0.66 1.98 1 3 C-1.97 5.475 -1.97 5.475 -5 8 C-5.66 7.67 -6.32 7.34 -7 7 C-4.69 4.69 -2.38 2.38 0 0 Z " fill="#400201" transform="translate(513,494)"/>
</svg>
