<?xml version="1.0" encoding="UTF-8"?>
<svg xmlns="http://www.w3.org/2000/svg" xmlns:xlink="http://www.w3.org/1999/xlink" width="56px" height="56px" viewBox="0 0 56 56" version="1.1">
<g id="surface1">
<path style=" stroke:none;fill-rule:nonzero;fill:rgb(100%,100%,100%);fill-opacity:1;" d="M 9.140625 0 L 46.859375 0 C 51.90625 0 55.996094 4.082031 55.996094 9.113281 L 55.996094 46.886719 C 55.996094 51.917969 51.90625 56 46.859375 56 L 9.140625 56 C 4.09375 56 0.00390625 51.917969 0.00390625 46.886719 L 0.00390625 9.113281 C 0.00390625 4.082031 4.09375 0 9.140625 0 Z M 9.140625 0 "/>
<path style=" stroke:none;fill-rule:nonzero;fill:rgb(26.666668%,0%,60.000002%);fill-opacity:1;" d="M 28.203125 4.40625 C 24.621094 4.40625 21.15625 4.894531 17.867188 5.808594 L 17.867188 14.585938 C 17.867188 16.535156 18.136719 18.34375 18.671875 19.945312 C 19.167969 21.441406 19.90625 22.8125 20.871094 24.019531 C 22.539062 26.101562 24.890625 27.757812 28.066406 29.082031 L 28.203125 29.136719 L 28.34375 29.082031 C 31.515625 27.757812 33.871094 26.101562 35.539062 24.019531 C 36.5 22.8125 37.242188 21.445312 37.738281 19.945312 C 38.273438 18.34375 38.542969 16.535156 38.542969 14.585938 L 38.542969 5.808594 C 35.253906 4.894531 31.785156 4.40625 28.203125 4.40625 Z M 28.203125 4.40625 "/>
<path style=" stroke:none;fill-rule:nonzero;fill:rgb(100%,100%,100%);fill-opacity:1;" d="M 23.285156 19.40625 L 23.285156 19.070312 L 22.628906 19.550781 L 22.410156 19.246094 L 22.40625 19.246094 C 21.976562 19.683594 21.59375 20.171875 21.277344 20.695312 L 21.273438 20.699219 L 21.28125 20.699219 C 21.875 20.558594 22.457031 20.347656 23.007812 20.070312 L 23.011719 20.070312 L 22.792969 19.769531 L 23.289062 19.40625 Z M 23.285156 19.40625 "/>
<path style=" stroke:none;fill-rule:nonzero;fill:rgb(100%,100%,100%);fill-opacity:1;" d="M 34.175781 10.609375 L 32.945312 11.703125 L 32.878906 12.121094 L 31.425781 13.171875 L 31.886719 13.171875 L 33.039062 12.339844 L 33.457031 12.40625 L 34.878906 11.574219 L 34.234375 11.472656 L 34.703125 11.132812 L 34.542969 10.914062 L 34.074219 11.253906 Z M 34.175781 10.609375 "/>
<path style=" stroke:none;fill-rule:nonzero;fill:rgb(100%,100%,100%);fill-opacity:1;" d="M 28.203125 20.230469 C 28.074219 20.230469 27.945312 20.210938 27.820312 20.171875 L 24.671875 22.457031 L 24.453125 22.152344 L 24.449219 22.152344 C 24.019531 22.589844 23.636719 23.078125 23.320312 23.601562 L 23.316406 23.605469 L 23.324219 23.605469 C 23.921875 23.464844 24.503906 23.253906 25.050781 22.976562 L 25.054688 22.976562 L 24.835938 22.675781 L 28.210938 20.230469 Z M 28.203125 20.230469 "/>
<path style=" stroke:none;fill-rule:nonzero;fill:rgb(100%,100%,100%);fill-opacity:1;" d="M 36.21875 13.511719 L 34.988281 14.609375 L 34.921875 15.027344 L 33.121094 16.332031 L 33.121094 16.664062 L 35.082031 15.246094 L 35.5 15.3125 L 36.925781 14.480469 L 36.277344 14.378906 L 36.742188 14.039062 L 36.582031 13.820312 L 36.117188 14.160156 Z M 36.21875 13.511719 "/>
<path style=" stroke:none;fill-rule:nonzero;fill:rgb(100%,100%,100%);fill-opacity:1;" d="M 26.039062 19.605469 L 25.578125 19.605469 L 23.648438 21.003906 L 23.429688 20.699219 C 22.996094 21.136719 22.613281 21.625 22.296875 22.148438 L 22.292969 22.152344 L 22.300781 22.152344 C 22.898438 22.011719 23.480469 21.800781 24.027344 21.523438 L 24.03125 21.523438 L 23.8125 21.222656 L 26.042969 19.605469 Z M 26.039062 19.605469 "/>
<path style=" stroke:none;fill-rule:nonzero;fill:rgb(100%,100%,100%);fill-opacity:1;" d="M 35.199219 12.0625 L 33.964844 13.15625 L 33.898438 13.574219 L 33.121094 14.136719 L 33.121094 14.472656 L 34.058594 13.792969 L 34.476562 13.859375 L 35.902344 13.027344 L 35.257812 12.925781 L 35.722656 12.585938 L 35.5625 12.367188 L 35.097656 12.707031 Z M 35.199219 12.0625 "/>
<path style=" stroke:none;fill-rule:nonzero;fill:rgb(100%,100%,100%);fill-opacity:1;" d="M 32.113281 6.640625 C 32.113281 6.640625 32.058594 6.632812 31.972656 6.632812 C 31.773438 6.628906 31.410156 6.660156 31.167969 6.898438 C 31.078125 6.988281 31.046875 7.109375 31.046875 7.222656 C 31.046875 7.234375 31.046875 7.242188 31.046875 7.253906 C 31.046875 7.257812 31.046875 7.265625 31.046875 7.273438 L 31.046875 7.28125 C 31.046875 7.28125 31.050781 7.300781 31.050781 7.308594 C 31.054688 7.332031 31.058594 7.351562 31.0625 7.375 C 31.027344 7.335938 30.984375 7.304688 30.929688 7.28125 C 30.527344 7.113281 30.082031 7.332031 30.082031 7.332031 C 30.082031 7.332031 30.183594 7.832031 30.644531 7.964844 C 30.757812 8 30.867188 7.980469 30.960938 7.953125 L 30.867188 8.121094 C 30.742188 8.339844 30.492188 8.457031 30.246094 8.414062 C 29.925781 8.355469 29.714844 8.050781 29.773438 7.730469 L 29.507812 7.683594 C 29.476562 7.835938 29.390625 7.96875 29.261719 8.058594 C 29.132812 8.148438 28.976562 8.183594 28.824219 8.152344 C 28.542969 8.101562 28.339844 7.859375 28.339844 7.578125 L 28.339844 7.210938 C 28.421875 7.296875 28.53125 7.378906 28.675781 7.378906 C 29.117188 7.378906 29.441406 7.007812 29.441406 7.007812 C 29.441406 7.007812 29.113281 6.636719 28.675781 6.636719 C 28.621094 6.636719 28.574219 6.648438 28.53125 6.667969 C 28.617188 6.585938 28.6875 6.480469 28.6875 6.351562 C 28.6875 5.863281 28.207031 5.496094 28.207031 5.496094 C 28.207031 5.496094 27.726562 5.863281 27.726562 6.351562 C 27.726562 6.480469 27.796875 6.585938 27.882812 6.667969 C 27.839844 6.648438 27.789062 6.636719 27.734375 6.636719 C 27.296875 6.636719 26.96875 7.007812 26.96875 7.007812 C 26.96875 7.007812 27.296875 7.378906 27.734375 7.378906 C 27.878906 7.378906 27.992188 7.296875 28.070312 7.210938 L 28.070312 7.578125 C 28.070312 7.859375 27.871094 8.101562 27.589844 8.152344 C 27.4375 8.183594 27.28125 8.148438 27.152344 8.058594 C 27.019531 7.96875 26.933594 7.835938 26.90625 7.683594 L 26.640625 7.730469 C 26.699219 8.050781 26.488281 8.355469 26.167969 8.414062 C 25.917969 8.460938 25.671875 8.34375 25.546875 8.121094 L 25.449219 7.953125 C 25.542969 7.980469 25.65625 8 25.765625 7.964844 C 26.226562 7.835938 26.332031 7.332031 26.332031 7.332031 C 26.332031 7.332031 25.886719 7.113281 25.480469 7.28125 C 25.429688 7.304688 25.386719 7.335938 25.351562 7.375 C 25.355469 7.351562 25.355469 7.332031 25.359375 7.3125 C 25.359375 7.300781 25.359375 7.292969 25.363281 7.28125 L 25.363281 7.273438 C 25.363281 7.273438 25.363281 7.257812 25.363281 7.253906 C 25.363281 7.242188 25.363281 7.230469 25.363281 7.222656 C 25.363281 7.105469 25.332031 6.988281 25.242188 6.898438 C 25 6.660156 24.636719 6.628906 24.4375 6.632812 C 24.351562 6.632812 24.296875 6.640625 24.296875 6.640625 C 24.296875 6.640625 24.285156 6.738281 24.292969 6.871094 C 24.535156 7.128906 24.75 7.402344 24.941406 7.691406 C 25.203125 8.089844 25.421875 8.515625 25.589844 8.960938 L 26.109375 9.261719 L 25.824219 9.757812 C 25.871094 9.960938 25.90625 10.167969 25.933594 10.378906 L 25.945312 10.378906 C 26.683594 10.53125 27.4375 10.609375 28.203125 10.609375 L 28.210938 10.609375 C 28.980469 10.609375 29.734375 10.53125 30.472656 10.378906 L 30.484375 10.378906 C 30.507812 10.167969 30.546875 9.960938 30.59375 9.757812 L 30.308594 9.261719 L 30.828125 8.960938 C 30.996094 8.515625 31.210938 8.089844 31.476562 7.691406 C 31.667969 7.402344 31.886719 7.128906 32.125 6.871094 C 32.132812 6.738281 32.121094 6.640625 32.121094 6.640625 Z M 29.503906 8.734375 C 29.691406 8.734375 29.84375 8.886719 29.84375 9.074219 C 29.84375 9.261719 29.691406 9.410156 29.503906 9.410156 C 29.316406 9.410156 29.164062 9.261719 29.164062 9.074219 C 29.164062 8.886719 29.316406 8.734375 29.503906 8.734375 Z M 28.203125 8.382812 L 28.683594 8.863281 L 28.203125 9.339844 L 27.722656 8.863281 Z M 26.898438 8.734375 C 27.085938 8.734375 27.238281 8.886719 27.238281 9.074219 C 27.238281 9.261719 27.085938 9.410156 26.898438 9.410156 C 26.710938 9.410156 26.558594 9.261719 26.558594 9.074219 C 26.558594 8.886719 26.710938 8.734375 26.898438 8.734375 Z M 30.234375 10.152344 C 29.570312 10.277344 28.890625 10.339844 28.203125 10.339844 C 27.519531 10.339844 26.839844 10.277344 26.175781 10.15625 C 26.167969 10.117188 26.164062 10.082031 26.160156 10.042969 C 26.828125 9.917969 27.511719 9.855469 28.203125 9.855469 C 28.898438 9.855469 29.582031 9.917969 30.253906 10.042969 C 30.246094 10.082031 30.242188 10.121094 30.234375 10.15625 Z M 30.234375 10.152344 "/>
<path style=" stroke:none;fill-rule:nonzero;fill:rgb(100%,100%,100%);fill-opacity:1;" d="M 33.519531 9.460938 L 33.679688 9.679688 L 33.210938 10.019531 L 33.859375 10.121094 L 32.4375 10.953125 L 32.015625 10.886719 L 28.203125 13.648438 L 24.390625 10.886719 L 23.972656 10.953125 L 22.546875 10.121094 L 23.195312 10.019531 L 22.730469 9.679688 L 22.886719 9.460938 L 23.355469 9.800781 L 23.253906 9.15625 L 24.484375 10.25 L 24.550781 10.667969 L 28.203125 13.316406 L 31.859375 10.667969 L 31.921875 10.25 L 33.15625 9.15625 L 33.054688 9.800781 Z M 33.519531 9.460938 "/>
<path style=" stroke:none;fill-rule:nonzero;fill:rgb(100%,100%,100%);fill-opacity:1;" d="M 32.441406 13.941406 L 32.445312 18.929688 L 28.894531 18.929688 L 28.871094 19.03125 C 28.792969 19.339844 28.523438 19.554688 28.203125 19.554688 C 27.886719 19.554688 27.613281 19.339844 27.539062 19.03125 L 27.515625 18.929688 L 23.964844 18.929688 L 23.96875 13.941406 L 23.695312 13.941406 L 23.695312 19.199219 L 27.308594 19.199219 C 27.445312 19.570312 27.800781 19.824219 28.203125 19.824219 C 28.609375 19.824219 28.964844 19.570312 29.101562 19.199219 L 32.714844 19.199219 L 32.714844 13.941406 Z M 32.441406 13.941406 "/>
<path style=" stroke:none;fill-rule:nonzero;fill:rgb(100%,100%,100%);fill-opacity:1;" d="M 35.136719 20.695312 C 34.816406 20.171875 34.4375 19.683594 34.003906 19.25 L 34 19.25 L 33.78125 19.550781 L 33.125 19.070312 L 33.125 19.40625 L 33.625 19.769531 L 33.40625 20.070312 L 33.410156 20.070312 C 33.957031 20.347656 34.539062 20.558594 35.136719 20.699219 L 35.144531 20.699219 L 35.140625 20.695312 Z M 35.136719 20.695312 "/>
<path style=" stroke:none;fill-rule:nonzero;fill:rgb(100%,100%,100%);fill-opacity:1;" d="M 22.230469 10.609375 L 22.332031 11.253906 L 21.867188 10.914062 L 21.707031 11.132812 L 22.171875 11.472656 L 21.527344 11.574219 L 22.953125 12.40625 L 23.371094 12.339844 L 24.519531 13.171875 L 24.984375 13.171875 L 23.527344 12.121094 L 23.460938 11.703125 Z M 22.230469 10.609375 "/>
<path style=" stroke:none;fill-rule:nonzero;fill:rgb(100%,100%,100%);fill-opacity:1;" d="M 21.3125 12.707031 L 20.84375 12.367188 L 20.6875 12.585938 L 21.152344 12.925781 L 20.503906 13.027344 L 21.929688 13.859375 L 22.347656 13.792969 L 23.285156 14.472656 L 23.285156 14.136719 L 22.507812 13.574219 L 22.441406 13.15625 L 21.207031 12.0625 Z M 21.3125 12.707031 "/>
<path style=" stroke:none;fill-rule:nonzero;fill:rgb(100%,100%,100%);fill-opacity:1;" d="M 34.113281 22.148438 C 33.792969 21.625 33.414062 21.136719 32.980469 20.703125 L 32.757812 21.003906 L 30.832031 19.605469 L 30.371094 19.605469 L 32.601562 21.222656 L 32.382812 21.523438 L 32.386719 21.523438 C 32.933594 21.800781 33.515625 22.011719 34.113281 22.152344 L 34.121094 22.152344 L 34.117188 22.148438 Z M 34.113281 22.148438 "/>
<path style=" stroke:none;fill-rule:nonzero;fill:rgb(100%,100%,100%);fill-opacity:1;" d="M 20.289062 14.160156 L 19.824219 13.820312 L 19.664062 14.039062 L 20.132812 14.378906 L 19.484375 14.480469 L 20.90625 15.3125 L 21.328125 15.246094 L 23.285156 16.664062 L 23.285156 16.332031 L 21.484375 15.027344 L 21.421875 14.609375 L 20.1875 13.511719 Z M 20.289062 14.160156 "/>
<path style=" stroke:none;fill-rule:nonzero;fill:rgb(100%,100%,100%);fill-opacity:1;" d="M 31.960938 22.15625 L 31.957031 22.15625 L 31.738281 22.457031 L 28.589844 20.171875 C 28.464844 20.210938 28.335938 20.230469 28.207031 20.230469 L 31.578125 22.675781 L 31.359375 22.976562 L 31.363281 22.976562 C 31.914062 23.253906 32.496094 23.464844 33.09375 23.605469 L 33.101562 23.605469 L 33.097656 23.601562 C 32.777344 23.078125 32.398438 22.589844 31.964844 22.15625 Z M 31.960938 22.15625 "/>
<path style=" stroke:none;fill-rule:nonzero;fill:rgb(100%,100%,100%);fill-opacity:1;" d="M 23.285156 17.214844 L 23.285156 16.878906 L 21.605469 18.097656 L 21.386719 17.792969 C 20.953125 18.230469 20.574219 18.71875 20.253906 19.242188 L 20.25 19.246094 L 20.257812 19.246094 C 20.855469 19.105469 21.4375 18.894531 21.988281 18.617188 L 21.992188 18.617188 L 21.769531 18.316406 L 23.292969 17.214844 Z M 23.285156 17.214844 "/>
<path style=" stroke:none;fill-rule:nonzero;fill:rgb(100%,100%,100%);fill-opacity:1;" d="M 36.15625 19.242188 C 35.839844 18.71875 35.457031 18.234375 35.023438 17.796875 L 34.804688 18.097656 L 33.125 16.882812 L 33.125 17.214844 L 34.644531 18.316406 L 34.425781 18.617188 L 34.429688 18.617188 C 34.980469 18.894531 35.5625 19.105469 36.15625 19.246094 L 36.164062 19.246094 L 36.160156 19.242188 Z M 36.15625 19.242188 "/>
<path style=" stroke:none;fill-rule:nonzero;fill:rgb(100%,100%,100%);fill-opacity:1;" d="M 30.035156 25.757812 C 30.078125 25.625 30.203125 25.238281 30.246094 25.109375 C 30.320312 24.875 30.195312 24.625 29.960938 24.546875 L 29.347656 24.4375 L 29.777344 23.984375 C 29.921875 23.785156 29.878906 23.507812 29.679688 23.363281 C 29.570312 23.285156 29.238281 23.042969 29.125 22.960938 C 29.046875 22.90625 28.953125 22.878906 28.863281 22.878906 C 28.726562 22.878906 28.589844 22.941406 28.503906 23.058594 L 28.207031 23.609375 L 27.910156 23.058594 C 27.824219 22.941406 27.6875 22.878906 27.550781 22.878906 C 27.457031 22.878906 27.367188 22.90625 27.289062 22.960938 C 27.175781 23.042969 26.84375 23.285156 26.734375 23.363281 C 26.535156 23.507812 26.488281 23.785156 26.632812 23.984375 L 27.066406 24.4375 L 26.449219 24.546875 C 26.21875 24.625 26.089844 24.875 26.164062 25.109375 C 26.207031 25.238281 26.335938 25.625 26.378906 25.757812 C 26.441406 25.945312 26.613281 26.066406 26.800781 26.066406 C 26.847656 26.066406 26.894531 26.058594 26.9375 26.042969 L 27.5 25.773438 L 27.417969 26.390625 C 27.417969 26.636719 27.617188 26.835938 27.863281 26.835938 L 28.546875 26.835938 C 28.792969 26.835938 28.992188 26.636719 28.992188 26.390625 L 28.910156 25.773438 L 29.472656 26.042969 C 29.519531 26.058594 29.566406 26.066406 29.609375 26.066406 C 29.796875 26.066406 29.972656 25.945312 30.03125 25.757812 Z M 28.640625 25.339844 C 28.625 25.339844 28.609375 25.339844 28.59375 25.339844 C 28.515625 25.640625 28.207031 25.949219 28.207031 25.949219 C 28.207031 25.949219 27.894531 25.644531 27.820312 25.339844 C 27.804688 25.339844 27.785156 25.339844 27.769531 25.339844 C 27.464844 25.339844 27.121094 25.15625 27.121094 25.15625 C 27.121094 25.15625 27.3125 24.769531 27.582031 24.601562 C 27.460938 24.308594 27.535156 23.882812 27.535156 23.882812 C 27.535156 23.882812 27.964844 23.949219 28.207031 24.148438 C 28.445312 23.945312 28.878906 23.882812 28.878906 23.882812 C 28.878906 23.882812 28.949219 24.3125 28.832031 24.601562 C 29.097656 24.769531 29.292969 25.15625 29.292969 25.15625 C 29.292969 25.15625 28.945312 25.339844 28.640625 25.339844 Z M 28.640625 25.339844 "/>
<path style=" stroke:none;fill-rule:nonzero;fill:rgb(100%,100%,100%);fill-opacity:1;" d="M 28.5 24.804688 C 28.5 24.644531 28.367188 24.511719 28.207031 24.511719 C 28.042969 24.511719 27.914062 24.644531 27.914062 24.804688 C 27.914062 24.96875 28.042969 25.097656 28.207031 25.097656 C 28.367188 25.097656 28.5 24.96875 28.5 24.804688 Z M 28.5 24.804688 "/>
<path style=" stroke:none;fill-rule:nonzero;fill:rgb(100%,100%,100%);fill-opacity:1;" d="M 26.359375 24.261719 L 26.398438 24.253906 L 26.460938 24.242188 L 26.417969 24.191406 L 26.402344 24.175781 L 26.390625 24.160156 C 26.320312 24.0625 26.277344 23.957031 26.257812 23.84375 C 26.042969 23.898438 25.863281 23.988281 25.855469 23.992188 L 25.796875 24.023438 L 25.828125 24.082031 C 25.832031 24.097656 25.921875 24.273438 26.066406 24.441406 C 26.144531 24.363281 26.246094 24.296875 26.359375 24.261719 Z M 26.359375 24.261719 "/>
<path style=" stroke:none;fill-rule:nonzero;fill:rgb(100%,100%,100%);fill-opacity:1;" d="M 28.152344 22.882812 L 28.164062 22.902344 L 28.171875 22.917969 L 28.203125 22.976562 L 28.234375 22.917969 L 28.246094 22.902344 L 28.257812 22.882812 C 28.324219 22.789062 28.417969 22.710938 28.519531 22.660156 C 28.402344 22.472656 28.261719 22.335938 28.25 22.324219 L 28.203125 22.277344 L 28.15625 22.324219 C 28.148438 22.335938 28.007812 22.472656 27.890625 22.660156 C 27.992188 22.710938 28.082031 22.789062 28.152344 22.882812 Z M 28.152344 22.882812 "/>
<path style=" stroke:none;fill-rule:nonzero;fill:rgb(100%,100%,100%);fill-opacity:1;" d="M 30.558594 23.996094 C 30.546875 23.988281 30.367188 23.898438 30.152344 23.84375 C 30.136719 23.957031 30.089844 24.066406 30.019531 24.160156 L 30.007812 24.179688 L 29.992188 24.195312 L 29.949219 24.242188 L 30.011719 24.253906 L 30.03125 24.257812 L 30.050781 24.265625 C 30.167969 24.300781 30.265625 24.363281 30.347656 24.441406 C 30.488281 24.273438 30.578125 24.097656 30.585938 24.085938 L 30.613281 24.027344 Z M 30.558594 23.996094 "/>
<path style=" stroke:none;fill-rule:nonzero;fill:rgb(100%,100%,100%);fill-opacity:1;" d="M 29.609375 26.363281 C 29.53125 26.363281 29.453125 26.351562 29.378906 26.328125 L 29.359375 26.320312 L 29.34375 26.3125 L 29.285156 26.285156 L 29.292969 26.347656 L 29.292969 26.390625 C 29.296875 26.511719 29.265625 26.625 29.214844 26.722656 C 29.421875 26.804688 29.617188 26.835938 29.628906 26.839844 L 29.695312 26.847656 L 29.707031 26.785156 C 29.710938 26.769531 29.742188 26.574219 29.726562 26.355469 C 29.6875 26.359375 29.648438 26.363281 29.609375 26.363281 Z M 29.609375 26.363281 "/>
<path style=" stroke:none;fill-rule:nonzero;fill:rgb(100%,100%,100%);fill-opacity:1;" d="M 27.117188 26.390625 L 27.117188 26.347656 L 27.128906 26.285156 L 27.066406 26.3125 L 27.050781 26.320312 L 27.03125 26.328125 C 26.957031 26.351562 26.878906 26.363281 26.800781 26.363281 C 26.761719 26.363281 26.726562 26.359375 26.6875 26.355469 C 26.671875 26.574219 26.703125 26.769531 26.703125 26.785156 L 26.714844 26.847656 L 26.78125 26.839844 C 26.792969 26.835938 26.992188 26.804688 27.195312 26.722656 C 27.144531 26.625 27.117188 26.507812 27.117188 26.390625 Z M 27.117188 26.390625 "/>
<path style=" stroke:none;fill-rule:nonzero;fill:rgb(100%,100%,100%);fill-opacity:1;" d="M 27.539062 15.785156 C 27.480469 15.785156 27.445312 15.859375 27.4375 15.992188 L 27.546875 15.992188 C 27.605469 15.992188 27.621094 15.976562 27.621094 15.914062 C 27.621094 15.835938 27.589844 15.785156 27.535156 15.785156 Z M 27.539062 15.785156 "/>
<path style=" stroke:none;fill-rule:nonzero;fill:rgb(100%,100%,100%);fill-opacity:1;" d="M 24.871094 15.570312 L 24.832031 15.570312 C 24.828125 15.683594 24.828125 15.796875 24.828125 15.914062 L 24.828125 15.960938 C 24.828125 16.082031 24.828125 16.195312 24.832031 16.308594 L 24.867188 16.308594 C 25.023438 16.308594 25.117188 16.171875 25.117188 15.9375 C 25.117188 15.707031 25.027344 15.566406 24.867188 15.566406 Z M 24.871094 15.570312 "/>
<path style=" stroke:none;fill-rule:nonzero;fill:rgb(100%,100%,100%);fill-opacity:1;" d="M 27.179688 13.445312 L 24.238281 13.445312 L 24.238281 18.398438 L 27.179688 18.398438 C 27.539062 18.398438 27.855469 18.558594 28.070312 18.8125 L 28.070312 14.332031 C 28.070312 13.84375 27.671875 13.445312 27.179688 13.445312 Z M 25.636719 15.363281 C 25.710938 15.363281 25.765625 15.417969 25.765625 15.488281 C 25.765625 15.558594 25.710938 15.609375 25.636719 15.609375 C 25.5625 15.609375 25.507812 15.558594 25.507812 15.488281 C 25.507812 15.417969 25.5625 15.363281 25.636719 15.363281 Z M 24.867188 16.414062 L 24.460938 16.414062 L 24.460938 16.320312 L 24.570312 16.308594 C 24.570312 16.199219 24.570312 16.085938 24.570312 15.964844 L 24.570312 15.917969 C 24.570312 15.808594 24.570312 15.691406 24.570312 15.578125 L 24.460938 15.566406 L 24.460938 15.472656 L 24.890625 15.472656 C 25.195312 15.472656 25.382812 15.652344 25.382812 15.941406 C 25.382812 16.234375 25.183594 16.417969 24.867188 16.417969 Z M 25.832031 16.414062 L 25.4375 16.414062 L 25.4375 16.332031 L 25.515625 16.3125 C 25.515625 16.25 25.515625 16.164062 25.515625 16.109375 L 25.515625 16.042969 C 25.515625 15.96875 25.515625 15.925781 25.511719 15.875 L 25.421875 15.859375 L 25.421875 15.789062 L 25.730469 15.691406 L 25.761719 15.710938 L 25.757812 15.921875 L 25.757812 16.109375 C 25.757812 16.164062 25.757812 16.25 25.757812 16.316406 L 25.832031 16.328125 Z M 26.125 16.4375 C 26.03125 16.4375 25.949219 16.414062 25.875 16.371094 L 25.867188 16.367188 L 25.871094 16.179688 L 26.003906 16.179688 L 26.027344 16.320312 C 26.058594 16.332031 26.089844 16.339844 26.125 16.339844 C 26.199219 16.339844 26.238281 16.3125 26.238281 16.265625 C 26.238281 16.230469 26.21875 16.203125 26.128906 16.175781 L 26.050781 16.152344 C 25.933594 16.117188 25.875 16.042969 25.875 15.933594 C 25.875 15.789062 25.996094 15.691406 26.175781 15.691406 C 26.253906 15.691406 26.320312 15.710938 26.40625 15.753906 L 26.410156 15.757812 L 26.398438 15.925781 L 26.269531 15.925781 L 26.238281 15.804688 C 26.21875 15.796875 26.199219 15.792969 26.167969 15.792969 C 26.140625 15.792969 26.074219 15.800781 26.074219 15.863281 C 26.074219 15.890625 26.082031 15.917969 26.183594 15.945312 L 26.253906 15.964844 C 26.386719 16.003906 26.449219 16.078125 26.449219 16.195312 C 26.449219 16.347656 26.324219 16.4375 26.121094 16.4375 Z M 27.152344 15.914062 C 27.136719 15.96875 27.101562 15.992188 27.046875 15.992188 C 27.007812 15.992188 26.9375 15.972656 26.929688 15.851562 L 26.917969 15.789062 C 26.917969 15.789062 26.90625 15.789062 26.902344 15.789062 C 26.828125 15.789062 26.742188 15.855469 26.742188 16.046875 C 26.742188 16.195312 26.8125 16.289062 26.929688 16.289062 C 26.988281 16.289062 27.035156 16.265625 27.078125 16.210938 L 27.085938 16.203125 L 27.148438 16.261719 L 27.144531 16.269531 C 27.089844 16.382812 26.988281 16.441406 26.847656 16.441406 C 26.597656 16.441406 26.484375 16.257812 26.484375 16.074219 C 26.484375 15.851562 26.644531 15.699219 26.875 15.699219 C 27.023438 15.699219 27.136719 15.789062 27.148438 15.914062 L 27.148438 15.917969 Z M 27.617188 16.285156 C 27.683594 16.285156 27.734375 16.261719 27.78125 16.210938 L 27.789062 16.203125 L 27.851562 16.261719 L 27.847656 16.269531 C 27.789062 16.382812 27.6875 16.4375 27.542969 16.4375 C 27.324219 16.4375 27.179688 16.292969 27.179688 16.066406 C 27.179688 15.820312 27.367188 15.691406 27.554688 15.691406 C 27.738281 15.691406 27.855469 15.8125 27.855469 16 C 27.855469 16.03125 27.855469 16.050781 27.847656 16.078125 L 27.847656 16.085938 L 27.441406 16.085938 C 27.453125 16.210938 27.515625 16.28125 27.617188 16.28125 Z M 27.617188 16.285156 "/>
<path style=" stroke:none;fill-rule:nonzero;fill:rgb(100%,100%,100%);fill-opacity:1;" d="M 29.125 15.570312 L 29.085938 15.570312 C 29.085938 15.683594 29.085938 15.796875 29.085938 15.914062 L 29.085938 15.960938 C 29.085938 16.082031 29.085938 16.195312 29.085938 16.308594 L 29.125 16.308594 C 29.28125 16.308594 29.375 16.171875 29.375 15.9375 C 29.375 15.707031 29.285156 15.566406 29.125 15.566406 Z M 29.125 15.570312 "/>
<path style=" stroke:none;fill-rule:nonzero;fill:rgb(100%,100%,100%);fill-opacity:1;" d="M 30.058594 15.785156 C 29.984375 15.785156 29.949219 15.875 29.949219 16.0625 C 29.949219 16.3125 30.011719 16.339844 30.058594 16.339844 C 30.132812 16.339844 30.164062 16.253906 30.164062 16.0625 C 30.164062 15.875 30.132812 15.785156 30.058594 15.785156 Z M 30.058594 15.785156 "/>
<path style=" stroke:none;fill-rule:nonzero;fill:rgb(100%,100%,100%);fill-opacity:1;" d="M 29.226562 13.445312 C 28.738281 13.445312 28.339844 13.84375 28.339844 14.332031 L 28.339844 18.8125 C 28.550781 18.558594 28.871094 18.398438 29.226562 18.398438 L 32.167969 18.398438 L 32.167969 13.445312 Z M 29.125 16.414062 L 28.71875 16.414062 L 28.71875 16.320312 L 28.824219 16.308594 C 28.828125 16.195312 28.828125 16.082031 28.828125 15.964844 L 28.828125 15.917969 C 28.828125 15.804688 28.828125 15.6875 28.824219 15.574219 L 28.71875 15.566406 L 28.71875 15.46875 L 29.148438 15.46875 C 29.449219 15.46875 29.640625 15.652344 29.640625 15.941406 C 29.640625 16.230469 29.441406 16.414062 29.125 16.414062 Z M 30.058594 16.433594 C 29.835938 16.433594 29.691406 16.289062 29.691406 16.058594 C 29.691406 15.847656 29.84375 15.691406 30.058594 15.691406 C 30.273438 15.691406 30.425781 15.84375 30.425781 16.058594 C 30.425781 16.277344 30.28125 16.433594 30.058594 16.433594 Z M 31.132812 15.910156 C 31.117188 15.964844 31.082031 15.992188 31.027344 15.992188 C 30.988281 15.992188 30.917969 15.972656 30.910156 15.847656 L 30.898438 15.789062 C 30.898438 15.789062 30.886719 15.789062 30.882812 15.789062 C 30.808594 15.789062 30.722656 15.855469 30.722656 16.042969 C 30.722656 16.195312 30.792969 16.285156 30.910156 16.285156 C 30.96875 16.285156 31.015625 16.261719 31.058594 16.210938 L 31.066406 16.203125 L 31.128906 16.257812 L 31.125 16.265625 C 31.066406 16.378906 30.964844 16.441406 30.824219 16.441406 C 30.574219 16.441406 30.460938 16.257812 30.460938 16.070312 C 30.460938 15.851562 30.621094 15.695312 30.855469 15.695312 C 31.003906 15.695312 31.117188 15.789062 31.128906 15.914062 L 31.128906 15.917969 Z M 31.597656 16.28125 C 31.664062 16.28125 31.714844 16.257812 31.761719 16.207031 L 31.769531 16.199219 L 31.832031 16.257812 L 31.828125 16.265625 C 31.769531 16.378906 31.667969 16.433594 31.523438 16.433594 C 31.304688 16.433594 31.164062 16.289062 31.164062 16.0625 C 31.164062 15.820312 31.347656 15.691406 31.535156 15.691406 C 31.71875 15.691406 31.835938 15.8125 31.835938 16 C 31.835938 16.027344 31.835938 16.050781 31.828125 16.074219 L 31.828125 16.082031 L 31.421875 16.082031 C 31.433594 16.207031 31.496094 16.28125 31.597656 16.28125 Z M 31.597656 16.28125 "/>
<path style=" stroke:none;fill-rule:nonzero;fill:rgb(100%,100%,100%);fill-opacity:1;" d="M 31.519531 15.785156 C 31.460938 15.785156 31.425781 15.859375 31.417969 15.992188 L 31.527344 15.992188 C 31.585938 15.992188 31.601562 15.976562 31.601562 15.914062 C 31.601562 15.835938 31.570312 15.785156 31.515625 15.785156 Z M 31.519531 15.785156 "/>
<path style=" stroke:none;fill-rule:nonzero;fill:rgb(26.666668%,0%,60.000002%);fill-opacity:1;" d="M 33.785156 40.636719 C 34.292969 40.636719 34.695312 40.273438 34.695312 39.777344 C 34.695312 39.28125 34.292969 38.910156 33.785156 38.910156 C 33.277344 38.910156 32.863281 39.257812 32.863281 39.777344 C 32.863281 40.296875 33.265625 40.636719 33.785156 40.636719 Z M 33.785156 40.636719 "/>
<path style=" stroke:none;fill-rule:nonzero;fill:rgb(26.666668%,0%,60.000002%);fill-opacity:1;" d="M 8.820312 31.355469 L 10.773438 31.355469 L 10.773438 31.738281 L 10.082031 31.820312 L 10.082031 34.476562 C 10.082031 36.1875 9.269531 36.871094 8.039062 36.871094 C 6.8125 36.871094 6.015625 36.246094 6.015625 34.707031 L 6.015625 33.820312 C 6.015625 33.15625 6.015625 32.476562 6 31.804688 L 5.367188 31.738281 L 5.367188 31.359375 L 7.839844 31.359375 L 7.839844 31.738281 L 7.089844 31.820312 C 7.074219 32.476562 7.074219 33.148438 7.074219 33.824219 L 7.074219 34.457031 C 7.074219 35.777344 7.53125 36.214844 8.328125 36.214844 C 9.121094 36.214844 9.609375 35.710938 9.609375 34.375 L 9.609375 31.824219 L 8.820312 31.738281 Z M 8.820312 31.355469 "/>
<path style=" stroke:none;fill-rule:nonzero;fill:rgb(26.666668%,0%,60.000002%);fill-opacity:1;" d="M 10.871094 36.398438 L 11.398438 36.292969 C 11.40625 35.894531 11.40625 35.375 11.40625 35.027344 L 11.40625 34.597656 C 11.40625 34.152344 11.398438 33.949219 11.382812 33.625 L 10.8125 33.550781 L 10.8125 33.246094 L 12.171875 32.734375 L 12.300781 32.816406 L 12.359375 33.441406 C 12.773438 32.96875 13.242188 32.734375 13.738281 32.734375 C 14.449219 32.734375 14.847656 33.179688 14.847656 34.183594 L 14.847656 35.027344 C 14.847656 35.394531 14.847656 35.902344 14.851562 36.300781 L 15.347656 36.398438 L 15.347656 36.730469 L 13.339844 36.730469 L 13.339844 36.398438 L 13.859375 36.292969 C 13.867188 35.894531 13.867188 35.390625 13.867188 35.027344 L 13.867188 34.257812 C 13.867188 33.625 13.703125 33.414062 13.296875 33.414062 C 13.015625 33.414062 12.714844 33.542969 12.386719 33.8125 L 12.386719 35.027344 C 12.386719 35.382812 12.386719 35.894531 12.394531 36.300781 L 12.875 36.398438 L 12.875 36.730469 L 10.867188 36.730469 L 10.867188 36.398438 Z M 10.871094 36.398438 "/>
<path style=" stroke:none;fill-rule:nonzero;fill:rgb(26.666668%,0%,60.000002%);fill-opacity:1;" d="M 15.761719 36.398438 L 16.296875 36.292969 C 16.304688 35.894531 16.304688 35.375 16.304688 35.027344 L 16.304688 34.648438 C 16.304688 34.203125 16.296875 33.949219 16.28125 33.625 L 15.703125 33.554688 L 15.703125 33.246094 L 17.167969 32.734375 L 17.296875 32.816406 L 17.273438 33.960938 L 17.273438 35.03125 C 17.273438 35.378906 17.273438 35.898438 17.28125 36.300781 L 17.777344 36.398438 L 17.777344 36.730469 L 15.761719 36.730469 Z M 15.761719 36.398438 "/>
<path style=" stroke:none;fill-rule:nonzero;fill:rgb(26.666668%,0%,60.000002%);fill-opacity:1;" d="M 20.410156 32.847656 L 21.953125 32.847656 L 21.953125 33.1875 L 21.496094 33.285156 L 20.164062 36.765625 L 19.683594 36.765625 L 18.210938 33.261719 L 17.789062 33.1875 L 17.789062 32.847656 L 19.925781 32.847656 L 19.925781 33.1875 L 19.300781 33.285156 L 20.195312 35.636719 L 21 33.292969 L 20.40625 33.1875 L 20.40625 32.847656 Z M 20.410156 32.847656 "/>
<path style=" stroke:none;fill-rule:nonzero;fill:rgb(26.666668%,0%,60.000002%);fill-opacity:1;" d="M 22.015625 34.808594 C 22.015625 33.511719 22.96875 32.734375 23.992188 32.734375 C 24.949219 32.734375 25.585938 33.382812 25.585938 34.363281 C 25.585938 34.550781 25.566406 34.6875 25.535156 34.808594 L 23.050781 34.808594 C 23.089844 35.742188 23.585938 36.203125 24.269531 36.203125 C 24.75 36.203125 25.058594 35.992188 25.324219 35.691406 L 25.5625 35.902344 C 25.242188 36.503906 24.691406 36.84375 23.9375 36.84375 C 22.796875 36.84375 22.015625 36.082031 22.015625 34.808594 Z M 23.054688 34.429688 L 24.171875 34.429688 C 24.558594 34.429688 24.65625 34.257812 24.65625 33.96875 C 24.65625 33.472656 24.332031 33.125 23.933594 33.125 C 23.535156 33.125 23.121094 33.464844 23.054688 34.429688 Z M 23.054688 34.429688 "/>
<path style=" stroke:none;fill-rule:nonzero;fill:rgb(26.666668%,0%,60.000002%);fill-opacity:1;" d="M 29.59375 36.503906 L 29.585938 35.5625 L 30.132812 35.5625 L 30.277344 36.320312 C 30.472656 36.402344 30.675781 36.441406 30.910156 36.441406 C 31.464844 36.441406 31.730469 36.238281 31.730469 35.886719 C 31.730469 35.589844 31.539062 35.417969 31.015625 35.246094 L 30.609375 35.109375 C 30 34.914062 29.625 34.542969 29.625 33.96875 C 29.625 33.292969 30.171875 32.734375 31.171875 32.734375 C 31.636719 32.734375 32 32.855469 32.382812 33.066406 L 32.339844 33.917969 L 31.804688 33.917969 L 31.660156 33.238281 C 31.503906 33.171875 31.351562 33.140625 31.15625 33.140625 C 30.722656 33.140625 30.472656 33.335938 30.472656 33.652344 C 30.472656 33.945312 30.636719 34.089844 31.1875 34.277344 L 31.511719 34.375 C 32.300781 34.640625 32.609375 35.039062 32.609375 35.597656 C 32.609375 36.328125 32 36.847656 30.902344 36.847656 C 30.40625 36.847656 30.007812 36.734375 29.59375 36.503906 Z M 29.59375 36.503906 "/>
<path style=" stroke:none;fill-rule:nonzero;fill:rgb(26.666668%,0%,60.000002%);fill-opacity:1;" d="M 32.941406 36.398438 L 33.480469 36.292969 C 33.488281 35.894531 33.488281 35.375 33.488281 35.027344 L 33.488281 34.648438 C 33.488281 34.203125 33.480469 33.949219 33.460938 33.625 L 32.886719 33.554688 L 32.886719 33.246094 L 34.347656 32.734375 L 34.476562 32.816406 L 34.453125 33.960938 L 34.453125 35.03125 C 34.453125 35.378906 34.453125 35.898438 34.460938 36.300781 L 34.957031 36.398438 L 34.957031 36.730469 L 32.941406 36.730469 Z M 32.941406 36.398438 "/>
<path style=" stroke:none;fill-rule:nonzero;fill:rgb(26.666668%,0%,60.000002%);fill-opacity:1;" d="M 35.613281 35.824219 C 35.613281 35.578125 35.621094 35.386719 35.621094 35.070312 L 35.621094 33.339844 L 35.019531 33.339844 L 35.019531 32.921875 L 35.675781 32.839844 L 35.984375 31.726562 L 36.640625 31.726562 L 36.609375 32.847656 L 37.585938 32.847656 L 37.585938 33.339844 L 36.601562 33.339844 L 36.601562 35.734375 C 36.601562 36.128906 36.773438 36.308594 37.035156 36.308594 C 37.195312 36.308594 37.34375 36.242188 37.527344 36.105469 L 37.722656 36.308594 C 37.511719 36.648438 37.152344 36.84375 36.652344 36.84375 C 36 36.84375 35.609375 36.535156 35.609375 35.820312 Z M 35.613281 35.824219 "/>
<path style=" stroke:none;fill-rule:nonzero;fill:rgb(26.666668%,0%,60.000002%);fill-opacity:1;" d="M 44.074219 34.792969 C 44.074219 33.496094 44.984375 32.734375 46.03125 32.734375 C 47.082031 32.734375 48 33.488281 48 34.792969 C 48 36.097656 47.128906 36.84375 46.03125 36.84375 C 44.9375 36.84375 44.074219 36.082031 44.074219 34.792969 Z M 46.933594 34.800781 C 46.933594 33.683594 46.617188 33.128906 46.03125 33.128906 C 45.449219 33.128906 45.136719 33.683594 45.136719 34.800781 C 45.136719 35.917969 45.445312 36.445312 46.03125 36.445312 C 46.617188 36.445312 46.933594 35.917969 46.933594 34.800781 Z M 46.933594 34.800781 "/>
<path style=" stroke:none;fill-rule:nonzero;fill:rgb(26.666668%,0%,60.000002%);fill-opacity:1;" d="M 5.539062 47.28125 L 5.613281 45.542969 L 6.542969 45.542969 L 6.785156 47.003906 C 7.160156 47.175781 7.523438 47.257812 8.007812 47.257812 C 9.015625 47.257812 9.621094 46.75 9.621094 45.953125 C 9.621094 45.238281 9.234375 44.914062 8.347656 44.550781 L 7.851562 44.347656 C 6.519531 43.777344 5.683594 43.066406 5.683594 41.785156 C 5.683594 40.359375 6.859375 39.5 8.554688 39.5 C 9.390625 39.5 10.128906 39.742188 10.6875 40.128906 L 10.601562 41.761719 L 9.683594 41.761719 L 9.441406 40.359375 C 9.152344 40.226562 8.871094 40.164062 8.53125 40.164062 C 7.722656 40.164062 7.078125 40.613281 7.078125 41.398438 C 7.078125 42.097656 7.527344 42.484375 8.324219 42.8125 L 8.847656 43.027344 C 10.421875 43.695312 11.039062 44.371094 11.039062 45.554688 C 11.039062 46.980469 9.898438 47.921875 8.023438 47.921875 C 7.113281 47.921875 6.167969 47.683594 5.539062 47.28125 Z M 5.539062 47.28125 "/>
<path style=" stroke:none;fill-rule:nonzero;fill:rgb(26.666668%,0%,60.000002%);fill-opacity:1;" d="M 11.484375 47.222656 L 12.28125 47.066406 C 12.292969 46.472656 12.292969 45.699219 12.292969 45.179688 L 12.292969 39.996094 L 11.410156 39.875 L 11.410156 39.402344 L 13.578125 38.859375 L 13.761719 38.96875 L 13.710938 40.671875 L 13.710938 42.832031 C 14.328125 42.121094 15.042969 41.757812 15.78125 41.757812 C 16.835938 41.757812 17.445312 42.421875 17.445312 43.921875 L 17.445312 45.175781 C 17.445312 45.71875 17.445312 46.480469 17.457031 47.074219 L 18.195312 47.21875 L 18.195312 47.714844 L 15.203125 47.714844 L 15.203125 47.21875 L 15.976562 47.0625 C 15.988281 46.46875 15.988281 45.71875 15.988281 45.175781 L 15.988281 44.027344 C 15.988281 43.085938 15.757812 42.769531 15.152344 42.769531 C 14.691406 42.769531 14.246094 42.988281 13.746094 43.460938 L 13.746094 45.175781 C 13.746094 45.707031 13.746094 46.46875 13.757812 47.074219 L 14.476562 47.21875 L 14.476562 47.714844 L 11.484375 47.714844 L 11.484375 47.21875 Z M 11.484375 47.222656 "/>
<path style=" stroke:none;fill-rule:nonzero;fill:rgb(26.666668%,0%,60.000002%);fill-opacity:1;" d="M 18.558594 44.855469 C 18.558594 42.921875 19.976562 41.757812 21.503906 41.757812 C 22.933594 41.757812 23.878906 42.726562 23.878906 44.1875 C 23.878906 44.464844 23.855469 44.671875 23.804688 44.855469 L 20.097656 44.855469 C 20.160156 46.242188 20.898438 46.933594 21.914062 46.933594 C 22.632812 46.933594 23.089844 46.617188 23.492188 46.171875 L 23.84375 46.484375 C 23.371094 47.378906 22.546875 47.886719 21.417969 47.886719 C 19.722656 47.886719 18.558594 46.75 18.558594 44.855469 Z M 20.109375 44.285156 L 21.769531 44.285156 C 22.351562 44.285156 22.496094 44.03125 22.496094 43.597656 C 22.496094 42.859375 22.011719 42.339844 21.417969 42.339844 C 20.824219 42.339844 20.207031 42.847656 20.109375 44.285156 Z M 20.109375 44.285156 "/>
<path style=" stroke:none;fill-rule:nonzero;fill:rgb(26.666668%,0%,60.000002%);fill-opacity:1;" d="M 35.453125 44.855469 C 35.453125 42.921875 36.871094 41.757812 38.398438 41.757812 C 39.828125 41.757812 40.773438 42.726562 40.773438 44.1875 C 40.773438 44.464844 40.746094 44.671875 40.699219 44.855469 L 36.992188 44.855469 C 37.054688 46.242188 37.792969 46.933594 38.808594 46.933594 C 39.523438 46.933594 39.984375 46.617188 40.382812 46.171875 L 40.734375 46.484375 C 40.261719 47.378906 39.441406 47.886719 38.3125 47.886719 C 36.617188 47.886719 35.453125 46.75 35.453125 44.855469 Z M 37.003906 44.285156 L 38.664062 44.285156 C 39.246094 44.285156 39.390625 44.03125 39.390625 43.597656 C 39.390625 42.859375 38.90625 42.339844 38.3125 42.339844 C 37.71875 42.339844 37.101562 42.847656 37.003906 44.285156 Z M 37.003906 44.285156 "/>
<path style=" stroke:none;fill-rule:nonzero;fill:rgb(26.666668%,0%,60.000002%);fill-opacity:1;" d="M 41.207031 47.222656 L 42.03125 47.066406 C 42.042969 46.4375 42.054688 45.808594 42.054688 45.179688 L 42.054688 39.996094 L 41.171875 39.875 L 41.171875 39.402344 L 43.375 38.859375 L 43.554688 38.96875 L 43.507812 40.671875 L 43.507812 45.179688 C 43.507812 45.808594 43.519531 46.4375 43.53125 47.066406 L 44.355469 47.222656 L 44.355469 47.71875 L 41.207031 47.71875 Z M 41.207031 47.222656 "/>
<path style=" stroke:none;fill-rule:nonzero;fill:rgb(26.666668%,0%,60.000002%);fill-opacity:1;" d="M 48.839844 47.089844 C 48.390625 47.609375 47.859375 47.886719 47.144531 47.886719 C 45.714844 47.886719 44.699219 46.738281 44.699219 44.875 C 44.699219 43.015625 45.894531 41.757812 47.324219 41.757812 C 47.945312 41.757812 48.414062 41.976562 48.851562 42.484375 L 48.851562 39.992188 L 47.90625 39.871094 L 47.90625 39.402344 L 50.125 38.855469 L 50.304688 38.964844 L 50.257812 40.667969 L 50.257812 47.085938 L 51.042969 47.21875 L 51.042969 47.714844 L 48.933594 47.847656 Z M 47.726562 47.027344 C 48.148438 47.027344 48.476562 46.859375 48.792969 46.53125 L 48.792969 43.0625 C 48.414062 42.738281 48.101562 42.605469 47.738281 42.605469 C 46.925781 42.605469 46.246094 43.304688 46.246094 44.851562 C 46.246094 46.3125 46.863281 47.027344 47.726562 47.027344 Z M 47.726562 47.027344 "/>
<path style=" stroke:none;fill-rule:nonzero;fill:rgb(26.666668%,0%,60.000002%);fill-opacity:1;" d="M 28.742188 32.734375 C 28.203125 32.722656 27.808594 33.042969 27.523438 33.773438 L 27.441406 32.816406 L 27.3125 32.734375 L 25.953125 33.246094 L 25.953125 33.550781 L 26.523438 33.625 C 26.539062 33.949219 26.546875 34.152344 26.546875 34.597656 L 26.546875 35.027344 C 26.546875 35.375 26.546875 35.894531 26.539062 36.300781 L 26.019531 36.398438 L 26.019531 36.730469 L 28.207031 36.730469 L 28.207031 36.398438 L 27.539062 36.265625 C 27.53125 35.871094 27.53125 35.367188 27.53125 35.027344 L 27.53125 34.433594 C 27.652344 34.003906 27.890625 33.621094 28.1875 33.40625 C 28.25 33.640625 28.46875 33.800781 28.742188 33.800781 C 29.054688 33.800781 29.304688 33.578125 29.304688 33.269531 C 29.304688 32.960938 29.054688 32.738281 28.742188 32.730469 Z M 28.742188 32.734375 "/>
<path style=" stroke:none;fill-rule:nonzero;fill:rgb(26.666668%,0%,60.000002%);fill-opacity:1;" d="M 34.539062 47.078125 C 34.527344 46.472656 34.527344 45.710938 34.527344 45.179688 L 34.527344 43.582031 L 34.5625 41.699219 L 34.378906 41.59375 L 33.019531 41.925781 L 30.65625 41.925781 C 30.65625 41.925781 30.65625 41.039062 30.65625 40.730469 C 30.65625 40.417969 30.675781 39.761719 31.109375 39.523438 C 31.109375 39.523438 31.046875 39.632812 31.058594 39.835938 C 31.082031 40.1875 31.375 40.4375 31.75 40.4375 C 32.125 40.4375 32.433594 40.164062 32.433594 39.792969 C 32.433594 39.445312 32.148438 38.910156 31.320312 38.910156 C 30.589844 38.910156 29.234375 39.285156 29.234375 41.890625 L 29.234375 41.929688 L 26.722656 41.929688 L 26.722656 40.730469 C 26.722656 40.421875 26.742188 39.761719 27.179688 39.527344 C 27.179688 39.527344 27.117188 39.636719 27.125 39.839844 C 27.152344 40.1875 27.441406 40.4375 27.816406 40.4375 C 28.191406 40.4375 28.5 40.167969 28.5 39.792969 C 28.5 39.445312 28.21875 38.910156 27.390625 38.910156 C 26.660156 38.910156 25.304688 39.289062 25.304688 41.890625 L 25.304688 41.917969 L 24.382812 42.039062 L 24.382812 42.667969 L 25.277344 42.667969 L 25.277344 45.183594 C 25.277344 45.8125 25.265625 46.4375 25.253906 47.066406 L 24.445312 47.226562 L 24.445312 47.71875 L 27.714844 47.71875 L 27.714844 47.226562 L 26.769531 47.042969 C 26.757812 46.425781 26.746094 45.800781 26.746094 45.183594 L 26.746094 42.667969 L 29.207031 42.667969 L 29.207031 45.183594 C 29.207031 45.8125 29.195312 46.4375 29.183594 47.066406 L 28.371094 47.226562 L 28.371094 47.71875 L 31.640625 47.71875 L 31.640625 47.226562 L 30.699219 47.042969 C 30.683594 46.425781 30.671875 45.800781 30.671875 45.183594 L 30.671875 42.667969 L 33.019531 42.667969 C 33.042969 43.167969 33.050781 43.710938 33.050781 44.445312 L 33.050781 45.179688 C 33.050781 45.699219 33.050781 46.472656 33.039062 47.066406 L 32.253906 47.222656 L 32.253906 47.71875 L 35.257812 47.71875 L 35.257812 47.222656 L 34.53125 47.078125 Z M 34.539062 47.078125 "/>
<path style=" stroke:none;fill-rule:nonzero;fill:rgb(26.666668%,0%,60.000002%);fill-opacity:1;" d="M 40.671875 32.847656 L 40.671875 33.171875 L 41.289062 33.269531 L 40.40625 35.742188 L 39.496094 33.261719 L 40.136719 33.171875 L 40.136719 32.847656 L 38.007812 32.847656 L 38.007812 33.171875 L 38.421875 33.238281 L 39.96875 36.992188 L 39.949219 37.039062 C 39.804688 37.453125 39.59375 37.824219 39.300781 38.101562 C 39.253906 37.859375 39.042969 37.699219 38.785156 37.699219 C 38.480469 37.699219 38.25 37.902344 38.25 38.207031 C 38.25 38.507812 38.480469 38.703125 38.785156 38.703125 L 38.796875 38.703125 C 39.503906 38.703125 39.917969 38.121094 40.390625 36.878906 L 41.777344 33.261719 L 42.234375 33.171875 L 42.234375 32.847656 Z M 40.671875 32.847656 "/>
<path style=" stroke:none;fill-rule:nonzero;fill:rgb(26.666668%,0%,60.000002%);fill-opacity:1;" d="M 50.8125 32.847656 L 49.824219 32.847656 C 49.824219 32.847656 49.824219 32.222656 49.824219 32.011719 C 49.824219 31.804688 49.839844 31.359375 50.132812 31.195312 C 50.132812 31.195312 50.089844 31.269531 50.097656 31.410156 C 50.113281 31.644531 50.308594 31.8125 50.566406 31.8125 C 50.820312 31.8125 51.027344 31.628906 51.027344 31.378906 C 51.027344 31.144531 50.835938 30.78125 50.277344 30.78125 C 49.785156 30.78125 48.867188 31.035156 48.867188 32.792969 L 48.867188 32.847656 L 48.246094 32.929688 L 48.246094 33.34375 L 48.851562 33.34375 L 48.851562 35.015625 C 48.851562 35.441406 48.847656 35.867188 48.835938 36.289062 L 48.289062 36.394531 L 48.289062 36.730469 L 50.496094 36.730469 L 50.496094 36.394531 L 49.859375 36.273438 C 49.851562 35.855469 49.84375 35.433594 49.84375 35.015625 L 49.84375 33.339844 L 50.8125 33.339844 Z M 50.8125 32.847656 "/>
<path style=" stroke:none;fill-rule:nonzero;fill:rgb(26.666668%,0%,60.000002%);fill-opacity:1;" d="M 33.347656 31.40625 C 33.347656 31.054688 33.617188 30.820312 33.964844 30.820312 C 34.316406 30.820312 34.574219 31.054688 34.574219 31.40625 C 34.574219 31.753906 34.308594 31.980469 33.964844 31.980469 C 33.625 31.980469 33.347656 31.738281 33.347656 31.40625 Z M 33.347656 31.40625 "/>
<path style=" stroke:none;fill-rule:nonzero;fill:rgb(26.666668%,0%,60.000002%);fill-opacity:1;" d="M 16.167969 31.40625 C 16.167969 31.054688 16.4375 30.820312 16.789062 30.820312 C 17.136719 30.820312 17.398438 31.054688 17.398438 31.40625 C 17.398438 31.753906 17.128906 31.980469 16.789062 31.980469 C 16.445312 31.980469 16.167969 31.738281 16.167969 31.40625 Z M 16.167969 31.40625 "/>
</g>
</svg>
