<svg version="1.1" xmlns="http://www.w3.org/2000/svg" viewBox="36.78 21.2 410.25 407.53"><rect id="backgroundrect" width="100%" height="100%" x="0" y="0" fill="none" stroke="none" style="" class=""/>









<g class="currentLayer" style=""><title>Layer 1</title><rect fill="#ffffff" style="color: rgb(5, 55, 108);" stroke-dashoffset="" fill-rule="nonzero" id="svg_10" x="36.80000682010723" y="21.19999998807907" width="410.2000050544739" height="407.52769231796265" class="" fill-opacity="1" rx="80" ry="80"/><path d="M154.71249771118164,187.62500143051147 C159.78615618118164,190.3900800805115 164.18021685118163,193.1268011605115 166.00156021118164,198.91015768051147 C167.67971429118165,207.71224037051147 165.49086352118164,215.17399728051146 161.39999771118164,223.00000143051147 C161.06999771118166,223.99000143051148 160.73999771118164,224.98000143051146 160.39999771118164,226.00000143051147 C161.36937271118165,225.23687643051147 162.33874771118164,224.47375143051147 163.33749771118164,223.68750143051147 C169.85577575118162,219.06162669051147 176.47741941118164,217.35060977051148 184.39999771118164,218.00000143051147 C185.49312271118163,218.37125143051148 186.58624771118164,218.74250143051148 187.71249771118164,219.12500143051147 C188.59937271118164,219.41375143051147 189.48624771118165,219.70250143051146 190.39999771118164,220.00000143051147 C191.38999771118165,219.34000143051148 192.37999771118163,218.68000143051148 193.39999771118164,218.00000143051147 C203.54514105118164,216.39911643051147 211.98195743118163,220.87597691051147 220.39999771118164,226.00000143051147 C219.96687271118162,225.30777487051148 219.53374771118166,224.61554831051149 219.08749771118164,223.90234518051147 C214.40694540118164,215.67887481051147 212.76604865118165,208.41923721051148 214.39999771118164,199.00000143051147 C215.91258761118164,195.74863997051148 217.62531239118164,193.28185943051147 220.39999771118164,191.00000143051147 C221.38999771118165,190.6700014305115 222.37999771118166,190.34000143051148 223.39999771118164,190.00000143051147 C223.39999771118164,189.34000143051148 223.39999771118164,188.68000143051148 223.39999771118164,188.00000143051147 C230.34817123118165,184.9119243105115 236.58458959118164,183.44525083051147 244.01327896118164,185.84375143051147 C250.05524524118164,188.55759364051147 255.07917022118164,192.17078131051147 258.39999771118164,198.00000143051147 C259.32907427118164,201.38714912051148 259.49816117118166,204.50076274051148 259.39999771118164,208.00000143051147 C259.37937271118165,209.13437643051148 259.35874771118165,210.2687514305115 259.33749771118164,211.43750143051147 C257.9343413611816,216.76949557051148 255.19328612118164,221.27618341051146 252.39999771118164,226.00000143051147 C252.72999771118162,225.6700014305115 253.05999771118164,225.34000143051148 253.39999771118164,225.00000143051147 C255.32447630118165,223.97516563051147 257.26469841118166,222.97978923051147 259.21249771118164,222.00000143051147 C260.27081802118164,221.46375143051148 261.32913834118165,220.92750143051148 262.41952896118164,220.37500143051147 C268.41324740118165,217.60987838051147 274.3613647011816,216.9481669305115 280.64999771118164,219.12500143051147 C284.05182108118163,220.20739977051147 284.36144348118165,219.5444599305115 287.39999771118164,218.00000143051147 C294.63274062118165,216.92570801051147 300.0713555911816,218.63678019051147 306.39999771118164,222.00000143051147 C308.16343521118165,222.86625143051148 308.16343521118165,222.86625143051148 309.96249771118164,223.75000143051147 C311.16906021118166,224.36875143051148 311.16906021118166,224.36875143051148 312.39999771118164,225.00000143051147 C312.39999771118164,225.66000143051147 312.39999771118164,226.32000143051147 312.39999771118164,227.00000143051147 C313.0599977111816,227.00000143051147 313.71999771118163,227.00000143051147 314.39999771118164,227.00000143051147 C313.97847427118165,226.16855612051148 313.5569508411817,225.3371108105115 313.12265396118164,224.48047018051147 C312.5748024011816,223.3937904905115 312.02695083118164,222.30711081051146 311.46249771118164,221.18750143051147 C310.9172242711817,220.10855612051148 310.3719508311816,219.02961081051149 309.81015396118164,217.91797018051147 C306.5515087211817,211.1750117505115 306.5334213411817,204.46630689051148 308.33749771118164,197.25000143051147 C312.0860210811816,191.3432373205115 317.7521072111816,187.18490002051146 324.39999771118164,185.00000143051147 C332.34214265118163,183.8691662205115 338.5664096311816,185.84444939051147 345.18906021118164,190.16797018051147 C348.8554610811816,192.9584082805115 350.95015263118165,195.65046620051146 352.39999771118164,200.00000143051147 C353.33585219118163,209.81904603051146 350.98466705118165,217.43156601051146 346.39999771118164,226.00000143051147 C347.8540602111816,224.85531393051147 347.8540602111816,224.85531393051147 349.33749771118164,223.68750143051147 C355.75870375118166,219.13051650051148 362.57330227118166,217.13036860051147 370.39999771118164,218.00000143051147 C376.7841471311816,220.2071608905115 381.46808868118165,223.82245763051148 385.00546646118164,229.64062643051147 C386.69694070118163,233.71532627051147 386.93861586118163,237.00921946051147 386.89999771118164,241.37500143051147 C386.89355240118164,242.12942526051148 386.8871070811816,242.8838490905115 386.88046646118164,243.66113424051147 C386.71687033118167,248.62713791051146 386.1921716011816,252.47787214051147 383.02890396118164,256.4882826805115 C377.77288130118166,261.3661742105115 371.94953272118164,264.5039702005115 364.63437271118164,264.3320326805115 C351.66916193118163,262.40538423051146 341.27278777118164,254.12997381051147 332.39999771118164,245.00000143051147 C331.96953217118164,256.6693085905115 331.96953217118164,256.6693085905115 334.39999771118164,268.0000014305115 C335.37670842118166,269.02276054051146 336.3736411911816,270.0270716905115 337.39999771118164,271.0000014305115 C337.39999771118164,271.66000143051144 337.39999771118164,272.32000143051147 337.39999771118164,273.0000014305115 C332.44999771118165,273.0000014305115 327.49999771118166,273.0000014305115 322.39999771118164,273.0000014305115 C323.0599977111816,271.3500014305115 323.71999771118163,269.70000143051146 324.39999771118164,268.0000014305115 C324.83696616118164,265.98776058051146 324.83696616118164,265.98776058051146 325.03281021118164,264.0039076805115 C325.1165992711816,263.2800990905115 325.2003883411817,262.55629049051146 325.28671646118164,261.8105483105115 C325.3653492711816,261.06869284051146 325.4439820911816,260.3268373705115 325.52499771118164,259.5625014305115 C325.65454849118163,258.45551901051147 325.65454849118163,258.45551901051147 325.78671646118164,257.3261733105115 C326.2493291011816,253.19570334051147 326.49237220118164,249.16345182051148 326.39999771118164,245.00000143051147 C325.9874977111816,245.43570456051148 325.57499771118165,245.87140768051148 325.14999771118164,246.32031393051147 C317.04356262118165,254.68007512051148 307.9491263311817,262.15658964051147 295.91562271118164,263.3437514305115 C291.72904400118165,263.38163902051144 287.77212480118163,263.29248632051144 283.66952896118164,262.4179701805115 C280.69081968118167,261.86939549051147 279.18172102118166,262.87406580051146 276.39999771118164,264.0000014305115 C263.4076806411816,265.2737580105115 253.36981951118165,257.82750172051146 243.64999771118164,250.12500143051147 C242.90749771118163,249.42375143051146 242.16499771118163,248.72250143051147 241.39999771118164,248.00000143051147 C241.39999771118164,247.34000143051148 241.39999771118164,246.68000143051148 241.39999771118164,246.00000143051147 C240.40999771118163,245.6700014305115 239.41999771118162,245.34000143051148 238.39999771118164,245.00000143051147 C238.05822866118166,253.92397113051146 238.31936148118166,262.37904708051144 243.39999771118164,270.0000014305115 C243.39999771118164,270.9900014305115 243.39999771118164,271.9800014305115 243.39999771118164,273.0000014305115 C238.77999771118164,273.0000014305115 234.15999771118163,273.0000014305115 229.39999771118164,273.0000014305115 C230.39999771118164,268.0000014305115 230.39999771118164,268.0000014305115 231.39999771118164,266.0000014305115 C232.38094290118164,259.02439121051145 232.53728904118162,252.03236822051147 232.39999771118164,245.00000143051147 C231.94109146118166,245.4705092405115 231.48218521118164,245.94101706051148 231.00937271118164,246.42578268051147 C224.45516037118165,253.07638050051148 224.45516037118165,253.07638050051148 221.39999771118164,255.00000143051147 C220.73999771118164,255.00000143051147 220.07999771118165,255.00000143051147 219.39999771118164,255.00000143051147 C219.39999771118164,255.66000143051147 219.39999771118164,256.32000143051147 219.39999771118164,257.0000014305115 C210.83441782118163,262.2442340105115 203.42995644118164,263.6083064005115 193.39999771118164,263.0000014305115 C192.31718521118165,262.7176967405115 192.31718521118165,262.7176967405115 191.21249771118164,262.4296889305115 C189.21374200118163,261.7878485205115 189.21374200118163,261.7878485205115 186.58749771118164,262.9375014305115 C178.17148767118164,265.74283811051146 171.04703938118166,262.7755647605115 163.39999771118164,259.0000014305115 C157.12349587118166,254.93094455051147 151.60954071118164,250.36054568051148 146.39999771118164,245.00000143051147 C146.09323371118165,253.62347823051147 146.08086985118163,260.9343487505115 149.39999771118164,269.0000014305115 C149.72999771118162,270.32000143051147 150.05999771118164,271.64000143051146 150.39999771118164,273.0000014305115 C145.77999771118164,273.0000014305115 141.15999771118163,273.0000014305115 136.39999771118164,273.0000014305115 C137.05999771118164,271.02000143051146 137.71999771118163,269.0400014305115 138.39999771118164,267.0000014305115 C138.67235524118163,265.2087891905115 138.88410654118164,263.40725137051146 139.03281021118164,261.6015639305115 C139.11659927118166,260.62832174051147 139.20038833118164,259.65507955051146 139.28671646118164,258.6523451805115 C139.36534927118163,257.6533217405115 139.44398209118162,256.6542983105115 139.52499771118164,255.62500143051147 C139.61136490118164,254.60277487051147 139.69773208118164,253.58054830051148 139.78671646118164,252.52734518051147 C139.99772397118164,250.01870031051146 140.20194765118163,247.50969688051148 140.39999771118164,245.00000143051147 C139.38292740118163,245.97839987051148 139.38292740118163,245.97839987051148 138.34531021118164,246.97656393051147 C127.83831218118164,256.8432462905115 118.41119018118164,263.52179584051146 103.46249771118164,263.2500014305115 C97.06665091118164,262.72789149051147 93.53084252118164,259.68906851051145 89.39999771118164,255.00000143051147 C86.03240508118164,250.56127091051147 85.94123601118164,246.91859655051147 86.02499771118164,241.56250143051147 C86.01339615118164,240.82451315051148 86.00179459118164,240.08652487051148 85.98984146118164,239.32617331051148 C86.03065534118164,231.6735712505115 89.05258255118164,226.46894876051147 94.39999771118164,221.00000143051147 C99.92258840118164,217.75141867051147 105.14084730118164,217.12774617051147 111.39999771118164,218.00000143051147 C117.11219941118165,219.81709659051148 122.27213547118164,222.94510478051149 127.39999771118164,226.00000143051147 C127.05066177118164,225.31293112051148 126.70132583118163,224.62586081051148 126.34140396118164,223.91797018051147 C125.65884537118164,222.56638815051147 125.65884537118164,222.56638815051147 124.96249771118164,221.18750143051147 C124.51003677118163,220.29418112051147 124.05757584118165,219.40086081051146 123.59140396118164,218.48047018051147 C120.62696791118164,212.30861153051148 120.04448699118164,204.41329215051147 122.07187271118164,197.81250143051147 C122.89999771118164,196.18750143051147 122.89999771118164,196.18750143051147 124.39999771118164,194.00000143051147 C125.05999771118164,194.00000143051147 125.71999771118163,194.00000143051147 126.39999771118164,194.00000143051147 C126.72999771118164,193.01000143051147 127.05999771118164,192.02000143051146 127.39999771118164,191.00000143051147 C129.14218521118164,189.64843893051147 129.14218521118164,189.64843893051147 131.27499771118164,188.37500143051147 C131.97366959118165,187.9496108005115 132.67234146118165,187.52422018051146 133.39218521118164,187.08593893051147 C140.54283322118164,183.21846783051149 147.59847276118165,184.26120938051147 154.71249771118164,187.62500143051147 z" fill="#04218C" id="svg_1" class=""/><path d="M155.44296646118164,97.16797018051147 C159.80182567118163,100.00816487051148 164.39237957118164,103.73723794051148 165.97421646118164,108.85937643051147 C167.98125021118165,118.94978462051148 165.01240983118163,127.58138325051148 159.39999771118164,136.00000143051147 C159.72999771118162,135.6700014305115 160.05999771118164,135.34000143051148 160.39999771118164,135.00000143051147 C162.34658167118164,133.97731852051146 164.30731760118164,132.98148216051146 166.27499771118164,132.00000143051147 C167.34491959118162,131.46375143051148 168.41484146118165,130.92750143051148 169.51718521118164,130.37500143051147 C176.34524094118166,127.11825940051148 183.10219241118165,127.40360652051147 190.39999771118164,129.00000143051147 C191.05999771118164,128.6700014305115 191.71999771118163,128.34000143051148 192.39999771118164,128.00000143051147 C203.61788217118163,126.67729565051147 211.19700650118165,129.86467396051148 220.39999771118164,136.00000143051147 C219.96687271118162,135.30777487051148 219.53374771118166,134.61554830051148 219.08749771118164,133.90234518051147 C214.40801984118164,125.68076253051147 212.76259157118164,118.41776223051147 214.39999771118164,109.00000143051147 C215.94720736118165,105.76098310051148 217.80324469118165,103.45143737051147 220.39999771118164,101.00000143051147 C221.11736099118164,100.21882955051147 221.11736099118164,100.21882955051147 221.84921646118164,99.42187643051147 C226.03897950118164,95.58038085051147 230.29755624118164,95.66397290051148 235.77499771118164,95.68750143051147 C236.51749771118165,95.67138815051148 237.25999771118165,95.65527487051148 238.02499771118164,95.63867330051147 C245.17088194118165,95.63236069051148 250.12579561118164,98.15343733051148 255.39999771118164,103.00000143051147 C259.46631146118165,107.93766812051147 259.75411950118166,114.15617031051147 259.18515396118164,120.33203268051147 C258.1077355411816,126.19113665051148 255.51502138118164,130.97078383051146 252.39999771118164,136.00000143051147 C253.38999771118165,135.23687643051147 254.37999771118166,134.47375143051147 255.39999771118164,133.68750143051147 C262.6509728511816,128.58281493051146 269.52153619118167,126.97811572051148 278.39999771118164,128.00000143051147 C279.2726930211816,128.37769674051148 280.1453883311816,128.7553920505115 281.04452896118164,129.14453268051147 C281.82183365118163,129.42683737051146 282.59913834118163,129.70914206051148 283.39999771118164,130.00000143051147 C284.38999771118165,129.34000143051148 285.37999771118166,128.68000143051148 286.39999771118164,128.00000143051147 C294.29221829118165,126.98088586051148 300.5312094611817,128.11992257051148 307.39999771118164,132.00000143051147 C308.09609146118163,132.38156393051148 308.7921852111816,132.76312643051148 309.50937271118164,133.15625143051147 C311.15471762118165,134.07764458051147 312.77993054118167,135.0348550305115 314.39999771118164,136.00000143051147 C313.80187271118166,135.1750014305115 313.2037477111817,134.35000143051147 312.58749771118164,133.50000143051147 C307.9401070511816,126.40487476051148 306.26453981118163,119.49125181051147 307.39999771118164,111.00000143051147 C308.8651426011817,106.63329510051148 310.88396427118164,103.02692786051148 314.39999771118164,100.00000143051147 C315.0599977111816,100.00000143051147 315.71999771118163,100.00000143051147 316.39999771118164,100.00000143051147 C316.39999771118164,99.34000143051148 316.39999771118164,98.68000143051148 316.39999771118164,98.00000143051147 C322.2864181311817,94.08624201051147 331.6822879911816,95.06297183051147 338.39999771118164,96.00000143051147 C344.00523494118164,98.15143395051147 348.1363786911817,101.96858878051147 351.39999771118164,107.00000143051147 C354.0692923411816,115.00788532051148 352.3922752611817,122.76641164051148 348.89999771118164,130.18750143051147 C347.39999771118164,133.00000143051147 347.39999771118164,133.00000143051147 345.39999771118164,136.00000143051147 C345.7299977111817,135.6700014305115 346.0599977111816,135.34000143051148 346.39999771118164,135.00000143051147 C348.34658167118164,133.97731852051146 350.30731760118164,132.98148216051146 352.27499771118164,132.00000143051147 C353.34491958118167,131.46375143051148 354.41484146118165,130.92750143051148 355.51718521118164,130.37500143051147 C362.0086202211817,127.27881563051147 368.83664831118165,126.85704030051147 375.71249771118164,129.06250143051147 C380.75619526118163,132.6986554805115 384.5597228311816,136.99179805051148 386.39999771118164,143.00000143051147 C388.0140480211817,160.07495473051148 388.0140480211817,160.07495473051148 382.89999771118164,166.55468893051147 C376.93556473118167,172.30166862051146 371.65053090118164,173.35276019051148 363.67343521118164,173.28515768051147 C356.2514207211816,172.63860988051147 349.18163228118163,169.68781324051147 343.39999771118164,165.00000143051147 C343.39999771118164,164.34000143051148 343.39999771118164,163.68000143051148 343.39999771118164,163.00000143051147 C342.78124771118166,162.6906264305115 342.16249771118163,162.38125143051147 341.52499771118164,162.06250143051147 C340.14999771118164,161.37500143051147 338.77499771118164,160.68750143051147 337.39999771118164,160.00000143051147 C337.39999771118164,159.34000143051148 337.39999771118164,158.68000143051148 337.39999771118164,158.00000143051147 C336.76062271118167,157.6906264305115 336.12124771118164,157.38125143051147 335.46249771118164,157.06250143051147 C333.39999771118164,156.00000143051147 333.39999771118164,156.00000143051147 332.39999771118164,155.00000143051147 C332.1634085011816,163.26747994051146 332.58655436118164,170.92046367051148 334.39999771118164,179.00000143051147 C335.0599977111816,179.00000143051147 335.71999771118163,179.00000143051147 336.39999771118164,179.00000143051147 C336.7299977111817,180.32000143051147 337.0599977111816,181.64000143051146 337.39999771118164,183.00000143051147 C332.44999771118165,183.00000143051147 327.49999771118166,183.00000143051147 322.39999771118164,183.00000143051147 C323.05196886118165,180.39211683051147 323.71798098118165,177.78769020051146 324.39999771118164,175.18750143051147 C325.88961093118166,168.56205757051146 326.06144308118166,161.76218476051147 326.39999771118164,155.00000143051147 C325.7735133411817,155.57750143051146 325.1470289611816,156.15500143051148 324.50156021118164,156.75000143051147 C323.2756617711816,157.86375143051148 323.2756617711816,157.86375143051148 322.02499771118164,159.00000143051147 C320.80683365118165,160.11375143051148 320.80683365118165,160.11375143051148 319.56406021118164,161.25000143051147 C317.39999771118164,163.00000143051147 317.39999771118164,163.00000143051147 315.39999771118164,163.00000143051147 C315.39999771118164,163.66000143051147 315.39999771118164,164.32000143051147 315.39999771118164,165.00000143051147 C313.34178690118165,166.15416649051147 311.27900299118164,167.29835990051146 309.21249771118164,168.43750143051147 C308.0639430211817,169.07558737051147 306.91538834118165,169.71367331051147 305.73202896118164,170.37109518051147 C297.95040141118164,174.1752437005115 289.73848351118164,173.4236453505115 281.39999771118164,172.00000143051147 C280.40999771118163,172.33000143051146 279.4199977111816,172.66000143051147 278.39999771118164,173.00000143051147 C264.72261116118165,174.26989577051148 255.79443954118165,169.54055653051148 245.39999771118164,161.00000143051147 C242.96367201118164,158.7540136805115 240.63749519118164,156.44368468051147 238.39999771118164,154.00000143051147 C237.95008121118164,162.31512483051148 238.84590303118165,170.04481662051148 241.39999771118164,178.00000143051147 C242.05999771118164,178.66000143051147 242.71999771118163,179.32000143051147 243.39999771118164,180.00000143051147 C243.39999771118164,180.99000143051148 243.39999771118164,181.9800014305115 243.39999771118164,183.00000143051147 C238.77999771118164,183.00000143051147 234.15999771118163,183.00000143051147 229.39999771118164,183.00000143051147 C230.39999771118164,178.00000143051147 230.39999771118164,178.00000143051147 231.39999771118164,176.00000143051147 C231.55175320118164,174.40738077051148 231.64900096118163,172.80935287051147 231.71640396118164,171.21093893051147 C231.75829849118162,170.2699233005115 231.80019302118166,169.32890768051146 231.84335708118164,168.35937643051147 C231.88267349118163,167.3745326805115 231.92198990118163,166.38968893051145 231.96249771118164,165.37500143051147 C232.00568130118165,164.38242331051146 232.04886490118164,163.3898451805115 232.09335708118164,162.36718893051147 C232.19960840118165,159.91160305051147 232.30164735118166,157.45591440051146 232.39999771118164,155.00000143051147 C231.67900894118162,155.79833395051148 231.67900894118162,155.79833395051148 230.94345474118165,156.61279440051146 C223.35213293118164,164.88936952051148 213.17959359118163,172.24928236051147 201.70468521118164,173.23047018051147 C197.45301124118163,173.1552798005115 193.57045489118164,172.88464386051146 189.39999771118164,172.00000143051147 C187.91499771118163,172.49500143051148 187.91499771118163,172.49500143051148 186.39999771118164,173.00000143051147 C175.15905097118164,173.70666913051147 166.55370486118164,171.77779666051146 157.39999771118164,165.00000143051147 C157.39999771118164,164.34000143051148 157.39999771118164,163.68000143051148 157.39999771118164,163.00000143051147 C156.81734146118163,162.7344545605115 156.23468521118164,162.46890768051148 155.63437271118164,162.19531393051147 C153.33825543118164,160.96697147051148 151.59643753118164,159.59685204051146 149.64999771118164,157.87500143051147 C149.03640396118163,157.33617330051146 148.42281021118163,156.79734518051148 147.79062271118164,156.24218893051147 C147.33171646118166,155.83226705051146 146.87281021118164,155.42234518051148 146.39999771118164,155.00000143051147 C146.19617290118165,162.9604925305115 146.09917068118165,170.3305780105115 148.39999771118164,178.00000143051147 C149.38999771118165,178.99000143051148 149.38999771118165,178.99000143051148 150.39999771118164,180.00000143051147 C150.39999771118164,180.99000143051148 150.39999771118164,181.9800014305115 150.39999771118164,183.00000143051147 C145.77999771118164,183.00000143051147 141.15999771118163,183.00000143051147 136.39999771118164,183.00000143051147 C137.39999771118164,179.00000143051147 137.39999771118164,179.00000143051147 138.39999771118164,177.00000143051147 C138.68878791118163,175.26363446051147 138.93321400118163,173.51976821051147 139.15390396118164,171.77343893051147 C139.28603287118165,170.74218893051147 139.41816177118164,169.71093893051147 139.55429458118164,168.64843893051147 C139.68900162118163,167.5682045505115 139.82370865118165,166.48797018051147 139.96249771118164,165.37500143051147 C140.17035904118165,163.74304831051148 140.17035904118165,163.74304831051148 140.38241958118164,162.07812643051147 C140.72486299118162,159.3858127505115 141.06391182118165,156.69311489051148 141.39999771118164,154.00000143051147 C140.73999771118164,154.00000143051147 140.07999771118165,154.00000143051147 139.39999771118164,154.00000143051147 C139.06999771118166,154.99000143051148 138.73999771118164,155.98000143051146 138.39999771118164,157.00000143051147 C128.51135239118165,166.57848629051148 117.85120589118165,173.41804606051147 103.89218521118164,173.21093893051147 C97.76780799118164,172.69257471051148 93.79239132118164,169.84150172051147 89.66171646118164,165.59765768051147 C86.17065798118163,161.17709137051148 86.06383469118164,157.1337523505115 86.08749771118164,151.62500143051147 C86.07138443118164,150.88250143051147 86.05527115118164,150.14000143051146 86.03866958118164,149.37500143051147 C86.03183367118164,141.63674472051147 89.06320519118164,136.58501686051147 94.39999771118164,131.00000143051147 C99.82175205118165,127.03286411051147 105.95097689118164,127.24471070051148 112.39999771118164,128.00000143051147 C117.96657118118165,129.65218077051148 122.71377710118165,132.63553535051147 127.39999771118164,136.00000143051147 C126.96687271118164,135.21238424051148 126.53374771118163,134.4247670505115 126.08749771118164,133.61328268051147 C122.02517738118163,125.66730889051148 119.80290272118164,118.94373337051147 121.39999771118164,110.00000143051147 C123.54860940118164,104.70851852051148 127.24113699118163,100.14239707051148 131.97812271118164,96.92968893051147 C138.75263989118164,94.32914846051148 148.73073377118163,94.59164467051147 155.44296646118164,97.16797018051147 z" fill="#0F55E1" id="svg_2" class=""/><path d="M158.39999771118164,280.0000014305115 C161.73445987118163,282.7205606705115 164.73662483118164,285.3194568105115 166.33749771118164,289.3750014305115 C166.35812271118164,290.2412514305115 166.37874771118163,291.10750143051143 166.39999771118164,292.0000014305115 C166.43609146118163,292.68062643051144 166.47218521118162,293.3612514305115 166.50937271118164,294.0625014305115 C166.80338938118166,302.76539490051147 164.22731637118164,308.9064224905115 159.39999771118164,316.0000014305115 C160.14765396118165,315.5784779905115 160.89531021118165,315.1569545605115 161.66562271118164,314.7226576805115 C162.65046646118162,314.17480612051145 163.63531021118166,313.62695455051147 164.64999771118164,313.0625014305115 C165.62452896118162,312.51722799051146 166.59906021118164,311.97195455051144 167.60312271118164,311.4101576805115 C171.29496432118162,309.54876826051145 174.29564526118165,308.86684769051146 178.41171646118164,308.9375014305115 C179.16517349118163,308.94563864051145 179.91863052118163,308.95377584051147 180.69491959118164,308.96215963051145 C181.48447037118166,308.9746474305115 182.27402115118164,308.9871352205115 183.08749771118164,309.0000014305115 C190.26928976118165,309.08524167051144 190.26928976118165,309.08524167051144 197.39999771118164,308.3125014305115 C205.60620490118163,307.2044225705115 212.91496785118164,311.41700547051147 219.39999771118164,316.0000014305115 C219.03906021118163,315.29617330051144 218.67812271118163,314.5923451805115 218.30624771118164,313.8671889305115 C214.33196875118165,305.4108064905115 212.42737668118164,296.9960673105115 215.02890396118164,287.7695326805115 C217.96495844118164,281.80526057051145 223.85667497118163,278.08326852051147 229.77499771118164,275.5625014305115 C237.57705379118164,274.3518375605115 244.88829700118163,275.35839658051145 251.39999771118164,280.0000014305115 C255.80508126118164,283.6965153405115 258.68565542118165,287.1292503705115 259.46249771118164,292.9375014305115 C259.7216442811816,301.85759928051147 257.04797234118166,308.4958286605115 252.39999771118164,316.0000014305115 C253.52148209118164,315.36771627051144 253.52148209118164,315.36771627051144 254.66562271118164,314.7226576805115 C255.65046646118162,314.17480612051145 256.63531021118166,313.62695455051147 257.64999771118164,313.0625014305115 C258.6245289611816,312.51722799051146 259.5990602111816,311.97195455051144 260.60312271118164,311.4101576805115 C265.02983888118166,309.17825190051144 268.4526809611816,308.86263314051143 273.39999771118164,308.8750014305115 C274.43124771118164,308.8724233005115 275.46249771118164,308.86984518051145 276.52499771118164,308.8671889305115 C279.39999771118164,309.0000014305115 279.39999771118164,309.0000014305115 281.61093521118164,309.5703139305115 C283.56865638118165,310.21850334051146 283.56865638118165,310.21850334051146 286.02499771118164,309.0000014305115 C293.14393722118166,306.89068602051145 299.9035980311817,308.69051480051144 306.39999771118164,312.0000014305115 C308.76199275118165,313.2925892705115 311.08204469118164,314.62815168051145 313.39999771118164,316.0000014305115 C312.9668727111816,315.3400014305115 312.5337477111816,314.6800014305115 312.08749771118164,314.0000014305115 C307.84554353118165,306.45874955051147 306.03078471118164,299.6605519405115 307.39999771118164,291.0000014305115 C309.88609650118167,284.7633962105115 313.26966966118164,280.00261109051144 319.39999771118164,277.0000014305115 C325.84751667118167,274.3961957005115 332.10899651118166,274.4899278405115 338.64218521118164,276.7890639305115 C343.0341486411817,278.8275979005115 346.14819664118164,281.36563553051144 349.39999771118164,285.0000014305115 C350.0599977111816,285.66000143051144 350.71999771118163,286.32000143051147 351.39999771118164,287.0000014305115 C354.67606593118165,296.7647983105115 351.6158901211817,305.51277019051145 347.26718521118164,314.2851576805115 C346.98101334118167,314.8510561205115 346.6948414611817,315.4169545505115 346.39999771118164,316.0000014305115 C347.06386490118166,315.5784779905115 347.72773208118167,315.1569545605115 348.41171646118164,314.7226576805115 C349.7362281811817,313.9008803405115 349.7362281811817,313.9008803405115 351.08749771118164,313.0625014305115 C351.9576149011816,312.51722799051146 352.82773209118164,311.97195455051144 353.72421646118164,311.4101576805115 C359.53245788118164,308.3491720605115 365.97259118118166,308.49756405051147 372.39999771118164,309.0000014305115 C378.53266525118164,310.9670834705115 382.0675395111816,315.50131413051145 385.54062271118164,320.7109389305115 C387.97851788118163,327.2046051605115 387.7429942911816,336.7125435405115 385.12656021118164,343.1171889305115 C383.6812992111817,345.32385573051147 382.3512991111817,347.22563151051145 380.39999771118164,349.0000014305115 C379.7399977111817,349.0000014305115 379.07999771118165,349.0000014305115 378.39999771118164,349.0000014305115 C378.39999771118164,349.66000143051144 378.39999771118164,350.32000143051147 378.39999771118164,351.0000014305115 C371.69556516118166,354.57569879051147 365.3224938711817,355.15011736051144 357.89218521118164,353.4140639305115 C347.96959775118165,349.9363725005115 339.45439850118163,342.6422689505115 332.39999771118164,335.0000014305115 C331.7714664911816,349.33433088051146 331.7714664911816,349.33433088051146 337.39999771118164,362.0000014305115 C332.44999771118165,362.0000014305115 327.49999771118166,362.0000014305115 322.39999771118164,362.0000014305115 C323.38999771118165,360.02000143051146 323.38999771118165,360.02000143051146 324.39999771118164,358.0000014305115 C324.8545906011816,355.38188311051147 325.2281783611817,352.8223813905115 325.52499771118164,350.1875014305115 C325.6113649011817,349.5010756505115 325.69773209118165,348.81464987051146 325.78671646118164,348.1074233105115 C326.3111431511817,343.7080660405115 326.4810608711816,339.4295238605115 326.39999771118164,335.0000014305115 C325.96171646118165,335.4846889305115 325.52343521118166,335.9693764305115 325.07187271118164,336.4687514305115 C316.3985637011816,345.63566339051147 305.75902912118164,353.89936127051146 292.71249771118164,354.3125014305115 C289.7713829311816,354.2253952405115 287.94118403118165,353.84417791051146 285.08749771118164,352.8750014305115 C281.72833986118167,351.78132213051146 281.42378005118167,352.48536635051147 278.39999771118164,354.0000014305115 C266.58905187118165,355.6225914305115 257.6721330511816,350.7646916105115 248.39999771118164,344.0000014305115 C247.28238052118164,343.2284975205115 247.28238052118164,343.2284975205115 246.14218521118164,342.4414076805115 C245.27980240118166,341.72791159051144 245.27980240118166,341.72791159051144 244.39999771118164,341.0000014305115 C244.39999771118164,340.3400014305115 244.39999771118164,339.6800014305115 244.39999771118164,339.0000014305115 C243.40999771118163,338.6700014305115 242.41999771118162,338.3400014305115 241.39999771118164,338.0000014305115 C241.39999771118164,337.3400014305115 241.39999771118164,336.6800014305115 241.39999771118164,336.0000014305115 C240.40999771118163,335.6700014305115 239.41999771118162,335.3400014305115 238.39999771118164,335.0000014305115 C237.89040341118164,344.58792391051145 239.07385569118162,353.34771740051144 243.39999771118164,362.0000014305115 C238.77999771118164,362.0000014305115 234.15999771118163,362.0000014305115 229.39999771118164,362.0000014305115 C230.05999771118164,360.02000143051146 230.71999771118163,358.0400014305115 231.39999771118164,356.0000014305115 C232.42565717118163,349.3719190905115 232.50971849118164,342.69296875051145 232.39999771118164,336.0000014305115 C231.79413834118162,336.58007955051147 231.18827896118165,337.1601576805115 230.56406021118164,337.7578139305115 C220.82580397118164,346.83686514051146 210.25062969118164,354.6554766405115 196.40390396118164,354.2460951805115 C193.87095180118163,353.9350308805115 191.75756269118165,352.9430274205115 189.39999771118164,352.0000014305115 C188.80058365118163,352.3042201805115 188.20116958118166,352.60843893051145 187.58359146118164,352.9218764305115 C182.79714737118164,355.28512969051144 176.91408918118162,354.6073813305115 171.84531021118164,353.3828139305115 C161.84290498118165,349.7717219505115 153.50703394118165,342.76195226051146 146.39999771118164,335.0000014305115 C146.15172654118163,344.6963698605115 146.00858861118164,353.21718323051147 150.39999771118164,362.0000014305115 C145.77999771118164,362.0000014305115 141.15999771118163,362.0000014305115 136.39999771118164,362.0000014305115 C137.05999771118164,360.3500014305115 137.71999771118163,358.70000143051146 138.39999771118164,357.0000014305115 C138.84615310118164,354.39980481051145 138.84615310118164,354.39980481051145 139.03281021118164,351.6992201805115 C139.11659927118166,350.72275534051147 139.20038833118164,349.74629049051146 139.28671646118164,348.7402358105115 C139.36534927118163,347.7328334605115 139.44398209118162,346.7254311205115 139.52499771118164,345.6875014305115 C139.61136490118164,344.66076315051146 139.69773208118164,343.63402487051144 139.78671646118164,342.5761733105115 C139.99810348118166,340.05127277051145 140.20229122118164,337.5260038505115 140.39999771118164,335.0000014305115 C139.72686539118163,335.69379904051146 139.72686539118163,335.69379904051146 139.04013443118163,336.4016127605115 C130.14361085118165,345.4555236305115 119.65578590118164,353.2286857505115 106.64999771118164,354.3125014305115 C100.53872768118164,354.2214583005115 96.11015612118163,351.48213872051144 91.58749771118164,347.5625014305115 C86.04555288118164,341.0705089205115 85.64662964118165,335.4903475905115 85.92343521118164,327.2578139305115 C86.44191460118164,320.6913738605115 89.15209826118164,315.9397060405115 94.00546646118164,311.5468764305115 C98.57710111118163,308.4629233705115 103.97486868118165,307.6604373105115 109.39999771118164,308.0000014305115 C115.91972518118163,309.60527133051147 121.72496953118164,312.46887279051145 127.39999771118164,316.0000014305115 C127.05066177118164,315.3129311205115 126.70132583118163,314.6258608105115 126.34140396118164,313.9179701805115 C125.65884537118164,312.56638815051144 125.65884537118164,312.56638815051144 124.96249771118164,311.1875014305115 C124.51003677118163,310.29418112051144 124.05757584118163,309.40086081051146 123.59140396118164,308.4804701805115 C120.71392271118164,302.48964856051145 120.79558294118164,296.5386702905115 121.39999771118164,290.0000014305115 C122.43947351118163,287.1993177205115 123.59996122118164,285.4188004605115 125.39999771118164,283.0000014305115 C126.05999771118164,283.0000014305115 126.71999771118163,283.0000014305115 127.39999771118164,283.0000014305115 C127.39999771118164,282.3400014305115 127.39999771118164,281.6800014305115 127.39999771118164,281.0000014305115 C136.95169459118165,273.54501850051145 148.42403478118163,273.13637404051144 158.39999771118164,280.0000014305115 z" fill="#1056E2" id="svg_3" class=""/><path d="M341.44296646118164,97.16797018051147 C346.39686655118163,100.39588833051147 350.50149432118167,104.30449125051148 352.39999771118164,110.00000143051147 C353.08117227118163,120.09088963051147 351.03883375118164,127.54174737051147 345.39999771118164,136.00000143051147 C345.7299977111816,135.6700014305115 346.05999771118167,135.34000143051148 346.39999771118164,135.00000143051147 C348.34658167118164,133.97731852051146 350.30731760118164,132.98148216051146 352.27499771118164,132.00000143051147 C353.3449195811816,131.46375143051148 354.41484146118165,130.92750143051148 355.51718521118164,130.37500143051147 C362.0086202211816,127.27881563051147 368.83664831118165,126.85704030051147 375.71249771118164,129.06250143051147 C380.75619526118163,132.6986554805115 384.55972283118166,136.99179805051148 386.39999771118164,143.00000143051147 C388.0140480211816,160.07495473051148 388.0140480211816,160.07495473051148 382.89999771118164,166.55468893051147 C376.93556473118167,172.30166862051146 371.65053090118164,173.35276019051148 363.67343521118164,173.28515768051147 C356.25142072118166,172.63860988051147 349.18163228118163,169.68781324051147 343.39999771118164,165.00000143051147 C343.39999771118164,164.34000143051148 343.39999771118164,163.68000143051148 343.39999771118164,163.00000143051147 C342.78124771118166,162.6906264305115 342.16249771118163,162.38125143051147 341.52499771118164,162.06250143051147 C340.14999771118164,161.37500143051147 338.77499771118164,160.68750143051147 337.39999771118164,160.00000143051147 C337.39999771118164,159.34000143051148 337.39999771118164,158.68000143051148 337.39999771118164,158.00000143051147 C336.76062271118167,157.6906264305115 336.12124771118164,157.38125143051147 335.46249771118164,157.06250143051147 C333.39999771118164,156.00000143051147 333.39999771118164,156.00000143051147 332.39999771118164,155.00000143051147 C332.1634085011816,163.26747994051146 332.58655436118164,170.92046367051148 334.39999771118164,179.00000143051147 C335.0599977111816,179.00000143051147 335.71999771118163,179.00000143051147 336.39999771118164,179.00000143051147 C336.7299977111817,180.32000143051147 337.0599977111816,181.64000143051146 337.39999771118164,183.00000143051147 C332.44999771118165,183.00000143051147 327.49999771118166,183.00000143051147 322.39999771118164,183.00000143051147 C323.05196886118165,180.39211683051147 323.71798098118165,177.78769020051146 324.39999771118164,175.18750143051147 C325.88961093118166,168.56205757051146 326.06144308118166,161.76218476051147 326.39999771118164,155.00000143051147 C325.7735133411816,155.57750143051146 325.1470289611816,156.15500143051148 324.50156021118164,156.75000143051147 C323.68429458118163,157.49250143051148 322.86702896118163,158.2350014305115 322.02499771118164,159.00000143051147 C321.2128883311816,159.74250143051148 320.40077896118163,160.4850014305115 319.56406021118164,161.25000143051147 C317.39999771118164,163.00000143051147 317.39999771118164,163.00000143051147 315.39999771118164,163.00000143051147 C315.39999771118164,163.66000143051147 315.39999771118164,164.32000143051147 315.39999771118164,165.00000143051147 C313.34178690118165,166.15416649051147 311.27900299118164,167.29835990051146 309.21249771118164,168.43750143051147 C308.0639430211817,169.07558737051147 306.91538834118165,169.71367331051147 305.73202896118164,170.37109518051147 C301.20894952118164,172.58226063051148 297.3890238611816,173.14852466051147 292.39999771118164,173.18750143051147 C291.57499771118165,173.20168112051147 290.74999771118166,173.21586080051148 289.89999771118164,173.23047018051147 C285.72280125118164,172.84538488051146 283.21289885118165,171.81436726051146 280.23202896118164,168.82812643051147 C279.56558365118167,167.97734518051146 278.89913833118163,167.12656393051148 278.21249771118164,166.25000143051147 C277.20122818118165,164.98929831051146 277.20122818118165,164.98929831051146 276.16952896118164,163.70312643051147 C272.54888292118164,158.1722499205115 271.3994601111816,152.4826513305115 272.39999771118164,146.00000143051147 C274.8620294411817,138.81174807051147 279.40258992118163,131.49870532051148 286.39999771118164,128.00000143051147 C294.3831641411816,127.24029292051148 300.4317592911816,128.06374462051147 307.39999771118164,132.00000143051147 C308.09609146118163,132.38156393051148 308.7921852111816,132.76312643051148 309.50937271118164,133.15625143051147 C311.15471762118165,134.07764458051147 312.77993054118167,135.0348550305115 314.39999771118164,136.00000143051147 C313.80187271118166,135.1750014305115 313.2037477111817,134.35000143051147 312.58749771118164,133.50000143051147 C307.94010705118166,126.40487476051148 306.26453981118163,119.49125181051147 307.39999771118164,111.00000143051147 C308.8651426011817,106.63329510051148 310.88396427118164,103.02692786051148 314.39999771118164,100.00000143051147 C315.0599977111816,100.00000143051147 315.71999771118163,100.00000143051147 316.39999771118164,100.00000143051147 C316.39999771118164,99.34000143051148 316.39999771118164,98.68000143051148 316.39999771118164,98.00000143051147 C322.7478223311816,93.77946388051147 334.60400435118163,94.54300270051148 341.44296646118164,97.16797018051147 z" fill="#75CDFE" id="svg_4" class=""/><path d="M154.71249771118164,187.62500143051147 C159.78615618118164,190.3900800805115 164.18021685118163,193.1268011605115 166.00156021118164,198.91015768051147 C167.67971429118165,207.71224037051147 165.49086352118164,215.17399728051146 161.39999771118164,223.00000143051147 C161.06999771118166,223.99000143051148 160.73999771118164,224.98000143051146 160.39999771118164,226.00000143051147 C161.36937271118165,225.23687643051147 162.33874771118164,224.47375143051147 163.33749771118164,223.68750143051147 C169.84843673118164,219.06683503051147 176.48254704118165,217.3402138705115 184.39999771118164,218.00000143051147 C190.84836158118165,219.25821877051146 194.77238754118164,225.61283985051148 198.27499771118164,230.75000143051147 C200.88988903118164,235.97978406051146 201.38524101118165,241.59913148051146 199.75156021118164,247.23828268051147 C197.04369162118164,253.9385216205115 192.98713113118163,260.2064347205115 186.39999771118164,263.5000014305115 C176.54355397118164,265.14274205051146 168.38920995118164,262.2345083105115 160.06796646118164,256.8398451805115 C155.13856564118163,253.19901769051148 150.67330789118165,249.39717567051147 146.39999771118164,245.00000143051147 C146.09323371118165,253.62347823051147 146.08086985118163,260.9343487505115 149.39999771118164,269.0000014305115 C149.72999771118162,270.32000143051147 150.05999771118164,271.64000143051146 150.39999771118164,273.0000014305115 C145.77999771118164,273.0000014305115 141.15999771118163,273.0000014305115 136.39999771118164,273.0000014305115 C137.05999771118164,271.02000143051146 137.71999771118163,269.0400014305115 138.39999771118164,267.0000014305115 C138.67235524118163,265.2087891905115 138.88410654118164,263.40725137051146 139.03281021118164,261.6015639305115 C139.11659927118166,260.62832174051147 139.20038833118164,259.65507955051146 139.28671646118164,258.6523451805115 C139.36534927118163,257.6533217405115 139.44398209118162,256.6542983105115 139.52499771118164,255.62500143051147 C139.61136490118164,254.60277487051147 139.69773208118164,253.58054830051148 139.78671646118164,252.52734518051147 C139.99772397118164,250.01870031051146 140.20194765118163,247.50969688051148 140.39999771118164,245.00000143051147 C139.38292740118163,245.97839987051148 139.38292740118163,245.97839987051148 138.34531021118164,246.97656393051147 C127.83831218118164,256.8432462905115 118.41119018118164,263.52179584051146 103.46249771118164,263.2500014305115 C97.06665091118164,262.72789149051147 93.53084252118164,259.68906851051145 89.39999771118164,255.00000143051147 C86.03240508118164,250.56127091051147 85.94123601118164,246.91859655051147 86.02499771118164,241.56250143051147 C86.01339615118164,240.82451315051148 86.00179459118164,240.08652487051148 85.98984146118164,239.32617331051148 C86.03065534118164,231.6735712505115 89.05258255118164,226.46894876051147 94.39999771118164,221.00000143051147 C99.92258840118164,217.75141867051147 105.14084730118164,217.12774617051147 111.39999771118164,218.00000143051147 C117.11219941118165,219.81709659051148 122.27213547118164,222.94510478051149 127.39999771118164,226.00000143051147 C127.05066177118164,225.31293112051148 126.70132583118163,224.62586081051148 126.34140396118164,223.91797018051147 C125.65884537118164,222.56638815051147 125.65884537118164,222.56638815051147 124.96249771118164,221.18750143051147 C124.51003677118163,220.29418112051147 124.05757584118165,219.40086081051146 123.59140396118164,218.48047018051147 C120.62696791118164,212.30861153051148 120.04448699118164,204.41329215051147 122.07187271118164,197.81250143051147 C122.89999771118164,196.18750143051147 122.89999771118164,196.18750143051147 124.39999771118164,194.00000143051147 C125.05999771118164,194.00000143051147 125.71999771118163,194.00000143051147 126.39999771118164,194.00000143051147 C126.72999771118164,193.01000143051147 127.05999771118164,192.02000143051146 127.39999771118164,191.00000143051147 C129.14218521118164,189.64843893051147 129.14218521118164,189.64843893051147 131.27499771118164,188.37500143051147 C131.97366959118165,187.9496108005115 132.67234146118165,187.52422018051146 133.39218521118164,187.08593893051147 C140.54283322118164,183.21846783051149 147.59847276118165,184.26120938051147 154.71249771118164,187.62500143051147 z" fill="#75CDFE" id="svg_5" class=""/><path d="M158.39999771118164,280.0000014305115 C161.73445987118163,282.7205606705115 164.73662483118164,285.3194568105115 166.33749771118164,289.3750014305115 C166.35812271118164,290.2412514305115 166.37874771118163,291.10750143051143 166.39999771118164,292.0000014305115 C166.43609146118163,292.68062643051144 166.47218521118162,293.3612514305115 166.50937271118164,294.0625014305115 C166.80338938118166,302.76539490051147 164.22731637118164,308.9064224905115 159.39999771118164,316.0000014305115 C160.14765396118165,315.5784779905115 160.89531021118165,315.1569545605115 161.66562271118164,314.7226576805115 C162.65046646118162,314.17480612051145 163.63531021118166,313.62695455051147 164.64999771118164,313.0625014305115 C165.62452896118162,312.51722799051146 166.59906021118164,311.97195455051144 167.60312271118164,311.4101576805115 C172.05007414118165,309.16804949051146 175.49138212118163,308.86268144051144 180.46249771118164,308.8750014305115 C181.50534927118164,308.8724233005115 182.54820083118165,308.86984518051145 183.62265396118164,308.8671889305115 C187.17424130118164,309.03702574051147 188.86227172118163,309.4340881905115 191.33749771118164,312.0390639305115 C196.80004127118164,318.8879348405115 201.12236036118165,324.4894789905115 200.82577896118164,333.5898451805115 C199.82194871118165,339.2720769805115 196.88628864118164,345.2714486405115 192.39999771118164,349.0000014305115 C191.73999771118164,349.0000014305115 191.07999771118165,349.0000014305115 190.39999771118164,349.0000014305115 C190.13187271118164,349.63937643051145 189.86374771118165,350.2787514305115 189.58749771118164,350.9375014305115 C188.39999771118164,353.0000014305115 188.39999771118164,353.0000014305115 185.39999771118164,354.0000014305115 C173.43531502118162,355.21438686051147 165.34735705118163,351.21076851051146 155.96249771118164,344.1054701805115 C152.53242089118163,341.2871601105115 149.39651346118166,338.27264662051147 146.39999771118164,335.0000014305115 C146.15172654118163,344.6963698605115 146.00858861118164,353.21718323051147 150.39999771118164,362.0000014305115 C145.77999771118164,362.0000014305115 141.15999771118163,362.0000014305115 136.39999771118164,362.0000014305115 C137.05999771118164,360.3500014305115 137.71999771118163,358.70000143051146 138.39999771118164,357.0000014305115 C138.84615310118164,354.39980481051145 138.84615310118164,354.39980481051145 139.03281021118164,351.6992201805115 C139.11659927118166,350.72275534051147 139.20038833118164,349.74629049051146 139.28671646118164,348.7402358105115 C139.36534927118163,347.7328334605115 139.44398209118162,346.7254311205115 139.52499771118164,345.6875014305115 C139.61136490118164,344.66076315051146 139.69773208118164,343.63402487051144 139.78671646118164,342.5761733105115 C139.99810348118166,340.05127277051145 140.20229122118164,337.5260038505115 140.39999771118164,335.0000014305115 C139.72686539118163,335.69379904051146 139.72686539118163,335.69379904051146 139.04013443118163,336.4016127605115 C130.14361085118165,345.4555236305115 119.65578590118164,353.2286857505115 106.64999771118164,354.3125014305115 C100.53872768118164,354.2214583005115 96.11015612118163,351.48213872051144 91.58749771118164,347.5625014305115 C86.04555288118164,341.0705089205115 85.64662964118165,335.4903475905115 85.92343521118164,327.2578139305115 C86.44191460118164,320.6913738605115 89.15209826118164,315.9397060405115 94.00546646118164,311.5468764305115 C98.57710111118163,308.4629233705115 103.97486868118165,307.6604373105115 109.39999771118164,308.0000014305115 C115.91972518118163,309.60527133051147 121.72496953118164,312.46887279051145 127.39999771118164,316.0000014305115 C127.05066177118164,315.3129311205115 126.70132583118163,314.6258608105115 126.34140396118164,313.9179701805115 C125.65884537118164,312.56638815051144 125.65884537118164,312.56638815051144 124.96249771118164,311.1875014305115 C124.51003677118163,310.29418112051144 124.05757584118163,309.40086081051146 123.59140396118164,308.4804701805115 C120.71392271118164,302.48964856051145 120.79558294118164,296.5386702905115 121.39999771118164,290.0000014305115 C122.43947351118163,287.1993177205115 123.59996122118164,285.4188004605115 125.39999771118164,283.0000014305115 C126.05999771118164,283.0000014305115 126.71999771118163,283.0000014305115 127.39999771118164,283.0000014305115 C127.39999771118164,282.3400014305115 127.39999771118164,281.6800014305115 127.39999771118164,281.0000014305115 C136.95169459118165,273.54501850051145 148.42403478118163,273.13637404051144 158.39999771118164,280.0000014305115 z" fill="#04218C" id="svg_6" class=""/><path d="M246.58749771118164,187.00000143051147 C251.54709983118164,189.79271114051147 255.55544307118163,193.00680765051146 258.39999771118164,198.00000143051147 C259.32907427118164,201.38714912051148 259.49816117118166,204.50076274051148 259.39999771118164,208.00000143051147 C259.37937271118165,209.13437643051148 259.35874771118165,210.2687514305115 259.33749771118164,211.43750143051147 C257.9343413611816,216.76949557051148 255.19328612118164,221.27618341051146 252.39999771118164,226.00000143051147 C252.72999771118165,225.6700014305115 253.05999771118164,225.34000143051148 253.39999771118164,225.00000143051147 C255.32447630118165,223.97516563051147 257.26469841118166,222.97978923051147 259.21249771118164,222.00000143051147 C260.27081802118164,221.46375143051148 261.32913834118165,220.92750143051148 262.41952896118164,220.37500143051147 C268.28353021118164,217.6697216905115 274.2110410711816,216.93701588051147 280.39999771118164,219.00000143051147 C281.0599977111816,219.33000143051146 281.71999771118163,219.66000143051147 282.39999771118164,220.00000143051147 C280.55767659118163,223.90714621051148 278.18691196118164,227.33095461051147 275.73984146118164,230.87890768051147 C272.89595331118164,235.38103965051147 272.81409639118164,239.84081484051148 273.39999771118164,245.00000143051147 C275.1452722011816,250.8618472905115 277.7890331911816,255.02944865051148 282.39999771118164,259.0000014305115 C281.39999771118164,262.0000014305115 281.39999771118164,262.0000014305115 279.27499771118164,263.1875014305115 C272.3169806611817,265.1538975505115 265.91174028118166,263.7894287405115 259.39999771118164,261.0000014305115 C253.02598230118164,257.28651452051145 246.77437224118165,253.07579960051146 241.39999771118164,248.00000143051147 C241.39999771118164,247.34000143051148 241.39999771118164,246.68000143051148 241.39999771118164,246.00000143051147 C240.40999771118163,245.6700014305115 239.41999771118165,245.34000143051148 238.39999771118164,245.00000143051147 C238.05822866118163,253.92397113051146 238.31936148118163,262.37904708051144 243.39999771118164,270.0000014305115 C243.39999771118164,270.9900014305115 243.39999771118164,271.9800014305115 243.39999771118164,273.0000014305115 C238.77999771118164,273.0000014305115 234.15999771118163,273.0000014305115 229.39999771118164,273.0000014305115 C230.39999771118164,268.0000014305115 230.39999771118164,268.0000014305115 231.39999771118164,266.0000014305115 C232.38094290118164,259.02439121051145 232.53728904118165,252.03236822051147 232.39999771118164,245.00000143051147 C231.94109146118163,245.4705092405115 231.48218521118164,245.94101706051148 231.00937271118164,246.42578268051147 C224.45516037118165,253.07638050051148 224.45516037118165,253.07638050051148 221.39999771118164,255.00000143051147 C220.73999771118164,255.00000143051147 220.07999771118165,255.00000143051147 219.39999771118164,255.00000143051147 C219.39999771118164,255.66000143051147 219.39999771118164,256.32000143051147 219.39999771118164,257.0000014305115 C210.84519934118163,262.2376330905115 203.42508310118166,263.6302334105115 193.39999771118164,263.0000014305115 C192.40999771118163,262.6700014305115 191.41999771118165,262.3400014305115 190.39999771118164,262.0000014305115 C190.98580818118165,258.68764101051147 192.02369108118165,257.03498095051145 194.33749771118164,254.62500143051147 C198.56988280118165,249.84453770051147 199.83002536118164,245.46139342051148 199.65781021118164,239.01562643051147 C198.76003113118165,231.99662635051146 194.46108968118165,225.71205257051147 189.39999771118164,221.00000143051147 C193.22441731118164,217.70820648051148 195.76284336118164,217.49253789051147 200.67734146118164,217.64453268051147 C207.89463940118165,218.58681979051147 214.26644420118163,222.26653407051148 220.39999771118164,226.00000143051147 C219.96687271118165,225.30777487051148 219.53374771118163,224.61554831051149 219.08749771118164,223.90234518051147 C214.40694540118164,215.67887481051147 212.76604865118165,208.41923721051148 214.39999771118164,199.00000143051147 C215.91258761118164,195.74863997051148 217.62531239118164,193.28185943051147 220.39999771118164,191.00000143051147 C221.38999771118165,190.6700014305115 222.37999771118163,190.34000143051148 223.39999771118164,190.00000143051147 C223.39999771118164,189.34000143051148 223.39999771118164,188.68000143051148 223.39999771118164,188.00000143051147 C231.41703709118164,184.43687282051147 238.36669834118163,183.30750277051146 246.58749771118164,187.00000143051147 z" fill="#1056E1" id="svg_7" class=""/><path d="M235.77499771118164,95.68750143051147 C236.51749771118165,95.67138815051148 237.25999771118165,95.65527487051148 238.02499771118164,95.63867331051148 C245.17088194118165,95.63236069051148 250.12579561118164,98.15343733051148 255.39999771118164,103.00000143051147 C259.46631146118165,107.93766812051147 259.75411950118166,114.15617031051147 259.18515396118164,120.33203268051147 C258.1077355411816,126.19113665051148 255.51502138118164,130.97078383051146 252.39999771118164,136.00000143051147 C253.38999771118165,135.23687643051147 254.37999771118163,134.47375143051147 255.39999771118164,133.68750143051147 C262.63010532118165,128.59750567051148 269.53763006118163,126.94037052051148 278.39999771118164,128.00000143051147 C280.72812271118164,129.01953268051147 280.72812271118164,129.01953268051147 282.39999771118164,130.00000143051147 C280.55767659118163,133.90714621051148 278.18691196118164,137.33095461051147 275.73984146118164,140.87890768051147 C272.59177513118163,145.86258121051148 272.65511790118165,151.51547892051147 273.86093521118164,157.15625143051147 C275.5713458611816,162.38809576051148 278.31498121118165,165.3688756605115 282.39999771118164,169.00000143051147 C281.90499771118164,170.4850014305115 281.90499771118164,170.4850014305115 281.39999771118164,172.00000143051147 C273.96923282118166,174.47692306051147 265.96258248118164,173.60434064051148 258.90781021118164,170.39453268051147 C251.13066347118163,166.06985763051148 244.39691910118165,160.54954015051146 238.39999771118164,154.00000143051147 C237.95008121118164,162.31512483051148 238.84590303118165,170.04481662051148 241.39999771118164,178.00000143051147 C242.38999771118165,178.99000143051148 242.38999771118165,178.99000143051148 243.39999771118164,180.00000143051147 C243.39999771118164,180.99000143051148 243.39999771118164,181.9800014305115 243.39999771118164,183.00000143051147 C238.77999771118164,183.00000143051147 234.15999771118163,183.00000143051147 229.39999771118164,183.00000143051147 C230.39999771118164,178.00000143051147 230.39999771118164,178.00000143051147 231.39999771118164,176.00000143051147 C231.55175320118164,174.40738077051148 231.64900096118163,172.80935287051147 231.71640396118164,171.21093893051147 C231.77924576118164,169.79941549051148 231.77924576118164,169.79941549051148 231.84335709118164,168.35937643051147 C231.88267349118163,167.3745326805115 231.92198990118163,166.38968893051145 231.96249771118164,165.37500143051147 C232.00568130118165,164.38242331051146 232.04886490118164,163.3898451805115 232.09335709118164,162.36718893051147 C232.19960840118165,159.91160305051147 232.30164735118163,157.45591440051146 232.39999771118164,155.00000143051147 C231.91933853118164,155.53222311051147 231.43867935118163,156.06444479051146 230.94345474118165,156.61279440051146 C223.30462999118163,164.94116046051147 213.20463507118166,172.13229804051147 201.70468521118164,173.26562643051147 C197.18432242118163,173.23655657051148 193.49184843118164,173.18232182051148 189.39999771118164,171.00000143051147 C189.78671646118164,170.59910299051148 190.17343521118164,170.19820456051147 190.57187271118164,169.78515768051147 C195.68420195118165,164.20462007051148 199.45847389118165,158.28632593051148 199.96249771118164,150.56250143051147 C199.63147819118166,143.82388973051147 196.45385764118163,137.91693736051147 191.58749771118164,133.37500143051147 C190.86562271118163,132.92125143051146 190.14374771118165,132.46750143051148 189.39999771118164,132.00000143051147 C189.72999771118162,131.01000143051147 190.05999771118164,130.02000143051148 190.39999771118164,129.00000143051147 C194.90264833118164,126.74867612051148 200.53191029118165,127.42573571051147 205.39999771118164,128.00000143051147 C210.82020328118165,130.0109224505115 215.60315166118164,132.80210406051148 220.39999771118164,136.00000143051147 C219.96687271118165,135.30777487051148 219.53374771118163,134.61554830051148 219.08749771118164,133.90234518051147 C214.40801984118164,125.68076253051147 212.76259157118164,118.41776223051147 214.39999771118164,109.00000143051147 C215.94720736118165,105.76098310051148 217.80324469118165,103.45143737051147 220.39999771118164,101.00000143051147 C220.87823990118164,100.47922018051148 221.35648209118165,99.95843893051148 221.84921646118164,99.42187643051147 C226.03897950118164,95.58038085051147 230.29755624118164,95.66397290051148 235.77499771118164,95.68750143051147 z" fill="#04218C" id="svg_8" class=""/><path d="M251.39999771118164,280.0000014305115 C255.80508126118164,283.6965153405115 258.68565542118165,287.1292503705115 259.46249771118164,292.9375014305115 C259.7216442811816,301.85759928051147 257.04797234118166,308.4958286605115 252.39999771118164,316.0000014305115 C253.14765396118165,315.5784779905115 253.89531021118165,315.1569545605115 254.66562271118164,314.7226576805115 C255.65046646118165,314.17480612051145 256.6353102111816,313.62695455051147 257.64999771118164,313.0625014305115 C258.6245289611817,312.51722799051146 259.5990602111816,311.97195455051144 260.60312271118164,311.4101576805115 C265.05007414118165,309.16804949051146 268.49138212118163,308.86268144051144 273.46249771118164,308.8750014305115 C274.5053492711817,308.8724233005115 275.54820084118165,308.86984518051145 276.62265396118164,308.8671889305115 C279.39999771118164,309.0000014305115 279.39999771118164,309.0000014305115 282.39999771118164,310.0000014305115 C282.39999771118164,313.0000014305115 282.39999771118164,313.0000014305115 280.08749771118164,315.3750014305115 C278.75718521118165,316.6743764305115 278.75718521118165,316.6743764305115 277.39999771118164,318.0000014305115 C273.4648971311816,323.7621130005115 272.7493824911817,329.1336872105115 273.39999771118164,336.0000014305115 C274.9804113511816,340.74124235051147 277.03409646118166,344.30836780051146 280.39999771118164,348.0000014305115 C281.0599977111816,348.33000143051146 281.71999771118163,348.66000143051144 282.39999771118164,349.0000014305115 C282.39999771118164,349.9900014305115 282.39999771118164,350.9800014305115 282.39999771118164,352.0000014305115 C276.9480308611817,355.16974960051147 270.7672241511816,354.88189407051146 264.77499771118164,353.3125014305115 C258.76186683118164,351.05757735051145 253.56985622118165,347.77178537051145 248.39999771118164,344.0000014305115 C247.65491959118165,343.48566549051145 246.90984146118163,342.9713295605115 246.14218521118164,342.4414076805115 C245.27980240118166,341.72791159051144 245.27980240118166,341.72791159051144 244.39999771118164,341.0000014305115 C244.39999771118164,340.3400014305115 244.39999771118164,339.6800014305115 244.39999771118164,339.0000014305115 C243.40999771118163,338.6700014305115 242.41999771118165,338.3400014305115 241.39999771118164,338.0000014305115 C241.39999771118164,337.3400014305115 241.39999771118164,336.6800014305115 241.39999771118164,336.0000014305115 C240.40999771118163,335.6700014305115 239.41999771118165,335.3400014305115 238.39999771118164,335.0000014305115 C237.89040341118164,344.58792391051145 239.07385569118165,353.34771740051144 243.39999771118164,362.0000014305115 C238.77999771118164,362.0000014305115 234.15999771118163,362.0000014305115 229.39999771118164,362.0000014305115 C230.05999771118164,360.02000143051146 230.71999771118163,358.0400014305115 231.39999771118164,356.0000014305115 C232.42565717118163,349.3719190905115 232.50971849118164,342.69296875051145 232.39999771118164,336.0000014305115 C231.49120865118164,336.87011862051145 231.49120865118164,336.87011862051145 230.56406021118164,337.7578139305115 C220.70057841118165,346.95361388051145 210.35968507118164,354.3768303205115 196.44296646118164,354.3007826805115 C194.11197194118165,353.9575961105115 192.44181819118165,353.1516799505115 190.39999771118164,352.0000014305115 C190.39999771118164,351.01000143051147 190.39999771118164,350.02000143051146 190.39999771118164,349.0000014305115 C191.51374771118165,347.9171889305115 191.51374771118165,347.9171889305115 192.64999771118164,346.8125014305115 C197.04192400118166,342.3207586305115 199.59887521118165,337.80438350051145 199.83749771118164,331.4375014305115 C199.42051505118164,323.82756793051146 195.91003354118163,319.05716134051147 190.82577896118164,313.6992201805115 C189.39999771118164,312.0000014305115 189.39999771118164,312.0000014305115 189.39999771118164,310.0000014305115 C195.73198569118165,307.1672699605115 201.66239066118163,307.77376645051146 208.12656021118164,309.8945326805115 C211.98407372118163,311.41364198051144 215.70614806118164,313.11934282051146 219.39999771118164,315.0000014305115 C218.98427505118164,314.1859584605115 218.98427505118164,314.1859584605115 218.56015396118164,313.3554701805115 C218.19792740118163,312.64004049051147 217.83570084118165,311.92461080051146 217.46249771118164,311.1875014305115 C217.10284927118164,310.4798061205115 216.74320084118165,309.77211081051144 216.37265396118164,309.0429701805115 C213.35174649118164,302.6978512805115 213.18392754118165,294.4924899705115 215.01327896118164,287.7343764305115 C218.04557119118164,281.8033731305115 223.82990172118164,278.0946719405115 229.77499771118164,275.5625014305115 C237.57705379118164,274.3518375605115 244.88829700118163,275.35839658051145 251.39999771118164,280.0000014305115 z" fill="#75CDFE" id="svg_9" class=""/><rect fill="" style="color: rgb(5, 55, 108);" stroke-dashoffset="" fill-rule="nonzero" id="svg_12" x="369.4000015258789" y="272.00000762939453" width="0" height="0" class=""/></g></svg>