<?xml version="1.0" encoding="UTF-8"?>
<svg xmlns="http://www.w3.org/2000/svg" xmlns:xlink="http://www.w3.org/1999/xlink" width="56px" height="56px" viewBox="0 0 56 56" version="1.1">
<g id="surface1">
<path style=" stroke:none;fill-rule:nonzero;fill:rgb(0%,0%,19.607843%);fill-opacity:1;" d="M 13.445312 0.00390625 L 42.558594 0.00390625 C 49.980469 0.00390625 55.996094 6.019531 55.996094 13.441406 L 55.996094 42.554688 C 55.996094 49.976562 49.980469 55.992188 42.558594 55.992188 L 13.445312 55.992188 C 6.023438 55.992188 0.0078125 49.976562 0.0078125 42.554688 L 0.0078125 13.441406 C 0.0078125 6.019531 6.023438 0.00390625 13.445312 0.00390625 Z M 13.445312 0.00390625 "/>
<path style=" stroke:none;fill-rule:nonzero;fill:rgb(99.215686%,79.215688%,2.745098%);fill-opacity:1;" d="M 8.804688 14.464844 C 10.398438 14.414062 11.992188 14.367188 13.585938 14.339844 C 14.128906 14.332031 14.671875 14.316406 15.210938 14.296875 C 15.992188 14.269531 16.773438 14.257812 17.554688 14.246094 C 17.792969 14.234375 18.035156 14.222656 18.28125 14.210938 C 19.328125 14.210938 19.96875 14.234375 20.769531 14.945312 C 21.226562 15.515625 21.628906 16.089844 22.019531 16.703125 C 22.238281 17.007812 22.457031 17.3125 22.679688 17.613281 C 22.882812 17.90625 23.089844 18.203125 23.292969 18.496094 C 23.519531 18.824219 23.75 19.148438 23.976562 19.476562 C 24.09375 19.644531 24.210938 19.808594 24.332031 19.984375 C 24.992188 20.914062 25.660156 21.839844 26.332031 22.765625 C 26.457031 22.941406 26.585938 23.121094 26.71875 23.300781 C 27.019531 23.714844 27.316406 24.128906 27.617188 24.542969 C 28.347656 24.300781 28.429688 24.210938 28.839844 23.605469 C 28.945312 23.457031 29.050781 23.304688 29.15625 23.148438 C 29.269531 22.984375 29.378906 22.820312 29.492188 22.652344 C 29.734375 22.304688 29.972656 21.957031 30.214844 21.609375 C 30.402344 21.339844 30.402344 21.339844 30.59375 21.0625 C 31.21875 20.164062 31.859375 19.273438 32.503906 18.382812 C 32.617188 18.222656 32.734375 18.0625 32.851562 17.898438 C 33.070312 17.59375 33.292969 17.289062 33.519531 16.988281 C 33.894531 16.488281 33.894531 16.488281 34.207031 15.953125 C 34.71875 15.167969 35.113281 14.570312 36.035156 14.289062 C 36.734375 14.230469 37.40625 14.238281 38.109375 14.269531 C 38.484375 14.273438 38.484375 14.273438 38.871094 14.277344 C 39.667969 14.289062 40.464844 14.3125 41.265625 14.339844 C 41.808594 14.347656 42.351562 14.359375 42.894531 14.367188 C 44.222656 14.386719 45.550781 14.425781 46.878906 14.464844 C 46.878906 17.050781 46.878906 19.636719 46.878906 22.304688 C 45.917969 22.304688 44.957031 22.304688 43.964844 22.304688 C 43.964844 26.144531 43.964844 29.988281 43.964844 33.949219 C 44.925781 33.949219 45.886719 33.949219 46.878906 33.949219 C 46.878906 36.535156 46.878906 39.121094 46.878906 41.789062 C 42.074219 41.789062 37.269531 41.789062 32.320312 41.789062 C 32.394531 39.199219 32.46875 36.613281 32.542969 33.949219 C 33.503906 33.949219 34.464844 33.949219 35.457031 33.949219 C 35.382812 31.730469 35.308594 29.515625 35.230469 27.230469 C 33.636719 29.390625 32.042969 31.550781 30.472656 33.726562 C 30.351562 33.894531 30.226562 34.066406 30.101562 34.238281 C 29.636719 34.882812 29.179688 35.527344 28.738281 36.1875 C 28.589844 36.1875 28.441406 36.1875 28.289062 36.1875 C 28.066406 36.632812 28.066406 36.632812 27.839844 37.085938 C 27.105469 36.394531 26.542969 35.65625 25.964844 34.832031 C 24.882812 33.292969 23.773438 31.78125 22.652344 30.269531 C 21.96875 29.347656 21.300781 28.417969 20.675781 27.453125 C 20.265625 27.863281 20.398438 28.519531 20.378906 29.070312 C 20.367188 29.496094 20.367188 29.496094 20.351562 29.925781 C 20.34375 30.226562 20.335938 30.527344 20.324219 30.828125 C 20.316406 31.128906 20.304688 31.429688 20.296875 31.730469 C 20.273438 32.46875 20.25 33.210938 20.226562 33.949219 C 21.261719 33.949219 22.296875 33.949219 23.363281 33.949219 C 23.363281 36.535156 23.363281 39.121094 23.363281 41.789062 C 18.558594 41.789062 13.753906 41.789062 8.804688 41.789062 C 8.804688 39.199219 8.804688 36.613281 8.804688 33.949219 C 9.765625 33.949219 10.726562 33.949219 11.71875 33.949219 C 11.71875 30.105469 11.71875 26.261719 11.71875 22.304688 C 10.757812 22.304688 9.796875 22.304688 8.804688 22.304688 C 8.804688 19.714844 8.804688 17.128906 8.804688 14.464844 Z M 20.226562 26.78125 C 20.453125 27.230469 20.453125 27.230469 20.453125 27.230469 Z M 20.226562 26.78125 "/>
</g>
</svg>
