<?xml version="1.0" encoding="UTF-8"?>
<svg xmlns="http://www.w3.org/2000/svg" xmlns:xlink="http://www.w3.org/1999/xlink" width="56px" height="56px" viewBox="0 0 56 56" version="1.1">
<g id="surface1">
<path style=" stroke:none;fill-rule:nonzero;fill:rgb(100%,100%,100%);fill-opacity:1;" d="M 9.230469 0 L 46.769531 0 C 51.867188 0 55.996094 4.128906 55.996094 9.222656 L 55.996094 46.777344 C 55.996094 51.871094 51.867188 56 46.769531 56 L 9.230469 56 C 4.132812 56 0.00390625 51.871094 0.00390625 46.777344 L 0.00390625 9.222656 C 0.00390625 4.128906 4.132812 0 9.230469 0 Z M 9.230469 0 "/>
<path style=" stroke:none;fill-rule:evenodd;fill:rgb(0%,11.764706%,38.431373%);fill-opacity:1;" d="M 50.363281 29.179688 L 50.363281 34.648438 C 50.363281 38.273438 48.429688 39.695312 44.667969 39.695312 L 41.808594 39.695312 C 38.082031 44.839844 32.101562 47.941406 25.621094 47.941406 C 14.597656 47.941406 5.632812 38.996094 5.632812 28 C 5.632812 17.003906 14.597656 8.0625 25.621094 8.0625 C 33.488281 8.0625 40.632812 12.679688 43.855469 19.835938 L 42.972656 19.835938 C 39.808594 13.152344 33.050781 8.859375 25.621094 8.859375 C 15.039062 8.859375 6.433594 17.445312 6.433594 28 C 6.433594 38.554688 15.039062 47.140625 25.621094 47.140625 C 32.25 47.140625 38.335938 43.761719 41.839844 38.226562 L 41.839844 38.230469 C 42.261719 37.539062 42.578125 37.417969 43.277344 37.402344 L 44.5 37.402344 C 46.542969 37.402344 47.410156 36.746094 47.410156 34.753906 L 47.410156 34.328125 C 46.582031 34.988281 45.414062 35.199219 44.246094 35.199219 C 40.589844 35.199219 39.039062 33.480469 39.039062 29.941406 L 39.039062 29.367188 C 39.039062 25.636719 40.820312 24.003906 44.710938 24.003906 C 48.519531 24.003906 50.363281 25.574219 50.363281 29.179688 Z M 17.273438 19.996094 L 20.25 19.527344 L 20.25 24.890625 C 21.101562 24.238281 22.351562 24.003906 23.5 24.003906 C 27.113281 24.003906 28.769531 25.785156 28.769531 29.429688 L 28.769531 30.425781 C 28.769531 34.308594 26.988281 35.878906 22.945312 35.878906 C 19.058594 35.878906 17.273438 34.265625 17.273438 30.40625 Z M 23.054688 26.335938 C 20.929688 26.335938 20.207031 27.058594 20.207031 29.199219 L 20.207031 30.40625 C 20.207031 32.761719 20.929688 33.570312 23.011719 33.570312 C 25.09375 33.570312 25.816406 32.761719 25.816406 30.429688 L 25.816406 29.539062 C 25.816406 27.144531 25.09375 26.335938 23.054688 26.335938 Z M 33.851562 26.738281 L 33.851562 31.066406 C 33.851562 32.847656 34.382812 33.25 36.019531 33.25 L 37.867188 33.25 L 37.378906 35.605469 L 35.808594 35.605469 C 32.214844 35.605469 30.898438 34.609375 30.898438 31.253906 L 30.898438 21.566406 L 33.851562 21.121094 L 33.851562 24.363281 L 38.0625 24.363281 L 37.570312 26.738281 Z M 47.433594 29.476562 C 47.433594 27.144531 46.984375 26.335938 44.710938 26.335938 C 42.394531 26.335938 41.992188 27.164062 41.992188 29.453125 L 41.992188 29.8125 C 41.992188 32.128906 42.4375 32.910156 44.710938 32.910156 C 46.730469 32.910156 47.433594 32.292969 47.433594 30.300781 Z M 47.433594 29.476562 "/>
</g>
</svg>
