<?xml version="1.0" encoding="UTF-8"?>
<svg xmlns="http://www.w3.org/2000/svg" xmlns:xlink="http://www.w3.org/1999/xlink" width="56px" height="56px" viewBox="0 0 56 56" version="1.1">
<g id="surface1">
<path style=" stroke:none;fill-rule:nonzero;fill:rgb(100%,100%,100%);fill-opacity:1;" d="M 10.921875 0.0507812 L 45.074219 0.0507812 C 51.105469 0.0507812 55.996094 4.960938 55.996094 11.023438 L 55.996094 44.976562 C 55.996094 51.039062 51.105469 55.949219 45.074219 55.949219 L 10.921875 55.949219 C 4.890625 55.949219 0.00390625 51.039062 0.00390625 44.976562 L 0.00390625 11.023438 C 0.00390625 4.960938 4.890625 0.0507812 10.921875 0.0507812 Z M 10.921875 0.0507812 "/>
<path style=" stroke:none;fill-rule:nonzero;fill:rgb(1.568628%,12.941177%,54.901963%);fill-opacity:1;" d="M 16.097656 22.878906 C 16.789062 23.257812 17.390625 23.632812 17.640625 24.425781 C 17.867188 25.632812 17.570312 26.65625 17.011719 27.730469 C 16.964844 27.867188 16.921875 28.003906 16.875 28.140625 C 17.007812 28.039062 17.140625 27.933594 17.273438 27.824219 C 18.164062 27.191406 19.070312 26.957031 20.152344 27.042969 C 20.300781 27.09375 20.449219 27.144531 20.601562 27.199219 C 20.722656 27.238281 20.84375 27.277344 20.96875 27.320312 C 21.105469 27.226562 21.238281 27.136719 21.378906 27.042969 C 22.765625 26.824219 23.914062 27.4375 25.066406 28.140625 C 25.003906 28.046875 24.945312 27.953125 24.886719 27.855469 C 24.246094 26.726562 24.023438 25.730469 24.246094 24.4375 C 24.453125 23.992188 24.6875 23.652344 25.066406 23.339844 C 25.199219 23.296875 25.335938 23.25 25.472656 23.203125 C 25.472656 23.113281 25.472656 23.023438 25.472656 22.929688 C 26.421875 22.507812 27.273438 22.304688 28.289062 22.632812 C 29.113281 23.007812 29.796875 23.5 30.25 24.300781 C 30.378906 24.765625 30.402344 25.191406 30.386719 25.671875 C 30.386719 25.828125 30.382812 25.984375 30.378906 26.144531 C 30.1875 26.875 29.8125 27.492188 29.433594 28.140625 C 29.476562 28.097656 29.523438 28.050781 29.570312 28.003906 C 29.832031 27.863281 30.097656 27.726562 30.363281 27.59375 C 30.507812 27.519531 30.652344 27.445312 30.800781 27.371094 C 31.617188 26.992188 32.429688 26.898438 33.289062 27.199219 C 33.753906 27.347656 33.796875 27.257812 34.210938 27.042969 C 35.199219 26.898438 35.941406 27.132812 36.804688 27.59375 C 37.042969 27.710938 37.042969 27.710938 37.289062 27.832031 C 37.453125 27.917969 37.453125 27.917969 37.621094 28.003906 C 37.621094 28.09375 37.621094 28.1875 37.621094 28.277344 C 37.710938 28.277344 37.804688 28.277344 37.894531 28.277344 C 37.839844 28.164062 37.78125 28.050781 37.722656 27.933594 C 37.648438 27.785156 37.570312 27.636719 37.496094 27.480469 C 37.421875 27.332031 37.347656 27.1875 37.269531 27.035156 C 36.824219 26.109375 36.820312 25.1875 37.066406 24.199219 C 37.578125 23.386719 38.351562 22.816406 39.261719 22.519531 C 40.34375 22.363281 41.195312 22.632812 42.097656 23.226562 C 42.597656 23.609375 42.886719 23.980469 43.082031 24.574219 C 43.210938 25.921875 42.890625 26.964844 42.265625 28.140625 C 42.460938 27.984375 42.460938 27.984375 42.664062 27.824219 C 43.542969 27.199219 44.472656 26.925781 45.539062 27.042969 C 46.410156 27.347656 47.050781 27.84375 47.535156 28.640625 C 47.765625 29.199219 47.796875 29.652344 47.792969 30.25 C 47.792969 30.355469 47.789062 30.457031 47.789062 30.566406 C 47.765625 31.246094 47.695312 31.773438 47.265625 32.324219 C 46.546875 32.992188 45.75 33.421875 44.753906 33.398438 C 42.984375 33.136719 41.5625 32 40.351562 30.75 C 40.292969 32.347656 40.292969 32.347656 40.625 33.902344 C 40.757812 34.042969 40.894531 34.179688 41.035156 34.316406 C 41.035156 34.40625 41.035156 34.496094 41.035156 34.589844 C 40.359375 34.589844 39.683594 34.589844 38.988281 34.589844 C 39.078125 34.363281 39.167969 34.136719 39.261719 33.902344 C 39.320312 33.628906 39.320312 33.628906 39.347656 33.355469 C 39.359375 33.253906 39.371094 33.15625 39.382812 33.054688 C 39.390625 32.953125 39.402344 32.851562 39.414062 32.746094 C 39.433594 32.59375 39.433594 32.59375 39.449219 32.4375 C 39.511719 31.871094 39.546875 31.320312 39.535156 30.75 C 39.476562 30.808594 39.421875 30.867188 39.363281 30.929688 C 38.257812 32.074219 37.015625 33.101562 35.371094 33.265625 C 34.800781 33.269531 34.261719 33.257812 33.699219 33.136719 C 33.292969 33.0625 33.089844 33.199219 32.707031 33.355469 C 30.933594 33.527344 29.566406 32.507812 28.238281 31.453125 C 28.136719 31.355469 28.035156 31.257812 27.929688 31.160156 C 27.929688 31.070312 27.929688 30.980469 27.929688 30.886719 C 27.796875 30.839844 27.660156 30.792969 27.523438 30.75 C 27.476562 31.972656 27.511719 33.132812 28.203125 34.175781 C 28.203125 34.3125 28.203125 34.449219 28.203125 34.589844 C 27.574219 34.589844 26.941406 34.589844 26.292969 34.589844 C 26.429688 33.902344 26.429688 33.902344 26.566406 33.628906 C 26.699219 32.671875 26.722656 31.710938 26.703125 30.75 C 26.640625 30.8125 26.578125 30.878906 26.511719 30.945312 C 25.617188 31.855469 25.617188 31.855469 25.199219 32.121094 C 25.109375 32.121094 25.019531 32.121094 24.929688 32.121094 C 24.929688 32.210938 24.929688 32.300781 24.929688 32.394531 C 23.757812 33.113281 22.75 33.300781 21.378906 33.21875 C 21.230469 33.179688 21.230469 33.179688 21.082031 33.140625 C 20.808594 33.050781 20.808594 33.050781 20.449219 33.207031 C 19.300781 33.59375 18.328125 33.1875 17.285156 32.667969 C 16.425781 32.109375 15.675781 31.484375 14.964844 30.75 C 14.921875 31.929688 14.917969 32.933594 15.371094 34.039062 C 15.417969 34.222656 15.464844 34.402344 15.507812 34.589844 C 14.878906 34.589844 14.25 34.589844 13.597656 34.589844 C 13.6875 34.316406 13.777344 34.046875 13.871094 33.765625 C 13.910156 33.519531 13.9375 33.273438 13.957031 33.027344 C 13.96875 32.890625 13.980469 32.757812 13.992188 32.621094 C 14.003906 32.484375 14.015625 32.347656 14.023438 32.207031 C 14.035156 32.066406 14.046875 31.925781 14.0625 31.78125 C 14.089844 31.4375 14.117188 31.09375 14.144531 30.75 C 14.003906 30.882812 14.003906 30.882812 13.863281 31.019531 C 12.429688 32.371094 11.144531 33.289062 9.101562 33.25 C 8.230469 33.179688 7.746094 32.761719 7.183594 32.121094 C 6.722656 31.511719 6.710938 31.011719 6.722656 30.277344 C 6.71875 30.175781 6.71875 30.074219 6.71875 29.96875 C 6.722656 28.921875 7.136719 28.207031 7.867188 27.457031 C 8.617188 27.011719 9.332031 26.925781 10.1875 27.042969 C 10.964844 27.292969 11.667969 27.722656 12.371094 28.140625 C 12.320312 28.046875 12.273438 27.953125 12.226562 27.855469 C 12.132812 27.671875 12.132812 27.671875 12.035156 27.480469 C 11.976562 27.359375 11.914062 27.238281 11.851562 27.109375 C 11.445312 26.265625 11.367188 25.179688 11.640625 24.277344 C 11.753906 24.050781 11.753906 24.050781 11.960938 23.753906 C 12.050781 23.753906 12.140625 23.753906 12.234375 23.753906 C 12.277344 23.617188 12.324219 23.480469 12.371094 23.339844 C 12.609375 23.15625 12.609375 23.15625 12.898438 22.980469 C 12.992188 22.921875 13.089844 22.863281 13.1875 22.804688 C 14.164062 22.273438 15.128906 22.417969 16.097656 22.878906 Z M 16.097656 22.878906 "/>
<path style=" stroke:none;fill-rule:nonzero;fill:rgb(5.882353%,33.333334%,88.235295%);fill-opacity:1;" d="M 16.199219 10.46875 C 16.792969 10.859375 17.417969 11.371094 17.636719 12.074219 C 17.910156 13.457031 17.503906 14.640625 16.738281 15.796875 C 16.78125 15.75 16.828125 15.707031 16.875 15.660156 C 17.140625 15.519531 17.40625 15.382812 17.675781 15.246094 C 17.824219 15.175781 17.96875 15.101562 18.117188 15.023438 C 19.050781 14.578125 19.972656 14.617188 20.96875 14.835938 C 21.058594 14.792969 21.148438 14.746094 21.242188 14.699219 C 22.773438 14.519531 23.808594 14.953125 25.066406 15.796875 C 25.003906 15.703125 24.945312 15.605469 24.886719 15.507812 C 24.246094 14.382812 24.023438 13.386719 24.246094 12.09375 C 24.457031 11.648438 24.710938 11.332031 25.066406 10.996094 C 25.164062 10.886719 25.164062 10.886719 25.261719 10.777344 C 25.835938 10.253906 26.414062 10.261719 27.164062 10.265625 C 27.265625 10.265625 27.367188 10.261719 27.46875 10.261719 C 28.445312 10.257812 29.121094 10.605469 29.84375 11.269531 C 30.398438 11.945312 30.4375 12.800781 30.359375 13.648438 C 30.210938 14.449219 29.859375 15.105469 29.433594 15.796875 C 29.566406 15.691406 29.703125 15.585938 29.84375 15.480469 C 30.832031 14.777344 31.769531 14.558594 32.980469 14.699219 C 33.101562 14.75 33.21875 14.804688 33.34375 14.855469 C 33.449219 14.894531 33.554688 14.933594 33.664062 14.972656 C 33.800781 14.882812 33.933594 14.792969 34.074219 14.699219 C 35.152344 14.558594 36.003906 14.714844 36.941406 15.246094 C 37.035156 15.300781 37.128906 15.351562 37.226562 15.40625 C 37.453125 15.53125 37.675781 15.664062 37.894531 15.796875 C 37.8125 15.683594 37.734375 15.570312 37.648438 15.453125 C 37.015625 14.480469 36.785156 13.53125 36.941406 12.367188 C 37.140625 11.769531 37.414062 11.273438 37.894531 10.859375 C 37.984375 10.859375 38.074219 10.859375 38.167969 10.859375 C 38.167969 10.769531 38.167969 10.675781 38.167969 10.585938 C 38.972656 10.046875 40.253906 10.179688 41.171875 10.308594 C 41.9375 10.605469 42.5 11.128906 42.945312 11.820312 C 43.3125 12.917969 43.082031 13.980469 42.605469 15 C 42.398438 15.386719 42.398438 15.386719 42.128906 15.796875 C 42.171875 15.75 42.21875 15.707031 42.265625 15.660156 C 42.53125 15.519531 42.796875 15.382812 43.066406 15.246094 C 43.210938 15.175781 43.359375 15.101562 43.507812 15.023438 C 44.394531 14.601562 45.328125 14.542969 46.265625 14.84375 C 46.953125 15.34375 47.472656 15.933594 47.722656 16.757812 C 47.945312 19.097656 47.945312 19.097656 47.246094 19.988281 C 46.433594 20.777344 45.710938 20.921875 44.621094 20.910156 C 43.609375 20.824219 42.644531 20.417969 41.855469 19.773438 C 41.855469 19.683594 41.855469 19.59375 41.855469 19.5 C 41.769531 19.457031 41.683594 19.414062 41.597656 19.371094 C 41.410156 19.277344 41.222656 19.183594 41.035156 19.089844 C 41.035156 19 41.035156 18.90625 41.035156 18.8125 C 40.949219 18.773438 40.859375 18.730469 40.769531 18.6875 C 40.488281 18.539062 40.488281 18.539062 40.351562 18.402344 C 40.320312 19.535156 40.378906 20.585938 40.625 21.695312 C 40.714844 21.695312 40.804688 21.695312 40.898438 21.695312 C 40.945312 21.875 40.988281 22.058594 41.035156 22.242188 C 40.359375 22.242188 39.683594 22.242188 38.988281 22.242188 C 39.078125 21.886719 39.167969 21.527344 39.261719 21.171875 C 39.464844 20.261719 39.488281 19.332031 39.535156 18.402344 C 39.449219 18.480469 39.363281 18.5625 39.273438 18.644531 C 39.105469 18.796875 39.105469 18.796875 38.9375 18.953125 C 38.769531 19.105469 38.769531 19.105469 38.601562 19.261719 C 38.304688 19.5 38.304688 19.5 38.03125 19.5 C 38.03125 19.589844 38.03125 19.679688 38.03125 19.773438 C 37.75 19.933594 37.46875 20.089844 37.1875 20.246094 C 37.03125 20.332031 36.875 20.421875 36.710938 20.511719 C 35.648438 21.03125 34.53125 20.929688 33.390625 20.734375 C 33.257812 20.78125 33.121094 20.824219 32.980469 20.871094 C 31.113281 21.046875 29.894531 20.398438 28.476562 19.226562 C 28.144531 18.917969 27.828125 18.601562 27.523438 18.265625 C 27.460938 19.40625 27.582031 20.464844 27.929688 21.558594 C 28.019531 21.648438 28.109375 21.738281 28.203125 21.832031 C 28.203125 21.96875 28.203125 22.105469 28.203125 22.242188 C 27.574219 22.242188 26.941406 22.242188 26.292969 22.242188 C 26.429688 21.558594 26.429688 21.558594 26.566406 21.285156 C 26.585938 21.066406 26.601562 20.847656 26.609375 20.625 C 26.613281 20.496094 26.621094 20.367188 26.625 20.234375 C 26.632812 20.101562 26.636719 19.964844 26.644531 19.824219 C 26.648438 19.691406 26.65625 19.554688 26.660156 19.414062 C 26.675781 19.078125 26.6875 18.738281 26.703125 18.402344 C 26.605469 18.511719 26.605469 18.511719 26.503906 18.625 C 25.46875 19.757812 24.078125 20.769531 22.511719 20.902344 C 21.933594 20.894531 21.402344 20.855469 20.832031 20.734375 C 20.628906 20.800781 20.628906 20.800781 20.421875 20.871094 C 18.890625 20.96875 17.714844 20.703125 16.464844 19.773438 C 16.464844 19.683594 16.464844 19.59375 16.464844 19.5 C 16.386719 19.464844 16.304688 19.425781 16.222656 19.390625 C 15.910156 19.222656 15.671875 19.035156 15.40625 18.796875 C 15.324219 18.722656 15.238281 18.648438 15.152344 18.574219 C 15.089844 18.515625 15.027344 18.460938 14.964844 18.402344 C 14.933594 19.496094 14.921875 20.503906 15.238281 21.558594 C 15.371094 21.695312 15.371094 21.695312 15.507812 21.832031 C 15.507812 21.96875 15.507812 22.105469 15.507812 22.242188 C 14.878906 22.242188 14.25 22.242188 13.597656 22.242188 C 13.734375 21.695312 13.734375 21.695312 13.871094 21.421875 C 13.910156 21.183594 13.945312 20.941406 13.972656 20.703125 C 13.992188 20.5625 14.011719 20.421875 14.027344 20.273438 C 14.046875 20.125 14.066406 19.980469 14.085938 19.824219 C 14.113281 19.601562 14.113281 19.601562 14.140625 19.375 C 14.1875 19.003906 14.234375 18.636719 14.28125 18.265625 C 14.191406 18.265625 14.101562 18.265625 14.007812 18.265625 C 13.960938 18.402344 13.917969 18.539062 13.871094 18.675781 C 12.523438 19.992188 11.066406 20.929688 9.160156 20.902344 C 8.324219 20.828125 7.78125 20.4375 7.21875 19.855469 C 6.742188 19.25 6.726562 18.695312 6.730469 17.941406 C 6.726562 17.839844 6.726562 17.734375 6.722656 17.632812 C 6.722656 16.570312 7.136719 15.875 7.867188 15.109375 C 8.605469 14.566406 9.441406 14.59375 10.324219 14.699219 C 11.082031 14.925781 11.730469 15.335938 12.371094 15.796875 C 12.3125 15.6875 12.25 15.582031 12.191406 15.46875 C 11.636719 14.378906 11.332031 13.457031 11.550781 12.230469 C 11.84375 11.503906 12.347656 10.878906 12.996094 10.4375 C 13.917969 10.082031 15.28125 10.117188 16.199219 10.46875 Z M 16.199219 10.46875 "/>
<path style=" stroke:none;fill-rule:nonzero;fill:rgb(6.27451%,33.725491%,88.627452%);fill-opacity:1;" d="M 16.601562 35.550781 C 17.054688 35.921875 17.464844 36.277344 17.683594 36.835938 C 17.6875 36.953125 17.691406 37.074219 17.695312 37.195312 C 17.699219 37.289062 17.703125 37.382812 17.707031 37.476562 C 17.75 38.671875 17.398438 39.515625 16.738281 40.488281 C 16.839844 40.429688 16.941406 40.371094 17.046875 40.3125 C 17.179688 40.238281 17.316406 40.160156 17.453125 40.085938 C 17.585938 40.007812 17.71875 39.933594 17.859375 39.859375 C 18.363281 39.601562 18.769531 39.507812 19.332031 39.519531 C 19.4375 39.519531 19.539062 39.519531 19.644531 39.523438 C 19.753906 39.523438 19.859375 39.527344 19.972656 39.527344 C 20.953125 39.539062 20.953125 39.539062 21.925781 39.433594 C 23.046875 39.28125 24.042969 39.859375 24.929688 40.488281 C 24.878906 40.390625 24.828125 40.292969 24.777344 40.195312 C 24.234375 39.035156 23.976562 37.878906 24.332031 36.613281 C 24.730469 35.796875 25.535156 35.285156 26.34375 34.941406 C 27.410156 34.773438 28.40625 34.914062 29.296875 35.550781 C 29.898438 36.054688 30.289062 36.527344 30.398438 37.324219 C 30.433594 38.546875 30.066406 39.457031 29.433594 40.488281 C 29.585938 40.402344 29.585938 40.402344 29.742188 40.3125 C 29.875 40.238281 30.011719 40.160156 30.148438 40.085938 C 30.28125 40.007812 30.414062 39.933594 30.550781 39.859375 C 31.15625 39.550781 31.625 39.507812 32.300781 39.511719 C 32.441406 39.507812 32.582031 39.507812 32.726562 39.507812 C 33.117188 39.527344 33.117188 39.527344 33.421875 39.605469 C 33.6875 39.695312 33.6875 39.695312 34.023438 39.527344 C 34.996094 39.238281 35.917969 39.484375 36.804688 39.9375 C 37.125 40.117188 37.441406 40.300781 37.757812 40.488281 C 37.699219 40.398438 37.640625 40.304688 37.578125 40.214844 C 37 39.179688 36.753906 38.246094 36.941406 37.058594 C 37.28125 36.203125 37.742188 35.550781 38.578125 35.136719 C 39.457031 34.78125 40.3125 34.792969 41.203125 35.109375 C 41.804688 35.386719 42.230469 35.738281 42.671875 36.234375 C 42.761719 36.324219 42.851562 36.417969 42.945312 36.507812 C 43.394531 37.847656 42.976562 39.050781 42.382812 40.253906 C 42.34375 40.328125 42.304688 40.40625 42.265625 40.488281 C 42.355469 40.429688 42.445312 40.371094 42.539062 40.3125 C 42.71875 40.199219 42.71875 40.199219 42.902344 40.085938 C 43.023438 40.007812 43.140625 39.933594 43.261719 39.859375 C 44.054688 39.4375 44.933594 39.457031 45.8125 39.527344 C 46.648438 39.796875 47.132812 40.417969 47.605469 41.132812 C 47.9375 42.023438 47.90625 43.328125 47.550781 44.207031 C 47.351562 44.511719 47.171875 44.769531 46.90625 45.015625 C 46.816406 45.015625 46.726562 45.015625 46.632812 45.015625 C 46.632812 45.105469 46.632812 45.195312 46.632812 45.289062 C 45.714844 45.777344 44.847656 45.859375 43.832031 45.621094 C 42.476562 45.140625 41.316406 44.140625 40.351562 43.09375 C 40.265625 45.058594 40.265625 45.058594 41.035156 46.796875 C 40.359375 46.796875 39.683594 46.796875 38.988281 46.796875 C 39.121094 46.527344 39.121094 46.527344 39.261719 46.25 C 39.324219 45.890625 39.375 45.539062 39.414062 45.175781 C 39.425781 45.082031 39.4375 44.988281 39.449219 44.890625 C 39.523438 44.289062 39.542969 43.703125 39.535156 43.09375 C 39.472656 43.160156 39.414062 43.226562 39.351562 43.296875 C 38.167969 44.550781 36.714844 45.6875 34.933594 45.742188 C 34.535156 45.730469 34.285156 45.679688 33.894531 45.546875 C 33.4375 45.394531 33.394531 45.492188 32.980469 45.699219 C 31.371094 45.921875 30.152344 45.257812 28.886719 44.328125 C 28.734375 44.222656 28.734375 44.222656 28.578125 44.113281 C 28.460938 44.015625 28.460938 44.015625 28.339844 43.917969 C 28.339844 43.824219 28.339844 43.734375 28.339844 43.640625 C 28.207031 43.597656 28.070312 43.550781 27.929688 43.503906 C 27.929688 43.414062 27.929688 43.324219 27.929688 43.230469 C 27.796875 43.183594 27.660156 43.140625 27.523438 43.09375 C 27.453125 44.410156 27.613281 45.609375 28.203125 46.796875 C 27.574219 46.796875 26.941406 46.796875 26.292969 46.796875 C 26.382812 46.527344 26.472656 46.253906 26.566406 45.972656 C 26.707031 45.066406 26.71875 44.148438 26.703125 43.230469 C 26.621094 43.308594 26.539062 43.390625 26.453125 43.472656 C 25.121094 44.71875 23.679688 45.789062 21.789062 45.734375 C 21.441406 45.691406 21.15625 45.554688 20.832031 45.425781 C 20.75 45.46875 20.667969 45.507812 20.585938 45.550781 C 19.933594 45.875 19.128906 45.785156 18.4375 45.613281 C 17.070312 45.121094 15.933594 44.160156 14.964844 43.09375 C 14.929688 44.421875 14.910156 45.59375 15.507812 46.796875 C 14.878906 46.796875 14.25 46.796875 13.597656 46.796875 C 13.6875 46.570312 13.777344 46.34375 13.871094 46.113281 C 13.933594 45.753906 13.933594 45.753906 13.957031 45.382812 C 13.96875 45.25 13.980469 45.117188 13.992188 44.976562 C 14.003906 44.839844 14.015625 44.703125 14.023438 44.558594 C 14.035156 44.417969 14.046875 44.277344 14.0625 44.132812 C 14.089844 43.785156 14.117188 43.441406 14.144531 43.09375 C 14.050781 43.1875 14.050781 43.1875 13.957031 43.285156 C 12.746094 44.527344 11.3125 45.59375 9.539062 45.742188 C 8.703125 45.730469 8.097656 45.355469 7.480469 44.816406 C 6.726562 43.925781 6.671875 43.160156 6.707031 42.03125 C 6.777344 41.132812 7.148438 40.480469 7.8125 39.875 C 8.433594 39.453125 9.171875 39.34375 9.914062 39.390625 C 10.804688 39.609375 11.59375 40.003906 12.371094 40.488281 C 12.320312 40.394531 12.273438 40.300781 12.226562 40.203125 C 12.132812 40.015625 12.132812 40.015625 12.035156 39.828125 C 11.976562 39.703125 11.914062 39.582031 11.851562 39.457031 C 11.457031 38.632812 11.46875 37.816406 11.550781 36.921875 C 11.691406 36.535156 11.851562 36.292969 12.097656 35.960938 C 12.1875 35.960938 12.277344 35.960938 12.371094 35.960938 C 12.371094 35.871094 12.371094 35.78125 12.371094 35.6875 C 13.671875 34.664062 15.238281 34.609375 16.601562 35.550781 Z M 16.601562 35.550781 "/>
<path style=" stroke:none;fill-rule:nonzero;fill:rgb(45.882353%,80.392158%,99.607843%);fill-opacity:1;" d="M 41.585938 10.46875 C 42.261719 10.914062 42.824219 11.449219 43.082031 12.230469 C 43.175781 13.613281 42.898438 14.636719 42.128906 15.796875 C 42.171875 15.75 42.21875 15.707031 42.265625 15.660156 C 42.53125 15.519531 42.796875 15.382812 43.066406 15.246094 C 43.210938 15.175781 43.359375 15.101562 43.507812 15.023438 C 44.394531 14.601562 45.328125 14.542969 46.265625 14.84375 C 46.953125 15.34375 47.472656 15.933594 47.722656 16.757812 C 47.945312 19.097656 47.945312 19.097656 47.246094 19.988281 C 46.433594 20.777344 45.710938 20.921875 44.621094 20.910156 C 43.609375 20.824219 42.644531 20.417969 41.855469 19.773438 C 41.855469 19.683594 41.855469 19.59375 41.855469 19.5 C 41.769531 19.457031 41.683594 19.414062 41.597656 19.371094 C 41.410156 19.277344 41.222656 19.183594 41.035156 19.089844 C 41.035156 19 41.035156 18.90625 41.035156 18.8125 C 40.949219 18.773438 40.859375 18.730469 40.769531 18.6875 C 40.488281 18.539062 40.488281 18.539062 40.351562 18.402344 C 40.320312 19.535156 40.378906 20.585938 40.625 21.695312 C 40.714844 21.695312 40.804688 21.695312 40.898438 21.695312 C 40.945312 21.875 40.988281 22.058594 41.035156 22.242188 C 40.359375 22.242188 39.683594 22.242188 38.988281 22.242188 C 39.078125 21.886719 39.167969 21.527344 39.261719 21.171875 C 39.464844 20.261719 39.488281 19.332031 39.535156 18.402344 C 39.449219 18.480469 39.363281 18.5625 39.273438 18.644531 C 39.164062 18.746094 39.050781 18.847656 38.9375 18.953125 C 38.824219 19.054688 38.714844 19.15625 38.601562 19.261719 C 38.304688 19.5 38.304688 19.5 38.03125 19.5 C 38.03125 19.589844 38.03125 19.679688 38.03125 19.773438 C 37.75 19.933594 37.46875 20.089844 37.1875 20.246094 C 37.03125 20.332031 36.875 20.421875 36.710938 20.511719 C 36.09375 20.816406 35.574219 20.890625 34.894531 20.898438 C 34.78125 20.898438 34.667969 20.902344 34.550781 20.902344 C 33.980469 20.851562 33.636719 20.710938 33.230469 20.300781 C 33.140625 20.183594 33.050781 20.066406 32.957031 19.945312 C 32.816406 19.773438 32.816406 19.773438 32.675781 19.597656 C 32.183594 18.839844 32.027344 18.058594 32.164062 17.167969 C 32.5 16.183594 33.117188 15.179688 34.074219 14.699219 C 35.164062 14.59375 35.988281 14.707031 36.941406 15.246094 C 37.035156 15.300781 37.128906 15.351562 37.226562 15.40625 C 37.453125 15.53125 37.675781 15.664062 37.894531 15.796875 C 37.8125 15.683594 37.734375 15.570312 37.648438 15.453125 C 37.015625 14.480469 36.785156 13.53125 36.941406 12.367188 C 37.140625 11.769531 37.414062 11.273438 37.894531 10.859375 C 37.984375 10.859375 38.074219 10.859375 38.167969 10.859375 C 38.167969 10.769531 38.167969 10.675781 38.167969 10.585938 C 39.035156 10.003906 40.652344 10.109375 41.585938 10.46875 Z M 41.585938 10.46875 "/>
<path style=" stroke:none;fill-rule:nonzero;fill:rgb(45.882353%,80.392158%,99.607843%);fill-opacity:1;" d="M 16.097656 22.878906 C 16.789062 23.257812 17.390625 23.632812 17.640625 24.425781 C 17.867188 25.632812 17.570312 26.65625 17.011719 27.730469 C 16.964844 27.867188 16.921875 28.003906 16.875 28.140625 C 17.007812 28.039062 17.140625 27.933594 17.273438 27.824219 C 18.164062 27.191406 19.070312 26.953125 20.152344 27.042969 C 21.03125 27.21875 21.566406 28.089844 22.042969 28.792969 C 22.402344 29.511719 22.46875 30.28125 22.246094 31.054688 C 21.875 31.972656 21.324219 32.835938 20.421875 33.285156 C 19.078125 33.511719 17.964844 33.113281 16.828125 32.371094 C 16.15625 31.871094 15.546875 31.351562 14.964844 30.75 C 14.921875 31.929688 14.917969 32.933594 15.371094 34.039062 C 15.417969 34.222656 15.464844 34.402344 15.507812 34.589844 C 14.878906 34.589844 14.25 34.589844 13.597656 34.589844 C 13.6875 34.316406 13.777344 34.046875 13.871094 33.765625 C 13.910156 33.519531 13.9375 33.273438 13.957031 33.027344 C 13.96875 32.890625 13.980469 32.757812 13.992188 32.621094 C 14.003906 32.484375 14.015625 32.347656 14.023438 32.207031 C 14.035156 32.066406 14.046875 31.925781 14.0625 31.78125 C 14.089844 31.4375 14.117188 31.09375 14.144531 30.75 C 14.003906 30.882812 14.003906 30.882812 13.863281 31.019531 C 12.429688 32.371094 11.144531 33.289062 9.101562 33.25 C 8.230469 33.179688 7.746094 32.761719 7.183594 32.121094 C 6.722656 31.511719 6.710938 31.011719 6.722656 30.277344 C 6.71875 30.175781 6.71875 30.074219 6.71875 29.96875 C 6.722656 28.921875 7.136719 28.207031 7.867188 27.457031 C 8.617188 27.011719 9.332031 26.925781 10.1875 27.042969 C 10.964844 27.292969 11.667969 27.722656 12.371094 28.140625 C 12.320312 28.046875 12.273438 27.953125 12.226562 27.855469 C 12.132812 27.671875 12.132812 27.671875 12.035156 27.480469 C 11.976562 27.359375 11.914062 27.238281 11.851562 27.109375 C 11.445312 26.265625 11.367188 25.179688 11.640625 24.277344 C 11.753906 24.050781 11.753906 24.050781 11.960938 23.753906 C 12.050781 23.753906 12.140625 23.753906 12.234375 23.753906 C 12.277344 23.617188 12.324219 23.480469 12.371094 23.339844 C 12.609375 23.15625 12.609375 23.15625 12.898438 22.980469 C 12.992188 22.921875 13.089844 22.863281 13.1875 22.804688 C 14.164062 22.273438 15.128906 22.417969 16.097656 22.878906 Z M 16.097656 22.878906 "/>
<path style=" stroke:none;fill-rule:nonzero;fill:rgb(1.568628%,12.941177%,54.901963%);fill-opacity:1;" d="M 16.601562 35.550781 C 17.054688 35.921875 17.464844 36.277344 17.683594 36.835938 C 17.6875 36.953125 17.691406 37.074219 17.695312 37.195312 C 17.699219 37.289062 17.703125 37.382812 17.707031 37.476562 C 17.75 38.671875 17.398438 39.515625 16.738281 40.488281 C 16.839844 40.429688 16.941406 40.371094 17.046875 40.3125 C 17.179688 40.238281 17.316406 40.160156 17.453125 40.085938 C 17.585938 40.007812 17.71875 39.933594 17.859375 39.859375 C 18.464844 39.550781 18.933594 39.507812 19.613281 39.511719 C 19.753906 39.507812 19.898438 39.507812 20.042969 39.507812 C 20.527344 39.53125 20.757812 39.585938 21.097656 39.945312 C 21.84375 40.882812 22.433594 41.652344 22.394531 42.898438 C 22.253906 43.679688 21.855469 44.503906 21.242188 45.015625 C 21.152344 45.015625 21.0625 45.015625 20.96875 45.015625 C 20.933594 45.101562 20.894531 45.1875 20.859375 45.28125 C 20.695312 45.5625 20.695312 45.5625 20.285156 45.699219 C 18.652344 45.867188 17.550781 45.316406 16.269531 44.34375 C 15.800781 43.957031 15.371094 43.542969 14.964844 43.09375 C 14.929688 44.421875 14.910156 45.59375 15.507812 46.796875 C 14.878906 46.796875 14.25 46.796875 13.597656 46.796875 C 13.6875 46.570312 13.777344 46.34375 13.871094 46.113281 C 13.933594 45.753906 13.933594 45.753906 13.957031 45.382812 C 13.96875 45.25 13.980469 45.117188 13.992188 44.976562 C 14.003906 44.839844 14.015625 44.703125 14.023438 44.558594 C 14.035156 44.417969 14.046875 44.277344 14.0625 44.132812 C 14.089844 43.785156 14.117188 43.441406 14.144531 43.09375 C 14.050781 43.1875 14.050781 43.1875 13.957031 43.285156 C 12.746094 44.527344 11.3125 45.59375 9.539062 45.742188 C 8.703125 45.730469 8.097656 45.355469 7.480469 44.816406 C 6.726562 43.925781 6.671875 43.160156 6.707031 42.03125 C 6.777344 41.132812 7.148438 40.480469 7.8125 39.875 C 8.433594 39.453125 9.171875 39.34375 9.914062 39.390625 C 10.804688 39.609375 11.59375 40.003906 12.371094 40.488281 C 12.320312 40.394531 12.273438 40.300781 12.226562 40.203125 C 12.132812 40.015625 12.132812 40.015625 12.035156 39.828125 C 11.976562 39.703125 11.914062 39.582031 11.851562 39.457031 C 11.457031 38.632812 11.46875 37.816406 11.550781 36.921875 C 11.691406 36.535156 11.851562 36.292969 12.097656 35.960938 C 12.1875 35.960938 12.277344 35.960938 12.371094 35.960938 C 12.371094 35.871094 12.371094 35.78125 12.371094 35.6875 C 13.671875 34.664062 15.238281 34.609375 16.601562 35.550781 Z M 16.601562 35.550781 "/>
<path style=" stroke:none;fill-rule:nonzero;fill:rgb(6.27451%,33.725491%,88.235295%);fill-opacity:1;" d="M 28.640625 22.792969 C 29.316406 23.175781 29.863281 23.617188 30.25 24.300781 C 30.378906 24.765625 30.402344 25.191406 30.386719 25.671875 C 30.386719 25.828125 30.382812 25.984375 30.378906 26.144531 C 30.1875 26.875 29.8125 27.492188 29.433594 28.140625 C 29.476562 28.097656 29.523438 28.050781 29.570312 28.003906 C 29.832031 27.863281 30.097656 27.726562 30.363281 27.59375 C 30.507812 27.519531 30.652344 27.445312 30.800781 27.371094 C 31.601562 27 32.410156 26.898438 33.253906 27.183594 C 33.34375 27.226562 33.433594 27.273438 33.527344 27.320312 C 33.277344 27.855469 32.953125 28.324219 32.617188 28.8125 C 32.230469 29.429688 32.21875 30.039062 32.300781 30.75 C 32.539062 31.550781 32.898438 32.125 33.527344 32.667969 C 33.390625 33.082031 33.390625 33.082031 33.101562 33.242188 C 32.152344 33.511719 31.277344 33.324219 30.386719 32.941406 C 29.519531 32.433594 28.664062 31.855469 27.929688 31.160156 C 27.929688 31.070312 27.929688 30.980469 27.929688 30.886719 C 27.796875 30.839844 27.660156 30.792969 27.523438 30.75 C 27.476562 31.972656 27.511719 33.132812 28.203125 34.175781 C 28.203125 34.3125 28.203125 34.449219 28.203125 34.589844 C 27.574219 34.589844 26.941406 34.589844 26.292969 34.589844 C 26.429688 33.902344 26.429688 33.902344 26.566406 33.628906 C 26.699219 32.671875 26.722656 31.710938 26.703125 30.75 C 26.640625 30.8125 26.578125 30.878906 26.511719 30.945312 C 25.617188 31.855469 25.617188 31.855469 25.199219 32.121094 C 25.109375 32.121094 25.019531 32.121094 24.929688 32.121094 C 24.929688 32.210938 24.929688 32.300781 24.929688 32.394531 C 23.761719 33.113281 22.746094 33.304688 21.378906 33.21875 C 21.242188 33.171875 21.109375 33.125 20.96875 33.082031 C 21.050781 32.625 21.191406 32.398438 21.507812 32.070312 C 22.085938 31.414062 22.257812 30.8125 22.234375 29.925781 C 22.109375 28.964844 21.523438 28.101562 20.832031 27.457031 C 21.355469 27.003906 21.703125 26.976562 22.371094 26.996094 C 23.359375 27.125 24.226562 27.628906 25.066406 28.140625 C 25.003906 28.046875 24.945312 27.953125 24.886719 27.855469 C 24.246094 26.726562 24.023438 25.730469 24.246094 24.4375 C 24.453125 23.992188 24.6875 23.652344 25.066406 23.339844 C 25.199219 23.296875 25.335938 23.25 25.472656 23.203125 C 25.472656 23.113281 25.472656 23.023438 25.472656 22.929688 C 26.570312 22.441406 27.515625 22.285156 28.640625 22.792969 Z M 28.640625 22.792969 "/>
<path style=" stroke:none;fill-rule:nonzero;fill:rgb(1.568628%,12.941177%,54.901963%);fill-opacity:1;" d="M 27.164062 10.265625 C 27.265625 10.265625 27.367188 10.261719 27.46875 10.261719 C 28.445312 10.257812 29.121094 10.605469 29.84375 11.269531 C 30.398438 11.945312 30.4375 12.800781 30.359375 13.648438 C 30.210938 14.449219 29.859375 15.105469 29.433594 15.796875 C 29.566406 15.691406 29.703125 15.585938 29.84375 15.480469 C 30.828125 14.78125 31.773438 14.554688 32.980469 14.699219 C 33.300781 14.839844 33.300781 14.839844 33.527344 14.972656 C 33.277344 15.507812 32.953125 15.980469 32.617188 16.464844 C 32.1875 17.148438 32.199219 17.925781 32.363281 18.699219 C 32.59375 19.417969 32.96875 19.824219 33.527344 20.324219 C 33.460938 20.527344 33.460938 20.527344 33.390625 20.734375 C 32.375 21.074219 31.285156 20.953125 30.320312 20.515625 C 29.257812 19.921875 28.339844 19.164062 27.523438 18.265625 C 27.460938 19.40625 27.582031 20.464844 27.929688 21.558594 C 28.066406 21.695312 28.066406 21.695312 28.203125 21.832031 C 28.203125 21.96875 28.203125 22.105469 28.203125 22.242188 C 27.574219 22.242188 26.941406 22.242188 26.292969 22.242188 C 26.429688 21.558594 26.429688 21.558594 26.566406 21.285156 C 26.585938 21.066406 26.601562 20.847656 26.609375 20.625 C 26.617188 20.433594 26.617188 20.433594 26.625 20.234375 C 26.632812 20.101562 26.636719 19.964844 26.644531 19.824219 C 26.648438 19.691406 26.65625 19.554688 26.660156 19.414062 C 26.675781 19.078125 26.6875 18.738281 26.703125 18.402344 C 26.636719 18.476562 26.570312 18.546875 26.503906 18.625 C 25.460938 19.765625 24.082031 20.753906 22.511719 20.910156 C 21.894531 20.90625 21.390625 20.898438 20.832031 20.597656 C 20.886719 20.542969 20.9375 20.488281 20.992188 20.429688 C 21.691406 19.664062 22.207031 18.855469 22.273438 17.792969 C 22.230469 16.871094 21.796875 16.058594 21.132812 15.4375 C 21.03125 15.375 20.933594 15.3125 20.832031 15.246094 C 20.878906 15.113281 20.921875 14.976562 20.96875 14.835938 C 21.585938 14.527344 22.351562 14.621094 23.015625 14.699219 C 23.757812 14.976562 24.410156 15.359375 25.066406 15.796875 C 25.003906 15.703125 24.945312 15.605469 24.886719 15.507812 C 24.246094 14.382812 24.023438 13.386719 24.246094 12.09375 C 24.457031 11.648438 24.710938 11.332031 25.066406 10.996094 C 25.128906 10.925781 25.195312 10.851562 25.261719 10.777344 C 25.835938 10.253906 26.414062 10.261719 27.164062 10.265625 Z M 27.164062 10.265625 "/>
<path style=" stroke:none;fill-rule:nonzero;fill:rgb(45.882353%,80.392158%,99.607843%);fill-opacity:1;" d="M 29.296875 35.550781 C 29.898438 36.054688 30.289062 36.527344 30.398438 37.324219 C 30.433594 38.546875 30.066406 39.457031 29.433594 40.488281 C 29.535156 40.429688 29.636719 40.371094 29.742188 40.3125 C 29.875 40.238281 30.011719 40.160156 30.148438 40.085938 C 30.28125 40.007812 30.414062 39.933594 30.550781 39.859375 C 31.160156 39.550781 31.628906 39.507812 32.308594 39.511719 C 32.449219 39.507812 32.59375 39.507812 32.738281 39.507812 C 33.117188 39.527344 33.117188 39.527344 33.527344 39.664062 C 33.527344 40.074219 33.527344 40.074219 33.210938 40.402344 C 33.03125 40.578125 33.03125 40.578125 32.84375 40.761719 C 32.308594 41.550781 32.210938 42.289062 32.300781 43.230469 C 32.515625 43.882812 32.796875 44.371094 33.253906 44.875 C 33.34375 44.921875 33.433594 44.96875 33.527344 45.015625 C 33.527344 45.148438 33.527344 45.285156 33.527344 45.425781 C 32.785156 45.859375 31.941406 45.820312 31.121094 45.605469 C 30.300781 45.296875 29.59375 44.84375 28.886719 44.328125 C 28.785156 44.257812 28.683594 44.1875 28.578125 44.113281 C 28.460938 44.015625 28.460938 44.015625 28.339844 43.917969 C 28.339844 43.824219 28.339844 43.734375 28.339844 43.640625 C 28.207031 43.597656 28.070312 43.550781 27.929688 43.503906 C 27.929688 43.414062 27.929688 43.324219 27.929688 43.230469 C 27.796875 43.183594 27.660156 43.140625 27.523438 43.09375 C 27.453125 44.410156 27.613281 45.609375 28.203125 46.796875 C 27.574219 46.796875 26.941406 46.796875 26.292969 46.796875 C 26.382812 46.527344 26.472656 46.253906 26.566406 45.972656 C 26.707031 45.066406 26.71875 44.148438 26.703125 43.230469 C 26.578125 43.351562 26.578125 43.351562 26.453125 43.472656 C 25.105469 44.734375 23.695312 45.75 21.792969 45.742188 C 21.476562 45.695312 21.25 45.582031 20.96875 45.425781 C 20.96875 45.289062 20.96875 45.152344 20.96875 45.015625 C 21.121094 44.867188 21.121094 44.867188 21.277344 44.714844 C 21.875 44.097656 22.226562 43.476562 22.257812 42.605469 C 22.199219 41.5625 21.722656 40.90625 21.027344 40.171875 C 20.832031 39.9375 20.832031 39.9375 20.832031 39.664062 C 21.699219 39.277344 22.507812 39.359375 23.390625 39.648438 C 23.914062 39.859375 24.421875 40.09375 24.929688 40.351562 C 24.871094 40.238281 24.871094 40.238281 24.8125 40.125 C 24.765625 40.027344 24.714844 39.929688 24.664062 39.828125 C 24.613281 39.730469 24.566406 39.632812 24.515625 39.53125 C 24.101562 38.664062 24.078125 37.539062 24.328125 36.609375 C 24.742188 35.796875 25.53125 35.289062 26.34375 34.941406 C 27.410156 34.773438 28.40625 34.914062 29.296875 35.550781 Z M 29.296875 35.550781 "/>
</g>
</svg>
