<?xml version="1.0" encoding="UTF-8"?>
<svg xmlns="http://www.w3.org/2000/svg" xmlns:xlink="http://www.w3.org/1999/xlink" width="56px" height="56px" viewBox="0 0 56 56" version="1.1">
<g id="surface1">
<path style=" stroke:none;fill-rule:nonzero;fill:rgb(100%,100%,100%);fill-opacity:1;" d="M 15.136719 0.00390625 L 40.863281 0.00390625 C 49.222656 0.00390625 55.996094 6.816406 55.996094 15.21875 L 55.996094 40.78125 C 55.996094 49.1875 49.222656 56 40.863281 56 L 15.136719 56 C 6.78125 56 0.00390625 49.1875 0.00390625 40.78125 L 0.00390625 15.21875 C 0.00390625 6.816406 6.78125 0.00390625 15.136719 0.00390625 Z M 15.136719 0.00390625 "/>
<path style=" stroke:none;fill-rule:evenodd;fill:rgb(12.156863%,10.196079%,9.019608%);fill-opacity:1;" d="M 28.003906 20.96875 L 28.003906 7.421875 C 29.5625 7.457031 31.117188 7.679688 32.628906 8.09375 C 32.472656 9.023438 32.867188 9.953125 33.636719 10.488281 L 29.175781 21.214844 C 28.789062 21.089844 28.402344 21.011719 28.003906 20.96875 Z M 28.003906 20.96875 "/>
<path style=" stroke:none;fill-rule:evenodd;fill:rgb(12.156863%,10.196079%,9.019608%);fill-opacity:1;" d="M 26.828125 20.96875 L 26.828125 7.4375 C 24.707031 7.546875 22.628906 8.070312 20.707031 8.980469 L 25.695312 21.203125 C 26.0625 21.082031 26.4375 21.003906 26.828125 20.96875 Z M 26.828125 20.96875 "/>
<path style=" stroke:none;fill-rule:evenodd;fill:rgb(12.156863%,10.196079%,9.019608%);fill-opacity:1;" d="M 24.792969 21.542969 L 19.828125 9.386719 C 17.921875 10.371094 16.199219 11.699219 14.761719 13.296875 L 23.695312 22.28125 C 24.03125 21.996094 24.398438 21.75 24.792969 21.542969 Z M 24.792969 21.542969 "/>
<path style=" stroke:none;fill-rule:evenodd;fill:rgb(12.156863%,10.196079%,9.019608%);fill-opacity:1;" d="M 14.140625 14.03125 C 12.828125 15.597656 11.832031 17.414062 11.214844 19.363281 L 22.320312 24.035156 C 22.511719 23.65625 22.753906 23.292969 23.027344 22.96875 Z M 14.140625 14.03125 "/>
<path style=" stroke:none;fill-rule:evenodd;fill:rgb(12.156863%,10.196079%,9.019608%);fill-opacity:1;" d="M 21.929688 24.933594 L 10.980469 20.328125 C 10.730469 22.292969 10.777344 24.28125 11.125 26.230469 L 21.671875 26.230469 C 21.710938 25.789062 21.800781 25.355469 21.929688 24.933594 Z M 21.929688 24.933594 "/>
<path style=" stroke:none;fill-rule:evenodd;fill:rgb(12.156863%,10.196079%,9.019608%);fill-opacity:1;" d="M 21.675781 27.203125 L 11.398438 27.203125 C 12.023438 28.832031 12.832031 30.375 13.804688 31.816406 L 21.921875 28.460938 C 21.796875 28.054688 21.714844 27.628906 21.675781 27.203125 Z M 21.675781 27.203125 "/>
<path style=" stroke:none;fill-rule:evenodd;fill:rgb(12.156863%,10.196079%,9.019608%);fill-opacity:1;" d="M 23.042969 30.398438 C 22.757812 30.0625 22.511719 29.695312 22.3125 29.296875 L 14.476562 32.527344 C 15.566406 33.621094 16.773438 34.578125 18.066406 35.402344 Z M 23.042969 30.398438 "/>
<path style=" stroke:none;fill-rule:evenodd;fill:rgb(12.156863%,10.196079%,9.019608%);fill-opacity:1;" d="M 29.277344 37.625 C 29.164062 36.691406 29.589844 35.78125 30.378906 35.273438 L 29.136719 32.1875 C 27.261719 32.769531 25.214844 32.355469 23.71875 31.078125 L 18.917969 35.898438 C 22.09375 37.59375 25.730469 38.203125 29.277344 37.625 Z M 29.277344 37.625 "/>
<path style=" stroke:none;fill-rule:evenodd;fill:rgb(12.156863%,10.196079%,9.019608%);fill-opacity:1;" d="M 29.976562 31.839844 L 31.222656 34.949219 C 32.1875 34.785156 33.148438 35.226562 33.664062 36.058594 C 34.199219 35.804688 34.726562 35.539062 35.246094 35.261719 L 31.101562 31.089844 C 30.753906 31.386719 30.378906 31.640625 29.976562 31.839844 Z M 29.976562 31.839844 "/>
<path style=" stroke:none;fill-rule:evenodd;fill:rgb(12.156863%,10.196079%,9.019608%);fill-opacity:1;" d="M 44.886719 28.417969 C 44.539062 28.074219 44.300781 27.632812 44.203125 27.144531 L 33.117188 27.144531 C 33.019531 28.34375 32.546875 29.484375 31.777344 30.402344 L 36.125 34.773438 C 39.285156 33.011719 42.226562 30.878906 44.886719 28.417969 Z M 44.886719 28.417969 "/>
<path style=" stroke:none;fill-rule:evenodd;fill:rgb(12.156863%,10.196079%,9.019608%);fill-opacity:1;" d="M 38.625 11.601562 C 39.144531 12.125 39.632812 12.679688 40.085938 13.265625 L 31.09375 22.308594 C 30.761719 22.03125 30.410156 21.796875 30.03125 21.597656 L 34.492188 10.871094 C 35.320312 11.042969 36.175781 10.75 36.746094 10.117188 C 37.40625 10.566406 38.035156 11.066406 38.625 11.601562 Z M 38.625 11.601562 "/>
<path style=" stroke:none;fill-rule:evenodd;fill:rgb(85.490197%,14.509805%,11.372549%);fill-opacity:1;" d="M 33.058594 37.347656 C 33.058594 36.542969 32.410156 35.890625 31.613281 35.890625 C 30.8125 35.890625 30.167969 36.542969 30.167969 37.347656 C 30.167969 38.152344 30.8125 38.808594 31.613281 38.808594 C 32.410156 38.808594 33.058594 38.152344 33.058594 37.347656 Z M 33.058594 37.347656 "/>
<path style=" stroke:none;fill-rule:evenodd;fill:rgb(85.490197%,14.509805%,11.372549%);fill-opacity:1;" d="M 48.300781 26.480469 C 48.300781 25.671875 47.648438 25.019531 46.847656 25.019531 C 46.046875 25.019531 45.398438 25.671875 45.398438 26.480469 C 45.398438 27.285156 46.046875 27.9375 46.847656 27.9375 C 47.648438 27.9375 48.300781 27.285156 48.300781 26.480469 Z M 48.300781 26.480469 "/>
<path style=" stroke:none;fill-rule:evenodd;fill:rgb(85.490197%,14.509805%,11.372549%);fill-opacity:1;" d="M 36.40625 8.511719 C 36.40625 7.707031 35.757812 7.054688 34.957031 7.054688 C 34.15625 7.054688 33.503906 7.707031 33.503906 8.511719 C 33.503906 9.316406 34.15625 9.972656 34.957031 9.972656 C 35.757812 9.972656 36.40625 9.316406 36.40625 8.511719 Z M 36.40625 8.511719 "/>
<path style=" stroke:none;fill-rule:evenodd;fill:rgb(12.156863%,10.196079%,9.019608%);fill-opacity:1;" d="M 16.875 49.324219 L 16.875 45.496094 L 18.507812 45.496094 L 20.726562 48.136719 L 20.726562 45.519531 L 21.867188 45.519531 L 21.867188 49.324219 L 20.125 49.324219 L 17.992188 46.816406 L 17.992188 49.324219 Z M 16.875 49.324219 "/>
<path style=" stroke:none;fill-rule:evenodd;fill:rgb(12.156863%,10.196079%,9.019608%);fill-opacity:1;" d="M 22.820312 49.324219 L 22.820312 45.464844 L 23.890625 45.464844 L 23.890625 49.324219 Z M 22.820312 49.324219 "/>
<path style=" stroke:none;fill-rule:evenodd;fill:rgb(12.156863%,10.196079%,9.019608%);fill-opacity:1;" d="M 28.164062 47.917969 L 29.226562 47.917969 L 29.226562 48.429688 C 29.226562 48.960938 28.769531 49.378906 28.242188 49.324219 L 26.035156 49.324219 C 25.484375 49.324219 25.027344 48.90625 24.96875 48.359375 L 24.96875 46.429688 C 24.96875 45.855469 25.464844 45.402344 26.035156 45.464844 L 28.242188 45.464844 C 28.75 45.464844 29.175781 45.851562 29.230469 46.355469 L 29.230469 46.875 L 28.164062 46.875 C 28.15625 46.617188 27.941406 46.417969 27.683594 46.429688 L 26.570312 46.429688 C 26.285156 46.417969 26.046875 46.632812 26.035156 46.910156 L 26.035156 47.875 C 26.046875 48.160156 26.285156 48.371094 26.570312 48.359375 L 27.683594 48.359375 C 27.9375 48.371094 28.152344 48.179688 28.164062 47.917969 Z M 28.164062 47.917969 "/>
<path style=" stroke:none;fill-rule:evenodd;fill:rgb(12.156863%,10.196079%,9.019608%);fill-opacity:1;" d="M 31.375 48.71875 L 31.113281 49.332031 L 29.976562 49.332031 L 31.550781 45.515625 L 33.296875 45.515625 L 34.910156 49.332031 L 33.6875 49.332031 L 33.515625 48.71875 Z M 33.078125 47.796875 L 31.769531 47.796875 L 32.421875 46.171875 Z M 33.078125 47.796875 "/>
<path style=" stroke:none;fill-rule:evenodd;fill:rgb(12.156863%,10.196079%,9.019608%);fill-opacity:1;" d="M 36.875 47.121094 L 36.875 49.308594 L 35.808594 49.308594 L 35.808594 45.449219 L 37.039062 45.449219 L 38.960938 48.457031 L 40.753906 45.449219 L 41.96875 45.449219 L 41.96875 49.308594 L 40.898438 49.308594 L 40.898438 47.238281 L 39.664062 49.308594 L 38.273438 49.308594 Z M 36.875 47.121094 "/>
<path style=" stroke:none;fill-rule:evenodd;fill:rgb(12.156863%,10.196079%,9.019608%);fill-opacity:1;" d="M 42.949219 49.324219 L 42.949219 45.417969 L 46.308594 45.417969 C 46.832031 45.417969 47.226562 45.859375 47.3125 46.386719 L 47.3125 47.4375 C 47.3125 47.964844 46.832031 48.449219 46.308594 48.449219 L 44.082031 48.449219 L 44.082031 49.324219 Z M 44.082031 47.394531 L 44.082031 46.429688 L 45.785156 46.429688 C 46.441406 46.429688 46.441406 47.394531 45.785156 47.394531 Z M 44.082031 47.394531 "/>
<path style=" stroke:none;fill-rule:evenodd;fill:rgb(12.156863%,10.196079%,9.019608%);fill-opacity:1;" d="M 12.203125 47.855469 L 12.203125 45.441406 L 11.132812 45.441406 L 11.132812 48.378906 C 11.132812 48.890625 11.546875 49.300781 12.050781 49.300781 L 15.042969 49.300781 C 15.554688 49.300781 15.960938 48.890625 15.960938 48.378906 L 15.960938 45.472656 L 14.894531 45.472656 L 14.894531 47.855469 C 14.894531 48.121094 14.679688 48.335938 14.414062 48.335938 L 12.683594 48.335938 C 12.417969 48.335938 12.203125 48.121094 12.203125 47.855469 Z M 12.203125 47.855469 "/>
<path style=" stroke:none;fill-rule:evenodd;fill:rgb(12.156863%,10.196079%,9.019608%);fill-opacity:1;" d="M 43.457031 19.5625 C 42.917969 18.277344 42.324219 17.019531 41.675781 15.78125 C 41.347656 15.195312 41 14.625 40.632812 14.0625 L 31.761719 22.980469 C 32.046875 23.324219 32.292969 23.691406 32.488281 24.085938 Z M 43.457031 19.5625 "/>
<path style=" stroke:none;fill-rule:evenodd;fill:rgb(12.156863%,10.196079%,9.019608%);fill-opacity:1;" d="M 43.839844 20.457031 C 44.371094 21.851562 44.859375 23.265625 45.277344 24.703125 C 44.738281 25.046875 44.355469 25.601562 44.21875 26.234375 L 33.121094 26.234375 C 33.085938 25.804688 33.007812 25.382812 32.875 24.972656 Z M 43.839844 20.457031 "/>
</g>
</svg>
