<svg fill="none" xmlns="http://www.w3.org/2000/svg" viewBox="9.6 6.43 145.02 145.02"><rect id="backgroundrect" width="100%" height="100%" x="0" y="0" fill="none" stroke="none"/>




<g class="currentLayer" style=""><title>Layer 1</title><rect fill="#ffffff" style="color: rgb(0, 0, 0);" stroke-dashoffset="" fill-rule="nonzero" id="svg_5" x="9.609756469726562" y="6.439024448394775" width="145" height="145" class="" opacity="1" fill-opacity="1" rx="40" ry="40"/><path d="M91.61633029174804,50.52936088256836 H96.52853029174804 C101.76813029174805,50.52936088256836 105.84263029174805,52.68756088256836 109.66573029174805,56.54646088256836 L137.05983029174803,83.99306088256836 C141.57583029174805,88.51546088256836 141.54583029174805,95.90516088256835 137.02883029174805,100.42756088256836 C132.51283029174806,104.94986088256836 125.15583029174805,104.98796088256836 120.64013029174805,100.46566088256836 L91.62393029174805,71.41746088256835 L83.79493029174805,63.50156088256836 L76.62083029174805,50.52176088256836 H91.62393029174805 L91.61633029174804,50.52936088256836 z" fill="#730067" id="svg_1" class=""/><path d="M72.04373029174805,112.95736088256837 L51.29073029174805,92.18366088256836 L72.04373029174805,71.40986088256835 L79.87283029174804,63.50156088256836 L87.04693029174804,50.53696088256836 H67.13923029174805 C61.89953029174805,50.53696088256836 57.82503029174805,52.67996088256836 54.001930291748046,56.54646088256836 L27.156250291748048,83.43636088256837 C26.981080291748047,83.59656088256835 26.805930291748048,83.76426088256837 26.638380291748046,83.93206088256836 C24.932440291748048,85.64036088256836 23.866219291748045,87.76806088256836 23.439735291748047,89.98726088256836 C23.439735291748047,90.00256088256836 23.439739291748047,90.02536088256836 23.43212329174805,90.04066088256836 C23.401660291748048,90.20076088256836 23.371196291748046,90.36856088256836 23.348349291748047,90.52876088256836 C23.348349291748047,90.57446088256836 23.34073029174805,90.62786088256836 23.333114291748046,90.67366088256836 C23.317882291748045,90.81086088256836 23.29503729174805,90.94056088256836 23.287421291748046,91.07776088256836 C23.287421291748046,91.14646088256836 23.279814291748046,91.21506088256837 23.272198291748047,91.28376088256836 C23.26458229174805,91.39806088256836 23.256956291748047,91.51246088256836 23.249340291748048,91.62686088256837 C23.249340291748048,91.71076088256837 23.249340291748048,91.79466088256837 23.249340291748048,91.87856088256837 C23.249340291748048,91.97766088256836 23.249340291748048,92.07686088256835 23.249340291748048,92.17596088256836 C23.249340291748048,92.27516088256836 23.249340291748048,92.37426088256836 23.249340291748048,92.47336088256836 C23.249340291748048,92.55726088256836 23.249340291748048,92.64116088256836 23.249340291748048,92.73266088256835 C23.249340291748048,92.84706088256836 23.26458229174805,92.96146088256836 23.272198291748047,93.07586088256836 C23.272198291748047,93.14456088256836 23.279805291748048,93.21316088256836 23.287421291748046,93.28176088256836 C23.302653291748047,93.41906088256836 23.317882291748045,93.54866088256836 23.333114291748046,93.68596088256837 C23.333114291748046,93.73176088256837 23.340733291748048,93.78506088256836 23.348349291748047,93.83086088256836 C23.371196291748046,93.99106088256836 23.401664291748048,94.15116088256836 23.424511291748047,94.31136088256837 C23.424511291748047,94.33416088256836 23.424507291748046,94.34946088256837 23.43212329174805,94.37236088256836 C23.850992291748046,96.59156088256836 24.917200291748046,98.71166088256835 26.630760291748047,100.41986088256836 C26.798300291748046,100.58766088256836 26.973470291748047,100.74786088256836 27.148640291748045,100.90036088256836 L53.99433029174804,127.10356088256836 C57.80983029174805,130.96256088256837 61.89193029174805,132.39656088256837 67.13153029174805,132.39656088256837 H87.03923029174804 L79.86523029174805,120.14156088256836 L72.03613029174804,112.94976088256836 L72.04373029174805,112.95736088256837 z" fill="#97C67D" id="svg_2" class=""/><path d="M137.05183029174805,83.97786088256836 C132.53583029174803,79.45546088256836 125.17883029174804,79.42496088256836 120.66293029174804,83.94736088256836 L91.64683029174805,113.00306088256836 L84.65553029174805,120.00356088256837 L105.81983029174805,21.13041088256836 C106.33003029174805,18.75866088256836 104.34233029174804,16.58520088256836 101.69963029174805,16.58520088256836 H86.08723029174806 C84.06903029174805,16.58520088256836 82.34023029174804,17.858770882568358 81.96713029174805,19.673800882568358 L59.27963029174805,128.55256088256834 C58.784630291748044,130.91656088256838 60.77233029174805,132.40456088256838 63.399830291748046,132.40456088256838 H96.55133029174804 C101.79103029174804,132.40456088256838 105.86543029174804,131.00056088256838 109.68863029174804,127.13456088256837 L137.08283029174805,100.06146088256835 C141.59883029174804,95.53916088256835 141.56883029174804,88.50776088256836 137.05183029174805,83.98546088256836 V83.97786088256836 z" fill="#550044" id="svg_3" class=""/><path d="M75.50903029174805,50.62846088256836 L81.95953029174805,19.673800882568358 C82.34033029174805,17.86640088256836 84.06913029174805,16.58520088256836 86.07973029174805,16.58520088256836 H101.69213029174804 C103.82453029174805,16.58520088256836 104.82223029174804,17.85114088256836 104.84503029174805,17.85114088256836 L75.50903029174805,50.62846088256836 z" fill="#730067" id="svg_4" class=""/></g></svg>