<svg xmlns="http://www.w3.org/2000/svg" xml:space="preserve" style="shape-rendering:geometricPrecision; text-rendering:geometricPrecision; image-rendering:optimizeQuality; fill-rule:evenodd; clip-rule:evenodd" xmlns:xlink="http://www.w3.org/1999/xlink" viewBox="51.22 44.73 185.02 184.02"><rect id="backgroundrect" width="100%" height="100%" x="0" y="0" fill="none" stroke="none" style="" class=""/>
 <defs>
  <style type="text/css">
   <![CDATA[
    .fil0 {fill:#1F1A17}
    .fil1 {fill:#DA251D}
   ]]>
  </style>
 </defs>
 
<g class="currentLayer" style=""><title>Layer 1</title><rect fill="#ffffff" style="color: rgb(5, 55, 108);" stroke-dashoffset="" fill-rule="nonzero" id="svg_2" x="51.23253345489502" y="44.74418258666992" width="185" height="184" class="" rx="50" ry="50"/><g id="Camada_x0020_1" class="">
  <metadata id="CorelCorpID_0Corel-Layer"/>
  <g id="_90919680">
   <path id="_124851560" class="fil0" d="M143.74523797607424,113.63467479248047 l0,-44.5215 c5.15158,0.11894400000000002 10.2834,0.8520410000000002 15.2764,2.21919 c-0.515228,3.05133 0.7924519999999999,6.10255 3.3286700000000002,7.86598 l-14.7414,35.2487 c-1.26811,-0.41607000000000005 -2.55601,-0.6736250000000003 -3.86369,-0.812354 z"/>
   <path id="_124851488" class="fil0" d="M139.8583379760742,113.63467479248047 l0,-44.4621 c-7.01406,0.356598 -13.8696,2.08046 -20.2298,5.07232 l16.4851,40.1624 c1.20864,-0.3961680000000001 2.45685,-0.6538400000000002 3.74474,-0.772667 z"/>
   <path id="_124851416" class="fil0" d="M133.1349379760742,115.52557479248047 l-16.4057,-39.9445 c-6.30086,3.22975 -11.9873,7.58876 -16.7426,12.8394 l29.5224,29.5224 c1.1096,-0.931181 2.31823,-1.74354 3.6259200000000003,-2.41728 z"/>
   <path id="_124851344" class="fil0" d="M97.94243797607422,90.83827479248046 c-4.33923,5.15158 -7.62821,11.1155 -9.66911,17.5154 l36.695100000000004,15.3557 c0.6339390000000001,-1.24833 1.42651,-2.43718 2.33802,-3.50709 l-29.364,-29.364 z"/>
   <path id="_124851272" class="fil0" d="M123.68023797607421,126.66127479248047 l-36.1798,-15.1377 c-0.8322550000000001,6.4592600000000004 -0.6737420000000002,12.9978 0.47542500000000004,19.3976 l34.8524,0 c0.11882700000000002,-1.44629 0.41607000000000005,-2.87292 0.8519240000000001,-4.25985 z"/>
   <path id="_124851200" class="fil0" d="M122.83983797607422,134.11987479248046 l-33.9607,0 c2.06056,5.34978 4.73551,10.4221 7.94536,15.1575 l26.8277,-11.0164 c-0.41607000000000005,-1.3473700000000002 -0.6934100000000001,-2.7343 -0.812354,-4.14114 z"/>
   <path id="_124851128" class="fil0" d="M127.35713797607423,144.62507479248046 c-0.951083,-1.10948 -1.7634400000000001,-2.31812 -2.41728,-3.6259200000000003 l-25.8965,10.6202 c3.60601,3.58634 7.58864,6.73672 11.8684,9.45124 l16.4454,-16.4455 z"/>
   <path id="_124851056" class="fil0" d="M147.9474379760742,168.36697479248045 c-0.37649900000000003,-3.07112 1.03022,-6.06309 3.6457,-7.7273700000000005 l-4.10146,-10.1446 c-6.20171,1.92195 -12.9582,0.5547980000000001 -17.9116,-3.6457 l-15.851,15.8509 c10.4815,5.56777 22.5084,7.56886 34.2184,5.66681 z"/>
   <path id="_124850984" class="fil0" d="M150.25853797607422,149.35247479248045 l4.12124,10.2239 c3.19006,-0.5348970000000001 6.36022,0.9115119999999999 8.06418,3.64582 c1.7634400000000001,-0.8322550000000001 3.50697,-1.70408 5.23084,-2.61548 l-13.6913,-13.7111 c-1.14917,0.970868 -2.39749,1.80301 -3.7249600000000003,2.45685 z"/>
   <path id="_124850912" class="fil0" d="M199.5277379760742,138.11197479248045 c-1.14917,-1.12938 -1.9417400000000002,-2.57579 -2.25876,-4.18071 l-36.6357,0 c-0.3170280000000001,3.94294 -1.88226,7.68768 -4.41848,10.6994 l14.365,14.3649 c10.4418,-5.78564 20.1506,-12.7997 28.9478,-20.8837 z"/>
   <path id="_124850840" class="fil0" d="M178.83263797607424,82.85437479248047 c1.7238700000000002,1.7237500000000001 3.32879,3.54666 4.83455,5.46849 l-29.7205,29.7206 c-1.08981,-0.911396 -2.25876,-1.6840600000000001 -3.50709,-2.33802 l14.7414,-35.2486 c2.7343,0.5547980000000001 5.56765,-0.3962840000000001 7.44991,-2.47675 c2.17951,1.46619 4.25997,3.1108000000000002 6.20171,4.87424 z"/>
   <g id="svg_1">
    <ellipse id="_124850768" class="fil1" cx="155.6639404296875" cy="167.458984375" rx="4.775100231170654" ry="4.794879913330078"/>
    <circle id="_124850696" class="fil1" cx="206.0037384033203" cy="131.74118041992188" r="4.794868469238281"/>
    <circle id="_124850624" class="fil1" cx="166.71414184570312" cy="72.7018051147461" r="4.794868469238281"/>
   </g>
   <polygon id="_124850528" class="fil0" points="106.97693824768066,206.81597137451172 106.97693824768066,194.23397827148438 112.3663387298584,194.23397827148438 119.69733810424805,202.91297149658203 119.69733810424805,194.31397247314453 123.4620361328125,194.31397247314453 123.4620361328125,206.81597137451172 117.71603775024414,206.81597137451172 110.66233825683594,198.57398223876953 110.66233825683594,206.81597137451172 "/>
   <polygon id="_124850456" class="fil0" points="126.62173843383789,206.81597137451172 126.62173843383789,194.13497161865234 130.1485366821289,194.13497161865234 130.1485366821289,206.81597137451172 "/>
   <path id="_124850384" class="fil0" d="M144.27053797607422,202.19397479248047 l3.50709,0 l0,1.68418 c0,1.74354 -1.5058799999999999,3.11069 -3.24953,2.93239 l-7.2914,0 c-1.82291,0 -3.3286700000000002,-1.36715 -3.52687,-3.17016 l0,-6.3404300000000005 c0,-1.88226 1.6446100000000001,-3.36836 3.52687,-3.17016 l7.2914,0 c1.68418,0 3.09102,1.26799 3.26932,2.93239 l0,1.70396 l-3.52687,0 c-0.019785100000000003,-0.8519240000000001 -0.7330970000000001,-1.5058799999999999 -1.58502,-1.46619 l-3.68539,0 c-0.931297,-0.03968660000000001 -1.7238700000000002,0.6736250000000003 -1.7634400000000001,1.58514 l0,3.17016 c0.03957020000000001,0.931297 0.8321390000000001,1.62471 1.7634400000000001,1.58514 l3.68539,0 c0.8321390000000001,0.03957020000000001 1.54545,-0.594485 1.58502,-1.4464100000000002 z"/>
   <path id="_124850312" class="fil0" d="M154.88083797607422,204.81997479248048 l-0.8651920000000001,2.0189 l-3.7494,0 l5.19138,-12.5461 l5.76829,0 l5.3357,12.5461 l-4.03779,0 l-0.5767950000000002,-2.0189 l-7.0662,0 zm5.6241,-3.0284 l-4.32619,0 l2.1631,-5.33558 l2.1631,5.33558 z"/>
   <polygon id="_124850240" class="fil0" points="173.05484008789062,199.5679702758789 173.05484008789062,206.75997161865234 169.52793884277344,206.75997161865234 169.52793884277344,194.07897186279297 173.58983612060547,194.07897186279297 179.95003509521484,203.96598052978516 185.87433624267578,194.07897186279297 189.87673950195312,194.07897186279297 189.87673950195312,206.75997161865234 186.34983825683594,206.75997161865234 186.34983825683594,199.96398162841797 182.26813507080078,206.75997161865234 177.67144012451172,206.75997161865234 "/>
   <path id="_124850168" class="fil0" d="M193.11973797607422,206.81597479248046 l0,-12.8345 l11.1039,0 c1.7305000000000001,0 3.0284,1.4421 3.3168,3.1726 l0,3.461 c0,1.7305000000000001 -1.5863,3.3168 -3.3168,3.3168 l-7.35448,0 l0,2.88409 l-3.7494,0 zm3.7494,-6.34509 l0,-3.1726 l5.62398,0 c2.1631,0 2.1631,3.1726 0,3.1726 l-5.62398,0 z"/>
   <path id="_124850096" class="fil0" d="M91.53429797607421,201.98397479248047 l0,-7.92546 l-3.52687,0 l0,9.64932 c0,1.68418 1.36715,3.03143 3.03155,3.03143 l9.88709,0 c1.6840600000000001,0 3.03143,-1.34725 3.03143,-3.03143 l0,-9.55028 l-3.52687,0 l0,7.82641 c0,0.8718260000000001 -0.713196,1.58514 -1.58502,1.58514 l-5.72616,0 c-0.8718260000000001,0 -1.58514,-0.713312 -1.58514,-1.58514 z"/>
   <path id="_124850024" class="fil0" d="M194.80073797607423,109.01247479248048 c-1.78322,-4.2204 -3.74486,-8.36143 -5.88468,-12.4233 c-1.08981,-1.92195 -2.23898,-3.80421 -3.44762,-5.64691 l-29.3044,29.3046 c0.931181,1.12938 1.74354,2.33802 2.39738,3.6259200000000003 l36.2394,-14.8603 z"/>
   <path id="_124849952" class="fil0" d="M196.0617379760742,111.95387479248046 c1.7633200000000002,4.57688 3.36824,9.23314 4.7553,13.9489 c-1.78334,1.12938 -3.05133,2.95217 -3.50709,5.03264 l-36.6554,0 c-0.11882700000000002,-1.40672 -0.3763830000000001,-2.79366 -0.812354,-4.14103 l36.2196,-14.8405 z"/>
  </g>
 </g></g></svg>